<?xml version="1.0" encoding="utf-8"?>
<!-- Generator: Adobe Illustrator 16.0.4, SVG Export Plug-In . SVG Version: 6.00 Build 0)  -->
<!DOCTYPE svg PUBLIC "-//W3C//DTD SVG 1.1//EN" "http://www.w3.org/Graphics/SVG/1.1/DTD/svg11.dtd">
<svg version="1.1" id="Layer_1" xmlns="http://www.w3.org/2000/svg" xmlns:xlink="http://www.w3.org/1999/xlink" x="0px" y="0px"
	 width="448.746px" height="616.439px" viewBox="0 0 448.746 616.439" enable-background="new 0 0 448.746 616.439"
	 xml:space="preserve">
<rect x="0.5" y="0.5" fill="#FFFFFF" stroke="#C68D06" stroke-miterlimit="10" width="447.747" height="615.439"/>
<g>
	<path fill="#C68D06" d="M370.829,579.894h4.865v-20.967c-1.26,0.665-3.29,1.189-4.796,1.189v-2.205
		c1.995-0.07,3.78-0.595,4.936-1.68h2.31v23.663h4.411v2.24h-11.726V579.894z"/>
	<path fill="#C68D06" d="M388.608,556.231h2.556l7.735,22.612h0.07l7.771-22.612h2.416l-9.102,26.008h-2.345L388.608,556.231z"/>
</g>
<g>
	<g>
		<rect x="80.216" y="157.966" fill="#C0DDE7" width="281.738" height="7.199"/>
	</g>
	<g>
		<rect x="80.216" y="171.879" fill="#C0DDE7" width="281.738" height="7.2"/>
	</g>
	<g>
		<rect x="80.216" y="185.793" fill="#C0DDE7" width="281.738" height="7.2"/>
	</g>
	<g>
		<rect x="80.216" y="199.708" fill="#C0DDE7" width="281.738" height="7.199"/>
	</g>
	<g>
		<rect x="80.216" y="213.622" fill="#C0DDE7" width="281.738" height="7.199"/>
	</g>
	<g>
		<rect x="80.216" y="227.535" fill="#C0DDE7" width="281.738" height="7.199"/>
	</g>
	<g>
		<rect x="80.216" y="241.449" fill="#C0DDE7" width="281.738" height="7.199"/>
	</g>
	<g>
		<rect x="80.216" y="255.362" fill="#C0DDE7" width="281.738" height="7.2"/>
	</g>
	<g>
		<rect x="80.216" y="269.276" fill="#C0DDE7" width="281.738" height="7.199"/>
	</g>
	<g>
		<rect x="80.216" y="283.19" fill="#C0DDE7" width="281.738" height="7.2"/>
	</g>
	<g>
		<rect x="80.216" y="297.104" fill="#C0DDE7" width="281.738" height="7.2"/>
	</g>
	<g>
		<rect x="80.216" y="311.018" fill="#C0DDE7" width="281.738" height="7.2"/>
	</g>
	<g>
		<rect x="80.216" y="324.932" fill="#C0DDE7" width="281.738" height="7.199"/>
	</g>
	<g>
		<rect x="80.216" y="338.845" fill="#C0DDE7" width="281.738" height="7.2"/>
	</g>
	<g>
		<rect x="80.216" y="352.759" fill="#C0DDE7" width="281.738" height="7.201"/>
	</g>
	<g>
		<rect x="80.216" y="366.673" fill="#C0DDE7" width="281.738" height="7.2"/>
	</g>
	<g>
		<rect x="80.216" y="380.587" fill="#C0DDE7" width="281.738" height="7.199"/>
	</g>
	<g>
		<rect x="80.216" y="394.501" fill="#C0DDE7" width="281.738" height="7.199"/>
	</g>
	<g>
		<rect x="80.216" y="408.415" fill="#C0DDE7" width="281.738" height="7.199"/>
	</g>
	<g>
		<rect x="80.216" y="422.328" fill="#C0DDE7" width="281.738" height="7.2"/>
	</g>
	<g>
		<rect x="80.216" y="436.242" fill="#C0DDE7" width="281.738" height="7.201"/>
	</g>
	<g>
		<rect x="80.216" y="450.156" fill="#C0DDE7" width="281.738" height="7.2"/>
	</g>
	<g>
		<rect x="80.216" y="464.07" fill="#C0DDE7" width="281.738" height="7.199"/>
	</g>
	<g>
		<rect x="80.216" y="477.983" fill="#C0DDE7" width="281.738" height="7.201"/>
	</g>
	<g>
		<rect x="80.216" y="60.568" fill="#C0DDE7" width="281.738" height="7.2"/>
	</g>
	<g>
		<rect x="80.216" y="74.482" fill="#C0DDE7" width="281.738" height="7.201"/>
	</g>
	<g>
		<rect x="80.216" y="144.052" fill="#C0DDE7" width="281.738" height="7.2"/>
	</g>
	<g>
		<rect x="80.216" y="88.396" fill="#C0DDE7" width="281.738" height="7.199"/>
	</g>
	<g>
		<rect x="80.216" y="102.31" fill="#C0DDE7" width="281.738" height="7.201"/>
	</g>
	<g>
		<rect x="80.216" y="116.224" fill="#C0DDE7" width="281.738" height="7.199"/>
	</g>
	<g>
		<rect x="80.216" y="130.139" fill="#C0DDE7" width="281.738" height="7.198"/>
	</g>
	<g>
		<g>
			<polygon fill="#7C5904" points="218.39,67.769 80.32,67.769 80.32,60.569 218.39,60.569 222.539,64.169 			"/>
		</g>
		<g>
			<polygon fill="#7C5904" points="223.781,60.569 361.851,60.569 361.851,67.769 223.781,67.769 227.929,64.169 			"/>
		</g>
	</g>
	<g>
		<g>
			<polygon fill="#7C5904" points="218.39,81.683 80.32,81.683 80.32,74.483 218.39,74.483 222.539,78.084 			"/>
		</g>
		<g>
			<polygon fill="#7C5904" points="223.781,74.483 361.851,74.483 361.851,81.683 223.781,81.683 227.929,78.084 			"/>
		</g>
	</g>
	<g>
		<g>
			<polygon fill="#7C5904" points="218.39,151.252 80.32,151.252 80.32,144.052 218.39,144.052 222.539,147.651 			"/>
		</g>
		<g>
			<polygon fill="#7C5904" points="223.781,144.052 361.851,144.052 361.851,151.252 223.781,151.252 227.929,147.651 			"/>
		</g>
	</g>
	<g>
		<g>
			<polygon fill="#7C5904" points="218.39,95.596 80.32,95.596 80.32,88.396 218.39,88.396 222.539,91.996 			"/>
		</g>
		<g>
			<polygon fill="#7C5904" points="223.781,88.396 361.851,88.396 361.851,95.596 223.781,95.596 227.929,91.996 			"/>
		</g>
	</g>
	<g>
		<g>
			<polygon fill="#7C5904" points="218.39,109.511 80.32,109.511 80.32,102.312 218.39,102.312 222.539,105.91 			"/>
		</g>
		<g>
			<polygon fill="#7C5904" points="223.781,102.312 361.851,102.312 361.851,109.511 223.781,109.511 227.929,105.91 			"/>
		</g>
	</g>
	<g>
		<g>
			<polygon fill="#7C5904" points="218.39,123.423 80.32,123.423 80.32,116.223 218.39,116.223 222.539,119.823 			"/>
		</g>
		<g>
			<polygon fill="#7C5904" points="223.781,116.223 361.851,116.223 361.851,123.423 223.781,123.423 227.929,119.823 			"/>
		</g>
	</g>
	<g>
		<g>
			<polygon fill="#7C5904" points="218.39,137.337 80.32,137.337 80.32,130.137 218.39,130.137 222.539,133.737 			"/>
		</g>
		<g>
			<polygon fill="#7C5904" points="223.781,130.137 361.851,130.137 361.851,137.337 223.781,137.337 227.929,133.737 			"/>
		</g>
	</g>
	<g>
		<g>
			<polygon fill="#7C5904" points="218.39,179.079 80.32,179.079 80.32,171.879 218.39,171.879 222.539,175.48 			"/>
		</g>
		<g>
			<polygon fill="#7C5904" points="223.781,171.879 361.851,171.879 361.851,179.079 223.781,179.079 227.929,175.48 			"/>
		</g>
	</g>
	<g>
		<g>
			<polygon fill="#7C5904" points="218.39,192.992 80.32,192.992 80.32,185.793 218.39,185.793 222.539,189.394 			"/>
		</g>
		<g>
			<polygon fill="#7C5904" points="223.781,185.793 361.851,185.793 361.851,192.992 223.781,192.992 227.929,189.394 			"/>
		</g>
	</g>
	<g>
		<g>
			<polygon fill="#7C5904" points="218.39,262.561 80.32,262.561 80.32,255.362 218.39,255.362 222.539,258.961 			"/>
		</g>
		<g>
			<polygon fill="#7C5904" points="223.781,255.362 361.851,255.362 361.851,262.561 223.781,262.561 227.929,258.961 			"/>
		</g>
	</g>
	<g>
		<g>
			<polygon fill="#7C5904" points="218.39,206.907 80.32,206.907 80.32,199.708 218.39,199.708 222.539,203.307 			"/>
		</g>
		<g>
			<polygon fill="#7C5904" points="223.781,199.708 361.851,199.708 361.851,206.907 223.781,206.907 227.929,203.307 			"/>
		</g>
	</g>
	<g>
		<g>
			<polygon fill="#7C5904" points="218.39,220.821 80.32,220.821 80.32,213.622 218.39,213.622 222.539,217.22 			"/>
		</g>
		<g>
			<polygon fill="#7C5904" points="223.781,213.622 361.851,213.622 361.851,220.821 223.781,220.821 227.929,217.22 			"/>
		</g>
	</g>
	<g>
		<g>
			<polygon fill="#7C5904" points="218.39,234.734 80.32,234.734 80.32,227.535 218.39,227.535 222.539,231.134 			"/>
		</g>
		<g>
			<polygon fill="#7C5904" points="223.781,227.535 361.851,227.535 361.851,234.734 223.781,234.734 227.929,231.134 			"/>
		</g>
	</g>
	<g>
		<g>
			<polygon fill="#7C5904" points="218.39,248.649 80.32,248.649 80.32,241.449 218.39,241.449 222.539,245.048 			"/>
		</g>
		<g>
			<polygon fill="#7C5904" points="223.781,241.449 361.851,241.449 361.851,248.649 223.781,248.649 227.929,245.048 			"/>
		</g>
	</g>
	<g>
		<g>
			<polygon fill="#7C5904" points="218.39,290.542 80.32,290.542 80.32,283.343 218.39,283.343 222.539,286.942 			"/>
		</g>
		<g>
			<polygon fill="#7C5904" points="223.781,283.343 361.852,283.343 361.852,290.542 223.781,290.542 227.929,286.942 			"/>
		</g>
	</g>
	<g>
		<g>
			<polygon fill="#7C5904" points="218.39,304.476 80.32,304.476 80.32,297.277 218.39,297.277 222.539,300.876 			"/>
		</g>
		<g>
			<polygon fill="#7C5904" points="223.781,297.277 361.851,297.277 361.851,304.476 223.781,304.476 227.929,300.876 			"/>
		</g>
	</g>
	<g>
		<g>
			<polygon fill="#7C5904" points="218.39,374.146 80.32,374.146 80.32,366.947 218.39,366.947 222.539,370.547 			"/>
		</g>
		<g>
			<polygon fill="#7C5904" points="223.781,366.947 361.851,366.947 361.851,374.146 223.781,374.146 227.929,370.547 			"/>
		</g>
	</g>
	<g>
		<g>
			<polygon fill="#7C5904" points="218.39,318.41 80.32,318.41 80.32,311.211 218.39,311.211 222.539,314.811 			"/>
		</g>
		<g>
			<polygon fill="#7C5904" points="223.781,311.211 361.851,311.211 361.851,318.41 223.781,318.41 227.929,314.811 			"/>
		</g>
	</g>
	<g>
		<g>
			<polygon fill="#7C5904" points="218.39,332.344 80.32,332.344 80.32,325.145 218.39,325.145 222.539,328.744 			"/>
		</g>
		<g>
			<polygon fill="#7C5904" points="223.781,325.145 361.851,325.145 361.851,332.344 223.781,332.344 227.929,328.744 			"/>
		</g>
	</g>
	<g>
		<g>
			<polygon fill="#7C5904" points="218.39,346.279 80.32,346.279 80.32,339.079 218.39,339.079 222.539,342.679 			"/>
		</g>
		<g>
			<polygon fill="#7C5904" points="223.781,339.079 361.851,339.079 361.851,346.279 223.781,346.279 227.929,342.679 			"/>
		</g>
	</g>
	<g>
		<g>
			<polygon fill="#7C5904" points="218.39,360.213 80.32,360.213 80.32,353.013 218.39,353.013 222.539,356.613 			"/>
		</g>
		<g>
			<polygon fill="#7C5904" points="223.781,353.013 361.851,353.013 361.851,360.213 223.781,360.213 227.929,356.613 			"/>
		</g>
	</g>
	<g>
		<g>
			<polygon fill="#7C5904" points="218.39,401.542 80.32,401.542 80.32,394.343 218.39,394.343 222.539,397.942 			"/>
		</g>
		<g>
			<polygon fill="#7C5904" points="223.781,394.343 361.852,394.343 361.852,401.542 223.781,401.542 227.929,397.942 			"/>
		</g>
	</g>
	<g>
		<g>
			<polygon fill="#7C5904" points="218.39,415.476 80.32,415.476 80.32,408.277 218.39,408.277 222.539,411.876 			"/>
		</g>
		<g>
			<polygon fill="#7C5904" points="223.781,408.277 361.851,408.277 361.851,415.476 223.781,415.476 227.929,411.876 			"/>
		</g>
	</g>
	<g>
		<g>
			<polygon fill="#7C5904" points="218.39,485.146 80.32,485.146 80.32,477.947 218.39,477.947 222.539,481.547 			"/>
		</g>
		<g>
			<polygon fill="#7C5904" points="223.781,477.947 361.851,477.947 361.851,485.146 223.781,485.146 227.929,481.547 			"/>
		</g>
	</g>
	<g>
		<g>
			<polygon fill="#7C5904" points="218.39,429.41 80.32,429.41 80.32,422.211 218.39,422.211 222.539,425.811 			"/>
		</g>
		<g>
			<polygon fill="#7C5904" points="223.781,422.211 361.851,422.211 361.851,429.41 223.781,429.41 227.929,425.811 			"/>
		</g>
	</g>
	<g>
		<g>
			<polygon fill="#7C5904" points="218.39,443.344 80.32,443.344 80.32,436.145 218.39,436.145 222.539,439.744 			"/>
		</g>
		<g>
			<polygon fill="#7C5904" points="223.781,436.145 361.851,436.145 361.851,443.344 223.781,443.344 227.929,439.744 			"/>
		</g>
	</g>
	<g>
		<g>
			<polygon fill="#7C5904" points="218.39,457.279 80.32,457.279 80.32,450.079 218.39,450.079 222.539,453.679 			"/>
		</g>
		<g>
			<polygon fill="#7C5904" points="223.781,450.079 361.851,450.079 361.851,457.279 223.781,457.279 227.929,453.679 			"/>
		</g>
	</g>
	<g>
		<g>
			<polygon fill="#7C5904" points="218.39,471.213 80.32,471.213 80.32,464.013 218.39,464.013 222.539,467.613 			"/>
		</g>
		<g>
			<polygon fill="#7C5904" points="223.781,464.013 361.851,464.013 361.851,471.213 223.781,471.213 227.929,467.613 			"/>
		</g>
	</g>
	<g>
		<path fill="#C63706" d="M63.317,66.992c-0.958-0.195-1.844-0.552-2.656-1.073c-0.813-0.52-1.517-1.162-2.111-1.925
			c-0.596-0.764-1.06-1.626-1.393-2.589c-0.333-0.962-0.5-1.983-0.5-3.061c0-0.816,0.097-1.601,0.292-2.353
			c0.195-0.753,0.468-1.456,0.82-2.111c0.352-0.655,0.777-1.251,1.275-1.786c0.498-0.535,1.052-0.993,1.662-1.376
			c0.61-0.382,1.267-0.677,1.971-0.887c0.704-0.21,1.441-0.314,2.212-0.314s1.51,0.104,2.218,0.314
			c0.707,0.21,1.366,0.505,1.977,0.887c0.61,0.383,1.164,0.841,1.662,1.376c0.498,0.534,0.924,1.131,1.28,1.786
			c0.355,0.655,0.63,1.358,0.825,2.111c0.195,0.752,0.292,1.537,0.292,2.353c0,1.093-0.172,2.126-0.516,3.1
			s-0.822,1.845-1.432,2.616c-0.61,0.771-1.335,1.416-2.173,1.932c-0.839,0.518-1.748,0.861-2.729,1.033
			c0.232,0.098,0.462,0.204,0.69,0.32c0.229,0.116,0.459,0.225,0.691,0.326s0.462,0.188,0.691,0.258
			c0.228,0.071,0.462,0.11,0.702,0.118c0.232,0,0.458-0.029,0.679-0.089c0.221-0.06,0.421-0.154,0.601-0.281
			c0.18-0.128,0.335-0.292,0.466-0.494c0.131-0.204,0.219-0.449,0.264-0.743l2.504,1.247c-0.067,0.547-0.223,1.041-0.466,1.482
			c-0.243,0.442-0.556,0.819-0.938,1.134c-0.382,0.314-0.816,0.559-1.303,0.731c-0.487,0.171-1.003,0.257-1.55,0.257
			c-0.442,0-0.885-0.084-1.331-0.252c-0.445-0.169-0.876-0.353-1.291-0.551c-0.416-0.198-0.807-0.381-1.174-0.55
			c-0.367-0.168-0.689-0.252-0.966-0.252c-0.12,0-0.227-0.002-0.32-0.006c-0.093-0.004-0.185-0.004-0.275,0
			s-0.189,0.016-0.297,0.034c-0.109,0.019-0.234,0.054-0.376,0.106L63.317,66.992z M64.89,63.635c0.651,0,1.249-0.141,1.792-0.423
			c0.542-0.28,1.009-0.661,1.397-1.145c0.39-0.482,0.691-1.044,0.904-1.685c0.214-0.639,0.32-1.319,0.32-2.038
			c0-0.727-0.108-1.411-0.326-2.055c-0.217-0.644-0.522-1.208-0.916-1.689c-0.393-0.484-0.859-0.865-1.398-1.146
			c-0.539-0.282-1.13-0.42-1.774-0.42s-1.235,0.139-1.774,0.42c-0.539,0.281-1.003,0.662-1.393,1.146
			c-0.389,0.482-0.694,1.045-0.916,1.689c-0.22,0.645-0.331,1.329-0.331,2.055c0,0.719,0.111,1.399,0.331,2.038
			c0.222,0.641,0.527,1.202,0.916,1.685c0.389,0.484,0.854,0.865,1.393,1.145C63.654,63.494,64.246,63.635,64.89,63.635z"/>
	</g>
	<g>
		<path fill="#398EB0" d="M69.741,166.135c-0.038-0.262-0.129-0.509-0.275-0.74c-0.146-0.233-0.333-0.434-0.562-0.603
			c-0.228-0.167-0.486-0.3-0.774-0.397c-0.289-0.098-0.59-0.147-0.904-0.147c-0.285,0-0.55,0.03-0.797,0.089
			c-0.247,0.061-0.462,0.153-0.646,0.276c-0.184,0.124-0.33,0.283-0.438,0.478c-0.109,0.194-0.163,0.427-0.163,0.696
			c0,0.337,0.073,0.604,0.219,0.803c0.146,0.199,0.333,0.361,0.562,0.488c0.229,0.128,0.481,0.229,0.758,0.304
			c0.276,0.075,0.546,0.157,0.809,0.247l3.088,1.034c0.427,0.149,0.827,0.355,1.202,0.618s0.698,0.581,0.971,0.955
			s0.489,0.805,0.646,1.292s0.236,1.033,0.236,1.64c0,0.823-0.151,1.575-0.455,2.257c-0.303,0.682-0.728,1.266-1.274,1.752
			s-1.202,0.864-1.966,1.134c-0.763,0.269-1.609,0.403-2.538,0.403c-0.651,0-1.267-0.071-1.847-0.218
			c-0.581-0.146-1.11-0.357-1.589-0.634c-0.479-0.276-0.898-0.608-1.258-0.993c-0.359-0.386-0.64-0.823-0.842-1.309h-1.157v-3.379
			h4.065v0.695c0,0.337,0.054,0.648,0.163,0.933c0.109,0.284,0.271,0.531,0.489,0.741c0.217,0.21,0.49,0.372,0.82,0.488
			s0.714,0.174,1.157,0.174c0.674,0,1.187-0.155,1.539-0.466c0.352-0.31,0.528-0.743,0.528-1.297c0-0.284-0.062-0.522-0.185-0.712
			c-0.124-0.192-0.283-0.353-0.478-0.484s-0.412-0.241-0.651-0.332c-0.24-0.089-0.476-0.171-0.708-0.247l-2.572-0.831
			c-0.487-0.149-0.957-0.359-1.409-0.629c-0.453-0.269-0.854-0.606-1.202-1.01c-0.348-0.404-0.625-0.878-0.831-1.421
			c-0.206-0.543-0.309-1.162-0.309-1.858c0-0.809,0.15-1.529,0.45-2.162s0.718-1.166,1.258-1.599
			c0.539-0.435,1.179-0.764,1.92-0.989s1.554-0.338,2.437-0.338c0.696,0,1.34,0.081,1.932,0.243
			c0.591,0.161,1.121,0.376,1.588,0.646c0.469,0.269,0.866,0.578,1.191,0.926c0.326,0.348,0.575,0.709,0.747,1.084h1.123v3.391
			h-4.065V166.135z"/>
	</g>
	<g>
		<path fill="#398EB0" d="M67.551,397.776h1.695l-0.763-2.449H63.25l-0.764,2.449h1.797v3.077h-6.458v-3.077h1.269l4.638-13.949
			h4.503l4.537,13.949h1.235v3.077h-6.458V397.776z M64.137,392.453h3.437l-1.729-5.538L64.137,392.453z"/>
	</g>
	<g>
		<path fill="#C63706" d="M60.42,274.328h7.289v3.088h-1.797v10.861h3.706c0.097,0,0.193-0.029,0.286-0.084
			c0.094-0.057,0.176-0.13,0.247-0.22s0.129-0.187,0.174-0.291c0.044-0.105,0.067-0.206,0.067-0.304v-2.28h3.639v6.256H60.42v-3.077
			h1.763v-10.861H60.42V274.328z"/>
	</g>
</g>
</svg>
