<?xml version="1.0" encoding="utf-8"?>
<!-- Generator: Adobe Illustrator 16.0.4, SVG Export Plug-In . SVG Version: 6.00 Build 0)  -->
<!DOCTYPE svg PUBLIC "-//W3C//DTD SVG 1.1//EN" "http://www.w3.org/Graphics/SVG/1.1/DTD/svg11.dtd">
<svg version="1.1" id="Layer_1" xmlns="http://www.w3.org/2000/svg" xmlns:xlink="http://www.w3.org/1999/xlink" x="0px" y="0px"
	 width="448.746px" height="616.439px" viewBox="0 0 448.746 616.439" enable-background="new 0 0 448.746 616.439"
	 xml:space="preserve">
<rect x="0.5" y="0.5" fill="#FFFFFF" stroke="#C68D06" stroke-miterlimit="10" width="447.746" height="615.439"/>
<g>
	<path fill="#C68D06" d="M369.36,579.894h4.865v-20.967c-1.26,0.665-3.29,1.189-4.796,1.189v-2.205
		c1.995-0.07,3.78-0.594,4.936-1.68h2.311v23.663h4.41v2.24H369.36V579.894z"/>
	<path fill="#C68D06" d="M389.205,556.231h8.681c5.776,0,8.996,2.45,8.996,7c0,4.201-2.45,6.301-6.195,7.001l6.546,11.901h-2.801
		l-6.336-11.621h-6.44v11.621h-2.45V556.231z M397.71,568.308c4.271,0,6.686-1.226,6.686-4.971c0-3.57-2.38-4.831-6.721-4.831
		h-6.021v9.802H397.71z"/>
</g>
<g>
	<g>
		<rect x="80.216" y="157.966" fill="#C0DDE7" width="281.738" height="7.199"/>
	</g>
	<g>
		<rect x="80.216" y="171.88" fill="#C0DDE7" width="281.738" height="7.2"/>
	</g>
	<g>
		<rect x="80.216" y="185.793" fill="#C0DDE7" width="281.738" height="7.201"/>
	</g>
	<g>
		<rect x="80.216" y="199.708" fill="#C0DDE7" width="281.738" height="7.199"/>
	</g>
	<g>
		<rect x="80.216" y="213.622" fill="#C0DDE7" width="281.738" height="7.199"/>
	</g>
	<g>
		<rect x="80.216" y="227.535" fill="#C0DDE7" width="281.738" height="7.199"/>
	</g>
	<g>
		<rect x="80.216" y="241.45" fill="#C0DDE7" width="281.738" height="7.198"/>
	</g>
	<g>
		<rect x="80.216" y="255.362" fill="#C0DDE7" width="281.738" height="7.2"/>
	</g>
	<g>
		<rect x="80.216" y="269.276" fill="#C0DDE7" width="281.738" height="7.2"/>
	</g>
	<g>
		<rect x="80.216" y="283.19" fill="#C0DDE7" width="281.738" height="7.2"/>
	</g>
	<g>
		<rect x="80.216" y="297.104" fill="#C0DDE7" width="281.738" height="7.2"/>
	</g>
	<g>
		<rect x="80.216" y="311.018" fill="#C0DDE7" width="281.738" height="7.2"/>
	</g>
	<g>
		<rect x="80.216" y="324.932" fill="#C0DDE7" width="281.738" height="7.199"/>
	</g>
	<g>
		<rect x="80.216" y="338.845" fill="#C0DDE7" width="281.738" height="7.2"/>
	</g>
	<g>
		<rect x="80.216" y="352.759" fill="#C0DDE7" width="281.738" height="7.201"/>
	</g>
	<g>
		<rect x="80.216" y="366.673" fill="#C0DDE7" width="281.738" height="7.2"/>
	</g>
	<g>
		<rect x="80.216" y="380.587" fill="#C0DDE7" width="281.738" height="7.199"/>
	</g>
	<g>
		<rect x="80.216" y="394.501" fill="#C0DDE7" width="281.738" height="7.199"/>
	</g>
	<g>
		<rect x="80.216" y="408.415" fill="#C0DDE7" width="281.738" height="7.199"/>
	</g>
	<g>
		<rect x="80.216" y="422.328" fill="#C0DDE7" width="281.738" height="7.201"/>
	</g>
	<g>
		<rect x="80.216" y="436.242" fill="#C0DDE7" width="281.738" height="7.201"/>
	</g>
	<g>
		<rect x="80.216" y="450.157" fill="#C0DDE7" width="281.738" height="7.2"/>
	</g>
	<g>
		<rect x="80.216" y="464.07" fill="#C0DDE7" width="281.738" height="7.199"/>
	</g>
	<g>
		<rect x="80.216" y="477.984" fill="#C0DDE7" width="281.738" height="7.201"/>
	</g>
	<g>
		<rect x="80.125" y="60.569" fill="#C63706" width="282.127" height="7.201"/>
	</g>
	<g>
		<rect x="80.216" y="74.483" fill="#C0DDE7" width="281.738" height="7.201"/>
	</g>
	<g>
		<rect x="80.216" y="144.053" fill="#C0DDE7" width="281.738" height="7.199"/>
	</g>
	<g>
		<rect x="80.216" y="88.397" fill="#C0DDE7" width="281.738" height="7.199"/>
	</g>
	<g>
		<rect x="80.216" y="102.311" fill="#C0DDE7" width="281.738" height="7.2"/>
	</g>
	<g>
		<rect x="80.216" y="116.225" fill="#C0DDE7" width="281.738" height="7.199"/>
	</g>
	<g>
		<rect x="80.216" y="130.139" fill="#C0DDE7" width="281.738" height="7.198"/>
	</g>
	<g>
		<g>
			<polygon fill="#7C5904" points="218.39,81.683 80.32,81.683 80.32,74.483 218.39,74.483 222.539,78.084 			"/>
		</g>
		<g>
			<polygon fill="#7C5904" points="223.781,74.483 361.851,74.483 361.851,81.683 223.781,81.683 227.929,78.084 			"/>
		</g>
	</g>
	<g>
		<g>
			<polygon fill="#7C5904" points="218.39,151.252 80.32,151.252 80.32,144.053 218.39,144.053 222.539,147.651 			"/>
		</g>
		<g>
			<polygon fill="#7C5904" points="223.781,144.053 361.851,144.053 361.851,151.252 223.781,151.252 227.929,147.651 			"/>
		</g>
	</g>
	<g>
		<g>
			<polygon fill="#7C5904" points="218.39,95.597 80.32,95.597 80.32,88.397 218.39,88.397 222.539,91.997 			"/>
		</g>
		<g>
			<polygon fill="#7C5904" points="223.781,88.397 361.851,88.397 361.851,95.597 223.781,95.597 227.929,91.997 			"/>
		</g>
	</g>
	<g>
		<g>
			<polygon fill="#7C5904" points="218.39,109.511 80.32,109.511 80.32,102.312 218.39,102.312 222.539,105.91 			"/>
		</g>
		<g>
			<polygon fill="#7C5904" points="223.781,102.312 361.851,102.312 361.851,109.511 223.781,109.511 227.929,105.91 			"/>
		</g>
	</g>
	<g>
		<g>
			<polygon fill="#7C5904" points="218.39,123.424 80.32,123.424 80.32,116.224 218.39,116.224 222.539,119.823 			"/>
		</g>
		<g>
			<polygon fill="#7C5904" points="223.781,116.224 361.851,116.224 361.851,123.424 223.781,123.424 227.929,119.823 			"/>
		</g>
	</g>
	<g>
		<g>
			<polygon fill="#7C5904" points="218.39,137.337 80.32,137.337 80.32,130.138 218.39,130.138 222.539,133.737 			"/>
		</g>
		<g>
			<polygon fill="#7C5904" points="223.781,130.138 361.851,130.138 361.851,137.337 223.781,137.337 227.929,133.737 			"/>
		</g>
	</g>
	<g>
		<g>
			<polygon fill="#7C5904" points="218.39,165.166 80.32,165.166 80.32,157.966 218.39,157.966 222.539,161.565 			"/>
		</g>
		<g>
			<polygon fill="#7C5904" points="223.781,157.966 361.851,157.966 361.851,165.166 223.781,165.166 227.929,161.565 			"/>
		</g>
	</g>
	<g>
		<g>
			<polygon fill="#7C5904" points="218.39,192.993 80.32,192.993 80.32,185.793 218.39,185.793 222.539,189.394 			"/>
		</g>
		<g>
			<polygon fill="#7C5904" points="223.781,185.793 361.851,185.793 361.851,192.993 223.781,192.993 227.929,189.394 			"/>
		</g>
	</g>
	<g>
		<g>
			<polygon fill="#7C5904" points="218.39,262.562 80.32,262.562 80.32,255.362 218.39,255.362 222.539,258.961 			"/>
		</g>
		<g>
			<polygon fill="#7C5904" points="223.781,255.362 361.851,255.362 361.851,262.562 223.781,262.562 227.929,258.961 			"/>
		</g>
	</g>
	<g>
		<g>
			<polygon fill="#7C5904" points="218.39,206.907 80.32,206.907 80.32,199.708 218.39,199.708 222.539,203.307 			"/>
		</g>
		<g>
			<polygon fill="#7C5904" points="223.781,199.708 361.851,199.708 361.851,206.907 223.781,206.907 227.929,203.307 			"/>
		</g>
	</g>
	<g>
		<g>
			<polygon fill="#7C5904" points="218.39,220.821 80.32,220.821 80.32,213.622 218.39,213.622 222.539,217.221 			"/>
		</g>
		<g>
			<polygon fill="#7C5904" points="223.781,213.622 361.851,213.622 361.851,220.821 223.781,220.821 227.929,217.221 			"/>
		</g>
	</g>
	<g>
		<g>
			<polygon fill="#7C5904" points="218.39,234.734 80.32,234.734 80.32,227.535 218.39,227.535 222.539,231.134 			"/>
		</g>
		<g>
			<polygon fill="#7C5904" points="223.781,227.535 361.851,227.535 361.851,234.734 223.781,234.734 227.929,231.134 			"/>
		</g>
	</g>
	<g>
		<g>
			<polygon fill="#7C5904" points="218.39,248.649 80.32,248.649 80.32,241.45 218.39,241.45 222.539,245.049 			"/>
		</g>
		<g>
			<polygon fill="#7C5904" points="223.781,241.45 361.851,241.45 361.851,248.649 223.781,248.649 227.929,245.049 			"/>
		</g>
	</g>
	<g>
		<g>
			<polygon fill="#7C5904" points="218.39,276.476 80.32,276.476 80.32,269.276 218.39,269.276 222.539,272.876 			"/>
		</g>
		<g>
			<polygon fill="#7C5904" points="223.781,269.276 361.851,269.276 361.851,276.476 223.781,276.476 227.929,272.876 			"/>
		</g>
	</g>
	<g>
		<g>
			<polygon fill="#7C5904" points="218.39,304.477 80.32,304.477 80.32,297.277 218.39,297.277 222.539,300.877 			"/>
		</g>
		<g>
			<polygon fill="#7C5904" points="223.781,297.277 361.851,297.277 361.851,304.477 223.781,304.477 227.929,300.877 			"/>
		</g>
	</g>
	<g>
		<g>
			<polygon fill="#7C5904" points="218.39,374.147 80.32,374.147 80.32,366.948 218.39,366.948 222.539,370.547 			"/>
		</g>
		<g>
			<polygon fill="#7C5904" points="223.781,366.948 361.851,366.948 361.851,374.147 223.781,374.147 227.929,370.547 			"/>
		</g>
	</g>
	<g>
		<g>
			<polygon fill="#7C5904" points="218.39,318.411 80.32,318.411 80.32,311.211 218.39,311.211 222.539,314.811 			"/>
		</g>
		<g>
			<polygon fill="#7C5904" points="223.781,311.211 361.851,311.211 361.851,318.411 223.781,318.411 227.929,314.811 			"/>
		</g>
	</g>
	<g>
		<g>
			<polygon fill="#7C5904" points="218.39,332.345 80.32,332.345 80.32,325.146 218.39,325.146 222.539,328.744 			"/>
		</g>
		<g>
			<polygon fill="#7C5904" points="223.781,325.146 361.851,325.146 361.851,332.345 223.781,332.345 227.929,328.744 			"/>
		</g>
	</g>
	<g>
		<g>
			<polygon fill="#7C5904" points="218.39,346.279 80.32,346.279 80.32,339.079 218.39,339.079 222.539,342.68 			"/>
		</g>
		<g>
			<polygon fill="#7C5904" points="223.781,339.079 361.851,339.079 361.851,346.279 223.781,346.279 227.929,342.68 			"/>
		</g>
	</g>
	<g>
		<g>
			<polygon fill="#7C5904" points="218.39,360.213 80.32,360.213 80.32,353.014 218.39,353.014 222.539,356.613 			"/>
		</g>
		<g>
			<polygon fill="#7C5904" points="223.781,353.014 361.851,353.014 361.851,360.213 223.781,360.213 227.929,356.613 			"/>
		</g>
	</g>
	<g>
		<g>
			<polygon fill="#7C5904" points="218.39,387.787 80.32,387.787 80.32,380.587 218.39,380.587 222.539,384.187 			"/>
		</g>
		<g>
			<polygon fill="#7C5904" points="223.781,380.587 361.851,380.587 361.851,387.787 223.781,387.787 227.929,384.187 			"/>
		</g>
	</g>
	<g>
		<g>
			<polygon fill="#7C5904" points="218.39,415.477 80.32,415.477 80.32,408.277 218.39,408.277 222.539,411.877 			"/>
		</g>
		<g>
			<polygon fill="#7C5904" points="223.781,408.277 361.851,408.277 361.851,415.477 223.781,415.477 227.929,411.877 			"/>
		</g>
	</g>
	<g>
		<g>
			<polygon fill="#7C5904" points="218.39,485.147 80.32,485.147 80.32,477.948 218.39,477.948 222.539,481.547 			"/>
		</g>
		<g>
			<polygon fill="#7C5904" points="223.781,477.948 361.851,477.948 361.851,485.147 223.781,485.147 227.929,481.547 			"/>
		</g>
	</g>
	<g>
		<g>
			<polygon fill="#7C5904" points="218.39,429.411 80.32,429.411 80.32,422.211 218.39,422.211 222.539,425.811 			"/>
		</g>
		<g>
			<polygon fill="#7C5904" points="223.781,422.211 361.851,422.211 361.851,429.411 223.781,429.411 227.929,425.811 			"/>
		</g>
	</g>
	<g>
		<g>
			<polygon fill="#7C5904" points="218.39,443.345 80.32,443.345 80.32,436.146 218.39,436.146 222.539,439.744 			"/>
		</g>
		<g>
			<polygon fill="#7C5904" points="223.781,436.146 361.851,436.146 361.851,443.345 223.781,443.345 227.929,439.744 			"/>
		</g>
	</g>
	<g>
		<g>
			<polygon fill="#7C5904" points="218.39,457.279 80.32,457.279 80.32,450.079 218.39,450.079 222.539,453.68 			"/>
		</g>
		<g>
			<polygon fill="#7C5904" points="223.781,450.079 361.851,450.079 361.851,457.279 223.781,457.279 227.929,453.68 			"/>
		</g>
	</g>
	<g>
		<g>
			<polygon fill="#7C5904" points="218.39,471.213 80.32,471.213 80.32,464.014 218.39,464.014 222.539,467.613 			"/>
		</g>
		<g>
			<polygon fill="#7C5904" points="223.781,464.014 361.851,464.014 361.851,471.213 223.781,471.213 227.929,467.613 			"/>
		</g>
	</g>
	<g>
		<rect x="80.216" y="491.984" fill="#C0DDE7" width="281.738" height="7.201"/>
	</g>
	<g>
		<g>
			<polygon fill="#7C5904" points="218.39,499.147 80.32,499.147 80.32,491.948 218.39,491.948 222.539,495.547 			"/>
		</g>
		<g>
			<polygon fill="#7C5904" points="223.781,491.948 361.851,491.948 361.851,499.147 223.781,499.147 227.929,495.547 			"/>
		</g>
	</g>
	<g>
		<path fill="#C63706" d="M66.742,71.832h7.289v3.087h-1.516l-4.548,13.938h-4.604l-4.414-13.938h-1.64v-3.087h7.3v3.087h-1.819
			l2.964,9.659l2.954-9.659h-1.965V71.832z"/>
	</g>
	<g>
		<path fill="#398EB0" d="M61.093,50.832h13.173v5.807h-3.65v-2.393h-4.032v3.582h3.493v3.269h-3.493v3.684h1.797v3.077h-7.289
			v-3.077h1.763V54.246h-1.763V50.832z"/>
	</g>
	<g>
		<path fill="#C63706" d="M59.813,176.005h7.861c0.876,0,1.681,0.138,2.414,0.411c0.734,0.273,1.367,0.642,1.898,1.105
			c0.532,0.465,0.947,1,1.247,1.606c0.299,0.607,0.449,1.24,0.449,1.898c0,0.794-0.118,1.537-0.354,2.229
			c-0.236,0.693-0.601,1.294-1.096,1.803c-0.494,0.509-1.119,0.911-1.875,1.207s-1.651,0.445-2.684,0.445h-2.37v3.245h1.561v3.077
			h-7.053v-3.077h1.763v-10.86h-1.763V176.005z M65.305,179.094v4.571h1.539c0.854,0,1.531-0.18,2.033-0.539
			c0.501-0.359,0.752-0.929,0.752-1.708c0-0.726-0.236-1.294-0.708-1.707c-0.471-0.412-1.164-0.617-2.077-0.617H65.305z"/>
	</g>
	<g>
		<path fill="#C63706" d="M63.317,415.322c-0.958-0.195-1.844-0.552-2.656-1.072c-0.812-0.521-1.517-1.163-2.111-1.926
			c-0.596-0.764-1.06-1.627-1.393-2.589c-0.333-0.962-0.5-1.983-0.5-3.06c0-0.816,0.097-1.601,0.292-2.353
			c0.195-0.753,0.468-1.456,0.82-2.111s0.776-1.25,1.274-1.786c0.498-0.536,1.052-0.994,1.663-1.376
			c0.609-0.38,1.267-0.677,1.971-0.887s1.441-0.314,2.212-0.314s1.51,0.104,2.218,0.314c0.707,0.21,1.366,0.506,1.977,0.887
			c0.61,0.383,1.164,0.841,1.662,1.376c0.498,0.535,0.924,1.13,1.28,1.786c0.355,0.655,0.63,1.358,0.825,2.111
			c0.195,0.752,0.292,1.537,0.292,2.353c0,1.093-0.172,2.126-0.517,3.1c-0.344,0.973-0.822,1.845-1.432,2.616
			c-0.611,0.771-1.335,1.416-2.173,1.932c-0.838,0.518-1.749,0.862-2.729,1.034c0.231,0.098,0.462,0.204,0.69,0.32
			c0.228,0.117,0.459,0.225,0.691,0.327c0.232,0.1,0.462,0.186,0.691,0.257c0.228,0.071,0.462,0.11,0.702,0.118
			c0.232,0,0.458-0.03,0.679-0.089c0.221-0.06,0.421-0.153,0.601-0.28c0.18-0.128,0.335-0.293,0.466-0.494
			c0.131-0.203,0.219-0.449,0.264-0.742l2.504,1.247c-0.067,0.547-0.223,1.042-0.466,1.482c-0.243,0.442-0.556,0.82-0.938,1.134
			c-0.382,0.314-0.816,0.558-1.303,0.73c-0.487,0.172-1.003,0.258-1.55,0.258c-0.442,0-0.886-0.084-1.331-0.252
			c-0.445-0.169-0.876-0.353-1.291-0.55c-0.416-0.199-0.807-0.382-1.174-0.55c-0.367-0.168-0.689-0.252-0.966-0.252
			c-0.12,0-0.227-0.002-0.32-0.006s-0.185-0.004-0.275,0s-0.189,0.016-0.298,0.034c-0.108,0.019-0.234,0.055-0.376,0.107
			L63.317,415.322z M64.889,411.965c0.651,0,1.249-0.141,1.792-0.422c0.542-0.28,1.009-0.662,1.398-1.146
			c0.389-0.482,0.691-1.044,0.904-1.685c0.214-0.639,0.32-1.318,0.32-2.037c0-0.727-0.108-1.412-0.326-2.056
			c-0.217-0.643-0.522-1.207-0.916-1.689c-0.393-0.483-0.859-0.865-1.398-1.146c-0.539-0.282-1.13-0.421-1.774-0.421
			s-1.235,0.139-1.774,0.421c-0.539,0.28-1.003,0.662-1.393,1.146c-0.389,0.482-0.694,1.046-0.916,1.689
			c-0.221,0.645-0.331,1.329-0.331,2.056c0,0.719,0.11,1.398,0.331,2.037c0.221,0.641,0.526,1.203,0.916,1.685
			c0.389,0.483,0.854,0.866,1.393,1.146C63.654,411.824,64.245,411.965,64.889,411.965z"/>
	</g>
	<g>
		<path fill="#398EB0" d="M60.038,287.078h13.544v5.807H69.92v-2.416h-4.369v3.358h3.38v3.256h-3.38v3.942h4.369v-3.021h3.661v6.099
			H60.038v-3.077h1.786V290.47h-1.786V287.078z"/>
	</g>
</g>
</svg>
