<?xml version="1.0" encoding="utf-8"?>
<!-- Generator: Adobe Illustrator 16.0.4, SVG Export Plug-In . SVG Version: 6.00 Build 0)  -->
<!DOCTYPE svg PUBLIC "-//W3C//DTD SVG 1.1//EN" "http://www.w3.org/Graphics/SVG/1.1/DTD/svg11.dtd">
<svg version="1.1" id="Layer_1" xmlns="http://www.w3.org/2000/svg" xmlns:xlink="http://www.w3.org/1999/xlink" x="0px" y="0px"
	 width="448.746px" height="616.439px" viewBox="0 0 448.746 616.439" enable-background="new 0 0 448.746 616.439"
	 xml:space="preserve">
<rect x="0.5" y="0.5" fill="#FFFFFF" stroke="#C68D06" stroke-miterlimit="10" width="447.747" height="615.439"/>
<g>
	<rect x="80.217" y="157.966" fill="#C0DDE7" width="281.738" height="7.199"/>
</g>
<g>
	<rect x="80.217" y="171.88" fill="#C0DDE7" width="281.738" height="7.199"/>
</g>
<g>
	<rect x="80.217" y="185.793" fill="#C0DDE7" width="281.738" height="7.2"/>
</g>
<g>
	<rect x="80.217" y="199.708" fill="#C0DDE7" width="281.738" height="7.199"/>
</g>
<g>
	<rect x="80.217" y="213.622" fill="#C0DDE7" width="281.738" height="7.199"/>
</g>
<g>
	<rect x="80.217" y="227.536" fill="#C0DDE7" width="281.738" height="7.199"/>
</g>
<g>
	<rect x="80.217" y="241.449" fill="#C0DDE7" width="281.738" height="7.199"/>
</g>
<g>
	<rect x="80.217" y="255.362" fill="#C0DDE7" width="281.738" height="7.2"/>
</g>
<g>
	<rect x="80.217" y="269.277" fill="#C0DDE7" width="281.738" height="7.199"/>
</g>
<g>
	<rect x="80.217" y="283.19" fill="#C0DDE7" width="281.738" height="7.2"/>
</g>
<g>
	<rect x="80.217" y="297.104" fill="#C0DDE7" width="281.738" height="7.2"/>
</g>
<g>
	<rect x="80.217" y="311.018" fill="#C0DDE7" width="281.738" height="7.2"/>
</g>
<g>
	<rect x="80.217" y="324.932" fill="#C0DDE7" width="281.738" height="7.199"/>
</g>
<g>
	<rect x="80.217" y="338.846" fill="#C0DDE7" width="281.738" height="7.2"/>
</g>
<g>
	<rect x="80.217" y="352.759" fill="#C0DDE7" width="281.738" height="7.201"/>
</g>
<g>
	<rect x="80.217" y="366.673" fill="#C0DDE7" width="281.738" height="7.2"/>
</g>
<g>
	<rect x="80.217" y="380.587" fill="#C0DDE7" width="281.738" height="7.199"/>
</g>
<g>
	<rect x="80.217" y="394.501" fill="#C0DDE7" width="281.738" height="7.199"/>
</g>
<g>
	<rect x="80.217" y="408.415" fill="#C0DDE7" width="281.738" height="7.199"/>
</g>
<g>
	<rect x="80.217" y="422.329" fill="#C0DDE7" width="281.738" height="7.2"/>
</g>
<g>
	<rect x="80.217" y="436.242" fill="#C0DDE7" width="281.738" height="7.2"/>
</g>
<g>
	<rect x="80.217" y="450.157" fill="#C0DDE7" width="281.738" height="7.2"/>
</g>
<g>
	<rect x="80.217" y="464.07" fill="#C0DDE7" width="281.738" height="7.199"/>
</g>
<g>
	<rect x="80.217" y="477.984" fill="#C0DDE7" width="281.738" height="7.2"/>
</g>
<g>
	<rect x="80.217" y="60.569" fill="#C0DDE7" width="281.738" height="7.2"/>
</g>
<g>
	<rect x="80.217" y="74.483" fill="#C0DDE7" width="281.738" height="7.201"/>
</g>
<g>
	<rect x="80.217" y="144.052" fill="#C0DDE7" width="281.738" height="7.2"/>
</g>
<g>
	<rect x="80.217" y="88.397" fill="#C0DDE7" width="281.738" height="7.199"/>
</g>
<g>
	<rect x="80.217" y="102.311" fill="#C0DDE7" width="281.738" height="7.201"/>
</g>
<g>
	<rect x="80.217" y="116.225" fill="#C0DDE7" width="281.738" height="7.199"/>
</g>
<g>
	<rect x="80.217" y="130.139" fill="#C0DDE7" width="281.738" height="7.198"/>
</g>
<g>
	<path fill="#C68D06" d="M364.984,581.573c0-3.745,1.854-7.175,8.681-11.551c3.885-2.485,5.46-4.235,5.46-7.036
		c0-3.045-1.89-5.04-5.285-5.04c-2.835,0-4.9,1.47-6.44,4.481l-1.961-1.155c1.82-3.5,4.691-5.531,8.507-5.531
		c4.69,0,7.596,2.94,7.596,7.106c0,3.535-1.716,5.775-6.687,8.925c-4.69,2.976-6.965,5.775-7.141,8.122h13.932v2.24h-16.661V581.573
		z"/>
	<path fill="#C68D06" d="M388.608,556.231h2.556l7.735,22.612h0.07l7.771-22.612h2.416l-9.102,26.008h-2.345L388.608,556.231z"/>
</g>
<g>
	<g>
		<polygon fill="#7C5904" points="218.39,67.769 80.32,67.769 80.32,60.57 218.39,60.57 222.539,64.169 		"/>
	</g>
	<g>
		<polygon fill="#7C5904" points="223.781,60.57 361.851,60.57 361.851,67.769 223.781,67.769 227.929,64.169 		"/>
	</g>
</g>
<g>
	<g>
		<polygon fill="#7C5904" points="218.39,81.683 80.32,81.683 80.32,74.483 218.39,74.483 222.539,78.084 		"/>
	</g>
	<g>
		<polygon fill="#7C5904" points="223.781,74.483 361.851,74.483 361.851,81.683 223.781,81.683 227.929,78.084 		"/>
	</g>
</g>
<g>
	<g>
		<polygon fill="#7C5904" points="218.39,151.252 80.32,151.252 80.32,144.052 218.39,144.052 222.539,147.652 		"/>
	</g>
	<g>
		<polygon fill="#7C5904" points="223.781,144.052 361.851,144.052 361.851,151.252 223.781,151.252 227.929,147.652 		"/>
	</g>
</g>
<g>
	<g>
		<polygon fill="#7C5904" points="218.39,95.596 80.32,95.596 80.32,88.397 218.39,88.397 222.539,91.997 		"/>
	</g>
	<g>
		<polygon fill="#7C5904" points="223.781,88.397 361.851,88.397 361.851,95.596 223.781,95.596 227.929,91.997 		"/>
	</g>
</g>
<g>
	<g>
		<polygon fill="#7C5904" points="218.39,109.511 80.32,109.511 80.32,102.312 218.39,102.312 222.539,105.91 		"/>
	</g>
	<g>
		<polygon fill="#7C5904" points="223.781,102.312 361.851,102.312 361.851,109.511 223.781,109.511 227.929,105.91 		"/>
	</g>
</g>
<g>
	<g>
		<polygon fill="#7C5904" points="218.39,123.424 80.32,123.424 80.32,116.224 218.39,116.224 222.539,119.823 		"/>
	</g>
	<g>
		<polygon fill="#7C5904" points="223.781,116.224 361.851,116.224 361.851,123.424 223.781,123.424 227.929,119.823 		"/>
	</g>
</g>
<g>
	<g>
		<polygon fill="#7C5904" points="218.39,137.337 80.32,137.337 80.32,130.138 218.39,130.138 222.539,133.737 		"/>
	</g>
	<g>
		<polygon fill="#7C5904" points="223.781,130.138 361.851,130.138 361.851,137.337 223.781,137.337 227.929,133.737 		"/>
	</g>
</g>
<g>
	<g>
		<polygon fill="#7C5904" points="218.39,179.079 80.32,179.079 80.32,171.88 218.39,171.88 222.539,175.48 		"/>
	</g>
	<g>
		<polygon fill="#7C5904" points="223.781,171.88 361.851,171.88 361.851,179.079 223.781,179.079 227.93,175.48 		"/>
	</g>
</g>
<g>
	<g>
		<polygon fill="#7C5904" points="218.39,192.993 80.32,192.993 80.32,185.793 218.39,185.793 222.539,189.394 		"/>
	</g>
	<g>
		<polygon fill="#7C5904" points="223.781,185.793 361.851,185.793 361.851,192.993 223.781,192.993 227.929,189.394 		"/>
	</g>
</g>
<g>
	<g>
		<polygon fill="#7C5904" points="218.39,262.562 80.32,262.562 80.32,255.362 218.39,255.362 222.539,258.961 		"/>
	</g>
	<g>
		<polygon fill="#7C5904" points="223.781,255.362 361.851,255.362 361.851,262.562 223.781,262.562 227.929,258.961 		"/>
	</g>
</g>
<g>
	<g>
		<polygon fill="#7C5904" points="218.39,206.907 80.32,206.907 80.32,199.708 218.39,199.708 222.539,203.307 		"/>
	</g>
	<g>
		<polygon fill="#7C5904" points="223.781,199.708 361.851,199.708 361.851,206.907 223.781,206.907 227.929,203.307 		"/>
	</g>
</g>
<g>
	<g>
		<polygon fill="#7C5904" points="218.39,220.821 80.32,220.821 80.32,213.622 218.39,213.622 222.539,217.22 		"/>
	</g>
	<g>
		<polygon fill="#7C5904" points="223.781,213.622 361.851,213.622 361.851,220.821 223.781,220.821 227.929,217.22 		"/>
	</g>
</g>
<g>
	<g>
		<polygon fill="#7C5904" points="218.39,234.735 80.32,234.735 80.32,227.536 218.39,227.536 222.539,231.134 		"/>
	</g>
	<g>
		<polygon fill="#7C5904" points="223.781,227.536 361.851,227.536 361.851,234.735 223.781,234.735 227.929,231.134 		"/>
	</g>
</g>
<g>
	<g>
		<polygon fill="#7C5904" points="218.39,248.649 80.32,248.649 80.32,241.449 218.39,241.449 222.539,245.049 		"/>
	</g>
	<g>
		<polygon fill="#7C5904" points="223.781,241.449 361.851,241.449 361.851,248.649 223.781,248.649 227.929,245.049 		"/>
	</g>
</g>
<g>
	<g>
		<polygon fill="#7C5904" points="218.39,290.542 80.32,290.542 80.32,283.343 218.39,283.343 222.539,286.943 		"/>
	</g>
	<g>
		<polygon fill="#7C5904" points="223.781,283.343 361.852,283.343 361.852,290.542 223.781,290.542 227.93,286.943 		"/>
	</g>
</g>
<g>
	<g>
		<polygon fill="#7C5904" points="218.39,304.477 80.32,304.477 80.32,297.277 218.39,297.277 222.539,300.877 		"/>
	</g>
	<g>
		<polygon fill="#7C5904" points="223.781,297.277 361.851,297.277 361.851,304.477 223.781,304.477 227.929,300.877 		"/>
	</g>
</g>
<g>
	<g>
		<polygon fill="#7C5904" points="218.39,374.147 80.32,374.147 80.32,366.948 218.39,366.948 222.539,370.547 		"/>
	</g>
	<g>
		<polygon fill="#7C5904" points="223.781,366.948 361.851,366.948 361.851,374.147 223.781,374.147 227.929,370.547 		"/>
	</g>
</g>
<g>
	<g>
		<polygon fill="#7C5904" points="218.39,318.411 80.32,318.411 80.32,311.211 218.39,311.211 222.539,314.811 		"/>
	</g>
	<g>
		<polygon fill="#7C5904" points="223.781,311.211 361.851,311.211 361.851,318.411 223.781,318.411 227.929,314.811 		"/>
	</g>
</g>
<g>
	<g>
		<polygon fill="#7C5904" points="218.39,332.345 80.32,332.345 80.32,325.146 218.39,325.146 222.539,328.744 		"/>
	</g>
	<g>
		<polygon fill="#7C5904" points="223.781,325.146 361.851,325.146 361.851,332.345 223.781,332.345 227.929,328.744 		"/>
	</g>
</g>
<g>
	<g>
		<polygon fill="#7C5904" points="218.39,346.279 80.32,346.279 80.32,339.079 218.39,339.079 222.539,342.679 		"/>
	</g>
	<g>
		<polygon fill="#7C5904" points="223.781,339.079 361.851,339.079 361.851,346.279 223.781,346.279 227.929,342.679 		"/>
	</g>
</g>
<g>
	<g>
		<polygon fill="#7C5904" points="218.39,360.213 80.32,360.213 80.32,353.014 218.39,353.014 222.539,356.613 		"/>
	</g>
	<g>
		<polygon fill="#7C5904" points="223.781,353.014 361.851,353.014 361.851,360.213 223.781,360.213 227.929,356.613 		"/>
	</g>
</g>
<g>
	<g>
		<polygon fill="#7C5904" points="218.39,401.542 80.32,401.542 80.32,394.343 218.39,394.343 222.539,397.942 		"/>
	</g>
	<g>
		<polygon fill="#7C5904" points="223.781,394.343 361.852,394.343 361.852,401.542 223.781,401.542 227.93,397.942 		"/>
	</g>
</g>
<g>
	<g>
		<polygon fill="#7C5904" points="218.39,415.477 80.32,415.477 80.32,408.277 218.39,408.277 222.539,411.877 		"/>
	</g>
	<g>
		<polygon fill="#7C5904" points="223.781,408.277 361.851,408.277 361.851,415.477 223.781,415.477 227.929,411.877 		"/>
	</g>
</g>
<g>
	<g>
		<polygon fill="#7C5904" points="218.39,485.147 80.32,485.147 80.32,477.948 218.39,477.948 222.539,481.547 		"/>
	</g>
	<g>
		<polygon fill="#7C5904" points="223.781,477.948 361.851,477.948 361.851,485.147 223.781,485.147 227.929,481.547 		"/>
	</g>
</g>
<g>
	<g>
		<polygon fill="#7C5904" points="218.39,429.411 80.32,429.411 80.32,422.211 218.39,422.211 222.539,425.811 		"/>
	</g>
	<g>
		<polygon fill="#7C5904" points="223.781,422.211 361.851,422.211 361.851,429.411 223.781,429.411 227.929,425.811 		"/>
	</g>
</g>
<g>
	<g>
		<polygon fill="#7C5904" points="218.39,443.345 80.32,443.345 80.32,436.146 218.39,436.146 222.539,439.744 		"/>
	</g>
	<g>
		<polygon fill="#7C5904" points="223.781,436.146 361.851,436.146 361.851,443.345 223.781,443.345 227.929,439.744 		"/>
	</g>
</g>
<g>
	<g>
		<polygon fill="#7C5904" points="218.39,457.279 80.32,457.279 80.32,450.079 218.39,450.079 222.539,453.679 		"/>
	</g>
	<g>
		<polygon fill="#7C5904" points="223.781,450.079 361.851,450.079 361.851,457.279 223.781,457.279 227.929,453.679 		"/>
	</g>
</g>
<g>
	<g>
		<polygon fill="#7C5904" points="218.39,471.213 80.32,471.213 80.32,464.013 218.39,464.013 222.539,467.613 		"/>
	</g>
	<g>
		<polygon fill="#7C5904" points="223.781,464.013 361.851,464.013 361.851,471.213 223.781,471.213 227.929,467.613 		"/>
	</g>
</g>
<g>
	<path fill="#C63706" d="M63.317,66.992c-0.958-0.194-1.844-0.552-2.656-1.073c-0.813-0.52-1.517-1.162-2.111-1.925
		c-0.596-0.764-1.06-1.626-1.393-2.589c-0.333-0.962-0.5-1.982-0.5-3.061c0-0.816,0.097-1.601,0.292-2.353
		c0.195-0.753,0.468-1.456,0.82-2.111c0.352-0.655,0.777-1.251,1.275-1.786c0.498-0.535,1.052-0.993,1.662-1.376
		c0.61-0.382,1.267-0.677,1.971-0.887s1.441-0.314,2.212-0.314s1.51,0.104,2.218,0.314c0.707,0.21,1.366,0.505,1.977,0.887
		c0.61,0.383,1.164,0.841,1.662,1.376c0.498,0.535,0.924,1.131,1.28,1.786c0.355,0.655,0.63,1.358,0.825,2.111
		c0.195,0.752,0.292,1.537,0.292,2.353c0,1.093-0.172,2.126-0.516,3.1s-0.822,1.845-1.432,2.616
		c-0.61,0.771-1.335,1.416-2.173,1.932c-0.839,0.518-1.748,0.861-2.729,1.033c0.232,0.098,0.462,0.204,0.69,0.32
		c0.229,0.116,0.459,0.225,0.691,0.326c0.232,0.101,0.462,0.187,0.691,0.258c0.228,0.071,0.462,0.11,0.702,0.118
		c0.232,0,0.458-0.03,0.679-0.09c0.221-0.06,0.421-0.153,0.601-0.28c0.18-0.128,0.335-0.292,0.466-0.494
		c0.131-0.203,0.219-0.449,0.264-0.742l2.504,1.247c-0.067,0.547-0.223,1.041-0.466,1.482c-0.243,0.442-0.556,0.819-0.938,1.134
		c-0.382,0.314-0.816,0.559-1.303,0.731c-0.487,0.171-1.003,0.257-1.55,0.257c-0.442,0-0.885-0.084-1.331-0.252
		c-0.445-0.169-0.876-0.353-1.291-0.551c-0.416-0.198-0.807-0.382-1.174-0.55c-0.367-0.168-0.689-0.252-0.966-0.252
		c-0.12,0-0.227-0.002-0.32-0.006c-0.093-0.004-0.185-0.004-0.275,0s-0.189,0.016-0.297,0.034c-0.109,0.019-0.234,0.054-0.376,0.106
		L63.317,66.992z M64.89,63.635c0.651,0,1.249-0.141,1.792-0.423c0.542-0.28,1.009-0.661,1.397-1.145
		c0.39-0.482,0.691-1.044,0.904-1.685c0.214-0.639,0.32-1.319,0.32-2.038c0-0.727-0.108-1.411-0.326-2.055s-0.522-1.208-0.916-1.69
		c-0.393-0.483-0.859-0.865-1.398-1.146c-0.539-0.281-1.13-0.421-1.774-0.421s-1.235,0.14-1.774,0.421
		c-0.539,0.281-1.003,0.662-1.393,1.146c-0.389,0.482-0.694,1.046-0.916,1.69c-0.22,0.644-0.331,1.329-0.331,2.055
		c0,0.719,0.111,1.399,0.331,2.038c0.222,0.641,0.527,1.202,0.916,1.685c0.389,0.484,0.854,0.865,1.393,1.145
		C63.654,63.494,64.246,63.635,64.89,63.635z"/>
</g>
<g>
	<path fill="#398EB0" d="M65.047,178.668c-0.771,0-1.509-0.104-2.212-0.314c-0.704-0.209-1.361-0.505-1.971-0.887
		c-0.61-0.382-1.165-0.841-1.662-1.376c-0.498-0.535-0.923-1.13-1.275-1.785c-0.352-0.655-0.625-1.357-0.82-2.106
		c-0.195-0.748-0.292-1.531-0.292-2.347s0.097-1.601,0.292-2.353c0.195-0.753,0.468-1.457,0.82-2.111s0.777-1.25,1.275-1.786
		c0.498-0.535,1.052-0.993,1.662-1.376c0.61-0.381,1.267-0.677,1.971-0.887c0.703-0.21,1.441-0.314,2.212-0.314
		s1.51,0.104,2.218,0.314c0.708,0.21,1.367,0.506,1.977,0.887c0.61,0.383,1.164,0.841,1.662,1.376
		c0.498,0.535,0.924,1.131,1.28,1.786s0.631,1.358,0.826,2.111c0.194,0.751,0.292,1.537,0.292,2.353
		c0,0.809-0.098,1.589-0.292,2.342c-0.195,0.752-0.47,1.456-0.826,2.111c-0.356,0.655-0.782,1.25-1.28,1.785
		c-0.498,0.535-1.052,0.994-1.662,1.376c-0.61,0.382-1.27,0.678-1.977,0.887C66.557,178.564,65.818,178.668,65.047,178.668z
		 M65.047,175.144c0.651,0,1.249-0.142,1.792-0.422c0.542-0.28,1.009-0.662,1.398-1.146c0.389-0.482,0.691-1.044,0.903-1.685
		c0.214-0.639,0.321-1.319,0.321-2.038c0-0.727-0.108-1.411-0.326-2.056c-0.217-0.644-0.522-1.207-0.916-1.689
		c-0.393-0.483-0.859-0.865-1.398-1.146c-0.539-0.281-1.13-0.42-1.774-0.42s-1.235,0.14-1.774,0.42
		c-0.539,0.281-1.004,0.663-1.393,1.146c-0.389,0.482-0.694,1.046-0.916,1.689c-0.221,0.645-0.331,1.329-0.331,2.056
		c0,0.719,0.11,1.399,0.331,2.038c0.221,0.641,0.526,1.202,0.916,1.685c0.389,0.484,0.854,0.865,1.393,1.146
		C63.812,175.002,64.403,175.144,65.047,175.144z"/>
</g>
<g>
	<path fill="#398EB0" d="M49.201,397.777h1.583v-10.861h-1.583v-3.088h7.008l5.02,12.286l4.661-12.286h7.108v3.088h-1.583v10.861
		h1.561v3.077h-6.368v-3.077h1.168v-9.793l-5.099,12.668h-3.156l-5.188-12.331v9.456h1.269v3.077h-6.401V397.777z"/>
</g>
<g>
	<path fill="#C63706" d="M66.439,274.328h7.289v3.077h-1.797v10.872h1.797v3.077h-7.289v-3.077h1.763v-10.872h-1.763V274.328z"/>
</g>
</svg>
