<?xml version="1.0" encoding="utf-8"?>
<!-- Generator: Adobe Illustrator 16.0.4, SVG Export Plug-In . SVG Version: 6.00 Build 0)  -->
<!DOCTYPE svg PUBLIC "-//W3C//DTD SVG 1.1//EN" "http://www.w3.org/Graphics/SVG/1.1/DTD/svg11.dtd">
<svg version="1.1" id="Layer_1" xmlns="http://www.w3.org/2000/svg" xmlns:xlink="http://www.w3.org/1999/xlink" x="0px" y="0px"
	 width="448.746px" height="616.439px" viewBox="0 0 448.746 616.439" enable-background="new 0 0 448.746 616.439"
	 xml:space="preserve">
<rect x="0.5" y="0.5" fill="#FFFFFF" stroke="#C68D06" stroke-miterlimit="10" width="447.746" height="615.439"/>
<g>
	<path fill="#C68D06" d="M362.745,577.793l1.855-1.33c1.891,2.836,4.2,3.991,7.07,3.991c3.816,0,6.162-2.101,6.162-5.286
		c0-3.816-2.24-5.706-8.331-5.706h-0.979v-2.136h1.189c5.497,0,7.561-1.679,7.561-4.866c0-2.59-1.575-4.515-5.495-4.515
		c-2.625,0-4.655,1.295-6.16,3.15l-1.716-1.435c1.855-2.241,4.516-3.92,8.016-3.92c5.461,0,7.771,3.115,7.771,6.476
		c0,3.325-1.961,5.53-5.11,6.126c3.85,0.805,5.705,3.009,5.705,6.825c0,4.235-3.325,7.456-8.646,7.456
		C367.856,582.624,364.67,580.874,362.745,577.793z"/>
	<path fill="#C68D06" d="M389.205,556.231h8.681c5.776,0,8.996,2.45,8.996,7c0,4.201-2.45,6.301-6.195,7.001l6.546,11.901h-2.801
		l-6.336-11.621h-6.44v11.621h-2.45V556.231z M397.71,568.308c4.271,0,6.686-1.226,6.686-4.971c0-3.57-2.38-4.831-6.721-4.831
		h-6.021v9.802H397.71z"/>
</g>
<g>
	<g>
		<rect x="80.216" y="157.966" fill="#C0DDE7" width="281.738" height="7.199"/>
	</g>
	<g>
		<rect x="80.216" y="171.88" fill="#C0DDE7" width="281.738" height="7.199"/>
	</g>
	<g>
		<rect x="80.216" y="185.793" fill="#C0DDE7" width="281.738" height="7.2"/>
	</g>
	<g>
		<rect x="80.216" y="199.708" fill="#C0DDE7" width="281.738" height="7.199"/>
	</g>
	<g>
		<rect x="80.216" y="213.622" fill="#C0DDE7" width="281.738" height="7.199"/>
	</g>
	<g>
		<rect x="80.216" y="227.536" fill="#C0DDE7" width="281.738" height="7.199"/>
	</g>
	<g>
		<rect x="80.216" y="241.449" fill="#C0DDE7" width="281.738" height="7.199"/>
	</g>
	<g>
		<rect x="80.216" y="255.362" fill="#C0DDE7" width="281.738" height="7.2"/>
	</g>
	<g>
		<rect x="80.216" y="269.277" fill="#C0DDE7" width="281.738" height="7.199"/>
	</g>
	<g>
		<rect x="80.216" y="283.19" fill="#C0DDE7" width="281.738" height="7.2"/>
	</g>
	<g>
		<rect x="80.216" y="297.104" fill="#C0DDE7" width="281.738" height="7.2"/>
	</g>
	<g>
		<rect x="80.216" y="311.018" fill="#C0DDE7" width="281.738" height="7.2"/>
	</g>
	<g>
		<rect x="80.216" y="324.932" fill="#C0DDE7" width="281.738" height="7.199"/>
	</g>
	<g>
		<rect x="80.216" y="338.846" fill="#C0DDE7" width="281.738" height="7.2"/>
	</g>
	<g>
		<rect x="80.216" y="352.759" fill="#C0DDE7" width="281.738" height="7.201"/>
	</g>
	<g>
		<rect x="80.216" y="366.673" fill="#C0DDE7" width="281.738" height="7.2"/>
	</g>
	<g>
		<rect x="80.216" y="380.587" fill="#C0DDE7" width="281.738" height="7.199"/>
	</g>
	<g>
		<rect x="80.216" y="394.501" fill="#C0DDE7" width="281.738" height="7.199"/>
	</g>
	<g>
		<rect x="80.216" y="408.415" fill="#C0DDE7" width="281.738" height="7.199"/>
	</g>
	<g>
		<rect x="80.216" y="422.329" fill="#C0DDE7" width="281.738" height="7.2"/>
	</g>
	<g>
		<rect x="80.216" y="436.242" fill="#C0DDE7" width="281.738" height="7.2"/>
	</g>
	<g>
		<rect x="80.216" y="450.157" fill="#C0DDE7" width="281.738" height="7.2"/>
	</g>
	<g>
		<rect x="80.216" y="464.07" fill="#C0DDE7" width="281.738" height="7.199"/>
	</g>
	<g>
		<rect x="80.216" y="477.984" fill="#C0DDE7" width="281.738" height="7.2"/>
	</g>
	<g>
		<rect x="80.216" y="60.569" fill="#C0DDE7" width="281.738" height="7.2"/>
	</g>
	<g>
		<rect x="80.216" y="74.483" fill="#C0DDE7" width="281.738" height="7.201"/>
	</g>
	<g>
		<rect x="80.216" y="144.052" fill="#C0DDE7" width="281.738" height="7.2"/>
	</g>
	<g>
		<rect x="80.216" y="88.397" fill="#C0DDE7" width="281.738" height="7.199"/>
	</g>
	<g>
		<rect x="80.216" y="102.311" fill="#C0DDE7" width="281.738" height="7.201"/>
	</g>
	<g>
		<rect x="80.216" y="116.225" fill="#C0DDE7" width="281.738" height="7.199"/>
	</g>
	<g>
		<rect x="80.216" y="130.139" fill="#C0DDE7" width="281.738" height="7.198"/>
	</g>
	<g>
		<g>
			<polygon fill="#7C5904" points="218.39,67.769 80.32,67.769 80.32,60.57 218.39,60.57 222.539,64.169 			"/>
		</g>
		<g>
			<polygon fill="#7C5904" points="223.781,60.57 361.851,60.57 361.851,67.769 223.781,67.769 227.929,64.169 			"/>
		</g>
	</g>
	<g>
		<g>
			<polygon fill="#7C5904" points="218.39,81.683 80.32,81.683 80.32,74.483 218.39,74.483 222.539,78.084 			"/>
		</g>
		<g>
			<polygon fill="#7C5904" points="223.781,74.483 361.851,74.483 361.851,81.683 223.781,81.683 227.929,78.084 			"/>
		</g>
	</g>
	<g>
		<g>
			<polygon fill="#7C5904" points="218.39,151.252 80.32,151.252 80.32,144.052 218.39,144.052 222.539,147.652 			"/>
		</g>
		<g>
			<polygon fill="#7C5904" points="223.781,144.052 361.851,144.052 361.851,151.252 223.781,151.252 227.929,147.652 			"/>
		</g>
	</g>
	<g>
		<g>
			<polygon fill="#7C5904" points="218.39,95.596 80.32,95.596 80.32,88.397 218.39,88.397 222.539,91.997 			"/>
		</g>
		<g>
			<polygon fill="#7C5904" points="223.781,88.397 361.851,88.397 361.851,95.596 223.781,95.596 227.929,91.997 			"/>
		</g>
	</g>
	<g>
		<g>
			<polygon fill="#7C5904" points="218.39,109.511 80.32,109.511 80.32,102.312 218.39,102.312 222.539,105.91 			"/>
		</g>
		<g>
			<polygon fill="#7C5904" points="223.781,102.312 361.851,102.312 361.851,109.511 223.781,109.511 227.929,105.91 			"/>
		</g>
	</g>
	<g>
		<g>
			<polygon fill="#7C5904" points="218.39,123.424 80.32,123.424 80.32,116.224 218.39,116.224 222.539,119.823 			"/>
		</g>
		<g>
			<polygon fill="#7C5904" points="223.781,116.224 361.851,116.224 361.851,123.424 223.781,123.424 227.929,119.823 			"/>
		</g>
	</g>
	<g>
		<g>
			<polygon fill="#7C5904" points="218.39,137.337 80.32,137.337 80.32,130.138 218.39,130.138 222.539,133.737 			"/>
		</g>
		<g>
			<polygon fill="#7C5904" points="223.781,130.138 361.851,130.138 361.851,137.337 223.781,137.337 227.929,133.737 			"/>
		</g>
	</g>
	<g>
		<g>
			<polygon fill="#7C5904" points="218.39,179.079 80.32,179.079 80.32,171.88 218.39,171.88 222.539,175.48 			"/>
		</g>
		<g>
			<polygon fill="#7C5904" points="223.781,171.88 361.851,171.88 361.851,179.079 223.781,179.079 227.929,175.48 			"/>
		</g>
	</g>
	<g>
		<g>
			<polygon fill="#7C5904" points="218.39,192.993 80.32,192.993 80.32,185.793 218.39,185.793 222.539,189.394 			"/>
		</g>
		<g>
			<polygon fill="#7C5904" points="223.781,185.793 361.851,185.793 361.851,192.993 223.781,192.993 227.929,189.394 			"/>
		</g>
	</g>
	<g>
		<g>
			<polygon fill="#7C5904" points="218.39,262.562 80.32,262.562 80.32,255.362 218.39,255.362 222.539,258.961 			"/>
		</g>
		<g>
			<polygon fill="#7C5904" points="223.781,255.362 361.851,255.362 361.851,262.562 223.781,262.562 227.929,258.961 			"/>
		</g>
	</g>
	<g>
		<g>
			<polygon fill="#7C5904" points="218.39,206.907 80.32,206.907 80.32,199.708 218.39,199.708 222.539,203.307 			"/>
		</g>
		<g>
			<polygon fill="#7C5904" points="223.781,199.708 361.851,199.708 361.851,206.907 223.781,206.907 227.929,203.307 			"/>
		</g>
	</g>
	<g>
		<g>
			<polygon fill="#7C5904" points="218.39,220.821 80.32,220.821 80.32,213.622 218.39,213.622 222.539,217.22 			"/>
		</g>
		<g>
			<polygon fill="#7C5904" points="223.781,213.622 361.851,213.622 361.851,220.821 223.781,220.821 227.929,217.22 			"/>
		</g>
	</g>
	<g>
		<g>
			<polygon fill="#7C5904" points="218.39,234.735 80.32,234.735 80.32,227.536 218.39,227.536 222.539,231.134 			"/>
		</g>
		<g>
			<polygon fill="#7C5904" points="223.781,227.536 361.851,227.536 361.851,234.735 223.781,234.735 227.929,231.134 			"/>
		</g>
	</g>
	<g>
		<g>
			<polygon fill="#7C5904" points="218.39,248.649 80.32,248.649 80.32,241.449 218.39,241.449 222.539,245.049 			"/>
		</g>
		<g>
			<polygon fill="#7C5904" points="223.781,241.449 361.851,241.449 361.851,248.649 223.781,248.649 227.929,245.049 			"/>
		</g>
	</g>
	<g>
		<g>
			<polygon fill="#7C5904" points="218.39,290.542 80.32,290.542 80.32,283.343 218.39,283.343 222.539,286.943 			"/>
		</g>
		<g>
			<polygon fill="#7C5904" points="223.781,283.343 361.851,283.343 361.851,290.542 223.781,290.542 227.929,286.943 			"/>
		</g>
	</g>
	<g>
		<g>
			<polygon fill="#7C5904" points="218.39,304.477 80.32,304.477 80.32,297.277 218.39,297.277 222.539,300.877 			"/>
		</g>
		<g>
			<polygon fill="#7C5904" points="223.781,297.277 361.851,297.277 361.851,304.477 223.781,304.477 227.929,300.877 			"/>
		</g>
	</g>
	<g>
		<g>
			<polygon fill="#7C5904" points="218.39,374.147 80.32,374.147 80.32,366.948 218.39,366.948 222.539,370.547 			"/>
		</g>
		<g>
			<polygon fill="#7C5904" points="223.781,366.948 361.851,366.948 361.851,374.147 223.781,374.147 227.929,370.547 			"/>
		</g>
	</g>
	<g>
		<g>
			<polygon fill="#7C5904" points="218.39,318.411 80.32,318.411 80.32,311.211 218.39,311.211 222.539,314.811 			"/>
		</g>
		<g>
			<polygon fill="#7C5904" points="223.781,311.211 361.851,311.211 361.851,318.411 223.781,318.411 227.929,314.811 			"/>
		</g>
	</g>
	<g>
		<g>
			<polygon fill="#7C5904" points="218.39,332.345 80.32,332.345 80.32,325.146 218.39,325.146 222.539,328.744 			"/>
		</g>
		<g>
			<polygon fill="#7C5904" points="223.781,325.146 361.851,325.146 361.851,332.345 223.781,332.345 227.929,328.744 			"/>
		</g>
	</g>
	<g>
		<g>
			<polygon fill="#7C5904" points="218.39,346.279 80.32,346.279 80.32,339.079 218.39,339.079 222.539,342.679 			"/>
		</g>
		<g>
			<polygon fill="#7C5904" points="223.781,339.079 361.851,339.079 361.851,346.279 223.781,346.279 227.929,342.679 			"/>
		</g>
	</g>
	<g>
		<g>
			<polygon fill="#7C5904" points="218.39,360.213 80.32,360.213 80.32,353.014 218.39,353.014 222.539,356.613 			"/>
		</g>
		<g>
			<polygon fill="#7C5904" points="223.781,353.014 361.851,353.014 361.851,360.213 223.781,360.213 227.929,356.613 			"/>
		</g>
	</g>
	<g>
		<g>
			<polygon fill="#7C5904" points="218.39,401.542 80.32,401.542 80.32,394.343 218.39,394.343 222.539,397.942 			"/>
		</g>
		<g>
			<polygon fill="#7C5904" points="223.781,394.343 361.851,394.343 361.851,401.542 223.781,401.542 227.929,397.942 			"/>
		</g>
	</g>
	<g>
		<g>
			<polygon fill="#7C5904" points="218.39,415.477 80.32,415.477 80.32,408.277 218.39,408.277 222.539,411.877 			"/>
		</g>
		<g>
			<polygon fill="#7C5904" points="223.781,408.277 361.851,408.277 361.851,415.477 223.781,415.477 227.929,411.877 			"/>
		</g>
	</g>
	<g>
		<g>
			<polygon fill="#7C5904" points="218.39,485.147 80.32,485.147 80.32,477.948 218.39,477.948 222.539,481.547 			"/>
		</g>
		<g>
			<polygon fill="#7C5904" points="223.781,477.948 361.851,477.948 361.851,485.147 223.781,485.147 227.929,481.547 			"/>
		</g>
	</g>
	<g>
		<g>
			<polygon fill="#7C5904" points="218.39,429.411 80.32,429.411 80.32,422.211 218.39,422.211 222.539,425.811 			"/>
		</g>
		<g>
			<polygon fill="#7C5904" points="223.781,422.211 361.851,422.211 361.851,429.411 223.781,429.411 227.929,425.811 			"/>
		</g>
	</g>
	<g>
		<g>
			<polygon fill="#7C5904" points="218.39,443.345 80.32,443.345 80.32,436.146 218.39,436.146 222.539,439.744 			"/>
		</g>
		<g>
			<polygon fill="#7C5904" points="223.781,436.146 361.851,436.146 361.851,443.345 223.781,443.345 227.929,439.744 			"/>
		</g>
	</g>
	<g>
		<g>
			<polygon fill="#7C5904" points="218.39,457.279 80.32,457.279 80.32,450.079 218.39,450.079 222.539,453.679 			"/>
		</g>
		<g>
			<polygon fill="#7C5904" points="223.781,450.079 361.851,450.079 361.851,457.279 223.781,457.279 227.929,453.679 			"/>
		</g>
	</g>
	<g>
		<g>
			<polygon fill="#7C5904" points="218.39,471.213 80.32,471.213 80.32,464.013 218.39,464.013 222.539,467.613 			"/>
		</g>
		<g>
			<polygon fill="#7C5904" points="223.781,464.013 361.851,464.013 361.851,471.213 223.781,471.213 227.929,467.613 			"/>
		</g>
	</g>
	<g>
		<path fill="#C63706" d="M59.813,49.832h7.861c0.876,0,1.681,0.137,2.414,0.41c0.734,0.273,1.367,0.642,1.898,1.105
			c0.532,0.465,0.947,1,1.247,1.606s0.449,1.239,0.449,1.898c0,0.793-0.118,1.537-0.354,2.229c-0.236,0.692-0.601,1.293-1.096,1.802
			c-0.494,0.509-1.119,0.911-1.875,1.207s-1.651,0.445-2.684,0.445h-2.37v3.245h1.561v3.077h-7.053v-3.077h1.763V52.919h-1.763
			V49.832z M65.305,52.919v4.572h1.539c0.854,0,1.531-0.179,2.033-0.539c0.501-0.359,0.752-0.929,0.752-1.707
			c0-0.727-0.236-1.295-0.708-1.708c-0.471-0.412-1.164-0.619-2.077-0.619H65.305z"/>
	</g>
	<g>
		<path fill="#398EB0" d="M63.317,178.501c-0.958-0.194-1.844-0.552-2.656-1.072c-0.812-0.521-1.517-1.162-2.111-1.926
			c-0.596-0.763-1.06-1.626-1.393-2.588c-0.333-0.962-0.5-1.982-0.5-3.061c0-0.816,0.097-1.601,0.292-2.353
			c0.195-0.753,0.468-1.457,0.82-2.111s0.776-1.25,1.274-1.786s1.052-0.993,1.663-1.376c0.609-0.381,1.267-0.677,1.971-0.887
			c0.704-0.21,1.441-0.314,2.212-0.314s1.51,0.104,2.218,0.314c0.707,0.21,1.366,0.506,1.977,0.887
			c0.61,0.383,1.164,0.841,1.662,1.376c0.498,0.535,0.924,1.131,1.28,1.786c0.355,0.655,0.63,1.358,0.825,2.111
			c0.195,0.751,0.292,1.537,0.292,2.353c0,1.093-0.172,2.126-0.517,3.1s-0.822,1.845-1.432,2.616
			c-0.611,0.771-1.335,1.416-2.173,1.932c-0.838,0.518-1.749,0.861-2.729,1.033c0.231,0.098,0.462,0.204,0.69,0.32
			c0.228,0.117,0.459,0.225,0.691,0.326c0.232,0.101,0.462,0.187,0.691,0.258c0.228,0.071,0.462,0.11,0.702,0.118
			c0.232,0,0.458-0.03,0.679-0.09c0.221-0.06,0.421-0.153,0.601-0.28c0.18-0.128,0.335-0.292,0.466-0.494
			c0.131-0.204,0.219-0.449,0.264-0.743l2.504,1.247c-0.067,0.547-0.223,1.041-0.466,1.482c-0.243,0.442-0.556,0.819-0.938,1.134
			c-0.382,0.314-0.816,0.559-1.303,0.73c-0.487,0.172-1.003,0.258-1.55,0.258c-0.442,0-0.886-0.084-1.331-0.252
			c-0.445-0.169-0.876-0.353-1.291-0.551c-0.416-0.198-0.807-0.381-1.174-0.55s-0.689-0.252-0.966-0.252
			c-0.12,0-0.227-0.002-0.32-0.006s-0.185-0.004-0.275,0s-0.189,0.016-0.298,0.034c-0.108,0.019-0.234,0.054-0.376,0.106
			L63.317,178.501z M64.889,175.144c0.651,0,1.249-0.142,1.792-0.422c0.542-0.28,1.009-0.662,1.398-1.146
			c0.389-0.482,0.691-1.044,0.904-1.685c0.214-0.639,0.32-1.319,0.32-2.038c0-0.727-0.108-1.411-0.326-2.056
			c-0.217-0.644-0.522-1.207-0.916-1.689c-0.393-0.483-0.859-0.865-1.398-1.146c-0.539-0.281-1.13-0.42-1.774-0.42
			s-1.235,0.14-1.774,0.42c-0.539,0.281-1.003,0.663-1.393,1.146c-0.389,0.482-0.694,1.046-0.916,1.689
			c-0.221,0.645-0.331,1.329-0.331,2.056c0,0.719,0.11,1.399,0.331,2.038c0.221,0.641,0.526,1.202,0.916,1.685
			c0.389,0.484,0.854,0.865,1.393,1.146C63.654,175.002,64.245,175.144,64.889,175.144z"/>
	</g>
	<g>
		<path fill="#398EB0" d="M66.742,383.828h7.289v3.088h-1.516l-4.548,13.938h-4.604l-4.414-13.938h-1.64v-3.088h7.3v3.088h-1.819
			l2.964,9.658l2.954-9.658h-1.965V383.828z"/>
	</g>
	<g>
		<path fill="#C63706" d="M69.741,279.123c-0.038-0.262-0.129-0.509-0.275-0.74c-0.146-0.232-0.333-0.433-0.562-0.602
			c-0.228-0.168-0.486-0.301-0.774-0.398c-0.289-0.097-0.59-0.146-0.904-0.146c-0.285,0-0.55,0.03-0.797,0.089
			c-0.247,0.061-0.462,0.152-0.646,0.276c-0.183,0.124-0.329,0.283-0.438,0.477c-0.109,0.194-0.163,0.427-0.163,0.696
			c0,0.337,0.073,0.604,0.218,0.803c0.147,0.199,0.334,0.362,0.562,0.488c0.228,0.128,0.481,0.228,0.758,0.304
			c0.277,0.075,0.546,0.157,0.809,0.247l3.088,1.033c0.427,0.149,0.827,0.355,1.202,0.618c0.374,0.262,0.698,0.581,0.971,0.955
			c0.273,0.374,0.489,0.804,0.646,1.291c0.157,0.487,0.236,1.033,0.236,1.641c0,0.823-0.151,1.575-0.455,2.257
			c-0.303,0.682-0.728,1.266-1.275,1.752c-0.546,0.486-1.201,0.864-1.965,1.134c-0.764,0.27-1.61,0.405-2.538,0.405
			c-0.651,0-1.267-0.073-1.847-0.219c-0.581-0.146-1.111-0.357-1.59-0.635c-0.479-0.276-0.898-0.607-1.257-0.993
			c-0.359-0.385-0.64-0.822-0.842-1.309h-1.157v-3.379h4.065v0.695c0,0.338,0.054,0.648,0.163,0.932
			c0.109,0.285,0.271,0.532,0.488,0.742c0.218,0.21,0.491,0.372,0.82,0.488s0.715,0.174,1.157,0.174
			c0.674,0,1.187-0.155,1.539-0.466s0.527-0.743,0.527-1.297c0-0.284-0.062-0.522-0.185-0.713c-0.124-0.191-0.283-0.352-0.478-0.483
			c-0.195-0.131-0.412-0.241-0.652-0.331c-0.239-0.09-0.475-0.172-0.707-0.247l-2.572-0.831c-0.487-0.15-0.957-0.36-1.409-0.629
			c-0.453-0.269-0.854-0.606-1.202-1.011c-0.348-0.404-0.625-0.877-0.831-1.421c-0.206-0.543-0.309-1.162-0.309-1.858
			c0-0.808,0.15-1.529,0.449-2.162s0.719-1.166,1.258-1.6c0.539-0.435,1.179-0.763,1.92-0.988c0.741-0.224,1.554-0.338,2.437-0.338
			c0.696,0,1.34,0.081,1.932,0.242s1.121,0.376,1.589,0.646c0.468,0.27,0.865,0.578,1.19,0.926c0.326,0.348,0.575,0.709,0.747,1.084
			h1.123v3.391h-4.065V279.123z"/>
	</g>
</g>
</svg>
