<?xml version="1.0" encoding="utf-8"?>
<!-- Generator: Adobe Illustrator 16.0.4, SVG Export Plug-In . SVG Version: 6.00 Build 0)  -->
<!DOCTYPE svg PUBLIC "-//W3C//DTD SVG 1.1//EN" "http://www.w3.org/Graphics/SVG/1.1/DTD/svg11.dtd">
<svg version="1.1" id="Layer_1" xmlns="http://www.w3.org/2000/svg" xmlns:xlink="http://www.w3.org/1999/xlink" x="0px" y="0px"
	 width="448.747px" height="616.44px" viewBox="0 0 448.747 616.44" enable-background="new 0 0 448.747 616.44"
	 xml:space="preserve">
<rect x="0.5" fill="#FFFFFF" stroke="#C68D06" stroke-miterlimit="10" width="447.747" height="615.44"/>
<g>
	<path fill="#C68D06" d="M364.963,575.542l1.855-1.33c1.891,2.836,4.2,3.991,7.07,3.991c3.815,0,6.161-2.101,6.161-5.286
		c0-3.815-2.241-5.705-8.331-5.705h-0.979v-2.136h1.189c5.496,0,7.561-1.68,7.561-4.865c0-2.591-1.574-4.516-5.495-4.516
		c-2.625,0-4.655,1.295-6.161,3.15l-1.715-1.436c1.855-2.24,4.516-3.92,8.016-3.92c5.461,0,7.771,3.115,7.771,6.476
		c0,3.325-1.961,5.53-5.111,6.126c3.851,0.805,5.706,3.01,5.706,6.825c0,4.235-3.325,7.456-8.646,7.456
		C370.074,580.373,366.889,578.623,364.963,575.542z"/>
	<path fill="#C68D06" d="M389.358,553.98h2.556l7.735,22.613h0.07l7.771-22.613h2.416l-9.102,26.008h-2.345L389.358,553.98z"/>
</g>
<g>
	<rect x="79.884" y="158.219" fill="#C0DDE7" width="281.739" height="7.199"/>
</g>
<g>
	<rect x="79.884" y="172.133" fill="#C0DDE7" width="281.738" height="7.199"/>
</g>
<g>
	<rect x="79.875" y="186.047" fill="#C0DDE7" width="281.739" height="7.2"/>
</g>
<g>
	<rect x="79.884" y="199.96" fill="#C0DDE7" width="281.739" height="7.199"/>
</g>
<g>
	<rect x="79.884" y="213.874" fill="#C0DDE7" width="281.739" height="7.199"/>
</g>
<g>
	<rect x="79.884" y="227.787" fill="#C0DDE7" width="281.739" height="7.2"/>
</g>
<g>
	<rect x="79.884" y="241.702" fill="#C0DDE7" width="281.738" height="7.2"/>
</g>
<g>
	<rect x="79.884" y="255.615" fill="#C0DDE7" width="281.738" height="7.201"/>
</g>
<g>
	<rect x="79.884" y="269.529" fill="#C0DDE7" width="281.739" height="7.199"/>
</g>
<g>
	<rect x="79.884" y="283.443" fill="#C0DDE7" width="281.738" height="7.2"/>
</g>
<g>
	<rect x="79.884" y="297.356" fill="#C0DDE7" width="281.739" height="7.201"/>
</g>
<g>
	<rect x="79.884" y="311.271" fill="#C0DDE7" width="281.739" height="7.2"/>
</g>
<g>
	<rect x="79.884" y="325.186" fill="#C0DDE7" width="281.739" height="7.199"/>
</g>
<g>
	<rect x="79.884" y="339.099" fill="#C0DDE7" width="281.738" height="7.2"/>
</g>
<g>
	<rect x="79.884" y="353.012" fill="#C0DDE7" width="281.739" height="7.2"/>
</g>
<g>
	<rect x="79.884" y="366.926" fill="#C0DDE7" width="281.739" height="7.2"/>
</g>
<g>
	<rect x="79.884" y="380.841" fill="#C0DDE7" width="281.739" height="7.198"/>
</g>
<g>
	<rect x="79.884" y="394.754" fill="#C0DDE7" width="281.739" height="7.199"/>
</g>
<g>
	<rect x="79.884" y="408.668" fill="#C0DDE7" width="281.738" height="7.199"/>
</g>
<g>
	<rect x="79.884" y="422.582" fill="#C0DDE7" width="281.739" height="7.2"/>
</g>
<g>
	<rect x="79.884" y="436.495" fill="#C0DDE7" width="281.738" height="7.2"/>
</g>
<g>
	<rect x="79.884" y="450.409" fill="#C0DDE7" width="281.739" height="7.199"/>
</g>
<g>
	<rect x="79.884" y="464.323" fill="#C0DDE7" width="281.738" height="7.199"/>
</g>
<g>
	<rect x="79.884" y="478.236" fill="#C0DDE7" width="281.739" height="7.2"/>
</g>
<g>
	<rect x="79.884" y="60.821" fill="#C0DDE7" width="281.739" height="7.2"/>
</g>
<g>
	<rect x="79.884" y="74.735" fill="#C0DDE7" width="281.738" height="7.2"/>
</g>
<g>
	<rect x="79.884" y="144.305" fill="#C0DDE7" width="281.738" height="7.199"/>
</g>
<g>
	<rect x="79.884" y="88.65" fill="#C0DDE7" width="281.739" height="7.199"/>
</g>
<g>
	<rect x="79.884" y="102.564" fill="#C0DDE7" width="281.738" height="7.2"/>
</g>
<g>
	<rect x="79.884" y="116.478" fill="#C0DDE7" width="281.738" height="7.199"/>
</g>
<g>
	<rect x="79.884" y="130.392" fill="#C0DDE7" width="281.738" height="7.199"/>
</g>
<g>
	<g>
		<g>
			<g>
				<polygon fill="#7C5904" points="218.058,68.021 79.987,68.021 79.987,60.822 218.058,60.822 222.206,64.422 				"/>
			</g>
			<g>
				<polygon fill="#7C5904" points="223.448,60.822 361.519,60.822 361.519,68.021 223.448,68.021 227.596,64.422 				"/>
			</g>
		</g>
		<g>
			<g>
				<polygon fill="#7C5904" points="218.058,81.936 79.987,81.936 79.987,74.736 218.058,74.736 222.206,78.336 				"/>
			</g>
			<g>
				<polygon fill="#7C5904" points="223.448,74.736 361.519,74.736 361.519,81.936 223.448,81.936 227.596,78.336 				"/>
			</g>
		</g>
		<g>
			<g>
				<polygon fill="#7C5904" points="218.058,151.504 79.987,151.504 79.987,144.305 218.058,144.305 222.206,147.905 				"/>
			</g>
			<g>
				<polygon fill="#7C5904" points="223.448,144.305 361.519,144.305 361.519,151.504 223.448,151.504 227.596,147.905 				"/>
			</g>
		</g>
		<g>
			<g>
				<polygon fill="#7C5904" points="218.058,95.85 79.987,95.85 79.987,88.65 218.058,88.65 222.206,92.25 				"/>
			</g>
			<g>
				<polygon fill="#7C5904" points="223.448,88.65 361.519,88.65 361.519,95.85 223.448,95.85 227.596,92.25 				"/>
			</g>
		</g>
		<g>
			<g>
				<polygon fill="#7C5904" points="218.058,109.764 79.987,109.764 79.987,102.564 218.058,102.564 222.206,106.164 				"/>
			</g>
			<g>
				<polygon fill="#7C5904" points="223.448,102.564 361.519,102.564 361.519,109.764 223.448,109.764 227.596,106.164 				"/>
			</g>
		</g>
		<g>
			<g>
				<polygon fill="#7C5904" points="218.058,123.677 79.987,123.677 79.987,116.478 218.058,116.478 222.206,120.076 				"/>
			</g>
			<g>
				<polygon fill="#7C5904" points="223.448,116.478 361.519,116.478 361.519,123.677 223.448,123.677 227.596,120.076 				"/>
			</g>
		</g>
		<g>
			<g>
				<polygon fill="#7C5904" points="218.058,137.591 79.987,137.591 79.987,130.391 218.058,130.391 222.206,133.99 				"/>
			</g>
			<g>
				<polygon fill="#7C5904" points="223.448,130.391 361.519,130.391 361.519,137.591 223.448,137.591 227.596,133.99 				"/>
			</g>
		</g>
	</g>
	<g>
		<path fill="#C63706" d="M48.951,64.032h1.583v-10.86h-1.583v-3.088h7.008l5.02,12.286l4.661-12.286h7.108v3.088h-1.583v10.86
			h1.561v3.077h-6.368v-3.077h1.168v-9.793l-5.099,12.668h-3.156l-5.188-12.331v9.456h1.269v3.077h-6.401V64.032z"/>
	</g>
</g>
<g>
	<path fill="#398EB0" d="M67.301,175.542h1.695l-0.763-2.449H63l-0.764,2.449h1.797v3.077h-6.458v-3.077h1.269l4.638-13.949h4.503
		l4.537,13.949h1.235v3.077h-6.458V175.542z M63.887,170.218h3.437l-1.729-5.537L63.887,170.218z"/>
</g>
<g>
	<path fill="#398EB0" d="M219.395,190.346c-0.451-0.123-0.876-0.304-1.274-0.545c-0.398-0.24-0.747-0.537-1.046-0.893
		c-0.299-0.353-0.536-0.764-0.712-1.23c-0.176-0.465-0.264-0.988-0.264-1.568c0-0.615,0.124-1.191,0.37-1.727
		c0.246-0.537,0.595-1.004,1.046-1.402s0.996-0.712,1.635-0.94s1.351-0.343,2.136-0.343h6.012v2.417h-1.24v14.089h-2.575v-14.089
		h-1.512v14.089h-2.575V190.346z"/>
</g>
<g>
	<path fill="#C63706" d="M69.459,260.29c-0.451-0.123-0.876-0.305-1.275-0.545c-0.398-0.24-0.747-0.537-1.045-0.893
		c-0.299-0.354-0.536-0.764-0.712-1.23c-0.176-0.465-0.264-0.988-0.264-1.568c0-0.615,0.123-1.191,0.369-1.727
		c0.246-0.537,0.595-1.004,1.046-1.402s0.996-0.712,1.635-0.94s1.351-0.343,2.135-0.343h6.012v2.417h-1.239v14.089h-2.575v-14.089
		h-1.512v14.089h-2.575V260.29z"/>
</g>
<g>
	<path fill="#398EB0" d="M69.459,343.29c-0.451-0.123-0.876-0.305-1.275-0.545c-0.398-0.24-0.747-0.537-1.045-0.893
		c-0.299-0.354-0.536-0.764-0.712-1.23c-0.176-0.465-0.264-0.988-0.264-1.568c0-0.615,0.123-1.191,0.369-1.727
		c0.246-0.537,0.595-1.004,1.046-1.402s0.996-0.712,1.635-0.94s1.351-0.343,2.135-0.343h6.012v2.417h-1.239v14.089h-2.575v-14.089
		h-1.512v14.089h-2.575V343.29z"/>
</g>
<g>
	<path fill="#C63706" d="M69.459,426.623c-0.451-0.123-0.876-0.305-1.275-0.545c-0.398-0.24-0.747-0.537-1.045-0.893
		c-0.299-0.354-0.536-0.763-0.712-1.23c-0.176-0.465-0.264-0.988-0.264-1.568c0-0.615,0.123-1.191,0.369-1.727
		c0.246-0.537,0.595-1.004,1.046-1.402c0.451-0.399,0.996-0.712,1.635-0.941s1.351-0.342,2.135-0.342h6.012v2.417h-1.239v14.089
		h-2.575v-14.089h-1.512v14.089h-2.575V426.623z"/>
</g>
<g>
	<path fill="#398EB0" d="M219.395,357.29c-0.451-0.123-0.876-0.305-1.274-0.545c-0.398-0.24-0.747-0.537-1.046-0.893
		c-0.299-0.354-0.536-0.764-0.712-1.23c-0.176-0.465-0.264-0.988-0.264-1.568c0-0.615,0.124-1.191,0.37-1.727
		c0.246-0.537,0.595-1.004,1.046-1.402s0.996-0.712,1.635-0.94s1.351-0.343,2.136-0.343h6.012v2.417h-1.24v14.089h-2.575v-14.089
		h-1.512v14.089h-2.575V357.29z"/>
</g>
<g>
	<path fill="#C63706" d="M219.395,273.623c-0.451-0.123-0.876-0.305-1.274-0.545c-0.398-0.24-0.747-0.537-1.046-0.893
		c-0.299-0.354-0.536-0.763-0.712-1.23c-0.176-0.465-0.264-0.988-0.264-1.568c0-0.615,0.124-1.191,0.37-1.727
		c0.246-0.537,0.595-1.004,1.046-1.402c0.451-0.399,0.996-0.712,1.635-0.941c0.639-0.229,1.351-0.342,2.136-0.342h6.012v2.417h-1.24
		v14.089h-2.575v-14.089h-1.512v14.089h-2.575V273.623z"/>
</g>
<g>
	<g>
		<rect x="229.694" y="172.133" fill="#7C5904" width="131.928" height="7.201"/>
	</g>
	<g>
		<rect x="79.884" y="172.133" fill="#7C5904" width="131.928" height="7.201"/>
	</g>
	<g>
		<g>
			<rect x="229.694" y="186.047" fill="#7C5904" width="131.928" height="7.2"/>
		</g>
		<g>
			<rect x="79.884" y="186.047" fill="#7C5904" width="131.928" height="7.2"/>
		</g>
	</g>
	<g>
		<g>
			<rect x="229.694" y="199.96" fill="#7C5904" width="131.928" height="7.2"/>
		</g>
		<g>
			<rect x="79.884" y="199.96" fill="#7C5904" width="131.928" height="7.2"/>
		</g>
	</g>
	<g>
		<g>
			<rect x="229.694" y="213.874" fill="#7C5904" width="131.928" height="7.2"/>
		</g>
		<g>
			<rect x="79.884" y="213.874" fill="#7C5904" width="131.928" height="7.2"/>
		</g>
	</g>
	<g>
		<g>
			<rect x="229.694" y="227.787" fill="#7C5904" width="131.928" height="7.2"/>
		</g>
		<g>
			<rect x="79.884" y="227.787" fill="#7C5904" width="131.928" height="7.2"/>
		</g>
	</g>
	<g>
		<g>
			<rect x="229.694" y="241.702" fill="#7C5904" width="131.928" height="7.2"/>
		</g>
		<g>
			<rect x="79.884" y="241.702" fill="#7C5904" width="131.928" height="7.2"/>
		</g>
	</g>
	<g>
		<g>
			<rect x="229.694" y="255.615" fill="#7C5904" width="131.928" height="7.201"/>
		</g>
		<g>
			<rect x="79.884" y="255.615" fill="#7C5904" width="131.928" height="7.201"/>
		</g>
	</g>
	<g>
		<g>
			<rect x="229.694" y="269.53" fill="#7C5904" width="131.928" height="7.201"/>
		</g>
		<g>
			<rect x="79.884" y="269.53" fill="#7C5904" width="131.928" height="7.201"/>
		</g>
	</g>
	<g>
		<g>
			<rect x="229.694" y="283.443" fill="#7C5904" width="131.928" height="7.2"/>
		</g>
		<g>
			<rect x="79.884" y="283.443" fill="#7C5904" width="131.928" height="7.2"/>
		</g>
	</g>
	<g>
		<g>
			<rect x="229.694" y="297.356" fill="#7C5904" width="131.928" height="7.201"/>
		</g>
		<g>
			<rect x="79.884" y="297.356" fill="#7C5904" width="131.928" height="7.201"/>
		</g>
	</g>
	<g>
		<g>
			<rect x="229.694" y="311.271" fill="#7C5904" width="131.928" height="7.2"/>
		</g>
		<g>
			<rect x="79.884" y="311.271" fill="#7C5904" width="131.928" height="7.2"/>
		</g>
	</g>
	<g>
		<g>
			<rect x="229.694" y="325.186" fill="#7C5904" width="131.928" height="7.199"/>
		</g>
		<g>
			<rect x="79.884" y="325.186" fill="#7C5904" width="131.928" height="7.199"/>
		</g>
	</g>
	<g>
		<g>
			<rect x="229.694" y="339.099" fill="#7C5904" width="131.928" height="7.2"/>
		</g>
		<g>
			<rect x="79.884" y="339.099" fill="#7C5904" width="131.928" height="7.2"/>
		</g>
	</g>
	<g>
		<g>
			<rect x="229.694" y="353.012" fill="#7C5904" width="131.928" height="7.2"/>
		</g>
		<g>
			<rect x="79.884" y="353.012" fill="#7C5904" width="131.928" height="7.2"/>
		</g>
	</g>
	<g>
		<g>
			<rect x="229.694" y="366.926" fill="#7C5904" width="131.928" height="7.2"/>
		</g>
		<g>
			<rect x="79.884" y="366.926" fill="#7C5904" width="131.928" height="7.2"/>
		</g>
	</g>
	<g>
		<g>
			<rect x="229.694" y="380.841" fill="#7C5904" width="131.928" height="7.199"/>
		</g>
		<g>
			<rect x="79.884" y="380.841" fill="#7C5904" width="131.928" height="7.199"/>
		</g>
	</g>
	<g>
		<rect x="79.884" y="394.754" fill="#7C5904" width="131.928" height="7.2"/>
	</g>
	<g>
		<rect x="79.884" y="408.668" fill="#7C5904" width="131.928" height="7.2"/>
	</g>
	<g>
		<rect x="79.884" y="422.582" fill="#7C5904" width="131.928" height="7.2"/>
	</g>
	<g>
		<rect x="79.884" y="436.495" fill="#7C5904" width="131.928" height="7.2"/>
	</g>
	<g>
		<rect x="79.884" y="450.409" fill="#7C5904" width="131.928" height="7.201"/>
	</g>
	<g>
		<rect x="79.884" y="464.323" fill="#7C5904" width="131.928" height="7.201"/>
	</g>
	<g>
		<rect x="79.884" y="478.236" fill="#7C5904" width="131.928" height="7.2"/>
	</g>
</g>
</svg>
