<?xml version="1.0" encoding="utf-8"?>
<!-- Generator: Adobe Illustrator 16.0.4, SVG Export Plug-In . SVG Version: 6.00 Build 0)  -->
<!DOCTYPE svg PUBLIC "-//W3C//DTD SVG 1.1//EN" "http://www.w3.org/Graphics/SVG/1.1/DTD/svg11.dtd">
<svg version="1.1" id="Layer_1" xmlns="http://www.w3.org/2000/svg" xmlns:xlink="http://www.w3.org/1999/xlink" x="0px" y="0px"
	 width="448.746px" height="616.441px" viewBox="0 0 448.746 616.441" enable-background="new 0 0 448.746 616.441"
	 xml:space="preserve">
<rect x="0.5" y="0.5" fill="#FFFFFF" stroke="#C68D06" stroke-miterlimit="10" width="447.746" height="615.441"/>
<g>
	<path fill="#C68D06" d="M374.786,575.867h-12.461v-1.855l11.796-17.781h3.046v17.432h4.375v2.205h-4.375v6.266h-2.381V575.867z
		 M374.786,573.662v-14.526h-0.069l-9.592,14.526H374.786z"/>
	<path fill="#C68D06" d="M389.205,556.23h8.681c5.776,0,8.996,2.45,8.996,7c0,4.201-2.45,6.301-6.195,7.001l6.546,11.902h-2.801
		l-6.336-11.621h-6.44v11.621h-2.45V556.23z M397.71,568.307c4.271,0,6.686-1.226,6.686-4.97c0-3.571-2.38-4.831-6.721-4.831h-6.021
		v9.802H397.71z"/>
</g>
<g>
	<g>
		<rect x="80.221" y="157.967" fill="#C0DDE7" width="281.738" height="7.199"/>
	</g>
	<g>
		<rect x="80.221" y="171.881" fill="#C0DDE7" width="281.738" height="7.199"/>
	</g>
	<g>
		<rect x="80.221" y="185.794" fill="#C0DDE7" width="281.738" height="7.2"/>
	</g>
	<g>
		<rect x="80.221" y="199.708" fill="#C0DDE7" width="281.738" height="7.199"/>
	</g>
	<g>
		<rect x="80.221" y="213.622" fill="#C0DDE7" width="281.738" height="7.199"/>
	</g>
	<g>
		<rect x="80.221" y="227.535" fill="#C0DDE7" width="281.738" height="7.2"/>
	</g>
	<g>
		<rect x="80.221" y="241.45" fill="#C0DDE7" width="281.738" height="7.2"/>
	</g>
	<g>
		<rect x="80.221" y="255.363" fill="#C0DDE7" width="281.738" height="7.201"/>
	</g>
	<g>
		<rect x="80.221" y="269.277" fill="#C0DDE7" width="281.738" height="7.199"/>
	</g>
	<g>
		<rect x="80.221" y="283.191" fill="#C0DDE7" width="281.738" height="7.2"/>
	</g>
	<g>
		<rect x="80.221" y="297.105" fill="#C0DDE7" width="281.738" height="7.201"/>
	</g>
	<g>
		<rect x="80.221" y="311.019" fill="#C0DDE7" width="281.738" height="7.2"/>
	</g>
	<g>
		<rect x="80.221" y="324.933" fill="#C0DDE7" width="281.738" height="7.199"/>
	</g>
	<g>
		<rect x="80.221" y="338.847" fill="#C0DDE7" width="281.738" height="7.2"/>
	</g>
	<g>
		<rect x="80.221" y="352.76" fill="#C0DDE7" width="281.738" height="7.2"/>
	</g>
	<g>
		<rect x="80.221" y="366.674" fill="#C0DDE7" width="281.738" height="7.2"/>
	</g>
	<g>
		<rect x="80.221" y="380.588" fill="#C0DDE7" width="281.738" height="7.199"/>
	</g>
	<g>
		<rect x="80.221" y="394.502" fill="#C0DDE7" width="281.738" height="7.199"/>
	</g>
	<g>
		<rect x="80.221" y="408.416" fill="#C0DDE7" width="281.738" height="7.199"/>
	</g>
	<g>
		<rect x="80.221" y="422.329" fill="#C0DDE7" width="281.738" height="7.2"/>
	</g>
	<g>
		<rect x="80.221" y="436.243" fill="#C0DDE7" width="281.738" height="7.2"/>
	</g>
	<g>
		<rect x="80.221" y="450.157" fill="#C0DDE7" width="281.738" height="7.199"/>
	</g>
	<g>
		<rect x="80.221" y="464.071" fill="#C0DDE7" width="281.738" height="7.199"/>
	</g>
	<g>
		<rect x="80.221" y="477.984" fill="#C0DDE7" width="281.738" height="7.2"/>
	</g>
	<g>
		<rect x="80.221" y="60.569" fill="#C0DDE7" width="281.738" height="7.2"/>
	</g>
	<g>
		<rect x="80.221" y="74.483" fill="#C0DDE7" width="281.738" height="7.2"/>
	</g>
	<g>
		<rect x="80.221" y="144.053" fill="#C0DDE7" width="281.738" height="7.199"/>
	</g>
	<g>
		<rect x="80.221" y="88.398" fill="#C0DDE7" width="281.738" height="7.199"/>
	</g>
	<g>
		<rect x="80.221" y="102.312" fill="#C0DDE7" width="281.738" height="7.2"/>
	</g>
	<g>
		<rect x="80.221" y="116.226" fill="#C0DDE7" width="281.738" height="7.199"/>
	</g>
	<g>
		<rect x="80.221" y="130.14" fill="#C0DDE7" width="281.738" height="7.199"/>
	</g>
	<g>
		<g>
			<polygon fill="#7C5904" points="218.395,67.77 80.324,67.77 80.324,60.57 218.395,60.57 222.543,64.17 			"/>
		</g>
		<g>
			<polygon fill="#7C5904" points="223.785,60.57 361.855,60.57 361.855,67.77 223.785,67.77 227.934,64.17 			"/>
		</g>
	</g>
	<g>
		<g>
			<polygon fill="#7C5904" points="218.395,81.684 80.324,81.684 80.324,74.484 218.395,74.484 222.543,78.084 			"/>
		</g>
		<g>
			<polygon fill="#7C5904" points="223.785,74.484 361.855,74.484 361.855,81.684 223.785,81.684 227.934,78.084 			"/>
		</g>
	</g>
	<g>
		<g>
			<polygon fill="#7C5904" points="218.395,151.252 80.324,151.252 80.324,144.053 218.395,144.053 222.543,147.652 			"/>
		</g>
		<g>
			<polygon fill="#7C5904" points="223.785,144.053 361.855,144.053 361.855,151.252 223.785,151.252 227.934,147.652 			"/>
		</g>
	</g>
	<g>
		<g>
			<polygon fill="#7C5904" points="218.395,165.166 80.324,165.166 80.324,157.967 218.395,157.967 222.543,161.566 			"/>
		</g>
		<g>
			<polygon fill="#7C5904" points="223.785,157.967 361.855,157.967 361.855,165.166 223.785,165.166 227.934,161.566 			"/>
		</g>
	</g>
	<g>
		<g>
			<polygon fill="#7C5904" points="218.395,276.477 80.324,276.477 80.324,269.277 218.395,269.277 222.543,272.877 			"/>
		</g>
		<g>
			<polygon fill="#7C5904" points="223.785,269.277 361.855,269.277 361.855,276.477 223.785,276.477 227.934,272.877 			"/>
		</g>
	</g>
	<g>
		<g>
			<polygon fill="#7C5904" points="218.395,95.597 80.324,95.597 80.324,88.398 218.395,88.398 222.543,91.997 			"/>
		</g>
		<g>
			<polygon fill="#7C5904" points="223.785,88.398 361.855,88.398 361.855,95.597 223.785,95.597 227.934,91.997 			"/>
		</g>
	</g>
	<g>
		<g>
			<polygon fill="#7C5904" points="218.395,109.512 80.324,109.512 80.324,102.312 218.395,102.312 222.543,105.911 			"/>
		</g>
		<g>
			<polygon fill="#7C5904" points="223.785,102.312 361.855,102.312 361.855,109.512 223.785,109.512 227.934,105.911 			"/>
		</g>
	</g>
	<g>
		<g>
			<polygon fill="#7C5904" points="218.395,123.425 80.324,123.425 80.324,116.226 218.395,116.226 222.543,119.824 			"/>
		</g>
		<g>
			<polygon fill="#7C5904" points="223.785,116.226 361.855,116.226 361.855,123.425 223.785,123.425 227.934,119.824 			"/>
		</g>
	</g>
	<g>
		<g>
			<polygon fill="#7C5904" points="218.395,137.339 80.324,137.339 80.324,130.139 218.395,130.139 222.543,133.738 			"/>
		</g>
		<g>
			<polygon fill="#7C5904" points="223.785,130.139 361.855,130.139 361.855,137.339 223.785,137.339 227.934,133.738 			"/>
		</g>
	</g>
	<g>
		<g>
			<polygon fill="#7C5904" points="218.395,179.08 80.324,179.08 80.324,171.881 218.395,171.881 222.543,175.48 			"/>
		</g>
		<g>
			<polygon fill="#7C5904" points="223.785,171.881 361.855,171.881 361.855,179.08 223.785,179.08 227.934,175.48 			"/>
		</g>
	</g>
	<g>
		<g>
			<polygon fill="#7C5904" points="218.395,192.993 80.324,192.993 80.324,185.794 218.395,185.794 222.543,189.394 			"/>
		</g>
		<g>
			<polygon fill="#7C5904" points="223.785,185.794 361.855,185.794 361.855,192.993 223.785,192.993 227.934,189.394 			"/>
		</g>
	</g>
	<g>
		<g>
			<polygon fill="#7C5904" points="218.395,262.562 80.324,262.562 80.324,255.363 218.395,255.363 222.543,258.963 			"/>
		</g>
		<g>
			<polygon fill="#7C5904" points="223.785,255.363 361.855,255.363 361.855,262.562 223.785,262.562 227.934,258.963 			"/>
		</g>
	</g>
	<g>
		<g>
			<polygon fill="#7C5904" points="218.395,206.907 80.324,206.907 80.324,199.708 218.395,199.708 222.543,203.308 			"/>
		</g>
		<g>
			<polygon fill="#7C5904" points="223.785,199.708 361.855,199.708 361.855,206.907 223.785,206.907 227.934,203.308 			"/>
		</g>
	</g>
	<g>
		<g>
			<polygon fill="#7C5904" points="218.395,220.821 80.324,220.821 80.324,213.622 218.395,213.622 222.543,217.221 			"/>
		</g>
		<g>
			<polygon fill="#7C5904" points="223.785,213.622 361.855,213.622 361.855,220.821 223.785,220.821 227.934,217.221 			"/>
		</g>
	</g>
	<g>
		<g>
			<polygon fill="#7C5904" points="218.395,234.735 80.324,234.735 80.324,227.535 218.395,227.535 222.543,231.135 			"/>
		</g>
		<g>
			<polygon fill="#7C5904" points="223.785,227.535 361.855,227.535 361.855,234.735 223.785,234.735 227.934,231.135 			"/>
		</g>
	</g>
	<g>
		<g>
			<polygon fill="#7C5904" points="218.395,248.65 80.324,248.65 80.324,241.45 218.395,241.45 222.543,245.05 			"/>
		</g>
		<g>
			<polygon fill="#7C5904" points="223.785,241.45 361.855,241.45 361.855,248.65 223.785,248.65 227.934,245.05 			"/>
		</g>
	</g>
	<g>
		<g>
			<polygon fill="#7C5904" points="218.395,290.543 80.324,290.543 80.324,283.344 218.395,283.344 222.543,286.943 			"/>
		</g>
		<g>
			<polygon fill="#7C5904" points="223.785,283.344 361.855,283.344 361.855,290.543 223.785,290.543 227.934,286.943 			"/>
		</g>
	</g>
	<g>
		<g>
			<polygon fill="#7C5904" points="218.395,304.478 80.324,304.478 80.324,297.278 218.395,297.278 222.543,300.878 			"/>
		</g>
		<g>
			<polygon fill="#7C5904" points="223.785,297.278 361.855,297.278 361.855,304.478 223.785,304.478 227.934,300.878 			"/>
		</g>
	</g>
	<g>
		<g>
			<polygon fill="#7C5904" points="218.395,374.147 80.324,374.147 80.324,366.948 218.395,366.948 222.543,370.548 			"/>
		</g>
		<g>
			<polygon fill="#7C5904" points="223.785,366.948 361.855,366.948 361.855,374.147 223.785,374.147 227.934,370.548 			"/>
		</g>
	</g>
	<g>
		<g>
			<polygon fill="#7C5904" points="218.395,387.787 80.324,387.787 80.324,380.588 218.395,380.588 222.543,384.188 			"/>
		</g>
		<g>
			<polygon fill="#7C5904" points="223.785,380.588 361.855,380.588 361.855,387.787 223.785,387.787 227.934,384.188 			"/>
		</g>
	</g>
	<g>
		<g>
			<polygon fill="#7C5904" points="218.395,318.411 80.324,318.411 80.324,311.212 218.395,311.212 222.543,314.812 			"/>
		</g>
		<g>
			<polygon fill="#7C5904" points="223.785,311.212 361.855,311.212 361.855,318.411 223.785,318.411 227.934,314.812 			"/>
		</g>
	</g>
	<g>
		<g>
			<polygon fill="#7C5904" points="218.395,332.346 80.324,332.346 80.324,325.146 218.395,325.146 222.543,328.745 			"/>
		</g>
		<g>
			<polygon fill="#7C5904" points="223.785,325.146 361.855,325.146 361.855,332.346 223.785,332.346 227.934,328.745 			"/>
		</g>
	</g>
	<g>
		<g>
			<polygon fill="#7C5904" points="218.395,346.28 80.324,346.28 80.324,339.08 218.395,339.08 222.543,342.68 			"/>
		</g>
		<g>
			<polygon fill="#7C5904" points="223.785,339.08 361.855,339.08 361.855,346.28 223.785,346.28 227.934,342.68 			"/>
		</g>
	</g>
	<g>
		<g>
			<polygon fill="#7C5904" points="218.395,360.214 80.324,360.214 80.324,353.014 218.395,353.014 222.543,356.613 			"/>
		</g>
		<g>
			<polygon fill="#7C5904" points="223.785,353.014 361.855,353.014 361.855,360.214 223.785,360.214 227.934,356.613 			"/>
		</g>
	</g>
	<g>
		<g>
			<polygon fill="#7C5904" points="218.395,401.543 80.324,401.543 80.324,394.344 218.395,394.344 222.543,397.943 			"/>
		</g>
		<g>
			<polygon fill="#7C5904" points="223.785,394.344 361.855,394.344 361.855,401.543 223.785,401.543 227.934,397.943 			"/>
		</g>
	</g>
	<g>
		<g>
			<polygon fill="#7C5904" points="218.395,415.478 80.324,415.478 80.324,408.278 218.395,408.278 222.543,411.878 			"/>
		</g>
		<g>
			<polygon fill="#7C5904" points="223.785,408.278 361.855,408.278 361.855,415.478 223.785,415.478 227.934,411.878 			"/>
		</g>
	</g>
	<g>
		<g>
			<polygon fill="#7C5904" points="218.395,485.147 80.324,485.147 80.324,477.948 218.395,477.948 222.543,481.548 			"/>
		</g>
		<g>
			<polygon fill="#7C5904" points="223.785,477.948 227.934,481.548 223.785,485.147 357.707,485.147 361.855,481.548 
				357.707,477.948 			"/>
		</g>
	</g>
	<g>
		<g>
			<polygon fill="#7C5904" points="218.395,429.411 80.324,429.411 80.324,422.212 218.395,422.212 222.543,425.812 			"/>
		</g>
		<g>
			<polygon fill="#7C5904" points="223.785,422.212 361.855,422.212 361.855,429.411 223.785,429.411 227.934,425.812 			"/>
		</g>
	</g>
	<g>
		<g>
			<polygon fill="#7C5904" points="218.395,443.346 80.324,443.346 80.324,436.146 218.395,436.146 222.543,439.745 			"/>
		</g>
		<g>
			<polygon fill="#7C5904" points="223.785,436.146 361.855,436.146 361.855,443.346 223.785,443.346 227.934,439.745 			"/>
		</g>
	</g>
	<g>
		<g>
			<polygon fill="#7C5904" points="218.395,457.28 80.324,457.28 80.324,450.08 218.395,450.08 222.543,453.68 			"/>
		</g>
		<g>
			<polygon fill="#7C5904" points="223.785,450.08 361.855,450.08 361.855,457.28 223.785,457.28 227.934,453.68 			"/>
		</g>
	</g>
	<g>
		<g>
			<polygon fill="#7C5904" points="218.395,471.214 80.324,471.214 80.324,464.014 218.395,464.014 222.543,467.613 			"/>
		</g>
		<g>
			<polygon fill="#7C5904" points="223.785,464.014 361.855,464.014 361.855,471.214 223.785,471.214 227.934,467.613 			"/>
		</g>
	</g>
	<g>
		<path fill="#C63706" d="M67.225,49.832h6.469v3.087h-1.381v13.938h-3.729l-7.086-11.006v7.929h1.426v3.077h-6.458v-3.077h1.404
			v-10.86h-1.381v-3.087h5.144l7.042,11.152v-8.064h-1.449V49.832z"/>
	</g>
	<g>
		<path fill="#C63706" d="M70.649,343.609c-0.451-0.123-0.876-0.304-1.274-0.545c-0.398-0.24-0.748-0.537-1.046-0.892
			c-0.299-0.354-0.536-0.764-0.712-1.23c-0.176-0.465-0.264-0.989-0.264-1.569c0-0.615,0.123-1.191,0.369-1.727
			c0.246-0.537,0.595-1.004,1.046-1.402s0.996-0.712,1.635-0.94s1.35-0.343,2.136-0.343h6.012v2.417h-1.239v14.089h-2.575v-14.089
			h-1.512v14.089h-2.575V343.609z"/>
	</g>
	<g>
		<path fill="#398EB0" d="M70.649,204.109c-0.451-0.123-0.876-0.304-1.274-0.545c-0.398-0.24-0.748-0.537-1.046-0.892
			c-0.299-0.354-0.536-0.764-0.712-1.23c-0.176-0.465-0.264-0.989-0.264-1.569c0-0.615,0.123-1.191,0.369-1.727
			c0.246-0.537,0.595-1.004,1.046-1.402s0.996-0.712,1.635-0.94s1.35-0.343,2.136-0.343h6.012v2.417h-1.239v14.089h-2.575v-14.089
			h-1.512v14.089h-2.575V204.109z"/>
	</g>
	<g>
		<path fill="#398EB0" d="M70.649,482.609c-0.451-0.123-0.876-0.304-1.274-0.545c-0.398-0.24-0.748-0.537-1.046-0.892
			c-0.299-0.354-0.536-0.764-0.712-1.23c-0.176-0.465-0.264-0.989-0.264-1.569c0-0.615,0.123-1.191,0.369-1.727
			c0.246-0.537,0.595-1.004,1.046-1.402s0.996-0.712,1.635-0.94s1.35-0.343,2.136-0.343h6.012v2.417h-1.239v14.089h-2.575v-14.089
			h-1.512v14.089h-2.575V482.609z"/>
	</g>
</g>
</svg>
