<?xml version="1.0" encoding="utf-8"?>
<!-- Generator: Adobe Illustrator 16.0.4, SVG Export Plug-In . SVG Version: 6.00 Build 0)  -->
<!DOCTYPE svg PUBLIC "-//W3C//DTD SVG 1.1//EN" "http://www.w3.org/Graphics/SVG/1.1/DTD/svg11.dtd">
<svg version="1.1" id="Layer_1" xmlns="http://www.w3.org/2000/svg" xmlns:xlink="http://www.w3.org/1999/xlink" x="0px" y="0px"
	 width="448.746px" height="616.435px" viewBox="0 0 448.746 616.435" enable-background="new 0 0 448.746 616.435"
	 xml:space="preserve">
<rect x="0.5" y="0.5" fill="#FFFFFF" stroke="#C68D06" stroke-miterlimit="10" width="447.746" height="615.435"/>
<g>
	<path fill="#C68D06" d="M376.256,575.864h-12.461v-1.855l11.796-17.781h3.046v17.432h4.375v2.205h-4.375v6.266h-2.381V575.864z
		 M376.256,573.659v-14.526h-0.069l-9.592,14.526H376.256z"/>
	<path fill="#C68D06" d="M388.609,556.227h2.556l7.735,22.612h0.07l7.771-22.612h2.416l-9.102,26.008h-2.344L388.609,556.227z"/>
</g>
<g>
	<rect x="80.387" y="157.966" fill="#C0DDE7" width="281.738" height="7.2"/>
</g>
<g>
	<rect x="80.386" y="171.88" fill="#C0DDE7" width="281.739" height="7.199"/>
</g>
<g>
	<rect x="80.387" y="185.793" fill="#C0DDE7" width="281.738" height="7.2"/>
</g>
<g>
	<rect x="80.387" y="199.708" fill="#C0DDE7" width="281.738" height="7.199"/>
</g>
<g>
	<rect x="80.387" y="213.621" fill="#C0DDE7" width="281.738" height="7.199"/>
</g>
<g>
	<rect x="80.387" y="227.534" fill="#C0DDE7" width="281.738" height="7.2"/>
</g>
<g>
	<rect x="80.386" y="241.449" fill="#C0DDE7" width="281.739" height="7.198"/>
</g>
<g>
	<rect x="80.386" y="255.361" fill="#C0DDE7" width="281.739" height="7.2"/>
</g>
<g>
	<rect x="80.387" y="269.275" fill="#C0DDE7" width="281.738" height="7.199"/>
</g>
<g>
	<rect x="80.386" y="283.188" fill="#C0DDE7" width="281.739" height="7.2"/>
</g>
<g>
	<rect x="80.387" y="297.102" fill="#C0DDE7" width="281.738" height="7.2"/>
</g>
<g>
	<rect x="80.387" y="311.015" fill="#C0DDE7" width="281.738" height="7.2"/>
</g>
<g>
	<rect x="80.387" y="324.929" fill="#C0DDE7" width="281.738" height="7.199"/>
</g>
<g>
	<rect x="80.386" y="338.842" fill="#C0DDE7" width="281.739" height="7.2"/>
</g>
<g>
	<rect x="80.387" y="352.755" fill="#C0DDE7" width="281.738" height="7.2"/>
</g>
<g>
	<rect x="80.387" y="366.668" fill="#C0DDE7" width="281.738" height="7.201"/>
</g>
<g>
	<rect x="80.387" y="380.583" fill="#C0DDE7" width="281.738" height="7.198"/>
</g>
<g>
	<rect x="80.387" y="394.497" fill="#C0DDE7" width="281.738" height="7.199"/>
</g>
<g>
	<rect x="80.386" y="408.411" fill="#C0DDE7" width="281.739" height="7.199"/>
</g>
<g>
	<rect x="80.387" y="422.324" fill="#C0DDE7" width="281.738" height="7.2"/>
</g>
<g>
	<rect x="80.386" y="436.238" fill="#C0DDE7" width="281.739" height="7.2"/>
</g>
<g>
	<rect x="80.387" y="450.152" fill="#C0DDE7" width="281.738" height="7.199"/>
</g>
<g>
	<rect x="80.386" y="464.066" fill="#C0DDE7" width="281.739" height="7.199"/>
</g>
<g>
	<rect x="80.387" y="477.979" fill="#C0DDE7" width="281.738" height="7.2"/>
</g>
<g>
	<rect x="80.387" y="60.569" fill="#C0DDE7" width="281.738" height="7.2"/>
</g>
<g>
	<rect x="80.386" y="74.483" fill="#C0DDE7" width="281.739" height="7.2"/>
</g>
<g>
	<rect x="80.386" y="144.052" fill="#C0DDE7" width="281.739" height="7.2"/>
</g>
<g>
	<rect x="80.387" y="88.397" fill="#C0DDE7" width="281.738" height="7.199"/>
</g>
<g>
	<rect x="80.386" y="102.311" fill="#C0DDE7" width="281.739" height="7.2"/>
</g>
<g>
	<rect x="80.386" y="116.225" fill="#C0DDE7" width="281.739" height="7.199"/>
</g>
<g>
	<rect x="80.386" y="130.139" fill="#C0DDE7" width="281.739" height="7.199"/>
</g>
<g>
	<g>
		<polygon fill="#7C5904" points="223.951,60.57 362.021,60.57 362.021,67.77 223.951,67.77 228.098,64.17 		"/>
	</g>
	<g>
		<polygon fill="#7C5904" points="222.708,64.17 218.561,60.571 218.561,60.57 218.56,60.57 80.49,60.57 84.638,64.17 80.49,67.77 
			218.56,67.77 218.561,67.77 218.561,67.769 		"/>
	</g>
</g>
<g>
	<g>
		<polygon fill="#7C5904" points="218.56,81.683 80.49,81.683 80.49,74.484 218.56,74.484 222.708,78.084 		"/>
	</g>
	<g>
		<polygon fill="#7C5904" points="223.951,74.484 362.021,74.484 362.021,81.683 223.951,81.683 228.098,78.084 		"/>
	</g>
</g>
<g>
	<g>
		<polygon fill="#7C5904" points="218.56,151.252 80.49,151.252 80.49,144.052 218.56,144.052 222.708,147.652 		"/>
	</g>
	<g>
		<polygon fill="#7C5904" points="223.951,144.052 362.021,144.052 362.021,151.252 223.951,151.252 228.098,147.652 		"/>
	</g>
</g>
<g>
	<g>
		<polygon fill="#7C5904" points="218.56,165.166 80.49,165.166 80.49,157.966 218.56,157.966 222.708,161.566 		"/>
	</g>
	<g>
		<polygon fill="#7C5904" points="223.951,157.966 362.021,157.966 362.021,165.166 223.951,165.166 228.098,161.566 		"/>
	</g>
</g>
<g>
	<g>
		<polygon fill="#7C5904" points="218.56,276.474 80.49,276.474 80.49,269.275 218.56,269.275 222.708,272.875 		"/>
	</g>
	<g>
		<polygon fill="#7C5904" points="223.951,269.275 362.021,269.275 362.021,276.474 223.951,276.474 228.098,272.875 		"/>
	</g>
</g>
<g>
	<g>
		<polygon fill="#7C5904" points="218.56,95.596 80.49,95.596 80.49,88.397 218.56,88.397 222.708,91.997 		"/>
	</g>
	<g>
		<polygon fill="#7C5904" points="223.951,88.397 362.021,88.397 362.021,95.596 223.951,95.596 228.098,91.997 		"/>
	</g>
</g>
<g>
	<g>
		<polygon fill="#7C5904" points="218.56,109.511 80.49,109.511 80.49,102.312 218.56,102.312 222.708,105.91 		"/>
	</g>
	<g>
		<polygon fill="#7C5904" points="223.951,102.312 362.021,102.312 362.021,109.511 223.951,109.511 228.098,105.91 		"/>
	</g>
</g>
<g>
	<g>
		<polygon fill="#7C5904" points="218.56,123.424 80.49,123.424 80.49,116.224 218.56,116.224 222.708,119.823 		"/>
	</g>
	<g>
		<polygon fill="#7C5904" points="223.951,116.224 362.021,116.224 362.021,123.424 223.951,123.424 228.098,119.823 		"/>
	</g>
</g>
<g>
	<g>
		<polygon fill="#7C5904" points="218.56,137.338 80.49,137.338 80.49,130.138 218.56,130.138 222.708,133.737 		"/>
	</g>
	<g>
		<polygon fill="#7C5904" points="223.951,130.138 362.021,130.138 362.021,137.338 223.951,137.338 228.098,133.737 		"/>
	</g>
</g>
<g>
	<g>
		<polygon fill="#7C5904" points="218.561,179.079 80.49,179.079 80.49,171.88 218.561,171.88 222.709,175.48 		"/>
	</g>
	<g>
		<polygon fill="#7C5904" points="223.951,171.88 362.021,171.88 362.021,179.079 223.951,179.079 228.099,175.48 		"/>
	</g>
</g>
<g>
	<g>
		<polygon fill="#7C5904" points="218.56,192.993 80.49,192.993 80.49,185.793 218.56,185.793 222.708,189.393 		"/>
	</g>
	<g>
		<polygon fill="#7C5904" points="223.951,185.793 362.021,185.793 362.021,192.993 223.951,192.993 228.098,189.393 		"/>
	</g>
</g>
<g>
	<g>
		<polygon fill="#7C5904" points="218.56,262.56 80.49,262.56 80.49,255.361 218.56,255.361 222.708,258.96 		"/>
	</g>
	<g>
		<polygon fill="#7C5904" points="223.951,255.361 362.021,255.361 362.021,262.56 223.951,262.56 228.098,258.96 		"/>
	</g>
</g>
<g>
	<g>
		<polygon fill="#7C5904" points="218.56,206.907 80.49,206.907 80.49,199.708 218.56,199.708 222.708,203.307 		"/>
	</g>
	<g>
		<polygon fill="#7C5904" points="223.951,199.708 362.021,199.708 362.021,206.907 223.951,206.907 228.098,203.307 		"/>
	</g>
</g>
<g>
	<g>
		<polygon fill="#7C5904" points="218.56,220.82 80.49,220.82 80.49,213.621 218.56,213.621 222.708,217.22 		"/>
	</g>
	<g>
		<polygon fill="#7C5904" points="223.951,213.621 362.021,213.621 362.021,220.82 223.951,220.82 228.098,217.22 		"/>
	</g>
</g>
<g>
	<g>
		<polygon fill="#7C5904" points="218.56,234.734 80.49,234.734 80.49,227.534 218.56,227.534 222.708,231.133 		"/>
	</g>
	<g>
		<polygon fill="#7C5904" points="223.951,227.534 362.021,227.534 362.021,234.734 223.951,234.734 228.098,231.133 		"/>
	</g>
</g>
<g>
	<g>
		<polygon fill="#7C5904" points="218.56,248.648 80.49,248.648 80.49,241.449 218.56,241.449 222.708,245.047 		"/>
	</g>
	<g>
		<polygon fill="#7C5904" points="223.951,241.449 362.021,241.449 362.021,248.648 223.951,248.648 228.098,245.047 		"/>
	</g>
</g>
<g>
	<g>
		<polygon fill="#7C5904" points="218.561,290.54 80.49,290.54 80.49,283.341 218.561,283.341 222.709,286.94 		"/>
	</g>
	<g>
		<polygon fill="#7C5904" points="223.951,283.341 362.021,283.341 362.021,290.54 223.951,290.54 228.099,286.94 		"/>
	</g>
</g>
<g>
	<g>
		<polygon fill="#7C5904" points="218.56,304.474 80.49,304.474 80.49,297.275 218.56,297.275 222.708,300.875 		"/>
	</g>
	<g>
		<polygon fill="#7C5904" points="223.951,297.275 362.021,297.275 362.021,304.474 223.951,304.474 228.098,300.875 		"/>
	</g>
</g>
<g>
	<g>
		<polygon fill="#7C5904" points="218.56,374.143 80.49,374.143 80.49,366.944 218.56,366.944 222.708,370.543 		"/>
	</g>
	<g>
		<polygon fill="#7C5904" points="223.951,366.944 362.021,366.944 362.021,374.143 223.951,374.143 228.098,370.543 		"/>
	</g>
</g>
<g>
	<g>
		<polygon fill="#7C5904" points="218.56,387.782 80.49,387.782 80.49,380.583 218.56,380.583 222.708,384.182 		"/>
	</g>
	<g>
		<polygon fill="#7C5904" points="223.951,380.583 362.021,380.583 362.021,387.782 223.951,387.782 228.098,384.182 		"/>
	</g>
</g>
<g>
	<g>
		<polygon fill="#7C5904" points="218.56,318.408 80.49,318.408 80.49,311.208 218.56,311.208 222.708,314.808 		"/>
	</g>
	<g>
		<polygon fill="#7C5904" points="223.951,311.208 362.021,311.208 362.021,318.408 223.951,318.408 228.098,314.808 		"/>
	</g>
</g>
<g>
	<g>
		<polygon fill="#7C5904" points="218.56,332.341 80.49,332.341 80.49,325.142 218.56,325.142 222.708,328.741 		"/>
	</g>
	<g>
		<polygon fill="#7C5904" points="223.951,325.142 362.021,325.142 362.021,332.341 223.951,332.341 228.098,328.741 		"/>
	</g>
</g>
<g>
	<g>
		<polygon fill="#7C5904" points="218.56,346.276 80.49,346.276 80.49,339.076 218.56,339.076 222.708,342.675 		"/>
	</g>
	<g>
		<polygon fill="#7C5904" points="223.951,339.076 362.021,339.076 362.021,346.276 223.951,346.276 228.098,342.675 		"/>
	</g>
</g>
<g>
	<g>
		<polygon fill="#7C5904" points="218.56,360.209 80.49,360.209 80.49,353.009 218.56,353.009 222.708,356.609 		"/>
	</g>
	<g>
		<polygon fill="#7C5904" points="223.951,353.009 362.021,353.009 362.021,360.209 223.951,360.209 228.098,356.609 		"/>
	</g>
</g>
<g>
	<g>
		<polygon fill="#7C5904" points="218.561,401.538 80.49,401.538 80.49,394.338 218.561,394.338 222.709,397.938 		"/>
	</g>
	<g>
		<polygon fill="#7C5904" points="223.951,394.338 362.021,394.338 362.021,401.538 223.951,401.538 228.099,397.938 		"/>
	</g>
</g>
<g>
	<g>
		<polygon fill="#7C5904" points="218.56,415.472 80.49,415.472 80.49,408.273 218.56,408.273 222.708,411.873 		"/>
	</g>
	<g>
		<polygon fill="#7C5904" points="223.951,408.273 362.021,408.273 362.021,415.472 223.951,415.472 228.098,411.873 		"/>
	</g>
</g>
<g>
	<g>
		<polygon fill="#7C5904" points="218.56,485.142 80.49,485.142 80.49,477.943 218.56,477.943 222.708,481.542 		"/>
	</g>
	<g>
		<polygon fill="#7C5904" points="223.951,477.943 228.098,481.542 223.951,485.142 357.873,485.142 362.021,481.542 
			357.873,477.943 		"/>
	</g>
</g>
<g>
	<g>
		<polygon fill="#7C5904" points="218.56,429.406 80.49,429.406 80.49,422.207 218.56,422.207 222.708,425.806 		"/>
	</g>
	<g>
		<polygon fill="#7C5904" points="223.951,422.207 362.021,422.207 362.021,429.406 223.951,429.406 228.098,425.806 		"/>
	</g>
</g>
<g>
	<g>
		<polygon fill="#7C5904" points="218.56,443.34 80.49,443.34 80.49,436.141 218.56,436.141 222.708,439.74 		"/>
	</g>
	<g>
		<polygon fill="#7C5904" points="223.951,436.141 362.021,436.141 362.021,443.34 223.951,443.34 228.098,439.74 		"/>
	</g>
</g>
<g>
	<g>
		<polygon fill="#7C5904" points="218.56,457.275 80.49,457.275 80.49,450.075 218.56,450.075 222.708,453.674 		"/>
	</g>
	<g>
		<polygon fill="#7C5904" points="223.951,450.075 362.021,450.075 362.021,457.275 223.951,457.275 228.098,453.674 		"/>
	</g>
</g>
<g>
	<g>
		<polygon fill="#7C5904" points="218.56,471.208 80.49,471.208 80.49,464.008 218.56,464.008 222.708,467.608 		"/>
	</g>
	<g>
		<polygon fill="#7C5904" points="223.951,464.008 362.021,464.008 362.021,471.208 223.951,471.208 228.098,467.608 		"/>
	</g>
</g>
<g>
	<path fill="#398EB0" d="M70.816,329.355c-0.451-0.123-0.876-0.305-1.274-0.545s-0.747-0.537-1.046-0.893
		c-0.299-0.354-0.536-0.764-0.712-1.23c-0.176-0.465-0.264-0.988-0.264-1.568c0-0.615,0.123-1.191,0.369-1.727
		c0.247-0.537,0.595-1.004,1.046-1.402s0.996-0.712,1.635-0.94c0.639-0.229,1.351-0.343,2.136-0.343h6.012v2.417h-1.239v14.089
		h-2.575v-14.089h-1.512v14.089h-2.575V329.355z"/>
</g>
<g>
	<path fill="#C63706" d="M70.816,190.606c-0.451-0.123-0.876-0.305-1.274-0.545s-0.747-0.537-1.046-0.893
		c-0.299-0.354-0.536-0.764-0.712-1.23c-0.176-0.465-0.264-0.988-0.264-1.568c0-0.615,0.123-1.191,0.369-1.727
		c0.247-0.537,0.595-1.004,1.046-1.402s0.996-0.712,1.635-0.94c0.639-0.228,1.351-0.343,2.136-0.343h6.012v2.417h-1.239v14.089
		h-2.575v-14.089h-1.512v14.089h-2.575V190.606z"/>
</g>
<g>
	<path fill="#C63706" d="M70.816,468.356c-0.451-0.123-0.876-0.305-1.274-0.545s-0.747-0.537-1.046-0.893
		c-0.299-0.354-0.536-0.764-0.712-1.23c-0.176-0.465-0.264-0.988-0.264-1.568c0-0.615,0.123-1.191,0.369-1.727
		c0.247-0.537,0.595-1.004,1.046-1.402s0.996-0.712,1.635-0.94c0.639-0.229,1.351-0.343,2.136-0.343h6.012v2.417h-1.239v14.089
		h-2.575v-14.089h-1.512v14.089h-2.575V468.356z"/>
</g>
</svg>
