<?xml version="1.0" encoding="utf-8"?>
<!-- Generator: Adobe Illustrator 16.0.4, SVG Export Plug-In . SVG Version: 6.00 Build 0)  -->
<!DOCTYPE svg PUBLIC "-//W3C//DTD SVG 1.1//EN" "http://www.w3.org/Graphics/SVG/1.1/DTD/svg11.dtd">
<svg version="1.1" id="Layer_1" xmlns="http://www.w3.org/2000/svg" xmlns:xlink="http://www.w3.org/1999/xlink" x="0px" y="0px"
	 width="448.746px" height="616.44px" viewBox="0 0 448.746 616.44" enable-background="new 0 0 448.746 616.44"
	 xml:space="preserve">
<rect x="0.5" y="0.5" fill="#FFFFFF" stroke="#C68D06" stroke-miterlimit="10" width="447.746" height="615.44"/>
<g>
	<path fill="#C68D06" d="M364.844,575.969l1.785-1.436c1.575,2.275,3.641,3.921,6.72,3.921c4.446,0,6.476-3.291,6.476-6.791
		c0-4.2-2.485-6.44-5.916-6.44c-2.66,0-4.48,1.189-5.915,3.255l-1.855-0.7l1.016-13.546h13.687l-0.211,2.274h-11.411l-0.701,8.996
		c1.261-1.47,2.976-2.415,5.742-2.415c4.69,0,8.016,3.29,8.016,8.471s-3.396,9.066-8.891,9.066
		C369.64,580.625,366.594,578.734,364.844,575.969z"/>
	<path fill="#C68D06" d="M388.608,554.232h2.556l7.735,22.612h0.07l7.771-22.612h2.416l-9.102,26.008h-2.345L388.608,554.232z"/>
</g>
<g>
	<rect x="80.216" y="158.467" fill="#C0DDE7" width="281.738" height="7.199"/>
</g>
<g>
	<rect x="80.216" y="172.38" fill="#C0DDE7" width="281.738" height="7.199"/>
</g>
<g>
	<rect x="80.216" y="186.294" fill="#C0DDE7" width="281.738" height="7.201"/>
</g>
<g>
	<rect x="80.216" y="200.208" fill="#C0DDE7" width="281.738" height="7.199"/>
</g>
<g>
	<rect x="80.216" y="214.122" fill="#C0DDE7" width="281.738" height="7.2"/>
</g>
<g>
	<rect x="80.216" y="228.035" fill="#C0DDE7" width="281.738" height="7.201"/>
</g>
<g>
	<rect x="80.216" y="241.95" fill="#C0DDE7" width="281.738" height="7.199"/>
</g>
<g>
	<rect x="80.216" y="255.863" fill="#C0DDE7" width="281.738" height="7.2"/>
</g>
<g>
	<rect x="80.216" y="269.778" fill="#C0DDE7" width="281.738" height="7.199"/>
</g>
<g>
	<rect x="80.216" y="283.691" fill="#C0DDE7" width="281.738" height="7.2"/>
</g>
<g>
	<rect x="80.216" y="297.604" fill="#C0DDE7" width="281.738" height="7.2"/>
</g>
<g>
	<rect x="80.216" y="311.519" fill="#C0DDE7" width="281.738" height="7.2"/>
</g>
<g>
	<rect x="80.216" y="325.433" fill="#C0DDE7" width="281.738" height="7.199"/>
</g>
<g>
	<rect x="80.216" y="339.346" fill="#C0DDE7" width="281.738" height="7.2"/>
</g>
<g>
	<rect x="80.216" y="353.26" fill="#C0DDE7" width="281.738" height="7.2"/>
</g>
<g>
	<rect x="80.216" y="367.174" fill="#C0DDE7" width="281.738" height="7.2"/>
</g>
<g>
	<rect x="80.216" y="381.088" fill="#C0DDE7" width="281.738" height="7.199"/>
</g>
<g>
	<rect x="80.216" y="395.002" fill="#C0DDE7" width="281.738" height="7.199"/>
</g>
<g>
	<rect x="80.216" y="408.916" fill="#C0DDE7" width="281.738" height="7.199"/>
</g>
<g>
	<rect x="80.216" y="422.829" fill="#C0DDE7" width="281.738" height="7.201"/>
</g>
<g>
	<rect x="80.216" y="436.743" fill="#C0DDE7" width="281.738" height="7.2"/>
</g>
<g>
	<rect x="80.216" y="450.657" fill="#C0DDE7" width="281.738" height="7.199"/>
</g>
<g>
	<rect x="80.216" y="464.571" fill="#C0DDE7" width="281.738" height="7.199"/>
</g>
<g>
	<rect x="80.216" y="478.484" fill="#C0DDE7" width="281.738" height="7.201"/>
</g>
<g>
	<rect x="80.216" y="61.07" fill="#C0DDE7" width="281.738" height="7.2"/>
</g>
<g>
	<rect x="80.216" y="74.984" fill="#C0DDE7" width="281.738" height="7.2"/>
</g>
<g>
	<rect x="80.216" y="144.553" fill="#C0DDE7" width="281.738" height="7.199"/>
</g>
<g>
	<rect x="80.216" y="88.897" fill="#C0DDE7" width="281.738" height="7.199"/>
</g>
<g>
	<rect x="80.216" y="102.811" fill="#C0DDE7" width="281.738" height="7.2"/>
</g>
<g>
	<rect x="80.216" y="116.725" fill="#C0DDE7" width="281.738" height="7.199"/>
</g>
<g>
	<rect x="80.216" y="130.639" fill="#C0DDE7" width="281.738" height="7.199"/>
</g>
<g>
	<g>
		<polygon fill="#7C5904" points="218.39,68.27 80.32,68.27 80.32,61.07 218.39,61.07 222.539,64.67 		"/>
	</g>
	<g>
		<polygon fill="#7C5904" points="223.781,61.07 361.851,61.07 361.851,68.27 223.781,68.27 227.929,64.67 		"/>
	</g>
</g>
<g>
	<g>
		<polygon fill="#7C5904" points="218.39,82.184 80.32,82.184 80.32,74.984 218.39,74.984 222.539,78.584 		"/>
	</g>
	<g>
		<polygon fill="#7C5904" points="223.781,74.984 361.851,74.984 361.851,82.184 223.781,82.184 227.929,78.584 		"/>
	</g>
</g>
<g>
	<g>
		<polygon fill="#7C5904" points="218.39,151.752 80.32,151.752 80.32,144.553 218.39,144.553 222.539,148.152 		"/>
	</g>
	<g>
		<polygon fill="#7C5904" points="223.781,144.553 361.851,144.553 361.851,151.752 223.781,151.752 227.929,148.152 		"/>
	</g>
</g>
<g>
	<g>
		<polygon fill="#7C5904" points="218.39,96.097 80.32,96.097 80.32,88.897 218.39,88.897 222.539,92.497 		"/>
	</g>
	<g>
		<polygon fill="#7C5904" points="223.781,88.897 361.851,88.897 361.851,96.097 223.781,96.097 227.929,92.497 		"/>
	</g>
</g>
<g>
	<g>
		<polygon fill="#7C5904" points="218.39,110.011 80.32,110.011 80.32,102.812 218.39,102.812 222.539,106.411 		"/>
	</g>
	<g>
		<polygon fill="#7C5904" points="223.781,102.812 361.851,102.812 361.851,110.011 223.781,110.011 227.929,106.411 		"/>
	</g>
</g>
<g>
	<g>
		<polygon fill="#7C5904" points="218.39,123.924 80.32,123.924 80.32,116.724 218.39,116.724 222.539,120.324 		"/>
	</g>
	<g>
		<polygon fill="#7C5904" points="223.781,116.724 361.851,116.724 361.851,123.924 223.781,123.924 227.929,120.324 		"/>
	</g>
</g>
<g>
	<g>
		<polygon fill="#7C5904" points="218.39,137.838 80.32,137.838 80.32,130.638 218.39,130.638 222.539,134.238 		"/>
	</g>
	<g>
		<polygon fill="#7C5904" points="223.781,130.638 361.851,130.638 361.851,137.838 223.781,137.838 227.929,134.238 		"/>
	</g>
</g>
<g>
	<g>
		<polygon fill="#7C5904" points="218.39,179.58 80.32,179.58 80.32,172.38 218.39,172.38 222.539,175.98 		"/>
	</g>
	<g>
		<polygon fill="#7C5904" points="223.781,172.38 361.851,172.38 361.851,179.58 223.781,179.58 227.929,175.98 		"/>
	</g>
</g>
<g>
	<g>
		<polygon fill="#7C5904" points="218.39,193.493 80.32,193.493 80.32,186.294 218.39,186.294 222.539,189.894 		"/>
	</g>
	<g>
		<polygon fill="#7C5904" points="223.781,186.294 361.851,186.294 361.851,193.493 223.781,193.493 227.929,189.894 		"/>
	</g>
</g>
<g>
	<g>
		<polygon fill="#7C5904" points="218.39,263.062 80.32,263.062 80.32,255.863 218.39,255.863 222.539,259.462 		"/>
	</g>
	<g>
		<polygon fill="#7C5904" points="223.781,255.863 361.851,255.863 361.851,263.062 223.781,263.062 227.929,259.462 		"/>
	</g>
</g>
<g>
	<g>
		<polygon fill="#7C5904" points="218.39,207.407 80.32,207.407 80.32,200.208 218.39,200.208 222.539,203.808 		"/>
	</g>
	<g>
		<polygon fill="#7C5904" points="223.781,200.208 361.851,200.208 361.851,207.407 223.781,207.407 227.929,203.808 		"/>
	</g>
</g>
<g>
	<g>
		<polygon fill="#7C5904" points="218.39,221.321 80.32,221.321 80.32,214.122 218.39,214.122 222.539,217.721 		"/>
	</g>
	<g>
		<polygon fill="#7C5904" points="223.781,214.122 361.851,214.122 361.851,221.321 223.781,221.321 227.929,217.721 		"/>
	</g>
</g>
<g>
	<g>
		<polygon fill="#7C5904" points="218.39,235.236 80.32,235.236 80.32,228.035 218.39,228.035 222.539,231.635 		"/>
	</g>
	<g>
		<polygon fill="#7C5904" points="223.781,228.035 361.851,228.035 361.851,235.236 223.781,235.236 227.929,231.635 		"/>
	</g>
</g>
<g>
	<g>
		<polygon fill="#7C5904" points="218.39,249.15 80.32,249.15 80.32,241.95 218.39,241.95 222.539,245.549 		"/>
	</g>
	<g>
		<polygon fill="#7C5904" points="223.781,241.95 361.851,241.95 361.851,249.15 223.781,249.15 227.929,245.549 		"/>
	</g>
</g>
<g>
	<g>
		<polygon fill="#7C5904" points="218.39,291.042 80.32,291.042 80.32,283.843 218.39,283.843 222.539,287.443 		"/>
	</g>
	<g>
		<polygon fill="#7C5904" points="223.781,283.843 361.852,283.843 361.852,291.042 223.781,291.042 227.929,287.443 		"/>
	</g>
</g>
<g>
	<g>
		<polygon fill="#7C5904" points="218.39,304.977 80.32,304.977 80.32,297.778 218.39,297.778 222.539,301.377 		"/>
	</g>
	<g>
		<polygon fill="#7C5904" points="223.781,297.778 361.851,297.778 361.851,304.977 223.781,304.977 227.929,301.377 		"/>
	</g>
</g>
<g>
	<g>
		<polygon fill="#7C5904" points="218.39,374.647 80.32,374.647 80.32,367.448 218.39,367.448 222.539,371.048 		"/>
	</g>
	<g>
		<polygon fill="#7C5904" points="223.781,367.448 361.851,367.448 361.851,374.647 223.781,374.647 227.929,371.048 		"/>
	</g>
</g>
<g>
	<g>
		<polygon fill="#7C5904" points="218.39,318.911 80.32,318.911 80.32,311.712 218.39,311.712 222.539,315.312 		"/>
	</g>
	<g>
		<polygon fill="#7C5904" points="223.781,311.712 361.851,311.712 361.851,318.911 223.781,318.911 227.929,315.312 		"/>
	</g>
</g>
<g>
	<g>
		<polygon fill="#7C5904" points="218.39,332.845 80.32,332.845 80.32,325.646 218.39,325.646 222.539,329.245 		"/>
	</g>
	<g>
		<polygon fill="#7C5904" points="223.781,325.646 361.851,325.646 361.851,332.845 223.781,332.845 227.929,329.245 		"/>
	</g>
</g>
<g>
	<g>
		<polygon fill="#7C5904" points="218.39,346.78 80.32,346.78 80.32,339.58 218.39,339.58 222.539,343.179 		"/>
	</g>
	<g>
		<polygon fill="#7C5904" points="223.781,339.58 361.851,339.58 361.851,346.78 223.781,346.78 227.929,343.179 		"/>
	</g>
</g>
<g>
	<g>
		<polygon fill="#7C5904" points="218.39,360.714 80.32,360.714 80.32,353.514 218.39,353.514 222.539,357.113 		"/>
	</g>
	<g>
		<polygon fill="#7C5904" points="223.781,353.514 361.851,353.514 361.851,360.714 223.781,360.714 227.929,357.113 		"/>
	</g>
</g>
<g>
	<g>
		<polygon fill="#7C5904" points="218.39,402.042 80.32,402.042 80.32,394.843 218.39,394.843 222.539,398.443 		"/>
	</g>
	<g>
		<polygon fill="#7C5904" points="223.781,394.843 361.852,394.843 361.852,402.042 223.781,402.042 227.929,398.443 		"/>
	</g>
</g>
<g>
	<g>
		<polygon fill="#7C5904" points="218.39,415.977 80.32,415.977 80.32,408.778 218.39,408.778 222.539,412.377 		"/>
	</g>
	<g>
		<polygon fill="#7C5904" points="223.781,408.778 361.851,408.778 361.851,415.977 223.781,415.977 227.929,412.377 		"/>
	</g>
</g>
<g>
	<g>
		<polygon fill="#7C5904" points="218.39,429.911 80.32,429.911 80.32,422.712 218.39,422.712 222.539,426.312 		"/>
	</g>
	<g>
		<polygon fill="#7C5904" points="223.781,422.712 361.851,422.712 361.851,429.911 223.781,429.911 227.929,426.312 		"/>
	</g>
</g>
<g>
	<g>
		<polygon fill="#7C5904" points="218.39,443.845 80.32,443.845 80.32,436.646 218.39,436.646 222.539,440.245 		"/>
	</g>
	<g>
		<polygon fill="#7C5904" points="223.781,436.646 361.851,436.646 361.851,443.845 223.781,443.845 227.929,440.245 		"/>
	</g>
</g>
<g>
	<g>
		<polygon fill="#7C5904" points="218.39,457.78 80.32,457.78 80.32,450.58 218.39,450.58 222.539,454.179 		"/>
	</g>
	<g>
		<polygon fill="#7C5904" points="223.781,450.58 361.851,450.58 361.851,457.78 223.781,457.78 227.929,454.179 		"/>
	</g>
</g>
<g>
	<g>
		<polygon fill="#7C5904" points="218.39,471.714 80.32,471.714 80.32,464.514 218.39,464.514 222.539,468.113 		"/>
	</g>
	<g>
		<polygon fill="#7C5904" points="223.781,464.514 361.851,464.514 361.851,471.714 223.781,471.714 227.929,468.113 		"/>
	</g>
</g>
<g>
	<path fill="#C63706" d="M67.551,64.281h1.695l-0.763-2.448H63.25l-0.764,2.448h1.797v3.077h-6.458v-3.077h1.269l4.638-13.948h4.503
		l4.537,13.948h1.235v3.077h-6.458V64.281z M64.137,58.958h3.437l-1.729-5.537L64.137,58.958z"/>
</g>
<g>
	<path fill="#398EB0" d="M59.813,161.841h7.861c0.876,0,1.681,0.137,2.415,0.41s1.366,0.642,1.898,1.105
		c0.531,0.465,0.947,1,1.247,1.606s0.449,1.239,0.449,1.897c0,0.794-0.118,1.537-0.353,2.229c-0.236,0.692-0.601,1.294-1.095,1.803
		s-1.119,0.911-1.875,1.207s-1.651,0.444-2.684,0.444h-2.37v3.245h1.561v3.077h-7.053v-3.077h1.763v-10.86h-1.763V161.841z
		 M65.305,164.929v4.571h1.539c0.854,0,1.531-0.18,2.033-0.539s0.752-0.929,0.752-1.707c0-0.727-0.236-1.295-0.708-1.707
		c-0.472-0.412-1.164-0.618-2.078-0.618H65.305z"/>
</g>
<g>
	<path fill="#398EB0" d="M65.047,401.657c-0.771,0-1.509-0.104-2.212-0.314c-0.704-0.209-1.361-0.505-1.971-0.887
		c-0.61-0.382-1.165-0.841-1.662-1.376c-0.498-0.535-0.923-1.13-1.275-1.785s-0.625-1.357-0.82-2.106
		c-0.195-0.748-0.292-1.53-0.292-2.347s0.097-1.601,0.292-2.353c0.195-0.753,0.468-1.456,0.82-2.111s0.777-1.251,1.275-1.786
		c0.498-0.535,1.052-0.993,1.662-1.376c0.61-0.381,1.267-0.677,1.971-0.887c0.703-0.21,1.441-0.314,2.212-0.314
		s1.51,0.104,2.218,0.314c0.708,0.21,1.367,0.506,1.977,0.887c0.61,0.383,1.164,0.841,1.662,1.376
		c0.498,0.535,0.924,1.131,1.28,1.786s0.631,1.358,0.826,2.111c0.194,0.752,0.292,1.536,0.292,2.353
		c0,0.809-0.098,1.589-0.292,2.342c-0.195,0.752-0.47,1.456-0.826,2.111s-0.782,1.25-1.28,1.785
		c-0.498,0.535-1.052,0.994-1.662,1.376c-0.61,0.382-1.27,0.678-1.977,0.887C66.557,401.552,65.818,401.657,65.047,401.657z
		 M65.047,398.131c0.651,0,1.249-0.141,1.792-0.422c0.542-0.28,1.009-0.662,1.398-1.146c0.389-0.482,0.691-1.044,0.903-1.685
		c0.214-0.64,0.321-1.319,0.321-2.038c0-0.727-0.108-1.411-0.326-2.056c-0.217-0.644-0.522-1.207-0.916-1.689
		c-0.393-0.483-0.859-0.865-1.398-1.146c-0.539-0.281-1.13-0.421-1.774-0.421s-1.235,0.14-1.774,0.421
		c-0.539,0.28-1.004,0.662-1.393,1.146c-0.389,0.482-0.694,1.046-0.916,1.689c-0.221,0.645-0.331,1.329-0.331,2.056
		c0,0.719,0.11,1.398,0.331,2.038c0.221,0.641,0.526,1.202,0.916,1.685c0.389,0.483,0.854,0.865,1.393,1.146
		C63.812,397.991,64.403,398.131,65.047,398.131z"/>
</g>
<g>
	<path fill="#C63706" d="M66.439,274.829h7.289v3.077h-1.797v10.871h1.797v3.077h-7.289v-3.077h1.763v-10.871h-1.763V274.829z"/>
</g>
<g>
	<g>
		<polygon fill="#7C5904" points="218.287,485.685 80.216,485.685 80.216,478.486 218.287,478.486 222.435,482.085 		"/>
	</g>
	<g>
		<polygon fill="#7C5904" points="223.677,478.486 227.825,482.085 223.677,485.685 357.6,485.685 361.748,482.085 357.6,478.486 		
			"/>
	</g>
</g>
</svg>
