<?xml version="1.0" encoding="utf-8"?>
<!-- Generator: Adobe Illustrator 16.0.4, SVG Export Plug-In . SVG Version: 6.00 Build 0)  -->
<!DOCTYPE svg PUBLIC "-//W3C//DTD SVG 1.1//EN" "http://www.w3.org/Graphics/SVG/1.1/DTD/svg11.dtd">
<svg version="1.1" id="Layer_1" xmlns="http://www.w3.org/2000/svg" xmlns:xlink="http://www.w3.org/1999/xlink" x="0px" y="0px"
	 width="448.746px" height="616.435px" viewBox="0 0 448.746 616.435" enable-background="new 0 0 448.746 616.435"
	 xml:space="preserve">
<rect x="0.5" y="0.5" fill="#FFFFFF" stroke="#C68D06" stroke-miterlimit="10" width="447.746" height="615.435"/>
<g>
	<path fill="#C68D06" d="M363.774,577.964l1.785-1.436c1.576,2.275,3.641,3.921,6.721,3.921c4.445,0,6.476-3.291,6.476-6.791
		c0-4.2-2.485-6.44-5.916-6.44c-2.66,0-4.48,1.189-5.915,3.255l-1.855-0.7l1.016-13.546h13.687l-0.211,2.274h-11.411l-0.7,8.996
		c1.261-1.47,2.976-2.415,5.741-2.415c4.69,0,8.016,3.29,8.016,8.471s-3.396,9.066-8.891,9.066
		C368.57,582.62,365.524,580.729,363.774,577.964z"/>
	<path fill="#C68D06" d="M389.604,556.227h8.681c5.776,0,8.996,2.45,8.996,7c0,4.201-2.45,6.301-6.195,7.001l6.546,11.901h-2.801
		l-6.336-11.621h-6.44v11.621h-2.45V556.227z M398.109,568.303c4.271,0,6.686-1.226,6.686-4.971c0-3.57-2.38-4.831-6.721-4.831
		h-6.021v9.802H398.109z"/>
</g>
<g>
	<rect x="80.221" y="157.966" fill="#C0DDE7" width="281.738" height="7.2"/>
</g>
<g>
	<rect x="80.221" y="171.88" fill="#C0DDE7" width="281.738" height="7.199"/>
</g>
<g>
	<rect x="80.221" y="185.793" fill="#C0DDE7" width="281.738" height="7.2"/>
</g>
<g>
	<rect x="80.221" y="199.708" fill="#C0DDE7" width="281.738" height="7.199"/>
</g>
<g>
	<rect x="80.221" y="213.621" fill="#C0DDE7" width="281.738" height="7.199"/>
</g>
<g>
	<rect x="80.221" y="227.534" fill="#C0DDE7" width="281.738" height="7.2"/>
</g>
<g>
	<rect x="80.221" y="241.449" fill="#C0DDE7" width="281.738" height="7.198"/>
</g>
<g>
	<rect x="80.221" y="255.361" fill="#C0DDE7" width="281.738" height="7.2"/>
</g>
<g>
	<rect x="80.221" y="269.275" fill="#C0DDE7" width="281.738" height="7.199"/>
</g>
<g>
	<rect x="80.221" y="283.188" fill="#C0DDE7" width="281.738" height="7.2"/>
</g>
<g>
	<rect x="80.221" y="297.102" fill="#C0DDE7" width="281.738" height="7.2"/>
</g>
<g>
	<rect x="80.221" y="311.015" fill="#C0DDE7" width="281.738" height="7.2"/>
</g>
<g>
	<rect x="80.221" y="324.929" fill="#C0DDE7" width="281.738" height="7.199"/>
</g>
<g>
	<rect x="80.221" y="338.842" fill="#C0DDE7" width="281.738" height="7.2"/>
</g>
<g>
	<rect x="80.221" y="352.755" fill="#C0DDE7" width="281.738" height="7.2"/>
</g>
<g>
	<rect x="80.221" y="366.668" fill="#C0DDE7" width="281.738" height="7.201"/>
</g>
<g>
	<rect x="80.221" y="380.583" fill="#C0DDE7" width="281.738" height="7.198"/>
</g>
<g>
	<rect x="80.221" y="394.497" fill="#C0DDE7" width="281.738" height="7.199"/>
</g>
<g>
	<rect x="80.221" y="408.411" fill="#C0DDE7" width="281.738" height="7.199"/>
</g>
<g>
	<rect x="80.221" y="422.324" fill="#C0DDE7" width="281.738" height="7.2"/>
</g>
<g>
	<rect x="80.221" y="436.238" fill="#C0DDE7" width="281.738" height="7.2"/>
</g>
<g>
	<rect x="80.221" y="450.152" fill="#C0DDE7" width="281.738" height="7.199"/>
</g>
<g>
	<rect x="80.221" y="464.066" fill="#C0DDE7" width="281.738" height="7.199"/>
</g>
<g>
	<rect x="80.221" y="477.979" fill="#C0DDE7" width="281.738" height="7.2"/>
</g>
<g>
	<rect x="80.221" y="60.569" fill="#C0DDE7" width="281.738" height="7.2"/>
</g>
<g>
	<rect x="80.221" y="74.483" fill="#C0DDE7" width="281.738" height="7.2"/>
</g>
<g>
	<rect x="80.221" y="144.052" fill="#C0DDE7" width="281.738" height="7.2"/>
</g>
<g>
	<rect x="80.221" y="88.397" fill="#C0DDE7" width="281.738" height="7.199"/>
</g>
<g>
	<rect x="80.221" y="102.311" fill="#C0DDE7" width="281.738" height="7.2"/>
</g>
<g>
	<rect x="80.221" y="116.225" fill="#C0DDE7" width="281.738" height="7.199"/>
</g>
<g>
	<rect x="80.221" y="130.139" fill="#C0DDE7" width="281.738" height="7.199"/>
</g>
<g>
	<g>
		<polygon fill="#7C5904" points="223.785,60.57 361.855,60.57 361.855,67.77 223.785,67.77 227.932,64.17 		"/>
	</g>
	<g>
		<polygon fill="#7C5904" points="222.543,64.17 218.395,60.571 218.395,60.57 218.395,60.57 80.324,60.57 84.472,64.17 
			80.324,67.77 218.395,67.77 218.395,67.77 218.395,67.769 		"/>
	</g>
</g>
<g>
	<g>
		<polygon fill="#7C5904" points="218.395,81.683 80.324,81.683 80.324,74.484 218.395,74.484 222.543,78.084 		"/>
	</g>
	<g>
		<polygon fill="#7C5904" points="223.785,74.484 361.855,74.484 361.855,81.683 223.785,81.683 227.932,78.084 		"/>
	</g>
</g>
<g>
	<g>
		<polygon fill="#7C5904" points="218.395,151.252 80.324,151.252 80.324,144.052 218.395,144.052 222.543,147.652 		"/>
	</g>
	<g>
		<polygon fill="#7C5904" points="223.785,144.052 361.855,144.052 361.855,151.252 223.785,151.252 227.932,147.652 		"/>
	</g>
</g>
<g>
	<g>
		<polygon fill="#7C5904" points="218.395,165.166 80.324,165.166 80.324,157.966 218.395,157.966 222.543,161.566 		"/>
	</g>
	<g>
		<polygon fill="#7C5904" points="223.785,157.966 361.855,157.966 361.855,165.166 223.785,165.166 227.932,161.566 		"/>
	</g>
</g>
<g>
	<g>
		<polygon fill="#7C5904" points="218.395,276.474 80.324,276.474 80.324,269.275 218.395,269.275 222.543,272.875 		"/>
	</g>
	<g>
		<polygon fill="#7C5904" points="223.785,269.275 361.855,269.275 361.855,276.474 223.785,276.474 227.932,272.875 		"/>
	</g>
</g>
<g>
	<g>
		<polygon fill="#7C5904" points="218.395,95.596 80.324,95.596 80.324,88.397 218.395,88.397 222.543,91.997 		"/>
	</g>
	<g>
		<polygon fill="#7C5904" points="223.785,88.397 361.855,88.397 361.855,95.596 223.785,95.596 227.932,91.997 		"/>
	</g>
</g>
<g>
	<g>
		<polygon fill="#7C5904" points="218.395,109.511 80.324,109.511 80.324,102.312 218.395,102.312 222.543,105.91 		"/>
	</g>
	<g>
		<polygon fill="#7C5904" points="223.785,102.312 361.855,102.312 361.855,109.511 223.785,109.511 227.932,105.91 		"/>
	</g>
</g>
<g>
	<g>
		<polygon fill="#7C5904" points="218.395,123.424 80.324,123.424 80.324,116.224 218.395,116.224 222.543,119.823 		"/>
	</g>
	<g>
		<polygon fill="#7C5904" points="223.785,116.224 361.855,116.224 361.855,123.424 223.785,123.424 227.932,119.823 		"/>
	</g>
</g>
<g>
	<g>
		<polygon fill="#7C5904" points="218.395,137.338 80.324,137.338 80.324,130.138 218.395,130.138 222.543,133.737 		"/>
	</g>
	<g>
		<polygon fill="#7C5904" points="223.785,130.138 361.855,130.138 361.855,137.338 223.785,137.338 227.932,133.737 		"/>
	</g>
</g>
<g>
	<g>
		<polygon fill="#7C5904" points="218.395,179.079 80.324,179.079 80.324,171.88 218.395,171.88 222.543,175.48 		"/>
	</g>
	<g>
		<polygon fill="#7C5904" points="223.785,171.88 361.855,171.88 361.855,179.079 223.785,179.079 227.932,175.48 		"/>
	</g>
</g>
<g>
	<g>
		<polygon fill="#7C5904" points="218.395,192.993 80.324,192.993 80.324,185.793 218.395,185.793 222.543,189.393 		"/>
	</g>
	<g>
		<polygon fill="#7C5904" points="223.785,185.793 361.855,185.793 361.855,192.993 223.785,192.993 227.932,189.393 		"/>
	</g>
</g>
<g>
	<g>
		<polygon fill="#7C5904" points="218.395,262.56 80.324,262.56 80.324,255.361 218.395,255.361 222.543,258.96 		"/>
	</g>
	<g>
		<polygon fill="#7C5904" points="223.785,255.361 361.855,255.361 361.855,262.56 223.785,262.56 227.932,258.96 		"/>
	</g>
</g>
<g>
	<g>
		<polygon fill="#7C5904" points="218.395,206.907 80.324,206.907 80.324,199.708 218.395,199.708 222.543,203.307 		"/>
	</g>
	<g>
		<polygon fill="#7C5904" points="223.785,199.708 361.855,199.708 361.855,206.907 223.785,206.907 227.932,203.307 		"/>
	</g>
</g>
<g>
	<g>
		<polygon fill="#7C5904" points="218.395,220.82 80.324,220.82 80.324,213.621 218.395,213.621 222.543,217.22 		"/>
	</g>
	<g>
		<polygon fill="#7C5904" points="223.785,213.621 361.855,213.621 361.855,220.82 223.785,220.82 227.932,217.22 		"/>
	</g>
</g>
<g>
	<g>
		<polygon fill="#7C5904" points="218.395,234.734 80.324,234.734 80.324,227.534 218.395,227.534 222.543,231.133 		"/>
	</g>
	<g>
		<polygon fill="#7C5904" points="223.785,227.534 361.855,227.534 361.855,234.734 223.785,234.734 227.932,231.133 		"/>
	</g>
</g>
<g>
	<g>
		<polygon fill="#7C5904" points="218.395,248.648 80.324,248.648 80.324,241.449 218.395,241.449 222.543,245.047 		"/>
	</g>
	<g>
		<polygon fill="#7C5904" points="223.785,241.449 361.855,241.449 361.855,248.648 223.785,248.648 227.932,245.047 		"/>
	</g>
</g>
<g>
	<g>
		<polygon fill="#7C5904" points="218.395,290.54 80.324,290.54 80.324,283.341 218.395,283.341 222.543,286.94 		"/>
	</g>
	<g>
		<polygon fill="#7C5904" points="223.785,283.341 361.855,283.341 361.855,290.54 223.785,290.54 227.933,286.94 		"/>
	</g>
</g>
<g>
	<g>
		<polygon fill="#7C5904" points="218.395,304.474 80.324,304.474 80.324,297.275 218.395,297.275 222.543,300.875 		"/>
	</g>
	<g>
		<polygon fill="#7C5904" points="223.785,297.275 361.855,297.275 361.855,304.474 223.785,304.474 227.932,300.875 		"/>
	</g>
</g>
<g>
	<g>
		<polygon fill="#7C5904" points="218.395,374.143 80.324,374.143 80.324,366.944 218.395,366.944 222.543,370.543 		"/>
	</g>
	<g>
		<polygon fill="#7C5904" points="223.785,366.944 361.855,366.944 361.855,374.143 223.785,374.143 227.932,370.543 		"/>
	</g>
</g>
<g>
	<g>
		<polygon fill="#7C5904" points="218.395,318.408 80.324,318.408 80.324,311.208 218.395,311.208 222.543,314.808 		"/>
	</g>
	<g>
		<polygon fill="#7C5904" points="223.785,311.208 361.855,311.208 361.855,318.408 223.785,318.408 227.932,314.808 		"/>
	</g>
</g>
<g>
	<g>
		<polygon fill="#7C5904" points="218.395,332.341 80.324,332.341 80.324,325.142 218.395,325.142 222.543,328.741 		"/>
	</g>
	<g>
		<polygon fill="#7C5904" points="223.785,325.142 361.855,325.142 361.855,332.341 223.785,332.341 227.932,328.741 		"/>
	</g>
</g>
<g>
	<g>
		<polygon fill="#7C5904" points="218.395,346.276 80.324,346.276 80.324,339.076 218.395,339.076 222.543,342.675 		"/>
	</g>
	<g>
		<polygon fill="#7C5904" points="223.785,339.076 361.855,339.076 361.855,346.276 223.785,346.276 227.932,342.675 		"/>
	</g>
</g>
<g>
	<g>
		<polygon fill="#7C5904" points="218.395,360.209 80.324,360.209 80.324,353.009 218.395,353.009 222.543,356.609 		"/>
	</g>
	<g>
		<polygon fill="#7C5904" points="223.785,353.009 361.855,353.009 361.855,360.209 223.785,360.209 227.932,356.609 		"/>
	</g>
</g>
<g>
	<g>
		<polygon fill="#7C5904" points="218.395,401.538 80.324,401.538 80.324,394.338 218.395,394.338 222.543,397.938 		"/>
	</g>
	<g>
		<polygon fill="#7C5904" points="223.785,394.338 361.855,394.338 361.855,401.538 223.785,401.538 227.933,397.938 		"/>
	</g>
</g>
<g>
	<g>
		<polygon fill="#7C5904" points="218.395,415.472 80.324,415.472 80.324,408.273 218.395,408.273 222.543,411.873 		"/>
	</g>
	<g>
		<polygon fill="#7C5904" points="223.785,408.273 361.855,408.273 361.855,415.472 223.785,415.472 227.932,411.873 		"/>
	</g>
</g>
<g>
	<g>
		<polygon fill="#7C5904" points="218.395,429.406 80.324,429.406 80.324,422.207 218.395,422.207 222.543,425.806 		"/>
	</g>
	<g>
		<polygon fill="#7C5904" points="223.785,422.207 361.855,422.207 361.855,429.406 223.785,429.406 227.932,425.806 		"/>
	</g>
</g>
<g>
	<g>
		<polygon fill="#7C5904" points="218.395,443.34 80.324,443.34 80.324,436.141 218.395,436.141 222.543,439.74 		"/>
	</g>
	<g>
		<polygon fill="#7C5904" points="223.785,436.141 361.855,436.141 361.855,443.34 223.785,443.34 227.932,439.74 		"/>
	</g>
</g>
<g>
	<g>
		<polygon fill="#7C5904" points="218.395,457.275 80.324,457.275 80.324,450.075 218.395,450.075 222.543,453.674 		"/>
	</g>
	<g>
		<polygon fill="#7C5904" points="223.785,450.075 361.855,450.075 361.855,457.275 223.785,457.275 227.932,453.674 		"/>
	</g>
</g>
<g>
	<g>
		<polygon fill="#7C5904" points="218.395,471.208 80.324,471.208 80.324,464.008 218.395,464.008 222.543,467.608 		"/>
	</g>
	<g>
		<polygon fill="#7C5904" points="223.785,464.008 361.855,464.008 361.855,471.208 223.785,471.208 227.932,467.608 		"/>
	</g>
</g>
<g>
	<g>
		<polygon fill="#7C5904" points="218.394,485.179 80.323,485.179 80.323,477.979 218.394,477.979 222.542,481.579 		"/>
	</g>
	<g>
		<polygon fill="#7C5904" points="223.784,477.979 361.855,477.979 361.855,485.179 223.784,485.179 227.932,481.579 		"/>
	</g>
</g>
<g>
	<path fill="#398EB0" d="M70.649,314.855c-0.451-0.123-0.876-0.305-1.274-0.545s-0.747-0.537-1.046-0.893
		c-0.299-0.354-0.536-0.764-0.712-1.23c-0.176-0.465-0.264-0.988-0.264-1.568c0-0.615,0.123-1.191,0.369-1.727
		c0.247-0.537,0.595-1.004,1.046-1.402s0.996-0.712,1.635-0.94c0.639-0.229,1.351-0.343,2.136-0.343h6.012v2.417h-1.239v14.089
		h-2.575v-14.089h-1.512v14.089h-2.575V314.855z"/>
</g>
<g>
	<path fill="#C63706" d="M70.649,177.273c-0.451-0.123-0.876-0.304-1.274-0.545c-0.398-0.24-0.747-0.537-1.046-0.892
		c-0.299-0.354-0.536-0.764-0.712-1.23c-0.176-0.465-0.264-0.989-0.264-1.568c0-0.615,0.123-1.192,0.369-1.727
		c0.247-0.538,0.595-1.004,1.046-1.402s0.996-0.712,1.635-0.941c0.639-0.229,1.351-0.343,2.136-0.343h6.012v2.417h-1.239v14.089
		h-2.575v-14.089h-1.512v14.089h-2.575V177.273z"/>
</g>
<g>
	<path fill="#C63706" d="M67.225,384.918h6.469v3.088h-1.381v13.938h-3.729l-7.086-11.006v7.929h1.426v3.077h-6.458v-3.077h1.404
		v-10.86h-1.381v-3.088h5.144l7.042,11.152v-8.064h-1.449V384.918z"/>
</g>
</svg>
