<?xml version="1.0" encoding="utf-8"?>
<!-- Generator: Adobe Illustrator 16.0.4, SVG Export Plug-In . SVG Version: 6.00 Build 0)  -->
<!DOCTYPE svg PUBLIC "-//W3C//DTD SVG 1.1//EN" "http://www.w3.org/Graphics/SVG/1.1/DTD/svg11.dtd">
<svg version="1.1" id="Layer_1" xmlns="http://www.w3.org/2000/svg" xmlns:xlink="http://www.w3.org/1999/xlink" x="0px" y="0px"
	 width="448.746px" height="616.44px" viewBox="0 0 448.746 616.44" enable-background="new 0 0 448.746 616.44"
	 xml:space="preserve">
<rect x="0.5" y="0.5" fill="#FFFFFF" stroke="#C68D06" stroke-miterlimit="10" width="447.746" height="615.44"/>
<g>
	<path fill="#C68D06" d="M362.919,569.638c0-7.981,4.202-13.896,10.152-13.896c2.87,0,4.796,0.875,6.195,1.96l-1.295,1.891
		c-1.33-1.051-2.625-1.681-4.971-1.681c-4.725,0-7.631,5.041-7.666,11.481c1.645-1.785,4.095-3.466,7.386-3.466
		c5.46,0,8.086,3.396,8.086,8.086c0,4.9-3.466,8.611-8.682,8.611C367.016,582.625,362.919,578.529,362.919,569.638z
		 M378.392,574.048c0-3.465-1.75-5.985-5.95-5.985c-2.87,0-5.426,1.61-7.001,3.815c0.525,6.021,3.36,8.61,6.791,8.61
		C375.941,580.489,378.392,578.144,378.392,574.048z"/>
	<path fill="#C68D06" d="M389.205,556.232h8.681c5.776,0,8.996,2.45,8.996,7c0,4.201-2.45,6.301-6.195,7.001l6.546,11.901h-2.801
		l-6.336-11.621h-6.44v11.621h-2.45V556.232z M397.71,568.308c4.271,0,6.686-1.226,6.686-4.971c0-3.57-2.38-4.831-6.721-4.831
		h-6.021v9.802H397.71z"/>
</g>
<g>
	<rect x="80.213" y="158.3" fill="#C0DDE7" width="281.739" height="7.199"/>
</g>
<g>
	<rect x="80.213" y="172.214" fill="#C0DDE7" width="281.739" height="7.199"/>
</g>
<g>
	<rect x="80.213" y="172.214" fill="#7C5904" width="142.489" height="7.199"/>
</g>
<g>
	<rect x="80.213" y="186.127" fill="#C0DDE7" width="281.739" height="7.201"/>
</g>
<g>
	<rect x="80.213" y="200.042" fill="#C0DDE7" width="281.739" height="7.199"/>
</g>
<g>
	<rect x="80.213" y="213.955" fill="#C0DDE7" width="281.739" height="7.2"/>
</g>
<g>
	<rect x="80.213" y="227.869" fill="#C0DDE7" width="281.739" height="7.201"/>
</g>
<g>
	<rect x="80.213" y="241.783" fill="#C0DDE7" width="281.739" height="7.199"/>
</g>
<g>
	<rect x="80.213" y="255.696" fill="#C0DDE7" width="281.739" height="7.2"/>
</g>
<g>
	<rect x="80.213" y="269.612" fill="#C0DDE7" width="281.739" height="7.199"/>
</g>
<g>
	<rect x="80.213" y="283.524" fill="#C0DDE7" width="281.739" height="7.2"/>
</g>
<g>
	<rect x="80.213" y="297.438" fill="#C0DDE7" width="281.739" height="7.2"/>
</g>
<g>
	<rect x="80.213" y="311.353" fill="#C0DDE7" width="281.739" height="7.199"/>
</g>
<g>
	<rect x="80.213" y="325.266" fill="#C0DDE7" width="281.739" height="7.199"/>
</g>
<g>
	<rect x="80.213" y="339.18" fill="#C0DDE7" width="281.739" height="7.2"/>
</g>
<g>
	<rect x="80.213" y="353.094" fill="#C0DDE7" width="281.739" height="7.199"/>
</g>
<g>
	<rect x="80.213" y="367.007" fill="#C0DDE7" width="281.739" height="7.2"/>
</g>
<g>
	<rect x="80.213" y="380.921" fill="#C0DDE7" width="281.739" height="7.199"/>
</g>
<g>
	<rect x="80.213" y="394.835" fill="#C0DDE7" width="281.739" height="7.199"/>
</g>
<g>
	<rect x="80.213" y="408.749" fill="#C0DDE7" width="281.739" height="7.199"/>
</g>
<g>
	<rect x="80.213" y="422.663" fill="#C0DDE7" width="281.739" height="7.2"/>
</g>
<g>
	<rect x="80.213" y="436.577" fill="#C0DDE7" width="281.739" height="7.2"/>
</g>
<g>
	<rect x="80.213" y="450.491" fill="#C0DDE7" width="281.739" height="7.199"/>
</g>
<g>
	<rect x="80.213" y="464.404" fill="#C0DDE7" width="281.739" height="7.199"/>
</g>
<g>
	<rect x="80.213" y="478.318" fill="#C0DDE7" width="281.739" height="7.201"/>
</g>
<g>
	<rect x="80.213" y="60.904" fill="#C0DDE7" width="281.739" height="7.199"/>
</g>
<g>
	<rect x="80.213" y="74.818" fill="#C0DDE7" width="281.739" height="7.199"/>
</g>
<g>
	<rect x="80.213" y="144.386" fill="#C0DDE7" width="281.739" height="7.199"/>
</g>
<g>
	<rect x="80.213" y="88.731" fill="#C0DDE7" width="281.739" height="7.199"/>
</g>
<g>
	<rect x="80.213" y="102.645" fill="#C0DDE7" width="281.739" height="7.2"/>
</g>
<g>
	<rect x="80.213" y="116.559" fill="#C0DDE7" width="281.739" height="7.199"/>
</g>
<g>
	<rect x="80.213" y="130.473" fill="#C0DDE7" width="281.739" height="7.199"/>
</g>
<g>
	<polygon fill="#7C5904" points="218.486,82.017 80.416,82.017 80.416,74.818 218.486,74.818 222.635,78.417 	"/>
</g>
<g>
	<polygon fill="#7C5904" points="223.877,74.818 361.947,74.818 361.947,82.017 223.877,82.017 228.025,78.417 	"/>
</g>
<g>
	<polygon fill="#7C5904" points="80.212,60.904 218.283,60.904 218.283,68.103 80.212,68.103 84.361,64.503 	"/>
</g>
<g>
	<g>
		<polygon fill="#7C5904" points="218.387,151.585 80.316,151.585 80.316,144.386 218.387,144.386 222.535,147.986 		"/>
	</g>
	<g>
		<polygon fill="#7C5904" points="223.777,144.386 361.848,144.386 361.848,151.585 223.777,151.585 227.926,147.986 		"/>
	</g>
</g>
<g>
	<g>
		<polygon fill="#7C5904" points="218.387,95.93 80.316,95.93 80.316,88.731 218.387,88.731 222.535,92.33 		"/>
	</g>
	<g>
		<polygon fill="#7C5904" points="223.777,88.731 361.848,88.731 361.848,95.93 223.777,95.93 227.926,92.33 		"/>
	</g>
</g>
<g>
	<g>
		<polygon fill="#7C5904" points="218.387,109.845 80.316,109.845 80.316,102.646 218.387,102.646 222.535,106.245 		"/>
	</g>
	<g>
		<polygon fill="#7C5904" points="223.777,102.646 361.848,102.646 361.848,109.845 223.777,109.845 227.926,106.245 		"/>
	</g>
</g>
<g>
	<g>
		<polygon fill="#7C5904" points="218.387,123.758 80.316,123.758 80.316,116.558 218.387,116.558 222.535,120.157 		"/>
	</g>
	<g>
		<polygon fill="#7C5904" points="223.777,116.558 361.848,116.558 361.848,123.758 223.777,123.758 227.926,120.157 		"/>
	</g>
</g>
<g>
	<g>
		<polygon fill="#7C5904" points="218.387,137.672 80.316,137.672 80.316,130.472 218.387,130.472 222.535,134.071 		"/>
	</g>
	<g>
		<polygon fill="#7C5904" points="223.777,130.472 361.848,130.472 361.848,137.672 223.777,137.672 227.926,134.071 		"/>
	</g>
</g>
<g>
	<g>
		<polygon fill="#7C5904" points="218.387,165.5 80.316,165.5 80.316,158.3 218.387,158.3 222.535,161.9 		"/>
	</g>
	<g>
		<polygon fill="#7C5904" points="223.777,158.3 361.848,158.3 361.848,165.5 223.777,165.5 227.926,161.9 		"/>
	</g>
</g>
<g>
	<g>
		<polygon fill="#7C5904" points="218.387,193.327 80.316,193.327 80.316,186.127 218.387,186.127 222.535,189.727 		"/>
	</g>
	<g>
		<polygon fill="#7C5904" points="223.777,186.127 361.848,186.127 361.848,193.327 223.777,193.327 227.926,189.727 		"/>
	</g>
</g>
<g>
	<g>
		<polygon fill="#7C5904" points="218.387,262.896 80.316,262.896 80.316,255.696 218.387,255.696 222.535,259.296 		"/>
	</g>
	<g>
		<polygon fill="#7C5904" points="223.777,255.696 361.848,255.696 361.848,262.896 223.777,262.896 227.926,259.296 		"/>
	</g>
</g>
<g>
	<g>
		<polygon fill="#7C5904" points="218.387,207.241 80.316,207.241 80.316,200.042 218.387,200.042 222.535,203.641 		"/>
	</g>
	<g>
		<polygon fill="#7C5904" points="223.777,200.042 361.848,200.042 361.848,207.241 223.777,207.241 227.926,203.641 		"/>
	</g>
</g>
<g>
	<g>
		<polygon fill="#7C5904" points="218.387,221.155 80.316,221.155 80.316,213.955 218.387,213.955 222.535,217.554 		"/>
	</g>
	<g>
		<polygon fill="#7C5904" points="223.777,213.955 361.848,213.955 361.848,221.155 223.777,221.155 227.926,217.554 		"/>
	</g>
</g>
<g>
	<g>
		<polygon fill="#7C5904" points="218.387,235.07 80.316,235.07 80.316,227.869 218.387,227.869 222.535,231.468 		"/>
	</g>
	<g>
		<polygon fill="#7C5904" points="223.777,227.869 361.848,227.869 361.848,235.07 223.777,235.07 227.926,231.468 		"/>
	</g>
</g>
<g>
	<g>
		<polygon fill="#7C5904" points="218.387,248.984 80.316,248.984 80.316,241.783 218.387,241.783 222.535,245.383 		"/>
	</g>
	<g>
		<polygon fill="#7C5904" points="223.777,241.783 361.848,241.783 361.848,248.984 223.777,248.984 227.926,245.383 		"/>
	</g>
</g>
<g>
	<g>
		<polygon fill="#7C5904" points="218.387,290.876 80.316,290.876 80.316,283.677 218.387,283.677 222.535,287.276 		"/>
	</g>
	<g>
		<polygon fill="#7C5904" points="223.777,283.677 361.848,283.677 361.848,290.876 223.777,290.876 227.926,287.276 		"/>
	</g>
</g>
<g>
	<g>
		<polygon fill="#7C5904" points="218.387,304.811 80.316,304.811 80.316,297.612 218.387,297.612 222.535,301.211 		"/>
	</g>
	<g>
		<polygon fill="#7C5904" points="223.777,297.612 361.848,297.612 361.848,304.811 223.777,304.811 227.926,301.211 		"/>
	</g>
</g>
<g>
	<g>
		<polygon fill="#7C5904" points="218.387,374.481 80.316,374.481 80.316,367.282 218.387,367.282 222.535,370.881 		"/>
	</g>
	<g>
		<polygon fill="#7C5904" points="223.777,367.282 361.848,367.282 361.848,374.481 223.777,374.481 227.926,370.881 		"/>
	</g>
</g>
<g>
	<g>
		<polygon fill="#7C5904" points="218.387,318.745 80.316,318.745 80.316,311.545 218.387,311.545 222.535,315.145 		"/>
	</g>
	<g>
		<polygon fill="#7C5904" points="223.777,311.545 361.848,311.545 361.848,318.745 223.777,318.745 227.926,315.145 		"/>
	</g>
</g>
<g>
	<g>
		<polygon fill="#7C5904" points="218.387,332.679 80.316,332.679 80.316,325.479 218.387,325.479 222.535,329.079 		"/>
	</g>
	<g>
		<polygon fill="#7C5904" points="223.777,325.479 361.848,325.479 361.848,332.679 223.777,332.679 227.926,329.079 		"/>
	</g>
</g>
<g>
	<g>
		<polygon fill="#7C5904" points="218.387,346.613 80.316,346.613 80.316,339.413 218.387,339.413 222.535,343.013 		"/>
	</g>
	<g>
		<polygon fill="#7C5904" points="223.777,339.413 361.848,339.413 361.848,346.613 223.777,346.613 227.926,343.013 		"/>
	</g>
</g>
<g>
	<g>
		<polygon fill="#7C5904" points="218.387,360.547 80.316,360.547 80.316,353.347 218.387,353.347 222.535,356.947 		"/>
	</g>
	<g>
		<polygon fill="#7C5904" points="223.777,353.347 361.848,353.347 361.848,360.547 223.777,360.547 227.926,356.947 		"/>
	</g>
</g>
<g>
	<g>
		<polygon fill="#7C5904" points="218.387,401.876 80.316,401.876 80.316,394.677 218.387,394.677 222.535,398.276 		"/>
	</g>
	<g>
		<polygon fill="#7C5904" points="223.777,394.677 361.848,394.677 361.848,401.876 223.777,401.876 227.926,398.276 		"/>
	</g>
</g>
<g>
	<g>
		<polygon fill="#7C5904" points="218.387,415.811 80.316,415.811 80.316,408.612 218.387,408.612 222.535,412.211 		"/>
	</g>
	<g>
		<polygon fill="#7C5904" points="223.777,408.612 361.848,408.612 361.848,415.811 223.777,415.811 227.926,412.211 		"/>
	</g>
</g>
<g>
	<g>
		<polygon fill="#7C5904" points="218.387,429.745 80.316,429.745 80.316,422.545 218.387,422.545 222.535,426.145 		"/>
	</g>
	<g>
		<polygon fill="#7C5904" points="223.777,422.545 361.848,422.545 361.848,429.745 223.777,429.745 227.926,426.145 		"/>
	</g>
</g>
<g>
	<g>
		<polygon fill="#7C5904" points="218.387,443.679 80.316,443.679 80.316,436.479 218.387,436.479 222.535,440.079 		"/>
	</g>
	<g>
		<polygon fill="#7C5904" points="223.777,436.479 361.848,436.479 361.848,443.679 223.777,443.679 227.926,440.079 		"/>
	</g>
</g>
<g>
	<g>
		<polygon fill="#7C5904" points="218.387,457.613 80.316,457.613 80.316,450.413 218.387,450.413 222.535,454.013 		"/>
	</g>
	<g>
		<polygon fill="#7C5904" points="223.777,450.413 361.848,450.413 361.848,457.613 223.777,457.613 227.926,454.013 		"/>
	</g>
</g>
<g>
	<g>
		<polygon fill="#7C5904" points="218.387,471.547 80.316,471.547 80.316,464.347 218.387,464.347 222.535,467.947 		"/>
	</g>
	<g>
		<polygon fill="#7C5904" points="223.777,464.347 361.848,464.347 361.848,471.547 223.777,471.547 227.926,467.947 		"/>
	</g>
</g>
<g>
	<path fill="#C63706" d="M70.679,80.25c-0.451-0.123-0.876-0.305-1.274-0.545s-0.747-0.537-1.046-0.893
		c-0.299-0.354-0.536-0.764-0.712-1.23c-0.176-0.465-0.264-0.988-0.264-1.568c0-0.615,0.123-1.191,0.369-1.727
		c0.247-0.537,0.595-1.004,1.046-1.402s0.996-0.712,1.635-0.94c0.639-0.229,1.351-0.343,2.136-0.343h6.012v2.417h-1.239v14.089
		h-2.575V74.019h-1.512v14.089h-2.575V80.25z"/>
</g>
<g>
	<path fill="#398EB0" d="M70.679,191.25c-0.451-0.123-0.876-0.305-1.274-0.545s-0.747-0.537-1.046-0.893
		c-0.299-0.354-0.536-0.764-0.712-1.23c-0.176-0.465-0.264-0.988-0.264-1.568c0-0.615,0.123-1.191,0.369-1.727
		c0.247-0.537,0.595-1.004,1.046-1.402s0.996-0.712,1.635-0.94c0.639-0.229,1.351-0.343,2.136-0.343h6.012v2.417h-1.239v14.089
		h-2.575v-14.089h-1.512v14.089h-2.575V191.25z"/>
</g>
<g>
	<path fill="#C63706" d="M70.679,287.75c-0.451-0.123-0.876-0.305-1.274-0.545s-0.747-0.537-1.046-0.893
		c-0.299-0.354-0.536-0.764-0.712-1.23c-0.176-0.465-0.264-0.988-0.264-1.568c0-0.615,0.123-1.191,0.369-1.727
		c0.247-0.537,0.595-1.004,1.046-1.402s0.996-0.712,1.635-0.94c0.639-0.229,1.351-0.343,2.136-0.343h6.012v2.417h-1.239v14.089
		h-2.575v-14.089h-1.512v14.089h-2.575V287.75z"/>
</g>
<g>
	<path fill="#398EB0" d="M70.679,398.75c-0.451-0.123-0.876-0.305-1.274-0.545s-0.747-0.537-1.046-0.893
		c-0.299-0.354-0.536-0.764-0.712-1.23c-0.176-0.465-0.264-0.988-0.264-1.568c0-0.615,0.123-1.191,0.369-1.727
		c0.247-0.537,0.595-1.004,1.046-1.402s0.996-0.712,1.635-0.94c0.639-0.229,1.351-0.343,2.136-0.343h6.012v2.417h-1.239v14.089
		h-2.575v-14.089h-1.512v14.089h-2.575V398.75z"/>
</g>
<g>
	<rect x="80.213" y="269.612" fill="#7C5904" width="142.489" height="7.199"/>
</g>
<g>
	<rect x="80.213" y="380.921" fill="#7C5904" width="142.489" height="7.199"/>
</g>
<g>
	<g>
		<polygon fill="#7C5904" points="218.49,485.517 80.419,485.517 80.419,478.318 218.49,478.318 222.638,481.917 		"/>
	</g>
	<g>
		<polygon fill="#7C5904" points="223.88,478.318 228.028,481.917 223.88,485.517 357.803,485.517 361.951,481.917 357.803,478.318 
					"/>
	</g>
</g>
</svg>
