<?xml version="1.0" encoding="utf-8"?>
<!-- Generator: Adobe Illustrator 16.0.4, SVG Export Plug-In . SVG Version: 6.00 Build 0)  -->
<!DOCTYPE svg PUBLIC "-//W3C//DTD SVG 1.1//EN" "http://www.w3.org/Graphics/SVG/1.1/DTD/svg11.dtd">
<svg version="1.1" id="Layer_1" xmlns="http://www.w3.org/2000/svg" xmlns:xlink="http://www.w3.org/1999/xlink" x="0px" y="0px"
	 width="448.746px" height="616.44px" viewBox="0 0 448.746 616.44" enable-background="new 0 0 448.746 616.44"
	 xml:space="preserve">
<rect x="1" y="1" fill="#FFFFFF" stroke="#C68D06" stroke-miterlimit="10" width="447.746" height="615.44"/>
<g>
	<path fill="#C68D06" d="M364.388,567.638c0-7.981,4.201-13.896,10.151-13.896c2.87,0,4.796,0.875,6.195,1.96l-1.295,1.891
		c-1.33-1.051-2.625-1.681-4.971-1.681c-4.726,0-7.631,5.041-7.665,11.481c1.645-1.785,4.095-3.466,7.386-3.466
		c5.46,0,8.086,3.396,8.086,8.086c0,4.9-3.466,8.611-8.682,8.611C368.484,580.625,364.388,576.529,364.388,567.638z M379.86,572.048
		c0-3.465-1.75-5.985-5.95-5.985c-2.87,0-5.426,1.61-7.001,3.815c0.525,6.021,3.36,8.61,6.791,8.61
		C377.41,578.489,379.86,576.144,379.86,572.048z"/>
	<path fill="#C68D06" d="M388.608,554.232h2.556l7.735,22.612h0.07l7.771-22.612h2.416l-9.102,26.008h-2.345L388.608,554.232z"/>
</g>
<g>
	<rect x="79.125" y="158.217" fill="#C0DDE7" width="281.739" height="7.199"/>
</g>
<g>
	<rect x="79.125" y="172.13" fill="#C0DDE7" width="281.738" height="7.199"/>
</g>
<g>
	<rect x="79.125" y="186.044" fill="#C0DDE7" width="281.739" height="7.201"/>
</g>
<g>
	<rect x="79.125" y="199.958" fill="#C0DDE7" width="281.739" height="7.199"/>
</g>
<g>
	<rect x="79.125" y="213.872" fill="#C0DDE7" width="281.739" height="7.199"/>
</g>
<g>
	<rect x="79.125" y="227.785" fill="#C0DDE7" width="281.739" height="7.201"/>
</g>
<g>
	<rect x="79.125" y="241.7" fill="#C0DDE7" width="281.738" height="7.199"/>
</g>
<g>
	<rect x="79.125" y="255.613" fill="#C0DDE7" width="281.738" height="7.2"/>
</g>
<g>
	<rect x="79.125" y="269.528" fill="#C0DDE7" width="281.739" height="7.199"/>
</g>
<g>
	<rect x="79.125" y="283.441" fill="#C0DDE7" width="281.738" height="7.2"/>
</g>
<g>
	<rect x="79.125" y="297.354" fill="#C0DDE7" width="281.739" height="7.2"/>
</g>
<g>
	<rect x="79.125" y="311.269" fill="#C0DDE7" width="281.739" height="7.2"/>
</g>
<g>
	<rect x="79.125" y="325.183" fill="#C0DDE7" width="281.739" height="7.199"/>
</g>
<g>
	<rect x="79.125" y="339.096" fill="#C0DDE7" width="281.738" height="7.2"/>
</g>
<g>
	<rect x="79.125" y="353.01" fill="#C0DDE7" width="281.739" height="7.2"/>
</g>
<g>
	<rect x="79.125" y="366.924" fill="#C0DDE7" width="281.739" height="7.2"/>
</g>
<g>
	<rect x="79.125" y="380.838" fill="#C0DDE7" width="281.739" height="7.199"/>
</g>
<g>
	<rect x="79.125" y="394.752" fill="#C0DDE7" width="281.739" height="7.199"/>
</g>
<g>
	<rect x="79.125" y="408.666" fill="#C0DDE7" width="281.738" height="7.199"/>
</g>
<g>
	<rect x="79.125" y="422.579" fill="#C0DDE7" width="281.739" height="7.2"/>
</g>
<g>
	<rect x="79.125" y="436.493" fill="#C0DDE7" width="281.738" height="7.2"/>
</g>
<g>
	<rect x="79.125" y="450.407" fill="#C0DDE7" width="281.739" height="7.199"/>
</g>
<g>
	<rect x="79.125" y="464.321" fill="#C0DDE7" width="281.738" height="7.199"/>
</g>
<g>
	<rect x="79.125" y="478.234" fill="#C0DDE7" width="281.739" height="7.2"/>
</g>
<g>
	<rect x="79.125" y="60.82" fill="#C0DDE7" width="281.739" height="7.2"/>
</g>
<g>
	<rect x="79.125" y="74.733" fill="#C0DDE7" width="281.738" height="7.2"/>
</g>
<g>
	<rect x="79.125" y="144.303" fill="#C0DDE7" width="281.738" height="7.199"/>
</g>
<g>
	<rect x="79.125" y="88.647" fill="#C0DDE7" width="281.739" height="7.199"/>
</g>
<g>
	<rect x="79.125" y="102.561" fill="#C0DDE7" width="281.738" height="7.2"/>
</g>
<g>
	<rect x="79.125" y="116.475" fill="#C0DDE7" width="281.738" height="7.199"/>
</g>
<g>
	<rect x="79.125" y="130.389" fill="#C0DDE7" width="281.738" height="7.199"/>
</g>
<g>
	<g>
		<polygon fill="#7C5904" points="217.486,151.502 79.416,151.502 79.416,144.303 217.486,144.303 221.635,147.902 		"/>
	</g>
	<g>
		<polygon fill="#7C5904" points="222.877,144.303 360.947,144.303 360.947,151.502 222.877,151.502 227.025,147.902 		"/>
	</g>
</g>
<g>
	<g>
		<polygon fill="#7C5904" points="217.486,165.416 79.416,165.416 79.416,158.217 217.486,158.217 221.635,161.816 		"/>
	</g>
	<g>
		<polygon fill="#7C5904" points="222.877,158.217 360.947,158.217 360.947,165.416 222.877,165.416 227.025,161.816 		"/>
	</g>
</g>
<g>
	<g>
		<polygon fill="#7C5904" points="217.486,95.847 79.416,95.847 79.416,88.647 217.486,88.647 221.635,92.247 		"/>
	</g>
	<g>
		<polygon fill="#7C5904" points="222.877,88.647 360.947,88.647 360.947,95.847 222.877,95.847 227.025,92.247 		"/>
	</g>
</g>
<g>
	<g>
		<polygon fill="#7C5904" points="217.486,109.761 79.416,109.761 79.416,102.562 217.486,102.562 221.635,106.161 		"/>
	</g>
	<g>
		<polygon fill="#7C5904" points="222.877,102.562 360.947,102.562 360.947,109.761 222.877,109.761 227.025,106.161 		"/>
	</g>
</g>
<g>
	<g>
		<polygon fill="#7C5904" points="217.486,123.674 79.416,123.674 79.416,116.474 217.486,116.474 221.635,120.074 		"/>
	</g>
	<g>
		<polygon fill="#7C5904" points="222.877,116.474 360.947,116.474 360.947,123.674 222.877,123.674 227.025,120.074 		"/>
	</g>
</g>
<g>
	<g>
		<polygon fill="#7C5904" points="217.486,137.588 79.416,137.588 79.416,130.388 217.486,130.388 221.635,133.988 		"/>
	</g>
	<g>
		<polygon fill="#7C5904" points="222.877,130.388 360.947,130.388 360.947,137.588 222.877,137.588 227.025,133.988 		"/>
	</g>
</g>
<g>
	<g>
		<polygon fill="#7C5904" points="217.653,179.33 79.583,179.33 79.583,172.13 217.653,172.13 221.801,175.73 		"/>
	</g>
	<g>
		<polygon fill="#7C5904" points="223.043,172.13 361.114,172.13 361.114,179.33 223.043,179.33 227.192,175.73 		"/>
	</g>
</g>
<g>
	<g>
		<polygon fill="#7C5904" points="217.486,262.812 79.416,262.812 79.416,255.613 217.486,255.613 221.635,259.212 		"/>
	</g>
	<g>
		<polygon fill="#7C5904" points="222.877,255.613 360.947,255.613 360.947,262.812 222.877,262.812 227.025,259.212 		"/>
	</g>
</g>
<g>
	<g>
		<polygon fill="#7C5904" points="217.486,276.727 79.416,276.727 79.416,269.528 217.486,269.528 221.635,273.127 		"/>
	</g>
	<g>
		<polygon fill="#7C5904" points="222.877,269.528 360.947,269.528 360.947,276.727 222.877,276.727 227.025,273.127 		"/>
	</g>
</g>
<g>
	<g>
		<polygon fill="#7C5904" points="217.486,207.157 79.416,207.157 79.416,199.958 217.486,199.958 221.635,203.558 		"/>
	</g>
	<g>
		<polygon fill="#7C5904" points="222.877,199.958 360.947,199.958 360.947,207.157 222.877,207.157 227.025,203.558 		"/>
	</g>
</g>
<g>
	<g>
		<polygon fill="#7C5904" points="217.486,221.071 79.416,221.071 79.416,213.872 217.486,213.872 221.635,217.471 		"/>
	</g>
	<g>
		<polygon fill="#7C5904" points="222.877,213.872 360.947,213.872 360.947,221.071 222.877,221.071 227.025,217.471 		"/>
	</g>
</g>
<g>
	<g>
		<polygon fill="#7C5904" points="217.486,234.986 79.416,234.986 79.416,227.785 217.486,227.785 221.635,231.385 		"/>
	</g>
	<g>
		<polygon fill="#7C5904" points="222.877,227.785 360.947,227.785 360.947,234.986 222.877,234.986 227.025,231.385 		"/>
	</g>
</g>
<g>
	<g>
		<polygon fill="#7C5904" points="217.486,248.9 79.416,248.9 79.416,241.7 217.486,241.7 221.635,245.299 		"/>
	</g>
	<g>
		<polygon fill="#7C5904" points="222.877,241.7 360.947,241.7 360.947,248.9 222.877,248.9 227.025,245.299 		"/>
	</g>
</g>
<g>
	<g>
		<polygon fill="#7C5904" points="217.486,290.792 79.416,290.792 79.416,283.593 217.486,283.593 221.635,287.193 		"/>
	</g>
	<g>
		<polygon fill="#7C5904" points="222.877,283.593 360.948,283.593 360.948,290.792 222.877,290.792 227.025,287.193 		"/>
	</g>
</g>
<g>
	<g>
		<polygon fill="#7C5904" points="217.486,318.661 79.416,318.661 79.416,311.462 217.486,311.462 221.635,315.062 		"/>
	</g>
	<g>
		<polygon fill="#7C5904" points="222.877,311.462 360.947,311.462 360.947,318.661 222.877,318.661 227.025,315.062 		"/>
	</g>
</g>
<g>
	<g>
		<polygon fill="#7C5904" points="217.486,332.595 79.416,332.595 79.416,325.396 217.486,325.396 221.635,328.995 		"/>
	</g>
	<g>
		<polygon fill="#7C5904" points="222.877,325.396 360.947,325.396 360.947,332.595 222.877,332.595 227.025,328.995 		"/>
	</g>
</g>
<g>
	<g>
		<polygon fill="#7C5904" points="217.486,346.53 79.416,346.53 79.416,339.33 217.486,339.33 221.635,342.929 		"/>
	</g>
	<g>
		<polygon fill="#7C5904" points="222.877,339.33 360.947,339.33 360.947,346.53 222.877,346.53 227.025,342.929 		"/>
	</g>
</g>
<g>
	<g>
		<polygon fill="#7C5904" points="217.486,360.464 79.416,360.464 79.416,353.264 217.486,353.264 221.635,356.863 		"/>
	</g>
	<g>
		<polygon fill="#7C5904" points="222.877,353.264 360.947,353.264 360.947,360.464 222.877,360.464 227.025,356.863 		"/>
	</g>
</g>
<g>
	<g>
		<polygon fill="#7C5904" points="217.486,401.792 79.416,401.792 79.416,394.593 217.486,394.593 221.635,398.193 		"/>
	</g>
	<g>
		<polygon fill="#7C5904" points="222.877,394.593 360.948,394.593 360.948,401.792 222.877,401.792 227.025,398.193 		"/>
	</g>
</g>
<g>
	<g>
		<polygon fill="#7C5904" points="217.486,415.727 79.416,415.727 79.416,408.528 217.486,408.528 221.635,412.127 		"/>
	</g>
	<g>
		<polygon fill="#7C5904" points="222.877,408.528 360.947,408.528 360.947,415.727 222.877,415.727 227.025,412.127 		"/>
	</g>
</g>
<g>
	<g>
		<polygon fill="#7C5904" points="217.486,429.661 79.416,429.661 79.416,422.462 217.486,422.462 221.635,426.062 		"/>
	</g>
	<g>
		<polygon fill="#7C5904" points="222.877,422.462 360.947,422.462 360.947,429.661 222.877,429.661 227.025,426.062 		"/>
	</g>
</g>
<g>
	<g>
		<polygon fill="#7C5904" points="217.486,457.53 79.416,457.53 79.416,450.33 217.486,450.33 221.635,453.929 		"/>
	</g>
	<g>
		<polygon fill="#7C5904" points="222.877,450.33 360.947,450.33 360.947,457.53 222.877,457.53 227.025,453.929 		"/>
	</g>
</g>
<g>
	<g>
		<polygon fill="#7C5904" points="217.486,471.464 79.416,471.464 79.416,464.264 217.486,464.264 221.635,467.863 		"/>
	</g>
	<g>
		<polygon fill="#7C5904" points="222.877,464.264 360.947,464.264 360.947,471.464 222.877,471.464 227.025,467.863 		"/>
	</g>
</g>
<g>
	<path fill="#398EB0" d="M65.743,384.079h7.289v3.088h-1.517l-4.548,13.938h-4.604l-4.414-13.938h-1.64v-3.088h7.3v3.088H61.79
		l2.965,9.658l2.954-9.658h-1.965V384.079z"/>
</g>
<g>
	<rect x="79.125" y="74.733" fill="#7C5904" width="142.488" height="7.199"/>
</g>
<g>
	<rect x="79.125" y="436.494" fill="#7C5904" width="142.488" height="7.199"/>
</g>
<g>
	<rect x="79.125" y="366.924" fill="#7C5904" width="142.488" height="7.199"/>
</g>
<g>
	<rect x="79.125" y="297.354" fill="#7C5904" width="142.488" height="7.2"/>
</g>
<g>
	<rect x="79.125" y="186.044" fill="#7C5904" width="142.488" height="7.199"/>
</g>
<g>
	<path fill="#C63706" d="M69.735,454.463c-0.451-0.123-0.876-0.305-1.274-0.545s-0.747-0.537-1.046-0.893
		c-0.299-0.354-0.536-0.764-0.712-1.23c-0.176-0.465-0.264-0.988-0.264-1.568c0-0.615,0.123-1.191,0.369-1.727
		c0.247-0.537,0.595-1.004,1.046-1.402s0.996-0.712,1.635-0.94c0.639-0.229,1.351-0.343,2.136-0.343h6.012v2.417h-1.239v14.089
		h-2.575v-14.089H72.31v14.089h-2.575V454.463z"/>
</g>
<g>
	<path fill="#C63706" d="M69.735,316.129c-0.451-0.123-0.876-0.305-1.274-0.545s-0.747-0.537-1.046-0.893
		c-0.299-0.354-0.536-0.764-0.712-1.23c-0.176-0.465-0.264-0.988-0.264-1.568c0-0.615,0.123-1.191,0.369-1.727
		c0.247-0.537,0.595-1.004,1.046-1.402s0.996-0.712,1.635-0.94c0.639-0.229,1.351-0.343,2.136-0.343h6.012v2.417h-1.239v14.089
		h-2.575v-14.089H72.31v14.089h-2.575V316.129z"/>
</g>
<g>
	<path fill="#398EB0" d="M69.735,204.057c-0.451-0.123-0.876-0.305-1.274-0.545s-0.747-0.537-1.046-0.893
		c-0.299-0.354-0.536-0.764-0.712-1.23c-0.176-0.465-0.264-0.988-0.264-1.568c0-0.615,0.123-1.191,0.369-1.727
		c0.247-0.537,0.595-1.004,1.046-1.402s0.996-0.712,1.635-0.94c0.639-0.229,1.351-0.343,2.136-0.343h6.012v2.417h-1.239v14.089
		h-2.575v-14.089H72.31v14.089h-2.575V204.057z"/>
</g>
<g>
	<path fill="#C63706" d="M69.735,92.723c-0.451-0.123-0.876-0.305-1.274-0.545s-0.747-0.537-1.046-0.893
		c-0.299-0.354-0.536-0.764-0.712-1.23c-0.176-0.465-0.264-0.988-0.264-1.568c0-0.615,0.123-1.191,0.369-1.727
		c0.247-0.537,0.595-1.004,1.046-1.402s0.996-0.712,1.635-0.94c0.639-0.229,1.351-0.343,2.136-0.343h6.012v2.417h-1.239v14.089
		h-2.575V86.492H72.31v14.089h-2.575V92.723z"/>
</g>
<g>
	<g>
		<polygon fill="#7C5904" points="222.586,60.82 360.656,60.82 360.656,68.02 222.586,68.02 226.733,64.419 		"/>
	</g>
	<g>
		<polygon fill="#7C5904" points="221.344,64.419 217.195,60.821 217.195,60.82 217.195,60.82 79.125,60.82 83.272,64.419 
			79.125,68.02 217.195,68.02 217.195,68.02 217.195,68.019 		"/>
	</g>
</g>
<g>
	<g>
		<polygon fill="#7C5904" points="217.195,485.435 79.125,485.435 79.125,478.235 217.195,478.235 221.344,481.835 		"/>
	</g>
	<g>
		<polygon fill="#7C5904" points="222.586,478.235 226.733,481.835 222.586,485.435 356.508,485.435 360.657,481.835 
			356.508,478.235 		"/>
	</g>
</g>
</svg>
