<?xml version="1.0" encoding="utf-8"?>
<!-- Generator: Adobe Illustrator 16.0.4, SVG Export Plug-In . SVG Version: 6.00 Build 0)  -->
<!DOCTYPE svg PUBLIC "-//W3C//DTD SVG 1.1//EN" "http://www.w3.org/Graphics/SVG/1.1/DTD/svg11.dtd">
<svg version="1.1" id="Layer_1" xmlns="http://www.w3.org/2000/svg" xmlns:xlink="http://www.w3.org/1999/xlink" x="0px" y="0px"
	 width="448.747px" height="616.44px" viewBox="0 0 448.747 616.44" enable-background="new 0 0 448.747 616.44"
	 xml:space="preserve">
<rect x="0.5" y="0.5" fill="#FFFFFF" stroke="#C68D06" stroke-miterlimit="10" width="447.747" height="615.44"/>
<g>
	<path fill="#C68D06" d="M380.47,556.254h-13.337v-2.274h15.926v2.135l-10.956,23.768h-2.556L380.47,556.254z"/>
	<path fill="#C68D06" d="M389.358,553.979h2.556l7.735,22.612h0.07l7.771-22.612h2.416l-9.102,26.008h-2.345L389.358,553.979z"/>
</g>
<g>
	<g>
		<rect x="79.883" y="158.217" fill="#C0DDE7" width="281.739" height="7.199"/>
	</g>
	<g>
		<rect x="79.884" y="172.13" fill="#C0DDE7" width="281.738" height="7.199"/>
	</g>
	<g>
		<rect x="79.883" y="186.044" fill="#C0DDE7" width="281.739" height="7.2"/>
	</g>
	<g>
		<rect x="79.883" y="199.958" fill="#C0DDE7" width="281.739" height="7.199"/>
	</g>
	<g>
		<rect x="79.883" y="213.872" fill="#C0DDE7" width="281.739" height="7.199"/>
	</g>
	<g>
		<rect x="79.883" y="227.785" fill="#C0DDE7" width="281.739" height="7.2"/>
	</g>
	<g>
		<rect x="79.884" y="241.699" fill="#C0DDE7" width="281.738" height="7.199"/>
	</g>
	<g>
		<rect x="79.884" y="255.612" fill="#C0DDE7" width="281.738" height="7.2"/>
	</g>
	<g>
		<rect x="79.883" y="269.527" fill="#C0DDE7" width="281.739" height="7.199"/>
	</g>
	<g>
		<rect x="79.884" y="283.44" fill="#C0DDE7" width="281.738" height="7.2"/>
	</g>
	<g>
		<rect x="79.883" y="297.354" fill="#C0DDE7" width="281.739" height="7.2"/>
	</g>
	<g>
		<rect x="79.883" y="311.269" fill="#C0DDE7" width="281.739" height="7.2"/>
	</g>
	<g>
		<rect x="79.883" y="325.183" fill="#C0DDE7" width="281.739" height="7.199"/>
	</g>
	<g>
		<rect x="79.884" y="339.096" fill="#C0DDE7" width="281.738" height="7.2"/>
	</g>
	<g>
		<rect x="79.883" y="353.01" fill="#C0DDE7" width="281.739" height="7.2"/>
	</g>
	<g>
		<rect x="79.883" y="366.924" fill="#C0DDE7" width="281.739" height="7.2"/>
	</g>
	<g>
		<rect x="79.883" y="380.838" fill="#C0DDE7" width="281.739" height="7.199"/>
	</g>
	<g>
		<rect x="79.883" y="394.752" fill="#C0DDE7" width="281.739" height="7.199"/>
	</g>
	<g>
		<rect x="79.884" y="408.665" fill="#C0DDE7" width="281.738" height="7.199"/>
	</g>
	<g>
		<rect x="79.883" y="422.579" fill="#C0DDE7" width="281.739" height="7.2"/>
	</g>
	<g>
		<rect x="79.884" y="436.492" fill="#C0DDE7" width="281.738" height="7.2"/>
	</g>
	<g>
		<rect x="79.883" y="450.407" fill="#C0DDE7" width="281.739" height="7.199"/>
	</g>
	<g>
		<rect x="79.884" y="464.32" fill="#C0DDE7" width="281.738" height="7.199"/>
	</g>
	<g>
		<rect x="79.883" y="478.234" fill="#C0DDE7" width="281.739" height="7.2"/>
	</g>
	<g>
		<rect x="79.883" y="60.819" fill="#C0DDE7" width="281.739" height="7.2"/>
	</g>
	<g>
		<rect x="79.884" y="74.733" fill="#C0DDE7" width="281.738" height="7.2"/>
	</g>
	<g>
		<rect x="79.884" y="144.303" fill="#C0DDE7" width="281.738" height="7.199"/>
	</g>
	<g>
		<rect x="79.883" y="88.647" fill="#C0DDE7" width="281.739" height="7.199"/>
	</g>
	<g>
		<rect x="79.884" y="102.561" fill="#C0DDE7" width="281.738" height="7.2"/>
	</g>
	<g>
		<rect x="79.884" y="116.475" fill="#C0DDE7" width="281.738" height="7.199"/>
	</g>
	<g>
		<rect x="79.884" y="130.389" fill="#C0DDE7" width="281.738" height="7.199"/>
	</g>
	<g>
		<g>
			<g>
				<polygon fill="#7C5904" points="218.058,401.95 79.987,401.95 79.987,394.751 218.058,394.751 222.206,398.351 				"/>
			</g>
			<g>
				<polygon fill="#7C5904" points="223.448,394.751 361.519,394.751 361.519,401.95 223.448,401.95 227.596,398.351 				"/>
			</g>
		</g>
		<g>
			<g>
				<polygon fill="#7C5904" points="218.058,415.864 79.987,415.864 79.987,408.665 218.058,408.665 222.206,412.265 				"/>
			</g>
			<g>
				<polygon fill="#7C5904" points="223.448,408.665 361.519,408.665 361.519,415.864 223.448,415.864 227.596,412.265 				"/>
			</g>
		</g>
		<g>
			<g>
				<polygon fill="#7C5904" points="218.058,485.433 79.987,485.433 79.987,478.233 218.058,478.233 222.206,481.833 				"/>
			</g>
			<g>
				<polygon fill="#7C5904" points="223.448,478.233 361.519,478.233 361.519,485.433 223.448,485.433 227.596,481.833 				"/>
			</g>
		</g>
		<g>
			<g>
				<polygon fill="#7C5904" points="218.058,429.777 79.987,429.777 79.987,422.578 218.058,422.578 222.206,426.178 				"/>
			</g>
			<g>
				<polygon fill="#7C5904" points="223.448,422.578 361.519,422.578 361.519,429.777 223.448,429.777 227.596,426.178 				"/>
			</g>
		</g>
		<g>
			<g>
				<polygon fill="#7C5904" points="218.058,443.691 79.987,443.691 79.987,436.492 218.058,436.492 222.206,440.091 				"/>
			</g>
			<g>
				<polygon fill="#7C5904" points="223.448,436.492 361.519,436.492 361.519,443.691 223.448,443.691 227.596,440.091 				"/>
			</g>
		</g>
		<g>
			<g>
				<polygon fill="#7C5904" points="218.058,457.604 79.987,457.604 79.987,450.404 218.058,450.404 222.206,454.004 				"/>
			</g>
			<g>
				<polygon fill="#7C5904" points="223.448,450.404 361.519,450.404 361.519,457.604 223.448,457.604 227.596,454.004 				"/>
			</g>
		</g>
		<g>
			<g>
				<polygon fill="#7C5904" points="218.058,471.519 79.987,471.519 79.987,464.318 218.058,464.318 222.206,467.918 				"/>
			</g>
			<g>
				<polygon fill="#7C5904" points="223.448,464.318 361.519,464.318 361.519,471.519 223.448,471.519 227.596,467.918 				"/>
			</g>
		</g>
	</g>
	<g>
		<path fill="#C63706" d="M63.067,403.573c-0.958-0.194-1.844-0.552-2.656-1.072c-0.813-0.521-1.517-1.162-2.111-1.926
			c-0.596-0.764-1.06-1.627-1.393-2.589c-0.333-0.962-0.5-1.982-0.5-3.061c0-0.816,0.097-1.601,0.292-2.353
			c0.195-0.753,0.468-1.456,0.82-2.111s0.777-1.251,1.275-1.786c0.498-0.535,1.052-0.993,1.662-1.376
			c0.61-0.381,1.267-0.677,1.971-0.887s1.441-0.314,2.212-0.314s1.51,0.104,2.218,0.314c0.707,0.21,1.366,0.506,1.977,0.887
			c0.61,0.383,1.164,0.841,1.662,1.376c0.498,0.535,0.924,1.131,1.28,1.786c0.355,0.655,0.63,1.358,0.825,2.111
			c0.195,0.752,0.292,1.536,0.292,2.353c0,1.093-0.172,2.126-0.516,3.1s-0.822,1.846-1.432,2.616
			c-0.61,0.771-1.335,1.416-2.173,1.932c-0.839,0.518-1.748,0.861-2.729,1.033c0.232,0.098,0.462,0.204,0.69,0.32
			c0.229,0.116,0.459,0.225,0.691,0.326c0.232,0.101,0.462,0.187,0.691,0.258c0.228,0.071,0.462,0.11,0.702,0.118
			c0.232,0,0.458-0.03,0.679-0.09c0.221-0.06,0.421-0.153,0.601-0.28c0.18-0.128,0.335-0.293,0.466-0.494
			c0.131-0.203,0.219-0.449,0.264-0.742l2.504,1.247c-0.067,0.547-0.223,1.041-0.466,1.482c-0.243,0.441-0.556,0.819-0.938,1.134
			c-0.382,0.314-0.816,0.559-1.303,0.73s-1.003,0.258-1.55,0.258c-0.442,0-0.885-0.084-1.331-0.252
			c-0.445-0.169-0.876-0.353-1.291-0.551c-0.416-0.198-0.807-0.382-1.174-0.55c-0.367-0.169-0.689-0.253-0.966-0.253
			c-0.12,0-0.227-0.002-0.32-0.006c-0.093-0.004-0.185-0.004-0.275,0s-0.189,0.016-0.297,0.034
			c-0.109,0.019-0.234,0.054-0.376,0.106L63.067,403.573z M64.64,400.216c0.651,0,1.249-0.141,1.792-0.422
			c0.542-0.28,1.009-0.662,1.397-1.146c0.39-0.482,0.691-1.044,0.904-1.685c0.214-0.64,0.32-1.319,0.32-2.038
			c0-0.727-0.108-1.411-0.326-2.056c-0.217-0.644-0.522-1.207-0.916-1.689c-0.393-0.483-0.859-0.865-1.398-1.146
			c-0.539-0.281-1.13-0.421-1.774-0.421s-1.235,0.14-1.774,0.421c-0.539,0.28-1.003,0.662-1.393,1.146
			c-0.389,0.482-0.694,1.046-0.916,1.689c-0.22,0.645-0.331,1.329-0.331,2.056c0,0.719,0.111,1.398,0.331,2.038
			c0.222,0.641,0.527,1.202,0.916,1.685c0.389,0.483,0.854,0.865,1.393,1.146C63.404,400.075,63.996,400.216,64.64,400.216z"/>
	</g>
	<g>
		<g>
			<g>
				<path fill="#C63706" d="M69.255,67.281v-2.92c-0.464,0.816-0.917,1.415-1.359,1.797s-0.942,0.688-1.5,0.921
					s-1.304,0.345-2.24,0.337c-0.464-0.008-0.928-0.062-1.393-0.163c-0.464-0.101-0.914-0.243-1.348-0.427s-0.86-0.404-1.274-0.662
					c-0.417-0.259-0.792-0.557-1.129-0.893c-0.831-0.839-1.477-1.811-1.938-2.915c-0.46-1.104-0.69-2.308-0.69-3.61
					c0-0.801,0.097-1.576,0.292-2.324c0.195-0.749,0.468-1.449,0.819-2.101c0.352-0.651,0.777-1.245,1.275-1.78
					c0.498-0.535,1.052-0.994,1.662-1.375c0.61-0.383,1.268-0.678,1.971-0.888s1.441-0.314,2.212-0.314
					c0.883,0,1.65,0.118,2.302,0.354c0.651,0.236,1.352,0.676,2.1,1.319h2.516v3.797h-3.47c-0.344-0.532-0.668-0.918-0.972-1.157
					c-0.303-0.239-0.632-0.438-0.988-0.595c-0.355-0.158-0.852-0.236-1.488-0.236c-0.629,0-1.213,0.143-1.752,0.427
					s-1.005,0.668-1.398,1.151c-0.394,0.482-0.703,1.052-0.927,1.707c-0.225,0.655-0.337,1.327-0.337,2.016
					c0,0.682,0.101,1.329,0.303,1.943c0.202,0.613,0.509,1.166,0.921,1.656c0.412,0.49,0.891,0.866,1.438,1.129
					c0.546,0.262,1.13,0.393,1.752,0.393c0.793,0,1.486-0.232,2.078-0.696c0.591-0.464,1.018-1.097,1.28-1.897h-3.245v-3.078h7.884
					v9.086H69.255z"/>
			</g>
			<g>
				<path fill="#398EB0" d="M219.395,79.01c-0.451-0.123-0.876-0.305-1.274-0.545c-0.398-0.24-0.747-0.537-1.046-0.893
					c-0.299-0.354-0.536-0.764-0.712-1.23c-0.176-0.465-0.264-0.988-0.264-1.568c0-0.615,0.124-1.191,0.37-1.727
					c0.246-0.537,0.595-1.004,1.046-1.402s0.996-0.712,1.635-0.94s1.351-0.343,2.136-0.343h6.012v2.417h-1.24v14.089h-2.575V72.778
					h-1.512v14.089h-2.575V79.01z"/>
			</g>
			<g>
				<path fill="#C63706" d="M69.459,148.953c-0.451-0.123-0.876-0.305-1.275-0.545c-0.398-0.24-0.747-0.537-1.045-0.893
					c-0.299-0.354-0.536-0.764-0.712-1.23c-0.176-0.465-0.264-0.988-0.264-1.568c0-0.615,0.123-1.191,0.369-1.727
					c0.246-0.537,0.595-1.004,1.046-1.402s0.996-0.712,1.635-0.94s1.351-0.343,2.135-0.343h6.012v2.417h-1.239v14.089h-2.575
					v-14.089h-1.512v14.089h-2.575V148.953z"/>
			</g>
			<g>
				<path fill="#398EB0" d="M69.459,231.953c-0.451-0.123-0.876-0.305-1.275-0.545c-0.398-0.24-0.747-0.537-1.045-0.893
					c-0.299-0.354-0.536-0.764-0.712-1.23c-0.176-0.465-0.264-0.988-0.264-1.568c0-0.615,0.123-1.191,0.369-1.727
					c0.246-0.537,0.595-1.004,1.046-1.402s0.996-0.712,1.635-0.94s1.351-0.343,2.135-0.343h6.012v2.417h-1.239v14.089h-2.575
					v-14.089h-1.512v14.089h-2.575V231.953z"/>
			</g>
			<g>
				<path fill="#C63706" d="M69.459,315.287c-0.451-0.123-0.876-0.305-1.275-0.545c-0.398-0.24-0.747-0.537-1.045-0.893
					c-0.299-0.354-0.536-0.764-0.712-1.23c-0.176-0.465-0.264-0.988-0.264-1.568c0-0.615,0.123-1.191,0.369-1.727
					c0.246-0.537,0.595-1.004,1.046-1.402s0.996-0.712,1.635-0.94s1.351-0.343,2.135-0.343h6.012v2.417h-1.239v14.089h-2.575
					v-14.089h-1.512v14.089h-2.575V315.287z"/>
			</g>
			<g>
				<path fill="#398EB0" d="M219.395,245.953c-0.451-0.123-0.876-0.305-1.274-0.545c-0.398-0.24-0.747-0.537-1.046-0.893
					c-0.299-0.354-0.536-0.764-0.712-1.23c-0.176-0.465-0.264-0.988-0.264-1.568c0-0.615,0.124-1.191,0.37-1.727
					c0.246-0.537,0.595-1.004,1.046-1.402s0.996-0.712,1.635-0.94s1.351-0.343,2.136-0.343h6.012v2.417h-1.24v14.089h-2.575v-14.089
					h-1.512v14.089h-2.575V245.953z"/>
			</g>
			<g>
				<path fill="#C63706" d="M219.395,162.287c-0.451-0.123-0.876-0.305-1.274-0.545c-0.398-0.24-0.747-0.537-1.046-0.893
					c-0.299-0.354-0.536-0.764-0.712-1.23c-0.176-0.465-0.264-0.988-0.264-1.568c0-0.615,0.124-1.191,0.37-1.727
					c0.246-0.537,0.595-1.004,1.046-1.402s0.996-0.712,1.635-0.94s1.351-0.343,2.136-0.343h6.012v2.417h-1.24v14.089h-2.575v-14.089
					h-1.512v14.089h-2.575V162.287z"/>
			</g>
		</g>
		<g>
			<g>
				<rect x="229.694" y="60.797" fill="#7C5904" width="131.928" height="7.2"/>
			</g>
			<g>
				<rect x="79.884" y="60.797" fill="#7C5904" width="131.928" height="7.2"/>
			</g>
			<g>
				<g>
					<rect x="229.694" y="74.711" fill="#7C5904" width="131.928" height="7.2"/>
				</g>
				<g>
					<rect x="79.884" y="74.711" fill="#7C5904" width="131.928" height="7.2"/>
				</g>
			</g>
			<g>
				<g>
					<rect x="229.694" y="88.625" fill="#7C5904" width="131.928" height="7.2"/>
				</g>
				<g>
					<rect x="79.884" y="88.625" fill="#7C5904" width="131.928" height="7.2"/>
				</g>
			</g>
			<g>
				<g>
					<rect x="229.694" y="102.539" fill="#7C5904" width="131.928" height="7.2"/>
				</g>
				<g>
					<rect x="79.884" y="102.539" fill="#7C5904" width="131.928" height="7.2"/>
				</g>
			</g>
			<g>
				<g>
					<rect x="229.694" y="116.452" fill="#7C5904" width="131.928" height="7.2"/>
				</g>
				<g>
					<rect x="79.884" y="116.452" fill="#7C5904" width="131.928" height="7.2"/>
				</g>
			</g>
			<g>
				<g>
					<rect x="229.694" y="130.366" fill="#7C5904" width="131.928" height="7.2"/>
				</g>
				<g>
					<rect x="79.884" y="130.366" fill="#7C5904" width="131.928" height="7.2"/>
				</g>
			</g>
			<g>
				<g>
					<rect x="229.694" y="144.279" fill="#7C5904" width="131.928" height="7.2"/>
				</g>
				<g>
					<rect x="79.884" y="144.279" fill="#7C5904" width="131.928" height="7.2"/>
				</g>
			</g>
			<g>
				<g>
					<rect x="229.694" y="158.194" fill="#7C5904" width="131.928" height="7.2"/>
				</g>
				<g>
					<rect x="79.884" y="158.194" fill="#7C5904" width="131.928" height="7.2"/>
				</g>
			</g>
			<g>
				<g>
					<rect x="229.694" y="172.107" fill="#7C5904" width="131.928" height="7.2"/>
				</g>
				<g>
					<rect x="79.884" y="172.107" fill="#7C5904" width="131.928" height="7.2"/>
				</g>
			</g>
			<g>
				<g>
					<rect x="229.694" y="186.021" fill="#7C5904" width="131.928" height="7.2"/>
				</g>
				<g>
					<rect x="79.884" y="186.021" fill="#7C5904" width="131.928" height="7.2"/>
				</g>
			</g>
			<g>
				<g>
					<rect x="229.694" y="199.936" fill="#7C5904" width="131.928" height="7.2"/>
				</g>
				<g>
					<rect x="79.884" y="199.936" fill="#7C5904" width="131.928" height="7.2"/>
				</g>
			</g>
			<g>
				<g>
					<rect x="229.694" y="213.85" fill="#7C5904" width="131.928" height="7.2"/>
				</g>
				<g>
					<rect x="79.884" y="213.85" fill="#7C5904" width="131.928" height="7.2"/>
				</g>
			</g>
			<g>
				<g>
					<rect x="229.694" y="227.763" fill="#7C5904" width="131.928" height="7.2"/>
				</g>
				<g>
					<rect x="79.884" y="227.763" fill="#7C5904" width="131.928" height="7.2"/>
				</g>
			</g>
			<g>
				<g>
					<rect x="229.694" y="241.677" fill="#7C5904" width="131.928" height="7.2"/>
				</g>
				<g>
					<rect x="79.884" y="241.677" fill="#7C5904" width="131.928" height="7.2"/>
				</g>
			</g>
			<g>
				<g>
					<rect x="229.694" y="255.591" fill="#7C5904" width="131.928" height="7.2"/>
				</g>
				<g>
					<rect x="79.884" y="255.591" fill="#7C5904" width="131.928" height="7.2"/>
				</g>
			</g>
			<g>
				<g>
					<rect x="229.694" y="269.505" fill="#7C5904" width="131.928" height="7.2"/>
				</g>
				<g>
					<rect x="79.884" y="269.505" fill="#7C5904" width="131.928" height="7.2"/>
				</g>
			</g>
			<g>
				<rect x="79.884" y="283.419" fill="#7C5904" width="131.928" height="7.2"/>
			</g>
			<g>
				<rect x="79.884" y="297.332" fill="#7C5904" width="131.928" height="7.2"/>
			</g>
			<g>
				<rect x="79.884" y="311.246" fill="#7C5904" width="131.928" height="7.2"/>
			</g>
			<g>
				<rect x="79.884" y="325.159" fill="#7C5904" width="131.928" height="7.2"/>
			</g>
			<g>
				<rect x="79.884" y="339.074" fill="#7C5904" width="131.928" height="7.2"/>
			</g>
			<g>
				<rect x="79.884" y="352.987" fill="#7C5904" width="131.928" height="7.2"/>
			</g>
			<g>
				<rect x="79.884" y="366.901" fill="#7C5904" width="131.928" height="7.2"/>
			</g>
		</g>
	</g>
</g>
</svg>
