<?xml version="1.0" encoding="utf-8"?>
<!-- Generator: Adobe Illustrator 16.0.4, SVG Export Plug-In . SVG Version: 6.00 Build 0)  -->
<!DOCTYPE svg PUBLIC "-//W3C//DTD SVG 1.1//EN" "http://www.w3.org/Graphics/SVG/1.1/DTD/svg11.dtd">
<svg version="1.1" id="Layer_1" xmlns="http://www.w3.org/2000/svg" xmlns:xlink="http://www.w3.org/1999/xlink" x="0px" y="0px"
	 width="448.746px" height="616.44px" viewBox="0 0 448.746 616.44" enable-background="new 0 0 448.746 616.44"
	 xml:space="preserve">
<rect x="0.5" y="0.5" fill="#FFFFFF" stroke="#C68D06" stroke-miterlimit="10" width="447.746" height="615.44"/>
<g>
	<path fill="#C68D06" d="M378.251,558.506h-13.336v-2.274h15.927v2.135l-10.956,23.768h-2.556L378.251,558.506z"/>
	<path fill="#C68D06" d="M389.205,556.232h8.681c5.776,0,8.996,2.45,8.996,7c0,4.201-2.45,6.301-6.195,7.001l6.546,11.901h-2.801
		l-6.336-11.621h-6.44v11.621h-2.45V556.232z M397.71,568.308c4.271,0,6.686-1.226,6.686-4.971c0-3.57-2.38-4.831-6.721-4.831
		h-6.021v9.802H397.71z"/>
</g>
<g>
	<rect x="79.125" y="158.3" fill="#C0DDE7" width="281.738" height="7.199"/>
</g>
<g>
	<rect x="79.125" y="172.213" fill="#C0DDE7" width="281.738" height="7.199"/>
</g>
<g>
	<rect x="79.125" y="172.213" fill="#7C5904" width="142.488" height="7.199"/>
</g>
<g>
	<rect x="79.125" y="186.127" fill="#C0DDE7" width="281.738" height="7.2"/>
</g>
<g>
	<rect x="79.125" y="200.041" fill="#C0DDE7" width="281.738" height="7.199"/>
</g>
<g>
	<rect x="79.125" y="213.955" fill="#C0DDE7" width="281.738" height="7.199"/>
</g>
<g>
	<rect x="79.125" y="227.869" fill="#C0DDE7" width="281.738" height="7.2"/>
</g>
<g>
	<rect x="79.125" y="241.783" fill="#C0DDE7" width="281.738" height="7.199"/>
</g>
<g>
	<rect x="79.125" y="255.696" fill="#C0DDE7" width="281.738" height="7.2"/>
</g>
<g>
	<rect x="79.125" y="269.611" fill="#C0DDE7" width="281.738" height="7.199"/>
</g>
<g>
	<rect x="79.125" y="283.524" fill="#C0DDE7" width="281.738" height="7.2"/>
</g>
<g>
	<rect x="79.125" y="297.438" fill="#C0DDE7" width="281.738" height="7.2"/>
</g>
<g>
	<rect x="79.125" y="311.352" fill="#C0DDE7" width="281.738" height="7.2"/>
</g>
<g>
	<rect x="79.125" y="325.266" fill="#C0DDE7" width="281.738" height="7.199"/>
</g>
<g>
	<rect x="79.125" y="339.179" fill="#C0DDE7" width="281.738" height="7.2"/>
</g>
<g>
	<rect x="79.125" y="353.093" fill="#C0DDE7" width="281.738" height="7.2"/>
</g>
<g>
	<rect x="79.125" y="367.007" fill="#C0DDE7" width="281.738" height="7.2"/>
</g>
<g>
	<rect x="79.125" y="380.921" fill="#C0DDE7" width="281.738" height="7.2"/>
</g>
<g>
	<rect x="79.125" y="394.835" fill="#C0DDE7" width="281.738" height="7.199"/>
</g>
<g>
	<rect x="79.125" y="408.749" fill="#C0DDE7" width="281.738" height="7.199"/>
</g>
<g>
	<rect x="79.125" y="422.663" fill="#C0DDE7" width="281.738" height="7.2"/>
</g>
<g>
	<rect x="79.125" y="436.576" fill="#C0DDE7" width="281.738" height="7.2"/>
</g>
<g>
	<rect x="79.125" y="450.49" fill="#C0DDE7" width="281.738" height="7.199"/>
</g>
<g>
	<rect x="79.125" y="464.404" fill="#C0DDE7" width="281.738" height="7.199"/>
</g>
<g>
	<rect x="79.125" y="478.317" fill="#C0DDE7" width="281.738" height="7.2"/>
</g>
<g>
	<rect x="79.125" y="60.903" fill="#C0DDE7" width="281.738" height="7.2"/>
</g>
<g>
	<rect x="79.125" y="74.816" fill="#C0DDE7" width="281.738" height="7.2"/>
</g>
<g>
	<rect x="79.125" y="144.386" fill="#C0DDE7" width="281.738" height="7.199"/>
</g>
<g>
	<rect x="79.125" y="88.73" fill="#C0DDE7" width="281.738" height="7.199"/>
</g>
<g>
	<rect x="79.125" y="102.644" fill="#C0DDE7" width="281.738" height="7.2"/>
</g>
<g>
	<rect x="79.125" y="116.558" fill="#C0DDE7" width="281.738" height="7.199"/>
</g>
<g>
	<rect x="79.125" y="130.472" fill="#C0DDE7" width="281.738" height="7.199"/>
</g>
<g>
	<polygon fill="#7C5904" points="217.486,82.017 79.416,82.017 79.416,74.818 217.486,74.818 221.635,78.417 	"/>
</g>
<g>
	<polygon fill="#7C5904" points="222.877,74.818 360.947,74.818 360.947,82.017 222.877,82.017 227.025,78.417 	"/>
</g>
<g>
	<polygon fill="#7C5904" points="79.125,60.903 217.195,60.903 217.195,68.102 79.125,68.102 83.273,64.502 	"/>
</g>
<g>
	<g>
		<polygon fill="#7C5904" points="217.486,151.585 79.416,151.585 79.416,144.386 217.486,144.386 221.635,147.986 		"/>
	</g>
	<g>
		<polygon fill="#7C5904" points="222.877,144.386 360.947,144.386 360.947,151.585 222.877,151.585 227.025,147.986 		"/>
	</g>
</g>
<g>
	<g>
		<polygon fill="#7C5904" points="217.486,95.93 79.416,95.93 79.416,88.73 217.486,88.73 221.635,92.33 		"/>
	</g>
	<g>
		<polygon fill="#7C5904" points="222.877,88.73 360.947,88.73 360.947,95.93 222.877,95.93 227.025,92.33 		"/>
	</g>
</g>
<g>
	<g>
		<polygon fill="#7C5904" points="217.486,109.844 79.416,109.844 79.416,102.645 217.486,102.645 221.635,106.244 		"/>
	</g>
	<g>
		<polygon fill="#7C5904" points="222.877,102.645 360.947,102.645 360.947,109.844 222.877,109.844 227.025,106.244 		"/>
	</g>
</g>
<g>
	<g>
		<polygon fill="#7C5904" points="217.486,137.671 79.416,137.671 79.416,130.471 217.486,130.471 221.635,134.071 		"/>
	</g>
	<g>
		<polygon fill="#7C5904" points="222.877,130.471 360.947,130.471 360.947,137.671 222.877,137.671 227.025,134.071 		"/>
	</g>
</g>
<g>
	<g>
		<polygon fill="#7C5904" points="217.653,165.499 79.583,165.499 79.583,158.3 217.653,158.3 221.801,161.899 		"/>
	</g>
	<g>
		<polygon fill="#7C5904" points="223.043,158.3 361.114,158.3 361.114,165.499 223.043,165.499 227.191,161.899 		"/>
	</g>
</g>
<g>
	<g>
		<polygon fill="#7C5904" points="217.486,193.327 79.416,193.327 79.416,186.127 217.486,186.127 221.635,189.727 		"/>
	</g>
	<g>
		<polygon fill="#7C5904" points="222.877,186.127 360.947,186.127 360.947,193.327 222.877,193.327 227.025,189.727 		"/>
	</g>
</g>
<g>
	<g>
		<polygon fill="#7C5904" points="217.486,262.895 79.416,262.895 79.416,255.696 217.486,255.696 221.635,259.295 		"/>
	</g>
	<g>
		<polygon fill="#7C5904" points="222.877,255.696 360.947,255.696 360.947,262.895 222.877,262.895 227.025,259.295 		"/>
	</g>
</g>
<g>
	<g>
		<polygon fill="#7C5904" points="217.486,207.24 79.416,207.24 79.416,200.041 217.486,200.041 221.635,203.641 		"/>
	</g>
	<g>
		<polygon fill="#7C5904" points="222.877,200.041 360.947,200.041 360.947,207.24 222.877,207.24 227.025,203.641 		"/>
	</g>
</g>
<g>
	<g>
		<polygon fill="#7C5904" points="217.486,221.154 79.416,221.154 79.416,213.955 217.486,213.955 221.635,217.554 		"/>
	</g>
	<g>
		<polygon fill="#7C5904" points="222.877,213.955 360.947,213.955 360.947,221.154 222.877,221.154 227.025,217.554 		"/>
	</g>
</g>
<g>
	<g>
		<polygon fill="#7C5904" points="217.486,248.983 79.416,248.983 79.416,241.783 217.486,241.783 221.635,245.382 		"/>
	</g>
	<g>
		<polygon fill="#7C5904" points="222.877,241.783 360.947,241.783 360.947,248.983 222.877,248.983 227.025,245.382 		"/>
	</g>
</g>
<g>
	<g>
		<polygon fill="#7C5904" points="217.486,276.809 79.416,276.809 79.416,269.61 217.486,269.61 221.635,273.209 		"/>
	</g>
	<g>
		<polygon fill="#7C5904" points="222.877,269.61 360.947,269.61 360.947,276.809 222.877,276.809 227.025,273.209 		"/>
	</g>
</g>
<g>
	<g>
		<polygon fill="#7C5904" points="217.486,304.81 79.416,304.81 79.416,297.611 217.486,297.611 221.635,301.21 		"/>
	</g>
	<g>
		<polygon fill="#7C5904" points="222.877,297.611 360.947,297.611 360.947,304.81 222.877,304.81 227.025,301.21 		"/>
	</g>
</g>
<g>
	<g>
		<polygon fill="#7C5904" points="217.486,374.48 79.416,374.48 79.416,367.281 217.486,367.281 221.635,370.881 		"/>
	</g>
	<g>
		<polygon fill="#7C5904" points="222.877,367.281 360.947,367.281 360.947,374.48 222.877,374.48 227.025,370.881 		"/>
	</g>
</g>
<g>
	<g>
		<polygon fill="#7C5904" points="217.486,318.744 79.416,318.744 79.416,311.545 217.486,311.545 221.635,315.145 		"/>
	</g>
	<g>
		<polygon fill="#7C5904" points="222.877,311.545 360.947,311.545 360.947,318.744 222.877,318.744 227.025,315.145 		"/>
	</g>
</g>
<g>
	<g>
		<polygon fill="#7C5904" points="217.486,332.678 79.416,332.678 79.416,325.479 217.486,325.479 221.635,329.078 		"/>
	</g>
	<g>
		<polygon fill="#7C5904" points="222.877,325.479 360.947,325.479 360.947,332.678 222.877,332.678 227.025,329.078 		"/>
	</g>
</g>
<g>
	<g>
		<polygon fill="#7C5904" points="217.486,360.547 79.416,360.547 79.416,353.347 217.486,353.347 221.635,356.946 		"/>
	</g>
	<g>
		<polygon fill="#7C5904" points="222.877,353.347 360.947,353.347 360.947,360.547 222.877,360.547 227.025,356.946 		"/>
	</g>
</g>
<g>
	<g>
		<polygon fill="#7C5904" points="217.486,388.12 79.416,388.12 79.416,380.92 217.486,380.92 221.635,384.52 		"/>
	</g>
	<g>
		<polygon fill="#7C5904" points="222.877,380.92 360.947,380.92 360.947,388.12 222.877,388.12 227.025,384.52 		"/>
	</g>
</g>
<g>
	<g>
		<polygon fill="#7C5904" points="217.486,415.81 79.416,415.81 79.416,408.611 217.486,408.611 221.635,412.21 		"/>
	</g>
	<g>
		<polygon fill="#7C5904" points="222.877,408.611 360.947,408.611 360.947,415.81 222.877,415.81 227.025,412.21 		"/>
	</g>
</g>
<g>
	<path fill="#C63706" d="M69.679,80.25c-0.451-0.123-0.876-0.305-1.274-0.545s-0.747-0.537-1.046-0.893
		c-0.299-0.354-0.536-0.764-0.712-1.23c-0.176-0.465-0.264-0.988-0.264-1.568c0-0.615,0.123-1.191,0.369-1.727
		c0.247-0.537,0.595-1.004,1.046-1.402s0.996-0.712,1.635-0.94c0.639-0.229,1.351-0.343,2.136-0.343h6.012v2.417h-1.239v14.089
		h-2.575V74.018h-1.512v14.089h-2.575V80.25z"/>
</g>
<g>
	<path fill="#C63706" d="M69.679,191.25c-0.451-0.123-0.876-0.305-1.274-0.545s-0.747-0.537-1.046-0.893
		c-0.299-0.354-0.536-0.764-0.712-1.23c-0.176-0.465-0.264-0.988-0.264-1.568c0-0.615,0.123-1.191,0.369-1.727
		c0.247-0.537,0.595-1.004,1.046-1.402s0.996-0.712,1.635-0.94c0.639-0.229,1.351-0.343,2.136-0.343h6.012v2.417h-1.239v14.089
		h-2.575v-14.089h-1.512v14.089h-2.575V191.25z"/>
</g>
<g>
	<path fill="#398EB0" d="M69.679,135.25c-0.451-0.123-0.876-0.305-1.274-0.545s-0.747-0.537-1.046-0.893
		c-0.299-0.354-0.536-0.764-0.712-1.23c-0.176-0.465-0.264-0.988-0.264-1.568c0-0.615,0.123-1.191,0.369-1.727
		c0.247-0.537,0.595-1.004,1.046-1.402s0.996-0.712,1.635-0.94c0.639-0.229,1.351-0.343,2.136-0.343h6.012v2.417h-1.239v14.089
		h-2.575v-14.089h-1.512v14.089h-2.575V135.25z"/>
</g>
<g>
	<path fill="#C63706" d="M69.679,301.75c-0.451-0.123-0.876-0.305-1.274-0.545s-0.747-0.537-1.046-0.893
		c-0.299-0.354-0.536-0.764-0.712-1.23c-0.176-0.465-0.264-0.988-0.264-1.568c0-0.615,0.123-1.191,0.369-1.727
		c0.247-0.537,0.595-1.004,1.046-1.402s0.996-0.712,1.635-0.94c0.639-0.229,1.351-0.343,2.136-0.343h6.012v2.417h-1.239v14.089
		h-2.575v-14.089h-1.512v14.089h-2.575V301.75z"/>
</g>
<g>
	<path fill="#398EB0" d="M69.679,246.75c-0.451-0.123-0.876-0.305-1.274-0.545s-0.747-0.537-1.046-0.893
		c-0.299-0.354-0.536-0.764-0.712-1.23c-0.176-0.465-0.264-0.988-0.264-1.568c0-0.615,0.123-1.191,0.369-1.727
		c0.247-0.537,0.595-1.004,1.046-1.402s0.996-0.712,1.635-0.94c0.639-0.229,1.351-0.343,2.136-0.343h6.012v2.417h-1.239v14.089
		h-2.575v-14.089h-1.512v14.089h-2.575V246.75z"/>
</g>
<g>
	<path fill="#C63706" d="M69.679,413.083c-0.451-0.123-0.876-0.305-1.274-0.545s-0.747-0.537-1.046-0.893
		c-0.299-0.354-0.536-0.764-0.712-1.23c-0.176-0.465-0.264-0.988-0.264-1.568c0-0.615,0.123-1.191,0.369-1.727
		c0.247-0.537,0.595-1.004,1.046-1.402s0.996-0.712,1.635-0.94c0.639-0.229,1.351-0.343,2.136-0.343h6.012v2.417h-1.239v14.089
		h-2.575v-14.089h-1.512v14.089h-2.575V413.083z"/>
</g>
<g>
	<path fill="#398EB0" d="M69.679,357.75c-0.451-0.123-0.876-0.305-1.274-0.545s-0.747-0.537-1.046-0.893
		c-0.299-0.354-0.536-0.764-0.712-1.23c-0.176-0.465-0.264-0.988-0.264-1.568c0-0.615,0.123-1.191,0.369-1.727
		c0.247-0.537,0.595-1.004,1.046-1.402s0.996-0.712,1.635-0.94c0.639-0.229,1.351-0.343,2.136-0.343h6.012v2.417h-1.239v14.089
		h-2.575v-14.089h-1.512v14.089h-2.575V357.75z"/>
</g>
<g>
	<rect x="79.125" y="283.527" fill="#7C5904" width="142.488" height="7.199"/>
</g>
<g>
	<rect x="79.125" y="394.835" fill="#7C5904" width="142.488" height="7.199"/>
</g>
<g>
	<rect x="79.125" y="116.558" fill="#7C5904" width="142.488" height="7.199"/>
</g>
<g>
	<rect x="79.125" y="227.869" fill="#7C5904" width="142.488" height="7.199"/>
</g>
</svg>
