<?xml version="1.0" encoding="utf-8"?>
<!-- Generator: Adobe Illustrator 16.0.4, SVG Export Plug-In . SVG Version: 6.00 Build 0)  -->
<!DOCTYPE svg PUBLIC "-//W3C//DTD SVG 1.1//EN" "http://www.w3.org/Graphics/SVG/1.1/DTD/svg11.dtd">
<svg version="1.1" id="Layer_1" xmlns="http://www.w3.org/2000/svg" xmlns:xlink="http://www.w3.org/1999/xlink" x="0px" y="0px"
	 width="448.746px" height="616.44px" viewBox="0 0 448.746 616.44" enable-background="new 0 0 448.746 616.44"
	 xml:space="preserve">
<rect x="0.5" y="0.5" fill="#FFFFFF" stroke="#C68D06" stroke-miterlimit="10" width="447.746" height="615.44"/>
<g>
	<path fill="#C68D06" d="M362.535,575.869c0-3.641,2.59-5.636,6.86-7.491c-3.535-1.575-5.671-3.255-5.671-6.405
		c0-3.186,2.976-6.266,8.052-6.266c5.18,0,8.016,3.08,8.016,6.266c0,3.08-2.065,4.69-5.741,6.336
		c4.411,1.925,6.931,3.78,6.931,7.561c0,3.676-3.395,6.791-9.205,6.791C365.931,582.66,362.535,579.614,362.535,575.869z
		 M378.531,575.729c0-2.905-2.45-4.516-6.896-6.371c-4.585,2.03-6.65,3.605-6.65,6.371c0,2.835,2.835,4.83,6.791,4.83
		C375.696,580.559,378.531,578.668,378.531,575.729z M377.376,562.078c0-2.065-1.715-4.271-5.6-4.271
		c-3.711,0-5.636,2.1-5.636,4.165c0,2.45,1.785,3.676,5.74,5.391C375.767,565.682,377.376,564.493,377.376,562.078z"/>
	<path fill="#C68D06" d="M389.205,556.232h8.681c5.776,0,8.996,2.45,8.996,7c0,4.201-2.45,6.301-6.195,7.001l6.546,11.901h-2.801
		l-6.336-11.621h-6.44v11.621h-2.45V556.232z M397.71,568.308c4.271,0,6.686-1.226,6.686-4.971c0-3.57-2.38-4.831-6.721-4.831
		h-6.021v9.802H397.71z"/>
</g>
<g>
	<g>
		<rect x="80.049" y="157.967" fill="#C0DDE7" width="281.738" height="7.199"/>
	</g>
	<g>
		<rect x="80.049" y="171.88" fill="#C0DDE7" width="281.738" height="7.199"/>
	</g>
	<g>
		<rect x="80.049" y="185.794" fill="#C0DDE7" width="281.738" height="7.2"/>
	</g>
	<g>
		<rect x="80.049" y="199.708" fill="#C0DDE7" width="281.738" height="7.199"/>
	</g>
	<g>
		<rect x="80.049" y="213.622" fill="#C0DDE7" width="281.738" height="7.199"/>
	</g>
	<g>
		<rect x="80.049" y="227.535" fill="#C0DDE7" width="281.738" height="7.2"/>
	</g>
	<g>
		<rect x="80.049" y="241.45" fill="#C0DDE7" width="281.738" height="7.199"/>
	</g>
	<g>
		<rect x="80.049" y="255.363" fill="#C0DDE7" width="281.738" height="7.2"/>
	</g>
	<g>
		<rect x="80.049" y="269.277" fill="#C0DDE7" width="281.738" height="7.199"/>
	</g>
	<g>
		<rect x="80.049" y="283.191" fill="#C0DDE7" width="281.738" height="7.2"/>
	</g>
	<g>
		<rect x="80.049" y="297.104" fill="#C0DDE7" width="281.738" height="7.2"/>
	</g>
	<g>
		<rect x="80.049" y="311.019" fill="#C0DDE7" width="281.738" height="7.2"/>
	</g>
	<g>
		<rect x="80.049" y="324.933" fill="#C0DDE7" width="281.738" height="7.199"/>
	</g>
	<g>
		<rect x="80.049" y="338.846" fill="#C0DDE7" width="281.738" height="7.2"/>
	</g>
	<g>
		<rect x="80.049" y="352.76" fill="#C0DDE7" width="281.738" height="7.2"/>
	</g>
	<g>
		<rect x="80.049" y="366.674" fill="#C0DDE7" width="281.738" height="7.2"/>
	</g>
	<g>
		<rect x="80.049" y="380.588" fill="#C0DDE7" width="281.738" height="7.199"/>
	</g>
	<g>
		<rect x="80.049" y="394.502" fill="#C0DDE7" width="281.738" height="7.199"/>
	</g>
	<g>
		<rect x="80.049" y="408.416" fill="#C0DDE7" width="281.738" height="7.199"/>
	</g>
	<g>
		<rect x="80.049" y="422.329" fill="#C0DDE7" width="281.738" height="7.2"/>
	</g>
	<g>
		<rect x="80.049" y="436.243" fill="#C0DDE7" width="281.738" height="7.2"/>
	</g>
	<g>
		<rect x="80.049" y="450.157" fill="#C0DDE7" width="281.738" height="7.199"/>
	</g>
	<g>
		<rect x="80.049" y="464.071" fill="#C0DDE7" width="281.738" height="7.199"/>
	</g>
	<g>
		<rect x="80.049" y="477.984" fill="#C0DDE7" width="281.738" height="7.2"/>
	</g>
	<g>
		<rect x="80.049" y="60.569" fill="#C0DDE7" width="281.738" height="7.2"/>
	</g>
	<g>
		<rect x="80.049" y="74.483" fill="#C0DDE7" width="281.738" height="7.2"/>
	</g>
	<g>
		<rect x="80.049" y="144.053" fill="#C0DDE7" width="281.738" height="7.199"/>
	</g>
	<g>
		<rect x="80.049" y="88.397" fill="#C0DDE7" width="281.738" height="7.199"/>
	</g>
	<g>
		<rect x="80.049" y="102.311" fill="#C0DDE7" width="281.738" height="7.2"/>
	</g>
	<g>
		<rect x="80.049" y="116.225" fill="#C0DDE7" width="281.738" height="7.199"/>
	</g>
	<g>
		<rect x="80.049" y="130.139" fill="#C0DDE7" width="281.738" height="7.199"/>
	</g>
	<g>
		<g>
			<polygon fill="#7C5904" points="218.223,67.77 80.153,67.77 80.153,60.57 218.223,60.57 222.372,64.17 			"/>
		</g>
		<g>
			<polygon fill="#7C5904" points="223.614,60.57 361.684,60.57 361.684,67.77 223.614,67.77 227.762,64.17 			"/>
		</g>
	</g>
	<g>
		<g>
			<polygon fill="#7C5904" points="218.223,81.684 80.153,81.684 80.153,74.484 218.223,74.484 222.372,78.084 			"/>
		</g>
		<g>
			<polygon fill="#7C5904" points="223.614,74.484 361.684,74.484 361.684,81.684 223.614,81.684 227.762,78.084 			"/>
		</g>
	</g>
	<g>
		<g>
			<polygon fill="#7C5904" points="218.223,151.252 80.153,151.252 80.153,144.053 218.223,144.053 222.372,147.652 			"/>
		</g>
		<g>
			<polygon fill="#7C5904" points="223.614,144.053 361.684,144.053 361.684,151.252 223.614,151.252 227.762,147.652 			"/>
		</g>
	</g>
	<g>
		<g>
			<polygon fill="#7C5904" points="218.223,95.597 80.153,95.597 80.153,88.397 218.223,88.397 222.372,91.997 			"/>
		</g>
		<g>
			<polygon fill="#7C5904" points="223.614,88.397 361.684,88.397 361.684,95.597 223.614,95.597 227.762,91.997 			"/>
		</g>
	</g>
	<g>
		<g>
			<polygon fill="#7C5904" points="218.223,109.511 80.153,109.511 80.153,102.312 218.223,102.312 222.372,105.911 			"/>
		</g>
		<g>
			<polygon fill="#7C5904" points="223.614,102.312 361.684,102.312 361.684,109.511 223.614,109.511 227.762,105.911 			"/>
		</g>
	</g>
	<g>
		<g>
			<polygon fill="#7C5904" points="218.223,123.424 80.153,123.424 80.153,116.224 218.223,116.224 222.372,119.824 			"/>
		</g>
		<g>
			<polygon fill="#7C5904" points="223.614,116.224 361.684,116.224 361.684,123.424 223.614,123.424 227.762,119.824 			"/>
		</g>
	</g>
	<g>
		<g>
			<polygon fill="#7C5904" points="218.223,137.338 80.153,137.338 80.153,130.138 218.223,130.138 222.372,133.738 			"/>
		</g>
		<g>
			<polygon fill="#7C5904" points="223.614,130.138 361.684,130.138 361.684,137.338 223.614,137.338 227.762,133.738 			"/>
		</g>
	</g>
	<g>
		<g>
			<polygon fill="#7C5904" points="218.223,179.08 80.153,179.08 80.153,171.88 218.223,171.88 222.372,175.48 			"/>
		</g>
		<g>
			<polygon fill="#7C5904" points="223.614,171.88 361.684,171.88 361.684,179.08 223.614,179.08 227.762,175.48 			"/>
		</g>
	</g>
	<g>
		<g>
			<polygon fill="#7C5904" points="218.223,192.993 80.153,192.993 80.153,185.794 218.223,185.794 222.372,189.394 			"/>
		</g>
		<g>
			<polygon fill="#7C5904" points="223.614,185.794 361.684,185.794 361.684,192.993 223.614,192.993 227.762,189.394 			"/>
		</g>
	</g>
	<g>
		<g>
			<polygon fill="#7C5904" points="218.223,262.562 80.153,262.562 80.153,255.363 218.223,255.363 222.372,258.962 			"/>
		</g>
		<g>
			<polygon fill="#7C5904" points="223.614,255.363 361.684,255.363 361.684,262.562 223.614,262.562 227.762,258.962 			"/>
		</g>
	</g>
	<g>
		<g>
			<polygon fill="#7C5904" points="218.223,206.907 80.153,206.907 80.153,199.708 218.223,199.708 222.372,203.308 			"/>
		</g>
		<g>
			<polygon fill="#7C5904" points="223.614,199.708 361.684,199.708 361.684,206.907 223.614,206.907 227.762,203.308 			"/>
		</g>
	</g>
	<g>
		<g>
			<polygon fill="#7C5904" points="218.223,220.821 80.153,220.821 80.153,213.622 218.223,213.622 222.372,217.221 			"/>
		</g>
		<g>
			<polygon fill="#7C5904" points="223.614,213.622 361.684,213.622 361.684,220.821 223.614,220.821 227.762,217.221 			"/>
		</g>
	</g>
	<g>
		<g>
			<polygon fill="#7C5904" points="218.223,234.735 80.153,234.735 80.153,227.535 218.223,227.535 222.372,231.135 			"/>
		</g>
		<g>
			<polygon fill="#7C5904" points="223.614,227.535 361.684,227.535 361.684,234.735 223.614,234.735 227.762,231.135 			"/>
		</g>
	</g>
	<g>
		<g>
			<polygon fill="#7C5904" points="218.223,248.65 80.153,248.65 80.153,241.45 218.223,241.45 222.372,245.049 			"/>
		</g>
		<g>
			<polygon fill="#7C5904" points="223.614,241.45 361.684,241.45 361.684,248.65 223.614,248.65 227.762,245.049 			"/>
		</g>
	</g>
	<g>
		<g>
			<polygon fill="#7C5904" points="218.223,290.542 80.153,290.542 80.153,283.343 218.223,283.343 222.372,286.943 			"/>
		</g>
		<g>
			<polygon fill="#7C5904" points="223.614,283.343 361.684,283.343 361.684,290.542 223.614,290.542 227.762,286.943 			"/>
		</g>
	</g>
	<g>
		<g>
			<polygon fill="#7C5904" points="218.223,304.477 80.153,304.477 80.153,297.278 218.223,297.278 222.372,300.877 			"/>
		</g>
		<g>
			<polygon fill="#7C5904" points="223.614,297.278 361.684,297.278 361.684,304.477 223.614,304.477 227.762,300.877 			"/>
		</g>
	</g>
	<g>
		<g>
			<polygon fill="#7C5904" points="218.223,374.147 80.153,374.147 80.153,366.948 218.223,366.948 222.372,370.548 			"/>
		</g>
		<g>
			<polygon fill="#7C5904" points="223.614,366.948 361.684,366.948 361.684,374.147 223.614,374.147 227.762,370.548 			"/>
		</g>
	</g>
	<g>
		<g>
			<polygon fill="#7C5904" points="218.223,318.411 80.153,318.411 80.153,311.212 218.223,311.212 222.372,314.812 			"/>
		</g>
		<g>
			<polygon fill="#7C5904" points="223.614,311.212 361.684,311.212 361.684,318.411 223.614,318.411 227.762,314.812 			"/>
		</g>
	</g>
	<g>
		<g>
			<polygon fill="#7C5904" points="218.223,332.345 80.153,332.345 80.153,325.146 218.223,325.146 222.372,328.745 			"/>
		</g>
		<g>
			<polygon fill="#7C5904" points="223.614,325.146 361.684,325.146 361.684,332.345 223.614,332.345 227.762,328.745 			"/>
		</g>
	</g>
	<g>
		<g>
			<polygon fill="#7C5904" points="218.223,346.28 80.153,346.28 80.153,339.08 218.223,339.08 222.372,342.679 			"/>
		</g>
		<g>
			<polygon fill="#7C5904" points="223.614,339.08 361.684,339.08 361.684,346.28 223.614,346.28 227.762,342.679 			"/>
		</g>
	</g>
	<g>
		<g>
			<polygon fill="#7C5904" points="218.223,360.214 80.153,360.214 80.153,353.014 218.223,353.014 222.372,356.613 			"/>
		</g>
		<g>
			<polygon fill="#7C5904" points="223.614,353.014 361.684,353.014 361.684,360.214 223.614,360.214 227.762,356.613 			"/>
		</g>
	</g>
	<g>
		<g>
			<polygon fill="#7C5904" points="218.223,401.542 80.153,401.542 80.153,394.343 218.223,394.343 222.372,397.943 			"/>
		</g>
		<g>
			<polygon fill="#7C5904" points="223.614,394.343 361.684,394.343 361.684,401.542 223.614,401.542 227.762,397.943 			"/>
		</g>
	</g>
	<g>
		<g>
			<polygon fill="#7C5904" points="218.223,415.477 80.153,415.477 80.153,408.278 218.223,408.278 222.372,411.877 			"/>
		</g>
		<g>
			<polygon fill="#7C5904" points="223.614,408.278 361.684,408.278 361.684,415.477 223.614,415.477 227.762,411.877 			"/>
		</g>
	</g>
	<g>
		<g>
			<polygon fill="#7C5904" points="218.223,485.147 80.153,485.147 80.153,477.948 218.223,477.948 222.372,481.548 			"/>
		</g>
		<g>
			<polygon fill="#7C5904" points="223.614,477.948 361.684,477.948 361.684,485.147 223.614,485.147 227.762,481.548 			"/>
		</g>
	</g>
	<g>
		<g>
			<polygon fill="#7C5904" points="218.223,429.411 80.153,429.411 80.153,422.212 218.223,422.212 222.372,425.812 			"/>
		</g>
		<g>
			<polygon fill="#7C5904" points="223.614,422.212 361.684,422.212 361.684,429.411 223.614,429.411 227.762,425.812 			"/>
		</g>
	</g>
	<g>
		<g>
			<polygon fill="#7C5904" points="218.223,443.345 80.153,443.345 80.153,436.146 218.223,436.146 222.372,439.745 			"/>
		</g>
		<g>
			<polygon fill="#7C5904" points="223.614,436.146 361.684,436.146 361.684,443.345 223.614,443.345 227.762,439.745 			"/>
		</g>
	</g>
	<g>
		<g>
			<polygon fill="#7C5904" points="218.223,457.28 80.153,457.28 80.153,450.08 218.223,450.08 222.372,453.679 			"/>
		</g>
		<g>
			<polygon fill="#7C5904" points="223.614,450.08 361.684,450.08 361.684,457.28 223.614,457.28 227.762,453.679 			"/>
		</g>
	</g>
	<g>
		<g>
			<polygon fill="#7C5904" points="218.223,471.214 80.153,471.214 80.153,464.014 218.223,464.014 222.372,467.613 			"/>
		</g>
		<g>
			<polygon fill="#7C5904" points="223.614,464.014 361.684,464.014 361.684,471.214 223.614,471.214 227.762,467.613 			"/>
		</g>
	</g>
	<g>
		<path fill="#C63706" d="M63.149,66.993c-0.958-0.194-1.843-0.552-2.655-1.072c-0.812-0.521-1.517-1.162-2.111-1.926
			c-0.596-0.764-1.06-1.627-1.393-2.589c-0.333-0.962-0.5-1.982-0.5-3.061c0-0.816,0.097-1.601,0.292-2.353
			c0.195-0.753,0.468-1.456,0.82-2.111s0.776-1.251,1.275-1.786c0.498-0.535,1.052-0.993,1.662-1.376
			c0.609-0.381,1.267-0.677,1.971-0.887s1.441-0.314,2.212-0.314s1.51,0.104,2.218,0.314c0.707,0.21,1.366,0.506,1.977,0.887
			c0.61,0.383,1.164,0.841,1.662,1.376c0.498,0.535,0.924,1.131,1.28,1.786c0.355,0.655,0.63,1.358,0.825,2.111
			c0.195,0.752,0.292,1.536,0.292,2.353c0,1.093-0.172,2.126-0.517,3.1c-0.344,0.974-0.821,1.846-1.431,2.616
			c-0.61,0.771-1.335,1.416-2.173,1.932c-0.838,0.518-1.748,0.861-2.729,1.033c0.231,0.098,0.462,0.204,0.69,0.32
			s0.459,0.225,0.691,0.326c0.232,0.101,0.462,0.187,0.691,0.258c0.228,0.071,0.462,0.11,0.701,0.118c0.232,0,0.459-0.03,0.68-0.09
			c0.221-0.06,0.421-0.153,0.601-0.28c0.18-0.128,0.335-0.293,0.466-0.494c0.131-0.203,0.219-0.449,0.264-0.742l2.504,1.247
			c-0.067,0.547-0.223,1.041-0.466,1.482s-0.556,0.819-0.938,1.134c-0.382,0.314-0.816,0.559-1.303,0.73s-1.003,0.258-1.55,0.258
			c-0.442,0-0.886-0.084-1.331-0.252c-0.445-0.169-0.876-0.353-1.291-0.551c-0.416-0.198-0.807-0.382-1.174-0.55
			c-0.367-0.169-0.689-0.253-0.966-0.253c-0.12,0-0.227-0.002-0.32-0.006c-0.094-0.004-0.185-0.004-0.275,0
			s-0.189,0.016-0.298,0.034c-0.108,0.019-0.234,0.054-0.376,0.106L63.149,66.993z M64.722,63.635c0.651,0,1.249-0.141,1.792-0.422
			c0.542-0.28,1.009-0.662,1.398-1.146c0.389-0.482,0.691-1.044,0.904-1.685c0.214-0.64,0.32-1.319,0.32-2.038
			c0-0.727-0.108-1.411-0.326-2.056c-0.217-0.644-0.522-1.207-0.916-1.689c-0.393-0.483-0.859-0.865-1.398-1.146
			c-0.539-0.281-1.13-0.421-1.774-0.421s-1.235,0.14-1.774,0.421c-0.539,0.28-1.003,0.662-1.393,1.146
			c-0.389,0.482-0.694,1.046-0.916,1.689c-0.221,0.645-0.331,1.329-0.331,2.056c0,0.719,0.11,1.398,0.331,2.038
			c0.221,0.641,0.526,1.202,0.916,1.685c0.389,0.483,0.854,0.865,1.393,1.146C63.487,63.495,64.078,63.635,64.722,63.635z"/>
	</g>
	<g>
		<path fill="#398EB0" d="M69.337,178.367v-2.92c-0.464,0.816-0.917,1.415-1.358,1.797c-0.442,0.382-0.941,0.688-1.5,0.921
			s-1.304,0.345-2.24,0.337c-0.465-0.008-0.928-0.062-1.393-0.163c-0.464-0.101-0.914-0.243-1.348-0.427
			c-0.435-0.184-0.859-0.404-1.274-0.662c-0.416-0.259-0.792-0.557-1.129-0.893c-0.831-0.839-1.477-1.811-1.938-2.915
			c-0.46-1.104-0.69-2.308-0.69-3.61c0-0.801,0.097-1.576,0.292-2.324c0.195-0.749,0.468-1.449,0.82-2.101s0.777-1.245,1.275-1.78
			c0.498-0.535,1.052-0.994,1.662-1.375c0.61-0.383,1.267-0.678,1.971-0.888c0.703-0.21,1.441-0.314,2.212-0.314
			c0.883,0,1.651,0.118,2.302,0.354c0.652,0.236,1.352,0.676,2.101,1.319h2.516v3.797h-3.47c-0.344-0.532-0.668-0.918-0.972-1.157
			c-0.303-0.239-0.632-0.438-0.988-0.595c-0.355-0.158-0.852-0.236-1.488-0.236c-0.629,0-1.213,0.143-1.752,0.427
			s-1.005,0.668-1.398,1.151c-0.394,0.482-0.702,1.052-0.927,1.707s-0.337,1.327-0.337,2.016c0,0.682,0.101,1.329,0.303,1.943
			c0.202,0.613,0.509,1.166,0.921,1.656c0.411,0.49,0.891,0.866,1.438,1.129c0.546,0.262,1.13,0.393,1.752,0.393
			c0.793,0,1.486-0.232,2.078-0.696s1.018-1.097,1.28-1.897h-3.246v-3.078h7.884v9.086H69.337z"/>
	</g>
	<g>
		<path fill="#398EB0" d="M69.574,388.624c-0.038-0.262-0.129-0.509-0.275-0.74c-0.146-0.232-0.333-0.433-0.562-0.602
			c-0.228-0.168-0.486-0.301-0.774-0.398c-0.289-0.098-0.59-0.146-0.904-0.146c-0.285,0-0.55,0.03-0.797,0.09
			c-0.247,0.061-0.462,0.152-0.646,0.275c-0.183,0.124-0.329,0.283-0.438,0.478c-0.109,0.194-0.163,0.427-0.163,0.696
			c0,0.337,0.073,0.604,0.218,0.803c0.147,0.198,0.334,0.361,0.562,0.488c0.228,0.128,0.481,0.229,0.758,0.304
			c0.277,0.075,0.546,0.157,0.809,0.247l3.088,1.033c0.427,0.149,0.827,0.355,1.202,0.617c0.374,0.263,0.698,0.581,0.971,0.955
			c0.273,0.374,0.489,0.805,0.646,1.291c0.157,0.487,0.236,1.033,0.236,1.641c0,0.823-0.151,1.575-0.455,2.257
			c-0.303,0.682-0.728,1.266-1.275,1.752c-0.546,0.486-1.201,0.864-1.965,1.134c-0.764,0.27-1.61,0.404-2.538,0.404
			c-0.651,0-1.267-0.072-1.847-0.219c-0.581-0.146-1.11-0.357-1.59-0.635c-0.479-0.276-0.898-0.607-1.257-0.993
			s-0.64-0.822-0.842-1.309h-1.157v-3.38h4.065v0.695c0,0.338,0.054,0.648,0.163,0.933c0.109,0.284,0.271,0.531,0.488,0.741
			c0.218,0.21,0.491,0.372,0.82,0.488s0.715,0.174,1.157,0.174c0.674,0,1.187-0.155,1.539-0.466s0.527-0.743,0.527-1.297
			c0-0.284-0.062-0.522-0.185-0.713c-0.124-0.191-0.283-0.353-0.478-0.483s-0.412-0.241-0.652-0.331
			c-0.239-0.09-0.475-0.172-0.707-0.247l-2.572-0.831c-0.487-0.149-0.957-0.359-1.409-0.629c-0.453-0.27-0.854-0.606-1.202-1.011
			c-0.348-0.404-0.625-0.878-0.831-1.421c-0.206-0.543-0.309-1.162-0.309-1.858c0-0.809,0.15-1.529,0.449-2.162
			c0.3-0.633,0.719-1.166,1.258-1.6c0.539-0.435,1.179-0.764,1.92-0.988c0.741-0.225,1.554-0.338,2.437-0.338
			c0.696,0,1.34,0.081,1.932,0.242s1.121,0.376,1.589,0.646c0.468,0.27,0.865,0.578,1.19,0.927c0.326,0.348,0.575,0.709,0.747,1.084
			h1.123v3.391h-4.065V388.624z"/>
	</g>
	<g>
		<path fill="#C63706" d="M67.384,288.277h1.696l-0.764-2.448h-5.233l-0.764,2.448h1.797v3.077h-6.458v-3.077h1.269l4.638-13.948
			h4.503l4.537,13.948h1.236v3.077h-6.458V288.277z M63.97,282.954h3.437l-1.729-5.537L63.97,282.954z"/>
	</g>
</g>
</svg>
