<?xml version="1.0" encoding="utf-8"?>
<!-- Generator: Adobe Illustrator 16.0.4, SVG Export Plug-In . SVG Version: 6.00 Build 0)  -->
<!DOCTYPE svg PUBLIC "-//W3C//DTD SVG 1.1//EN" "http://www.w3.org/Graphics/SVG/1.1/DTD/svg11.dtd">
<svg version="1.1" id="Layer_1" xmlns="http://www.w3.org/2000/svg" xmlns:xlink="http://www.w3.org/1999/xlink" x="0px" y="0px"
	 width="448.747px" height="616.44px" viewBox="0 0 448.747 616.44" enable-background="new 0 0 448.747 616.44"
	 xml:space="preserve">
<rect x="0.5" y="0.5" fill="#FFFFFF" stroke="#C68D06" stroke-miterlimit="10" width="447.747" height="615.44"/>
<g>
	<path fill="#C68D06" d="M364.154,573.614c0-3.641,2.59-5.636,6.86-7.491c-3.535-1.575-5.671-3.255-5.671-6.405
		c0-3.186,2.976-6.266,8.05-6.266c5.181,0,8.017,3.08,8.017,6.266c0,3.08-2.065,4.69-5.741,6.336c4.411,1.925,6.93,3.78,6.93,7.561
		c0,3.676-3.394,6.791-9.206,6.791C367.549,580.405,364.154,577.359,364.154,573.614z M380.15,573.474
		c0-2.905-2.45-4.516-6.896-6.371c-4.585,2.03-6.65,3.605-6.65,6.371c0,2.835,2.835,4.83,6.79,4.83
		C377.315,578.304,380.15,576.414,380.15,573.474z M378.996,559.823c0-2.065-1.716-4.271-5.602-4.271c-3.71,0-5.634,2.1-5.634,4.165
		c0,2.45,1.785,3.676,5.74,5.391C377.385,563.427,378.996,562.238,378.996,559.823z"/>
	<path fill="#C68D06" d="M388.758,553.977h2.556l7.735,22.612h0.07l7.77-22.612h2.417l-9.102,26.008h-2.345L388.758,553.977z"/>
</g>
<g>
	<rect x="79.918" y="158.217" fill="#C0DDE7" width="281.739" height="7.199"/>
</g>
<g>
	<rect x="79.884" y="172.13" fill="#C0DDE7" width="281.738" height="7.199"/>
</g>
<g>
	<rect x="79.883" y="186.044" fill="#C0DDE7" width="281.739" height="7.2"/>
</g>
<g>
	<rect x="79.883" y="199.958" fill="#C0DDE7" width="281.739" height="7.199"/>
</g>
<g>
	<rect x="79.883" y="213.872" fill="#C0DDE7" width="281.739" height="7.199"/>
</g>
<g>
	<rect x="79.883" y="227.785" fill="#C0DDE7" width="281.739" height="7.2"/>
</g>
<g>
	<rect x="79.884" y="241.699" fill="#C0DDE7" width="281.738" height="7.199"/>
</g>
<g>
	<rect x="79.884" y="255.612" fill="#C0DDE7" width="281.738" height="7.2"/>
</g>
<g>
	<rect x="79.883" y="269.527" fill="#C0DDE7" width="281.739" height="7.199"/>
</g>
<g>
	<rect x="79.884" y="283.44" fill="#C0DDE7" width="281.738" height="7.2"/>
</g>
<g>
	<rect x="79.883" y="297.354" fill="#C0DDE7" width="281.739" height="7.2"/>
</g>
<g>
	<rect x="79.883" y="311.269" fill="#C0DDE7" width="281.739" height="7.2"/>
</g>
<g>
	<rect x="79.883" y="325.183" fill="#C0DDE7" width="281.739" height="7.199"/>
</g>
<g>
	<rect x="79.884" y="339.096" fill="#C0DDE7" width="281.738" height="7.2"/>
</g>
<g>
	<rect x="79.883" y="353.01" fill="#C0DDE7" width="281.739" height="7.2"/>
</g>
<g>
	<rect x="79.883" y="366.924" fill="#C0DDE7" width="281.739" height="7.2"/>
</g>
<g>
	<rect x="79.883" y="380.838" fill="#C0DDE7" width="281.739" height="7.199"/>
</g>
<g>
	<rect x="79.883" y="394.752" fill="#C0DDE7" width="281.739" height="7.199"/>
</g>
<g>
	<rect x="79.884" y="408.665" fill="#C0DDE7" width="281.738" height="7.199"/>
</g>
<g>
	<rect x="79.883" y="422.579" fill="#C0DDE7" width="281.739" height="7.2"/>
</g>
<g>
	<rect x="79.884" y="436.492" fill="#C0DDE7" width="281.738" height="7.2"/>
</g>
<g>
	<rect x="79.883" y="450.407" fill="#C0DDE7" width="281.739" height="7.199"/>
</g>
<g>
	<rect x="79.884" y="464.32" fill="#C0DDE7" width="281.738" height="7.199"/>
</g>
<g>
	<rect x="79.883" y="478.234" fill="#C0DDE7" width="281.739" height="7.2"/>
</g>
<g>
	<rect x="79.883" y="60.819" fill="#C0DDE7" width="281.739" height="7.2"/>
</g>
<g>
	<rect x="79.884" y="74.733" fill="#C0DDE7" width="281.738" height="7.2"/>
</g>
<g>
	<rect x="79.884" y="144.303" fill="#C0DDE7" width="281.738" height="7.199"/>
</g>
<g>
	<rect x="79.883" y="88.647" fill="#C0DDE7" width="281.739" height="7.199"/>
</g>
<g>
	<rect x="79.884" y="102.561" fill="#C0DDE7" width="281.738" height="7.2"/>
</g>
<g>
	<rect x="79.884" y="116.475" fill="#C0DDE7" width="281.738" height="7.199"/>
</g>
<g>
	<rect x="79.884" y="130.389" fill="#C0DDE7" width="281.738" height="7.199"/>
</g>
<g>
	<path fill="#398EB0" d="M69.491,166.381c-0.038-0.262-0.129-0.509-0.275-0.74c-0.146-0.232-0.333-0.433-0.562-0.602
		c-0.228-0.168-0.486-0.301-0.774-0.398c-0.289-0.098-0.59-0.146-0.904-0.146c-0.285,0-0.55,0.03-0.797,0.09
		c-0.247,0.061-0.462,0.152-0.646,0.275c-0.184,0.124-0.33,0.283-0.438,0.478c-0.109,0.194-0.163,0.427-0.163,0.696
		c0,0.337,0.073,0.604,0.219,0.803c0.146,0.198,0.333,0.361,0.562,0.488c0.229,0.128,0.481,0.229,0.758,0.304
		c0.276,0.075,0.546,0.157,0.809,0.247l3.088,1.033c0.427,0.149,0.827,0.355,1.202,0.617c0.375,0.263,0.698,0.581,0.971,0.955
		s0.489,0.805,0.646,1.291c0.157,0.487,0.236,1.033,0.236,1.641c0,0.823-0.151,1.575-0.455,2.257
		c-0.303,0.682-0.728,1.266-1.274,1.752s-1.202,0.864-1.966,1.134c-0.763,0.27-1.609,0.404-2.538,0.404
		c-0.651,0-1.267-0.072-1.847-0.219c-0.581-0.146-1.11-0.357-1.589-0.635c-0.479-0.276-0.898-0.607-1.258-0.993
		s-0.64-0.822-0.842-1.309h-1.157v-3.38h4.065v0.695c0,0.338,0.054,0.648,0.163,0.933c0.109,0.284,0.271,0.531,0.489,0.741
		c0.217,0.21,0.49,0.372,0.82,0.488s0.714,0.174,1.157,0.174c0.674,0,1.187-0.155,1.539-0.466s0.528-0.743,0.528-1.297
		c0-0.284-0.062-0.522-0.185-0.713c-0.124-0.191-0.283-0.353-0.478-0.483s-0.412-0.241-0.651-0.331s-0.476-0.172-0.708-0.247
		l-2.572-0.831c-0.487-0.149-0.957-0.359-1.409-0.629c-0.453-0.27-0.854-0.606-1.202-1.011c-0.348-0.404-0.625-0.878-0.831-1.421
		c-0.206-0.543-0.309-1.162-0.309-1.858c0-0.809,0.15-1.529,0.45-2.162s0.718-1.166,1.258-1.6c0.539-0.435,1.179-0.764,1.92-0.988
		s1.554-0.338,2.437-0.338c0.696,0,1.34,0.081,1.932,0.242s1.121,0.376,1.588,0.646c0.469,0.27,0.866,0.578,1.191,0.927
		c0.326,0.348,0.575,0.709,0.747,1.084h1.123v3.391h-4.065V166.381z"/>
</g>
<g>
	<path fill="#C63706" d="M69.459,287.784c-0.451-0.123-0.876-0.305-1.275-0.545c-0.398-0.24-0.747-0.537-1.045-0.893
		c-0.299-0.354-0.536-0.764-0.712-1.23c-0.176-0.465-0.264-0.988-0.264-1.568c0-0.615,0.123-1.191,0.369-1.727
		c0.246-0.537,0.595-1.004,1.046-1.402s0.996-0.712,1.635-0.94s1.351-0.343,2.135-0.343h6.012v2.417h-1.239v14.089h-2.575v-14.089
		h-1.512v14.089h-2.575V287.784z"/>
</g>
<g>
	<path fill="#398EB0" d="M69.459,399.035c-0.451-0.123-0.876-0.305-1.275-0.545c-0.398-0.24-0.747-0.537-1.045-0.893
		c-0.299-0.354-0.536-0.764-0.712-1.23c-0.176-0.465-0.264-0.988-0.264-1.568c0-0.615,0.123-1.191,0.369-1.727
		c0.246-0.537,0.595-1.004,1.046-1.402s0.996-0.712,1.635-0.94s1.351-0.343,2.135-0.343h6.012v2.417h-1.239v14.089h-2.575v-14.089
		h-1.512v14.089h-2.575V399.035z"/>
</g>
<g>
	<g>
		<g>
			<polygon fill="#7C5904" points="218.092,68.016 80.021,68.016 80.021,60.817 218.092,60.817 222.24,64.417 			"/>
		</g>
		<g>
			<polygon fill="#7C5904" points="223.482,60.817 361.553,60.817 361.553,68.016 223.482,68.016 227.63,64.417 			"/>
		</g>
	</g>
	<g>
		<g>
			<polygon fill="#7C5904" points="218.092,81.93 80.021,81.93 80.021,74.731 218.092,74.731 222.24,78.331 			"/>
		</g>
		<g>
			<polygon fill="#7C5904" points="223.482,74.731 361.553,74.731 361.553,81.93 223.482,81.93 227.63,78.331 			"/>
		</g>
	</g>
	<g>
		<g>
			<polygon fill="#7C5904" points="218.092,151.499 80.021,151.499 80.021,144.299 218.092,144.299 222.24,147.899 			"/>
		</g>
		<g>
			<polygon fill="#7C5904" points="223.482,144.299 361.553,144.299 361.553,151.499 223.482,151.499 227.63,147.899 			"/>
		</g>
	</g>
	<g>
		<g>
			<polygon fill="#7C5904" points="218.092,95.843 80.021,95.843 80.021,88.644 218.092,88.644 222.24,92.244 			"/>
		</g>
		<g>
			<polygon fill="#7C5904" points="223.482,88.644 361.553,88.644 361.553,95.843 223.482,95.843 227.63,92.244 			"/>
		</g>
	</g>
	<g>
		<g>
			<polygon fill="#7C5904" points="218.092,109.758 80.021,109.758 80.021,102.559 218.092,102.559 222.24,106.158 			"/>
		</g>
		<g>
			<polygon fill="#7C5904" points="223.482,102.559 361.553,102.559 361.553,109.758 223.482,109.758 227.63,106.158 			"/>
		</g>
	</g>
	<g>
		<g>
			<polygon fill="#7C5904" points="218.092,123.671 80.021,123.671 80.021,116.471 218.092,116.471 222.24,120.071 			"/>
		</g>
		<g>
			<polygon fill="#7C5904" points="223.482,116.471 361.553,116.471 361.553,123.671 223.482,123.671 227.63,120.071 			"/>
		</g>
	</g>
	<g>
		<g>
			<polygon fill="#7C5904" points="218.092,137.585 80.021,137.585 80.021,130.385 218.092,130.385 222.24,133.985 			"/>
		</g>
		<g>
			<polygon fill="#7C5904" points="223.482,130.385 361.553,130.385 361.553,137.585 223.482,137.585 227.63,133.985 			"/>
		</g>
	</g>
</g>
<g>
	<path fill="#C63706" d="M69.594,55.442c-0.038-0.262-0.129-0.509-0.275-0.74c-0.146-0.232-0.333-0.433-0.562-0.602
		c-0.228-0.168-0.486-0.301-0.774-0.398c-0.289-0.098-0.59-0.146-0.905-0.146c-0.284,0-0.55,0.03-0.797,0.09
		c-0.247,0.061-0.462,0.152-0.646,0.275c-0.183,0.124-0.329,0.283-0.438,0.478c-0.109,0.194-0.163,0.427-0.163,0.696
		c0,0.337,0.073,0.604,0.219,0.803c0.146,0.198,0.333,0.361,0.562,0.488c0.229,0.128,0.481,0.229,0.758,0.304
		s0.546,0.157,0.809,0.247l3.088,1.033c0.427,0.149,0.827,0.355,1.202,0.617c0.375,0.263,0.698,0.581,0.971,0.955
		c0.273,0.374,0.489,0.805,0.646,1.291c0.157,0.487,0.236,1.033,0.236,1.641c0,0.823-0.152,1.575-0.455,2.257
		c-0.303,0.682-0.728,1.266-1.274,1.752s-1.202,0.864-1.965,1.134s-1.61,0.404-2.538,0.404c-0.652,0-1.267-0.072-1.847-0.219
		c-0.581-0.146-1.11-0.357-1.589-0.635c-0.479-0.276-0.898-0.607-1.258-0.993s-0.64-0.822-0.842-1.309h-1.157v-3.38h4.065v0.695
		c0,0.338,0.054,0.648,0.163,0.933s0.271,0.531,0.489,0.741s0.49,0.372,0.82,0.488s0.715,0.174,1.157,0.174
		c0.674,0,1.187-0.155,1.538-0.466c0.353-0.311,0.528-0.743,0.528-1.297c0-0.284-0.062-0.522-0.185-0.713
		c-0.124-0.191-0.283-0.353-0.478-0.483c-0.195-0.131-0.412-0.241-0.651-0.331s-0.476-0.172-0.708-0.247l-2.572-0.831
		c-0.487-0.149-0.957-0.359-1.409-0.629c-0.453-0.27-0.854-0.606-1.202-1.011c-0.348-0.404-0.625-0.878-0.831-1.421
		c-0.206-0.543-0.309-1.162-0.309-1.858c0-0.809,0.15-1.529,0.449-2.162s0.719-1.166,1.258-1.6c0.539-0.435,1.179-0.764,1.92-0.988
		c0.742-0.225,1.554-0.338,2.437-0.338c0.697,0,1.341,0.081,1.932,0.242c0.591,0.161,1.121,0.376,1.589,0.646
		c0.468,0.27,0.865,0.578,1.19,0.927c0.327,0.348,0.575,0.709,0.747,1.084h1.124v3.391h-4.065V55.442z"/>
</g>
<g>
	<g>
		<g>
			<polygon fill="#7C5904" points="217.954,276.767 79.884,276.767 79.884,269.567 217.954,269.567 222.103,273.167 			"/>
		</g>
		<g>
			<polygon fill="#7C5904" points="223.345,269.567 361.416,269.567 361.416,276.767 223.345,276.767 227.492,273.167 			"/>
		</g>
	</g>
	<g>
		<g>
			<polygon fill="#7C5904" points="217.955,179.372 79.884,179.372 79.884,172.172 217.955,172.172 222.103,175.772 			"/>
		</g>
		<g>
			<polygon fill="#7C5904" points="223.345,172.172 361.416,172.172 361.416,179.372 223.345,179.372 227.493,175.772 			"/>
		</g>
	</g>
	<g>
		<g>
			<polygon fill="#7C5904" points="217.954,193.285 79.884,193.285 79.884,186.086 217.954,186.086 222.103,189.686 			"/>
		</g>
		<g>
			<polygon fill="#7C5904" points="223.345,186.086 361.416,186.086 361.416,193.285 223.345,193.285 227.492,189.686 			"/>
		</g>
	</g>
	<g>
		<g>
			<polygon fill="#7C5904" points="217.954,262.853 79.884,262.853 79.884,255.653 217.954,255.653 222.103,259.253 			"/>
		</g>
		<g>
			<polygon fill="#7C5904" points="223.345,255.653 361.416,255.653 361.416,262.853 223.345,262.853 227.492,259.253 			"/>
		</g>
	</g>
	<g>
		<g>
			<polygon fill="#7C5904" points="217.954,207.199 79.884,207.199 79.884,200 217.954,200 222.103,203.6 			"/>
		</g>
		<g>
			<polygon fill="#7C5904" points="223.345,200 361.416,200 361.416,207.199 223.345,207.199 227.492,203.6 			"/>
		</g>
	</g>
	<g>
		<g>
			<polygon fill="#7C5904" points="217.954,221.113 79.884,221.113 79.884,213.914 217.954,213.914 222.103,217.513 			"/>
		</g>
		<g>
			<polygon fill="#7C5904" points="223.345,213.914 361.416,213.914 361.416,221.113 223.345,221.113 227.492,217.513 			"/>
		</g>
	</g>
	<g>
		<g>
			<polygon fill="#7C5904" points="217.954,235.026 79.884,235.026 79.884,227.826 217.954,227.826 222.103,231.426 			"/>
		</g>
		<g>
			<polygon fill="#7C5904" points="223.345,227.826 361.416,227.826 361.416,235.026 223.345,235.026 227.492,231.426 			"/>
		</g>
	</g>
	<g>
		<g>
			<polygon fill="#7C5904" points="217.954,248.94 79.884,248.94 79.884,241.741 217.954,241.741 222.103,245.34 			"/>
		</g>
		<g>
			<polygon fill="#7C5904" points="223.345,241.741 361.416,241.741 361.416,248.94 223.345,248.94 227.492,245.34 			"/>
		</g>
	</g>
	<g>
		<g>
			<polygon fill="#7C5904" points="217.955,290.833 79.884,290.833 79.884,283.633 217.955,283.633 222.103,287.233 			"/>
		</g>
		<g>
			<polygon fill="#7C5904" points="223.345,283.633 361.416,283.633 361.416,290.833 223.345,290.833 227.493,287.233 			"/>
		</g>
	</g>
	<g>
		<g>
			<polygon fill="#7C5904" points="217.954,304.766 79.884,304.766 79.884,297.567 217.954,297.567 222.103,301.167 			"/>
		</g>
		<g>
			<polygon fill="#7C5904" points="223.345,297.567 361.416,297.567 361.416,304.766 223.345,304.766 227.492,301.167 			"/>
		</g>
	</g>
	<g>
		<g>
			<polygon fill="#7C5904" points="217.954,374.436 79.884,374.436 79.884,367.236 217.954,367.236 222.103,370.836 			"/>
		</g>
		<g>
			<polygon fill="#7C5904" points="223.345,367.236 361.416,367.236 361.416,374.436 223.345,374.436 227.492,370.836 			"/>
		</g>
	</g>
	<g>
		<g>
			<polygon fill="#7C5904" points="217.954,388.074 79.884,388.074 79.884,380.876 217.954,380.876 222.103,384.475 			"/>
		</g>
		<g>
			<polygon fill="#7C5904" points="223.345,380.876 361.416,380.876 361.416,388.074 223.345,388.074 227.492,384.475 			"/>
		</g>
	</g>
	<g>
		<g>
			<polygon fill="#7C5904" points="217.954,318.7 79.884,318.7 79.884,311.501 217.954,311.501 222.103,315.101 			"/>
		</g>
		<g>
			<polygon fill="#7C5904" points="223.345,311.501 361.416,311.501 361.416,318.7 223.345,318.7 227.492,315.101 			"/>
		</g>
	</g>
	<g>
		<g>
			<polygon fill="#7C5904" points="217.954,332.634 79.884,332.634 79.884,325.435 217.954,325.435 222.103,329.033 			"/>
		</g>
		<g>
			<polygon fill="#7C5904" points="223.345,325.435 361.416,325.435 361.416,332.634 223.345,332.634 227.492,329.033 			"/>
		</g>
	</g>
	<g>
		<g>
			<polygon fill="#7C5904" points="217.954,346.568 79.884,346.568 79.884,339.368 217.954,339.368 222.103,342.968 			"/>
		</g>
		<g>
			<polygon fill="#7C5904" points="223.345,339.368 361.416,339.368 361.416,346.568 223.345,346.568 227.492,342.968 			"/>
		</g>
	</g>
	<g>
		<g>
			<polygon fill="#7C5904" points="217.954,360.502 79.884,360.502 79.884,353.302 217.954,353.302 222.103,356.901 			"/>
		</g>
		<g>
			<polygon fill="#7C5904" points="223.345,353.302 361.416,353.302 361.416,360.502 223.345,360.502 227.492,356.901 			"/>
		</g>
	</g>
	<g>
		<g>
			<polygon fill="#7C5904" points="217.955,401.83 79.884,401.83 79.884,394.631 217.955,394.631 222.103,398.23 			"/>
		</g>
		<g>
			<polygon fill="#7C5904" points="223.345,394.631 361.416,394.631 361.416,401.83 223.345,401.83 227.493,398.23 			"/>
		</g>
	</g>
	<g>
		<g>
			<polygon fill="#7C5904" points="217.954,415.765 79.884,415.765 79.884,408.565 217.954,408.565 222.103,412.165 			"/>
		</g>
		<g>
			<polygon fill="#7C5904" points="223.345,408.565 361.416,408.565 361.416,415.765 223.345,415.765 227.492,412.165 			"/>
		</g>
	</g>
	<g>
		<g>
			<polygon fill="#7C5904" points="217.954,485.435 79.884,485.435 79.884,478.235 217.954,478.235 222.103,481.835 			"/>
		</g>
		<g>
			<polygon fill="#7C5904" points="223.345,478.235 227.492,481.835 223.345,485.435 357.267,485.435 361.416,481.835 
				357.267,478.235 			"/>
		</g>
	</g>
	<g>
		<g>
			<polygon fill="#7C5904" points="217.954,429.698 79.884,429.698 79.884,422.499 217.954,422.499 222.103,426.099 			"/>
		</g>
		<g>
			<polygon fill="#7C5904" points="223.345,422.499 361.416,422.499 361.416,429.698 223.345,429.698 227.492,426.099 			"/>
		</g>
	</g>
	<g>
		<g>
			<polygon fill="#7C5904" points="217.954,443.633 79.884,443.633 79.884,436.434 217.954,436.434 222.103,440.032 			"/>
		</g>
		<g>
			<polygon fill="#7C5904" points="223.345,436.434 361.416,436.434 361.416,443.633 223.345,443.633 227.492,440.032 			"/>
		</g>
	</g>
	<g>
		<g>
			<polygon fill="#7C5904" points="217.954,457.567 79.884,457.567 79.884,450.367 217.954,450.367 222.103,453.967 			"/>
		</g>
		<g>
			<polygon fill="#7C5904" points="223.345,450.367 361.416,450.367 361.416,457.567 223.345,457.567 227.492,453.967 			"/>
		</g>
	</g>
	<g>
		<g>
			<polygon fill="#7C5904" points="217.954,471.501 79.884,471.501 79.884,464.301 217.954,464.301 222.103,467.9 			"/>
		</g>
		<g>
			<polygon fill="#7C5904" points="223.345,464.301 361.416,464.301 361.416,471.501 223.345,471.501 227.492,467.9 			"/>
		</g>
	</g>
</g>
</svg>
