<?xml version="1.0" encoding="utf-8"?>
<!-- Generator: Adobe Illustrator 16.0.4, SVG Export Plug-In . SVG Version: 6.00 Build 0)  -->
<!DOCTYPE svg PUBLIC "-//W3C//DTD SVG 1.1//EN" "http://www.w3.org/Graphics/SVG/1.1/DTD/svg11.dtd">
<svg version="1.1" id="Layer_1" xmlns="http://www.w3.org/2000/svg" xmlns:xlink="http://www.w3.org/1999/xlink" x="0px" y="0px"
	 width="448.747px" height="616.439px" viewBox="0 0 448.747 616.439" enable-background="new 0 0 448.747 616.439"
	 xml:space="preserve">
<rect x="0.5" y="0.5" fill="#FFFFFF" stroke="#C68D06" stroke-miterlimit="10" width="447.747" height="615.439"/>
<g>
	<path fill="#C68D06" d="M365.159,580.313l1.26-1.855c1.506,1.226,2.871,1.996,5.426,1.996c4.726,0,7.631-5.006,7.631-11.481
		c-1.646,1.785-4.061,3.465-7.351,3.465c-5.461,0-8.086-3.395-8.086-8.085c0-4.9,3.465-8.611,8.681-8.611
		c5.11,0,9.171,4.095,9.171,12.987c0,7.98-4.165,13.896-10.116,13.896C368.765,582.624,366.629,581.608,365.159,580.313z
		 M379.405,566.487c-0.524-6.02-3.395-8.576-6.825-8.576c-3.676,0-6.126,2.311-6.126,6.406c0,3.465,1.75,5.986,5.951,5.986
		C375.275,570.303,377.83,568.692,379.405,566.487z"/>
	<path fill="#C68D06" d="M388.608,556.231h2.556l7.735,22.612h0.07l7.771-22.612h2.416l-9.102,26.008h-2.345L388.608,556.231z"/>
</g>
<g>
	<rect x="80.216" y="157.966" fill="#C0DDE7" width="281.738" height="7.199"/>
</g>
<g>
	<rect x="80.216" y="171.879" fill="#C0DDE7" width="281.738" height="7.2"/>
</g>
<g>
	<rect x="80.216" y="185.793" fill="#C0DDE7" width="281.738" height="7.2"/>
</g>
<g>
	<rect x="80.216" y="199.708" fill="#C0DDE7" width="281.738" height="7.199"/>
</g>
<g>
	<rect x="80.216" y="213.622" fill="#C0DDE7" width="281.738" height="7.199"/>
</g>
<g>
	<rect x="80.216" y="227.535" fill="#C0DDE7" width="281.738" height="7.199"/>
</g>
<g>
	<rect x="80.216" y="241.449" fill="#C0DDE7" width="281.738" height="7.199"/>
</g>
<g>
	<rect x="80.216" y="255.362" fill="#C0DDE7" width="281.738" height="7.2"/>
</g>
<g>
	<rect x="80.216" y="269.276" fill="#C0DDE7" width="281.738" height="7.199"/>
</g>
<g>
	<rect x="80.216" y="283.19" fill="#C0DDE7" width="281.738" height="7.2"/>
</g>
<g>
	<rect x="80.216" y="297.104" fill="#C0DDE7" width="281.738" height="7.2"/>
</g>
<g>
	<rect x="80.216" y="311.018" fill="#C0DDE7" width="281.738" height="7.2"/>
</g>
<g>
	<rect x="80.216" y="324.932" fill="#C0DDE7" width="281.738" height="7.199"/>
</g>
<g>
	<rect x="80.216" y="338.845" fill="#C0DDE7" width="281.738" height="7.2"/>
</g>
<g>
	<rect x="80.216" y="352.759" fill="#C0DDE7" width="281.738" height="7.201"/>
</g>
<g>
	<rect x="80.216" y="366.673" fill="#C0DDE7" width="281.738" height="7.2"/>
</g>
<g>
	<rect x="80.216" y="380.587" fill="#C0DDE7" width="281.738" height="7.199"/>
</g>
<g>
	<rect x="80.216" y="394.501" fill="#C0DDE7" width="281.738" height="7.199"/>
</g>
<g>
	<rect x="80.216" y="408.415" fill="#C0DDE7" width="281.738" height="7.199"/>
</g>
<g>
	<rect x="80.216" y="422.328" fill="#C0DDE7" width="281.738" height="7.2"/>
</g>
<g>
	<rect x="80.216" y="436.242" fill="#C0DDE7" width="281.738" height="7.201"/>
</g>
<g>
	<rect x="80.216" y="450.156" fill="#C0DDE7" width="281.738" height="7.2"/>
</g>
<g>
	<rect x="80.216" y="464.07" fill="#C0DDE7" width="281.738" height="7.199"/>
</g>
<g>
	<rect x="80.216" y="477.983" fill="#C0DDE7" width="281.738" height="7.201"/>
</g>
<g>
	<rect x="80.216" y="60.568" fill="#C0DDE7" width="281.738" height="7.2"/>
</g>
<g>
	<rect x="80.216" y="74.482" fill="#C0DDE7" width="281.738" height="7.201"/>
</g>
<g>
	<rect x="80.216" y="144.052" fill="#C0DDE7" width="281.738" height="7.2"/>
</g>
<g>
	<rect x="80.216" y="88.396" fill="#C0DDE7" width="281.738" height="7.199"/>
</g>
<g>
	<rect x="80.216" y="102.31" fill="#C0DDE7" width="281.738" height="7.201"/>
</g>
<g>
	<rect x="80.216" y="116.224" fill="#C0DDE7" width="281.738" height="7.199"/>
</g>
<g>
	<rect x="80.216" y="130.139" fill="#C0DDE7" width="281.738" height="7.198"/>
</g>
<g>
	<g>
		<polygon fill="#7C5904" points="218.39,81.683 80.32,81.683 80.32,74.483 218.39,74.483 222.539,78.084 		"/>
	</g>
	<g>
		<polygon fill="#7C5904" points="223.781,74.483 361.851,74.483 361.851,81.683 223.781,81.683 227.929,78.084 		"/>
	</g>
</g>
<g>
	<g>
		<polygon fill="#7C5904" points="218.39,95.596 80.32,95.596 80.32,88.396 218.39,88.396 222.539,91.996 		"/>
	</g>
	<g>
		<polygon fill="#7C5904" points="223.781,88.396 361.851,88.396 361.851,95.596 223.781,95.596 227.929,91.996 		"/>
	</g>
</g>
<g>
	<g>
		<polygon fill="#7C5904" points="218.39,109.511 80.32,109.511 80.32,102.312 218.39,102.312 222.539,105.91 		"/>
	</g>
	<g>
		<polygon fill="#7C5904" points="223.781,102.312 361.851,102.312 361.851,109.511 223.781,109.511 227.929,105.91 		"/>
	</g>
</g>
<g>
	<g>
		<polygon fill="#7C5904" points="218.39,123.423 80.32,123.423 80.32,116.223 218.39,116.223 222.539,119.823 		"/>
	</g>
	<g>
		<polygon fill="#7C5904" points="223.781,116.223 361.851,116.223 361.851,123.423 223.781,123.423 227.929,119.823 		"/>
	</g>
</g>
<g>
	<g>
		<polygon fill="#7C5904" points="218.39,137.337 80.32,137.337 80.32,130.137 218.39,130.137 222.539,133.737 		"/>
	</g>
	<g>
		<polygon fill="#7C5904" points="223.781,130.137 361.851,130.137 361.851,137.337 223.781,137.337 227.929,133.737 		"/>
	</g>
</g>
<g>
	<g>
		<polygon fill="#7C5904" points="218.39,179.079 80.32,179.079 80.32,171.879 218.39,171.879 222.539,175.48 		"/>
	</g>
	<g>
		<polygon fill="#7C5904" points="223.781,171.879 361.851,171.879 361.851,179.079 223.781,179.079 227.929,175.48 		"/>
	</g>
</g>
<g>
	<g>
		<polygon fill="#7C5904" points="218.39,192.992 80.32,192.992 80.32,185.793 218.39,185.793 222.539,189.394 		"/>
	</g>
	<g>
		<polygon fill="#7C5904" points="223.781,185.793 361.851,185.793 361.851,192.992 223.781,192.992 227.929,189.394 		"/>
	</g>
</g>
<g>
	<g>
		<polygon fill="#7C5904" points="218.39,262.561 80.32,262.561 80.32,255.362 218.39,255.362 222.539,258.961 		"/>
	</g>
	<g>
		<polygon fill="#7C5904" points="223.781,255.362 361.851,255.362 361.851,262.561 223.781,262.561 227.929,258.961 		"/>
	</g>
</g>
<g>
	<g>
		<polygon fill="#7C5904" points="218.39,206.907 80.32,206.907 80.32,199.708 218.39,199.708 222.539,203.307 		"/>
	</g>
	<g>
		<polygon fill="#7C5904" points="223.781,199.708 361.851,199.708 361.851,206.907 223.781,206.907 227.929,203.307 		"/>
	</g>
</g>
<g>
	<g>
		<polygon fill="#7C5904" points="218.39,220.821 80.32,220.821 80.32,213.622 218.39,213.622 222.539,217.22 		"/>
	</g>
	<g>
		<polygon fill="#7C5904" points="223.781,213.622 361.851,213.622 361.851,220.821 223.781,220.821 227.929,217.22 		"/>
	</g>
</g>
<g>
	<g>
		<polygon fill="#7C5904" points="218.39,234.734 80.32,234.734 80.32,227.535 218.39,227.535 222.539,231.134 		"/>
	</g>
	<g>
		<polygon fill="#7C5904" points="223.781,227.535 361.851,227.535 361.851,234.734 223.781,234.734 227.929,231.134 		"/>
	</g>
</g>
<g>
	<g>
		<polygon fill="#7C5904" points="218.39,248.649 80.32,248.649 80.32,241.449 218.39,241.449 222.539,245.048 		"/>
	</g>
	<g>
		<polygon fill="#7C5904" points="223.781,241.449 361.851,241.449 361.851,248.649 223.781,248.649 227.929,245.048 		"/>
	</g>
</g>
<g>
	<g>
		<polygon fill="#7C5904" points="218.39,290.542 80.32,290.542 80.32,283.343 218.39,283.343 222.539,286.942 		"/>
	</g>
	<g>
		<polygon fill="#7C5904" points="223.781,283.343 361.852,283.343 361.852,290.542 223.781,290.542 227.929,286.942 		"/>
	</g>
</g>
<g>
	<g>
		<polygon fill="#7C5904" points="218.39,304.476 80.32,304.476 80.32,297.277 218.39,297.277 222.539,300.876 		"/>
	</g>
	<g>
		<polygon fill="#7C5904" points="223.781,297.277 361.851,297.277 361.851,304.476 223.781,304.476 227.929,300.876 		"/>
	</g>
</g>
<g>
	<g>
		<polygon fill="#7C5904" points="218.39,374.146 80.32,374.146 80.32,366.947 218.39,366.947 222.539,370.547 		"/>
	</g>
	<g>
		<polygon fill="#7C5904" points="223.781,366.947 361.851,366.947 361.851,374.146 223.781,374.146 227.929,370.547 		"/>
	</g>
</g>
<g>
	<g>
		<polygon fill="#7C5904" points="218.39,318.41 80.32,318.41 80.32,311.211 218.39,311.211 222.539,314.811 		"/>
	</g>
	<g>
		<polygon fill="#7C5904" points="223.781,311.211 361.851,311.211 361.851,318.41 223.781,318.41 227.929,314.811 		"/>
	</g>
</g>
<g>
	<g>
		<polygon fill="#7C5904" points="218.39,332.344 80.32,332.344 80.32,325.145 218.39,325.145 222.539,328.744 		"/>
	</g>
	<g>
		<polygon fill="#7C5904" points="223.781,325.145 361.851,325.145 361.851,332.344 223.781,332.344 227.929,328.744 		"/>
	</g>
</g>
<g>
	<g>
		<polygon fill="#7C5904" points="218.39,346.279 80.32,346.279 80.32,339.079 218.39,339.079 222.539,342.679 		"/>
	</g>
	<g>
		<polygon fill="#7C5904" points="223.781,339.079 361.851,339.079 361.851,346.279 223.781,346.279 227.929,342.679 		"/>
	</g>
</g>
<g>
	<g>
		<polygon fill="#7C5904" points="218.39,360.213 80.32,360.213 80.32,353.013 218.39,353.013 222.539,356.613 		"/>
	</g>
	<g>
		<polygon fill="#7C5904" points="223.781,353.013 361.851,353.013 361.851,360.213 223.781,360.213 227.929,356.613 		"/>
	</g>
</g>
<g>
	<g>
		<polygon fill="#7C5904" points="218.39,401.542 80.32,401.542 80.32,394.343 218.39,394.343 222.539,397.942 		"/>
	</g>
	<g>
		<polygon fill="#7C5904" points="223.781,394.343 361.852,394.343 361.852,401.542 223.781,401.542 227.929,397.942 		"/>
	</g>
</g>
<g>
	<g>
		<polygon fill="#7C5904" points="218.39,415.476 80.32,415.476 80.32,408.277 218.39,408.277 222.539,411.876 		"/>
	</g>
	<g>
		<polygon fill="#7C5904" points="223.781,408.277 361.851,408.277 361.851,415.476 223.781,415.476 227.929,411.876 		"/>
	</g>
</g>
<g>
	<g>
		<polygon fill="#7C5904" points="218.39,485.146 80.32,485.146 80.32,477.947 218.39,477.947 222.539,481.547 		"/>
	</g>
	<g>
		<polygon fill="#7C5904" points="223.781,477.947 361.851,477.947 361.851,485.146 223.781,485.146 227.929,481.547 		"/>
	</g>
</g>
<g>
	<g>
		<polygon fill="#7C5904" points="218.39,429.41 80.32,429.41 80.32,422.211 218.39,422.211 222.539,425.811 		"/>
	</g>
	<g>
		<polygon fill="#7C5904" points="223.781,422.211 361.851,422.211 361.851,429.41 223.781,429.41 227.929,425.811 		"/>
	</g>
</g>
<g>
	<g>
		<polygon fill="#7C5904" points="218.39,443.344 80.32,443.344 80.32,436.145 218.39,436.145 222.539,439.744 		"/>
	</g>
	<g>
		<polygon fill="#7C5904" points="223.781,436.145 361.851,436.145 361.851,443.344 223.781,443.344 227.929,439.744 		"/>
	</g>
</g>
<g>
	<g>
		<polygon fill="#7C5904" points="218.39,457.279 80.32,457.279 80.32,450.079 218.39,450.079 222.539,453.679 		"/>
	</g>
	<g>
		<polygon fill="#7C5904" points="223.781,450.079 361.851,450.079 361.851,457.279 223.781,457.279 227.929,453.679 		"/>
	</g>
</g>
<g>
	<g>
		<polygon fill="#7C5904" points="218.39,471.213 80.32,471.213 80.32,464.013 218.39,464.013 222.539,467.613 		"/>
	</g>
	<g>
		<polygon fill="#7C5904" points="223.781,464.013 361.851,464.013 361.851,471.213 223.781,471.213 227.929,467.613 		"/>
	</g>
</g>
<g>
	<path fill="#398EB0" d="M65.047,178.668c-0.771,0-1.509-0.104-2.212-0.314c-0.704-0.209-1.361-0.505-1.971-0.887
		c-0.611-0.382-1.165-0.841-1.662-1.376c-0.498-0.535-0.923-1.13-1.275-1.785c-0.352-0.655-0.625-1.357-0.82-2.106
		c-0.195-0.748-0.292-1.531-0.292-2.347s0.097-1.601,0.292-2.353c0.195-0.753,0.468-1.457,0.82-2.111s0.777-1.25,1.275-1.786
		c0.498-0.535,1.051-0.993,1.662-1.376c0.61-0.381,1.267-0.677,1.971-0.887c0.704-0.21,1.441-0.314,2.212-0.314
		s1.51,0.104,2.218,0.314c0.707,0.21,1.366,0.506,1.977,0.887c0.61,0.383,1.164,0.841,1.662,1.376
		c0.498,0.535,0.924,1.131,1.28,1.786c0.355,0.655,0.63,1.358,0.825,2.111c0.195,0.751,0.292,1.537,0.292,2.353
		c0,0.809-0.097,1.589-0.292,2.342c-0.195,0.752-0.47,1.456-0.825,2.111c-0.356,0.655-0.783,1.25-1.28,1.785
		c-0.498,0.535-1.052,0.994-1.662,1.376c-0.61,0.382-1.27,0.678-1.977,0.887C66.558,178.564,65.818,178.668,65.047,178.668z
		 M65.047,175.144c0.651,0,1.248-0.142,1.792-0.422c0.542-0.28,1.009-0.662,1.398-1.146c0.389-0.482,0.691-1.044,0.904-1.684
		c0.214-0.64,0.32-1.319,0.32-2.039c0-0.727-0.108-1.411-0.325-2.056c-0.217-0.644-0.522-1.207-0.916-1.689
		c-0.393-0.484-0.859-0.865-1.398-1.146c-0.539-0.281-1.13-0.42-1.774-0.42s-1.235,0.139-1.775,0.42
		c-0.539,0.281-1.003,0.663-1.392,1.146c-0.389,0.482-0.694,1.045-0.916,1.689c-0.221,0.645-0.331,1.329-0.331,2.056
		c0,0.719,0.11,1.399,0.331,2.039c0.221,0.64,0.526,1.202,0.916,1.684c0.389,0.484,0.854,0.865,1.392,1.146
		C63.812,175.002,64.403,175.144,65.047,175.144z"/>
</g>
<g>
	<path fill="#398EB0" d="M69.742,388.623c-0.038-0.262-0.129-0.509-0.275-0.74c-0.146-0.232-0.333-0.433-0.562-0.602
		c-0.228-0.168-0.486-0.301-0.774-0.398c-0.289-0.097-0.59-0.146-0.904-0.146c-0.285,0-0.55,0.03-0.797,0.089
		c-0.247,0.061-0.462,0.152-0.646,0.276c-0.183,0.124-0.329,0.283-0.438,0.477c-0.109,0.194-0.163,0.427-0.163,0.696
		c0,0.337,0.073,0.604,0.219,0.803c0.146,0.199,0.333,0.362,0.562,0.488c0.228,0.128,0.481,0.228,0.758,0.304
		c0.277,0.075,0.546,0.157,0.809,0.248l3.088,1.033c0.427,0.149,0.827,0.355,1.202,0.617s0.698,0.581,0.971,0.955
		c0.273,0.374,0.489,0.804,0.646,1.291c0.157,0.487,0.236,1.033,0.236,1.641c0,0.823-0.151,1.575-0.455,2.257
		c-0.303,0.682-0.728,1.266-1.274,1.752c-0.546,0.486-1.202,0.864-1.965,1.133c-0.764,0.27-1.61,0.405-2.538,0.405
		c-0.651,0-1.267-0.073-1.847-0.219c-0.581-0.146-1.111-0.357-1.59-0.635c-0.479-0.276-0.898-0.607-1.257-0.993
		c-0.359-0.385-0.64-0.822-0.842-1.309h-1.157v-3.379h4.065v0.695c0,0.338,0.054,0.648,0.163,0.932
		c0.109,0.285,0.271,0.532,0.489,0.742s0.49,0.372,0.82,0.488s0.715,0.174,1.157,0.174c0.674,0,1.187-0.155,1.539-0.466
		c0.352-0.311,0.528-0.743,0.528-1.297c0-0.284-0.062-0.522-0.185-0.713c-0.124-0.191-0.283-0.352-0.478-0.483
		c-0.195-0.131-0.412-0.241-0.651-0.331c-0.24-0.09-0.476-0.172-0.708-0.247l-2.572-0.831c-0.487-0.15-0.957-0.36-1.409-0.629
		c-0.453-0.269-0.854-0.606-1.202-1.011c-0.348-0.404-0.625-0.877-0.831-1.421c-0.206-0.542-0.309-1.162-0.309-1.858
		c0-0.808,0.15-1.529,0.449-2.162s0.719-1.166,1.258-1.6c0.539-0.435,1.179-0.763,1.92-0.988c0.741-0.224,1.554-0.338,2.437-0.338
		c0.696,0,1.34,0.081,1.932,0.242c0.591,0.162,1.121,0.376,1.589,0.646c0.468,0.27,0.865,0.578,1.19,0.926
		c0.326,0.348,0.575,0.709,0.747,1.084h1.123v3.391h-4.065V388.623z"/>
</g>
<g>
	<path fill="#C63706" d="M66.439,274.328h7.289v3.077h-1.797v10.872h1.797v3.077h-7.289v-3.077h1.764v-10.872h-1.764V274.328z"/>
</g>
<g>
	<path fill="#C63706" d="M66.701,92.602c-0.451-0.124-0.876-0.306-1.274-0.545s-0.747-0.537-1.046-0.893
		c-0.299-0.354-0.536-0.763-0.712-1.23c-0.176-0.465-0.264-0.989-0.264-1.569c0-0.615,0.123-1.191,0.369-1.726
		c0.246-0.537,0.595-1.004,1.046-1.402c0.451-0.399,0.996-0.712,1.635-0.941c0.639-0.228,1.351-0.342,2.136-0.342h6.012v2.417
		h-1.239v14.089h-2.575V86.37h-1.512v14.089h-2.575V92.602z"/>
</g>
<g>
	<g>
		<polygon fill="#7C5904" points="223.677,60.569 361.748,60.569 361.748,67.769 223.677,67.769 227.825,64.168 		"/>
	</g>
	<g>
		<polygon fill="#7C5904" points="222.435,64.168 218.287,60.569 218.287,60.569 218.287,60.569 80.216,60.569 84.365,64.168 
			80.216,67.769 218.287,67.769 218.287,67.769 218.287,67.768 		"/>
	</g>
</g>
</svg>
