<?xml version="1.0" encoding="utf-8"?>
<!-- Generator: Adobe Illustrator 16.0.4, SVG Export Plug-In . SVG Version: 6.00 Build 0)  -->
<!DOCTYPE svg PUBLIC "-//W3C//DTD SVG 1.1//EN" "http://www.w3.org/Graphics/SVG/1.1/DTD/svg11.dtd">
<svg version="1.1" id="Layer_1" xmlns="http://www.w3.org/2000/svg" xmlns:xlink="http://www.w3.org/1999/xlink" x="0px" y="0px"
	 width="448.747px" height="616.44px" viewBox="0 0 448.747 616.44" enable-background="new 0 0 448.747 616.44"
	 xml:space="preserve">
<rect x="0.5" y="0.5" fill="#FFFFFF" stroke="#C68D06" stroke-miterlimit="10" width="447.747" height="615.44"/>
<g>
	<path fill="#C68D06" d="M352.96,578.143h4.865v-20.967c-1.26,0.665-3.29,1.189-4.796,1.189v-2.205
		c1.995-0.07,3.78-0.595,4.936-1.68h2.311v23.662h4.41v2.24H352.96V578.143z"/>
	<path fill="#C68D06" d="M371.58,578.143h4.865v-20.967c-1.26,0.665-3.29,1.189-4.796,1.189v-2.205
		c1.995-0.07,3.78-0.595,4.936-1.68h2.311v23.662h4.41v2.24H371.58V578.143z"/>
	<path fill="#C68D06" d="M389.359,554.48h2.556l7.735,22.613h0.07l7.771-22.613h2.416l-9.102,26.008h-2.345L389.359,554.48z"/>
</g>
<g>
	<rect x="79.884" y="158.719" fill="#C0DDE7" width="281.739" height="7.199"/>
</g>
<g>
	<rect x="79.884" y="172.633" fill="#C0DDE7" width="281.738" height="7.199"/>
</g>
<g>
	<rect x="79.875" y="186.547" fill="#C0DDE7" width="281.739" height="7.2"/>
</g>
<g>
	<rect x="79.884" y="200.46" fill="#C0DDE7" width="281.739" height="7.199"/>
</g>
<g>
	<rect x="79.884" y="214.374" fill="#C0DDE7" width="281.739" height="7.199"/>
</g>
<g>
	<rect x="79.884" y="228.287" fill="#C0DDE7" width="281.739" height="7.2"/>
</g>
<g>
	<rect x="79.884" y="242.202" fill="#C0DDE7" width="281.738" height="7.2"/>
</g>
<g>
	<rect x="79.884" y="256.115" fill="#C0DDE7" width="281.738" height="7.201"/>
</g>
<g>
	<rect x="79.884" y="270.029" fill="#C0DDE7" width="281.739" height="7.199"/>
</g>
<g>
	<rect x="79.884" y="283.943" fill="#C0DDE7" width="281.738" height="7.2"/>
</g>
<g>
	<rect x="79.884" y="297.856" fill="#C0DDE7" width="281.739" height="7.201"/>
</g>
<g>
	<rect x="79.884" y="311.771" fill="#C0DDE7" width="281.739" height="7.2"/>
</g>
<g>
	<rect x="79.884" y="325.686" fill="#C0DDE7" width="281.739" height="7.199"/>
</g>
<g>
	<rect x="79.884" y="339.599" fill="#C0DDE7" width="281.738" height="7.2"/>
</g>
<g>
	<rect x="79.884" y="353.512" fill="#C0DDE7" width="281.739" height="7.2"/>
</g>
<g>
	<rect x="79.884" y="367.426" fill="#C0DDE7" width="281.739" height="7.2"/>
</g>
<g>
	<rect x="79.884" y="381.341" fill="#C0DDE7" width="281.739" height="7.198"/>
</g>
<g>
	<rect x="79.884" y="395.254" fill="#C0DDE7" width="281.739" height="7.199"/>
</g>
<g>
	<rect x="79.884" y="409.168" fill="#C0DDE7" width="281.738" height="7.199"/>
</g>
<g>
	<rect x="79.884" y="423.082" fill="#C0DDE7" width="281.739" height="7.2"/>
</g>
<g>
	<rect x="79.884" y="436.995" fill="#C0DDE7" width="281.738" height="7.2"/>
</g>
<g>
	<rect x="79.884" y="450.909" fill="#C0DDE7" width="281.739" height="7.199"/>
</g>
<g>
	<rect x="79.884" y="464.823" fill="#C0DDE7" width="281.738" height="7.199"/>
</g>
<g>
	<rect x="79.884" y="478.736" fill="#C0DDE7" width="281.739" height="7.2"/>
</g>
<g>
	<rect x="79.884" y="61.321" fill="#C0DDE7" width="281.739" height="7.2"/>
</g>
<g>
	<rect x="79.884" y="75.235" fill="#C0DDE7" width="281.738" height="7.2"/>
</g>
<g>
	<rect x="79.884" y="144.805" fill="#C0DDE7" width="281.738" height="7.199"/>
</g>
<g>
	<rect x="79.884" y="89.15" fill="#C0DDE7" width="281.739" height="7.199"/>
</g>
<g>
	<rect x="79.884" y="103.064" fill="#C0DDE7" width="281.738" height="7.2"/>
</g>
<g>
	<rect x="79.884" y="116.978" fill="#C0DDE7" width="281.738" height="7.199"/>
</g>
<g>
	<rect x="79.884" y="130.892" fill="#C0DDE7" width="281.738" height="7.199"/>
</g>
<g>
	<g>
		<polygon fill="#7C5904" points="218.058,152.004 79.987,152.004 79.987,144.805 218.058,144.805 222.206,148.405 		"/>
	</g>
	<g>
		<polygon fill="#7C5904" points="223.448,144.805 361.519,144.805 361.519,152.004 223.448,152.004 227.596,148.405 		"/>
	</g>
</g>
<g>
	<g>
		<polygon fill="#7C5904" points="218.058,165.918 79.987,165.918 79.987,158.719 218.058,158.719 222.206,162.319 		"/>
	</g>
	<g>
		<polygon fill="#7C5904" points="223.448,158.719 361.519,158.719 361.519,165.918 223.448,165.918 227.596,162.319 		"/>
	</g>
</g>
<g>
	<g>
		<polygon fill="#7C5904" points="218.058,96.35 79.987,96.35 79.987,89.15 218.058,89.15 222.206,92.75 		"/>
	</g>
	<g>
		<polygon fill="#7C5904" points="223.448,89.15 361.519,89.15 361.519,96.35 223.448,96.35 227.596,92.75 		"/>
	</g>
</g>
<g>
	<g>
		<polygon fill="#7C5904" points="218.058,110.264 79.987,110.264 79.987,103.064 218.058,103.064 222.206,106.664 		"/>
	</g>
	<g>
		<polygon fill="#7C5904" points="223.448,103.064 361.519,103.064 361.519,110.264 223.448,110.264 227.596,106.664 		"/>
	</g>
</g>
<g>
	<g>
		<polygon fill="#7C5904" points="218.058,138.091 79.987,138.091 79.987,130.891 218.058,130.891 222.206,134.49 		"/>
	</g>
	<g>
		<polygon fill="#7C5904" points="223.448,130.891 361.519,130.891 361.519,138.091 223.448,138.091 227.596,134.49 		"/>
	</g>
</g>
<g>
	<path fill="#C63706" d="M59.564,302.343h7.861c0.876,0,1.681,0.137,2.415,0.41c0.734,0.273,1.366,0.642,1.898,1.105
		c0.532,0.465,0.947,1,1.247,1.606s0.449,1.239,0.449,1.897c0,0.794-0.118,1.538-0.354,2.229c-0.236,0.692-0.601,1.294-1.095,1.803
		s-1.119,0.911-1.875,1.207s-1.651,0.445-2.684,0.445h-2.37v3.245h1.561v3.077h-7.053v-3.077h1.763v-10.86h-1.763V302.343z
		 M65.056,305.431v4.571h1.539c0.854,0,1.531-0.18,2.032-0.539c0.502-0.359,0.753-0.929,0.753-1.707
		c0-0.727-0.236-1.295-0.708-1.707s-1.164-0.618-2.078-0.618H65.056z"/>
</g>
<g>
	<path fill="#398EB0" d="M66.976,413.676h6.469v3.088h-1.381v13.938h-3.729l-7.086-11.006v7.929h1.426v3.077h-6.458v-3.077h1.404
		v-10.86H56.24v-3.088h5.144l7.042,11.152v-8.064h-1.449V413.676z"/>
</g>
<g>
	<path fill="#C63706" d="M69.46,136.04c-0.451-0.123-0.876-0.305-1.274-0.545s-0.747-0.537-1.046-0.893
		c-0.299-0.353-0.536-0.764-0.712-1.23c-0.176-0.465-0.264-0.988-0.264-1.568c0-0.615,0.123-1.191,0.369-1.727
		c0.246-0.537,0.594-1.004,1.046-1.402c0.451-0.398,0.996-0.712,1.635-0.94c0.639-0.228,1.351-0.343,2.136-0.343h6.012v2.417h-1.239
		v14.089h-2.575v-14.089h-1.512v14.089H69.46V136.04z"/>
</g>
<g>
	<path fill="#398EB0" d="M69.46,233.04c-0.451-0.123-0.876-0.305-1.274-0.545s-0.747-0.537-1.046-0.893
		c-0.299-0.353-0.536-0.764-0.712-1.23c-0.176-0.465-0.264-0.988-0.264-1.568c0-0.615,0.123-1.191,0.369-1.727
		c0.246-0.537,0.594-1.004,1.046-1.402c0.451-0.398,0.996-0.712,1.635-0.94c0.639-0.228,1.351-0.343,2.136-0.343h6.012v2.417h-1.239
		v14.089h-2.575v-14.089h-1.512v14.089H69.46V233.04z"/>
</g>
<g>
	<g>
		<polygon fill="#7C5904" points="266.054,82.436 176.372,82.436 180.522,78.836 176.372,75.235 266.054,75.235 270.204,78.836 		
			"/>
	</g>
	<g>
		<polygon fill="#7C5904" points="169.565,82.436 79.884,82.436 79.884,75.235 169.565,75.235 173.714,78.836 		"/>
	</g>
	<g>
		<polygon fill="#7C5904" points="271.798,75.235 361.479,75.235 361.479,82.436 271.798,82.436 275.946,78.836 		"/>
	</g>
</g>
<g>
	<g>
		<polygon fill="#7C5904" points="266.054,179.834 176.372,179.834 180.522,176.233 176.372,172.633 266.054,172.633 
			270.204,176.233 		"/>
	</g>
	<g>
		<polygon fill="#7C5904" points="169.565,179.834 79.884,179.834 79.884,172.633 169.565,172.633 173.714,176.233 		"/>
	</g>
	<g>
		<polygon fill="#7C5904" points="271.798,172.633 361.479,172.633 361.479,179.834 271.798,179.834 275.946,176.233 		"/>
	</g>
</g>
<g>
	<g>
		<polygon fill="#7C5904" points="266.054,235.487 176.372,235.487 180.522,231.887 176.372,228.287 266.054,228.287 
			270.204,231.887 		"/>
	</g>
	<g>
		<polygon fill="#7C5904" points="169.565,235.487 79.884,235.487 79.884,228.287 169.565,228.287 173.714,231.887 		"/>
	</g>
	<g>
		<polygon fill="#7C5904" points="271.798,228.287 361.479,228.287 361.479,235.487 271.798,235.487 275.946,231.887 		"/>
	</g>
</g>
<g>
	<rect x="79.884" y="116.978" fill="#7C5904" width="142.488" height="7.199"/>
</g>
<g>
	<g>
		<polygon fill="#7C5904" points="218.058,193.746 79.987,193.746 79.987,186.546 218.058,186.546 222.206,190.146 		"/>
	</g>
	<g>
		<polygon fill="#7C5904" points="223.448,186.546 361.519,186.546 361.519,193.746 223.448,193.746 227.596,190.146 		"/>
	</g>
</g>
<g>
	<g>
		<polygon fill="#7C5904" points="218.058,207.659 79.987,207.659 79.987,200.46 218.058,200.46 222.206,204.059 		"/>
	</g>
	<g>
		<polygon fill="#7C5904" points="223.448,200.46 361.519,200.46 361.519,207.659 223.448,207.659 227.596,204.059 		"/>
	</g>
</g>
<g>
	<rect x="79.884" y="214.374" fill="#7C5904" width="142.488" height="7.199"/>
</g>
<g>
	<g>
		<polygon fill="#7C5904" points="218.058,249.401 79.987,249.401 79.987,242.202 218.058,242.202 222.206,245.801 		"/>
	</g>
	<g>
		<polygon fill="#7C5904" points="223.448,242.202 361.519,242.202 361.519,249.401 223.448,249.401 227.596,245.801 		"/>
	</g>
</g>
<g>
	<g>
		<polygon fill="#7C5904" points="218.058,263.314 79.987,263.314 79.987,256.115 218.058,256.115 222.206,259.714 		"/>
	</g>
	<g>
		<polygon fill="#7C5904" points="223.448,256.115 361.519,256.115 361.519,263.314 223.448,263.314 227.596,259.714 		"/>
	</g>
</g>
<g>
	<rect x="79.884" y="270.029" fill="#7C5904" width="142.488" height="7.199"/>
</g>
<g>
	<g>
		<polygon fill="#7C5904" points="218.058,430.281 79.987,430.281 79.987,423.082 218.058,423.082 222.206,426.681 		"/>
	</g>
	<g>
		<polygon fill="#7C5904" points="223.448,423.082 361.519,423.082 361.519,430.281 223.448,430.281 227.596,426.681 		"/>
	</g>
</g>
<g>
	<g>
		<polygon fill="#7C5904" points="218.058,458.108 79.987,458.108 79.987,450.909 218.058,450.909 222.206,454.508 		"/>
	</g>
	<g>
		<polygon fill="#7C5904" points="223.448,450.909 361.519,450.909 361.519,458.108 223.448,458.108 227.596,454.508 		"/>
	</g>
</g>
<g>
	<rect x="79.884" y="436.995" fill="#7C5904" width="142.488" height="7.199"/>
</g>
<g>
	<g>
		<polygon fill="#7C5904" points="218.058,485.936 79.987,485.936 79.987,478.736 218.058,478.736 222.206,482.336 		"/>
	</g>
	<g>
		<polygon fill="#7C5904" points="223.448,478.736 361.519,478.736 361.519,485.936 223.448,485.936 227.596,482.336 		"/>
	</g>
</g>
<g>
	<rect x="79.884" y="464.823" fill="#7C5904" width="142.488" height="7.199"/>
</g>
<g>
	<g>
		<g>
			<polygon fill="#7C5904" points="217.954,318.97 79.884,318.97 79.884,311.771 217.954,311.771 222.103,315.37 			"/>
		</g>
		<g>
			<polygon fill="#7C5904" points="223.345,311.771 361.415,311.771 361.415,318.97 223.345,318.97 227.492,315.37 			"/>
		</g>
	</g>
	<g>
		<g>
			<polygon fill="#7C5904" points="217.954,332.884 79.884,332.884 79.884,325.685 217.954,325.685 222.103,329.284 			"/>
		</g>
		<g>
			<polygon fill="#7C5904" points="223.345,325.685 361.415,325.685 361.415,332.884 223.345,332.884 227.492,329.284 			"/>
		</g>
	</g>
	<g>
		<g>
			<polygon fill="#7C5904" points="217.954,402.452 79.884,402.452 79.884,395.253 217.954,395.253 222.103,398.853 			"/>
		</g>
		<g>
			<polygon fill="#7C5904" points="223.345,395.253 361.415,395.253 361.415,402.452 223.345,402.452 227.492,398.853 			"/>
		</g>
	</g>
	<g>
		<g>
			<polygon fill="#7C5904" points="217.954,346.797 79.884,346.797 79.884,339.598 217.954,339.598 222.103,343.197 			"/>
		</g>
		<g>
			<polygon fill="#7C5904" points="223.345,339.598 361.415,339.598 361.415,346.797 223.345,346.797 227.492,343.197 			"/>
		</g>
	</g>
	<g>
		<g>
			<polygon fill="#7C5904" points="217.954,360.712 79.884,360.712 79.884,353.513 217.954,353.513 222.103,357.111 			"/>
		</g>
		<g>
			<polygon fill="#7C5904" points="223.345,353.513 361.415,353.513 361.415,360.712 223.345,360.712 227.492,357.111 			"/>
		</g>
	</g>
	<g>
		<g>
			<polygon fill="#7C5904" points="217.954,374.626 79.884,374.626 79.884,367.425 217.954,367.425 222.103,371.024 			"/>
		</g>
		<g>
			<polygon fill="#7C5904" points="223.345,367.425 361.415,367.425 361.415,374.626 223.345,374.626 227.492,371.024 			"/>
		</g>
	</g>
	<g>
		<g>
			<polygon fill="#7C5904" points="217.954,388.539 79.884,388.539 79.884,381.339 217.954,381.339 222.103,384.938 			"/>
		</g>
		<g>
			<polygon fill="#7C5904" points="223.345,381.339 361.415,381.339 361.415,388.539 223.345,388.539 227.492,384.938 			"/>
		</g>
	</g>
</g>
<g>
	<g>
		<polygon fill="#7C5904" points="223.345,61.321 361.416,61.321 361.416,68.521 223.345,68.521 227.492,64.92 		"/>
	</g>
	<g>
		<polygon fill="#7C5904" points="222.103,64.92 217.955,61.321 217.955,61.321 217.954,61.321 79.884,61.321 84.032,64.92 
			79.884,68.521 217.954,68.521 217.955,68.521 217.955,68.52 		"/>
	</g>
</g>
</svg>
