<?xml version="1.0" encoding="utf-8"?>
<!-- Generator: Adobe Illustrator 16.0.4, SVG Export Plug-In . SVG Version: 6.00 Build 0)  -->
<!DOCTYPE svg PUBLIC "-//W3C//DTD SVG 1.1//EN" "http://www.w3.org/Graphics/SVG/1.1/DTD/svg11.dtd">
<svg version="1.1" id="Layer_1" xmlns="http://www.w3.org/2000/svg" xmlns:xlink="http://www.w3.org/1999/xlink" x="0px" y="0px"
	 width="448.746px" height="616.439px" viewBox="0 0 448.746 616.439" enable-background="new 0 0 448.746 616.439"
	 xml:space="preserve">
<rect x="0.5" y="0.5" fill="#FFFFFF" stroke="#C68D06" stroke-miterlimit="10" width="447.746" height="615.439"/>
<g>
	<path fill="#C68D06" d="M350.742,579.894h4.865v-20.967c-1.26,0.665-3.29,1.189-4.796,1.189v-2.205
		c1.995-0.07,3.78-0.595,4.936-1.68h2.311v23.663h4.41v2.24h-11.726V579.894z"/>
	<path fill="#C68D06" d="M369.362,579.894h4.865v-20.967c-1.26,0.665-3.29,1.189-4.796,1.189v-2.205
		c1.995-0.07,3.78-0.595,4.936-1.68h2.311v23.663h4.41v2.24h-11.726V579.894z"/>
	<path fill="#C68D06" d="M389.207,556.231h8.681c5.776,0,8.996,2.45,8.996,7c0,4.201-2.45,6.301-6.195,7.001l6.546,11.901h-2.801
		l-6.336-11.621h-6.44v11.621h-2.45V556.231z M397.712,568.308c4.271,0,6.686-1.226,6.686-4.971c0-3.57-2.38-4.831-6.721-4.831
		h-6.021v9.802H397.712z"/>
</g>
<g>
	<rect x="80.216" y="157.966" fill="#C0DDE7" width="281.738" height="7.199"/>
</g>
<g>
	<rect x="80.182" y="171.879" fill="#C0DDE7" width="281.738" height="7.199"/>
</g>
<g>
	<rect x="80.181" y="185.793" fill="#C0DDE7" width="281.739" height="7.2"/>
</g>
<g>
	<rect x="80.181" y="199.708" fill="#C0DDE7" width="281.739" height="7.199"/>
</g>
<g>
	<rect x="80.181" y="213.622" fill="#C0DDE7" width="281.739" height="7.199"/>
</g>
<g>
	<rect x="80.181" y="227.536" fill="#C0DDE7" width="281.739" height="7.199"/>
</g>
<g>
	<rect x="80.182" y="241.449" fill="#C0DDE7" width="281.738" height="7.2"/>
</g>
<g>
	<rect x="80.182" y="255.362" fill="#C0DDE7" width="281.738" height="7.2"/>
</g>
<g>
	<rect x="80.181" y="269.277" fill="#C0DDE7" width="281.739" height="7.199"/>
</g>
<g>
	<rect x="80.182" y="283.19" fill="#C0DDE7" width="281.738" height="7.201"/>
</g>
<g>
	<rect x="80.181" y="297.104" fill="#C0DDE7" width="281.739" height="7.2"/>
</g>
<g>
	<rect x="80.181" y="311.018" fill="#C0DDE7" width="281.739" height="7.2"/>
</g>
<g>
	<rect x="80.181" y="324.932" fill="#C0DDE7" width="281.739" height="7.199"/>
</g>
<g>
	<rect x="80.182" y="338.845" fill="#C0DDE7" width="281.738" height="7.2"/>
</g>
<g>
	<rect x="80.181" y="352.759" fill="#C0DDE7" width="281.739" height="7.201"/>
</g>
<g>
	<rect x="80.181" y="366.673" fill="#C0DDE7" width="281.739" height="7.2"/>
</g>
<g>
	<rect x="80.181" y="380.587" fill="#C0DDE7" width="281.739" height="7.199"/>
</g>
<g>
	<rect x="80.181" y="394.501" fill="#C0DDE7" width="281.739" height="7.199"/>
</g>
<g>
	<rect x="80.182" y="408.415" fill="#C0DDE7" width="281.738" height="7.199"/>
</g>
<g>
	<rect x="80.181" y="422.329" fill="#C0DDE7" width="281.739" height="7.2"/>
</g>
<g>
	<rect x="80.182" y="436.242" fill="#C0DDE7" width="281.738" height="7.2"/>
</g>
<g>
	<rect x="80.181" y="450.157" fill="#C0DDE7" width="281.739" height="7.2"/>
</g>
<g>
	<rect x="80.182" y="464.07" fill="#C0DDE7" width="281.738" height="7.199"/>
</g>
<g>
	<rect x="80.181" y="477.984" fill="#C0DDE7" width="281.739" height="7.2"/>
</g>
<g>
	<rect x="80.181" y="60.569" fill="#C0DDE7" width="281.739" height="7.2"/>
</g>
<g>
	<rect x="80.182" y="74.483" fill="#C0DDE7" width="281.738" height="7.201"/>
</g>
<g>
	<rect x="80.182" y="144.052" fill="#C0DDE7" width="281.738" height="7.2"/>
</g>
<g>
	<rect x="80.181" y="88.397" fill="#C0DDE7" width="281.739" height="7.199"/>
</g>
<g>
	<rect x="80.182" y="102.31" fill="#C0DDE7" width="281.738" height="7.2"/>
</g>
<g>
	<rect x="80.182" y="116.224" fill="#C0DDE7" width="281.738" height="7.199"/>
</g>
<g>
	<rect x="80.182" y="130.138" fill="#C0DDE7" width="281.738" height="7.199"/>
</g>
<g>
	<path fill="#398EB0" d="M67.274,161.335h6.469v3.088h-1.381v13.938h-3.729l-7.086-11.005v7.928h1.426v3.077h-6.458v-3.077h1.404
		v-10.86h-1.381v-3.088h5.144l7.042,11.153v-8.065h-1.449V161.335z"/>
</g>
<g>
	<path fill="#C63706" d="M69.758,274.533c-0.451-0.123-0.876-0.305-1.274-0.544c-0.398-0.241-0.747-0.537-1.046-0.893
		c-0.299-0.354-0.536-0.764-0.712-1.23c-0.176-0.465-0.264-0.988-0.264-1.568c0-0.615,0.123-1.191,0.369-1.727
		c0.246-0.537,0.595-1.004,1.046-1.402c0.451-0.399,0.996-0.712,1.635-0.94c0.639-0.229,1.351-0.343,2.136-0.343h6.012v2.417H76.42
		v14.089h-2.575v-14.089h-1.512v14.089h-2.575V274.533z"/>
</g>
<g>
	<path fill="#C63706" d="M69.758,468.283c-0.451-0.123-0.876-0.305-1.274-0.545s-0.747-0.537-1.046-0.893
		c-0.299-0.354-0.536-0.764-0.712-1.23c-0.176-0.465-0.264-0.988-0.264-1.568c0-0.615,0.123-1.191,0.369-1.726
		c0.246-0.538,0.595-1.004,1.046-1.402c0.451-0.398,0.996-0.712,1.635-0.941s1.351-0.342,2.136-0.342h6.012v2.417H76.42v14.089
		h-2.575v-14.089h-1.512v14.089h-2.575V468.283z"/>
</g>
<g>
	<path fill="#398EB0" d="M69.758,371.283c-0.451-0.123-0.876-0.305-1.274-0.545s-0.747-0.537-1.046-0.893
		c-0.299-0.354-0.536-0.764-0.712-1.23c-0.176-0.465-0.264-0.988-0.264-1.568c0-0.615,0.123-1.191,0.369-1.726
		c0.246-0.538,0.595-1.004,1.046-1.402c0.451-0.398,0.996-0.712,1.635-0.941s1.351-0.342,2.136-0.342h6.012v2.417H76.42v14.089
		h-2.575v-14.089h-1.512v14.089h-2.575V371.283z"/>
</g>
<g>
	<g>
		<g>
			<polygon fill="#7C5904" points="218.39,67.766 80.32,67.766 80.32,60.565 218.39,60.565 222.539,64.166 			"/>
		</g>
		<g>
			<polygon fill="#7C5904" points="223.78,60.565 361.851,60.565 361.851,67.766 223.78,67.766 227.928,64.166 			"/>
		</g>
	</g>
	<g>
		<g>
			<polygon fill="#7C5904" points="218.39,81.679 80.32,81.679 80.32,74.48 218.39,74.48 222.539,78.08 			"/>
		</g>
		<g>
			<polygon fill="#7C5904" points="223.78,74.48 361.851,74.48 361.851,81.679 223.78,81.679 227.928,78.08 			"/>
		</g>
	</g>
	<g>
		<g>
			<polygon fill="#7C5904" points="218.39,151.248 80.32,151.248 80.32,144.049 218.39,144.049 222.539,147.648 			"/>
		</g>
		<g>
			<polygon fill="#7C5904" points="223.78,144.049 361.851,144.049 361.851,151.248 223.78,151.248 227.928,147.648 			"/>
		</g>
	</g>
	<g>
		<g>
			<polygon fill="#7C5904" points="218.39,95.593 80.32,95.593 80.32,88.394 218.39,88.394 222.539,91.993 			"/>
		</g>
		<g>
			<polygon fill="#7C5904" points="223.78,88.394 361.851,88.394 361.851,95.593 223.78,95.593 227.928,91.993 			"/>
		</g>
	</g>
	<g>
		<g>
			<polygon fill="#7C5904" points="218.39,109.507 80.32,109.507 80.32,102.308 218.39,102.308 222.539,105.907 			"/>
		</g>
		<g>
			<polygon fill="#7C5904" points="223.78,102.308 361.851,102.308 361.851,109.507 223.78,109.507 227.928,105.907 			"/>
		</g>
	</g>
	<g>
		<g>
			<polygon fill="#7C5904" points="218.39,123.42 80.32,123.42 80.32,116.22 218.39,116.22 222.539,119.82 			"/>
		</g>
		<g>
			<polygon fill="#7C5904" points="223.78,116.22 361.851,116.22 361.851,123.42 223.78,123.42 227.928,119.82 			"/>
		</g>
	</g>
	<g>
		<g>
			<polygon fill="#7C5904" points="218.39,137.334 80.32,137.334 80.32,130.134 218.39,130.134 222.539,133.734 			"/>
		</g>
		<g>
			<polygon fill="#7C5904" points="223.78,130.134 361.851,130.134 361.851,137.334 223.78,137.334 227.928,133.734 			"/>
		</g>
	</g>
</g>
<g>
	<path fill="#C63706" d="M59.964,50.396h7.861c0.876,0,1.681,0.137,2.415,0.41s1.366,0.642,1.898,1.105
		c0.532,0.465,0.947,1,1.247,1.606s0.449,1.239,0.449,1.897c0,0.794-0.118,1.538-0.354,2.229c-0.236,0.692-0.601,1.294-1.096,1.803
		c-0.494,0.509-1.119,0.911-1.875,1.207c-0.756,0.296-1.651,0.444-2.684,0.444h-2.37v3.245h1.561v3.077h-7.053v-3.077h1.763v-10.86
		h-1.763V50.396z M65.456,53.485v4.571h1.539c0.854,0,1.531-0.179,2.033-0.539c0.501-0.359,0.752-0.929,0.752-1.707
		c0-0.727-0.236-1.295-0.708-1.708c-0.471-0.412-1.164-0.618-2.077-0.618H65.456z"/>
</g>
<g>
	<g>
		<polygon fill="#7C5904" points="218.252,276.516 80.182,276.516 80.182,269.317 218.252,269.317 222.401,272.917 		"/>
	</g>
	<g>
		<polygon fill="#7C5904" points="223.643,269.317 361.713,269.317 361.713,276.516 223.643,276.516 227.791,272.917 		"/>
	</g>
</g>
<g>
	<g>
		<polygon fill="#7C5904" points="218.252,179.121 80.182,179.121 80.182,171.921 218.252,171.921 222.401,175.522 		"/>
	</g>
	<g>
		<polygon fill="#7C5904" points="223.643,171.921 361.713,171.921 361.713,179.121 223.643,179.121 227.792,175.522 		"/>
	</g>
</g>
<g>
	<g>
		<polygon fill="#7C5904" points="218.252,193.036 80.182,193.036 80.182,185.836 218.252,185.836 222.401,189.435 		"/>
	</g>
	<g>
		<polygon fill="#7C5904" points="223.643,185.836 361.713,185.836 361.713,193.036 223.643,193.036 227.791,189.435 		"/>
	</g>
</g>
<g>
	<g>
		<polygon fill="#7C5904" points="218.252,206.949 80.182,206.949 80.182,199.75 218.252,199.75 222.401,203.35 		"/>
	</g>
	<g>
		<polygon fill="#7C5904" points="223.643,199.75 361.713,199.75 361.713,206.949 223.643,206.949 227.791,203.35 		"/>
	</g>
</g>
<g>
	<g>
		<polygon fill="#7C5904" points="218.252,234.776 80.182,234.776 80.182,227.576 218.252,227.576 222.401,231.175 		"/>
	</g>
	<g>
		<polygon fill="#7C5904" points="223.643,227.576 361.713,227.576 361.713,234.776 223.643,234.776 227.791,231.175 		"/>
	</g>
</g>
<g>
	<g>
		<polygon fill="#7C5904" points="218.252,248.689 80.182,248.689 80.182,241.491 218.252,241.491 222.401,245.089 		"/>
	</g>
	<g>
		<polygon fill="#7C5904" points="223.643,241.491 361.713,241.491 361.713,248.689 223.643,248.689 227.791,245.089 		"/>
	</g>
</g>
<g>
	<g>
		<polygon fill="#7C5904" points="218.252,290.582 80.182,290.582 80.182,283.382 218.252,283.382 222.401,286.981 		"/>
	</g>
	<g>
		<polygon fill="#7C5904" points="223.643,283.382 361.713,283.382 361.713,290.582 223.643,290.582 227.792,286.981 		"/>
	</g>
</g>
<g>
	<g>
		<polygon fill="#7C5904" points="218.252,304.515 80.182,304.515 80.182,297.317 218.252,297.317 222.401,300.917 		"/>
	</g>
	<g>
		<polygon fill="#7C5904" points="223.643,297.317 361.713,297.317 361.713,304.515 223.643,304.515 227.791,300.917 		"/>
	</g>
</g>
<g>
	<g>
		<polygon fill="#7C5904" points="218.252,374.186 80.182,374.186 80.182,366.986 218.252,366.986 222.401,370.585 		"/>
	</g>
	<g>
		<polygon fill="#7C5904" points="223.643,366.986 361.713,366.986 361.713,374.186 223.643,374.186 227.791,370.585 		"/>
	</g>
</g>
<g>
	<g>
		<polygon fill="#7C5904" points="218.252,387.824 80.182,387.824 80.182,380.625 218.252,380.625 222.401,384.224 		"/>
	</g>
	<g>
		<polygon fill="#7C5904" points="223.643,380.625 361.713,380.625 361.713,387.824 223.643,387.824 227.791,384.224 		"/>
	</g>
</g>
<g>
	<g>
		<polygon fill="#7C5904" points="218.252,332.383 80.182,332.383 80.182,325.184 218.252,325.184 222.401,328.783 		"/>
	</g>
	<g>
		<polygon fill="#7C5904" points="223.643,325.184 361.713,325.184 361.713,332.383 223.643,332.383 227.791,328.783 		"/>
	</g>
</g>
<g>
	<g>
		<polygon fill="#7C5904" points="218.252,346.318 80.182,346.318 80.182,339.118 218.252,339.118 222.401,342.717 		"/>
	</g>
	<g>
		<polygon fill="#7C5904" points="223.643,339.118 361.713,339.118 361.713,346.318 223.643,346.318 227.791,342.717 		"/>
	</g>
</g>
<g>
	<g>
		<polygon fill="#7C5904" points="218.252,401.58 80.182,401.58 80.182,394.381 218.252,394.381 222.401,397.98 		"/>
	</g>
	<g>
		<polygon fill="#7C5904" points="223.643,394.381 361.713,394.381 361.713,401.58 223.643,401.58 227.792,397.98 		"/>
	</g>
</g>
<g>
	<g>
		<polygon fill="#7C5904" points="218.252,485.184 80.182,485.184 80.182,477.985 218.252,477.985 222.401,481.584 		"/>
	</g>
	<g>
		<polygon fill="#7C5904" points="223.643,477.985 227.791,481.584 223.643,485.184 357.565,485.184 361.713,481.584 
			357.565,477.985 		"/>
	</g>
</g>
<g>
	<g>
		<polygon fill="#7C5904" points="218.252,429.448 80.182,429.448 80.182,422.249 218.252,422.249 222.401,425.848 		"/>
	</g>
	<g>
		<polygon fill="#7C5904" points="223.643,422.249 361.713,422.249 361.713,429.448 223.643,429.448 227.791,425.848 		"/>
	</g>
</g>
<g>
	<g>
		<polygon fill="#7C5904" points="218.252,443.382 80.182,443.382 80.182,436.183 218.252,436.183 222.401,439.782 		"/>
	</g>
	<g>
		<polygon fill="#7C5904" points="223.643,436.183 361.713,436.183 361.713,443.382 223.643,443.382 227.791,439.782 		"/>
	</g>
</g>
<g>
	<g>
		<polygon fill="#7C5904" points="218.252,471.25 80.182,471.25 80.182,464.05 218.252,464.05 222.401,467.65 		"/>
	</g>
	<g>
		<polygon fill="#7C5904" points="223.643,464.05 361.713,464.05 361.713,471.25 223.643,471.25 227.791,467.65 		"/>
	</g>
</g>
<g>
	<g>
		<polygon fill="#7C5904" points="266.495,220.822 176.813,220.822 180.963,217.222 176.813,213.622 266.495,213.622 
			270.645,217.222 		"/>
	</g>
	<g>
		<polygon fill="#7C5904" points="170.006,220.822 80.325,220.822 80.325,213.622 170.006,213.622 174.155,217.222 		"/>
	</g>
	<g>
		<polygon fill="#7C5904" points="272.238,213.622 361.92,213.622 361.92,220.822 272.238,220.822 276.387,217.222 		"/>
	</g>
</g>
<g>
	<rect x="80.181" y="450.157" fill="#7C5904" width="142.488" height="7.2"/>
</g>
<g>
	<rect x="80.181" y="352.759" fill="#7C5904" width="142.488" height="7.199"/>
</g>
<g>
	<rect x="80.181" y="255.362" fill="#7C5904" width="142.488" height="7.199"/>
</g>
<g>
	<g>
		<polygon fill="#7C5904" points="266.352,415.614 176.67,415.614 180.821,412.014 176.67,408.414 266.352,408.414 270.502,412.014 
					"/>
	</g>
	<g>
		<polygon fill="#7C5904" points="169.864,415.614 80.182,415.614 80.182,408.414 169.864,408.414 174.012,412.014 		"/>
	</g>
	<g>
		<polygon fill="#7C5904" points="272.096,408.414 361.778,408.414 361.778,415.614 272.096,415.614 276.245,412.014 		"/>
	</g>
</g>
<g>
	<g>
		<polygon fill="#7C5904" points="266.351,318.218 176.669,318.218 180.82,314.618 176.669,311.018 266.351,311.018 
			270.501,314.618 		"/>
	</g>
	<g>
		<polygon fill="#7C5904" points="169.863,318.218 80.181,318.218 80.181,311.018 169.863,311.018 174.011,314.618 		"/>
	</g>
	<g>
		<polygon fill="#7C5904" points="272.095,311.018 361.777,311.018 361.777,318.218 272.095,318.218 276.244,314.618 		"/>
	</g>
</g>
</svg>
