<?xml version="1.0" encoding="utf-8"?>
<!-- Generator: Adobe Illustrator 16.0.4, SVG Export Plug-In . SVG Version: 6.00 Build 0)  -->
<!DOCTYPE svg PUBLIC "-//W3C//DTD SVG 1.1//EN" "http://www.w3.org/Graphics/SVG/1.1/DTD/svg11.dtd">
<svg version="1.1" id="Layer_1" xmlns="http://www.w3.org/2000/svg" xmlns:xlink="http://www.w3.org/1999/xlink" x="0px" y="0px"
	 width="448.746px" height="616.441px" viewBox="0 0 448.746 616.441" enable-background="new 0 0 448.746 616.441"
	 xml:space="preserve">
<rect x="0.5" y="0.5" fill="#FFFFFF" stroke="#C68D06" stroke-miterlimit="10" width="447.746" height="615.441"/>
<g>
	<path fill="#C68D06" d="M345.317,579.893h4.865v-20.967c-1.26,0.665-3.29,1.189-4.796,1.189v-2.205
		c1.995-0.07,3.78-0.595,4.935-1.68h2.311v23.662h4.41v2.24h-11.726V579.893z"/>
	<path fill="#C68D06" d="M363.517,581.572c0-3.745,1.854-7.174,8.681-11.55c3.885-2.486,5.46-4.236,5.46-7.036
		c0-3.045-1.89-5.04-5.285-5.04c-2.835,0-4.9,1.47-6.44,4.48l-1.961-1.155c1.82-3.5,4.691-5.531,8.507-5.531
		c4.69,0,7.596,2.941,7.596,7.106c0,3.535-1.716,5.776-6.687,8.926c-4.691,2.976-6.965,5.776-7.141,8.121h13.932v2.24h-16.661
		V581.572z"/>
	<path fill="#C68D06" d="M389.207,556.23h8.681c5.776,0,8.996,2.45,8.996,7c0,4.201-2.45,6.301-6.195,7.001l6.546,11.902h-2.801
		l-6.336-11.621h-6.44v11.621h-2.45V556.23z M397.712,568.307c4.271,0,6.686-1.226,6.686-4.97c0-3.571-2.38-4.831-6.721-4.831
		h-6.021v9.802H397.712z"/>
</g>
<g>
	<rect x="80.221" y="157.967" fill="#C0DDE7" width="281.738" height="7.199"/>
</g>
<g>
	<rect x="80.221" y="171.881" fill="#C0DDE7" width="281.738" height="7.199"/>
</g>
<g>
	<rect x="80.221" y="185.794" fill="#C0DDE7" width="281.738" height="7.2"/>
</g>
<g>
	<rect x="80.221" y="199.708" fill="#C0DDE7" width="281.738" height="7.199"/>
</g>
<g>
	<rect x="80.221" y="213.622" fill="#C0DDE7" width="281.738" height="7.199"/>
</g>
<g>
	<rect x="80.221" y="227.535" fill="#C0DDE7" width="281.738" height="7.2"/>
</g>
<g>
	<rect x="80.221" y="241.45" fill="#C0DDE7" width="281.738" height="7.2"/>
</g>
<g>
	<rect x="80.221" y="255.363" fill="#C0DDE7" width="281.738" height="7.201"/>
</g>
<g>
	<rect x="80.221" y="269.277" fill="#C0DDE7" width="281.738" height="7.199"/>
</g>
<g>
	<rect x="80.221" y="283.191" fill="#C0DDE7" width="281.738" height="7.2"/>
</g>
<g>
	<rect x="80.221" y="297.105" fill="#C0DDE7" width="281.738" height="7.201"/>
</g>
<g>
	<rect x="80.221" y="311.019" fill="#C0DDE7" width="281.738" height="7.2"/>
</g>
<g>
	<rect x="80.221" y="324.933" fill="#C0DDE7" width="281.738" height="7.199"/>
</g>
<g>
	<rect x="80.221" y="338.847" fill="#C0DDE7" width="281.738" height="7.2"/>
</g>
<g>
	<rect x="80.221" y="352.76" fill="#C0DDE7" width="281.738" height="7.2"/>
</g>
<g>
	<rect x="80.221" y="366.674" fill="#C0DDE7" width="281.738" height="7.2"/>
</g>
<g>
	<rect x="80.221" y="380.588" fill="#C0DDE7" width="281.738" height="7.199"/>
</g>
<g>
	<rect x="80.221" y="394.502" fill="#C0DDE7" width="281.738" height="7.199"/>
</g>
<g>
	<rect x="80.221" y="408.416" fill="#C0DDE7" width="281.738" height="7.199"/>
</g>
<g>
	<rect x="80.221" y="422.329" fill="#C0DDE7" width="281.738" height="7.2"/>
</g>
<g>
	<rect x="80.221" y="436.243" fill="#C0DDE7" width="281.738" height="7.2"/>
</g>
<g>
	<rect x="80.221" y="450.157" fill="#C0DDE7" width="281.738" height="7.199"/>
</g>
<g>
	<rect x="80.221" y="464.071" fill="#C0DDE7" width="281.738" height="7.199"/>
</g>
<g>
	<rect x="80.221" y="477.984" fill="#C0DDE7" width="281.738" height="7.2"/>
</g>
<g>
	<rect x="80.221" y="60.569" fill="#C0DDE7" width="281.738" height="7.2"/>
</g>
<g>
	<rect x="80.221" y="74.483" fill="#C0DDE7" width="281.738" height="7.2"/>
</g>
<g>
	<rect x="80.221" y="144.053" fill="#C0DDE7" width="281.738" height="7.199"/>
</g>
<g>
	<rect x="80.221" y="88.398" fill="#C0DDE7" width="281.738" height="7.199"/>
</g>
<g>
	<rect x="80.221" y="102.312" fill="#C0DDE7" width="281.738" height="7.2"/>
</g>
<g>
	<rect x="80.221" y="116.226" fill="#C0DDE7" width="281.738" height="7.199"/>
</g>
<g>
	<rect x="80.221" y="130.14" fill="#C0DDE7" width="281.738" height="7.199"/>
</g>
<g>
	<g>
		<polygon fill="#7C5904" points="218.395,67.77 80.324,67.77 80.324,60.57 218.395,60.57 222.543,64.17 		"/>
	</g>
	<g>
		<polygon fill="#7C5904" points="223.785,60.57 361.855,60.57 361.855,67.77 223.785,67.77 227.934,64.17 		"/>
	</g>
</g>
<g>
	<g>
		<polygon fill="#7C5904" points="218.395,81.684 80.324,81.684 80.324,74.484 218.395,74.484 222.543,78.084 		"/>
	</g>
	<g>
		<polygon fill="#7C5904" points="223.785,74.484 361.855,74.484 361.855,81.684 223.785,81.684 227.934,78.084 		"/>
	</g>
</g>
<g>
	<g>
		<polygon fill="#7C5904" points="218.395,151.252 80.324,151.252 80.324,144.053 218.395,144.053 222.543,147.652 		"/>
	</g>
	<g>
		<polygon fill="#7C5904" points="223.785,144.053 361.855,144.053 361.855,151.252 223.785,151.252 227.934,147.652 		"/>
	</g>
</g>
<g>
	<g>
		<polygon fill="#7C5904" points="218.395,165.166 80.324,165.166 80.324,157.967 218.395,157.967 222.543,161.566 		"/>
	</g>
	<g>
		<polygon fill="#7C5904" points="223.785,157.967 361.855,157.967 361.855,165.166 223.785,165.166 227.934,161.566 		"/>
	</g>
</g>
<g>
	<g>
		<polygon fill="#7C5904" points="218.395,276.477 80.324,276.477 80.324,269.277 218.395,269.277 222.543,272.877 		"/>
	</g>
	<g>
		<polygon fill="#7C5904" points="223.785,269.277 361.855,269.277 361.855,276.477 223.785,276.477 227.934,272.877 		"/>
	</g>
</g>
<g>
	<g>
		<polygon fill="#7C5904" points="218.395,95.597 80.324,95.597 80.324,88.398 218.395,88.398 222.543,91.997 		"/>
	</g>
	<g>
		<polygon fill="#7C5904" points="223.785,88.398 361.855,88.398 361.855,95.597 223.785,95.597 227.934,91.997 		"/>
	</g>
</g>
<g>
	<g>
		<polygon fill="#7C5904" points="218.395,109.512 80.324,109.512 80.324,102.312 218.395,102.312 222.543,105.911 		"/>
	</g>
	<g>
		<polygon fill="#7C5904" points="223.785,102.312 361.855,102.312 361.855,109.512 223.785,109.512 227.934,105.911 		"/>
	</g>
</g>
<g>
	<g>
		<polygon fill="#7C5904" points="218.395,123.425 80.324,123.425 80.324,116.226 218.395,116.226 222.543,119.824 		"/>
	</g>
	<g>
		<polygon fill="#7C5904" points="223.785,116.226 361.855,116.226 361.855,123.425 223.785,123.425 227.934,119.824 		"/>
	</g>
</g>
<g>
	<g>
		<polygon fill="#7C5904" points="218.395,137.339 80.324,137.339 80.324,130.139 218.395,130.139 222.543,133.738 		"/>
	</g>
	<g>
		<polygon fill="#7C5904" points="223.785,130.139 361.855,130.139 361.855,137.339 223.785,137.339 227.934,133.738 		"/>
	</g>
</g>
<g>
	<g>
		<polygon fill="#7C5904" points="218.395,179.08 80.324,179.08 80.324,171.881 218.395,171.881 222.543,175.48 		"/>
	</g>
	<g>
		<polygon fill="#7C5904" points="223.785,171.881 361.855,171.881 361.855,179.08 223.785,179.08 227.934,175.48 		"/>
	</g>
</g>
<g>
	<g>
		<polygon fill="#7C5904" points="218.395,192.993 80.324,192.993 80.324,185.794 218.395,185.794 222.543,189.394 		"/>
	</g>
	<g>
		<polygon fill="#7C5904" points="223.785,185.794 361.855,185.794 361.855,192.993 223.785,192.993 227.934,189.394 		"/>
	</g>
</g>
<g>
	<g>
		<polygon fill="#7C5904" points="218.395,262.562 80.324,262.562 80.324,255.363 218.395,255.363 222.543,258.963 		"/>
	</g>
	<g>
		<polygon fill="#7C5904" points="223.785,255.363 361.855,255.363 361.855,262.562 223.785,262.562 227.934,258.963 		"/>
	</g>
</g>
<g>
	<g>
		<polygon fill="#7C5904" points="218.395,206.907 80.324,206.907 80.324,199.708 218.395,199.708 222.543,203.308 		"/>
	</g>
	<g>
		<polygon fill="#7C5904" points="223.785,199.708 361.855,199.708 361.855,206.907 223.785,206.907 227.934,203.308 		"/>
	</g>
</g>
<g>
	<g>
		<polygon fill="#7C5904" points="218.395,220.821 80.324,220.821 80.324,213.622 218.395,213.622 222.543,217.221 		"/>
	</g>
	<g>
		<polygon fill="#7C5904" points="223.785,213.622 361.855,213.622 361.855,220.821 223.785,220.821 227.934,217.221 		"/>
	</g>
</g>
<g>
	<g>
		<polygon fill="#7C5904" points="218.395,234.735 80.324,234.735 80.324,227.535 218.395,227.535 222.543,231.135 		"/>
	</g>
	<g>
		<polygon fill="#7C5904" points="223.785,227.535 361.855,227.535 361.855,234.735 223.785,234.735 227.934,231.135 		"/>
	</g>
</g>
<g>
	<g>
		<polygon fill="#7C5904" points="218.395,248.65 80.324,248.65 80.324,241.45 218.395,241.45 222.543,245.05 		"/>
	</g>
	<g>
		<polygon fill="#7C5904" points="223.785,241.45 361.855,241.45 361.855,248.65 223.785,248.65 227.934,245.05 		"/>
	</g>
</g>
<g>
	<g>
		<polygon fill="#7C5904" points="218.395,290.543 80.324,290.543 80.324,283.344 218.395,283.344 222.543,286.943 		"/>
	</g>
	<g>
		<polygon fill="#7C5904" points="223.785,283.344 361.855,283.344 361.855,290.543 223.785,290.543 227.934,286.943 		"/>
	</g>
</g>
<g>
	<g>
		<polygon fill="#7C5904" points="218.395,304.478 80.324,304.478 80.324,297.278 218.395,297.278 222.543,300.878 		"/>
	</g>
	<g>
		<polygon fill="#7C5904" points="223.785,297.278 361.855,297.278 361.855,304.478 223.785,304.478 227.934,300.878 		"/>
	</g>
</g>
<g>
	<g>
		<polygon fill="#7C5904" points="218.395,374.147 80.324,374.147 80.324,366.948 218.395,366.948 222.543,370.548 		"/>
	</g>
	<g>
		<polygon fill="#7C5904" points="223.785,366.948 361.855,366.948 361.855,374.147 223.785,374.147 227.934,370.548 		"/>
	</g>
</g>
<g>
	<g>
		<polygon fill="#7C5904" points="218.395,387.787 80.324,387.787 80.324,380.588 218.395,380.588 222.543,384.188 		"/>
	</g>
	<g>
		<polygon fill="#7C5904" points="223.785,380.588 361.855,380.588 361.855,387.787 223.785,387.787 227.934,384.188 		"/>
	</g>
</g>
<g>
	<g>
		<polygon fill="#7C5904" points="218.395,318.411 80.324,318.411 80.324,311.212 218.395,311.212 222.543,314.812 		"/>
	</g>
	<g>
		<polygon fill="#7C5904" points="223.785,311.212 361.855,311.212 361.855,318.411 223.785,318.411 227.934,314.812 		"/>
	</g>
</g>
<g>
	<g>
		<polygon fill="#7C5904" points="218.395,332.346 80.324,332.346 80.324,325.146 218.395,325.146 222.543,328.745 		"/>
	</g>
	<g>
		<polygon fill="#7C5904" points="223.785,325.146 361.855,325.146 361.855,332.346 223.785,332.346 227.934,328.745 		"/>
	</g>
</g>
<g>
	<g>
		<polygon fill="#7C5904" points="218.395,346.28 80.324,346.28 80.324,339.08 218.395,339.08 222.543,342.68 		"/>
	</g>
	<g>
		<polygon fill="#7C5904" points="223.785,339.08 361.855,339.08 361.855,346.28 223.785,346.28 227.934,342.68 		"/>
	</g>
</g>
<g>
	<g>
		<polygon fill="#7C5904" points="218.395,360.214 80.324,360.214 80.324,353.014 218.395,353.014 222.543,356.613 		"/>
	</g>
	<g>
		<polygon fill="#7C5904" points="223.785,353.014 361.855,353.014 361.855,360.214 223.785,360.214 227.934,356.613 		"/>
	</g>
</g>
<g>
	<g>
		<polygon fill="#7C5904" points="218.395,401.543 80.324,401.543 80.324,394.344 218.395,394.344 222.543,397.943 		"/>
	</g>
	<g>
		<polygon fill="#7C5904" points="223.785,394.344 361.855,394.344 361.855,401.543 223.785,401.543 227.934,397.943 		"/>
	</g>
</g>
<g>
	<g>
		<polygon fill="#7C5904" points="218.395,415.478 80.324,415.478 80.324,408.278 218.395,408.278 222.543,411.878 		"/>
	</g>
	<g>
		<polygon fill="#7C5904" points="223.785,408.278 361.855,408.278 361.855,415.478 223.785,415.478 227.934,411.878 		"/>
	</g>
</g>
<g>
	<g>
		<polygon fill="#7C5904" points="218.395,485.147 80.324,485.147 80.324,477.948 218.395,477.948 222.543,481.548 		"/>
	</g>
	<g>
		<polygon fill="#7C5904" points="223.785,477.948 227.934,481.548 223.785,485.147 357.707,485.147 361.855,481.548 
			357.707,477.948 		"/>
	</g>
</g>
<g>
	<g>
		<polygon fill="#7C5904" points="218.395,429.411 80.324,429.411 80.324,422.212 218.395,422.212 222.543,425.812 		"/>
	</g>
	<g>
		<polygon fill="#7C5904" points="223.785,422.212 361.855,422.212 361.855,429.411 223.785,429.411 227.934,425.812 		"/>
	</g>
</g>
<g>
	<g>
		<polygon fill="#7C5904" points="218.395,443.346 80.324,443.346 80.324,436.146 218.395,436.146 222.543,439.745 		"/>
	</g>
	<g>
		<polygon fill="#7C5904" points="223.785,436.146 361.855,436.146 361.855,443.346 223.785,443.346 227.934,439.745 		"/>
	</g>
</g>
<g>
	<g>
		<polygon fill="#7C5904" points="218.395,457.28 80.324,457.28 80.324,450.08 218.395,450.08 222.543,453.68 		"/>
	</g>
	<g>
		<polygon fill="#7C5904" points="223.785,450.08 361.855,450.08 361.855,457.28 223.785,457.28 227.934,453.68 		"/>
	</g>
</g>
<g>
	<g>
		<polygon fill="#7C5904" points="218.395,471.214 80.324,471.214 80.324,464.014 218.395,464.014 222.543,467.613 		"/>
	</g>
	<g>
		<polygon fill="#7C5904" points="223.785,464.014 361.855,464.014 361.855,471.214 223.785,471.214 227.934,467.613 		"/>
	</g>
</g>
<g>
	<path fill="#C63706" d="M69.741,54.626c-0.038-0.262-0.129-0.509-0.275-0.74c-0.146-0.232-0.333-0.433-0.562-0.602
		c-0.228-0.168-0.486-0.301-0.774-0.398c-0.289-0.098-0.59-0.146-0.904-0.146c-0.285,0-0.55,0.03-0.797,0.09
		s-0.462,0.152-0.646,0.275c-0.183,0.124-0.329,0.283-0.438,0.478c-0.109,0.194-0.163,0.427-0.163,0.696
		c0,0.337,0.073,0.604,0.219,0.803c0.146,0.198,0.333,0.361,0.562,0.488c0.229,0.127,0.481,0.229,0.758,0.304
		s0.546,0.157,0.809,0.247l3.088,1.033c0.427,0.149,0.827,0.355,1.202,0.617c0.375,0.263,0.698,0.581,0.971,0.955
		c0.273,0.374,0.489,0.804,0.646,1.292c0.157,0.487,0.236,1.033,0.236,1.64c0,0.823-0.151,1.575-0.455,2.257
		c-0.303,0.682-0.729,1.266-1.274,1.752c-0.546,0.486-1.202,0.864-1.965,1.134c-0.764,0.269-1.61,0.404-2.538,0.404
		c-0.651,0-1.267-0.072-1.847-0.219c-0.581-0.145-1.11-0.357-1.589-0.635c-0.479-0.276-0.898-0.607-1.258-0.993
		c-0.359-0.386-0.64-0.823-0.842-1.309h-1.157v-3.38h4.065v0.695c0,0.338,0.054,0.649,0.163,0.933
		c0.109,0.284,0.271,0.531,0.489,0.741s0.49,0.372,0.82,0.488s0.715,0.174,1.157,0.174c0.674,0,1.187-0.155,1.539-0.466
		c0.352-0.31,0.528-0.743,0.528-1.296c0-0.285-0.062-0.522-0.185-0.713c-0.124-0.192-0.283-0.353-0.478-0.484
		c-0.194-0.131-0.411-0.241-0.651-0.331s-0.476-0.172-0.708-0.247l-2.572-0.832c-0.487-0.149-0.957-0.359-1.409-0.629
		c-0.453-0.27-0.854-0.606-1.202-1.011c-0.348-0.404-0.625-0.878-0.831-1.421c-0.206-0.543-0.309-1.162-0.309-1.858
		c0-0.809,0.15-1.529,0.449-2.163c0.299-0.633,0.719-1.166,1.258-1.6c0.539-0.435,1.179-0.764,1.92-0.988
		c0.741-0.225,1.554-0.338,2.437-0.338c0.696,0,1.34,0.081,1.932,0.242s1.121,0.376,1.589,0.646c0.468,0.27,0.865,0.579,1.19,0.927
		c0.326,0.348,0.575,0.709,0.747,1.084h1.123v3.391h-4.065V54.626z"/>
</g>
<g>
	<path fill="#398EB0" d="M70.649,357.609c-0.452-0.123-0.876-0.304-1.274-0.545c-0.398-0.24-0.747-0.537-1.046-0.892
		c-0.299-0.354-0.536-0.764-0.712-1.23c-0.176-0.465-0.264-0.989-0.264-1.569c0-0.615,0.123-1.191,0.369-1.727
		c0.246-0.537,0.595-1.004,1.046-1.402s0.996-0.712,1.635-0.94s1.351-0.343,2.136-0.343h6.012v2.417h-1.239v14.089h-2.575v-14.089
		h-1.512v14.089h-2.575V357.609z"/>
</g>
<g>
	<path fill="#398EB0" d="M70.649,162.109c-0.452-0.123-0.876-0.304-1.274-0.545c-0.398-0.24-0.747-0.537-1.046-0.892
		c-0.299-0.354-0.536-0.764-0.712-1.23c-0.176-0.465-0.264-0.989-0.264-1.569c0-0.615,0.123-1.191,0.369-1.727
		c0.246-0.537,0.595-1.004,1.046-1.402s0.996-0.712,1.635-0.94s1.351-0.343,2.136-0.343h6.012v2.417h-1.239v14.089h-2.575v-14.089
		h-1.512v14.089h-2.575V162.109z"/>
</g>
<g>
	<path fill="#C63706" d="M70.649,260.609c-0.452-0.123-0.876-0.304-1.274-0.545c-0.398-0.24-0.747-0.537-1.046-0.892
		c-0.299-0.354-0.536-0.764-0.712-1.23c-0.176-0.465-0.264-0.989-0.264-1.569c0-0.615,0.123-1.191,0.369-1.727
		c0.246-0.537,0.595-1.004,1.046-1.402s0.996-0.712,1.635-0.94s1.351-0.343,2.136-0.343h6.012v2.417h-1.239v14.089h-2.575v-14.089
		h-1.512v14.089h-2.575V260.609z"/>
</g>
<g>
	<path fill="#C63706" d="M70.649,454.609c-0.452-0.123-0.876-0.304-1.274-0.545c-0.398-0.24-0.747-0.537-1.046-0.892
		c-0.299-0.354-0.536-0.764-0.712-1.23c-0.176-0.465-0.264-0.989-0.264-1.569c0-0.615,0.123-1.191,0.369-1.727
		c0.246-0.537,0.595-1.004,1.046-1.402s0.996-0.712,1.635-0.94s1.351-0.343,2.136-0.343h6.012v2.417h-1.239v14.089h-2.575v-14.089
		h-1.512v14.089h-2.575V454.609z"/>
</g>
</svg>
