<?xml version="1.0" encoding="utf-8"?>
<!-- Generator: Adobe Illustrator 16.0.4, SVG Export Plug-In . SVG Version: 6.00 Build 0)  -->
<!DOCTYPE svg PUBLIC "-//W3C//DTD SVG 1.1//EN" "http://www.w3.org/Graphics/SVG/1.1/DTD/svg11.dtd">
<svg version="1.1" id="Layer_1" xmlns="http://www.w3.org/2000/svg" xmlns:xlink="http://www.w3.org/1999/xlink" x="0px" y="0px"
	 width="448.746px" height="616.435px" viewBox="0 0 448.746 616.435" enable-background="new 0 0 448.746 616.435"
	 xml:space="preserve">
<rect x="0.5" y="0.5" fill="#FFFFFF" stroke="#C68D06" stroke-miterlimit="10" width="447.746" height="615.435"/>
<g>
	<path fill="#C68D06" d="M346.787,580.889h4.865v-20.967c-1.26,0.665-3.29,1.189-4.796,1.189v-2.205
		c1.995-0.07,3.78-0.595,4.936-1.68h2.311v23.662h4.41v2.24h-11.726V580.889z"/>
	<path fill="#C68D06" d="M364.986,582.569c0-3.745,1.855-7.175,8.681-11.551c3.885-2.485,5.46-4.235,5.46-7.036
		c0-3.045-1.889-5.04-5.285-5.04c-2.835,0-4.9,1.47-6.44,4.48l-1.961-1.155c1.82-3.5,4.691-5.53,8.506-5.53
		c4.691,0,7.596,2.94,7.596,7.105c0,3.535-1.715,5.775-6.686,8.926c-4.69,2.976-6.965,5.775-7.141,8.121h13.932v2.24h-16.662
		V582.569z"/>
	<path fill="#C68D06" d="M388.611,557.227h2.556l7.735,22.612h0.07l7.771-22.612h2.416l-9.102,26.008h-2.345L388.611,557.227z"/>
</g>
<g>
	<rect x="80.387" y="158.966" fill="#C0DDE7" width="281.738" height="7.2"/>
</g>
<g>
	<rect x="80.386" y="172.88" fill="#C0DDE7" width="281.739" height="7.199"/>
</g>
<g>
	<rect x="80.387" y="186.793" fill="#C0DDE7" width="281.738" height="7.2"/>
</g>
<g>
	<rect x="80.387" y="200.708" fill="#C0DDE7" width="281.738" height="7.199"/>
</g>
<g>
	<rect x="80.387" y="214.621" fill="#C0DDE7" width="281.738" height="7.199"/>
</g>
<g>
	<rect x="80.387" y="228.534" fill="#C0DDE7" width="281.738" height="7.2"/>
</g>
<g>
	<rect x="80.386" y="242.449" fill="#C0DDE7" width="281.739" height="7.198"/>
</g>
<g>
	<rect x="80.386" y="256.361" fill="#C0DDE7" width="281.739" height="7.2"/>
</g>
<g>
	<rect x="80.387" y="270.275" fill="#C0DDE7" width="281.738" height="7.199"/>
</g>
<g>
	<rect x="80.386" y="284.188" fill="#C0DDE7" width="281.739" height="7.2"/>
</g>
<g>
	<rect x="80.387" y="298.102" fill="#C0DDE7" width="281.738" height="7.2"/>
</g>
<g>
	<rect x="80.387" y="312.015" fill="#C0DDE7" width="281.738" height="7.2"/>
</g>
<g>
	<rect x="80.387" y="325.929" fill="#C0DDE7" width="281.738" height="7.199"/>
</g>
<g>
	<rect x="80.386" y="339.842" fill="#C0DDE7" width="281.739" height="7.2"/>
</g>
<g>
	<rect x="80.387" y="353.755" fill="#C0DDE7" width="281.738" height="7.2"/>
</g>
<g>
	<rect x="80.387" y="367.668" fill="#C0DDE7" width="281.738" height="7.201"/>
</g>
<g>
	<rect x="80.387" y="381.583" fill="#C0DDE7" width="281.738" height="7.198"/>
</g>
<g>
	<rect x="80.387" y="395.497" fill="#C0DDE7" width="281.738" height="7.199"/>
</g>
<g>
	<rect x="80.386" y="409.411" fill="#C0DDE7" width="281.739" height="7.199"/>
</g>
<g>
	<rect x="80.387" y="423.324" fill="#C0DDE7" width="281.738" height="7.2"/>
</g>
<g>
	<rect x="80.386" y="437.238" fill="#C0DDE7" width="281.739" height="7.2"/>
</g>
<g>
	<rect x="80.387" y="451.152" fill="#C0DDE7" width="281.738" height="7.199"/>
</g>
<g>
	<rect x="80.386" y="465.066" fill="#C0DDE7" width="281.739" height="7.199"/>
</g>
<g>
	<rect x="80.387" y="478.979" fill="#C0DDE7" width="281.738" height="7.2"/>
</g>
<g>
	<rect x="80.387" y="61.569" fill="#C0DDE7" width="281.738" height="7.2"/>
</g>
<g>
	<rect x="80.386" y="75.483" fill="#C0DDE7" width="281.739" height="7.2"/>
</g>
<g>
	<rect x="80.386" y="145.052" fill="#C0DDE7" width="281.739" height="7.2"/>
</g>
<g>
	<rect x="80.387" y="89.397" fill="#C0DDE7" width="281.738" height="7.199"/>
</g>
<g>
	<rect x="80.386" y="103.311" fill="#C0DDE7" width="281.739" height="7.2"/>
</g>
<g>
	<rect x="80.386" y="117.225" fill="#C0DDE7" width="281.739" height="7.199"/>
</g>
<g>
	<rect x="80.386" y="131.139" fill="#C0DDE7" width="281.739" height="7.199"/>
</g>
<g>
	<g>
		<polygon fill="#7C5904" points="218.56,458.275 80.49,458.275 80.49,451.075 218.56,451.075 222.708,454.674 		"/>
	</g>
	<g>
		<polygon fill="#7C5904" points="223.951,451.075 362.021,451.075 362.021,458.275 223.951,458.275 228.098,454.674 		"/>
	</g>
</g>
<g>
	<g>
		<polygon fill="#7C5904" points="218.56,472.208 80.49,472.208 80.49,465.008 218.56,465.008 222.708,468.608 		"/>
	</g>
	<g>
		<polygon fill="#7C5904" points="223.951,465.008 362.021,465.008 362.021,472.208 223.951,472.208 228.098,468.608 		"/>
	</g>
</g>
<g>
	<g>
		<polygon fill="#7C5904" points="223.951,61.569 362.021,61.569 362.021,68.768 223.951,68.768 228.098,65.168 		"/>
	</g>
	<g>
		<polygon fill="#7C5904" points="222.708,65.168 218.561,61.57 218.561,61.569 218.56,61.569 80.49,61.569 84.638,65.168 
			80.49,68.768 218.56,68.768 218.561,68.768 218.561,68.768 		"/>
	</g>
</g>
<g>
	<g>
		<polygon fill="#7C5904" points="218.56,96.363 80.49,96.363 80.49,89.164 218.56,89.164 222.708,92.764 		"/>
	</g>
	<g>
		<polygon fill="#7C5904" points="223.951,89.164 362.021,89.164 362.021,96.363 223.951,96.363 228.098,92.764 		"/>
	</g>
</g>
<g>
	<g>
		<polygon fill="#7C5904" points="218.56,82.682 80.49,82.682 80.49,75.483 218.56,75.483 222.708,79.083 		"/>
	</g>
	<g>
		<polygon fill="#7C5904" points="223.951,75.483 362.021,75.483 362.021,82.682 223.951,82.682 228.098,79.083 		"/>
	</g>
</g>
<g>
	<g>
		<polygon fill="#7C5904" points="218.56,165.932 80.49,165.932 80.49,158.732 218.56,158.732 222.708,162.332 		"/>
	</g>
	<g>
		<polygon fill="#7C5904" points="223.951,158.732 362.021,158.732 362.021,165.932 223.951,165.932 228.098,162.332 		"/>
	</g>
</g>
<g>
	<g>
		<polygon fill="#7C5904" points="218.56,179.846 80.49,179.846 80.49,172.646 218.56,172.646 222.708,176.246 		"/>
	</g>
	<g>
		<polygon fill="#7C5904" points="223.951,172.646 362.021,172.646 362.021,179.846 223.951,179.846 228.098,176.246 		"/>
	</g>
</g>
<g>
	<g>
		<polygon fill="#7C5904" points="218.56,291.154 80.49,291.154 80.49,283.955 218.56,283.955 222.708,287.554 		"/>
	</g>
	<g>
		<polygon fill="#7C5904" points="223.951,283.955 362.021,283.955 362.021,291.154 223.951,291.154 228.098,287.554 		"/>
	</g>
</g>
<g>
	<g>
		<polygon fill="#7C5904" points="218.56,110.276 80.49,110.276 80.49,103.077 218.56,103.077 222.708,106.676 		"/>
	</g>
	<g>
		<polygon fill="#7C5904" points="223.951,103.077 362.021,103.077 362.021,110.276 223.951,110.276 228.098,106.676 		"/>
	</g>
</g>
<g>
	<g>
		<polygon fill="#7C5904" points="218.56,124.191 80.49,124.191 80.49,116.992 218.56,116.992 222.708,120.59 		"/>
	</g>
	<g>
		<polygon fill="#7C5904" points="223.951,116.992 362.021,116.992 362.021,124.191 223.951,124.191 228.098,120.59 		"/>
	</g>
</g>
<g>
	<g>
		<polygon fill="#7C5904" points="218.56,138.104 80.49,138.104 80.49,130.904 218.56,130.904 222.708,134.503 		"/>
	</g>
	<g>
		<polygon fill="#7C5904" points="223.951,130.904 362.021,130.904 362.021,138.104 223.951,138.104 228.098,134.503 		"/>
	</g>
</g>
<g>
	<g>
		<polygon fill="#7C5904" points="218.56,152.018 80.49,152.018 80.49,144.818 218.56,144.818 222.708,148.417 		"/>
	</g>
	<g>
		<polygon fill="#7C5904" points="223.951,144.818 362.021,144.818 362.021,152.018 223.951,152.018 228.098,148.417 		"/>
	</g>
</g>
<g>
	<g>
		<polygon fill="#7C5904" points="218.561,193.759 80.49,193.759 80.49,186.56 218.561,186.56 222.709,190.16 		"/>
	</g>
	<g>
		<polygon fill="#7C5904" points="223.951,186.56 362.021,186.56 362.021,193.759 223.951,193.759 228.099,190.16 		"/>
	</g>
</g>
<g>
	<g>
		<polygon fill="#7C5904" points="218.56,207.672 80.49,207.672 80.49,200.473 218.56,200.473 222.708,204.073 		"/>
	</g>
	<g>
		<polygon fill="#7C5904" points="223.951,200.473 362.021,200.473 362.021,207.672 223.951,207.672 228.098,204.073 		"/>
	</g>
</g>
<g>
	<g>
		<polygon fill="#7C5904" points="218.56,277.24 80.49,277.24 80.49,270.041 218.56,270.041 222.708,273.64 		"/>
	</g>
	<g>
		<polygon fill="#7C5904" points="223.951,270.041 362.021,270.041 362.021,277.24 223.951,277.24 228.098,273.64 		"/>
	</g>
</g>
<g>
	<g>
		<polygon fill="#7C5904" points="218.56,221.586 80.49,221.586 80.49,214.387 218.56,214.387 222.708,217.987 		"/>
	</g>
	<g>
		<polygon fill="#7C5904" points="223.951,214.387 362.021,214.387 362.021,221.586 223.951,221.586 228.098,217.987 		"/>
	</g>
</g>
<g>
	<g>
		<polygon fill="#7C5904" points="218.56,235.5 80.49,235.5 80.49,228.301 218.56,228.301 222.708,231.9 		"/>
	</g>
	<g>
		<polygon fill="#7C5904" points="223.951,228.301 362.021,228.301 362.021,235.5 223.951,235.5 228.098,231.9 		"/>
	</g>
</g>
<g>
	<g>
		<polygon fill="#7C5904" points="218.56,249.414 80.49,249.414 80.49,242.213 218.56,242.213 222.708,245.813 		"/>
	</g>
	<g>
		<polygon fill="#7C5904" points="223.951,242.213 362.021,242.213 362.021,249.414 223.951,249.414 228.098,245.813 		"/>
	</g>
</g>
<g>
	<g>
		<polygon fill="#7C5904" points="218.56,263.328 80.49,263.328 80.49,256.128 218.56,256.128 222.708,259.727 		"/>
	</g>
	<g>
		<polygon fill="#7C5904" points="223.951,256.128 362.021,256.128 362.021,263.328 223.951,263.328 228.098,259.727 		"/>
	</g>
</g>
<g>
	<g>
		<polygon fill="#7C5904" points="218.561,305.22 80.49,305.22 80.49,298.02 218.561,298.02 222.709,301.62 		"/>
	</g>
	<g>
		<polygon fill="#7C5904" points="223.951,298.02 362.021,298.02 362.021,305.22 223.951,305.22 228.099,301.62 		"/>
	</g>
</g>
<g>
	<g>
		<polygon fill="#7C5904" points="218.56,319.154 80.49,319.154 80.49,311.955 218.56,311.955 222.708,315.554 		"/>
	</g>
	<g>
		<polygon fill="#7C5904" points="223.951,311.955 362.021,311.955 362.021,319.154 223.951,319.154 228.098,315.554 		"/>
	</g>
</g>
<g>
	<g>
		<polygon fill="#7C5904" points="218.56,333.087 80.49,333.087 80.49,325.888 218.56,325.888 222.708,329.488 		"/>
	</g>
	<g>
		<polygon fill="#7C5904" points="223.951,325.888 362.021,325.888 362.021,333.087 223.951,333.087 228.098,329.488 		"/>
	</g>
</g>
<g>
	<g>
		<polygon fill="#7C5904" points="218.56,347.021 80.49,347.021 80.49,339.822 218.56,339.822 222.708,343.42 		"/>
	</g>
	<g>
		<polygon fill="#7C5904" points="223.951,339.822 362.021,339.822 362.021,347.021 223.951,347.021 228.098,343.42 		"/>
	</g>
</g>
<g>
	<g>
		<polygon fill="#7C5904" points="218.56,360.956 80.49,360.956 80.49,353.755 218.56,353.755 222.708,357.355 		"/>
	</g>
	<g>
		<polygon fill="#7C5904" points="223.951,353.755 362.021,353.755 362.021,360.956 223.951,360.956 228.098,357.355 		"/>
	</g>
</g>
<g>
	<path fill="#C63706" d="M70.817,315.701c-0.451-0.123-0.876-0.305-1.275-0.545c-0.398-0.24-0.747-0.537-1.045-0.893
		c-0.299-0.354-0.537-0.764-0.712-1.23c-0.176-0.465-0.264-0.988-0.264-1.568c0-0.615,0.123-1.191,0.369-1.727
		c0.246-0.537,0.595-1.004,1.046-1.402s0.996-0.712,1.635-0.94c0.638-0.229,1.351-0.343,2.136-0.343h6.012v2.417h-1.239v14.089
		h-2.575v-14.089h-1.512v14.089h-2.575V315.701z"/>
</g>
<g>
	<path fill="#398EB0" d="M70.817,218.619c-0.451-0.123-0.876-0.305-1.275-0.545c-0.398-0.24-0.747-0.537-1.045-0.893
		c-0.299-0.354-0.537-0.764-0.712-1.23c-0.176-0.465-0.264-0.988-0.264-1.568c0-0.615,0.123-1.191,0.369-1.727
		c0.246-0.537,0.595-1.004,1.046-1.402s0.996-0.712,1.635-0.94c0.638-0.229,1.351-0.343,2.136-0.343h6.012v2.417h-1.239v14.089
		h-2.575v-14.089h-1.512v14.089h-2.575V218.619z"/>
</g>
<g>
	<path fill="#C63706" d="M70.817,120.953c-0.451-0.123-0.876-0.305-1.275-0.545c-0.398-0.241-0.747-0.537-1.045-0.893
		c-0.299-0.354-0.537-0.763-0.712-1.23c-0.176-0.465-0.264-0.989-0.264-1.569c0-0.615,0.123-1.191,0.369-1.727
		c0.246-0.537,0.595-1.003,1.046-1.402s0.996-0.712,1.635-0.94c0.638-0.229,1.351-0.343,2.136-0.343h6.012v2.417h-1.239v14.089
		h-2.575v-14.089h-1.512v14.089h-2.575V120.953z"/>
</g>
<g>
	<path fill="#398EB0" d="M60.083,385.585h7.861c0.876,0,1.681,0.137,2.415,0.41s1.366,0.642,1.898,1.105
		c0.532,0.465,0.947,1,1.247,1.606s0.449,1.239,0.449,1.897c0,0.794-0.118,1.537-0.354,2.229c-0.236,0.692-0.601,1.294-1.095,1.803
		s-1.119,0.911-1.875,1.207s-1.651,0.444-2.684,0.444h-2.37v3.245h1.561v3.077h-7.053v-3.077h1.763v-10.86h-1.763V385.585z
		 M65.575,388.673v4.571h1.539c0.854,0,1.531-0.18,2.033-0.539c0.501-0.359,0.752-0.929,0.752-1.707
		c0-0.727-0.235-1.295-0.707-1.707s-1.164-0.618-2.078-0.618H65.575z"/>
</g>
<g>
	<g>
		<polygon fill="#7C5904" points="218.56,430.387 80.49,430.387 80.49,423.188 218.56,423.188 222.708,426.788 		"/>
	</g>
	<g>
		<polygon fill="#7C5904" points="223.951,423.188 362.021,423.188 362.021,430.387 223.951,430.387 228.098,426.788 		"/>
	</g>
</g>
<g>
	<g>
		<polygon fill="#7C5904" points="218.664,402.698 80.594,402.698 80.594,395.499 218.664,395.499 222.812,399.098 		"/>
	</g>
	<g>
		<polygon fill="#7C5904" points="224.055,395.499 362.125,395.499 362.125,402.698 224.055,402.698 228.203,399.098 		"/>
	</g>
</g>
<g>
	<rect x="80.387" y="409.412" fill="#7C5904" width="142.488" height="7.199"/>
</g>
<g>
	<rect x="80.387" y="437.239" fill="#7C5904" width="142.488" height="7.199"/>
</g>
</svg>
