<?xml version="1.0" encoding="utf-8"?>
<!-- Generator: Adobe Illustrator 16.0.4, SVG Export Plug-In . SVG Version: 6.00 Build 0)  -->
<!DOCTYPE svg PUBLIC "-//W3C//DTD SVG 1.1//EN" "http://www.w3.org/Graphics/SVG/1.1/DTD/svg11.dtd">
<svg version="1.1" id="Layer_1" xmlns="http://www.w3.org/2000/svg" xmlns:xlink="http://www.w3.org/1999/xlink" x="0px" y="0px"
	 width="448.746px" height="616.44px" viewBox="0 0 448.746 616.44" enable-background="new 0 0 448.746 616.44"
	 xml:space="preserve">
<rect x="0.5" y="0.5" fill="#FFFFFF" stroke="#C68D06" stroke-miterlimit="10" width="447.746" height="615.44"/>
<g>
	<path fill="#C68D06" d="M346.959,577.894h4.865v-20.967c-1.26,0.665-3.29,1.189-4.796,1.189v-2.205
		c1.995-0.07,3.78-0.595,4.936-1.68h2.311v23.662h4.41v2.24h-11.726V577.894z"/>
	<path fill="#C68D06" d="M364.214,575.793l1.855-1.33c1.891,2.836,4.2,3.991,7.07,3.991c3.815,0,6.161-2.101,6.161-5.286
		c0-3.815-2.24-5.705-8.331-5.705h-0.979v-2.136h1.189c5.496,0,7.561-1.68,7.561-4.865c0-2.591-1.574-4.516-5.495-4.516
		c-2.625,0-4.655,1.295-6.161,3.15l-1.715-1.436c1.855-2.24,4.516-3.92,8.016-3.92c5.461,0,7.771,3.115,7.771,6.476
		c0,3.325-1.961,5.53-5.112,6.126c3.851,0.805,5.707,3.01,5.707,6.825c0,4.235-3.325,7.456-8.646,7.456
		C369.324,580.625,366.14,578.875,364.214,575.793z"/>
	<path fill="#C68D06" d="M388.608,554.232h2.556l7.735,22.612h0.07l7.771-22.612h2.416l-9.102,26.008h-2.345L388.608,554.232z"/>
</g>
<g>
	<rect x="80.216" y="158.467" fill="#C0DDE7" width="281.738" height="7.199"/>
</g>
<g>
	<rect x="80.216" y="172.38" fill="#C0DDE7" width="281.738" height="7.199"/>
</g>
<g>
	<rect x="80.216" y="186.294" fill="#C0DDE7" width="281.738" height="7.201"/>
</g>
<g>
	<rect x="80.216" y="200.208" fill="#C0DDE7" width="281.738" height="7.199"/>
</g>
<g>
	<rect x="80.216" y="214.122" fill="#C0DDE7" width="281.738" height="7.2"/>
</g>
<g>
	<rect x="80.216" y="228.035" fill="#C0DDE7" width="281.738" height="7.201"/>
</g>
<g>
	<rect x="80.216" y="241.95" fill="#C0DDE7" width="281.738" height="7.199"/>
</g>
<g>
	<rect x="80.216" y="255.863" fill="#C0DDE7" width="281.738" height="7.2"/>
</g>
<g>
	<rect x="80.216" y="269.778" fill="#C0DDE7" width="281.738" height="7.199"/>
</g>
<g>
	<rect x="80.216" y="283.691" fill="#C0DDE7" width="281.738" height="7.2"/>
</g>
<g>
	<rect x="80.216" y="297.604" fill="#C0DDE7" width="281.738" height="7.2"/>
</g>
<g>
	<rect x="80.216" y="311.519" fill="#C0DDE7" width="281.738" height="7.2"/>
</g>
<g>
	<rect x="80.216" y="325.433" fill="#C0DDE7" width="281.738" height="7.199"/>
</g>
<g>
	<rect x="80.216" y="339.346" fill="#C0DDE7" width="281.738" height="7.2"/>
</g>
<g>
	<rect x="80.216" y="353.26" fill="#C0DDE7" width="281.738" height="7.2"/>
</g>
<g>
	<rect x="80.216" y="367.174" fill="#C0DDE7" width="281.738" height="7.2"/>
</g>
<g>
	<rect x="80.216" y="381.088" fill="#C0DDE7" width="281.738" height="7.199"/>
</g>
<g>
	<rect x="80.216" y="395.002" fill="#C0DDE7" width="281.738" height="7.199"/>
</g>
<g>
	<rect x="80.216" y="408.916" fill="#C0DDE7" width="281.738" height="7.199"/>
</g>
<g>
	<rect x="80.216" y="422.829" fill="#C0DDE7" width="281.738" height="7.201"/>
</g>
<g>
	<rect x="80.216" y="436.743" fill="#C0DDE7" width="281.738" height="7.2"/>
</g>
<g>
	<rect x="80.216" y="450.657" fill="#C0DDE7" width="281.738" height="7.199"/>
</g>
<g>
	<rect x="80.216" y="464.571" fill="#C0DDE7" width="281.738" height="7.199"/>
</g>
<g>
	<rect x="80.216" y="478.484" fill="#C0DDE7" width="281.738" height="7.201"/>
</g>
<g>
	<rect x="80.216" y="61.07" fill="#C0DDE7" width="281.738" height="7.2"/>
</g>
<g>
	<rect x="80.216" y="74.984" fill="#C0DDE7" width="281.738" height="7.2"/>
</g>
<g>
	<rect x="80.216" y="144.553" fill="#C0DDE7" width="281.738" height="7.199"/>
</g>
<g>
	<rect x="80.216" y="88.897" fill="#C0DDE7" width="281.738" height="7.199"/>
</g>
<g>
	<rect x="80.216" y="102.811" fill="#C0DDE7" width="281.738" height="7.2"/>
</g>
<g>
	<rect x="80.216" y="116.725" fill="#C0DDE7" width="281.738" height="7.199"/>
</g>
<g>
	<rect x="80.216" y="130.639" fill="#C0DDE7" width="281.738" height="7.199"/>
</g>
<g>
	<g>
		<polygon fill="#7C5904" points="218.39,82.184 80.32,82.184 80.32,74.984 218.39,74.984 222.539,78.584 		"/>
	</g>
	<g>
		<polygon fill="#7C5904" points="223.781,74.984 361.851,74.984 361.851,82.184 223.781,82.184 227.929,78.584 		"/>
	</g>
</g>
<g>
	<g>
		<polygon fill="#7C5904" points="218.39,151.752 80.32,151.752 80.32,144.553 218.39,144.553 222.539,148.152 		"/>
	</g>
	<g>
		<polygon fill="#7C5904" points="223.781,144.553 361.851,144.553 361.851,151.752 223.781,151.752 227.929,148.152 		"/>
	</g>
</g>
<g>
	<g>
		<polygon fill="#7C5904" points="218.39,165.666 80.32,165.666 80.32,158.467 218.39,158.467 222.539,162.066 		"/>
	</g>
	<g>
		<polygon fill="#7C5904" points="223.781,158.467 361.851,158.467 361.851,165.666 223.781,165.666 227.929,162.066 		"/>
	</g>
</g>
<g>
	<g>
		<polygon fill="#7C5904" points="218.39,96.097 80.32,96.097 80.32,88.897 218.39,88.897 222.539,92.497 		"/>
	</g>
	<g>
		<polygon fill="#7C5904" points="223.781,88.897 361.851,88.897 361.851,96.097 223.781,96.097 227.929,92.497 		"/>
	</g>
</g>
<g>
	<g>
		<polygon fill="#7C5904" points="218.39,123.924 80.32,123.924 80.32,116.724 218.39,116.724 222.539,120.324 		"/>
	</g>
	<g>
		<polygon fill="#7C5904" points="223.781,116.724 361.851,116.724 361.851,123.924 223.781,123.924 227.929,120.324 		"/>
	</g>
</g>
<g>
	<g>
		<polygon fill="#7C5904" points="218.39,179.58 80.32,179.58 80.32,172.38 218.39,172.38 222.539,175.98 		"/>
	</g>
	<g>
		<polygon fill="#7C5904" points="223.781,172.38 361.851,172.38 361.851,179.58 223.781,179.58 227.929,175.98 		"/>
	</g>
</g>
<g>
	<g>
		<polygon fill="#7C5904" points="218.39,207.407 80.32,207.407 80.32,200.208 218.39,200.208 222.539,203.808 		"/>
	</g>
	<g>
		<polygon fill="#7C5904" points="223.781,200.208 361.851,200.208 361.851,207.407 223.781,207.407 227.929,203.808 		"/>
	</g>
</g>
<g>
	<g>
		<polygon fill="#7C5904" points="218.39,221.321 80.32,221.321 80.32,214.122 218.39,214.122 222.539,217.721 		"/>
	</g>
	<g>
		<polygon fill="#7C5904" points="223.781,214.122 361.851,214.122 361.851,221.321 223.781,221.321 227.929,217.721 		"/>
	</g>
</g>
<g>
	<g>
		<polygon fill="#7C5904" points="218.39,235.236 80.32,235.236 80.32,228.035 218.39,228.035 222.539,231.635 		"/>
	</g>
	<g>
		<polygon fill="#7C5904" points="223.781,228.035 361.851,228.035 361.851,235.236 223.781,235.236 227.929,231.635 		"/>
	</g>
</g>
<g>
	<g>
		<polygon fill="#7C5904" points="218.39,291.042 80.32,291.042 80.32,283.843 218.39,283.843 222.539,287.443 		"/>
	</g>
	<g>
		<polygon fill="#7C5904" points="223.781,283.843 361.852,283.843 361.852,291.042 223.781,291.042 227.929,287.443 		"/>
	</g>
</g>
<g>
	<g>
		<polygon fill="#7C5904" points="218.39,276.977 80.32,276.977 80.32,269.778 218.39,269.778 222.539,273.377 		"/>
	</g>
	<g>
		<polygon fill="#7C5904" points="223.781,269.778 361.852,269.778 361.852,276.977 223.781,276.977 227.929,273.377 		"/>
	</g>
</g>
<g>
	<g>
		<polygon fill="#7C5904" points="218.39,304.977 80.32,304.977 80.32,297.778 218.39,297.778 222.539,301.377 		"/>
	</g>
	<g>
		<polygon fill="#7C5904" points="223.781,297.778 361.851,297.778 361.851,304.977 223.781,304.977 227.929,301.377 		"/>
	</g>
</g>
<g>
	<g>
		<polygon fill="#7C5904" points="218.39,318.911 80.32,318.911 80.32,311.712 218.39,311.712 222.539,315.312 		"/>
	</g>
	<g>
		<polygon fill="#7C5904" points="223.781,311.712 361.851,311.712 361.851,318.911 223.781,318.911 227.929,315.312 		"/>
	</g>
</g>
<g>
	<g>
		<polygon fill="#7C5904" points="218.39,332.845 80.32,332.845 80.32,325.646 218.39,325.646 222.539,329.245 		"/>
	</g>
	<g>
		<polygon fill="#7C5904" points="223.781,325.646 361.851,325.646 361.851,332.845 223.781,332.845 227.929,329.245 		"/>
	</g>
</g>
<g>
	<g>
		<polygon fill="#7C5904" points="218.39,346.78 80.32,346.78 80.32,339.58 218.39,339.58 222.539,343.179 		"/>
	</g>
	<g>
		<polygon fill="#7C5904" points="223.781,339.58 361.851,339.58 361.851,346.78 223.781,346.78 227.929,343.179 		"/>
	</g>
</g>
<g>
	<g>
		<polygon fill="#7C5904" points="218.39,360.714 80.32,360.714 80.32,353.514 218.39,353.514 222.539,357.113 		"/>
	</g>
	<g>
		<polygon fill="#7C5904" points="223.781,353.514 361.851,353.514 361.851,360.714 223.781,360.714 227.929,357.113 		"/>
	</g>
</g>
<g>
	<g>
		<polygon fill="#7C5904" points="218.39,402.042 80.32,402.042 80.32,394.843 218.39,394.843 222.539,398.443 		"/>
	</g>
	<g>
		<polygon fill="#7C5904" points="223.781,394.843 361.852,394.843 361.852,402.042 223.781,402.042 227.929,398.443 		"/>
	</g>
</g>
<g>
	<g>
		<polygon fill="#7C5904" points="218.39,415.977 80.32,415.977 80.32,408.778 218.39,408.778 222.539,412.377 		"/>
	</g>
	<g>
		<polygon fill="#7C5904" points="223.781,408.778 361.851,408.778 361.851,415.977 223.781,415.977 227.929,412.377 		"/>
	</g>
</g>
<g>
	<g>
		<polygon fill="#7C5904" points="218.39,388.287 80.32,388.287 80.32,381.088 218.39,381.088 222.539,384.688 		"/>
	</g>
	<g>
		<polygon fill="#7C5904" points="223.781,381.088 361.851,381.088 361.851,388.287 223.781,388.287 227.929,384.688 		"/>
	</g>
</g>
<g>
	<g>
		<polygon fill="#7C5904" points="218.39,429.911 80.32,429.911 80.32,422.712 218.39,422.712 222.539,426.312 		"/>
	</g>
	<g>
		<polygon fill="#7C5904" points="223.781,422.712 361.851,422.712 361.851,429.911 223.781,429.911 227.929,426.312 		"/>
	</g>
</g>
<g>
	<g>
		<polygon fill="#7C5904" points="218.39,443.845 80.32,443.845 80.32,436.646 218.39,436.646 222.539,440.245 		"/>
	</g>
	<g>
		<polygon fill="#7C5904" points="223.781,436.646 361.851,436.646 361.851,443.845 223.781,443.845 227.929,440.245 		"/>
	</g>
</g>
<g>
	<g>
		<polygon fill="#7C5904" points="218.39,457.78 80.32,457.78 80.32,450.58 218.39,450.58 222.539,454.179 		"/>
	</g>
	<g>
		<polygon fill="#7C5904" points="223.781,450.58 361.851,450.58 361.851,457.78 223.781,457.78 227.929,454.179 		"/>
	</g>
</g>
<g>
	<g>
		<polygon fill="#7C5904" points="218.39,471.714 80.32,471.714 80.32,464.514 218.39,464.514 222.539,468.113 		"/>
	</g>
	<g>
		<polygon fill="#7C5904" points="223.781,464.514 361.851,464.514 361.851,471.714 223.781,471.714 227.929,468.113 		"/>
	</g>
</g>
<g>
	<path fill="#C63706" d="M61.813,106.333h7.861c0.876,0,1.681,0.137,2.415,0.41s1.366,0.642,1.898,1.105
		c0.532,0.465,0.947,1,1.247,1.606s0.449,1.239,0.449,1.897c0,0.794-0.118,1.537-0.354,2.229c-0.236,0.692-0.601,1.294-1.095,1.803
		s-1.119,0.911-1.875,1.207s-1.651,0.444-2.684,0.444h-2.37v3.245h1.561v3.077h-7.053v-3.077h1.763v-10.86h-1.763V106.333z
		 M67.305,109.42v4.571h1.539c0.854,0,1.531-0.18,2.033-0.539s0.752-0.929,0.752-1.707c0-0.727-0.236-1.295-0.708-1.707
		c-0.471-0.412-1.164-0.618-2.077-0.618H67.305z"/>
</g>
<g>
	<path fill="#398EB0" d="M60.42,260.091h7.289v3.088h-1.797v10.86h3.706c0.097,0,0.193-0.028,0.286-0.084
		c0.094-0.057,0.176-0.13,0.247-0.22c0.071-0.09,0.129-0.187,0.174-0.291c0.045-0.105,0.067-0.206,0.067-0.304v-2.28h3.639v6.256
		H60.42v-3.077h1.763v-10.86H60.42V260.091z"/>
</g>
<g>
	<path fill="#C63706" d="M59.971,385.277h1.74v-10.86h-1.74v-3.11l8.299,0.022c0.771,0,1.477,0.137,2.117,0.41
		c0.64,0.273,1.192,0.644,1.656,1.111c0.465,0.468,0.826,1.015,1.084,1.64s0.388,1.29,0.388,1.993c0,0.824-0.144,1.506-0.432,2.045
		c-0.289,0.539-0.698,0.973-1.23,1.303c0.562,0.359,1.005,0.803,1.331,1.33c0.326,0.528,0.489,1.17,0.489,1.926
		c0,0.771-0.133,1.479-0.399,2.123c-0.266,0.644-0.629,1.2-1.089,1.668c-0.461,0.468-1.005,0.831-1.634,1.089
		c-0.629,0.259-1.307,0.388-2.033,0.388h-8.546V385.277z M65.44,374.417v3.818h2.673c0.209,0,0.408-0.052,0.595-0.156
		c0.187-0.105,0.35-0.246,0.489-0.422c0.138-0.176,0.249-0.374,0.331-0.595s0.124-0.451,0.124-0.69c0-0.232-0.041-0.465-0.124-0.697
		c-0.083-0.231-0.193-0.441-0.331-0.629c-0.139-0.187-0.302-0.338-0.489-0.454s-0.386-0.175-0.595-0.175H65.44z M65.44,381.313
		v3.964h2.83c0.217,0,0.421-0.056,0.612-0.169c0.19-0.111,0.355-0.26,0.494-0.443c0.139-0.184,0.249-0.396,0.332-0.64
		s0.124-0.496,0.124-0.759c0-0.276-0.041-0.533-0.124-0.769c-0.083-0.236-0.195-0.442-0.337-0.618s-0.309-0.314-0.5-0.415
		c-0.19-0.102-0.391-0.151-0.601-0.151H65.44z"/>
</g>
<g>
	<path fill="#398EB0" d="M70.901,149.095c-0.451-0.123-0.876-0.305-1.275-0.545c-0.398-0.24-0.747-0.537-1.045-0.893
		c-0.299-0.354-0.537-0.764-0.712-1.23c-0.176-0.465-0.264-0.988-0.264-1.568c0-0.615,0.123-1.191,0.369-1.727
		c0.246-0.537,0.595-1.004,1.046-1.402s0.996-0.712,1.635-0.94c0.638-0.229,1.351-0.343,2.136-0.343h6.012v2.417h-1.239v14.089
		h-2.575v-14.089h-1.512v14.089h-2.575V149.095z"/>
</g>
<g>
	<path fill="#C63706" d="M70.901,205.095c-0.451-0.123-0.876-0.305-1.275-0.545c-0.398-0.24-0.747-0.537-1.045-0.893
		c-0.299-0.354-0.537-0.764-0.712-1.23c-0.176-0.465-0.264-0.988-0.264-1.568c0-0.615,0.123-1.191,0.369-1.727
		c0.246-0.537,0.595-1.004,1.046-1.402s0.996-0.712,1.635-0.94c0.638-0.229,1.351-0.343,2.136-0.343h6.012v2.417h-1.239v14.089
		h-2.575v-14.089h-1.512v14.089h-2.575V205.095z"/>
</g>
<g>
	<rect x="80.216" y="130.639" fill="#7C5904" width="142.488" height="7.199"/>
</g>
<g>
	<rect x="80.216" y="186.294" fill="#7C5904" width="142.488" height="7.199"/>
</g>
<g>
	<rect x="80.216" y="241.95" fill="#7C5904" width="142.488" height="7.199"/>
</g>
<g>
	<g>
		<polygon fill="#7C5904" points="223.677,61.07 361.748,61.07 361.748,68.27 223.677,68.27 227.825,64.669 		"/>
	</g>
	<g>
		<polygon fill="#7C5904" points="222.435,64.669 218.287,61.071 218.287,61.07 218.287,61.07 80.216,61.07 84.365,64.669 
			80.216,68.27 218.287,68.27 218.287,68.27 218.287,68.269 		"/>
	</g>
</g>
</svg>
