<?xml version="1.0" encoding="utf-8"?>
<!-- Generator: Adobe Illustrator 16.0.4, SVG Export Plug-In . SVG Version: 6.00 Build 0)  -->
<!DOCTYPE svg PUBLIC "-//W3C//DTD SVG 1.1//EN" "http://www.w3.org/Graphics/SVG/1.1/DTD/svg11.dtd">
<svg version="1.1" id="Layer_1" xmlns="http://www.w3.org/2000/svg" xmlns:xlink="http://www.w3.org/1999/xlink" x="0px" y="0px"
	 width="448.746px" height="616.435px" viewBox="0 0 448.746 616.435" enable-background="new 0 0 448.746 616.435"
	 xml:space="preserve">
<rect x="0.5" y="0.5" fill="#FFFFFF" stroke="#C68D06" stroke-miterlimit="10" width="447.746" height="615.435"/>
<g>
	<path fill="#C68D06" d="M345.224,579.889h4.865v-20.967c-1.26,0.665-3.29,1.189-4.796,1.189v-2.205
		c1.995-0.07,3.78-0.595,4.936-1.68h2.311v23.662h4.41v2.24h-11.726V579.889z"/>
	<path fill="#C68D06" d="M362.479,577.789l1.855-1.33c1.891,2.836,4.2,3.991,7.07,3.991c3.815,0,6.161-2.101,6.161-5.286
		c0-3.815-2.24-5.705-8.331-5.705h-0.979v-2.136h1.189c5.496,0,7.561-1.68,7.561-4.865c0-2.591-1.575-4.516-5.495-4.516
		c-2.625,0-4.655,1.295-6.16,3.15l-1.716-1.436c1.855-2.24,4.516-3.92,8.016-3.92c5.461,0,7.771,3.115,7.771,6.476
		c0,3.325-1.961,5.53-5.11,6.126c3.85,0.805,5.705,3.01,5.705,6.825c0,4.235-3.325,7.456-8.646,7.456
		C367.59,582.62,364.405,580.87,362.479,577.789z"/>
	<path fill="#C68D06" d="M388.939,556.227h8.681c5.776,0,8.996,2.45,8.996,7c0,4.201-2.45,6.301-6.195,7.001l6.546,11.901h-2.801
		l-6.336-11.621h-6.44v11.621h-2.45V556.227z M397.445,568.303c4.271,0,6.686-1.226,6.686-4.971c0-3.57-2.38-4.831-6.721-4.831
		h-6.021v9.802H397.445z"/>
</g>
<g>
	<rect x="80.221" y="157.966" fill="#C0DDE7" width="281.738" height="7.2"/>
</g>
<g>
	<rect x="80.221" y="171.88" fill="#C0DDE7" width="281.738" height="7.199"/>
</g>
<g>
	<rect x="80.221" y="185.793" fill="#C0DDE7" width="281.738" height="7.2"/>
</g>
<g>
	<rect x="80.221" y="199.708" fill="#C0DDE7" width="281.738" height="7.199"/>
</g>
<g>
	<rect x="80.221" y="213.621" fill="#C0DDE7" width="281.738" height="7.199"/>
</g>
<g>
	<rect x="80.221" y="227.534" fill="#C0DDE7" width="281.738" height="7.2"/>
</g>
<g>
	<rect x="80.221" y="241.449" fill="#C0DDE7" width="281.738" height="7.198"/>
</g>
<g>
	<rect x="80.221" y="255.361" fill="#C0DDE7" width="281.738" height="7.2"/>
</g>
<g>
	<rect x="80.221" y="269.275" fill="#C0DDE7" width="281.738" height="7.199"/>
</g>
<g>
	<rect x="80.221" y="283.188" fill="#C0DDE7" width="281.738" height="7.2"/>
</g>
<g>
	<rect x="80.221" y="297.102" fill="#C0DDE7" width="281.738" height="7.2"/>
</g>
<g>
	<rect x="80.221" y="311.015" fill="#C0DDE7" width="281.738" height="7.2"/>
</g>
<g>
	<rect x="80.221" y="324.929" fill="#C0DDE7" width="281.738" height="7.199"/>
</g>
<g>
	<rect x="80.221" y="338.842" fill="#C0DDE7" width="281.738" height="7.2"/>
</g>
<g>
	<rect x="80.221" y="352.755" fill="#C0DDE7" width="281.738" height="7.2"/>
</g>
<g>
	<rect x="80.221" y="366.668" fill="#C0DDE7" width="281.738" height="7.201"/>
</g>
<g>
	<rect x="80.221" y="380.583" fill="#C0DDE7" width="281.738" height="7.198"/>
</g>
<g>
	<rect x="80.221" y="394.497" fill="#C0DDE7" width="281.738" height="7.199"/>
</g>
<g>
	<rect x="80.221" y="408.411" fill="#C0DDE7" width="281.738" height="7.199"/>
</g>
<g>
	<rect x="80.221" y="422.324" fill="#C0DDE7" width="281.738" height="7.2"/>
</g>
<g>
	<rect x="80.221" y="436.238" fill="#C0DDE7" width="281.738" height="7.2"/>
</g>
<g>
	<rect x="80.221" y="450.152" fill="#C0DDE7" width="281.738" height="7.199"/>
</g>
<g>
	<rect x="80.221" y="464.066" fill="#C0DDE7" width="281.738" height="7.199"/>
</g>
<g>
	<rect x="80.221" y="477.979" fill="#C0DDE7" width="281.738" height="7.2"/>
</g>
<g>
	<rect x="80.221" y="60.569" fill="#C0DDE7" width="281.738" height="7.2"/>
</g>
<g>
	<rect x="80.221" y="74.483" fill="#C0DDE7" width="281.738" height="7.2"/>
</g>
<g>
	<rect x="80.221" y="144.052" fill="#C0DDE7" width="281.738" height="7.2"/>
</g>
<g>
	<rect x="80.221" y="88.397" fill="#C0DDE7" width="281.738" height="7.199"/>
</g>
<g>
	<rect x="80.221" y="102.311" fill="#C0DDE7" width="281.738" height="7.2"/>
</g>
<g>
	<rect x="80.221" y="116.225" fill="#C0DDE7" width="281.738" height="7.199"/>
</g>
<g>
	<rect x="80.221" y="130.139" fill="#C0DDE7" width="281.738" height="7.199"/>
</g>
<g>
	<g>
		<polygon fill="#7C5904" points="218.395,67.768 80.324,67.768 80.324,60.569 218.395,60.569 222.543,64.169 		"/>
	</g>
	<g>
		<polygon fill="#7C5904" points="223.785,60.569 361.855,60.569 361.855,67.768 223.785,67.768 227.932,64.169 		"/>
	</g>
</g>
<g>
	<g>
		<polygon fill="#7C5904" points="218.395,151.252 80.324,151.252 80.324,144.052 218.395,144.052 222.543,147.652 		"/>
	</g>
	<g>
		<polygon fill="#7C5904" points="223.785,144.052 361.855,144.052 361.855,151.252 223.785,151.252 227.932,147.652 		"/>
	</g>
</g>
<g>
	<g>
		<polygon fill="#7C5904" points="218.395,165.166 80.324,165.166 80.324,157.966 218.395,157.966 222.543,161.566 		"/>
	</g>
	<g>
		<polygon fill="#7C5904" points="223.785,157.966 361.855,157.966 361.855,165.166 223.785,165.166 227.932,161.566 		"/>
	</g>
</g>
<g>
	<g>
		<polygon fill="#7C5904" points="218.395,276.474 80.324,276.474 80.324,269.275 218.395,269.275 222.543,272.875 		"/>
	</g>
	<g>
		<polygon fill="#7C5904" points="223.785,269.275 361.855,269.275 361.855,276.474 223.785,276.474 227.932,272.875 		"/>
	</g>
</g>
<g>
	<g>
		<polygon fill="#7C5904" points="218.395,95.596 80.324,95.596 80.324,88.397 218.395,88.397 222.543,91.997 		"/>
	</g>
	<g>
		<polygon fill="#7C5904" points="223.785,88.397 361.855,88.397 361.855,95.596 223.785,95.596 227.932,91.997 		"/>
	</g>
</g>
<g>
	<g>
		<polygon fill="#7C5904" points="218.395,109.511 80.324,109.511 80.324,102.312 218.395,102.312 222.543,105.91 		"/>
	</g>
	<g>
		<polygon fill="#7C5904" points="223.785,102.312 361.855,102.312 361.855,109.511 223.785,109.511 227.932,105.91 		"/>
	</g>
</g>
<g>
	<g>
		<polygon fill="#7C5904" points="218.395,123.424 80.324,123.424 80.324,116.224 218.395,116.224 222.543,119.823 		"/>
	</g>
	<g>
		<polygon fill="#7C5904" points="223.785,116.224 361.855,116.224 361.855,123.424 223.785,123.424 227.932,119.823 		"/>
	</g>
</g>
<g>
	<g>
		<polygon fill="#7C5904" points="218.395,179.079 80.324,179.079 80.324,171.88 218.395,171.88 222.543,175.48 		"/>
	</g>
	<g>
		<polygon fill="#7C5904" points="223.785,171.88 361.855,171.88 361.855,179.079 223.785,179.079 227.932,175.48 		"/>
	</g>
</g>
<g>
	<g>
		<polygon fill="#7C5904" points="218.395,262.56 80.324,262.56 80.324,255.361 218.395,255.361 222.543,258.96 		"/>
	</g>
	<g>
		<polygon fill="#7C5904" points="223.785,255.361 361.855,255.361 361.855,262.56 223.785,262.56 227.932,258.96 		"/>
	</g>
</g>
<g>
	<g>
		<polygon fill="#7C5904" points="218.395,220.82 80.324,220.82 80.324,213.621 218.395,213.621 222.543,217.22 		"/>
	</g>
	<g>
		<polygon fill="#7C5904" points="223.785,213.621 361.855,213.621 361.855,220.82 223.785,220.82 227.932,217.22 		"/>
	</g>
</g>
<g>
	<g>
		<polygon fill="#7C5904" points="218.395,234.734 80.324,234.734 80.324,227.534 218.395,227.534 222.543,231.133 		"/>
	</g>
	<g>
		<polygon fill="#7C5904" points="223.785,227.534 361.855,227.534 361.855,234.734 223.785,234.734 227.932,231.133 		"/>
	</g>
</g>
<g>
	<g>
		<polygon fill="#7C5904" points="218.395,248.648 80.324,248.648 80.324,241.449 218.395,241.449 222.543,245.047 		"/>
	</g>
	<g>
		<polygon fill="#7C5904" points="223.785,241.449 361.855,241.449 361.855,248.648 223.785,248.648 227.932,245.047 		"/>
	</g>
</g>
<g>
	<g>
		<polygon fill="#7C5904" points="218.395,290.54 80.324,290.54 80.324,283.341 218.395,283.341 222.543,286.94 		"/>
	</g>
	<g>
		<polygon fill="#7C5904" points="223.785,283.341 361.855,283.341 361.855,290.54 223.785,290.54 227.933,286.94 		"/>
	</g>
</g>
<g>
	<g>
		<polygon fill="#7C5904" points="218.395,304.474 80.324,304.474 80.324,297.275 218.395,297.275 222.543,300.875 		"/>
	</g>
	<g>
		<polygon fill="#7C5904" points="223.785,297.275 361.855,297.275 361.855,304.474 223.785,304.474 227.932,300.875 		"/>
	</g>
</g>
<g>
	<g>
		<polygon fill="#7C5904" points="218.395,374.143 80.324,374.143 80.324,366.944 218.395,366.944 222.543,370.543 		"/>
	</g>
	<g>
		<polygon fill="#7C5904" points="223.785,366.944 361.855,366.944 361.855,374.143 223.785,374.143 227.932,370.543 		"/>
	</g>
</g>
<g>
	<g>
		<polygon fill="#7C5904" points="218.395,332.341 80.324,332.341 80.324,325.142 218.395,325.142 222.543,328.741 		"/>
	</g>
	<g>
		<polygon fill="#7C5904" points="223.785,325.142 361.855,325.142 361.855,332.341 223.785,332.341 227.932,328.741 		"/>
	</g>
</g>
<g>
	<g>
		<polygon fill="#7C5904" points="218.395,346.276 80.324,346.276 80.324,339.076 218.395,339.076 222.543,342.675 		"/>
	</g>
	<g>
		<polygon fill="#7C5904" points="223.785,339.076 361.855,339.076 361.855,346.276 223.785,346.276 227.932,342.675 		"/>
	</g>
</g>
<g>
	<g>
		<polygon fill="#7C5904" points="218.395,360.209 80.324,360.209 80.324,353.009 218.395,353.009 222.543,356.609 		"/>
	</g>
	<g>
		<polygon fill="#7C5904" points="223.785,353.009 361.855,353.009 361.855,360.209 223.785,360.209 227.932,356.609 		"/>
	</g>
</g>
<g>
	<g>
		<polygon fill="#7C5904" points="218.395,401.538 80.324,401.538 80.324,394.338 218.395,394.338 222.543,397.938 		"/>
	</g>
	<g>
		<polygon fill="#7C5904" points="223.785,394.338 361.855,394.338 361.855,401.538 223.785,401.538 227.933,397.938 		"/>
	</g>
</g>
<g>
	<g>
		<polygon fill="#7C5904" points="218.395,387.783 80.324,387.783 80.324,380.583 218.395,380.583 222.543,384.183 		"/>
	</g>
	<g>
		<polygon fill="#7C5904" points="223.785,380.583 361.855,380.583 361.855,387.783 223.785,387.783 227.933,384.183 		"/>
	</g>
</g>
<g>
	<g>
		<polygon fill="#7C5904" points="218.395,415.472 80.324,415.472 80.324,408.273 218.395,408.273 222.543,411.873 		"/>
	</g>
	<g>
		<polygon fill="#7C5904" points="223.785,408.273 361.855,408.273 361.855,415.472 223.785,415.472 227.932,411.873 		"/>
	</g>
</g>
<g>
	<g>
		<polygon fill="#7C5904" points="218.395,443.34 80.324,443.34 80.324,436.141 218.395,436.141 222.543,439.74 		"/>
	</g>
	<g>
		<polygon fill="#7C5904" points="223.785,436.141 361.855,436.141 361.855,443.34 223.785,443.34 227.932,439.74 		"/>
	</g>
</g>
<g>
	<g>
		<polygon fill="#7C5904" points="218.395,457.275 80.324,457.275 80.324,450.075 218.395,450.075 222.543,453.674 		"/>
	</g>
	<g>
		<polygon fill="#7C5904" points="223.785,450.075 361.855,450.075 361.855,457.275 223.785,457.275 227.932,453.674 		"/>
	</g>
</g>
<g>
	<g>
		<polygon fill="#7C5904" points="218.395,471.208 80.324,471.208 80.324,464.008 218.395,464.008 222.543,467.608 		"/>
	</g>
	<g>
		<polygon fill="#7C5904" points="223.785,464.008 361.855,464.008 361.855,471.208 223.785,471.208 227.932,467.608 		"/>
	</g>
</g>
<g>
	<path fill="#398EB0" d="M70.649,148.273c-0.451-0.123-0.876-0.304-1.274-0.545c-0.398-0.24-0.747-0.537-1.046-0.892
		c-0.299-0.354-0.537-0.764-0.712-1.23c-0.176-0.465-0.264-0.989-0.264-1.568c0-0.615,0.123-1.192,0.369-1.727
		c0.246-0.538,0.595-1.004,1.046-1.402s0.996-0.712,1.635-0.941c0.639-0.229,1.351-0.343,2.136-0.343h6.012v2.417h-1.239v14.089
		h-2.575v-14.089h-1.512v14.089h-2.575V148.273z"/>
</g>
<g>
	<path fill="#398EB0" d="M70.649,92.606c-0.451-0.123-0.876-0.304-1.274-0.545c-0.398-0.24-0.747-0.537-1.046-0.893
		c-0.299-0.353-0.537-0.763-0.712-1.23c-0.176-0.465-0.264-0.988-0.264-1.568c0-0.615,0.123-1.191,0.369-1.726
		c0.246-0.537,0.595-1.004,1.046-1.403s0.996-0.712,1.635-0.94c0.639-0.228,1.351-0.343,2.136-0.343h6.012v2.417h-1.239v14.089
		h-2.575V86.374h-1.512v14.089h-2.575V92.606z"/>
</g>
<g>
	<path fill="#398EB0" d="M49.201,329.534h1.583v-10.86h-1.583v-3.088h7.008l5.02,12.286l4.661-12.286h7.109v3.088h-1.583v10.86
		h1.561v3.077h-6.368v-3.077h1.168v-9.793l-5.099,12.668h-3.156l-5.188-12.331v9.456h1.269v3.077h-6.401V329.534z"/>
</g>
<g>
	<path fill="#C63706" d="M63.317,68.079c-0.958-0.194-1.844-0.552-2.656-1.073c-0.812-0.52-1.517-1.162-2.111-1.926
		c-0.596-0.764-1.06-1.627-1.393-2.589c-0.333-0.962-0.5-1.982-0.5-3.061c0-0.816,0.097-1.6,0.292-2.352
		c0.195-0.753,0.467-1.456,0.82-2.112c0.352-0.655,0.777-1.251,1.275-1.786c0.498-0.535,1.052-0.993,1.662-1.376
		c0.61-0.381,1.267-0.677,1.971-0.887c0.704-0.21,1.441-0.314,2.212-0.314s1.51,0.104,2.218,0.314
		c0.707,0.21,1.366,0.506,1.977,0.887c0.61,0.383,1.164,0.841,1.662,1.376c0.498,0.535,0.924,1.131,1.28,1.786
		c0.355,0.656,0.63,1.358,0.825,2.112c0.195,0.752,0.292,1.536,0.292,2.352c0,1.093-0.172,2.126-0.517,3.1s-0.822,1.845-1.432,2.616
		c-0.61,0.771-1.335,1.416-2.174,1.932c-0.838,0.518-1.748,0.861-2.729,1.033c0.232,0.097,0.463,0.204,0.691,0.32
		c0.229,0.116,0.459,0.225,0.691,0.326c0.232,0.101,0.462,0.187,0.691,0.258c0.228,0.072,0.462,0.11,0.702,0.118
		c0.232,0,0.458-0.031,0.679-0.09c0.221-0.06,0.421-0.153,0.601-0.28c0.18-0.128,0.335-0.293,0.466-0.494
		c0.131-0.203,0.219-0.449,0.264-0.742l2.504,1.247c-0.067,0.547-0.223,1.041-0.466,1.482c-0.243,0.441-0.556,0.819-0.938,1.134
		c-0.382,0.314-0.816,0.559-1.303,0.73c-0.487,0.172-1.003,0.258-1.55,0.258c-0.442,0-0.885-0.084-1.331-0.252
		c-0.445-0.169-0.876-0.353-1.291-0.551c-0.416-0.198-0.807-0.382-1.174-0.55c-0.367-0.169-0.689-0.253-0.966-0.253
		c-0.12,0-0.227-0.002-0.32-0.006c-0.093-0.004-0.185-0.004-0.275,0c-0.09,0.004-0.189,0.016-0.297,0.034
		c-0.109,0.018-0.234,0.053-0.376,0.106L63.317,68.079z M64.89,64.721c0.651,0,1.249-0.14,1.792-0.422
		c0.542-0.28,1.009-0.662,1.398-1.145c0.389-0.482,0.691-1.044,0.904-1.685c0.214-0.64,0.32-1.319,0.32-2.038
		c0-0.726-0.108-1.411-0.326-2.056c-0.217-0.643-0.522-1.207-0.916-1.689c-0.393-0.483-0.859-0.865-1.398-1.146
		c-0.539-0.281-1.13-0.421-1.774-0.421s-1.235,0.14-1.774,0.421c-0.539,0.281-1.003,0.663-1.393,1.146
		c-0.389,0.482-0.694,1.046-0.916,1.689c-0.221,0.645-0.331,1.33-0.331,2.056c0,0.719,0.11,1.398,0.331,2.038
		c0.221,0.641,0.526,1.202,0.916,1.685c0.389,0.483,0.854,0.865,1.393,1.145C63.654,64.581,64.246,64.721,64.89,64.721z"/>
</g>
<g>
	<path fill="#C63706" d="M69.741,208.38c-0.038-0.262-0.129-0.509-0.275-0.74c-0.146-0.232-0.333-0.433-0.562-0.602
		c-0.228-0.168-0.486-0.301-0.774-0.398c-0.289-0.098-0.59-0.146-0.904-0.146c-0.285,0-0.55,0.03-0.797,0.09
		c-0.247,0.061-0.462,0.152-0.646,0.275c-0.183,0.124-0.329,0.283-0.438,0.478c-0.109,0.194-0.163,0.427-0.163,0.696
		c0,0.337,0.073,0.604,0.219,0.803c0.146,0.198,0.333,0.361,0.562,0.488c0.229,0.128,0.481,0.229,0.758,0.304
		s0.546,0.157,0.809,0.247l3.088,1.033c0.427,0.149,0.827,0.355,1.202,0.617c0.375,0.263,0.698,0.581,0.971,0.955
		s0.489,0.805,0.646,1.291c0.157,0.487,0.236,1.033,0.236,1.641c0,0.823-0.151,1.575-0.455,2.257
		c-0.303,0.682-0.728,1.266-1.274,1.752s-1.202,0.864-1.965,1.134s-1.61,0.404-2.538,0.404c-0.651,0-1.267-0.072-1.847-0.219
		c-0.581-0.146-1.11-0.357-1.589-0.635c-0.479-0.276-0.898-0.607-1.258-0.993s-0.64-0.822-0.842-1.309h-1.157v-3.38h4.065v0.695
		c0,0.338,0.054,0.648,0.163,0.933c0.109,0.284,0.271,0.531,0.489,0.741s0.49,0.372,0.82,0.488s0.715,0.174,1.157,0.174
		c0.674,0,1.187-0.155,1.539-0.466s0.528-0.743,0.528-1.297c0-0.284-0.062-0.522-0.185-0.713c-0.124-0.191-0.283-0.353-0.478-0.483
		s-0.412-0.241-0.651-0.331s-0.476-0.172-0.708-0.247l-2.572-0.831c-0.487-0.149-0.957-0.359-1.409-0.629
		c-0.453-0.27-0.854-0.606-1.202-1.011c-0.348-0.404-0.625-0.878-0.831-1.421c-0.206-0.543-0.309-1.162-0.309-1.858
		c0-0.809,0.15-1.529,0.449-2.162s0.719-1.166,1.258-1.6c0.539-0.435,1.179-0.764,1.92-0.988s1.554-0.338,2.437-0.338
		c0.696,0,1.34,0.081,1.932,0.242s1.121,0.376,1.589,0.646c0.468,0.27,0.865,0.578,1.19,0.927c0.326,0.348,0.575,0.709,0.747,1.084
		h1.123v3.391h-4.065V208.38z"/>
</g>
<g>
	<path fill="#C63706" d="M60.42,425.919h7.289v3.088h-1.797v10.86h3.706c0.097,0,0.193-0.028,0.286-0.084
		c0.094-0.057,0.176-0.13,0.247-0.22c0.071-0.09,0.129-0.187,0.174-0.291c0.045-0.105,0.067-0.206,0.067-0.304v-2.28h3.639v6.256
		H60.42v-3.077h1.763v-10.86H60.42V425.919z"/>
</g>
<g>
	<rect x="80.221" y="74.483" fill="#7C5904" width="142.488" height="7.199"/>
</g>
<g>
	<rect x="80.221" y="130.139" fill="#7C5904" width="142.488" height="7.199"/>
</g>
<g>
	<rect x="80.221" y="185.793" fill="#7C5904" width="142.488" height="7.199"/>
</g>
<g>
	<g>
		<polygon fill="#7C5904" points="218.291,485.179 80.221,485.179 80.221,477.98 218.291,477.98 222.439,481.58 		"/>
	</g>
	<g>
		<polygon fill="#7C5904" points="223.682,477.98 227.83,481.58 223.682,485.179 357.604,485.179 361.752,481.58 357.604,477.98 		
			"/>
	</g>
</g>
</svg>
