<?xml version="1.0" encoding="utf-8"?>
<!-- Generator: Adobe Illustrator 16.0.4, SVG Export Plug-In . SVG Version: 6.00 Build 0)  -->
<!DOCTYPE svg PUBLIC "-//W3C//DTD SVG 1.1//EN" "http://www.w3.org/Graphics/SVG/1.1/DTD/svg11.dtd">
<svg version="1.1" id="Layer_1" xmlns="http://www.w3.org/2000/svg" xmlns:xlink="http://www.w3.org/1999/xlink" x="0px" y="0px"
	 width="448.746px" height="616.44px" viewBox="0 0 448.746 616.44" enable-background="new 0 0 448.746 616.44"
	 xml:space="preserve">
<rect x="0.5" y="0.5" fill="#FFFFFF" stroke="#C68D06" stroke-miterlimit="10" width="447.746" height="615.44"/>
<g>
	<path fill="#C68D06" d="M346.157,579.894h4.865v-20.967c-1.26,0.665-3.29,1.189-4.796,1.189v-2.205
		c1.995-0.07,3.78-0.595,4.936-1.68h2.311v23.662h4.41v2.24h-11.726V579.894z"/>
	<path fill="#C68D06" d="M374.788,575.869h-12.461v-1.855l11.796-17.781h3.046v17.432h4.375v2.205h-4.375v6.266h-2.381V575.869z
		 M374.788,573.664v-14.526h-0.069l-9.592,14.526H374.788z"/>
	<path fill="#C68D06" d="M389.207,556.232h8.681c5.776,0,8.996,2.45,8.996,7c0,4.201-2.45,6.301-6.195,7.001l6.546,11.901h-2.801
		l-6.336-11.621h-6.44v11.621h-2.45V556.232z M397.712,568.308c4.271,0,6.686-1.226,6.686-4.971c0-3.57-2.38-4.831-6.721-4.831
		h-6.021v9.802H397.712z"/>
</g>
<g>
	<rect x="80.212" y="158.3" fill="#C0DDE7" width="281.739" height="7.199"/>
</g>
<g>
	<rect x="80.212" y="172.214" fill="#C0DDE7" width="281.739" height="7.199"/>
</g>
<g>
	<rect x="80.212" y="186.127" fill="#C0DDE7" width="281.739" height="7.201"/>
</g>
<g>
	<rect x="80.212" y="200.042" fill="#C0DDE7" width="281.739" height="7.199"/>
</g>
<g>
	<rect x="80.212" y="213.955" fill="#C0DDE7" width="281.739" height="7.2"/>
</g>
<g>
	<rect x="80.212" y="227.869" fill="#C0DDE7" width="281.739" height="7.201"/>
</g>
<g>
	<rect x="80.212" y="241.783" fill="#C0DDE7" width="281.739" height="7.199"/>
</g>
<g>
	<rect x="80.212" y="255.696" fill="#C0DDE7" width="281.739" height="7.2"/>
</g>
<g>
	<rect x="80.212" y="269.612" fill="#C0DDE7" width="281.739" height="7.199"/>
</g>
<g>
	<rect x="80.212" y="283.524" fill="#C0DDE7" width="281.739" height="7.2"/>
</g>
<g>
	<rect x="80.212" y="297.438" fill="#C0DDE7" width="281.739" height="7.2"/>
</g>
<g>
	<rect x="80.212" y="311.353" fill="#C0DDE7" width="281.739" height="7.199"/>
</g>
<g>
	<rect x="80.212" y="325.266" fill="#C0DDE7" width="281.739" height="7.199"/>
</g>
<g>
	<rect x="80.212" y="339.18" fill="#C0DDE7" width="281.739" height="7.2"/>
</g>
<g>
	<rect x="80.212" y="353.094" fill="#C0DDE7" width="281.739" height="7.199"/>
</g>
<g>
	<rect x="80.212" y="367.007" fill="#C0DDE7" width="281.739" height="7.2"/>
</g>
<g>
	<rect x="80.212" y="380.921" fill="#C0DDE7" width="281.739" height="7.199"/>
</g>
<g>
	<rect x="80.212" y="394.835" fill="#C0DDE7" width="281.739" height="7.199"/>
</g>
<g>
	<rect x="80.212" y="408.749" fill="#C0DDE7" width="281.739" height="7.199"/>
</g>
<g>
	<rect x="80.212" y="422.663" fill="#C0DDE7" width="281.739" height="7.2"/>
</g>
<g>
	<rect x="80.212" y="436.577" fill="#C0DDE7" width="281.739" height="7.2"/>
</g>
<g>
	<rect x="80.212" y="450.491" fill="#C0DDE7" width="281.739" height="7.199"/>
</g>
<g>
	<rect x="80.212" y="464.404" fill="#C0DDE7" width="281.739" height="7.199"/>
</g>
<g>
	<rect x="80.212" y="478.318" fill="#C0DDE7" width="281.739" height="7.201"/>
</g>
<g>
	<rect x="80.212" y="60.904" fill="#C0DDE7" width="281.739" height="7.199"/>
</g>
<g>
	<rect x="80.212" y="74.818" fill="#C0DDE7" width="281.739" height="7.199"/>
</g>
<g>
	<rect x="80.212" y="144.386" fill="#C0DDE7" width="281.739" height="7.199"/>
</g>
<g>
	<rect x="80.212" y="88.731" fill="#C0DDE7" width="281.739" height="7.199"/>
</g>
<g>
	<rect x="80.212" y="102.645" fill="#C0DDE7" width="281.739" height="7.2"/>
</g>
<g>
	<rect x="80.212" y="116.559" fill="#C0DDE7" width="281.739" height="7.199"/>
</g>
<g>
	<rect x="80.212" y="130.473" fill="#C0DDE7" width="281.739" height="7.199"/>
</g>
<g>
	<polygon fill="#7C5904" points="218.486,82.017 80.416,82.017 80.416,74.818 218.486,74.818 222.634,78.417 	"/>
</g>
<g>
	<polygon fill="#7C5904" points="223.877,74.818 361.947,74.818 361.947,82.017 223.877,82.017 228.025,78.417 	"/>
</g>
<g>
	<g>
		<polygon fill="#7C5904" points="218.387,151.585 80.316,151.585 80.316,144.386 218.387,144.386 222.535,147.986 		"/>
	</g>
	<g>
		<polygon fill="#7C5904" points="223.777,144.386 361.848,144.386 361.848,151.585 223.777,151.585 227.926,147.986 		"/>
	</g>
</g>
<g>
	<g>
		<polygon fill="#7C5904" points="218.387,95.93 80.316,95.93 80.316,88.731 218.387,88.731 222.535,92.33 		"/>
	</g>
	<g>
		<polygon fill="#7C5904" points="223.777,88.731 361.848,88.731 361.848,95.93 223.777,95.93 227.926,92.33 		"/>
	</g>
</g>
<g>
	<g>
		<polygon fill="#7C5904" points="218.387,109.845 80.316,109.845 80.316,102.646 218.387,102.646 222.535,106.245 		"/>
	</g>
	<g>
		<polygon fill="#7C5904" points="223.777,102.646 361.848,102.646 361.848,109.845 223.777,109.845 227.926,106.245 		"/>
	</g>
</g>
<g>
	<g>
		<polygon fill="#7C5904" points="218.387,123.758 80.316,123.758 80.316,116.558 218.387,116.558 222.535,120.157 		"/>
	</g>
	<g>
		<polygon fill="#7C5904" points="223.777,116.558 361.848,116.558 361.848,123.758 223.777,123.758 227.926,120.157 		"/>
	</g>
</g>
<g>
	<g>
		<polygon fill="#7C5904" points="218.387,137.672 80.316,137.672 80.316,130.472 218.387,130.472 222.535,134.071 		"/>
	</g>
	<g>
		<polygon fill="#7C5904" points="223.777,130.472 361.848,130.472 361.848,137.672 223.777,137.672 227.926,134.071 		"/>
	</g>
</g>
<g>
	<g>
		<polygon fill="#7C5904" points="218.387,193.327 80.316,193.327 80.316,186.127 218.387,186.127 222.535,189.727 		"/>
	</g>
	<g>
		<polygon fill="#7C5904" points="223.777,186.127 361.848,186.127 361.848,193.327 223.777,193.327 227.926,189.727 		"/>
	</g>
</g>
<g>
	<g>
		<polygon fill="#7C5904" points="218.387,179.413 80.316,179.413 80.316,172.214 218.387,172.214 222.535,175.813 		"/>
	</g>
	<g>
		<polygon fill="#7C5904" points="223.777,172.214 361.848,172.214 361.848,179.413 223.777,179.413 227.926,175.813 		"/>
	</g>
</g>
<g>
	<g>
		<polygon fill="#7C5904" points="218.387,207.241 80.316,207.241 80.316,200.042 218.387,200.042 222.535,203.641 		"/>
	</g>
	<g>
		<polygon fill="#7C5904" points="223.777,200.042 361.848,200.042 361.848,207.241 223.777,207.241 227.926,203.641 		"/>
	</g>
</g>
<g>
	<g>
		<polygon fill="#7C5904" points="218.387,221.155 80.316,221.155 80.316,213.955 218.387,213.955 222.535,217.554 		"/>
	</g>
	<g>
		<polygon fill="#7C5904" points="223.777,213.955 361.848,213.955 361.848,221.155 223.777,221.155 227.926,217.554 		"/>
	</g>
</g>
<g>
	<g>
		<polygon fill="#7C5904" points="218.387,235.07 80.316,235.07 80.316,227.869 218.387,227.869 222.535,231.468 		"/>
	</g>
	<g>
		<polygon fill="#7C5904" points="223.777,227.869 361.848,227.869 361.848,235.07 223.777,235.07 227.926,231.468 		"/>
	</g>
</g>
<g>
	<g>
		<polygon fill="#7C5904" points="218.387,248.984 80.316,248.984 80.316,241.783 218.387,241.783 222.535,245.383 		"/>
	</g>
	<g>
		<polygon fill="#7C5904" points="223.777,241.783 361.848,241.783 361.848,248.984 223.777,248.984 227.926,245.383 		"/>
	</g>
</g>
<g>
	<g>
		<polygon fill="#7C5904" points="218.387,262.897 80.316,262.897 80.316,255.696 218.387,255.696 222.535,259.296 		"/>
	</g>
	<g>
		<polygon fill="#7C5904" points="223.777,255.696 361.848,255.696 361.848,262.897 223.777,262.897 227.926,259.296 		"/>
	</g>
</g>
<g>
	<g>
		<polygon fill="#7C5904" points="218.387,290.876 80.316,290.876 80.316,283.677 218.387,283.677 222.535,287.276 		"/>
	</g>
	<g>
		<polygon fill="#7C5904" points="223.777,283.677 361.848,283.677 361.848,290.876 223.777,290.876 227.926,287.276 		"/>
	</g>
</g>
<g>
	<g>
		<polygon fill="#7C5904" points="218.387,304.811 80.316,304.811 80.316,297.612 218.387,297.612 222.535,301.211 		"/>
	</g>
	<g>
		<polygon fill="#7C5904" points="223.777,297.612 361.848,297.612 361.848,304.811 223.777,304.811 227.926,301.211 		"/>
	</g>
</g>
<g>
	<g>
		<polygon fill="#7C5904" points="218.387,374.481 80.316,374.481 80.316,367.282 218.387,367.282 222.535,370.881 		"/>
	</g>
	<g>
		<polygon fill="#7C5904" points="223.777,367.282 361.848,367.282 361.848,374.481 223.777,374.481 227.926,370.881 		"/>
	</g>
</g>
<g>
	<g>
		<polygon fill="#7C5904" points="218.387,318.745 80.316,318.745 80.316,311.545 218.387,311.545 222.535,315.145 		"/>
	</g>
	<g>
		<polygon fill="#7C5904" points="223.777,311.545 361.848,311.545 361.848,318.745 223.777,318.745 227.926,315.145 		"/>
	</g>
</g>
<g>
	<g>
		<polygon fill="#7C5904" points="218.387,332.679 80.316,332.679 80.316,325.479 218.387,325.479 222.535,329.079 		"/>
	</g>
	<g>
		<polygon fill="#7C5904" points="223.777,325.479 361.848,325.479 361.848,332.679 223.777,332.679 227.926,329.079 		"/>
	</g>
</g>
<g>
	<g>
		<polygon fill="#7C5904" points="218.387,346.613 80.316,346.613 80.316,339.413 218.387,339.413 222.535,343.013 		"/>
	</g>
	<g>
		<polygon fill="#7C5904" points="223.777,339.413 361.848,339.413 361.848,346.613 223.777,346.613 227.926,343.013 		"/>
	</g>
</g>
<g>
	<g>
		<polygon fill="#7C5904" points="218.387,360.547 80.316,360.547 80.316,353.347 218.387,353.347 222.535,356.947 		"/>
	</g>
	<g>
		<polygon fill="#7C5904" points="223.777,353.347 361.848,353.347 361.848,360.547 223.777,360.547 227.926,356.947 		"/>
	</g>
</g>
<g>
	<g>
		<polygon fill="#7C5904" points="218.387,401.876 80.316,401.876 80.316,394.677 218.387,394.677 222.535,398.276 		"/>
	</g>
	<g>
		<polygon fill="#7C5904" points="223.777,394.677 361.848,394.677 361.848,401.876 223.777,401.876 227.926,398.276 		"/>
	</g>
</g>
<g>
	<g>
		<polygon fill="#7C5904" points="218.387,415.811 80.316,415.811 80.316,408.612 218.387,408.612 222.535,412.211 		"/>
	</g>
	<g>
		<polygon fill="#7C5904" points="223.777,408.612 361.848,408.612 361.848,415.811 223.777,415.811 227.926,412.211 		"/>
	</g>
</g>
<g>
	<g>
		<polygon fill="#7C5904" points="218.387,485.481 80.316,485.481 80.316,478.282 218.387,478.282 222.535,481.881 		"/>
	</g>
	<g>
		<polygon fill="#7C5904" points="223.777,478.282 361.848,478.282 361.848,485.481 223.777,485.481 227.926,481.881 		"/>
	</g>
</g>
<g>
	<g>
		<polygon fill="#7C5904" points="218.387,429.745 80.316,429.745 80.316,422.545 218.387,422.545 222.535,426.145 		"/>
	</g>
	<g>
		<polygon fill="#7C5904" points="223.777,422.545 361.848,422.545 361.848,429.745 223.777,429.745 227.926,426.145 		"/>
	</g>
</g>
<g>
	<g>
		<polygon fill="#7C5904" points="218.387,443.679 80.316,443.679 80.316,436.479 218.387,436.479 222.535,440.079 		"/>
	</g>
	<g>
		<polygon fill="#7C5904" points="223.777,436.479 361.848,436.479 361.848,443.679 223.777,443.679 227.926,440.079 		"/>
	</g>
</g>
<g>
	<g>
		<polygon fill="#7C5904" points="218.387,457.613 80.316,457.613 80.316,450.413 218.387,450.413 222.535,454.013 		"/>
	</g>
	<g>
		<polygon fill="#7C5904" points="223.777,450.413 361.848,450.413 361.848,457.613 223.777,457.613 227.926,454.013 		"/>
	</g>
</g>
<g>
	<g>
		<polygon fill="#7C5904" points="218.387,471.547 80.316,471.547 80.316,464.347 218.387,464.347 222.535,467.947 		"/>
	</g>
	<g>
		<polygon fill="#7C5904" points="223.777,464.347 361.848,464.347 361.848,471.547 223.777,471.547 227.926,467.947 		"/>
	</g>
</g>
<g>
	<path fill="#C63706" d="M70.678,204.75c-0.451-0.123-0.876-0.305-1.274-0.545s-0.747-0.537-1.046-0.893
		c-0.299-0.354-0.537-0.764-0.712-1.23c-0.176-0.465-0.264-0.988-0.264-1.568c0-0.615,0.123-1.191,0.369-1.727
		c0.246-0.537,0.595-1.004,1.046-1.402s0.996-0.712,1.635-0.94s1.351-0.343,2.136-0.343h6.012v2.417H77.34v14.089h-2.575v-14.089
		h-1.512v14.089h-2.575V204.75z"/>
</g>
<g>
	<g>
		<polygon fill="#7C5904" points="218.49,68.104 80.42,68.104 80.42,60.904 218.49,60.904 222.639,64.505 		"/>
	</g>
	<g>
		<polygon fill="#7C5904" points="223.881,60.904 361.951,60.904 361.951,68.104 223.881,68.104 228.028,64.505 		"/>
	</g>
</g>
<g>
	<path fill="#C63706" d="M59.909,50.981h7.861c0.876,0,1.681,0.137,2.415,0.41s1.366,0.642,1.898,1.105
		c0.532,0.465,0.947,1,1.247,1.606s0.449,1.239,0.449,1.897c0,0.794-0.118,1.537-0.354,2.229c-0.236,0.692-0.601,1.294-1.095,1.803
		s-1.119,0.911-1.875,1.207s-1.651,0.444-2.684,0.444h-2.37v3.245h1.561v3.077h-7.053v-3.077h1.763v-10.86h-1.763V50.981z
		 M65.401,54.069v4.571h1.539c0.854,0,1.531-0.18,2.033-0.539s0.752-0.929,0.752-1.707c0-0.727-0.236-1.295-0.708-1.707
		c-0.472-0.412-1.164-0.618-2.078-0.618H65.401z"/>
</g>
<g>
	<path fill="#398EB0" d="M66.838,162.481h7.289v3.088h-1.516l-4.548,13.938h-4.604l-4.414-13.938h-1.64v-3.088h7.3v3.088h-1.819
		l2.965,9.658l2.954-9.658h-1.965V162.481z"/>
</g>
<g>
	<path fill="#398EB0" d="M69.837,278.776c-0.038-0.262-0.129-0.509-0.275-0.74c-0.146-0.232-0.333-0.433-0.562-0.602
		c-0.228-0.168-0.486-0.301-0.774-0.398c-0.289-0.098-0.59-0.146-0.904-0.146c-0.285,0-0.55,0.03-0.797,0.09
		c-0.247,0.061-0.462,0.152-0.646,0.275c-0.183,0.124-0.329,0.283-0.438,0.478c-0.109,0.194-0.163,0.427-0.163,0.696
		c0,0.337,0.073,0.604,0.219,0.803c0.146,0.198,0.333,0.361,0.562,0.488c0.229,0.128,0.481,0.229,0.758,0.304
		c0.276,0.075,0.546,0.157,0.809,0.247l3.088,1.033c0.427,0.149,0.827,0.355,1.202,0.617c0.375,0.263,0.698,0.581,0.971,0.955
		c0.273,0.374,0.489,0.805,0.646,1.291c0.157,0.487,0.236,1.033,0.236,1.641c0,0.823-0.151,1.575-0.455,2.257
		c-0.303,0.682-0.728,1.266-1.274,1.752s-1.202,0.864-1.966,1.134c-0.763,0.27-1.609,0.404-2.538,0.404
		c-0.651,0-1.267-0.072-1.847-0.219c-0.581-0.146-1.11-0.357-1.589-0.635c-0.479-0.276-0.898-0.607-1.258-0.993
		s-0.64-0.822-0.842-1.309h-1.157v-3.38h4.065v0.695c0,0.338,0.054,0.648,0.163,0.933c0.109,0.284,0.271,0.531,0.489,0.741
		s0.49,0.372,0.82,0.488s0.714,0.174,1.157,0.174c0.674,0,1.187-0.155,1.539-0.466s0.528-0.743,0.528-1.297
		c0-0.284-0.062-0.522-0.185-0.713c-0.124-0.191-0.283-0.353-0.478-0.483s-0.412-0.241-0.651-0.331s-0.476-0.172-0.708-0.247
		l-2.572-0.831c-0.487-0.149-0.957-0.359-1.409-0.629c-0.453-0.27-0.854-0.606-1.202-1.011c-0.348-0.404-0.625-0.878-0.831-1.421
		c-0.206-0.543-0.309-1.162-0.309-1.858c0-0.809,0.15-1.529,0.449-2.162s0.719-1.166,1.258-1.6c0.539-0.435,1.179-0.764,1.92-0.988
		s1.554-0.338,2.437-0.338c0.696,0,1.34,0.081,1.932,0.242s1.121,0.376,1.589,0.646c0.468,0.27,0.865,0.578,1.19,0.927
		c0.326,0.348,0.575,0.709,0.747,1.084h1.123v3.391h-4.065V278.776z"/>
</g>
<g>
	<path fill="#C63706" d="M60.516,384.981h7.289v3.088h-1.797v10.86h3.706c0.097,0,0.193-0.028,0.286-0.084
		c0.094-0.057,0.176-0.13,0.247-0.22c0.071-0.09,0.129-0.187,0.174-0.291c0.045-0.105,0.067-0.206,0.067-0.304v-2.28h3.639v6.256
		H60.516v-3.077h1.763v-10.86h-1.763V384.981z"/>
</g>
</svg>
