<?xml version="1.0" encoding="utf-8"?>
<!-- Generator: Adobe Illustrator 16.0.4, SVG Export Plug-In . SVG Version: 6.00 Build 0)  -->
<!DOCTYPE svg PUBLIC "-//W3C//DTD SVG 1.1//EN" "http://www.w3.org/Graphics/SVG/1.1/DTD/svg11.dtd">
<svg version="1.1" id="Layer_1" xmlns="http://www.w3.org/2000/svg" xmlns:xlink="http://www.w3.org/1999/xlink" x="0px" y="0px"
	 width="448.746px" height="616.44px" viewBox="0 0 448.746 616.44" enable-background="new 0 0 448.746 616.44"
	 xml:space="preserve">
<rect x="0.5" y="0.5" fill="#FFFFFF" stroke="#C68D06" stroke-miterlimit="10" width="447.746" height="615.44"/>
<g>
	<path fill="#C68D06" d="M347.625,577.894h4.865v-20.967c-1.26,0.665-3.29,1.189-4.796,1.189v-2.205
		c1.995-0.07,3.78-0.595,4.936-1.68h2.311v23.662h4.41v2.24h-11.726V577.894z"/>
	<path fill="#C68D06" d="M376.256,573.869h-12.461v-1.855l11.796-17.781h3.046v17.432h4.375v2.205h-4.375v6.266h-2.381V573.869z
		 M376.256,571.664v-14.526h-0.069l-9.592,14.526H376.256z"/>
	<path fill="#C68D06" d="M388.609,554.232h2.556l7.735,22.612h0.07l7.771-22.612h2.416l-9.102,26.008h-2.345L388.609,554.232z"/>
</g>
<g>
	<rect x="79.375" y="158.217" fill="#C0DDE7" width="281.739" height="7.199"/>
</g>
<g>
	<rect x="79.375" y="172.13" fill="#C0DDE7" width="281.738" height="7.199"/>
</g>
<g>
	<rect x="79.375" y="186.044" fill="#C0DDE7" width="281.739" height="7.201"/>
</g>
<g>
	<rect x="79.375" y="199.958" fill="#C0DDE7" width="281.739" height="7.199"/>
</g>
<g>
	<rect x="79.375" y="213.872" fill="#C0DDE7" width="281.739" height="7.199"/>
</g>
<g>
	<rect x="79.375" y="227.785" fill="#C0DDE7" width="281.739" height="7.201"/>
</g>
<g>
	<rect x="79.375" y="241.699" fill="#C0DDE7" width="281.738" height="7.199"/>
</g>
<g>
	<rect x="79.375" y="255.612" fill="#C0DDE7" width="281.738" height="7.2"/>
</g>
<g>
	<rect x="79.375" y="269.528" fill="#C0DDE7" width="281.739" height="7.199"/>
</g>
<g>
	<rect x="79.375" y="283.44" fill="#C0DDE7" width="281.738" height="7.2"/>
</g>
<g>
	<rect x="79.375" y="297.354" fill="#C0DDE7" width="281.739" height="7.2"/>
</g>
<g>
	<rect x="79.375" y="311.269" fill="#C0DDE7" width="281.739" height="7.2"/>
</g>
<g>
	<rect x="79.375" y="325.183" fill="#C0DDE7" width="281.739" height="7.199"/>
</g>
<g>
	<rect x="79.375" y="339.096" fill="#C0DDE7" width="281.738" height="7.2"/>
</g>
<g>
	<rect x="79.375" y="353.01" fill="#C0DDE7" width="281.739" height="7.2"/>
</g>
<g>
	<rect x="79.375" y="366.924" fill="#C0DDE7" width="281.739" height="7.2"/>
</g>
<g>
	<rect x="79.375" y="380.838" fill="#C0DDE7" width="281.739" height="7.199"/>
</g>
<g>
	<rect x="79.375" y="394.752" fill="#C0DDE7" width="281.739" height="7.199"/>
</g>
<g>
	<rect x="79.375" y="408.665" fill="#C0DDE7" width="281.738" height="7.199"/>
</g>
<g>
	<rect x="79.375" y="422.579" fill="#C0DDE7" width="281.739" height="7.2"/>
</g>
<g>
	<rect x="79.375" y="436.492" fill="#C0DDE7" width="281.738" height="7.2"/>
</g>
<g>
	<rect x="79.375" y="450.407" fill="#C0DDE7" width="281.739" height="7.199"/>
</g>
<g>
	<rect x="79.375" y="464.32" fill="#C0DDE7" width="281.738" height="7.199"/>
</g>
<g>
	<rect x="79.375" y="478.234" fill="#C0DDE7" width="281.739" height="7.2"/>
</g>
<g>
	<rect x="79.375" y="60.82" fill="#C0DDE7" width="281.739" height="7.2"/>
</g>
<g>
	<rect x="79.375" y="74.733" fill="#C0DDE7" width="281.738" height="7.2"/>
</g>
<g>
	<rect x="79.375" y="144.303" fill="#C0DDE7" width="281.738" height="7.199"/>
</g>
<g>
	<rect x="79.375" y="88.647" fill="#C0DDE7" width="281.739" height="7.199"/>
</g>
<g>
	<rect x="79.375" y="102.561" fill="#C0DDE7" width="281.738" height="7.2"/>
</g>
<g>
	<rect x="79.375" y="116.475" fill="#C0DDE7" width="281.738" height="7.199"/>
</g>
<g>
	<rect x="79.375" y="130.389" fill="#C0DDE7" width="281.738" height="7.199"/>
</g>
<g>
	<g>
		<g>
			<g>
				<polygon fill="#7C5904" points="217.549,401.95 79.479,401.95 79.479,394.751 217.549,394.751 221.697,398.351 				"/>
			</g>
			<g>
				<polygon fill="#7C5904" points="222.939,394.751 361.01,394.751 361.01,401.95 222.939,401.95 227.088,398.351 				"/>
			</g>
		</g>
		<g>
			<g>
				<polygon fill="#7C5904" points="217.549,415.864 79.479,415.864 79.479,408.665 217.549,408.665 221.697,412.265 				"/>
			</g>
			<g>
				<polygon fill="#7C5904" points="222.939,408.665 361.01,408.665 361.01,415.864 222.939,415.864 227.088,412.265 				"/>
			</g>
		</g>
		<g>
			<g>
				<polygon fill="#7C5904" points="217.549,485.433 79.479,485.433 79.479,478.233 217.549,478.233 221.697,481.833 				"/>
			</g>
			<g>
				<polygon fill="#7C5904" points="222.939,478.233 361.01,478.233 361.01,485.433 222.939,485.433 227.088,481.833 				"/>
			</g>
		</g>
		<g>
			<g>
				<polygon fill="#7C5904" points="217.549,429.777 79.479,429.777 79.479,422.578 217.549,422.578 221.697,426.178 				"/>
			</g>
			<g>
				<polygon fill="#7C5904" points="222.939,422.578 361.01,422.578 361.01,429.777 222.939,429.777 227.088,426.178 				"/>
			</g>
		</g>
		<g>
			<g>
				<polygon fill="#7C5904" points="217.549,443.691 79.479,443.691 79.479,436.492 217.549,436.492 221.697,440.091 				"/>
			</g>
			<g>
				<polygon fill="#7C5904" points="222.939,436.492 361.01,436.492 361.01,443.691 222.939,443.691 227.088,440.091 				"/>
			</g>
		</g>
		<g>
			<g>
				<polygon fill="#7C5904" points="217.549,457.604 79.479,457.604 79.479,450.404 217.549,450.404 221.697,454.004 				"/>
			</g>
			<g>
				<polygon fill="#7C5904" points="222.939,450.404 361.01,450.404 361.01,457.604 222.939,457.604 227.088,454.004 				"/>
			</g>
		</g>
		<g>
			<g>
				<polygon fill="#7C5904" points="217.549,471.519 79.479,471.519 79.479,464.318 217.549,464.318 221.697,467.918 				"/>
			</g>
			<g>
				<polygon fill="#7C5904" points="222.939,464.318 361.01,464.318 361.01,471.519 222.939,471.519 227.088,467.918 				"/>
			</g>
		</g>
	</g>
	<g>
		<path fill="#C63706" d="M57.943,386.413h6.536c0.779,0,1.525,0.102,2.24,0.303c0.715,0.203,1.382,0.487,1.999,0.854
			c0.618,0.367,1.18,0.808,1.685,1.32c0.506,0.513,0.938,1.084,1.297,1.713s0.636,1.306,0.831,2.032
			c0.195,0.727,0.292,1.482,0.292,2.269s-0.097,1.542-0.292,2.269c-0.195,0.727-0.472,1.405-0.831,2.038s-0.792,1.209-1.297,1.729
			c-0.505,0.521-1.067,0.966-1.685,1.337c-0.617,0.37-1.284,0.656-1.999,0.859c-0.715,0.201-1.461,0.303-2.24,0.303h-6.536v-3.077
			h1.359V389.5h-1.359V386.413z M63.031,389.5v10.86h1.426c0.606,0,1.179-0.143,1.718-0.427s1.007-0.672,1.404-1.162
			s0.711-1.067,0.943-1.729c0.232-0.663,0.348-1.376,0.348-2.14c0-0.756-0.116-1.464-0.348-2.123
			c-0.232-0.658-0.546-1.231-0.943-1.718s-0.865-0.868-1.404-1.146s-1.112-0.416-1.718-0.416H63.031z"/>
	</g>
</g>
<g>
	<path fill="#C63706" d="M59.662,50.256h7.289v3.088h-1.797v10.86h3.706c0.097,0,0.193-0.028,0.286-0.084
		c0.094-0.057,0.176-0.13,0.247-0.22c0.071-0.09,0.129-0.187,0.174-0.291c0.045-0.105,0.067-0.206,0.067-0.304v-2.28h3.638v6.256
		H59.662v-3.077h1.763v-10.86h-1.763V50.256z"/>
</g>
<g>
	<path fill="#398EB0" d="M218.887,92.923c-0.451-0.123-0.876-0.305-1.274-0.545s-0.747-0.537-1.046-0.893
		c-0.299-0.354-0.536-0.764-0.712-1.23c-0.176-0.465-0.264-0.988-0.264-1.568c0-0.615,0.123-1.191,0.369-1.727
		c0.246-0.537,0.595-1.004,1.046-1.402s0.996-0.712,1.635-0.94c0.639-0.229,1.351-0.343,2.136-0.343h6.012v2.417h-1.239v14.089
		h-2.575V86.692h-1.512v14.089h-2.575V92.923z"/>
</g>
<g>
	<path fill="#398EB0" d="M68.951,148.954c-0.451-0.123-0.876-0.305-1.274-0.545s-0.747-0.537-1.046-0.893
		c-0.299-0.354-0.536-0.764-0.712-1.23c-0.176-0.465-0.264-0.988-0.264-1.568c0-0.615,0.123-1.191,0.369-1.727
		c0.246-0.537,0.595-1.004,1.046-1.402s0.996-0.712,1.635-0.94s1.351-0.343,2.136-0.343h6.012v2.417h-1.239v14.089h-2.575v-14.089
		h-1.512v14.089h-2.575V148.954z"/>
</g>
<g>
	<path fill="#C63706" d="M68.951,231.954c-0.451-0.123-0.876-0.305-1.274-0.545s-0.747-0.537-1.046-0.893
		c-0.299-0.354-0.536-0.764-0.712-1.23c-0.176-0.465-0.264-0.988-0.264-1.568c0-0.615,0.123-1.191,0.369-1.727
		c0.246-0.537,0.595-1.004,1.046-1.402s0.996-0.712,1.635-0.94s1.351-0.343,2.136-0.343h6.012v2.417h-1.239v14.089h-2.575v-14.089
		h-1.512v14.089h-2.575V231.954z"/>
</g>
<g>
	<path fill="#398EB0" d="M68.951,315.288c-0.451-0.123-0.876-0.305-1.274-0.545s-0.747-0.537-1.046-0.893
		c-0.299-0.354-0.536-0.764-0.712-1.23c-0.176-0.465-0.264-0.988-0.264-1.568c0-0.615,0.123-1.191,0.369-1.727
		c0.246-0.537,0.595-1.004,1.046-1.402s0.996-0.712,1.635-0.94s1.351-0.343,2.136-0.343h6.012v2.417h-1.239v14.089h-2.575v-14.089
		h-1.512v14.089h-2.575V315.288z"/>
</g>
<g>
	<path fill="#398EB0" d="M218.887,259.704c-0.451-0.123-0.876-0.305-1.274-0.545s-0.747-0.537-1.046-0.893
		c-0.299-0.354-0.536-0.764-0.712-1.23c-0.176-0.465-0.264-0.988-0.264-1.568c0-0.615,0.123-1.191,0.369-1.727
		c0.246-0.537,0.595-1.004,1.046-1.402s0.996-0.712,1.635-0.94c0.639-0.229,1.351-0.343,2.136-0.343h6.012v2.417h-1.239v14.089
		h-2.575v-14.089h-1.512v14.089h-2.575V259.704z"/>
</g>
<g>
	<path fill="#C63706" d="M218.887,176.288c-0.451-0.123-0.876-0.305-1.274-0.545s-0.747-0.537-1.046-0.893
		c-0.299-0.354-0.536-0.764-0.712-1.23c-0.176-0.465-0.264-0.988-0.264-1.568c0-0.615,0.123-1.191,0.369-1.727
		c0.246-0.537,0.595-1.004,1.046-1.402s0.996-0.712,1.635-0.94c0.639-0.229,1.351-0.343,2.136-0.343h6.012v2.417h-1.239v14.089
		h-2.575v-14.089h-1.512v14.089h-2.575V176.288z"/>
</g>
<g>
	<rect x="229.186" y="60.797" fill="#7C5904" width="131.928" height="7.2"/>
</g>
<g>
	<rect x="79.375" y="60.797" fill="#7C5904" width="131.928" height="7.2"/>
</g>
<g>
	<g>
		<rect x="229.186" y="74.711" fill="#7C5904" width="131.928" height="7.2"/>
	</g>
	<g>
		<rect x="79.375" y="74.711" fill="#7C5904" width="131.928" height="7.2"/>
	</g>
</g>
<g>
	<g>
		<rect x="229.186" y="88.625" fill="#7C5904" width="131.928" height="7.2"/>
	</g>
	<g>
		<rect x="79.375" y="88.625" fill="#7C5904" width="131.928" height="7.2"/>
	</g>
</g>
<g>
	<g>
		<rect x="229.186" y="102.539" fill="#7C5904" width="131.928" height="7.2"/>
	</g>
	<g>
		<rect x="79.375" y="102.539" fill="#7C5904" width="131.928" height="7.2"/>
	</g>
</g>
<g>
	<g>
		<rect x="229.186" y="116.453" fill="#7C5904" width="131.928" height="7.2"/>
	</g>
	<g>
		<rect x="79.375" y="116.453" fill="#7C5904" width="131.928" height="7.2"/>
	</g>
</g>
<g>
	<g>
		<rect x="229.186" y="130.366" fill="#7C5904" width="131.928" height="7.2"/>
	</g>
	<g>
		<rect x="79.375" y="130.366" fill="#7C5904" width="131.928" height="7.2"/>
	</g>
</g>
<g>
	<g>
		<rect x="229.186" y="144.279" fill="#7C5904" width="131.928" height="7.2"/>
	</g>
	<g>
		<rect x="79.375" y="144.279" fill="#7C5904" width="131.928" height="7.2"/>
	</g>
</g>
<g>
	<g>
		<rect x="229.186" y="158.194" fill="#7C5904" width="131.928" height="7.201"/>
	</g>
	<g>
		<rect x="79.375" y="158.194" fill="#7C5904" width="131.928" height="7.201"/>
	</g>
</g>
<g>
	<g>
		<rect x="229.186" y="172.107" fill="#7C5904" width="131.928" height="7.2"/>
	</g>
	<g>
		<rect x="79.375" y="172.107" fill="#7C5904" width="131.928" height="7.2"/>
	</g>
</g>
<g>
	<g>
		<rect x="229.186" y="186.021" fill="#7C5904" width="131.928" height="7.2"/>
	</g>
	<g>
		<rect x="79.375" y="186.021" fill="#7C5904" width="131.928" height="7.2"/>
	</g>
</g>
<g>
	<g>
		<rect x="229.186" y="199.936" fill="#7C5904" width="131.928" height="7.201"/>
	</g>
	<g>
		<rect x="79.375" y="199.936" fill="#7C5904" width="131.928" height="7.201"/>
	</g>
</g>
<g>
	<g>
		<rect x="229.186" y="213.85" fill="#7C5904" width="131.928" height="7.2"/>
	</g>
	<g>
		<rect x="79.375" y="213.85" fill="#7C5904" width="131.928" height="7.2"/>
	</g>
</g>
<g>
	<g>
		<rect x="229.186" y="227.763" fill="#7C5904" width="131.928" height="7.2"/>
	</g>
	<g>
		<rect x="79.375" y="227.763" fill="#7C5904" width="131.928" height="7.2"/>
	</g>
</g>
<g>
	<g>
		<rect x="229.186" y="241.677" fill="#7C5904" width="131.928" height="7.201"/>
	</g>
	<g>
		<rect x="79.375" y="241.677" fill="#7C5904" width="131.928" height="7.201"/>
	</g>
</g>
<g>
	<g>
		<rect x="229.186" y="255.591" fill="#7C5904" width="131.928" height="7.2"/>
	</g>
	<g>
		<rect x="79.375" y="255.591" fill="#7C5904" width="131.928" height="7.2"/>
	</g>
</g>
<g>
	<g>
		<rect x="229.186" y="269.505" fill="#7C5904" width="131.928" height="7.2"/>
	</g>
	<g>
		<rect x="79.375" y="269.505" fill="#7C5904" width="131.928" height="7.2"/>
	</g>
</g>
<g>
	<g>
		<rect x="229.186" y="283.44" fill="#7C5904" width="131.928" height="7.2"/>
	</g>
	<g>
		<rect x="79.375" y="283.44" fill="#7C5904" width="131.928" height="7.2"/>
	</g>
</g>
<g>
	<rect x="79.375" y="297.332" fill="#7C5904" width="131.928" height="7.2"/>
</g>
<g>
	<rect x="79.375" y="311.246" fill="#7C5904" width="131.928" height="7.2"/>
</g>
<g>
	<rect x="79.375" y="325.159" fill="#7C5904" width="131.928" height="7.2"/>
</g>
<g>
	<rect x="79.375" y="339.074" fill="#7C5904" width="131.928" height="7.2"/>
</g>
<g>
	<rect x="79.375" y="352.987" fill="#7C5904" width="131.928" height="7.2"/>
</g>
</svg>
