<?xml version="1.0" encoding="utf-8"?>
<!-- Generator: Adobe Illustrator 16.0.4, SVG Export Plug-In . SVG Version: 6.00 Build 0)  -->
<!DOCTYPE svg PUBLIC "-//W3C//DTD SVG 1.1//EN" "http://www.w3.org/Graphics/SVG/1.1/DTD/svg11.dtd">
<svg version="1.1" id="Layer_1" xmlns="http://www.w3.org/2000/svg" xmlns:xlink="http://www.w3.org/1999/xlink" x="0px" y="0px"
	 width="448.747px" height="616.44px" viewBox="0 0 448.747 616.44" enable-background="new 0 0 448.747 616.44"
	 xml:space="preserve">
<rect x="0.5" y="0.5" fill="#FFFFFF" stroke="#C68D06" stroke-miterlimit="10" width="447.747" height="615.44"/>
<g>
	<path fill="#C68D06" d="M347.71,577.642h4.865v-20.967c-1.26,0.665-3.29,1.189-4.796,1.189v-2.205
		c1.995-0.07,3.78-0.595,4.936-1.68h2.311v23.662h4.41v2.24H347.71V577.642z"/>
	<path fill="#C68D06" d="M365.595,575.717l1.785-1.436c1.575,2.275,3.641,3.921,6.721,3.921c4.445,0,6.476-3.291,6.476-6.791
		c0-4.2-2.485-6.44-5.916-6.44c-2.66,0-4.48,1.189-5.915,3.255l-1.855-0.7l1.016-13.546h13.687l-0.211,2.274H369.97l-0.7,8.996
		c1.261-1.47,2.976-2.415,5.741-2.415c4.69,0,8.016,3.29,8.016,8.471s-3.396,9.066-8.891,9.066
		C370.391,580.372,367.345,578.481,365.595,575.717z"/>
	<path fill="#C68D06" d="M389.358,553.979h2.556l7.735,22.612h0.07l7.771-22.612h2.416l-9.102,26.008h-2.345L389.358,553.979z"/>
</g>
<g>
	<rect x="79.884" y="158.217" fill="#C0DDE7" width="281.739" height="7.199"/>
</g>
<g>
	<rect x="79.884" y="172.13" fill="#C0DDE7" width="281.738" height="7.199"/>
</g>
<g>
	<rect x="79.884" y="186.044" fill="#C0DDE7" width="281.739" height="7.2"/>
</g>
<g>
	<rect x="79.884" y="199.958" fill="#C0DDE7" width="281.739" height="7.199"/>
</g>
<g>
	<rect x="79.884" y="213.872" fill="#C0DDE7" width="281.739" height="7.199"/>
</g>
<g>
	<rect x="79.884" y="227.785" fill="#C0DDE7" width="281.739" height="7.2"/>
</g>
<g>
	<rect x="79.884" y="241.699" fill="#C0DDE7" width="281.738" height="7.199"/>
</g>
<g>
	<rect x="79.884" y="255.612" fill="#C0DDE7" width="281.738" height="7.2"/>
</g>
<g>
	<rect x="79.884" y="269.527" fill="#C0DDE7" width="281.739" height="7.199"/>
</g>
<g>
	<rect x="79.884" y="283.44" fill="#C0DDE7" width="281.738" height="7.2"/>
</g>
<g>
	<rect x="79.884" y="297.354" fill="#C0DDE7" width="281.739" height="7.2"/>
</g>
<g>
	<rect x="79.884" y="311.269" fill="#C0DDE7" width="281.739" height="7.2"/>
</g>
<g>
	<rect x="79.884" y="325.183" fill="#C0DDE7" width="281.739" height="7.199"/>
</g>
<g>
	<rect x="79.884" y="339.096" fill="#C0DDE7" width="281.738" height="7.2"/>
</g>
<g>
	<rect x="79.884" y="353.01" fill="#C0DDE7" width="281.739" height="7.2"/>
</g>
<g>
	<rect x="79.884" y="366.924" fill="#C0DDE7" width="281.739" height="7.2"/>
</g>
<g>
	<rect x="79.884" y="380.838" fill="#C0DDE7" width="281.739" height="7.199"/>
</g>
<g>
	<rect x="79.884" y="394.752" fill="#C0DDE7" width="281.739" height="7.199"/>
</g>
<g>
	<rect x="79.884" y="408.665" fill="#C0DDE7" width="281.738" height="7.199"/>
</g>
<g>
	<rect x="79.884" y="422.579" fill="#C0DDE7" width="281.739" height="7.2"/>
</g>
<g>
	<rect x="79.884" y="436.492" fill="#C0DDE7" width="281.738" height="7.2"/>
</g>
<g>
	<rect x="79.884" y="450.407" fill="#C0DDE7" width="281.739" height="7.199"/>
</g>
<g>
	<rect x="79.884" y="464.32" fill="#C0DDE7" width="281.738" height="7.199"/>
</g>
<g>
	<rect x="79.884" y="478.234" fill="#C0DDE7" width="281.739" height="7.2"/>
</g>
<g>
	<rect x="79.884" y="60.819" fill="#C0DDE7" width="281.739" height="7.2"/>
</g>
<g>
	<rect x="79.884" y="74.733" fill="#C0DDE7" width="281.738" height="7.2"/>
</g>
<g>
	<rect x="79.884" y="144.303" fill="#C0DDE7" width="281.738" height="7.199"/>
</g>
<g>
	<rect x="79.884" y="88.647" fill="#C0DDE7" width="281.739" height="7.199"/>
</g>
<g>
	<rect x="79.884" y="102.561" fill="#C0DDE7" width="281.738" height="7.2"/>
</g>
<g>
	<rect x="79.884" y="116.475" fill="#C0DDE7" width="281.738" height="7.199"/>
</g>
<g>
	<rect x="79.884" y="130.389" fill="#C0DDE7" width="281.738" height="7.199"/>
</g>
<g>
	<path fill="#C63706" d="M70.438,134.211c-0.451-0.123-0.876-0.305-1.274-0.545s-0.747-0.537-1.046-0.893
		c-0.299-0.354-0.536-0.764-0.712-1.23c-0.176-0.465-0.264-0.988-0.264-1.568c0-0.615,0.123-1.191,0.369-1.727
		c0.246-0.537,0.595-1.004,1.046-1.402s0.996-0.712,1.635-0.94s1.351-0.343,2.136-0.343h6.012v2.417H77.1v14.089h-2.575v-14.089
		h-1.512v14.089h-2.575V134.211z"/>
</g>
<g>
	<path fill="#398EB0" d="M70.438,64.379c-0.451-0.123-0.876-0.305-1.274-0.545s-0.747-0.537-1.046-0.893
		c-0.299-0.354-0.536-0.764-0.712-1.23c-0.176-0.465-0.264-0.988-0.264-1.568c0-0.615,0.123-1.191,0.369-1.727
		c0.246-0.537,0.595-1.004,1.046-1.402s0.996-0.712,1.635-0.94s1.351-0.343,2.136-0.343h6.012v2.417H77.1v14.089h-2.575V58.147
		h-1.512v14.089h-2.575V64.379z"/>
</g>
<g>
	<g>
		<polygon fill="#7C5904" points="218.161,151.501 80.091,151.501 80.091,144.302 218.161,144.302 222.31,147.902 		"/>
	</g>
	<g>
		<polygon fill="#7C5904" points="223.552,144.302 361.622,144.302 361.622,151.501 223.552,151.501 227.7,147.902 		"/>
	</g>
</g>
<g>
	<g>
		<polygon fill="#7C5904" points="218.161,81.932 80.091,81.932 80.091,74.733 218.161,74.733 222.31,78.332 		"/>
	</g>
	<g>
		<polygon fill="#7C5904" points="223.552,74.733 361.622,74.733 361.622,81.932 223.552,81.932 227.7,78.332 		"/>
	</g>
</g>
<g>
	<g>
		<polygon fill="#7C5904" points="218.161,109.76 80.091,109.76 80.091,102.561 218.161,102.561 222.31,106.16 		"/>
	</g>
	<g>
		<polygon fill="#7C5904" points="223.552,102.561 361.622,102.561 361.622,109.76 223.552,109.76 227.7,106.16 		"/>
	</g>
</g>
<g>
	<g>
		<polygon fill="#7C5904" points="218.161,137.588 80.091,137.588 80.091,130.388 218.161,130.388 222.31,133.987 		"/>
	</g>
	<g>
		<polygon fill="#7C5904" points="223.552,130.388 361.622,130.388 361.622,137.588 223.552,137.588 227.7,133.987 		"/>
	</g>
</g>
<g>
	<g>
		<polygon fill="#7C5904" points="266.157,95.847 176.476,95.847 180.626,92.247 176.476,88.647 266.157,88.647 270.308,92.247 		
			"/>
	</g>
	<g>
		<polygon fill="#7C5904" points="169.669,95.847 79.987,95.847 79.987,88.647 169.669,88.647 173.817,92.247 		"/>
	</g>
	<g>
		<polygon fill="#7C5904" points="271.901,88.647 361.583,88.647 361.583,95.847 271.901,95.847 276.05,92.247 		"/>
	</g>
</g>
<g>
	<g>
		<polygon fill="#7C5904" points="266.157,165.417 176.476,165.417 180.626,161.816 176.476,158.216 266.157,158.216 
			270.308,161.816 		"/>
	</g>
	<g>
		<polygon fill="#7C5904" points="169.669,165.417 79.987,165.417 79.987,158.216 169.669,158.216 173.817,161.816 		"/>
	</g>
	<g>
		<polygon fill="#7C5904" points="271.901,158.216 361.583,158.216 361.583,165.417 271.901,165.417 276.05,161.816 		"/>
	</g>
</g>
<g>
	<rect x="79.987" y="116.475" fill="#7C5904" width="142.488" height="7.199"/>
</g>
<g>
	<g>
		<polygon fill="#7C5904" points="218.161,179.33 80.091,179.33 80.091,172.13 218.161,172.13 222.31,175.729 		"/>
	</g>
	<g>
		<polygon fill="#7C5904" points="223.552,172.13 361.622,172.13 361.622,179.33 223.552,179.33 227.7,175.729 		"/>
	</g>
</g>
<g>
	<rect x="79.987" y="186.044" fill="#7C5904" width="142.488" height="7.199"/>
</g>
<g>
	<g>
		<polygon fill="#7C5904" points="218.058,429.78 79.987,429.78 79.987,422.581 218.058,422.581 222.206,426.181 		"/>
	</g>
	<g>
		<polygon fill="#7C5904" points="223.448,422.581 361.519,422.581 361.519,429.78 223.448,429.78 227.596,426.181 		"/>
	</g>
</g>
<g>
	<g>
		<polygon fill="#7C5904" points="218.058,443.693 79.987,443.693 79.987,436.494 218.058,436.494 222.206,440.094 		"/>
	</g>
	<g>
		<polygon fill="#7C5904" points="223.448,436.494 361.519,436.494 361.519,443.693 223.448,443.693 227.596,440.094 		"/>
	</g>
</g>
<g>
	<g>
		<polygon fill="#7C5904" points="218.058,457.607 79.987,457.607 79.987,450.408 218.058,450.408 222.206,454.007 		"/>
	</g>
	<g>
		<polygon fill="#7C5904" points="223.448,450.408 361.519,450.408 361.519,457.607 223.448,457.607 227.596,454.007 		"/>
	</g>
</g>
<g>
	<g>
		<polygon fill="#7C5904" points="218.058,471.521 79.987,471.521 79.987,464.32 218.058,464.32 222.206,467.92 		"/>
	</g>
	<g>
		<polygon fill="#7C5904" points="223.448,464.32 361.519,464.32 361.519,471.521 223.448,471.521 227.596,467.92 		"/>
	</g>
</g>
<g>
	<g>
		<polygon fill="#7C5904" points="218.058,332.384 79.987,332.384 79.987,325.185 218.058,325.185 222.206,328.784 		"/>
	</g>
	<g>
		<polygon fill="#7C5904" points="223.448,325.185 361.519,325.185 361.519,332.384 223.448,332.384 227.596,328.784 		"/>
	</g>
</g>
<g>
	<g>
		<polygon fill="#7C5904" points="218.058,401.952 79.987,401.952 79.987,394.753 218.058,394.753 222.206,398.353 		"/>
	</g>
	<g>
		<polygon fill="#7C5904" points="223.448,394.753 361.519,394.753 361.519,401.952 223.448,401.952 227.596,398.353 		"/>
	</g>
</g>
<g>
	<g>
		<polygon fill="#7C5904" points="218.058,346.297 79.987,346.297 79.987,339.098 218.058,339.098 222.206,342.697 		"/>
	</g>
	<g>
		<polygon fill="#7C5904" points="223.448,339.098 361.519,339.098 361.519,346.297 223.448,346.297 227.596,342.697 		"/>
	</g>
</g>
<g>
	<g>
		<polygon fill="#7C5904" points="218.058,360.211 79.987,360.211 79.987,353.012 218.058,353.012 222.206,356.61 		"/>
	</g>
	<g>
		<polygon fill="#7C5904" points="223.448,353.012 361.519,353.012 361.519,360.211 223.448,360.211 227.596,356.61 		"/>
	</g>
</g>
<g>
	<g>
		<polygon fill="#7C5904" points="218.058,374.124 79.987,374.124 79.987,366.924 218.058,366.924 222.206,370.523 		"/>
	</g>
	<g>
		<polygon fill="#7C5904" points="223.448,366.924 361.519,366.924 361.519,374.124 223.448,374.124 227.596,370.523 		"/>
	</g>
</g>
<g>
	<g>
		<polygon fill="#7C5904" points="218.058,388.038 79.987,388.038 79.987,380.838 218.058,380.838 222.206,384.438 		"/>
	</g>
	<g>
		<polygon fill="#7C5904" points="223.448,380.838 361.519,380.838 361.519,388.038 223.448,388.038 227.596,384.438 		"/>
	</g>
</g>
<g>
	<g>
		<polygon fill="#7C5904" points="218.058,221.073 79.987,221.073 79.987,213.874 218.058,213.874 222.206,217.474 		"/>
	</g>
	<g>
		<polygon fill="#7C5904" points="223.448,213.874 361.519,213.874 361.519,221.073 223.448,221.073 227.596,217.474 		"/>
	</g>
</g>
<g>
	<g>
		<polygon fill="#7C5904" points="218.058,234.987 79.987,234.987 79.987,227.788 218.058,227.788 222.206,231.388 		"/>
	</g>
	<g>
		<polygon fill="#7C5904" points="223.448,227.788 361.519,227.788 361.519,234.987 223.448,234.987 227.596,231.388 		"/>
	</g>
</g>
<g>
	<g>
		<polygon fill="#7C5904" points="218.058,304.556 79.987,304.556 79.987,297.356 218.058,297.356 222.206,300.956 		"/>
	</g>
	<g>
		<polygon fill="#7C5904" points="223.448,297.356 361.519,297.356 361.519,304.556 223.448,304.556 227.596,300.956 		"/>
	</g>
</g>
<g>
	<g>
		<polygon fill="#7C5904" points="218.058,248.9 79.987,248.9 79.987,241.701 218.058,241.701 222.206,245.301 		"/>
	</g>
	<g>
		<polygon fill="#7C5904" points="223.448,241.701 361.519,241.701 361.519,248.9 223.448,248.9 227.596,245.301 		"/>
	</g>
</g>
<g>
	<g>
		<polygon fill="#7C5904" points="218.058,262.814 79.987,262.814 79.987,255.615 218.058,255.615 222.206,259.214 		"/>
	</g>
	<g>
		<polygon fill="#7C5904" points="223.448,255.615 361.519,255.615 361.519,262.814 223.448,262.814 227.596,259.214 		"/>
	</g>
</g>
<g>
	<g>
		<polygon fill="#7C5904" points="218.058,276.728 79.987,276.728 79.987,269.527 218.058,269.527 222.206,273.127 		"/>
	</g>
	<g>
		<polygon fill="#7C5904" points="223.448,269.527 361.519,269.527 361.519,276.728 223.448,276.728 227.596,273.127 		"/>
	</g>
</g>
<g>
	<g>
		<polygon fill="#7C5904" points="218.058,290.642 79.987,290.642 79.987,283.441 218.058,283.441 222.206,287.041 		"/>
	</g>
	<g>
		<polygon fill="#7C5904" points="223.448,283.441 361.519,283.441 361.519,290.642 223.448,290.642 227.596,287.041 		"/>
	</g>
</g>
<g>
	<path fill="#C63706" d="M59.564,203.829h7.861c0.876,0,1.681,0.137,2.415,0.41s1.366,0.642,1.898,1.105
		c0.532,0.465,0.947,1,1.247,1.606s0.449,1.239,0.449,1.897c0,0.794-0.118,1.537-0.354,2.229c-0.236,0.692-0.601,1.294-1.095,1.803
		s-1.119,0.911-1.875,1.207s-1.651,0.444-2.684,0.444h-2.37v3.245h1.561v3.077h-7.053v-3.077h1.763v-10.86h-1.763V203.829z
		 M65.056,206.917v4.571h1.539c0.854,0,1.531-0.18,2.032-0.539c0.502-0.359,0.753-0.929,0.753-1.707
		c0-0.727-0.236-1.295-0.708-1.707s-1.164-0.618-2.078-0.618H65.056z"/>
</g>
<g>
	<path fill="#398EB0" d="M70.438,329.127c-0.451-0.123-0.876-0.305-1.274-0.545s-0.747-0.537-1.046-0.893
		c-0.299-0.354-0.536-0.764-0.712-1.23c-0.176-0.465-0.264-0.988-0.264-1.568c0-0.615,0.123-1.191,0.369-1.727
		c0.246-0.537,0.595-1.004,1.046-1.402s0.996-0.712,1.635-0.94s1.351-0.343,2.136-0.343h6.012v2.417H77.1v14.089h-2.575v-14.089
		h-1.512v14.089h-2.575V329.127z"/>
</g>
<g>
	<path fill="#398EB0" d="M70.438,441.127c-0.451-0.123-0.876-0.305-1.274-0.545s-0.747-0.537-1.046-0.893
		c-0.299-0.354-0.536-0.764-0.712-1.23c-0.176-0.465-0.264-0.988-0.264-1.568c0-0.615,0.123-1.191,0.369-1.727
		c0.246-0.537,0.595-1.004,1.046-1.402s0.996-0.712,1.635-0.94s1.351-0.343,2.136-0.343h6.012v2.417H77.1v14.089h-2.575v-14.089
		h-1.512v14.089h-2.575V441.127z"/>
</g>
<g>
	<rect x="79.987" y="311.271" fill="#7C5904" width="142.488" height="7.199"/>
</g>
<g>
	<rect x="79.987" y="408.668" fill="#7C5904" width="142.488" height="7.199"/>
</g>
<g>
	<g>
		<polygon fill="#7C5904" points="223.344,60.819 361.415,60.819 361.415,68.019 223.344,68.019 227.492,64.418 		"/>
	</g>
	<g>
		<polygon fill="#7C5904" points="222.102,64.418 217.954,60.82 217.954,60.819 217.954,60.819 79.883,60.819 84.032,64.418 
			79.883,68.019 217.954,68.019 217.954,68.019 217.954,68.018 		"/>
	</g>
</g>
<g>
	<g>
		<polygon fill="#7C5904" points="217.954,485.435 79.883,485.435 79.883,478.235 217.954,478.235 222.102,481.835 		"/>
	</g>
	<g>
		<polygon fill="#7C5904" points="223.344,478.235 227.493,481.835 223.344,485.435 357.266,485.435 361.415,481.835 
			357.266,478.235 		"/>
	</g>
</g>
</svg>
