<?xml version="1.0" encoding="utf-8"?>
<!-- Generator: Adobe Illustrator 16.0.4, SVG Export Plug-In . SVG Version: 6.00 Build 0)  -->
<!DOCTYPE svg PUBLIC "-//W3C//DTD SVG 1.1//EN" "http://www.w3.org/Graphics/SVG/1.1/DTD/svg11.dtd">
<svg version="1.1" id="Layer_1" xmlns="http://www.w3.org/2000/svg" xmlns:xlink="http://www.w3.org/1999/xlink" x="0px" y="0px"
	 width="448.746px" height="616.44px" viewBox="0 0 448.746 616.44" enable-background="new 0 0 448.746 616.44"
	 xml:space="preserve">
<rect x="0.5" y="0.5" fill="#FFFFFF" stroke="#C68D06" stroke-miterlimit="10" width="447.746" height="615.44"/>
<g>
	<path fill="#C68D06" d="M345.492,579.894h4.865v-20.967c-1.26,0.665-3.29,1.189-4.796,1.189v-2.205
		c1.995-0.07,3.78-0.595,4.936-1.68h2.311v23.662h4.41v2.24h-11.726V579.894z"/>
	<path fill="#C68D06" d="M363.376,577.969l1.785-1.436c1.575,2.275,3.641,3.921,6.721,3.921c4.445,0,6.476-3.291,6.476-6.791
		c0-4.2-2.485-6.44-5.916-6.44c-2.66,0-4.48,1.189-5.915,3.255l-1.855-0.7l1.016-13.546h13.686l-0.21,2.274h-11.411l-0.699,8.996
		c1.26-1.47,2.975-2.415,5.74-2.415c4.69,0,8.016,3.29,8.016,8.471s-3.396,9.066-8.891,9.066
		C368.171,582.625,365.126,580.734,363.376,577.969z"/>
	<path fill="#C68D06" d="M389.206,556.232h8.681c5.776,0,8.996,2.45,8.996,7c0,4.201-2.45,6.301-6.195,7.001l6.546,11.901h-2.801
		l-6.336-11.621h-6.44v11.621h-2.45V556.232z M397.711,568.308c4.271,0,6.686-1.226,6.686-4.971c0-3.57-2.38-4.831-6.721-4.831
		h-6.021v9.802H397.711z"/>
</g>
<g>
	<rect x="79.125" y="158.3" fill="#C0DDE7" width="281.738" height="7.199"/>
</g>
<g>
	<rect x="79.125" y="172.213" fill="#C0DDE7" width="281.738" height="7.199"/>
</g>
<g>
	<rect x="79.125" y="186.127" fill="#C0DDE7" width="281.738" height="7.2"/>
</g>
<g>
	<rect x="79.125" y="200.041" fill="#C0DDE7" width="281.738" height="7.199"/>
</g>
<g>
	<rect x="79.125" y="213.955" fill="#C0DDE7" width="281.738" height="7.199"/>
</g>
<g>
	<rect x="79.125" y="227.869" fill="#C0DDE7" width="281.738" height="7.2"/>
</g>
<g>
	<rect x="79.125" y="241.783" fill="#C0DDE7" width="281.738" height="7.199"/>
</g>
<g>
	<rect x="79.125" y="255.696" fill="#C0DDE7" width="281.738" height="7.2"/>
</g>
<g>
	<rect x="79.125" y="269.611" fill="#C0DDE7" width="281.738" height="7.199"/>
</g>
<g>
	<rect x="79.125" y="283.524" fill="#C0DDE7" width="281.738" height="7.2"/>
</g>
<g>
	<rect x="79.125" y="297.438" fill="#C0DDE7" width="281.738" height="7.2"/>
</g>
<g>
	<rect x="79.125" y="311.352" fill="#C0DDE7" width="281.738" height="7.2"/>
</g>
<g>
	<rect x="79.125" y="325.266" fill="#C0DDE7" width="281.738" height="7.199"/>
</g>
<g>
	<rect x="79.125" y="339.179" fill="#C0DDE7" width="281.738" height="7.2"/>
</g>
<g>
	<rect x="79.125" y="353.093" fill="#C0DDE7" width="281.738" height="7.2"/>
</g>
<g>
	<rect x="79.125" y="367.007" fill="#C0DDE7" width="281.738" height="7.2"/>
</g>
<g>
	<rect x="79.125" y="380.921" fill="#C0DDE7" width="281.738" height="7.2"/>
</g>
<g>
	<rect x="79.125" y="394.835" fill="#C0DDE7" width="281.738" height="7.199"/>
</g>
<g>
	<rect x="79.125" y="408.749" fill="#C0DDE7" width="281.738" height="7.199"/>
</g>
<g>
	<rect x="79.125" y="422.663" fill="#C0DDE7" width="281.738" height="7.2"/>
</g>
<g>
	<rect x="79.125" y="436.576" fill="#C0DDE7" width="281.738" height="7.2"/>
</g>
<g>
	<rect x="79.125" y="450.49" fill="#C0DDE7" width="281.738" height="7.199"/>
</g>
<g>
	<rect x="79.125" y="464.404" fill="#C0DDE7" width="281.738" height="7.199"/>
</g>
<g>
	<rect x="79.125" y="478.317" fill="#C0DDE7" width="281.738" height="7.2"/>
</g>
<g>
	<rect x="79.125" y="60.903" fill="#C0DDE7" width="281.738" height="7.2"/>
</g>
<g>
	<rect x="79.125" y="74.816" fill="#C0DDE7" width="281.738" height="7.2"/>
</g>
<g>
	<rect x="79.125" y="144.386" fill="#C0DDE7" width="281.738" height="7.199"/>
</g>
<g>
	<rect x="79.125" y="88.73" fill="#C0DDE7" width="281.738" height="7.199"/>
</g>
<g>
	<rect x="79.125" y="102.644" fill="#C0DDE7" width="281.738" height="7.2"/>
</g>
<g>
	<rect x="79.125" y="116.558" fill="#C0DDE7" width="281.738" height="7.199"/>
</g>
<g>
	<rect x="79.125" y="130.472" fill="#C0DDE7" width="281.738" height="7.199"/>
</g>
<g>
	<path fill="#C63706" d="M69.678,427.583c-0.451-0.123-0.876-0.305-1.274-0.545s-0.747-0.537-1.046-0.893
		c-0.299-0.354-0.537-0.764-0.712-1.23c-0.176-0.465-0.264-0.988-0.264-1.568c0-0.615,0.123-1.191,0.369-1.727
		c0.246-0.537,0.595-1.004,1.046-1.402s0.996-0.712,1.635-0.94s1.351-0.343,2.136-0.343h6.012v2.417H76.34v14.089h-2.575v-14.089
		h-1.512v14.089h-2.575V427.583z"/>
</g>
<g>
	<path fill="#398EB0" d="M69.678,357.75c-0.451-0.123-0.876-0.305-1.274-0.545s-0.747-0.537-1.046-0.893
		c-0.299-0.354-0.537-0.764-0.712-1.23c-0.176-0.465-0.264-0.988-0.264-1.568c0-0.615,0.123-1.191,0.369-1.727
		c0.246-0.537,0.595-1.004,1.046-1.402s0.996-0.712,1.635-0.94s1.351-0.343,2.136-0.343h6.012v2.417H76.34v14.089h-2.575v-14.089
		h-1.512v14.089h-2.575V357.75z"/>
</g>
<g>
	<g>
		<g>
			<g>
				<polygon fill="#7C5904" points="217.402,68.103 79.332,68.103 79.332,60.904 217.402,60.904 221.55,64.503 				"/>
			</g>
			<g>
				<polygon fill="#7C5904" points="222.793,60.904 360.863,60.904 360.863,68.103 222.793,68.103 226.941,64.503 				"/>
			</g>
		</g>
		<g>
			<g>
				<polygon fill="#7C5904" points="217.402,82.017 79.332,82.017 79.332,74.818 217.402,74.818 221.55,78.417 				"/>
			</g>
			<g>
				<polygon fill="#7C5904" points="222.793,74.818 360.863,74.818 360.863,82.017 222.793,82.017 226.941,78.417 				"/>
			</g>
		</g>
		<g>
			<g>
				<polygon fill="#7C5904" points="217.402,151.585 79.332,151.585 79.332,144.386 217.402,144.386 221.55,147.986 				"/>
			</g>
			<g>
				<polygon fill="#7C5904" points="222.793,144.386 360.863,144.386 360.863,151.585 222.793,151.585 226.941,147.986 				"/>
			</g>
		</g>
		<g>
			<g>
				<polygon fill="#7C5904" points="217.402,95.93 79.332,95.93 79.332,88.731 217.402,88.731 221.55,92.331 				"/>
			</g>
			<g>
				<polygon fill="#7C5904" points="222.793,88.731 360.863,88.731 360.863,95.93 222.793,95.93 226.941,92.331 				"/>
			</g>
		</g>
		<g>
			<g>
				<polygon fill="#7C5904" points="217.402,109.844 79.332,109.844 79.332,102.645 217.402,102.645 221.55,106.244 				"/>
			</g>
			<g>
				<polygon fill="#7C5904" points="222.793,102.645 360.863,102.645 360.863,109.844 222.793,109.844 226.941,106.244 				"/>
			</g>
		</g>
		<g>
			<g>
				<polygon fill="#7C5904" points="217.402,123.757 79.332,123.757 79.332,116.557 217.402,116.557 221.55,120.157 				"/>
			</g>
			<g>
				<polygon fill="#7C5904" points="222.793,116.557 360.863,116.557 360.863,123.757 222.793,123.757 226.941,120.157 				"/>
			</g>
		</g>
		<g>
			<g>
				<polygon fill="#7C5904" points="217.402,137.671 79.332,137.671 79.332,130.471 217.402,130.471 221.55,134.071 				"/>
			</g>
			<g>
				<polygon fill="#7C5904" points="222.793,130.471 360.863,130.471 360.863,137.671 222.793,137.671 226.941,134.071 				"/>
			</g>
		</g>
	</g>
	<g>
		<path fill="#C63706" d="M59.515,52.566h7.289v3.088h-1.797v10.86h3.706c0.097,0,0.193-0.028,0.286-0.084
			c0.094-0.057,0.176-0.13,0.247-0.22c0.071-0.09,0.129-0.187,0.174-0.291c0.045-0.105,0.067-0.206,0.067-0.304v-2.28h3.639v6.256
			H59.515v-3.077h1.763v-10.86h-1.763V52.566z"/>
	</g>
</g>
<g>
	<g>
		<g>
			<polygon fill="#7C5904" points="217.402,179.603 79.332,179.603 79.332,172.404 217.402,172.404 221.55,176.003 			"/>
		</g>
		<g>
			<polygon fill="#7C5904" points="222.793,172.404 360.863,172.404 360.863,179.603 222.793,179.603 226.941,176.003 			"/>
		</g>
	</g>
	<g>
		<g>
			<polygon fill="#7C5904" points="217.402,193.517 79.332,193.517 79.332,186.318 217.402,186.318 221.55,189.917 			"/>
		</g>
		<g>
			<polygon fill="#7C5904" points="222.793,186.318 360.863,186.318 360.863,193.517 222.793,193.517 226.941,189.917 			"/>
		</g>
	</g>
	<g>
		<g>
			<polygon fill="#7C5904" points="217.402,263.085 79.332,263.085 79.332,255.886 217.402,255.886 221.55,259.486 			"/>
		</g>
		<g>
			<polygon fill="#7C5904" points="222.793,255.886 360.863,255.886 360.863,263.085 222.793,263.085 226.941,259.486 			"/>
		</g>
	</g>
	<g>
		<g>
			<polygon fill="#7C5904" points="217.402,207.43 79.332,207.43 79.332,200.231 217.402,200.231 221.55,203.831 			"/>
		</g>
		<g>
			<polygon fill="#7C5904" points="222.793,200.231 360.863,200.231 360.863,207.43 222.793,207.43 226.941,203.831 			"/>
		</g>
	</g>
	<g>
		<g>
			<polygon fill="#7C5904" points="217.402,221.344 79.332,221.344 79.332,214.145 217.402,214.145 221.55,217.744 			"/>
		</g>
		<g>
			<polygon fill="#7C5904" points="222.793,214.145 360.863,214.145 360.863,221.344 222.793,221.344 226.941,217.744 			"/>
		</g>
	</g>
	<g>
		<g>
			<polygon fill="#7C5904" points="217.402,235.257 79.332,235.257 79.332,228.057 217.402,228.057 221.55,231.657 			"/>
		</g>
		<g>
			<polygon fill="#7C5904" points="222.793,228.057 360.863,228.057 360.863,235.257 222.793,235.257 226.941,231.657 			"/>
		</g>
	</g>
	<g>
		<g>
			<polygon fill="#7C5904" points="217.402,249.171 79.332,249.171 79.332,241.971 217.402,241.971 221.55,245.571 			"/>
		</g>
		<g>
			<polygon fill="#7C5904" points="222.793,241.971 360.863,241.971 360.863,249.171 222.793,249.171 226.941,245.571 			"/>
		</g>
	</g>
</g>
<g>
	<path fill="#398EB0" d="M59.065,178.014h1.741v-10.86h-1.741v-3.11l8.299,0.022c0.771,0,1.477,0.137,2.117,0.41
		c0.64,0.273,1.192,0.644,1.656,1.111s0.825,1.015,1.084,1.64c0.258,0.625,0.387,1.29,0.387,1.993c0,0.824-0.144,1.506-0.432,2.045
		c-0.289,0.539-0.698,0.973-1.23,1.303c0.562,0.359,1.005,0.803,1.331,1.33c0.326,0.528,0.489,1.17,0.489,1.926
		c0,0.771-0.133,1.479-0.399,2.123c-0.266,0.644-0.629,1.2-1.089,1.668c-0.461,0.468-1.005,0.831-1.634,1.089
		c-0.629,0.259-1.307,0.388-2.033,0.388h-8.546V178.014z M64.535,167.154v3.818h2.673c0.209,0,0.408-0.052,0.595-0.156
		c0.187-0.105,0.35-0.246,0.489-0.422c0.138-0.176,0.249-0.374,0.331-0.595s0.124-0.451,0.124-0.69c0-0.232-0.041-0.465-0.124-0.697
		c-0.083-0.231-0.193-0.441-0.331-0.629c-0.139-0.187-0.302-0.338-0.489-0.454s-0.386-0.175-0.595-0.175H64.535z M64.535,174.05
		v3.964h2.83c0.217,0,0.421-0.056,0.612-0.169c0.19-0.111,0.355-0.26,0.494-0.443c0.138-0.184,0.249-0.396,0.331-0.64
		c0.082-0.243,0.124-0.496,0.124-0.759c0-0.276-0.042-0.533-0.124-0.769c-0.083-0.236-0.195-0.442-0.337-0.618
		s-0.309-0.314-0.5-0.415c-0.19-0.102-0.391-0.151-0.601-0.151H64.535z"/>
</g>
<g>
	<path fill="#C63706" d="M59.515,274.066h7.289v3.088h-1.797v10.86h3.706c0.097,0,0.193-0.028,0.286-0.084
		c0.094-0.057,0.176-0.13,0.247-0.22c0.071-0.09,0.129-0.187,0.174-0.291c0.045-0.105,0.067-0.206,0.067-0.304v-2.28h3.639v6.256
		H59.515v-3.077h1.763v-10.86h-1.763V274.066z"/>
</g>
<g>
	<g>
		<polygon fill="#7C5904" points="217.402,290.724 79.332,290.724 79.332,283.524 217.402,283.524 221.55,287.125 		"/>
	</g>
	<g>
		<polygon fill="#7C5904" points="222.793,283.524 360.863,283.524 360.863,290.724 222.793,290.724 226.941,287.125 		"/>
	</g>
</g>
<g>
	<g>
		<polygon fill="#7C5904" points="217.402,374.206 79.332,374.206 79.332,367.007 217.402,367.007 221.55,370.606 		"/>
	</g>
	<g>
		<polygon fill="#7C5904" points="222.793,367.007 360.863,367.007 360.863,374.206 222.793,374.206 226.941,370.606 		"/>
	</g>
</g>
<g>
	<g>
		<polygon fill="#7C5904" points="217.402,304.637 79.332,304.637 79.332,297.438 217.402,297.438 221.55,301.037 		"/>
	</g>
	<g>
		<polygon fill="#7C5904" points="222.793,297.438 360.863,297.438 360.863,304.637 222.793,304.637 226.941,301.037 		"/>
	</g>
</g>
<g>
	<g>
		<polygon fill="#7C5904" points="217.402,332.465 79.332,332.465 79.332,325.266 217.402,325.266 221.55,328.865 		"/>
	</g>
	<g>
		<polygon fill="#7C5904" points="222.793,325.266 360.863,325.266 360.863,332.465 222.793,332.465 226.941,328.865 		"/>
	</g>
</g>
<g>
	<g>
		<polygon fill="#7C5904" points="217.402,360.292 79.332,360.292 79.332,353.093 217.402,353.093 221.55,356.692 		"/>
	</g>
	<g>
		<polygon fill="#7C5904" points="222.793,353.093 360.863,353.093 360.863,360.292 222.793,360.292 226.941,356.692 		"/>
	</g>
</g>
<g>
	<g>
		<polygon fill="#7C5904" points="265.398,318.552 175.717,318.552 179.867,314.952 175.717,311.352 265.398,311.352 
			269.549,314.952 		"/>
	</g>
	<g>
		<polygon fill="#7C5904" points="168.91,318.552 79.229,318.552 79.229,311.352 168.91,311.352 173.059,314.952 		"/>
	</g>
	<g>
		<polygon fill="#7C5904" points="271.143,311.352 360.824,311.352 360.824,318.552 271.143,318.552 275.291,314.952 		"/>
	</g>
</g>
<g>
	<g>
		<polygon fill="#7C5904" points="265.398,388.121 175.717,388.121 179.867,384.521 175.717,380.921 265.398,380.921 
			269.549,384.521 		"/>
	</g>
	<g>
		<polygon fill="#7C5904" points="168.91,388.121 79.229,388.121 79.229,380.921 168.91,380.921 173.059,384.521 		"/>
	</g>
	<g>
		<polygon fill="#7C5904" points="271.143,380.921 360.824,380.921 360.824,388.121 271.143,388.121 275.291,384.521 		"/>
	</g>
</g>
<g>
	<g>
		<polygon fill="#7C5904" points="265.398,457.69 175.717,457.69 179.867,454.09 175.717,450.49 265.398,450.49 269.549,454.09 		
			"/>
	</g>
	<g>
		<polygon fill="#7C5904" points="168.91,457.69 79.229,457.69 79.229,450.49 168.91,450.49 173.059,454.09 		"/>
	</g>
	<g>
		<polygon fill="#7C5904" points="271.143,450.49 360.824,450.49 360.824,457.69 271.143,457.69 275.291,454.09 		"/>
	</g>
</g>
<g>
	<rect x="79.229" y="339.179" fill="#7C5904" width="142.488" height="7.199"/>
</g>
<g>
	<g>
		<polygon fill="#7C5904" points="217.402,402.034 79.332,402.034 79.332,394.835 217.402,394.835 221.55,398.434 		"/>
	</g>
	<g>
		<polygon fill="#7C5904" points="222.793,394.835 360.863,394.835 360.863,402.034 222.793,402.034 226.941,398.434 		"/>
	</g>
</g>
<g>
	<g>
		<polygon fill="#7C5904" points="217.402,429.862 79.332,429.862 79.332,422.663 217.402,422.663 221.55,426.262 		"/>
	</g>
	<g>
		<polygon fill="#7C5904" points="222.793,422.663 360.863,422.663 360.863,429.862 222.793,429.862 226.941,426.262 		"/>
	</g>
</g>
<g>
	<g>
		<polygon fill="#7C5904" points="217.402,443.775 79.332,443.775 79.332,436.576 217.402,436.576 221.55,440.175 		"/>
	</g>
	<g>
		<polygon fill="#7C5904" points="222.793,436.576 360.863,436.576 360.863,443.775 222.793,443.775 226.941,440.175 		"/>
	</g>
</g>
<g>
	<rect x="79.229" y="408.749" fill="#7C5904" width="142.488" height="7.199"/>
</g>
<g>
	<polygon fill="#7C5904" points="217.402,471.603 79.332,471.603 79.332,464.404 217.402,464.404 221.55,468.003 	"/>
</g>
<g>
	<polygon fill="#7C5904" points="217.195,485.518 79.125,485.518 79.125,478.318 217.195,478.318 221.343,481.917 	"/>
</g>
<g>
	<polygon fill="#7C5904" points="222.793,464.404 360.863,464.404 360.863,471.603 222.793,471.603 226.941,468.003 	"/>
</g>
</svg>
