<?xml version="1.0" encoding="utf-8"?>
<!-- Generator: Adobe Illustrator 16.0.4, SVG Export Plug-In . SVG Version: 6.00 Build 0)  -->
<!DOCTYPE svg PUBLIC "-//W3C//DTD SVG 1.1//EN" "http://www.w3.org/Graphics/SVG/1.1/DTD/svg11.dtd">
<svg version="1.1" id="Layer_1" xmlns="http://www.w3.org/2000/svg" xmlns:xlink="http://www.w3.org/1999/xlink" x="0px" y="0px"
	 width="448.747px" height="616.44px" viewBox="0 0 448.747 616.44" enable-background="new 0 0 448.747 616.44"
	 xml:space="preserve">
<rect x="0.5" y="0.5" fill="#FFFFFF" stroke="#C68D06" stroke-miterlimit="10" width="447.747" height="615.44"/>
<g>
	<path fill="#C68D06" d="M348.446,577.639h4.865v-20.967c-1.26,0.665-3.29,1.189-4.796,1.189v-2.205
		c1.995-0.07,3.78-0.595,4.936-1.68h2.311v23.662h4.41v2.24h-11.726V577.639z"/>
	<path fill="#C68D06" d="M366.54,567.383c0-7.981,4.201-13.896,10.151-13.896c2.87,0,4.796,0.875,6.195,1.96l-1.295,1.891
		c-1.33-1.051-2.625-1.681-4.971-1.681c-4.725,0-7.631,5.041-7.665,11.481c1.645-1.785,4.095-3.466,7.386-3.466
		c5.46,0,8.086,3.396,8.086,8.086c0,4.9-3.466,8.611-8.682,8.611C370.636,580.37,366.54,576.274,366.54,567.383z M382.012,571.793
		c0-3.465-1.75-5.985-5.95-5.985c-2.87,0-5.426,1.61-7.001,3.815c0.525,6.021,3.36,8.61,6.791,8.61
		C379.562,578.234,382.012,575.889,382.012,571.793z"/>
	<path fill="#C68D06" d="M390.76,553.977h2.556l7.735,22.612h0.07l7.771-22.612h2.416l-9.102,26.008h-2.345L390.76,553.977z"/>
</g>
<g>
	<rect x="79.918" y="158.217" fill="#C0DDE7" width="281.739" height="7.199"/>
</g>
<g>
	<rect x="79.884" y="172.13" fill="#C0DDE7" width="281.738" height="7.199"/>
</g>
<g>
	<rect x="79.884" y="186.044" fill="#C0DDE7" width="281.739" height="7.2"/>
</g>
<g>
	<rect x="79.884" y="199.958" fill="#C0DDE7" width="281.739" height="7.199"/>
</g>
<g>
	<rect x="79.884" y="213.872" fill="#C0DDE7" width="281.739" height="7.199"/>
</g>
<g>
	<rect x="79.884" y="227.785" fill="#C0DDE7" width="281.739" height="7.2"/>
</g>
<g>
	<rect x="79.884" y="241.699" fill="#C0DDE7" width="281.738" height="7.199"/>
</g>
<g>
	<rect x="79.884" y="255.612" fill="#C0DDE7" width="281.738" height="7.2"/>
</g>
<g>
	<rect x="79.884" y="269.527" fill="#C0DDE7" width="281.739" height="7.199"/>
</g>
<g>
	<rect x="79.884" y="283.44" fill="#C0DDE7" width="281.738" height="7.2"/>
</g>
<g>
	<rect x="79.884" y="297.354" fill="#C0DDE7" width="281.739" height="7.2"/>
</g>
<g>
	<rect x="79.884" y="311.269" fill="#C0DDE7" width="281.739" height="7.2"/>
</g>
<g>
	<rect x="79.884" y="325.183" fill="#C0DDE7" width="281.739" height="7.199"/>
</g>
<g>
	<rect x="79.884" y="339.096" fill="#C0DDE7" width="281.738" height="7.2"/>
</g>
<g>
	<rect x="79.884" y="353.01" fill="#C0DDE7" width="281.739" height="7.2"/>
</g>
<g>
	<rect x="79.884" y="366.924" fill="#C0DDE7" width="281.739" height="7.2"/>
</g>
<g>
	<rect x="79.884" y="380.838" fill="#C0DDE7" width="281.739" height="7.199"/>
</g>
<g>
	<rect x="79.884" y="394.752" fill="#C0DDE7" width="281.739" height="7.199"/>
</g>
<g>
	<rect x="79.884" y="408.665" fill="#C0DDE7" width="281.738" height="7.199"/>
</g>
<g>
	<rect x="79.884" y="422.579" fill="#C0DDE7" width="281.739" height="7.2"/>
</g>
<g>
	<rect x="79.884" y="436.492" fill="#C0DDE7" width="281.738" height="7.2"/>
</g>
<g>
	<rect x="79.884" y="450.407" fill="#C0DDE7" width="281.739" height="7.199"/>
</g>
<g>
	<rect x="79.884" y="464.32" fill="#C0DDE7" width="281.738" height="7.199"/>
</g>
<g>
	<rect x="79.884" y="478.234" fill="#C0DDE7" width="281.739" height="7.2"/>
</g>
<g>
	<rect x="79.884" y="60.819" fill="#C0DDE7" width="281.739" height="7.2"/>
</g>
<g>
	<rect x="79.884" y="74.733" fill="#C0DDE7" width="281.738" height="7.2"/>
</g>
<g>
	<rect x="79.884" y="144.303" fill="#C0DDE7" width="281.738" height="7.199"/>
</g>
<g>
	<rect x="79.884" y="88.647" fill="#C0DDE7" width="281.739" height="7.199"/>
</g>
<g>
	<rect x="79.884" y="102.561" fill="#C0DDE7" width="281.738" height="7.2"/>
</g>
<g>
	<rect x="79.884" y="116.475" fill="#C0DDE7" width="281.738" height="7.199"/>
</g>
<g>
	<rect x="79.884" y="130.389" fill="#C0DDE7" width="281.738" height="7.199"/>
</g>
<g>
	<path fill="#C63706" d="M69.46,287.951c-0.451-0.123-0.876-0.305-1.274-0.545s-0.747-0.537-1.046-0.893
		c-0.299-0.354-0.536-0.764-0.712-1.23c-0.176-0.465-0.264-0.988-0.264-1.568c0-0.615,0.123-1.191,0.369-1.727
		c0.246-0.537,0.594-1.004,1.046-1.402c0.451-0.398,0.996-0.712,1.635-0.94s1.351-0.343,2.136-0.343h6.012v2.417h-1.239v14.089
		h-2.575v-14.089h-1.512v14.089H69.46V287.951z"/>
</g>
<g>
	<path fill="#398EB0" d="M69.46,398.951c-0.451-0.123-0.876-0.305-1.274-0.545s-0.747-0.537-1.046-0.893
		c-0.299-0.354-0.536-0.764-0.712-1.23c-0.176-0.465-0.264-0.988-0.264-1.568c0-0.615,0.123-1.191,0.369-1.727
		c0.246-0.537,0.594-1.004,1.046-1.402c0.451-0.398,0.996-0.712,1.635-0.94s1.351-0.343,2.136-0.343h6.012v2.417h-1.239v14.089
		h-2.575v-14.089h-1.512v14.089H69.46V398.951z"/>
</g>
<g>
	<path fill="#398EB0" d="M69.46,135.284c-0.451-0.123-0.876-0.305-1.274-0.545s-0.747-0.537-1.046-0.893
		c-0.299-0.354-0.536-0.764-0.712-1.23c-0.176-0.465-0.264-0.988-0.264-1.568c0-0.615,0.123-1.191,0.369-1.727
		c0.246-0.537,0.594-1.004,1.046-1.402c0.451-0.398,0.996-0.712,1.635-0.94s1.351-0.343,2.136-0.343h6.012v2.417h-1.239v14.089
		h-2.575v-14.089h-1.512v14.089H69.46V135.284z"/>
</g>
<g>
	<g>
		<polygon fill="#7C5904" points="218.092,81.93 80.021,81.93 80.021,74.731 218.092,74.731 222.24,78.331 		"/>
	</g>
	<g>
		<polygon fill="#7C5904" points="223.482,74.731 361.553,74.731 361.553,81.93 223.482,81.93 227.63,78.331 		"/>
	</g>
</g>
<g>
	<g>
		<polygon fill="#7C5904" points="218.092,95.843 80.021,95.843 80.021,88.644 218.092,88.644 222.24,92.244 		"/>
	</g>
	<g>
		<polygon fill="#7C5904" points="223.482,88.644 361.553,88.644 361.553,95.843 223.482,95.843 227.63,92.244 		"/>
	</g>
</g>
<g>
	<g>
		<polygon fill="#7C5904" points="218.092,109.758 80.021,109.758 80.021,102.559 218.092,102.559 222.24,106.158 		"/>
	</g>
	<g>
		<polygon fill="#7C5904" points="223.482,102.559 361.553,102.559 361.553,109.758 223.482,109.758 227.63,106.158 		"/>
	</g>
</g>
<g>
	<g>
		<polygon fill="#7C5904" points="218.092,123.671 80.021,123.671 80.021,116.471 218.092,116.471 222.24,120.071 		"/>
	</g>
	<g>
		<polygon fill="#7C5904" points="223.482,116.471 361.553,116.471 361.553,123.671 223.482,123.671 227.63,120.071 		"/>
	</g>
</g>
<g>
	<g>
		<polygon fill="#7C5904" points="218.092,137.585 80.021,137.585 80.021,130.385 218.092,130.385 222.24,133.985 		"/>
	</g>
	<g>
		<polygon fill="#7C5904" points="223.482,130.385 361.553,130.385 361.553,137.585 223.482,137.585 227.63,133.985 		"/>
	</g>
</g>
<g>
	<g>
		<polygon fill="#7C5904" points="218.092,179.329 80.021,179.329 80.021,172.13 218.092,172.13 222.24,175.729 		"/>
	</g>
	<g>
		<polygon fill="#7C5904" points="223.482,172.13 361.553,172.13 361.553,179.329 223.482,179.329 227.63,175.729 		"/>
	</g>
</g>
<g>
	<g>
		<polygon fill="#7C5904" points="218.092,193.243 80.021,193.243 80.021,186.044 218.092,186.044 222.24,189.644 		"/>
	</g>
	<g>
		<polygon fill="#7C5904" points="223.482,186.044 361.553,186.044 361.553,193.243 223.482,193.243 227.63,189.644 		"/>
	</g>
</g>
<g>
	<g>
		<polygon fill="#7C5904" points="218.092,262.812 80.021,262.812 80.021,255.612 218.092,255.612 222.24,259.212 		"/>
	</g>
	<g>
		<polygon fill="#7C5904" points="223.482,255.612 361.553,255.612 361.553,262.812 223.482,262.812 227.63,259.212 		"/>
	</g>
</g>
<g>
	<g>
		<polygon fill="#7C5904" points="218.092,207.156 80.021,207.156 80.021,199.957 218.092,199.957 222.24,203.557 		"/>
	</g>
	<g>
		<polygon fill="#7C5904" points="223.482,199.957 361.553,199.957 361.553,207.156 223.482,207.156 227.63,203.557 		"/>
	</g>
</g>
<g>
	<g>
		<polygon fill="#7C5904" points="218.092,221.071 80.021,221.071 80.021,213.872 218.092,213.872 222.24,217.471 		"/>
	</g>
	<g>
		<polygon fill="#7C5904" points="223.482,213.872 361.553,213.872 361.553,221.071 223.482,221.071 227.63,217.471 		"/>
	</g>
</g>
<g>
	<g>
		<polygon fill="#7C5904" points="218.092,234.984 80.021,234.984 80.021,227.784 218.092,227.784 222.24,231.384 		"/>
	</g>
	<g>
		<polygon fill="#7C5904" points="223.482,227.784 361.553,227.784 361.553,234.984 223.482,234.984 227.63,231.384 		"/>
	</g>
</g>
<g>
	<g>
		<polygon fill="#7C5904" points="218.092,248.898 80.021,248.898 80.021,241.698 218.092,241.698 222.24,245.298 		"/>
	</g>
	<g>
		<polygon fill="#7C5904" points="223.482,241.698 361.553,241.698 361.553,248.898 223.482,248.898 227.63,245.298 		"/>
	</g>
</g>
<g>
	<g>
		<polygon fill="#7C5904" points="218.092,290.641 80.021,290.641 80.021,283.441 218.092,283.441 222.24,287.041 		"/>
	</g>
	<g>
		<polygon fill="#7C5904" points="223.482,283.441 361.553,283.441 361.553,290.641 223.482,290.641 227.63,287.041 		"/>
	</g>
</g>
<g>
	<g>
		<polygon fill="#7C5904" points="218.092,360.209 80.021,360.209 80.021,353.01 218.092,353.01 222.24,356.609 		"/>
	</g>
	<g>
		<polygon fill="#7C5904" points="223.482,353.01 361.553,353.01 361.553,360.209 223.482,360.209 227.63,356.609 		"/>
	</g>
</g>
<g>
	<g>
		<polygon fill="#7C5904" points="218.092,304.554 80.021,304.554 80.021,297.354 218.092,297.354 222.24,300.954 		"/>
	</g>
	<g>
		<polygon fill="#7C5904" points="223.482,297.354 361.553,297.354 361.553,304.554 223.482,304.554 227.63,300.954 		"/>
	</g>
</g>
<g>
	<g>
		<polygon fill="#7C5904" points="218.092,318.469 80.021,318.469 80.021,311.27 218.092,311.27 222.24,314.868 		"/>
	</g>
	<g>
		<polygon fill="#7C5904" points="223.482,311.27 361.553,311.27 361.553,318.469 223.482,318.469 227.63,314.868 		"/>
	</g>
</g>
<g>
	<g>
		<polygon fill="#7C5904" points="218.092,332.382 80.021,332.382 80.021,325.182 218.092,325.182 222.24,328.781 		"/>
	</g>
	<g>
		<polygon fill="#7C5904" points="223.482,325.182 361.553,325.182 361.553,332.382 223.482,332.382 227.63,328.781 		"/>
	</g>
</g>
<g>
	<g>
		<polygon fill="#7C5904" points="218.092,346.296 80.021,346.296 80.021,339.096 218.092,339.096 222.24,342.695 		"/>
	</g>
	<g>
		<polygon fill="#7C5904" points="223.482,339.096 361.553,339.096 361.553,346.296 223.482,346.296 227.63,342.695 		"/>
	</g>
</g>
<g>
	<g>
		<polygon fill="#7C5904" points="218.092,374.123 80.021,374.123 80.021,366.924 218.092,366.924 222.24,370.523 		"/>
	</g>
	<g>
		<polygon fill="#7C5904" points="223.482,366.924 361.553,366.924 361.553,374.123 223.482,374.123 227.63,370.523 		"/>
	</g>
</g>
<g>
	<g>
		<polygon fill="#7C5904" points="218.092,457.605 80.021,457.605 80.021,450.406 218.092,450.406 222.24,454.006 		"/>
	</g>
	<g>
		<polygon fill="#7C5904" points="223.482,450.406 361.553,450.406 361.553,457.605 223.482,457.605 227.63,454.006 		"/>
	</g>
</g>
<g>
	<g>
		<polygon fill="#7C5904" points="218.092,471.52 80.021,471.52 80.021,464.32 218.092,464.32 222.24,467.92 		"/>
	</g>
	<g>
		<polygon fill="#7C5904" points="223.482,464.32 361.553,464.32 361.553,471.52 223.482,471.52 227.63,467.92 		"/>
	</g>
</g>
<g>
	<g>
		<polygon fill="#7C5904" points="218.092,401.95 80.021,401.95 80.021,394.751 218.092,394.751 222.24,398.351 		"/>
	</g>
	<g>
		<polygon fill="#7C5904" points="223.482,394.751 361.553,394.751 361.553,401.95 223.482,401.95 227.63,398.351 		"/>
	</g>
</g>
<g>
	<g>
		<polygon fill="#7C5904" points="218.092,415.865 80.021,415.865 80.021,408.666 218.092,408.666 222.24,412.265 		"/>
	</g>
	<g>
		<polygon fill="#7C5904" points="223.482,408.666 361.553,408.666 361.553,415.865 223.482,415.865 227.63,412.265 		"/>
	</g>
</g>
<g>
	<g>
		<polygon fill="#7C5904" points="218.092,429.778 80.021,429.778 80.021,422.578 218.092,422.578 222.24,426.178 		"/>
	</g>
	<g>
		<polygon fill="#7C5904" points="223.482,422.578 361.553,422.578 361.553,429.778 223.482,429.778 227.63,426.178 		"/>
	</g>
</g>
<g>
	<g>
		<polygon fill="#7C5904" points="218.092,443.692 80.021,443.692 80.021,436.492 218.092,436.492 222.24,440.092 		"/>
	</g>
	<g>
		<polygon fill="#7C5904" points="223.482,436.492 361.553,436.492 361.553,443.692 223.482,443.692 227.63,440.092 		"/>
	</g>
</g>
<g>
	<path fill="#398EB0" d="M69.357,179.172v-2.92c-0.464,0.816-0.917,1.415-1.359,1.797s-0.941,0.688-1.5,0.921
		c-0.558,0.232-1.304,0.345-2.24,0.337c-0.464-0.008-0.928-0.062-1.393-0.163c-0.464-0.101-0.914-0.243-1.348-0.427
		s-0.859-0.404-1.274-0.662c-0.416-0.259-0.792-0.557-1.129-0.893c-0.831-0.839-1.477-1.811-1.938-2.915
		c-0.46-1.104-0.69-2.308-0.69-3.61c0-0.801,0.097-1.576,0.292-2.324c0.195-0.749,0.468-1.449,0.82-2.101s0.777-1.245,1.275-1.78
		c0.498-0.535,1.052-0.994,1.662-1.375c0.61-0.383,1.267-0.678,1.971-0.888s1.441-0.314,2.212-0.314
		c0.883,0,1.651,0.118,2.302,0.354c0.651,0.236,1.352,0.676,2.1,1.319h2.516v3.797h-3.47c-0.344-0.532-0.668-0.918-0.972-1.157
		c-0.303-0.239-0.632-0.438-0.988-0.595c-0.355-0.158-0.852-0.236-1.488-0.236c-0.629,0-1.213,0.143-1.752,0.427
		s-1.006,0.668-1.398,1.151c-0.394,0.482-0.702,1.052-0.927,1.707s-0.337,1.327-0.337,2.016c0,0.682,0.101,1.329,0.303,1.943
		c0.202,0.613,0.509,1.166,0.921,1.656s0.891,0.866,1.438,1.129c0.546,0.262,1.13,0.393,1.752,0.393
		c0.793,0,1.486-0.232,2.078-0.696s1.018-1.097,1.28-1.897h-3.246v-3.078h7.884v9.086H69.357z"/>
</g>
<g>
	<rect x="79.884" y="144.303" fill="#7C5904" width="142.488" height="7.199"/>
</g>
<g>
	<rect x="79.884" y="269.527" fill="#7C5904" width="142.488" height="7.199"/>
</g>
<g>
	<rect x="79.884" y="380.838" fill="#7C5904" width="142.488" height="7.199"/>
</g>
<g>
	<g>
		<polygon fill="#7C5904" points="223.344,60.82 361.415,60.82 361.415,68.02 223.344,68.02 227.492,64.419 		"/>
	</g>
	<g>
		<polygon fill="#7C5904" points="222.102,64.419 217.954,60.821 217.954,60.82 217.954,60.82 79.883,60.82 84.032,64.419 
			79.883,68.02 217.954,68.02 217.954,68.02 217.954,68.019 		"/>
	</g>
</g>
<g>
	<g>
		<polygon fill="#7C5904" points="217.954,306.184 79.883,306.184 79.883,298.985 217.954,298.985 222.102,302.584 		"/>
	</g>
	<g>
		<polygon fill="#7C5904" points="223.344,298.985 227.493,302.584 223.344,306.184 357.266,306.184 361.415,302.584 
			357.266,298.985 		"/>
	</g>
</g>
<g>
	<g>
		<polygon fill="#7C5904" points="217.954,485.435 79.883,485.435 79.883,478.235 217.954,478.235 222.102,481.835 		"/>
	</g>
	<g>
		<polygon fill="#7C5904" points="223.344,478.235 227.493,481.835 223.344,485.435 357.266,485.435 361.415,481.835 
			357.266,478.235 		"/>
	</g>
</g>
</svg>
