<?xml version="1.0" encoding="utf-8"?>
<!-- Generator: Adobe Illustrator 16.0.4, SVG Export Plug-In . SVG Version: 6.00 Build 0)  -->
<!DOCTYPE svg PUBLIC "-//W3C//DTD SVG 1.1//EN" "http://www.w3.org/Graphics/SVG/1.1/DTD/svg11.dtd">
<svg version="1.1" id="Layer_1" xmlns="http://www.w3.org/2000/svg" xmlns:xlink="http://www.w3.org/1999/xlink" x="0px" y="0px"
	 width="448.746px" height="616.44px" viewBox="0 0 448.746 616.44" enable-background="new 0 0 448.746 616.44"
	 xml:space="preserve">
<rect x="0.5" y="0.5" fill="#FFFFFF" stroke="#C68D06" stroke-miterlimit="10" width="447.746" height="615.44"/>
<g>
	<path fill="#C68D06" d="M344.827,579.894h4.865v-20.967c-1.26,0.665-3.29,1.189-4.796,1.189v-2.205
		c1.995-0.07,3.78-0.595,4.936-1.68h2.311v23.662h4.41v2.24h-11.726V579.894z"/>
	<path fill="#C68D06" d="M362.921,569.638c0-7.981,4.201-13.896,10.151-13.896c2.87,0,4.796,0.875,6.195,1.96l-1.295,1.891
		c-1.33-1.051-2.625-1.681-4.971-1.681c-4.726,0-7.631,5.041-7.665,11.481c1.645-1.785,4.095-3.466,7.386-3.466
		c5.46,0,8.086,3.396,8.086,8.086c0,4.9-3.466,8.611-8.682,8.611C367.017,582.625,362.921,578.529,362.921,569.638z
		 M378.393,574.048c0-3.465-1.75-5.985-5.95-5.985c-2.87,0-5.426,1.61-7.001,3.815c0.525,6.021,3.36,8.61,6.791,8.61
		C375.943,580.489,378.393,578.144,378.393,574.048z"/>
	<path fill="#C68D06" d="M389.207,556.232h8.681c5.776,0,8.996,2.45,8.996,7c0,4.201-2.45,6.301-6.195,7.001l6.546,11.901h-2.801
		l-6.336-11.621h-6.44v11.621h-2.45V556.232z M397.712,568.308c4.271,0,6.686-1.226,6.686-4.971c0-3.57-2.38-4.831-6.721-4.831
		h-6.021v9.802H397.712z"/>
</g>
<g>
	<rect x="80.049" y="157.967" fill="#C0DDE7" width="281.738" height="7.199"/>
</g>
<g>
	<rect x="80.049" y="171.88" fill="#C0DDE7" width="281.738" height="7.199"/>
</g>
<g>
	<rect x="80.049" y="185.794" fill="#C0DDE7" width="281.738" height="7.2"/>
</g>
<g>
	<rect x="80.049" y="199.708" fill="#C0DDE7" width="281.738" height="7.199"/>
</g>
<g>
	<rect x="80.049" y="213.622" fill="#C0DDE7" width="281.738" height="7.199"/>
</g>
<g>
	<rect x="80.049" y="227.535" fill="#C0DDE7" width="281.738" height="7.2"/>
</g>
<g>
	<rect x="80.049" y="241.45" fill="#C0DDE7" width="281.738" height="7.199"/>
</g>
<g>
	<rect x="80.049" y="255.363" fill="#C0DDE7" width="281.738" height="7.2"/>
</g>
<g>
	<rect x="80.049" y="269.277" fill="#C0DDE7" width="281.738" height="7.199"/>
</g>
<g>
	<rect x="80.049" y="283.191" fill="#C0DDE7" width="281.738" height="7.2"/>
</g>
<g>
	<rect x="80.049" y="297.104" fill="#C0DDE7" width="281.738" height="7.2"/>
</g>
<g>
	<rect x="80.049" y="311.019" fill="#C0DDE7" width="281.738" height="7.2"/>
</g>
<g>
	<rect x="80.049" y="324.933" fill="#C0DDE7" width="281.738" height="7.199"/>
</g>
<g>
	<rect x="80.049" y="338.846" fill="#C0DDE7" width="281.738" height="7.2"/>
</g>
<g>
	<rect x="80.049" y="352.76" fill="#C0DDE7" width="281.738" height="7.2"/>
</g>
<g>
	<rect x="80.049" y="366.674" fill="#C0DDE7" width="281.738" height="7.2"/>
</g>
<g>
	<rect x="80.049" y="380.588" fill="#C0DDE7" width="281.738" height="7.199"/>
</g>
<g>
	<rect x="80.049" y="394.502" fill="#C0DDE7" width="281.738" height="7.199"/>
</g>
<g>
	<rect x="80.049" y="408.416" fill="#C0DDE7" width="281.738" height="7.199"/>
</g>
<g>
	<rect x="80.049" y="422.329" fill="#C0DDE7" width="281.738" height="7.2"/>
</g>
<g>
	<rect x="80.049" y="436.243" fill="#C0DDE7" width="281.738" height="7.2"/>
</g>
<g>
	<rect x="80.049" y="450.157" fill="#C0DDE7" width="281.738" height="7.199"/>
</g>
<g>
	<rect x="80.049" y="464.071" fill="#C0DDE7" width="281.738" height="7.199"/>
</g>
<g>
	<rect x="80.049" y="477.984" fill="#C0DDE7" width="281.738" height="7.2"/>
</g>
<g>
	<rect x="80.049" y="60.569" fill="#C0DDE7" width="281.738" height="7.2"/>
</g>
<g>
	<rect x="80.049" y="74.483" fill="#C0DDE7" width="281.738" height="7.2"/>
</g>
<g>
	<rect x="80.049" y="144.053" fill="#C0DDE7" width="281.738" height="7.199"/>
</g>
<g>
	<rect x="80.049" y="88.397" fill="#C0DDE7" width="281.738" height="7.199"/>
</g>
<g>
	<rect x="80.049" y="102.311" fill="#C0DDE7" width="281.738" height="7.2"/>
</g>
<g>
	<rect x="80.049" y="116.225" fill="#C0DDE7" width="281.738" height="7.199"/>
</g>
<g>
	<rect x="80.049" y="130.139" fill="#C0DDE7" width="281.738" height="7.199"/>
</g>
<g>
	<g>
		<polygon fill="#7C5904" points="218.223,81.684 80.153,81.684 80.153,74.484 218.223,74.484 222.372,78.084 		"/>
	</g>
	<g>
		<polygon fill="#7C5904" points="223.614,74.484 361.684,74.484 361.684,81.684 223.614,81.684 227.762,78.084 		"/>
	</g>
</g>
<g>
	<g>
		<polygon fill="#7C5904" points="218.223,151.252 80.153,151.252 80.153,144.053 218.223,144.053 222.372,147.652 		"/>
	</g>
	<g>
		<polygon fill="#7C5904" points="223.614,144.053 361.684,144.053 361.684,151.252 223.614,151.252 227.762,147.652 		"/>
	</g>
</g>
<g>
	<g>
		<polygon fill="#7C5904" points="218.223,95.597 80.153,95.597 80.153,88.397 218.223,88.397 222.372,91.997 		"/>
	</g>
	<g>
		<polygon fill="#7C5904" points="223.614,88.397 361.684,88.397 361.684,95.597 223.614,95.597 227.762,91.997 		"/>
	</g>
</g>
<g>
	<g>
		<polygon fill="#7C5904" points="218.223,123.424 80.153,123.424 80.153,116.224 218.223,116.224 222.372,119.824 		"/>
	</g>
	<g>
		<polygon fill="#7C5904" points="223.614,116.224 361.684,116.224 361.684,123.424 223.614,123.424 227.762,119.824 		"/>
	</g>
</g>
<g>
	<g>
		<polygon fill="#7C5904" points="218.223,137.338 80.153,137.338 80.153,130.138 218.223,130.138 222.372,133.738 		"/>
	</g>
	<g>
		<polygon fill="#7C5904" points="223.614,130.138 361.684,130.138 361.684,137.338 223.614,137.338 227.762,133.738 		"/>
	</g>
</g>
<g>
	<g>
		<polygon fill="#7C5904" points="218.223,179.08 80.153,179.08 80.153,171.88 218.223,171.88 222.372,175.48 		"/>
	</g>
	<g>
		<polygon fill="#7C5904" points="223.614,171.88 361.684,171.88 361.684,179.08 223.614,179.08 227.762,175.48 		"/>
	</g>
</g>
<g>
	<g>
		<polygon fill="#7C5904" points="218.223,165.166 80.153,165.166 80.153,157.967 218.223,157.967 222.372,161.566 		"/>
	</g>
	<g>
		<polygon fill="#7C5904" points="223.614,157.967 361.684,157.967 361.684,165.166 223.614,165.166 227.762,161.566 		"/>
	</g>
</g>
<g>
	<g>
		<polygon fill="#7C5904" points="218.223,192.993 80.153,192.993 80.153,185.794 218.223,185.794 222.372,189.394 		"/>
	</g>
	<g>
		<polygon fill="#7C5904" points="223.614,185.794 361.684,185.794 361.684,192.993 223.614,192.993 227.762,189.394 		"/>
	</g>
</g>
<g>
	<g>
		<polygon fill="#7C5904" points="218.223,262.562 80.153,262.562 80.153,255.363 218.223,255.363 222.372,258.962 		"/>
	</g>
	<g>
		<polygon fill="#7C5904" points="223.614,255.363 361.684,255.363 361.684,262.562 223.614,262.562 227.762,258.962 		"/>
	</g>
</g>
<g>
	<g>
		<polygon fill="#7C5904" points="218.223,206.907 80.153,206.907 80.153,199.708 218.223,199.708 222.372,203.308 		"/>
	</g>
	<g>
		<polygon fill="#7C5904" points="223.614,199.708 361.684,199.708 361.684,206.907 223.614,206.907 227.762,203.308 		"/>
	</g>
</g>
<g>
	<g>
		<polygon fill="#7C5904" points="218.223,234.735 80.153,234.735 80.153,227.535 218.223,227.535 222.372,231.135 		"/>
	</g>
	<g>
		<polygon fill="#7C5904" points="223.614,227.535 361.684,227.535 361.684,234.735 223.614,234.735 227.762,231.135 		"/>
	</g>
</g>
<g>
	<g>
		<polygon fill="#7C5904" points="218.223,248.65 80.153,248.65 80.153,241.45 218.223,241.45 222.372,245.049 		"/>
	</g>
	<g>
		<polygon fill="#7C5904" points="223.614,241.45 361.684,241.45 361.684,248.65 223.614,248.65 227.762,245.049 		"/>
	</g>
</g>
<g>
	<g>
		<polygon fill="#7C5904" points="218.223,290.542 80.153,290.542 80.153,283.343 218.223,283.343 222.372,286.943 		"/>
	</g>
	<g>
		<polygon fill="#7C5904" points="223.614,283.343 361.684,283.343 361.684,290.542 223.614,290.542 227.762,286.943 		"/>
	</g>
</g>
<g>
	<g>
		<polygon fill="#7C5904" points="218.223,276.477 80.153,276.477 80.153,269.277 218.223,269.277 222.372,272.877 		"/>
	</g>
	<g>
		<polygon fill="#7C5904" points="223.614,269.277 361.684,269.277 361.684,276.477 223.614,276.477 227.762,272.877 		"/>
	</g>
</g>
<g>
	<g>
		<polygon fill="#7C5904" points="218.223,304.477 80.153,304.477 80.153,297.278 218.223,297.278 222.372,300.877 		"/>
	</g>
	<g>
		<polygon fill="#7C5904" points="223.614,297.278 361.684,297.278 361.684,304.477 223.614,304.477 227.762,300.877 		"/>
	</g>
</g>
<g>
	<g>
		<polygon fill="#7C5904" points="218.223,374.147 80.153,374.147 80.153,366.948 218.223,366.948 222.372,370.548 		"/>
	</g>
	<g>
		<polygon fill="#7C5904" points="223.614,366.948 361.684,366.948 361.684,374.147 223.614,374.147 227.762,370.548 		"/>
	</g>
</g>
<g>
	<g>
		<polygon fill="#7C5904" points="218.223,318.411 80.153,318.411 80.153,311.212 218.223,311.212 222.372,314.812 		"/>
	</g>
	<g>
		<polygon fill="#7C5904" points="223.614,311.212 361.684,311.212 361.684,318.411 223.614,318.411 227.762,314.812 		"/>
	</g>
</g>
<g>
	<g>
		<polygon fill="#7C5904" points="218.223,346.28 80.153,346.28 80.153,339.08 218.223,339.08 222.372,342.679 		"/>
	</g>
	<g>
		<polygon fill="#7C5904" points="223.614,339.08 361.684,339.08 361.684,346.28 223.614,346.28 227.762,342.679 		"/>
	</g>
</g>
<g>
	<g>
		<polygon fill="#7C5904" points="218.223,360.214 80.153,360.214 80.153,353.014 218.223,353.014 222.372,356.613 		"/>
	</g>
	<g>
		<polygon fill="#7C5904" points="223.614,353.014 361.684,353.014 361.684,360.214 223.614,360.214 227.762,356.613 		"/>
	</g>
</g>
<g>
	<g>
		<polygon fill="#7C5904" points="218.223,401.542 80.153,401.542 80.153,394.343 218.223,394.343 222.372,397.943 		"/>
	</g>
	<g>
		<polygon fill="#7C5904" points="223.614,394.343 361.684,394.343 361.684,401.542 223.614,401.542 227.762,397.943 		"/>
	</g>
</g>
<g>
	<g>
		<polygon fill="#7C5904" points="218.223,387.787 80.153,387.787 80.153,380.588 218.223,380.588 222.372,384.188 		"/>
	</g>
	<g>
		<polygon fill="#7C5904" points="223.614,380.588 361.684,380.588 361.684,387.787 223.614,387.787 227.762,384.188 		"/>
	</g>
</g>
<g>
	<g>
		<polygon fill="#7C5904" points="218.223,415.477 80.153,415.477 80.153,408.278 218.223,408.278 222.372,411.877 		"/>
	</g>
	<g>
		<polygon fill="#7C5904" points="223.614,408.278 361.684,408.278 361.684,415.477 223.614,415.477 227.762,411.877 		"/>
	</g>
</g>
<g>
	<g>
		<polygon fill="#7C5904" points="218.223,429.411 80.153,429.411 80.153,422.212 218.223,422.212 222.372,425.812 		"/>
	</g>
	<g>
		<polygon fill="#7C5904" points="223.614,422.212 361.684,422.212 361.684,429.411 223.614,429.411 227.762,425.812 		"/>
	</g>
</g>
<g>
	<g>
		<polygon fill="#7C5904" points="218.223,457.28 80.153,457.28 80.153,450.08 218.223,450.08 222.372,453.679 		"/>
	</g>
	<g>
		<polygon fill="#7C5904" points="223.614,450.08 361.684,450.08 361.684,457.28 223.614,457.28 227.762,453.679 		"/>
	</g>
</g>
<g>
	<g>
		<polygon fill="#7C5904" points="218.223,471.214 80.153,471.214 80.153,464.014 218.223,464.014 222.372,467.613 		"/>
	</g>
	<g>
		<polygon fill="#7C5904" points="223.614,464.014 361.684,464.014 361.684,471.214 223.614,471.214 227.762,467.613 		"/>
	</g>
</g>
<g>
	<path fill="#C63706" d="M70.603,120.719c-0.451-0.123-0.876-0.305-1.274-0.545s-0.747-0.537-1.046-0.893
		c-0.299-0.354-0.536-0.764-0.712-1.23c-0.176-0.465-0.264-0.988-0.264-1.568c0-0.615,0.123-1.191,0.369-1.727
		c0.246-0.537,0.595-1.004,1.046-1.402s0.996-0.712,1.635-0.94s1.351-0.343,2.136-0.343h6.012v2.417h-1.239v14.089H74.69v-14.089
		h-1.512v14.089h-2.575V120.719z"/>
</g>
<g>
	<path fill="#398EB0" d="M70.603,231.719c-0.451-0.123-0.876-0.305-1.274-0.545s-0.747-0.537-1.046-0.893
		c-0.299-0.354-0.536-0.764-0.712-1.23c-0.176-0.465-0.264-0.988-0.264-1.568c0-0.615,0.123-1.191,0.369-1.727
		c0.246-0.537,0.595-1.004,1.046-1.402s0.996-0.712,1.635-0.94s1.351-0.343,2.136-0.343h6.012v2.417h-1.239v14.089H74.69v-14.089
		h-1.512v14.089h-2.575V231.719z"/>
</g>
<g>
	<path fill="#C63706" d="M70.603,343.719c-0.451-0.123-0.876-0.305-1.274-0.545s-0.747-0.537-1.046-0.893
		c-0.299-0.354-0.536-0.764-0.712-1.23c-0.176-0.465-0.264-0.988-0.264-1.568c0-0.615,0.123-1.191,0.369-1.727
		c0.246-0.537,0.595-1.004,1.046-1.402s0.996-0.712,1.635-0.94s1.351-0.343,2.136-0.343h6.012v2.417h-1.239v14.089H74.69v-14.089
		h-1.512v14.089h-2.575V343.719z"/>
</g>
<g>
	<path fill="#398EB0" d="M70.603,455.385c-0.451-0.123-0.876-0.305-1.274-0.545s-0.747-0.537-1.046-0.893
		c-0.299-0.354-0.536-0.764-0.712-1.23c-0.176-0.465-0.264-0.988-0.264-1.568c0-0.615,0.123-1.191,0.369-1.727
		c0.246-0.537,0.595-1.004,1.046-1.402s0.996-0.712,1.635-0.94s1.351-0.343,2.136-0.343h6.012v2.417h-1.239v14.089H74.69v-14.089
		h-1.512v14.089h-2.575V455.385z"/>
</g>
<g>
	<rect x="80.049" y="102.311" fill="#7C5904" width="142.488" height="7.199"/>
</g>
<g>
	<rect x="80.049" y="213.622" fill="#7C5904" width="142.488" height="7.199"/>
</g>
<g>
	<rect x="80.049" y="324.933" fill="#7C5904" width="142.488" height="7.199"/>
</g>
<g>
	<rect x="80.049" y="436.244" fill="#7C5904" width="142.488" height="7.199"/>
</g>
<g>
	<g>
		<polygon fill="#7C5904" points="223.717,60.569 361.788,60.569 361.788,67.769 223.717,67.769 227.864,64.168 		"/>
	</g>
	<g>
		<polygon fill="#7C5904" points="222.475,64.168 218.327,60.57 218.327,60.569 218.326,60.569 80.256,60.569 84.404,64.168 
			80.256,67.769 218.326,67.769 218.327,67.769 218.327,67.768 		"/>
	</g>
</g>
<g>
	<g>
		<polygon fill="#7C5904" points="218.327,485.185 80.256,485.185 80.256,477.985 218.327,477.985 222.475,481.585 		"/>
	</g>
	<g>
		<polygon fill="#7C5904" points="223.717,477.985 227.866,481.585 223.717,485.185 357.639,485.185 361.788,481.585 
			357.639,477.985 		"/>
	</g>
</g>
</svg>
