<?xml version="1.0" encoding="utf-8"?>
<!-- Generator: Adobe Illustrator 16.0.4, SVG Export Plug-In . SVG Version: 6.00 Build 0)  -->
<!DOCTYPE svg PUBLIC "-//W3C//DTD SVG 1.1//EN" "http://www.w3.org/Graphics/SVG/1.1/DTD/svg11.dtd">
<svg version="1.1" id="Layer_1" xmlns="http://www.w3.org/2000/svg" xmlns:xlink="http://www.w3.org/1999/xlink" x="0px" y="0px"
	 width="448.747px" height="616.439px" viewBox="0 0 448.747 616.439" enable-background="new 0 0 448.747 616.439"
	 xml:space="preserve">
<rect x="0.5" y="0.5" fill="#FFFFFF" stroke="#C68D06" stroke-miterlimit="10" width="447.747" height="615.439"/>
<g>
	<path fill="#C68D06" d="M348.814,579.894h4.865v-20.967c-1.26,0.665-3.29,1.189-4.796,1.189v-2.205
		c1.995-0.07,3.78-0.595,4.936-1.68h2.311v23.663h4.41v2.24h-11.726V579.894z"/>
	<path fill="#C68D06" d="M379.722,558.505h-13.337v-2.274h15.927v2.135l-10.956,23.768H368.8L379.722,558.505z"/>
	<path fill="#C68D06" d="M388.609,556.231h2.556l7.735,22.612h0.07l7.771-22.612h2.416l-9.102,26.008h-2.345L388.609,556.231z"/>
</g>
<g>
	<rect x="80.216" y="157.966" fill="#C0DDE7" width="281.738" height="7.199"/>
</g>
<g>
	<rect x="80.216" y="171.879" fill="#C0DDE7" width="281.738" height="7.2"/>
</g>
<g>
	<rect x="80.216" y="185.793" fill="#C0DDE7" width="281.738" height="7.2"/>
</g>
<g>
	<rect x="80.216" y="199.708" fill="#C0DDE7" width="281.738" height="7.199"/>
</g>
<g>
	<rect x="80.216" y="213.622" fill="#C0DDE7" width="281.738" height="7.199"/>
</g>
<g>
	<rect x="80.216" y="227.535" fill="#C0DDE7" width="281.738" height="7.199"/>
</g>
<g>
	<rect x="80.216" y="241.449" fill="#C0DDE7" width="281.738" height="7.199"/>
</g>
<g>
	<rect x="80.216" y="255.362" fill="#C0DDE7" width="281.738" height="7.2"/>
</g>
<g>
	<rect x="80.216" y="269.276" fill="#C0DDE7" width="281.738" height="7.199"/>
</g>
<g>
	<rect x="80.216" y="283.19" fill="#C0DDE7" width="281.738" height="7.2"/>
</g>
<g>
	<rect x="80.216" y="297.104" fill="#C0DDE7" width="281.738" height="7.2"/>
</g>
<g>
	<rect x="80.216" y="311.018" fill="#C0DDE7" width="281.738" height="7.2"/>
</g>
<g>
	<rect x="80.216" y="324.932" fill="#C0DDE7" width="281.738" height="7.199"/>
</g>
<g>
	<rect x="80.216" y="338.845" fill="#C0DDE7" width="281.738" height="7.2"/>
</g>
<g>
	<rect x="80.216" y="352.759" fill="#C0DDE7" width="281.738" height="7.201"/>
</g>
<g>
	<rect x="80.216" y="366.673" fill="#C0DDE7" width="281.738" height="7.2"/>
</g>
<g>
	<rect x="80.216" y="380.587" fill="#C0DDE7" width="281.738" height="7.199"/>
</g>
<g>
	<rect x="80.216" y="394.501" fill="#C0DDE7" width="281.738" height="7.199"/>
</g>
<g>
	<rect x="80.216" y="408.415" fill="#C0DDE7" width="281.738" height="7.199"/>
</g>
<g>
	<rect x="80.216" y="422.328" fill="#C0DDE7" width="281.738" height="7.2"/>
</g>
<g>
	<rect x="80.216" y="436.242" fill="#C0DDE7" width="281.738" height="7.201"/>
</g>
<g>
	<rect x="80.216" y="450.156" fill="#C0DDE7" width="281.738" height="7.2"/>
</g>
<g>
	<rect x="80.216" y="464.07" fill="#C0DDE7" width="281.738" height="7.199"/>
</g>
<g>
	<rect x="80.216" y="477.983" fill="#C0DDE7" width="281.738" height="7.201"/>
</g>
<g>
	<rect x="80.216" y="60.568" fill="#C0DDE7" width="281.738" height="7.2"/>
</g>
<g>
	<rect x="80.216" y="74.482" fill="#C0DDE7" width="281.738" height="7.201"/>
</g>
<g>
	<rect x="80.216" y="144.052" fill="#C0DDE7" width="281.738" height="7.2"/>
</g>
<g>
	<rect x="80.216" y="88.396" fill="#C0DDE7" width="281.738" height="7.199"/>
</g>
<g>
	<rect x="80.216" y="102.31" fill="#C0DDE7" width="281.738" height="7.201"/>
</g>
<g>
	<rect x="80.216" y="116.224" fill="#C0DDE7" width="281.738" height="7.199"/>
</g>
<g>
	<rect x="80.216" y="130.139" fill="#C0DDE7" width="281.738" height="7.198"/>
</g>
<g>
	<g>
		<polygon fill="#7C5904" points="218.39,81.683 80.32,81.683 80.32,74.483 218.39,74.483 222.539,78.084 		"/>
	</g>
	<g>
		<polygon fill="#7C5904" points="223.781,74.483 361.851,74.483 361.851,81.683 223.781,81.683 227.929,78.084 		"/>
	</g>
</g>
<g>
	<g>
		<polygon fill="#7C5904" points="218.39,95.596 80.32,95.596 80.32,88.396 218.39,88.396 222.539,91.996 		"/>
	</g>
	<g>
		<polygon fill="#7C5904" points="223.781,88.396 361.851,88.396 361.851,95.596 223.781,95.596 227.929,91.996 		"/>
	</g>
</g>
<g>
	<g>
		<polygon fill="#7C5904" points="218.39,109.511 80.32,109.511 80.32,102.31 218.39,102.31 222.539,105.91 		"/>
	</g>
	<g>
		<polygon fill="#7C5904" points="223.781,102.31 361.851,102.31 361.851,109.511 223.781,109.511 227.929,105.91 		"/>
	</g>
</g>
<g>
	<g>
		<polygon fill="#7C5904" points="218.39,137.337 80.32,137.337 80.32,130.137 218.39,130.137 222.539,133.737 		"/>
	</g>
	<g>
		<polygon fill="#7C5904" points="223.781,130.137 361.851,130.137 361.851,137.337 223.781,137.337 227.929,133.737 		"/>
	</g>
</g>
<g>
	<g>
		<polygon fill="#7C5904" points="218.39,179.079 80.32,179.079 80.32,171.879 218.39,171.879 222.539,175.48 		"/>
	</g>
	<g>
		<polygon fill="#7C5904" points="223.781,171.879 361.851,171.879 361.851,179.079 223.781,179.079 227.929,175.48 		"/>
	</g>
</g>
<g>
	<g>
		<polygon fill="#7C5904" points="218.39,165.166 80.32,165.166 80.32,157.966 218.39,157.966 222.539,161.567 		"/>
	</g>
	<g>
		<polygon fill="#7C5904" points="223.781,157.966 361.851,157.966 361.851,165.166 223.781,165.166 227.929,161.567 		"/>
	</g>
</g>
<g>
	<g>
		<polygon fill="#7C5904" points="218.39,151.252 80.32,151.252 80.32,144.052 218.39,144.052 222.539,147.653 		"/>
	</g>
	<g>
		<polygon fill="#7C5904" points="223.781,144.052 361.851,144.052 361.851,151.252 223.781,151.252 227.929,147.653 		"/>
	</g>
</g>
<g>
	<g>
		<polygon fill="#7C5904" points="218.39,192.992 80.32,192.992 80.32,185.793 218.39,185.793 222.539,189.394 		"/>
	</g>
	<g>
		<polygon fill="#7C5904" points="223.781,185.793 361.851,185.793 361.851,192.992 223.781,192.992 227.929,189.394 		"/>
	</g>
</g>
<g>
	<g>
		<polygon fill="#7C5904" points="218.39,262.561 80.32,262.561 80.32,255.362 218.39,255.362 222.539,258.961 		"/>
	</g>
	<g>
		<polygon fill="#7C5904" points="223.781,255.362 361.851,255.362 361.851,262.561 223.781,262.561 227.929,258.961 		"/>
	</g>
</g>
<g>
	<g>
		<polygon fill="#7C5904" points="218.39,276.476 80.32,276.476 80.32,269.276 218.39,269.276 222.539,272.876 		"/>
	</g>
	<g>
		<polygon fill="#7C5904" points="223.781,269.276 361.851,269.276 361.851,276.476 223.781,276.476 227.929,272.876 		"/>
	</g>
</g>
<g>
	<g>
		<polygon fill="#7C5904" points="218.39,206.907 80.32,206.907 80.32,199.708 218.39,199.708 222.539,203.307 		"/>
	</g>
	<g>
		<polygon fill="#7C5904" points="223.781,199.708 361.851,199.708 361.851,206.907 223.781,206.907 227.929,203.307 		"/>
	</g>
</g>
<g>
	<g>
		<polygon fill="#7C5904" points="218.39,220.821 80.32,220.821 80.32,213.622 218.39,213.622 222.539,217.22 		"/>
	</g>
	<g>
		<polygon fill="#7C5904" points="223.781,213.622 361.851,213.622 361.851,220.821 223.781,220.821 227.929,217.22 		"/>
	</g>
</g>
<g>
	<g>
		<polygon fill="#7C5904" points="218.39,248.649 80.32,248.649 80.32,241.449 218.39,241.449 222.539,245.048 		"/>
	</g>
	<g>
		<polygon fill="#7C5904" points="223.781,241.449 361.851,241.449 361.851,248.649 223.781,248.649 227.929,245.048 		"/>
	</g>
</g>
<g>
	<g>
		<polygon fill="#7C5904" points="218.39,290.542 80.32,290.542 80.32,283.343 218.39,283.343 222.539,286.942 		"/>
	</g>
	<g>
		<polygon fill="#7C5904" points="223.781,283.343 361.852,283.343 361.852,290.542 223.781,290.542 227.929,286.942 		"/>
	</g>
</g>
<g>
	<g>
		<polygon fill="#7C5904" points="218.39,304.476 80.32,304.476 80.32,297.277 218.39,297.277 222.539,300.876 		"/>
	</g>
	<g>
		<polygon fill="#7C5904" points="223.781,297.277 361.851,297.277 361.851,304.476 223.781,304.476 227.929,300.876 		"/>
	</g>
</g>
<g>
	<g>
		<polygon fill="#7C5904" points="218.39,374.146 80.32,374.146 80.32,366.947 218.39,366.947 222.539,370.547 		"/>
	</g>
	<g>
		<polygon fill="#7C5904" points="223.781,366.947 361.851,366.947 361.851,374.146 223.781,374.146 227.929,370.547 		"/>
	</g>
</g>
<g>
	<g>
		<polygon fill="#7C5904" points="218.39,387.786 80.32,387.786 80.32,380.587 218.39,380.587 222.539,384.187 		"/>
	</g>
	<g>
		<polygon fill="#7C5904" points="223.781,380.587 361.851,380.587 361.851,387.786 223.781,387.786 227.929,384.187 		"/>
	</g>
</g>
<g>
	<g>
		<polygon fill="#7C5904" points="218.39,318.41 80.32,318.41 80.32,311.211 218.39,311.211 222.539,314.811 		"/>
	</g>
	<g>
		<polygon fill="#7C5904" points="223.781,311.211 361.851,311.211 361.851,318.41 223.781,318.41 227.929,314.811 		"/>
	</g>
</g>
<g>
	<g>
		<polygon fill="#7C5904" points="218.39,332.344 80.32,332.344 80.32,325.145 218.39,325.145 222.539,328.744 		"/>
	</g>
	<g>
		<polygon fill="#7C5904" points="223.781,325.145 361.851,325.145 361.851,332.344 223.781,332.344 227.929,328.744 		"/>
	</g>
</g>
<g>
	<g>
		<polygon fill="#7C5904" points="218.39,360.213 80.32,360.213 80.32,353.013 218.39,353.013 222.539,356.613 		"/>
	</g>
	<g>
		<polygon fill="#7C5904" points="223.781,353.013 361.851,353.013 361.851,360.213 223.781,360.213 227.929,356.613 		"/>
	</g>
</g>
<g>
	<g>
		<polygon fill="#7C5904" points="218.39,401.542 80.32,401.542 80.32,394.343 218.39,394.343 222.539,397.942 		"/>
	</g>
	<g>
		<polygon fill="#7C5904" points="223.781,394.343 361.852,394.343 361.852,401.542 223.781,401.542 227.929,397.942 		"/>
	</g>
</g>
<g>
	<g>
		<polygon fill="#7C5904" points="218.39,415.476 80.32,415.476 80.32,408.277 218.39,408.277 222.539,411.876 		"/>
	</g>
	<g>
		<polygon fill="#7C5904" points="223.781,408.277 361.851,408.277 361.851,415.476 223.781,415.476 227.929,411.876 		"/>
	</g>
</g>
<g>
	<g>
		<polygon fill="#7C5904" points="218.39,429.41 80.32,429.41 80.32,422.211 218.39,422.211 222.539,425.811 		"/>
	</g>
	<g>
		<polygon fill="#7C5904" points="223.781,422.211 361.851,422.211 361.851,429.41 223.781,429.41 227.929,425.811 		"/>
	</g>
</g>
<g>
	<g>
		<polygon fill="#7C5904" points="218.39,443.442 80.32,443.442 80.32,436.242 218.39,436.242 222.539,439.843 		"/>
	</g>
	<g>
		<polygon fill="#7C5904" points="223.781,436.242 361.851,436.242 361.851,443.442 223.781,443.442 227.929,439.843 		"/>
	</g>
</g>
<g>
	<g>
		<polygon fill="#7C5904" points="218.39,471.213 80.32,471.213 80.32,464.013 218.39,464.013 222.539,467.613 		"/>
	</g>
	<g>
		<polygon fill="#7C5904" points="223.781,464.013 361.851,464.013 361.851,471.213 223.781,471.213 227.929,467.613 		"/>
	</g>
</g>
<g>
	<path fill="#C63706" d="M66.701,134.269c-0.451-0.123-0.876-0.305-1.274-0.545c-0.398-0.24-0.747-0.537-1.046-0.893
		c-0.299-0.354-0.536-0.763-0.712-1.23c-0.176-0.465-0.264-0.989-0.264-1.568c0-0.615,0.123-1.192,0.369-1.727
		c0.246-0.537,0.595-1.003,1.046-1.402c0.451-0.399,0.996-0.712,1.635-0.941c0.639-0.228,1.351-0.342,2.136-0.342h6.012v2.417
		h-1.239v14.089h-2.575v-14.089h-1.512v14.089h-2.575V134.269z"/>
</g>
<g>
	<path fill="#398EB0" d="M66.701,246.268c-0.451-0.124-0.876-0.306-1.274-0.545c-0.398-0.241-0.747-0.538-1.046-0.893
		c-0.299-0.354-0.536-0.764-0.712-1.23c-0.176-0.464-0.264-0.988-0.264-1.568c0-0.615,0.123-1.191,0.369-1.727
		c0.246-0.537,0.595-1.003,1.046-1.402s0.996-0.712,1.635-0.941c0.639-0.228,1.351-0.342,2.136-0.342h6.012v2.417h-1.239v14.089
		h-2.575v-14.089h-1.512v14.089h-2.575V246.268z"/>
</g>
<g>
	<path fill="#C63706" d="M66.701,357.268c-0.451-0.124-0.876-0.306-1.274-0.545c-0.398-0.241-0.747-0.538-1.046-0.893
		c-0.299-0.354-0.536-0.764-0.712-1.23c-0.176-0.464-0.264-0.988-0.264-1.568c0-0.615,0.123-1.191,0.369-1.727
		c0.246-0.537,0.595-1.003,1.046-1.402s0.996-0.712,1.635-0.941c0.639-0.228,1.351-0.342,2.136-0.342h6.012v2.417h-1.239v14.089
		h-2.575v-14.089h-1.512v14.089h-2.575V357.268z"/>
</g>
<g>
	<path fill="#398EB0" d="M66.701,468.599c-0.451-0.123-0.876-0.305-1.274-0.544c-0.398-0.241-0.747-0.537-1.046-0.893
		c-0.299-0.354-0.536-0.764-0.712-1.23c-0.176-0.464-0.264-0.988-0.264-1.568c0-0.615,0.123-1.192,0.369-1.727
		c0.246-0.537,0.595-1.004,1.046-1.402c0.451-0.399,0.996-0.712,1.635-0.941c0.639-0.228,1.351-0.342,2.136-0.342h6.012v2.417
		h-1.239v14.089h-2.575v-14.089h-1.512v14.089h-2.575V468.599z"/>
</g>
<g>
	<rect x="80.216" y="116.224" fill="#7C5904" width="142.488" height="7.199"/>
</g>
<g>
	<rect x="80.216" y="227.535" fill="#7C5904" width="142.488" height="7.199"/>
</g>
<g>
	<rect x="80.216" y="338.845" fill="#7C5904" width="142.488" height="7.199"/>
</g>
<g>
	<rect x="80.216" y="450.156" fill="#7C5904" width="142.488" height="7.2"/>
</g>
<g>
	<g>
		<polygon fill="#7C5904" points="223.677,60.568 361.748,60.568 361.748,67.768 223.677,67.768 227.825,64.168 		"/>
	</g>
	<g>
		<polygon fill="#7C5904" points="222.435,64.168 218.287,60.568 218.287,60.568 218.286,60.568 80.216,60.568 84.365,64.168 
			80.216,67.768 218.286,67.768 218.287,67.768 218.287,67.767 		"/>
	</g>
</g>
<g>
	<g>
		<polygon fill="#7C5904" points="218.286,485.184 80.216,485.184 80.216,477.984 218.286,477.984 222.435,481.584 		"/>
	</g>
	<g>
		<polygon fill="#7C5904" points="223.677,477.984 227.825,481.584 223.677,485.184 357.6,485.184 361.748,481.584 357.6,477.984 		
			"/>
	</g>
</g>
</svg>
