<?xml version="1.0" encoding="utf-8"?>
<!-- Generator: Adobe Illustrator 16.0.4, SVG Export Plug-In . SVG Version: 6.00 Build 0)  -->
<!DOCTYPE svg PUBLIC "-//W3C//DTD SVG 1.1//EN" "http://www.w3.org/Graphics/SVG/1.1/DTD/svg11.dtd">
<svg version="1.1" id="Layer_1" xmlns="http://www.w3.org/2000/svg" xmlns:xlink="http://www.w3.org/1999/xlink" x="0px" y="0px"
	 width="448.746px" height="616.439px" viewBox="0 0 448.746 616.439" enable-background="new 0 0 448.746 616.439"
	 xml:space="preserve">
<rect x="0.5" y="0.5" fill="#FFFFFF" stroke="#C68D06" stroke-miterlimit="10" width="447.746" height="615.439"/>
<g>
	<path fill="#C68D06" d="M347.346,579.894h4.865v-20.967c-1.26,0.665-3.29,1.189-4.796,1.189v-2.205
		c1.995-0.07,3.78-0.594,4.936-1.68h2.311v23.663h4.41v2.24h-11.726V579.894z"/>
	<path fill="#C68D06" d="M378.253,558.505h-13.337v-2.274h15.927v2.135l-10.956,23.768h-2.556L378.253,558.505z"/>
	<path fill="#C68D06" d="M389.207,556.231h8.681c5.776,0,8.996,2.45,8.996,7c0,4.201-2.45,6.301-6.195,7.001l6.546,11.901h-2.801
		l-6.336-11.621h-6.44v11.621h-2.45V556.231z M397.712,568.308c4.271,0,6.686-1.226,6.686-4.971c0-3.57-2.38-4.831-6.721-4.831
		h-6.021v9.802H397.712z"/>
</g>
<g>
	<path fill="#C63706" d="M59.813,343.494h7.862c0.876,0,1.68,0.137,2.415,0.411c0.734,0.273,1.366,0.641,1.898,1.105
		c0.532,0.465,0.947,1,1.247,1.606c0.299,0.607,0.449,1.24,0.449,1.897c0,0.794-0.118,1.538-0.354,2.23
		c-0.236,0.692-0.601,1.294-1.095,1.802c-0.494,0.51-1.119,0.912-1.875,1.207c-0.756,0.296-1.651,0.445-2.684,0.445h-2.37v3.246
		h1.561v3.077h-7.053v-3.077h1.764v-10.861h-1.764V343.494z M65.305,346.582v4.571h1.539c0.854,0,1.531-0.18,2.033-0.539
		c0.501-0.36,0.752-0.929,0.752-1.707c0-0.727-0.236-1.294-0.708-1.707c-0.472-0.412-1.164-0.618-2.078-0.618H65.305z"/>
</g>
<g>
	<rect x="80.216" y="171.879" fill="#C0DDE7" width="281.738" height="7.201"/>
</g>
<g>
	<rect x="80.216" y="185.793" fill="#C0DDE7" width="281.739" height="7.199"/>
</g>
<g>
	<rect x="80.216" y="199.707" fill="#C0DDE7" width="281.738" height="7.2"/>
</g>
<g>
	<rect x="80.216" y="213.622" fill="#C0DDE7" width="281.738" height="7.199"/>
</g>
<g>
	<rect x="80.216" y="227.535" fill="#C0DDE7" width="281.738" height="7.198"/>
</g>
<g>
	<rect x="80.216" y="241.448" fill="#C0DDE7" width="281.738" height="7.201"/>
</g>
<g>
	<rect x="80.216" y="255.362" fill="#C0DDE7" width="281.739" height="7.198"/>
</g>
<g>
	<rect x="80.216" y="269.275" fill="#C0DDE7" width="281.739" height="7.201"/>
</g>
<g>
	<rect x="80.216" y="283.188" fill="#C0DDE7" width="281.738" height="7.199"/>
</g>
<g>
	<rect x="80.216" y="297.102" fill="#C0DDE7" width="281.739" height="7.2"/>
</g>
<g>
	<rect x="80.216" y="311.015" fill="#C0DDE7" width="281.738" height="7.2"/>
</g>
<g>
	<rect x="80.216" y="324.928" fill="#C0DDE7" width="281.738" height="7.2"/>
</g>
<g>
	<rect x="80.216" y="338.842" fill="#C0DDE7" width="281.738" height="7.199"/>
</g>
<g>
	<rect x="80.216" y="352.755" fill="#C0DDE7" width="281.739" height="7.201"/>
</g>
<g>
	<rect x="80.216" y="366.668" fill="#C0DDE7" width="281.738" height="7.201"/>
</g>
<g>
	<rect x="80.216" y="380.582" fill="#C0DDE7" width="281.738" height="7.202"/>
</g>
<g>
	<rect x="80.216" y="394.498" fill="#C0DDE7" width="281.738" height="7.197"/>
</g>
<g>
	<rect x="80.216" y="408.41" fill="#C0DDE7" width="281.738" height="7.199"/>
</g>
<g>
	<rect x="80.216" y="422.324" fill="#C0DDE7" width="281.739" height="7.199"/>
</g>
<g>
	<rect x="80.216" y="436.237" fill="#C0DDE7" width="281.738" height="7.2"/>
</g>
<g>
	<rect x="80.216" y="450.152" fill="#C0DDE7" width="281.739" height="7.201"/>
</g>
<g>
	<rect x="80.216" y="464.065" fill="#C0DDE7" width="281.738" height="7.199"/>
</g>
<g>
	<rect x="80.216" y="477.98" fill="#C0DDE7" width="281.739" height="7.199"/>
</g>
<g>
	<rect x="80.216" y="491.893" fill="#C0DDE7" width="281.738" height="7.201"/>
</g>
<g>
	<rect x="80.216" y="74.483" fill="#C0DDE7" width="281.738" height="7.201"/>
</g>
<g>
	<rect x="80.216" y="88.396" fill="#C0DDE7" width="281.739" height="7.2"/>
</g>
<g>
	<rect x="80.216" y="157.966" fill="#C0DDE7" width="281.739" height="7.199"/>
</g>
<g>
	<rect x="80.216" y="102.311" fill="#C0DDE7" width="281.738" height="7.199"/>
</g>
<g>
	<rect x="80.216" y="116.225" fill="#C0DDE7" width="281.739" height="7.2"/>
</g>
<g>
	<rect x="80.216" y="130.139" fill="#C0DDE7" width="281.739" height="7.198"/>
</g>
<g>
	<rect x="80.216" y="144.053" fill="#C0DDE7" width="281.739" height="7.199"/>
</g>
<g>
	<g>
		<polygon fill="#7C5904" points="218.39,95.597 80.319,95.597 80.319,88.397 218.39,88.397 222.538,91.998 		"/>
	</g>
	<g>
		<polygon fill="#7C5904" points="223.78,88.397 361.851,88.397 361.851,95.597 223.78,95.597 227.928,91.998 		"/>
	</g>
</g>
<g>
	<g>
		<polygon fill="#7C5904" points="218.39,165.166 80.319,165.166 80.319,157.966 218.39,157.966 222.538,161.565 		"/>
	</g>
	<g>
		<polygon fill="#7C5904" points="223.78,157.966 361.851,157.966 361.851,165.166 223.78,165.166 227.928,161.565 		"/>
	</g>
</g>
<g>
	<g>
		<polygon fill="#7C5904" points="218.39,179.081 80.319,179.081 80.319,171.879 218.39,171.879 222.538,175.48 		"/>
	</g>
	<g>
		<polygon fill="#7C5904" points="223.78,171.879 361.851,171.879 361.851,179.081 223.78,179.081 227.928,175.48 		"/>
	</g>
</g>
<g>
	<g>
		<polygon fill="#7C5904" points="218.39,290.388 80.319,290.388 80.319,283.188 218.39,283.188 222.538,286.788 		"/>
	</g>
	<g>
		<polygon fill="#7C5904" points="223.78,283.188 361.851,283.188 361.851,290.388 223.78,290.388 227.928,286.788 		"/>
	</g>
</g>
<g>
	<g>
		<polygon fill="#7C5904" points="218.39,109.51 80.319,109.51 80.319,102.311 218.39,102.311 222.538,105.91 		"/>
	</g>
	<g>
		<polygon fill="#7C5904" points="223.78,102.311 361.851,102.311 361.851,109.51 223.78,109.51 227.928,105.91 		"/>
	</g>
</g>
<g>
	<g>
		<polygon fill="#7C5904" points="218.39,123.425 80.319,123.425 80.319,116.226 218.39,116.226 222.538,119.825 		"/>
	</g>
	<g>
		<polygon fill="#7C5904" points="223.78,116.226 361.851,116.226 361.851,123.425 223.78,123.425 227.928,119.825 		"/>
	</g>
</g>
<g>
	<g>
		<polygon fill="#7C5904" points="218.39,137.337 80.319,137.337 80.319,130.138 218.39,130.138 222.538,133.737 		"/>
	</g>
	<g>
		<polygon fill="#7C5904" points="223.78,130.138 361.851,130.138 361.851,137.337 223.78,137.337 227.928,133.737 		"/>
	</g>
</g>
<g>
	<g>
		<polygon fill="#7C5904" points="218.39,151.252 80.319,151.252 80.319,144.052 218.39,144.052 222.538,147.652 		"/>
	</g>
	<g>
		<polygon fill="#7C5904" points="223.78,144.052 361.851,144.052 361.851,151.252 223.78,151.252 227.928,147.652 		"/>
	</g>
</g>
<g>
	<g>
		<polygon fill="#7C5904" points="218.39,206.906 80.319,206.906 80.319,199.707 218.39,199.707 222.538,203.307 		"/>
	</g>
	<g>
		<polygon fill="#7C5904" points="223.78,199.707 361.851,199.707 361.851,206.906 223.78,206.906 227.928,203.307 		"/>
	</g>
</g>
<g>
	<g>
		<polygon fill="#7C5904" points="218.39,276.474 80.319,276.474 80.319,269.274 218.39,269.274 222.538,272.875 		"/>
	</g>
	<g>
		<polygon fill="#7C5904" points="223.78,269.274 361.851,269.274 361.851,276.474 223.78,276.474 227.928,272.875 		"/>
	</g>
</g>
<g>
	<g>
		<polygon fill="#7C5904" points="218.39,220.821 80.319,220.821 80.319,213.622 218.39,213.622 222.538,217.221 		"/>
	</g>
	<g>
		<polygon fill="#7C5904" points="223.78,213.622 361.851,213.622 361.851,220.821 223.78,220.821 227.928,217.221 		"/>
	</g>
</g>
<g>
	<g>
		<polygon fill="#7C5904" points="218.39,234.733 80.319,234.733 80.319,227.535 218.39,227.535 222.538,231.134 		"/>
	</g>
	<g>
		<polygon fill="#7C5904" points="223.78,227.535 361.851,227.535 361.851,234.733 223.78,234.733 227.928,231.134 		"/>
	</g>
</g>
<g>
	<g>
		<polygon fill="#7C5904" points="218.39,248.648 80.319,248.648 80.319,241.447 218.39,241.447 222.538,245.046 		"/>
	</g>
	<g>
		<polygon fill="#7C5904" points="223.78,241.447 361.851,241.447 361.851,248.648 223.78,248.648 227.928,245.046 		"/>
	</g>
</g>
<g>
	<g>
		<polygon fill="#7C5904" points="218.39,262.562 80.319,262.562 80.319,255.362 218.39,255.362 222.538,258.961 		"/>
	</g>
	<g>
		<polygon fill="#7C5904" points="223.78,255.362 361.851,255.362 361.851,262.562 223.78,262.562 227.928,258.961 		"/>
	</g>
</g>
<g>
	<g>
		<polygon fill="#7C5904" points="218.39,318.388 80.319,318.388 80.319,311.188 218.39,311.188 222.538,314.788 		"/>
	</g>
	<g>
		<polygon fill="#7C5904" points="223.78,311.188 361.851,311.188 361.851,318.388 223.78,318.388 227.928,314.788 		"/>
	</g>
</g>
<g>
	<g>
		<polygon fill="#7C5904" points="218.39,388.057 80.319,388.057 80.319,380.857 218.39,380.857 222.538,384.457 		"/>
	</g>
	<g>
		<polygon fill="#7C5904" points="223.78,380.857 361.851,380.857 361.851,388.057 223.78,388.057 227.928,384.457 		"/>
	</g>
</g>
<g>
	<g>
		<polygon fill="#7C5904" points="218.39,401.695 80.319,401.695 80.319,394.498 218.39,394.498 222.538,398.096 		"/>
	</g>
	<g>
		<polygon fill="#7C5904" points="223.78,394.498 361.851,394.498 361.851,401.695 223.78,401.695 227.928,398.096 		"/>
	</g>
</g>
<g>
	<g>
		<polygon fill="#7C5904" points="218.39,360.189 80.319,360.189 80.319,352.989 218.39,352.989 222.538,356.588 		"/>
	</g>
	<g>
		<polygon fill="#7C5904" points="223.78,352.989 361.851,352.989 361.851,360.189 223.78,360.189 227.928,356.588 		"/>
	</g>
</g>
<g>
	<g>
		<polygon fill="#7C5904" points="218.39,374.123 80.319,374.123 80.319,366.922 218.39,366.922 222.538,370.522 		"/>
	</g>
	<g>
		<polygon fill="#7C5904" points="223.78,366.922 361.851,366.922 361.851,374.123 223.78,374.123 227.928,370.522 		"/>
	</g>
</g>
<g>
	<g>
		<polygon fill="#7C5904" points="218.39,415.452 80.32,415.452 80.32,408.252 218.39,408.252 222.539,411.852 		"/>
	</g>
	<g>
		<polygon fill="#7C5904" points="223.78,408.252 361.851,408.252 361.851,415.452 223.78,415.452 227.929,411.852 		"/>
	</g>
</g>
<g>
	<g>
		<polygon fill="#7C5904" points="218.39,429.386 80.319,429.386 80.319,422.187 218.39,422.187 222.538,425.786 		"/>
	</g>
	<g>
		<polygon fill="#7C5904" points="223.78,422.187 361.851,422.187 361.851,429.386 223.78,429.386 227.928,425.786 		"/>
	</g>
</g>
<g>
	<g>
		<polygon fill="#7C5904" points="218.39,499.056 80.319,499.056 80.319,491.856 218.39,491.856 222.538,495.456 		"/>
	</g>
	<g>
		<polygon fill="#7C5904" points="223.78,491.856 227.928,495.456 223.78,499.056 357.703,499.056 361.851,495.456 357.703,491.856 
					"/>
	</g>
</g>
<g>
	<g>
		<polygon fill="#7C5904" points="218.39,443.319 80.319,443.319 80.319,436.12 218.39,436.12 222.538,439.72 		"/>
	</g>
	<g>
		<polygon fill="#7C5904" points="223.78,436.12 361.851,436.12 361.851,443.319 223.78,443.319 227.928,439.72 		"/>
	</g>
</g>
<g>
	<g>
		<polygon fill="#7C5904" points="218.39,471.188 80.319,471.188 80.319,463.989 218.39,463.989 222.538,467.587 		"/>
	</g>
	<g>
		<polygon fill="#7C5904" points="223.78,463.989 361.851,463.989 361.851,471.188 223.78,471.188 227.928,467.587 		"/>
	</g>
</g>
<g>
	<g>
		<polygon fill="#7C5904" points="218.39,485.122 80.319,485.122 80.319,477.921 218.39,477.921 222.538,481.521 		"/>
	</g>
	<g>
		<polygon fill="#7C5904" points="223.78,477.921 361.851,477.921 361.851,485.122 223.78,485.122 227.928,481.521 		"/>
	</g>
</g>
<g>
	<path fill="#398EB0" d="M70.646,203.602c-0.451-0.123-0.876-0.305-1.274-0.545s-0.747-0.537-1.046-0.893
		c-0.299-0.354-0.536-0.763-0.712-1.23c-0.176-0.465-0.264-0.988-0.264-1.568c0-0.615,0.123-1.191,0.369-1.726
		c0.246-0.538,0.595-1.004,1.046-1.402c0.451-0.399,0.996-0.712,1.635-0.941c0.639-0.228,1.351-0.342,2.136-0.342h6.012v2.417
		h-1.239v14.089h-2.575V197.37h-1.512v14.089h-2.575V203.602z"/>
</g>
<g>
	<path fill="#398EB0" d="M70.646,315.602c-0.451-0.124-0.876-0.306-1.274-0.545s-0.747-0.537-1.046-0.893
		c-0.299-0.354-0.536-0.763-0.712-1.23c-0.176-0.465-0.264-0.989-0.264-1.569c0-0.615,0.123-1.191,0.369-1.726
		c0.246-0.537,0.595-1.004,1.046-1.402c0.451-0.399,0.996-0.712,1.635-0.941c0.639-0.228,1.351-0.342,2.136-0.342h6.012v2.417
		h-1.239v14.089h-2.575V309.37h-1.512v14.089h-2.575V315.602z"/>
</g>
<g>
	<path fill="#C63706" d="M70.646,92.854c-0.451-0.123-0.876-0.305-1.274-0.545c-0.398-0.24-0.747-0.537-1.046-0.893
		c-0.299-0.353-0.536-0.763-0.712-1.23c-0.176-0.465-0.264-0.988-0.264-1.568c0-0.615,0.123-1.191,0.369-1.727
		c0.246-0.538,0.595-1.004,1.046-1.402s0.996-0.712,1.635-0.941c0.639-0.229,1.351-0.342,2.136-0.342h6.012v2.417h-1.239v14.089
		h-2.575V86.622h-1.512v14.089h-2.575V92.854z"/>
</g>
<g>
	<path fill="#398EB0" d="M70.646,467.77c-0.451-0.123-0.876-0.305-1.274-0.545c-0.398-0.24-0.747-0.537-1.046-0.893
		c-0.299-0.354-0.536-0.763-0.712-1.23c-0.176-0.465-0.264-0.989-0.264-1.568c0-0.615,0.123-1.192,0.369-1.727
		c0.246-0.537,0.595-1.003,1.046-1.402c0.451-0.399,0.996-0.712,1.635-0.941c0.639-0.228,1.351-0.342,2.136-0.342h6.012v2.417
		h-1.239v14.089h-2.575v-14.089h-1.512v14.089h-2.575V467.77z"/>
</g>
<g>
	<rect x="80.216" y="450.151" fill="#7C5904" width="142.488" height="7.199"/>
</g>
<g>
	<rect x="80.216" y="324.929" fill="#7C5904" width="142.488" height="7.199"/>
</g>
<g>
	<rect x="80.216" y="185.793" fill="#7C5904" width="142.488" height="7.199"/>
</g>
<g>
	<rect x="80.216" y="297.102" fill="#7C5904" width="142.488" height="7.199"/>
</g>
<g>
	<polygon fill="#7C5904" points="80.216,74.482 218.287,74.482 218.287,81.682 80.216,81.682 84.365,78.082 	"/>
</g>
</svg>
