<?xml version="1.0" encoding="utf-8"?>
<!-- Generator: Adobe Illustrator 16.0.4, SVG Export Plug-In . SVG Version: 6.00 Build 0)  -->
<!DOCTYPE svg PUBLIC "-//W3C//DTD SVG 1.1//EN" "http://www.w3.org/Graphics/SVG/1.1/DTD/svg11.dtd">
<svg version="1.1" id="Layer_1" xmlns="http://www.w3.org/2000/svg" xmlns:xlink="http://www.w3.org/1999/xlink" x="0px" y="0px"
	 width="448.746px" height="616.439px" viewBox="0 0 448.746 616.439" enable-background="new 0 0 448.746 616.439"
	 xml:space="preserve">
<rect x="0.5" y="0.5" fill="#FFFFFF" stroke="#C68D06" stroke-miterlimit="10" width="447.746" height="615.439"/>
<g>
	<path fill="#C68D06" d="M344.617,579.894h4.865v-20.967c-1.26,0.665-3.29,1.189-4.796,1.189v-2.205
		c1.995-0.07,3.78-0.595,4.936-1.68h2.311v23.663h4.41v2.24h-11.726V579.894z"/>
	<path fill="#C68D06" d="M362.537,575.868c0-3.64,2.59-5.636,6.86-7.491c-3.535-1.575-5.671-3.255-5.671-6.405
		c0-3.186,2.976-6.266,8.051-6.266c5.181,0,8.017,3.08,8.017,6.266c0,3.08-2.065,4.69-5.741,6.336
		c4.411,1.925,6.931,3.78,6.931,7.561c0,3.675-3.395,6.792-9.206,6.792C365.932,582.659,362.537,579.613,362.537,575.868z
		 M378.533,575.728c0-2.905-2.45-4.516-6.896-6.371c-4.585,2.03-6.65,3.605-6.65,6.371c0,2.835,2.835,4.83,6.79,4.83
		C375.698,580.558,378.533,578.668,378.533,575.728z M377.378,562.077c0-2.066-1.716-4.271-5.602-4.271
		c-3.71,0-5.635,2.1-5.635,4.165c0,2.45,1.785,3.676,5.74,5.391C375.768,565.681,377.378,564.492,377.378,562.077z"/>
	<path fill="#C68D06" d="M389.207,556.231h8.681c5.776,0,8.996,2.45,8.996,7c0,4.201-2.45,6.301-6.195,7.001l6.546,11.901h-2.801
		l-6.336-11.621h-6.44v11.621h-2.45V556.231z M397.712,568.307c4.271,0,6.686-1.226,6.686-4.971c0-3.57-2.38-4.831-6.721-4.831
		h-6.021v9.802H397.712z"/>
</g>
<g>
	<rect x="80.216" y="157.966" fill="#C0DDE7" width="281.738" height="7.199"/>
</g>
<g>
	<rect x="80.216" y="171.879" fill="#C0DDE7" width="281.738" height="7.2"/>
</g>
<g>
	<rect x="80.216" y="185.793" fill="#C0DDE7" width="281.738" height="7.2"/>
</g>
<g>
	<rect x="80.216" y="199.708" fill="#C0DDE7" width="281.738" height="7.199"/>
</g>
<g>
	<rect x="80.216" y="213.622" fill="#C0DDE7" width="281.738" height="7.199"/>
</g>
<g>
	<rect x="80.216" y="227.535" fill="#C0DDE7" width="281.738" height="7.199"/>
</g>
<g>
	<rect x="80.216" y="241.449" fill="#C0DDE7" width="281.738" height="7.199"/>
</g>
<g>
	<rect x="80.216" y="255.362" fill="#C0DDE7" width="281.738" height="7.2"/>
</g>
<g>
	<rect x="80.216" y="269.276" fill="#C0DDE7" width="281.738" height="7.199"/>
</g>
<g>
	<rect x="80.216" y="283.19" fill="#C0DDE7" width="281.738" height="7.2"/>
</g>
<g>
	<rect x="80.216" y="297.104" fill="#C0DDE7" width="281.738" height="7.2"/>
</g>
<g>
	<rect x="80.216" y="311.018" fill="#C0DDE7" width="281.738" height="7.2"/>
</g>
<g>
	<rect x="80.216" y="324.932" fill="#C0DDE7" width="281.738" height="7.199"/>
</g>
<g>
	<rect x="80.216" y="338.845" fill="#C0DDE7" width="281.738" height="7.2"/>
</g>
<g>
	<rect x="80.216" y="352.759" fill="#C0DDE7" width="281.738" height="7.201"/>
</g>
<g>
	<rect x="80.216" y="366.673" fill="#C0DDE7" width="281.738" height="7.2"/>
</g>
<g>
	<rect x="80.216" y="380.587" fill="#C0DDE7" width="281.738" height="7.199"/>
</g>
<g>
	<rect x="80.216" y="394.501" fill="#C0DDE7" width="281.738" height="7.199"/>
</g>
<g>
	<rect x="80.216" y="408.415" fill="#C0DDE7" width="281.738" height="7.199"/>
</g>
<g>
	<rect x="80.216" y="422.328" fill="#C0DDE7" width="281.738" height="7.2"/>
</g>
<g>
	<rect x="80.216" y="436.242" fill="#C0DDE7" width="281.738" height="7.201"/>
</g>
<g>
	<rect x="80.216" y="450.156" fill="#C0DDE7" width="281.738" height="7.2"/>
</g>
<g>
	<rect x="80.216" y="464.07" fill="#C0DDE7" width="281.738" height="7.199"/>
</g>
<g>
	<rect x="80.216" y="477.983" fill="#C0DDE7" width="281.738" height="7.201"/>
</g>
<g>
	<rect x="80.216" y="60.568" fill="#C0DDE7" width="281.738" height="7.2"/>
</g>
<g>
	<rect x="80.216" y="74.482" fill="#C0DDE7" width="281.738" height="7.201"/>
</g>
<g>
	<rect x="80.216" y="144.052" fill="#C0DDE7" width="281.738" height="7.2"/>
</g>
<g>
	<rect x="80.216" y="88.396" fill="#C0DDE7" width="281.738" height="7.199"/>
</g>
<g>
	<rect x="80.216" y="102.31" fill="#C0DDE7" width="281.738" height="7.201"/>
</g>
<g>
	<rect x="80.216" y="116.224" fill="#C0DDE7" width="281.738" height="7.199"/>
</g>
<g>
	<rect x="80.216" y="130.139" fill="#C0DDE7" width="281.738" height="7.198"/>
</g>
<g>
	<g>
		<polygon fill="#7C5904" points="218.39,81.683 80.32,81.683 80.32,74.483 218.39,74.483 222.539,78.084 		"/>
	</g>
	<g>
		<polygon fill="#7C5904" points="223.78,74.483 361.851,74.483 361.851,81.683 223.78,81.683 227.929,78.084 		"/>
	</g>
</g>
<g>
	<g>
		<polygon fill="#7C5904" points="218.39,151.252 80.32,151.252 80.32,144.052 218.39,144.052 222.539,147.651 		"/>
	</g>
	<g>
		<polygon fill="#7C5904" points="223.78,144.052 361.851,144.052 361.851,151.252 223.78,151.252 227.929,147.651 		"/>
	</g>
</g>
<g>
	<g>
		<polygon fill="#7C5904" points="218.39,95.596 80.32,95.596 80.32,88.396 218.39,88.396 222.539,91.996 		"/>
	</g>
	<g>
		<polygon fill="#7C5904" points="223.78,88.396 361.851,88.396 361.851,95.596 223.78,95.596 227.929,91.996 		"/>
	</g>
</g>
<g>
	<g>
		<polygon fill="#7C5904" points="218.39,109.511 80.32,109.511 80.32,102.312 218.39,102.312 222.539,105.91 		"/>
	</g>
	<g>
		<polygon fill="#7C5904" points="223.78,102.312 361.851,102.312 361.851,109.511 223.78,109.511 227.929,105.91 		"/>
	</g>
</g>
<g>
	<g>
		<polygon fill="#7C5904" points="218.39,123.423 80.32,123.423 80.32,116.223 218.39,116.223 222.539,119.823 		"/>
	</g>
	<g>
		<polygon fill="#7C5904" points="223.78,116.223 361.851,116.223 361.851,123.423 223.78,123.423 227.929,119.823 		"/>
	</g>
</g>
<g>
	<g>
		<polygon fill="#7C5904" points="218.39,192.992 80.32,192.992 80.32,185.793 218.39,185.793 222.539,189.394 		"/>
	</g>
	<g>
		<polygon fill="#7C5904" points="223.78,185.793 361.851,185.793 361.851,192.992 223.78,192.992 227.929,189.394 		"/>
	</g>
</g>
<g>
	<g>
		<polygon fill="#7C5904" points="218.39,262.561 80.32,262.561 80.32,255.362 218.39,255.362 222.539,258.961 		"/>
	</g>
	<g>
		<polygon fill="#7C5904" points="223.78,255.362 361.851,255.362 361.851,262.561 223.78,262.561 227.929,258.961 		"/>
	</g>
</g>
<g>
	<g>
		<polygon fill="#7C5904" points="218.39,276.476 80.32,276.476 80.32,269.276 218.39,269.276 222.539,272.876 		"/>
	</g>
	<g>
		<polygon fill="#7C5904" points="223.78,269.276 361.851,269.276 361.851,276.476 223.78,276.476 227.929,272.876 		"/>
	</g>
</g>
<g>
	<g>
		<polygon fill="#7C5904" points="218.39,206.907 80.32,206.907 80.32,199.708 218.39,199.708 222.539,203.307 		"/>
	</g>
	<g>
		<polygon fill="#7C5904" points="223.78,199.708 361.851,199.708 361.851,206.907 223.78,206.907 227.929,203.307 		"/>
	</g>
</g>
<g>
	<g>
		<polygon fill="#7C5904" points="218.39,220.821 80.32,220.821 80.32,213.622 218.39,213.622 222.539,217.22 		"/>
	</g>
	<g>
		<polygon fill="#7C5904" points="223.78,213.622 361.851,213.622 361.851,220.821 223.78,220.821 227.929,217.22 		"/>
	</g>
</g>
<g>
	<g>
		<polygon fill="#7C5904" points="218.39,234.734 80.32,234.734 80.32,227.535 218.39,227.535 222.539,231.134 		"/>
	</g>
	<g>
		<polygon fill="#7C5904" points="223.78,227.535 361.851,227.535 361.851,234.734 223.78,234.734 227.929,231.134 		"/>
	</g>
</g>
<g>
	<g>
		<polygon fill="#7C5904" points="218.39,248.649 80.32,248.649 80.32,241.449 218.39,241.449 222.539,245.048 		"/>
	</g>
	<g>
		<polygon fill="#7C5904" points="223.78,241.449 361.851,241.449 361.851,248.649 223.78,248.649 227.929,245.048 		"/>
	</g>
</g>
<g>
	<g>
		<polygon fill="#7C5904" points="218.39,304.476 80.32,304.476 80.32,297.277 218.39,297.277 222.539,300.876 		"/>
	</g>
	<g>
		<polygon fill="#7C5904" points="223.78,297.277 361.851,297.277 361.851,304.476 223.78,304.476 227.929,300.876 		"/>
	</g>
</g>
<g>
	<g>
		<polygon fill="#7C5904" points="218.39,374.146 80.32,374.146 80.32,366.947 218.39,366.947 222.539,370.547 		"/>
	</g>
	<g>
		<polygon fill="#7C5904" points="223.78,366.947 361.851,366.947 361.851,374.146 223.78,374.146 227.929,370.547 		"/>
	</g>
</g>
<g>
	<g>
		<polygon fill="#7C5904" points="218.39,387.786 80.32,387.786 80.32,380.587 218.39,380.587 222.539,384.187 		"/>
	</g>
	<g>
		<polygon fill="#7C5904" points="223.78,380.587 361.851,380.587 361.851,387.786 223.78,387.786 227.929,384.187 		"/>
	</g>
</g>
<g>
	<g>
		<polygon fill="#7C5904" points="218.39,318.41 80.32,318.41 80.32,311.211 218.39,311.211 222.539,314.811 		"/>
	</g>
	<g>
		<polygon fill="#7C5904" points="223.78,311.211 361.851,311.211 361.851,318.41 223.78,318.41 227.929,314.811 		"/>
	</g>
</g>
<g>
	<g>
		<polygon fill="#7C5904" points="218.39,332.344 80.32,332.344 80.32,325.145 218.39,325.145 222.539,328.744 		"/>
	</g>
	<g>
		<polygon fill="#7C5904" points="223.78,325.145 361.851,325.145 361.851,332.344 223.78,332.344 227.929,328.744 		"/>
	</g>
</g>
<g>
	<g>
		<polygon fill="#7C5904" points="218.39,346.279 80.32,346.279 80.32,339.079 218.39,339.079 222.539,342.679 		"/>
	</g>
	<g>
		<polygon fill="#7C5904" points="223.78,339.079 361.851,339.079 361.851,346.279 223.78,346.279 227.929,342.679 		"/>
	</g>
</g>
<g>
	<g>
		<polygon fill="#7C5904" points="218.39,360.213 80.32,360.213 80.32,353.013 218.39,353.013 222.539,356.613 		"/>
	</g>
	<g>
		<polygon fill="#7C5904" points="223.78,353.013 361.851,353.013 361.851,360.213 223.78,360.213 227.929,356.613 		"/>
	</g>
</g>
<g>
	<g>
		<polygon fill="#7C5904" points="218.39,415.476 80.32,415.476 80.32,408.277 218.39,408.277 222.539,411.876 		"/>
	</g>
	<g>
		<polygon fill="#7C5904" points="223.78,408.277 361.851,408.277 361.851,415.476 223.78,415.476 227.929,411.876 		"/>
	</g>
</g>
<g>
	<g>
		<polygon fill="#7C5904" points="218.39,429.41 80.32,429.41 80.32,422.211 218.39,422.211 222.539,425.811 		"/>
	</g>
	<g>
		<polygon fill="#7C5904" points="223.78,422.211 361.851,422.211 361.851,429.41 223.78,429.41 227.929,425.811 		"/>
	</g>
</g>
<g>
	<g>
		<polygon fill="#7C5904" points="218.39,443.344 80.32,443.344 80.32,436.145 218.39,436.145 222.539,439.744 		"/>
	</g>
	<g>
		<polygon fill="#7C5904" points="223.78,436.145 361.851,436.145 361.851,443.344 223.78,443.344 227.929,439.744 		"/>
	</g>
</g>
<g>
	<g>
		<polygon fill="#7C5904" points="218.39,457.279 80.32,457.279 80.32,450.079 218.39,450.079 222.539,453.679 		"/>
	</g>
	<g>
		<polygon fill="#7C5904" points="223.78,450.079 361.851,450.079 361.851,457.279 223.78,457.279 227.929,453.679 		"/>
	</g>
</g>
<g>
	<g>
		<polygon fill="#7C5904" points="218.39,471.213 80.32,471.213 80.32,464.013 218.39,464.013 222.539,467.613 		"/>
	</g>
	<g>
		<polygon fill="#7C5904" points="223.78,464.013 361.851,464.013 361.851,471.213 223.78,471.213 227.929,467.613 		"/>
	</g>
</g>
<g>
	<path fill="#398EB0" d="M66.439,176.168h7.289v3.078h-1.797v10.872h1.797v3.077h-7.289v-3.077h1.764v-10.872h-1.764V176.168z"/>
</g>
<g>
	<path fill="#398EB0" d="M67.551,412.437h1.696l-0.764-2.448H63.25l-0.764,2.448h1.797v3.077h-6.458v-3.077h1.269l4.638-13.948
		h4.503l4.537,13.948h1.236v3.077h-6.458V412.437z M64.137,407.114h3.437l-1.729-5.537L64.137,407.114z"/>
</g>
<g>
	<path fill="#C63706" d="M66.439,287.491h7.289v3.078h-1.797v10.871h1.797v3.077h-7.289v-3.077h1.764v-10.871h-1.764V287.491z"/>
</g>
<g>
	<path fill="#C63706" d="M70.646,147.768c-0.451-0.123-0.876-0.305-1.274-0.545c-0.398-0.24-0.747-0.537-1.046-0.893
		c-0.299-0.354-0.536-0.764-0.712-1.23c-0.176-0.465-0.264-0.988-0.264-1.568c0-0.615,0.123-1.191,0.369-1.727
		c0.246-0.537,0.595-1.004,1.046-1.402c0.451-0.399,0.996-0.712,1.635-0.941c0.639-0.228,1.351-0.342,2.136-0.342h6.012v2.417
		h-1.239v14.089h-2.575v-14.089h-1.512v14.089h-2.575V147.768z"/>
</g>
<g>
	<rect x="80.216" y="130.138" fill="#7C5904" width="142.488" height="7.199"/>
</g>
<g>
	<rect x="80.216" y="157.966" fill="#7C5904" width="142.488" height="7.199"/>
</g>
<g>
	<g>
		<polygon fill="#7C5904" points="218.493,485.184 80.423,485.184 80.423,477.984 218.493,477.984 222.642,481.584 		"/>
	</g>
	<g>
		<polygon fill="#7C5904" points="223.884,477.984 228.031,481.584 223.884,485.184 357.806,485.184 361.955,481.584 
			357.806,477.984 		"/>
	</g>
</g>
<g>
	<g>
		<polygon fill="#7C5904" points="223.677,60.568 361.748,60.568 361.748,67.768 223.677,67.768 227.825,64.168 		"/>
	</g>
	<g>
		<polygon fill="#7C5904" points="222.435,64.168 218.287,60.568 218.287,60.568 218.287,60.568 80.216,60.568 84.365,64.168 
			80.216,67.768 218.287,67.768 218.287,67.768 218.287,67.767 		"/>
	</g>
</g>
</svg>
