<?xml version="1.0" encoding="utf-8"?>
<!-- Generator: Adobe Illustrator 16.0.4, SVG Export Plug-In . SVG Version: 6.00 Build 0)  -->
<!DOCTYPE svg PUBLIC "-//W3C//DTD SVG 1.1//EN" "http://www.w3.org/Graphics/SVG/1.1/DTD/svg11.dtd">
<svg version="1.1" id="Layer_1" xmlns="http://www.w3.org/2000/svg" xmlns:xlink="http://www.w3.org/1999/xlink" x="0px" y="0px"
	 width="448.747px" height="616.439px" viewBox="0 0 448.747 616.439" enable-background="new 0 0 448.747 616.439"
	 xml:space="preserve">
<rect x="0.5" y="0.5" fill="#FFFFFF" stroke="#C68D06" stroke-miterlimit="10" width="447.747" height="615.439"/>
<g>
	<rect x="80.217" y="157.966" fill="#C0DDE7" width="281.738" height="7.199"/>
</g>
<g>
	<rect x="80.217" y="171.88" fill="#C0DDE7" width="281.738" height="7.199"/>
</g>
<g>
	<rect x="80.217" y="185.793" fill="#C0DDE7" width="281.738" height="7.2"/>
</g>
<g>
	<rect x="80.217" y="199.708" fill="#C0DDE7" width="281.738" height="7.199"/>
</g>
<g>
	<rect x="80.217" y="213.622" fill="#C0DDE7" width="281.738" height="7.199"/>
</g>
<g>
	<rect x="80.217" y="227.536" fill="#C0DDE7" width="281.738" height="7.199"/>
</g>
<g>
	<rect x="80.217" y="241.449" fill="#C0DDE7" width="281.738" height="7.199"/>
</g>
<g>
	<rect x="80.217" y="255.362" fill="#C0DDE7" width="281.738" height="7.2"/>
</g>
<g>
	<rect x="80.217" y="269.277" fill="#C0DDE7" width="281.738" height="7.199"/>
</g>
<g>
	<rect x="80.217" y="283.19" fill="#C0DDE7" width="281.738" height="7.2"/>
</g>
<g>
	<rect x="80.217" y="297.104" fill="#C0DDE7" width="281.738" height="7.2"/>
</g>
<g>
	<rect x="80.217" y="311.018" fill="#C0DDE7" width="281.738" height="7.2"/>
</g>
<g>
	<rect x="80.217" y="324.932" fill="#C0DDE7" width="281.738" height="7.199"/>
</g>
<g>
	<rect x="80.217" y="338.846" fill="#C0DDE7" width="281.738" height="7.2"/>
</g>
<g>
	<rect x="80.217" y="352.759" fill="#C0DDE7" width="281.738" height="7.201"/>
</g>
<g>
	<rect x="80.217" y="366.673" fill="#C0DDE7" width="281.738" height="7.2"/>
</g>
<g>
	<rect x="80.217" y="380.587" fill="#C0DDE7" width="281.738" height="7.199"/>
</g>
<g>
	<rect x="80.217" y="394.501" fill="#C0DDE7" width="281.738" height="7.199"/>
</g>
<g>
	<rect x="80.217" y="408.415" fill="#C0DDE7" width="281.738" height="7.199"/>
</g>
<g>
	<rect x="80.217" y="422.329" fill="#C0DDE7" width="281.738" height="7.2"/>
</g>
<g>
	<rect x="80.217" y="436.242" fill="#C0DDE7" width="281.738" height="7.2"/>
</g>
<g>
	<rect x="80.217" y="450.157" fill="#C0DDE7" width="281.738" height="7.2"/>
</g>
<g>
	<rect x="80.217" y="464.07" fill="#C0DDE7" width="281.738" height="7.199"/>
</g>
<g>
	<rect x="80.217" y="477.984" fill="#C0DDE7" width="281.738" height="7.2"/>
</g>
<g>
	<rect x="80.217" y="60.569" fill="#C0DDE7" width="281.738" height="7.2"/>
</g>
<g>
	<rect x="80.217" y="74.483" fill="#C0DDE7" width="281.738" height="7.201"/>
</g>
<g>
	<rect x="80.217" y="144.052" fill="#C0DDE7" width="281.738" height="7.2"/>
</g>
<g>
	<rect x="80.217" y="88.397" fill="#C0DDE7" width="281.738" height="7.199"/>
</g>
<g>
	<rect x="80.217" y="102.311" fill="#C0DDE7" width="281.738" height="7.201"/>
</g>
<g>
	<rect x="80.217" y="116.225" fill="#C0DDE7" width="281.738" height="7.199"/>
</g>
<g>
	<rect x="80.217" y="130.139" fill="#C0DDE7" width="281.738" height="7.198"/>
</g>
<g>
	<path fill="#C68D06" d="M346.085,579.894h4.865v-20.967c-1.26,0.665-3.29,1.189-4.796,1.189v-2.205
		c1.995-0.07,3.78-0.595,4.936-1.68h2.311v23.663h4.41v2.24h-11.726V579.894z"/>
	<path fill="#C68D06" d="M364.005,575.868c0-3.64,2.59-5.636,6.86-7.491c-3.535-1.575-5.671-3.255-5.671-6.405
		c0-3.186,2.976-6.266,8.052-6.266c5.18,0,8.016,3.08,8.016,6.266c0,3.08-2.065,4.69-5.741,6.336
		c4.411,1.925,6.931,3.78,6.931,7.561c0,3.675-3.395,6.791-9.205,6.791C367.4,582.659,364.005,579.613,364.005,575.868z
		 M380.001,575.729c0-2.905-2.45-4.516-6.896-6.371c-4.585,2.03-6.65,3.605-6.65,6.371c0,2.835,2.835,4.83,6.791,4.83
		C377.166,580.559,380.001,578.668,380.001,575.729z M378.846,562.078c0-2.066-1.715-4.271-5.6-4.271
		c-3.711,0-5.636,2.1-5.636,4.165c0,2.45,1.785,3.676,5.74,5.391C377.236,565.682,378.846,564.492,378.846,562.078z"/>
	<path fill="#C68D06" d="M388.609,556.231h2.556l7.735,22.612h0.07l7.771-22.612h2.416l-9.102,26.008h-2.345L388.609,556.231z"/>
</g>
<g>
	<g>
		<polygon fill="#7C5904" points="218.39,151.252 80.32,151.252 80.32,144.052 218.39,144.052 222.539,147.652 		"/>
	</g>
	<g>
		<polygon fill="#7C5904" points="223.781,144.052 361.851,144.052 361.851,151.252 223.781,151.252 227.929,147.652 		"/>
	</g>
</g>
<g>
	<g>
		<polygon fill="#7C5904" points="218.39,165.166 80.32,165.166 80.32,157.965 218.39,157.965 222.539,161.564 		"/>
	</g>
	<g>
		<polygon fill="#7C5904" points="223.781,157.965 361.851,157.965 361.851,165.166 223.781,165.166 227.929,161.564 		"/>
	</g>
</g>
<g>
	<g>
		<polygon fill="#7C5904" points="218.39,95.596 80.32,95.596 80.32,88.397 218.39,88.397 222.539,91.997 		"/>
	</g>
	<g>
		<polygon fill="#7C5904" points="223.781,88.397 361.851,88.397 361.851,95.596 223.781,95.596 227.929,91.997 		"/>
	</g>
</g>
<g>
	<g>
		<polygon fill="#7C5904" points="218.39,109.511 80.32,109.511 80.32,102.312 218.39,102.312 222.539,105.91 		"/>
	</g>
	<g>
		<polygon fill="#7C5904" points="223.781,102.312 361.851,102.312 361.851,109.511 223.781,109.511 227.929,105.91 		"/>
	</g>
</g>
<g>
	<g>
		<polygon fill="#7C5904" points="218.39,123.424 80.32,123.424 80.32,116.224 218.39,116.224 222.539,119.823 		"/>
	</g>
	<g>
		<polygon fill="#7C5904" points="223.781,116.224 361.851,116.224 361.851,123.424 223.781,123.424 227.929,119.823 		"/>
	</g>
</g>
<g>
	<g>
		<polygon fill="#7C5904" points="218.39,137.337 80.32,137.337 80.32,130.138 218.39,130.138 222.539,133.737 		"/>
	</g>
	<g>
		<polygon fill="#7C5904" points="223.781,130.138 361.851,130.138 361.851,137.337 223.781,137.337 227.929,133.737 		"/>
	</g>
</g>
<g>
	<g>
		<polygon fill="#7C5904" points="218.39,179.079 80.32,179.079 80.32,171.88 218.39,171.88 222.539,175.48 		"/>
	</g>
	<g>
		<polygon fill="#7C5904" points="223.781,171.88 361.851,171.88 361.851,179.079 223.781,179.079 227.93,175.48 		"/>
	</g>
</g>
<g>
	<g>
		<polygon fill="#7C5904" points="218.39,262.562 80.32,262.562 80.32,255.362 218.39,255.362 222.539,258.961 		"/>
	</g>
	<g>
		<polygon fill="#7C5904" points="223.781,255.362 361.851,255.362 361.851,262.562 223.781,262.562 227.929,258.961 		"/>
	</g>
</g>
<g>
	<g>
		<polygon fill="#7C5904" points="218.39,276.476 80.32,276.476 80.32,269.277 218.39,269.277 222.539,272.876 		"/>
	</g>
	<g>
		<polygon fill="#7C5904" points="223.781,269.277 361.851,269.277 361.851,276.476 223.781,276.476 227.929,272.876 		"/>
	</g>
</g>
<g>
	<g>
		<polygon fill="#7C5904" points="218.39,206.907 80.32,206.907 80.32,199.708 218.39,199.708 222.539,203.307 		"/>
	</g>
	<g>
		<polygon fill="#7C5904" points="223.781,199.708 361.851,199.708 361.851,206.907 223.781,206.907 227.929,203.307 		"/>
	</g>
</g>
<g>
	<g>
		<polygon fill="#7C5904" points="218.39,220.821 80.32,220.821 80.32,213.622 218.39,213.622 222.539,217.22 		"/>
	</g>
	<g>
		<polygon fill="#7C5904" points="223.781,213.622 361.851,213.622 361.851,220.821 223.781,220.821 227.929,217.22 		"/>
	</g>
</g>
<g>
	<g>
		<polygon fill="#7C5904" points="218.39,234.735 80.32,234.735 80.32,227.536 218.39,227.536 222.539,231.134 		"/>
	</g>
	<g>
		<polygon fill="#7C5904" points="223.781,227.536 361.851,227.536 361.851,234.735 223.781,234.735 227.929,231.134 		"/>
	</g>
</g>
<g>
	<g>
		<polygon fill="#7C5904" points="218.39,248.649 80.32,248.649 80.32,241.449 218.39,241.449 222.539,245.049 		"/>
	</g>
	<g>
		<polygon fill="#7C5904" points="223.781,241.449 361.851,241.449 361.851,248.649 223.781,248.649 227.929,245.049 		"/>
	</g>
</g>
<g>
	<g>
		<polygon fill="#7C5904" points="218.39,290.542 80.32,290.542 80.32,283.343 218.39,283.343 222.539,286.943 		"/>
	</g>
	<g>
		<polygon fill="#7C5904" points="223.781,283.343 361.852,283.343 361.852,290.542 223.781,290.542 227.93,286.943 		"/>
	</g>
</g>
<g>
	<g>
		<polygon fill="#7C5904" points="218.39,374.147 80.32,374.147 80.32,366.948 218.39,366.948 222.539,370.547 		"/>
	</g>
	<g>
		<polygon fill="#7C5904" points="223.781,366.948 361.851,366.948 361.851,374.147 223.781,374.147 227.929,370.547 		"/>
	</g>
</g>
<g>
	<g>
		<polygon fill="#7C5904" points="218.39,387.787 80.32,387.787 80.32,380.587 218.39,380.587 222.539,384.187 		"/>
	</g>
	<g>
		<polygon fill="#7C5904" points="223.781,380.587 361.851,380.587 361.851,387.787 223.781,387.787 227.929,384.187 		"/>
	</g>
</g>
<g>
	<g>
		<polygon fill="#7C5904" points="218.39,318.411 80.32,318.411 80.32,311.211 218.39,311.211 222.539,314.811 		"/>
	</g>
	<g>
		<polygon fill="#7C5904" points="223.781,311.211 361.851,311.211 361.851,318.411 223.781,318.411 227.929,314.811 		"/>
	</g>
</g>
<g>
	<g>
		<polygon fill="#7C5904" points="218.39,332.345 80.32,332.345 80.32,325.146 218.39,325.146 222.539,328.744 		"/>
	</g>
	<g>
		<polygon fill="#7C5904" points="223.781,325.146 361.851,325.146 361.851,332.345 223.781,332.345 227.929,328.744 		"/>
	</g>
</g>
<g>
	<g>
		<polygon fill="#7C5904" points="218.39,346.279 80.32,346.279 80.32,339.079 218.39,339.079 222.539,342.679 		"/>
	</g>
	<g>
		<polygon fill="#7C5904" points="223.781,339.079 361.851,339.079 361.851,346.279 223.781,346.279 227.929,342.679 		"/>
	</g>
</g>
<g>
	<g>
		<polygon fill="#7C5904" points="218.39,360.213 80.32,360.213 80.32,353.014 218.39,353.014 222.539,356.613 		"/>
	</g>
	<g>
		<polygon fill="#7C5904" points="223.781,353.014 361.851,353.014 361.851,360.213 223.781,360.213 227.929,356.613 		"/>
	</g>
</g>
<g>
	<g>
		<polygon fill="#7C5904" points="218.39,401.542 80.32,401.542 80.32,394.343 218.39,394.343 222.539,397.942 		"/>
	</g>
	<g>
		<polygon fill="#7C5904" points="223.781,394.343 361.852,394.343 361.852,401.542 223.781,401.542 227.93,397.942 		"/>
	</g>
</g>
<g>
	<path fill="#C63706" d="M59.814,78.16h7.861c0.876,0,1.681,0.137,2.415,0.41s1.366,0.641,1.898,1.105
		c0.532,0.465,0.947,1,1.247,1.606s0.449,1.239,0.449,1.897c0,0.794-0.118,1.537-0.354,2.23c-0.236,0.692-0.601,1.293-1.095,1.802
		c-0.494,0.509-1.119,0.912-1.875,1.207c-0.756,0.296-1.651,0.445-2.684,0.445h-2.37v3.245h1.561v3.077h-7.053v-3.077h1.763v-10.86
		h-1.763V78.16z M65.306,81.248v4.571h1.539c0.854,0,1.531-0.18,2.033-0.539c0.501-0.36,0.752-0.929,0.752-1.708
		c0-0.726-0.236-1.295-0.708-1.707s-1.164-0.618-2.078-0.618H65.306z"/>
</g>
<g>
	<path fill="#398EB0" d="M63.318,206.495c-0.958-0.194-1.844-0.552-2.656-1.072c-0.812-0.521-1.517-1.162-2.111-1.925
		c-0.596-0.764-1.06-1.627-1.393-2.589c-0.333-0.962-0.5-1.982-0.5-3.061c0-0.816,0.097-1.601,0.292-2.353
		c0.195-0.753,0.468-1.456,0.82-2.111s0.777-1.251,1.275-1.786c0.498-0.535,1.052-0.993,1.662-1.376
		c0.61-0.381,1.267-0.677,1.971-0.887c0.704-0.21,1.441-0.314,2.212-0.314s1.51,0.104,2.218,0.314
		c0.707,0.209,1.366,0.506,1.977,0.887c0.61,0.383,1.164,0.841,1.662,1.376c0.497,0.535,0.924,1.131,1.28,1.786
		c0.355,0.655,0.63,1.358,0.825,2.111c0.195,0.752,0.292,1.536,0.292,2.353c0,1.093-0.172,2.126-0.517,3.1s-0.822,1.846-1.432,2.617
		c-0.61,0.771-1.335,1.416-2.173,1.931c-0.838,0.518-1.748,0.861-2.729,1.034c0.232,0.098,0.462,0.204,0.69,0.32
		c0.229,0.116,0.459,0.225,0.691,0.326c0.232,0.101,0.462,0.187,0.691,0.258c0.228,0.071,0.462,0.11,0.702,0.119
		c0.232,0,0.458-0.031,0.679-0.09c0.221-0.06,0.421-0.153,0.601-0.28c0.18-0.128,0.335-0.293,0.466-0.494
		c0.131-0.203,0.219-0.449,0.264-0.742l2.504,1.247c-0.067,0.547-0.223,1.041-0.466,1.482c-0.243,0.441-0.556,0.82-0.938,1.134
		c-0.382,0.314-0.816,0.559-1.303,0.73c-0.487,0.172-1.003,0.257-1.55,0.257c-0.442,0-0.885-0.084-1.331-0.252
		c-0.445-0.168-0.876-0.352-1.291-0.55c-0.416-0.199-0.807-0.382-1.174-0.55c-0.367-0.169-0.689-0.253-0.966-0.253
		c-0.12,0-0.227-0.002-0.32-0.006c-0.093-0.004-0.185-0.004-0.275,0s-0.189,0.016-0.297,0.035c-0.109,0.018-0.234,0.053-0.376,0.106
		L63.318,206.495z M64.89,203.138c0.651,0,1.249-0.14,1.792-0.422c0.542-0.28,1.009-0.662,1.397-1.146
		c0.39-0.482,0.691-1.043,0.904-1.685c0.214-0.64,0.32-1.319,0.32-2.038c0-0.726-0.108-1.411-0.326-2.056
		c-0.217-0.644-0.522-1.207-0.916-1.689c-0.393-0.483-0.859-0.865-1.398-1.146c-0.539-0.281-1.13-0.421-1.774-0.421
		s-1.235,0.14-1.774,0.421c-0.54,0.28-1.003,0.662-1.393,1.146c-0.389,0.482-0.694,1.046-0.916,1.689
		c-0.221,0.645-0.331,1.33-0.331,2.056c0,0.719,0.11,1.398,0.331,2.038c0.221,0.641,0.526,1.202,0.916,1.685
		c0.389,0.483,0.853,0.866,1.393,1.146C63.655,202.998,64.246,203.138,64.89,203.138z"/>
</g>
<g>
	<path fill="#C63706" d="M69.742,305.868c-0.038-0.262-0.129-0.509-0.275-0.741c-0.146-0.231-0.333-0.432-0.562-0.601
		c-0.228-0.168-0.486-0.301-0.774-0.399c-0.289-0.097-0.59-0.146-0.904-0.146c-0.285,0-0.55,0.03-0.797,0.09
		c-0.247,0.061-0.462,0.152-0.646,0.276c-0.183,0.124-0.329,0.283-0.438,0.477c-0.109,0.194-0.163,0.427-0.163,0.696
		c0,0.337,0.073,0.604,0.219,0.803c0.146,0.198,0.333,0.361,0.562,0.489c0.229,0.128,0.481,0.228,0.758,0.303
		s0.546,0.157,0.809,0.247l3.088,1.034c0.427,0.148,0.828,0.355,1.202,0.617c0.375,0.263,0.698,0.581,0.971,0.955
		c0.273,0.374,0.489,0.805,0.646,1.291c0.157,0.487,0.236,1.033,0.236,1.641c0,0.824-0.151,1.575-0.455,2.257
		c-0.303,0.681-0.728,1.265-1.274,1.751s-1.202,0.864-1.965,1.134c-0.764,0.27-1.61,0.404-2.538,0.404
		c-0.651,0-1.267-0.072-1.847-0.218c-0.581-0.146-1.11-0.358-1.589-0.635s-0.898-0.608-1.258-0.994s-0.64-0.822-0.842-1.309h-1.157
		v-3.38h4.065v0.695c0,0.338,0.054,0.648,0.163,0.933c0.109,0.284,0.271,0.531,0.489,0.742c0.217,0.209,0.49,0.372,0.82,0.488
		c0.33,0.117,0.715,0.174,1.157,0.174c0.674,0,1.187-0.156,1.539-0.466s0.528-0.743,0.528-1.297c0-0.284-0.062-0.522-0.185-0.713
		c-0.124-0.191-0.283-0.353-0.478-0.483s-0.412-0.241-0.651-0.331c-0.24-0.09-0.476-0.172-0.708-0.248l-2.572-0.831
		c-0.486-0.149-0.956-0.359-1.409-0.629c-0.453-0.27-0.854-0.606-1.202-1.011c-0.348-0.404-0.625-0.878-0.831-1.421
		c-0.206-0.542-0.309-1.162-0.309-1.858c0-0.808,0.15-1.529,0.45-2.162s0.718-1.167,1.257-1.6c0.54-0.435,1.18-0.764,1.921-0.989
		s1.554-0.338,2.437-0.338c0.696,0,1.34,0.081,1.932,0.243c0.591,0.161,1.121,0.375,1.589,0.645c0.468,0.27,0.865,0.578,1.19,0.927
		c0.326,0.348,0.575,0.709,0.747,1.084h1.123v3.391h-4.065V305.868z"/>
</g>
<g>
	<g>
		<polygon fill="#7C5904" points="223.678,60.57 361.749,60.57 361.749,67.769 223.678,67.769 227.825,64.168 		"/>
	</g>
	<g>
		<polygon fill="#7C5904" points="222.436,64.168 218.287,60.57 218.287,60.57 218.287,60.57 80.217,60.57 84.365,64.168 
			80.217,67.769 218.287,67.769 218.287,67.769 218.287,67.768 		"/>
	</g>
</g>
</svg>
