<?xml version="1.0" encoding="utf-8"?>
<!-- Generator: Adobe Illustrator 16.0.4, SVG Export Plug-In . SVG Version: 6.00 Build 0)  -->
<!DOCTYPE svg PUBLIC "-//W3C//DTD SVG 1.1//EN" "http://www.w3.org/Graphics/SVG/1.1/DTD/svg11.dtd">
<svg version="1.1" id="Layer_1" xmlns="http://www.w3.org/2000/svg" xmlns:xlink="http://www.w3.org/1999/xlink" x="0px" y="0px"
	 width="448.747px" height="616.44px" viewBox="0 0 448.747 616.44" enable-background="new 0 0 448.747 616.44"
	 xml:space="preserve">
<rect x="0.5" y="0.5" fill="#FFFFFF" stroke="#C68D06" stroke-miterlimit="10" width="447.747" height="615.44"/>
<g>
	<path fill="#C68D06" d="M346.729,578.143h4.865v-20.967c-1.26,0.665-3.29,1.189-4.796,1.189v-2.205
		c1.995-0.07,3.78-0.595,4.936-1.68h2.311v23.662h4.41v2.24h-11.726V578.143z"/>
	<path fill="#C68D06" d="M365.909,578.562l1.26-1.855c1.506,1.226,2.871,1.996,5.426,1.996c4.726,0,7.631-5.006,7.631-11.482
		c-1.646,1.785-4.061,3.465-7.351,3.465c-5.461,0-8.086-3.396-8.086-8.086c0-4.901,3.465-8.611,8.681-8.611
		c5.11,0,9.171,4.096,9.171,12.987c0,7.981-4.165,13.897-10.116,13.897C369.515,580.873,367.379,579.857,365.909,578.562z
		 M380.155,564.737c-0.524-6.021-3.395-8.576-6.825-8.576c-3.676,0-6.126,2.311-6.126,6.406c0,3.464,1.75,5.985,5.951,5.985
		C376.025,568.552,378.58,566.941,380.155,564.737z"/>
	<path fill="#C68D06" d="M389.358,554.48h2.556l7.735,22.613h0.07l7.771-22.613h2.416l-9.102,26.008h-2.345L389.358,554.48z"/>
</g>
<g>
	<rect x="79.884" y="158.719" fill="#C0DDE7" width="281.739" height="7.199"/>
</g>
<g>
	<rect x="79.884" y="172.633" fill="#C0DDE7" width="281.738" height="7.199"/>
</g>
<g>
	<rect x="79.875" y="186.547" fill="#C0DDE7" width="281.739" height="7.2"/>
</g>
<g>
	<rect x="79.884" y="200.46" fill="#C0DDE7" width="281.739" height="7.199"/>
</g>
<g>
	<rect x="79.884" y="214.374" fill="#C0DDE7" width="281.739" height="7.199"/>
</g>
<g>
	<rect x="79.884" y="228.287" fill="#C0DDE7" width="281.739" height="7.2"/>
</g>
<g>
	<rect x="79.884" y="242.202" fill="#C0DDE7" width="281.738" height="7.2"/>
</g>
<g>
	<rect x="79.884" y="256.115" fill="#C0DDE7" width="281.738" height="7.201"/>
</g>
<g>
	<rect x="79.884" y="270.029" fill="#C0DDE7" width="281.739" height="7.199"/>
</g>
<g>
	<rect x="79.884" y="283.943" fill="#C0DDE7" width="281.738" height="7.2"/>
</g>
<g>
	<rect x="79.884" y="297.856" fill="#C0DDE7" width="281.739" height="7.201"/>
</g>
<g>
	<rect x="79.884" y="311.771" fill="#C0DDE7" width="281.739" height="7.2"/>
</g>
<g>
	<rect x="79.884" y="325.686" fill="#C0DDE7" width="281.739" height="7.199"/>
</g>
<g>
	<rect x="79.884" y="339.599" fill="#C0DDE7" width="281.738" height="7.2"/>
</g>
<g>
	<rect x="79.884" y="353.512" fill="#C0DDE7" width="281.739" height="7.2"/>
</g>
<g>
	<rect x="79.884" y="367.426" fill="#C0DDE7" width="281.739" height="7.2"/>
</g>
<g>
	<rect x="79.884" y="381.341" fill="#C0DDE7" width="281.739" height="7.198"/>
</g>
<g>
	<rect x="79.884" y="395.254" fill="#C0DDE7" width="281.739" height="7.199"/>
</g>
<g>
	<rect x="79.884" y="409.168" fill="#C0DDE7" width="281.738" height="7.199"/>
</g>
<g>
	<rect x="79.884" y="423.082" fill="#C0DDE7" width="281.739" height="7.2"/>
</g>
<g>
	<rect x="79.884" y="436.995" fill="#C0DDE7" width="281.738" height="7.2"/>
</g>
<g>
	<rect x="79.884" y="450.909" fill="#C0DDE7" width="281.739" height="7.199"/>
</g>
<g>
	<rect x="79.884" y="464.823" fill="#C0DDE7" width="281.738" height="7.199"/>
</g>
<g>
	<rect x="79.884" y="478.736" fill="#C0DDE7" width="281.739" height="7.2"/>
</g>
<g>
	<rect x="79.884" y="61.321" fill="#C0DDE7" width="281.739" height="7.2"/>
</g>
<g>
	<rect x="79.884" y="75.235" fill="#C0DDE7" width="281.738" height="7.2"/>
</g>
<g>
	<rect x="79.884" y="144.805" fill="#C0DDE7" width="281.738" height="7.199"/>
</g>
<g>
	<rect x="79.884" y="89.15" fill="#C0DDE7" width="281.739" height="7.199"/>
</g>
<g>
	<rect x="79.884" y="103.064" fill="#C0DDE7" width="281.738" height="7.2"/>
</g>
<g>
	<rect x="79.884" y="116.978" fill="#C0DDE7" width="281.738" height="7.199"/>
</g>
<g>
	<rect x="79.884" y="130.892" fill="#C0DDE7" width="281.738" height="7.199"/>
</g>
<g>
	<g>
		<g>
			<g>
				<polygon fill="#7C5904" points="218.058,68.521 79.987,68.521 79.987,61.322 218.058,61.322 222.206,64.922 				"/>
			</g>
			<g>
				<polygon fill="#7C5904" points="223.448,61.322 361.519,61.322 361.519,68.521 223.448,68.521 227.596,64.922 				"/>
			</g>
		</g>
		<g>
			<g>
				<polygon fill="#7C5904" points="218.058,152.004 79.987,152.004 79.987,144.805 218.058,144.805 222.206,148.405 				"/>
			</g>
			<g>
				<polygon fill="#7C5904" points="223.448,144.805 361.519,144.805 361.519,152.004 223.448,152.004 227.596,148.405 				"/>
			</g>
		</g>
		<g>
			<g>
				<polygon fill="#7C5904" points="218.058,96.35 79.987,96.35 79.987,89.15 218.058,89.15 222.206,92.75 				"/>
			</g>
			<g>
				<polygon fill="#7C5904" points="223.448,89.15 361.519,89.15 361.519,96.35 223.448,96.35 227.596,92.75 				"/>
			</g>
		</g>
		<g>
			<g>
				<polygon fill="#7C5904" points="218.058,82.435 79.987,82.435 79.987,75.235 218.058,75.235 222.206,78.834 				"/>
			</g>
			<g>
				<polygon fill="#7C5904" points="223.448,75.235 361.519,75.235 361.519,82.435 223.448,82.435 227.596,78.834 				"/>
			</g>
		</g>
		<g>
			<g>
				<polygon fill="#7C5904" points="218.058,110.264 79.987,110.264 79.987,103.064 218.058,103.064 222.206,106.664 				"/>
			</g>
			<g>
				<polygon fill="#7C5904" points="223.448,103.064 361.519,103.064 361.519,110.264 223.448,110.264 227.596,106.664 				"/>
			</g>
		</g>
		<g>
			<g>
				<polygon fill="#7C5904" points="218.058,124.177 79.987,124.177 79.987,116.978 218.058,116.978 222.206,120.577 				"/>
			</g>
			<g>
				<polygon fill="#7C5904" points="223.448,116.978 361.519,116.978 361.519,124.177 223.448,124.177 227.596,120.577 				"/>
			</g>
		</g>
		<g>
			<g>
				<polygon fill="#7C5904" points="218.058,138.091 79.987,138.091 79.987,130.891 218.058,130.891 222.206,134.49 				"/>
			</g>
			<g>
				<polygon fill="#7C5904" points="223.448,130.891 361.519,130.891 361.519,138.091 223.448,138.091 227.596,134.49 				"/>
			</g>
		</g>
	</g>
	<g>
		<path fill="#C63706" d="M66.19,50.677h7.289v3.077h-1.797v10.872h1.797v3.077H66.19v-3.077h1.763V53.754H66.19V50.677z"/>
	</g>
</g>
<g>
	<g>
		<path fill="#398EB0" d="M69.492,167.138c-0.038-0.262-0.129-0.509-0.275-0.74c-0.146-0.232-0.333-0.433-0.562-0.601
			c-0.228-0.168-0.486-0.301-0.774-0.399c-0.289-0.098-0.59-0.146-0.904-0.146c-0.285,0-0.55,0.03-0.797,0.09
			c-0.247,0.061-0.462,0.152-0.646,0.275c-0.183,0.124-0.329,0.284-0.438,0.478c-0.109,0.194-0.163,0.427-0.163,0.696
			c0,0.337,0.073,0.604,0.219,0.803c0.146,0.198,0.333,0.361,0.562,0.489c0.229,0.127,0.481,0.228,0.758,0.303
			s0.546,0.157,0.809,0.247l3.088,1.034c0.427,0.149,0.828,0.355,1.202,0.617c0.375,0.263,0.698,0.581,0.971,0.955
			c0.273,0.374,0.489,0.805,0.646,1.291c0.157,0.487,0.236,1.033,0.236,1.641c0,0.823-0.151,1.575-0.455,2.257
			c-0.303,0.682-0.728,1.266-1.274,1.752c-0.546,0.486-1.202,0.864-1.965,1.134c-0.764,0.27-1.61,0.404-2.538,0.404
			c-0.651,0-1.267-0.072-1.847-0.218c-0.581-0.146-1.11-0.358-1.589-0.635c-0.479-0.276-0.898-0.607-1.258-0.993
			c-0.359-0.385-0.64-0.822-0.842-1.309h-1.157v-3.38h4.065v0.695c0,0.338,0.054,0.648,0.163,0.933
			c0.109,0.284,0.271,0.531,0.489,0.742c0.217,0.209,0.49,0.372,0.82,0.488c0.33,0.117,0.715,0.174,1.157,0.174
			c0.674,0,1.187-0.155,1.539-0.466s0.528-0.743,0.528-1.297c0-0.284-0.062-0.522-0.185-0.713c-0.124-0.191-0.283-0.353-0.478-0.483
			s-0.412-0.241-0.651-0.331c-0.24-0.09-0.476-0.172-0.708-0.248l-2.572-0.831c-0.486-0.149-0.956-0.359-1.409-0.629
			c-0.453-0.27-0.854-0.606-1.202-1.011c-0.348-0.404-0.625-0.878-0.831-1.421c-0.206-0.543-0.309-1.162-0.309-1.858
			c0-0.809,0.15-1.529,0.45-2.162c0.299-0.633,0.718-1.167,1.257-1.6c0.54-0.435,1.18-0.764,1.921-0.989
			c0.741-0.225,1.554-0.338,2.437-0.338c0.696,0,1.34,0.081,1.932,0.243c0.591,0.161,1.121,0.375,1.589,0.645
			c0.468,0.27,0.865,0.578,1.19,0.927c0.326,0.348,0.575,0.709,0.747,1.084h1.123v3.391h-4.065V167.138z"/>
	</g>
	<g>
		<g>
			<g>
				<polygon fill="#7C5904" points="218.058,193.746 79.987,193.746 79.987,186.546 218.058,186.546 222.206,190.146 				"/>
			</g>
			<g>
				<polygon fill="#7C5904" points="223.448,186.546 361.519,186.546 361.519,193.746 223.448,193.746 227.596,190.146 				"/>
			</g>
		</g>
		<g>
			<g>
				<polygon fill="#7C5904" points="218.058,179.832 79.987,179.832 79.987,172.633 218.058,172.633 222.206,176.232 				"/>
			</g>
			<g>
				<polygon fill="#7C5904" points="223.448,172.633 361.519,172.633 361.519,179.832 223.448,179.832 227.596,176.232 				"/>
			</g>
		</g>
		<g>
			<g>
				<polygon fill="#7C5904" points="218.058,207.659 79.987,207.659 79.987,200.46 218.058,200.46 222.206,204.059 				"/>
			</g>
			<g>
				<polygon fill="#7C5904" points="223.448,200.46 361.519,200.46 361.519,207.659 223.448,207.659 227.596,204.059 				"/>
			</g>
		</g>
		<g>
			<g>
				<polygon fill="#7C5904" points="218.058,235.486 79.987,235.486 79.987,228.287 218.058,228.287 222.206,231.886 				"/>
			</g>
			<g>
				<polygon fill="#7C5904" points="223.448,228.287 361.519,228.287 361.519,235.486 223.448,235.486 227.596,231.886 				"/>
			</g>
		</g>
		<g>
			<g>
				<polygon fill="#7C5904" points="218.161,221.573 80.091,221.573 80.091,214.374 218.161,214.374 222.31,217.974 				"/>
			</g>
			<g>
				<polygon fill="#7C5904" points="223.552,214.374 361.623,214.374 361.623,221.573 223.552,221.573 227.7,217.974 				"/>
			</g>
		</g>
		<g>
			<g>
				<polygon fill="#7C5904" points="218.058,249.401 79.987,249.401 79.987,242.202 218.058,242.202 222.206,245.801 				"/>
			</g>
			<g>
				<polygon fill="#7C5904" points="223.448,242.202 361.519,242.202 361.519,249.401 223.448,249.401 227.596,245.801 				"/>
			</g>
		</g>
		<g>
			<g>
				<polygon fill="#7C5904" points="218.058,263.314 79.987,263.314 79.987,256.115 218.058,256.115 222.206,259.714 				"/>
			</g>
			<g>
				<polygon fill="#7C5904" points="223.448,256.115 361.519,256.115 361.519,263.314 223.448,263.314 227.596,259.714 				"/>
			</g>
		</g>
	</g>
</g>
<g>
	<g>
		<path fill="#C63706" d="M64.797,291.671c-0.771,0-1.509-0.104-2.212-0.314c-0.704-0.208-1.361-0.505-1.971-0.887
			c-0.61-0.381-1.165-0.841-1.662-1.376c-0.498-0.535-0.923-1.13-1.275-1.785s-0.625-1.357-0.82-2.106
			c-0.195-0.748-0.292-1.53-0.292-2.346c0-0.817,0.097-1.601,0.292-2.353c0.195-0.753,0.468-1.456,0.82-2.111
			s0.777-1.251,1.275-1.786c0.498-0.535,1.052-0.993,1.662-1.375c0.61-0.381,1.267-0.677,1.971-0.887s1.441-0.314,2.212-0.314
			s1.51,0.104,2.218,0.314c0.707,0.21,1.366,0.506,1.977,0.887c0.61,0.382,1.164,0.84,1.662,1.375
			c0.498,0.535,0.924,1.131,1.28,1.786c0.355,0.655,0.63,1.358,0.825,2.111c0.194,0.752,0.292,1.536,0.292,2.353
			c0,0.808-0.098,1.588-0.292,2.341c-0.195,0.752-0.47,1.456-0.825,2.111c-0.356,0.655-0.783,1.25-1.28,1.785
			c-0.498,0.535-1.052,0.995-1.662,1.376c-0.61,0.382-1.27,0.678-1.977,0.887C66.308,291.566,65.568,291.671,64.797,291.671z
			 M64.797,288.146c0.651,0,1.249-0.141,1.792-0.422c0.542-0.28,1.009-0.662,1.398-1.146c0.389-0.482,0.691-1.044,0.904-1.685
			c0.214-0.64,0.32-1.319,0.32-2.038c0-0.727-0.108-1.412-0.326-2.056c-0.217-0.644-0.522-1.207-0.916-1.689
			c-0.393-0.483-0.859-0.865-1.398-1.146c-0.539-0.281-1.13-0.421-1.774-0.421s-1.235,0.14-1.774,0.421
			c-0.539,0.28-1.003,0.662-1.393,1.146c-0.389,0.482-0.694,1.046-0.916,1.689c-0.221,0.645-0.331,1.329-0.331,2.056
			c0,0.718,0.11,1.398,0.331,2.038c0.221,0.641,0.526,1.202,0.916,1.685c0.389,0.483,0.854,0.865,1.393,1.146
			C63.562,288.005,64.153,288.146,64.797,288.146z"/>
	</g>
	<g>
		<g>
			<g>
				<polygon fill="#7C5904" points="217.954,291.143 79.884,291.143 79.884,283.943 217.954,283.943 222.103,287.543 				"/>
			</g>
			<g>
				<polygon fill="#7C5904" points="223.345,283.943 361.415,283.943 361.415,291.143 223.345,291.143 227.492,287.543 				"/>
			</g>
		</g>
		<g>
			<g>
				<polygon fill="#7C5904" points="217.954,305.057 79.884,305.057 79.884,297.857 217.954,297.857 222.103,301.458 				"/>
			</g>
			<g>
				<polygon fill="#7C5904" points="223.345,297.857 361.415,297.857 361.415,305.057 223.345,305.057 227.492,301.458 				"/>
			</g>
		</g>
		<g>
			<g>
				<polygon fill="#7C5904" points="217.954,374.626 79.884,374.626 79.884,367.426 217.954,367.426 222.103,371.025 				"/>
			</g>
			<g>
				<polygon fill="#7C5904" points="223.345,367.426 361.415,367.426 361.415,374.626 223.345,374.626 227.492,371.025 				"/>
			</g>
		</g>
		<g>
			<g>
				<polygon fill="#7C5904" points="217.954,318.97 79.884,318.97 79.884,311.771 217.954,311.771 222.103,315.37 				"/>
			</g>
			<g>
				<polygon fill="#7C5904" points="223.345,311.771 361.415,311.771 361.415,318.97 223.345,318.97 227.492,315.37 				"/>
			</g>
		</g>
		<g>
			<g>
				<polygon fill="#7C5904" points="217.954,332.885 79.884,332.885 79.884,325.686 217.954,325.686 222.103,329.284 				"/>
			</g>
			<g>
				<polygon fill="#7C5904" points="223.345,325.686 361.415,325.686 361.415,332.885 223.345,332.885 227.492,329.284 				"/>
			</g>
		</g>
		<g>
			<g>
				<polygon fill="#7C5904" points="217.954,346.798 79.884,346.798 79.884,339.598 217.954,339.598 222.103,343.197 				"/>
			</g>
			<g>
				<polygon fill="#7C5904" points="223.345,339.598 361.415,339.598 361.415,346.798 223.345,346.798 227.492,343.197 				"/>
			</g>
		</g>
		<g>
			<g>
				<polygon fill="#7C5904" points="217.954,360.712 79.884,360.712 79.884,353.512 217.954,353.512 222.103,357.111 				"/>
			</g>
			<g>
				<polygon fill="#7C5904" points="223.345,353.512 361.415,353.512 361.415,360.712 223.345,360.712 227.492,357.111 				"/>
			</g>
		</g>
	</g>
</g>
<g>
	<g>
		<path fill="#398EB0" d="M66.19,386.01h7.289v3.077h-1.797v10.871h1.797v3.077H66.19v-3.077h1.763v-10.871H66.19V386.01z"/>
	</g>
	<g>
		<g>
			<g>
				<polygon fill="#7C5904" points="217.954,402.454 79.884,402.454 79.884,395.255 217.954,395.255 222.103,398.854 				"/>
			</g>
			<g>
				<polygon fill="#7C5904" points="223.345,395.255 361.415,395.255 361.415,402.454 223.345,402.454 227.492,398.854 				"/>
			</g>
		</g>
		<g>
			<g>
				<polygon fill="#7C5904" points="217.954,416.368 79.884,416.368 79.884,409.169 217.954,409.169 222.103,412.769 				"/>
			</g>
			<g>
				<polygon fill="#7C5904" points="223.345,409.169 361.415,409.169 361.415,416.368 223.345,416.368 227.492,412.769 				"/>
			</g>
		</g>
		<g>
			<g>
				<polygon fill="#7C5904" points="217.954,485.937 79.884,485.937 79.884,478.737 217.954,478.737 222.103,482.337 				"/>
			</g>
			<g>
				<polygon fill="#7C5904" points="223.345,478.737 361.415,478.737 361.415,485.937 223.345,485.937 227.492,482.337 				"/>
			</g>
		</g>
		<g>
			<g>
				<polygon fill="#7C5904" points="217.954,430.281 79.884,430.281 79.884,423.082 217.954,423.082 222.103,426.682 				"/>
			</g>
			<g>
				<polygon fill="#7C5904" points="223.345,423.082 361.415,423.082 361.415,430.281 223.345,430.281 227.492,426.682 				"/>
			</g>
		</g>
		<g>
			<g>
				<polygon fill="#7C5904" points="217.954,444.197 79.884,444.197 79.884,436.998 217.954,436.998 222.103,440.596 				"/>
			</g>
			<g>
				<polygon fill="#7C5904" points="223.345,436.998 361.415,436.998 361.415,444.197 223.345,444.197 227.492,440.596 				"/>
			</g>
		</g>
		<g>
			<g>
				<polygon fill="#7C5904" points="217.954,458.109 79.884,458.109 79.884,450.909 217.954,450.909 222.103,454.509 				"/>
			</g>
			<g>
				<polygon fill="#7C5904" points="223.345,450.909 361.415,450.909 361.415,458.109 223.345,458.109 227.492,454.509 				"/>
			</g>
		</g>
		<g>
			<g>
				<polygon fill="#7C5904" points="217.954,472.024 79.884,472.024 79.884,464.823 217.954,464.823 222.103,468.423 				"/>
			</g>
			<g>
				<polygon fill="#7C5904" points="223.345,464.823 361.415,464.823 361.415,472.024 223.345,472.024 227.492,468.423 				"/>
			</g>
		</g>
	</g>
</g>
</svg>
