<?xml version="1.0" encoding="utf-8"?>
<!-- Generator: Adobe Illustrator 16.0.4, SVG Export Plug-In . SVG Version: 6.00 Build 0)  -->
<!DOCTYPE svg PUBLIC "-//W3C//DTD SVG 1.1//EN" "http://www.w3.org/Graphics/SVG/1.1/DTD/svg11.dtd">
<svg version="1.1" id="Layer_1" xmlns="http://www.w3.org/2000/svg" xmlns:xlink="http://www.w3.org/1999/xlink" x="0px" y="0px"
	 width="448.746px" height="616.439px" viewBox="0 0 448.746 616.439" enable-background="new 0 0 448.746 616.439"
	 xml:space="preserve">
<rect x="0.5" y="0.5" fill="#FFFFFF" stroke="#C68D06" stroke-miterlimit="10" width="447.746" height="615.439"/>
<g>
	<path fill="#C68D06" d="M344.511,579.894h4.865v-20.967c-1.26,0.665-3.29,1.189-4.796,1.189v-2.205
		c1.995-0.07,3.78-0.595,4.936-1.68h2.311v23.663h4.41v2.24h-11.726V579.894z"/>
	<path fill="#C68D06" d="M363.691,580.313l1.26-1.855c1.506,1.226,2.871,1.996,5.426,1.996c4.726,0,7.631-5.006,7.631-11.481
		c-1.646,1.785-4.061,3.465-7.351,3.465c-5.461,0-8.086-3.396-8.086-8.085c0-4.9,3.466-8.611,8.681-8.611
		c5.11,0,9.171,4.095,9.171,12.987c0,7.98-4.165,13.896-10.116,13.896C367.296,582.624,365.161,581.608,363.691,580.313z
		 M377.937,566.487c-0.524-6.021-3.395-8.576-6.825-8.576c-3.676,0-6.126,2.311-6.126,6.406c0,3.465,1.75,5.986,5.951,5.986
		C373.807,570.303,376.362,568.692,377.937,566.487z"/>
	<path fill="#C68D06" d="M389.206,556.231h8.681c5.776,0,8.996,2.45,8.996,7c0,4.201-2.45,6.301-6.195,7.001l6.546,11.901h-2.801
		l-6.336-11.621h-6.44v11.621h-2.45V556.231z M397.711,568.308c4.271,0,6.686-1.226,6.686-4.971c0-3.57-2.38-4.831-6.721-4.831
		h-6.021v9.802H397.711z"/>
</g>
<g>
	<rect x="80.216" y="157.966" fill="#C0DDE7" width="281.738" height="7.199"/>
</g>
<g>
	<rect x="80.182" y="171.879" fill="#C0DDE7" width="281.738" height="7.199"/>
</g>
<g>
	<rect x="80.181" y="185.793" fill="#C0DDE7" width="281.739" height="7.2"/>
</g>
<g>
	<rect x="80.181" y="199.708" fill="#C0DDE7" width="281.739" height="7.199"/>
</g>
<g>
	<rect x="80.181" y="213.622" fill="#C0DDE7" width="281.739" height="7.199"/>
</g>
<g>
	<rect x="80.181" y="227.536" fill="#C0DDE7" width="281.739" height="7.199"/>
</g>
<g>
	<rect x="80.182" y="241.449" fill="#C0DDE7" width="281.738" height="7.2"/>
</g>
<g>
	<rect x="80.182" y="255.362" fill="#C0DDE7" width="281.738" height="7.2"/>
</g>
<g>
	<rect x="80.181" y="269.277" fill="#C0DDE7" width="281.739" height="7.199"/>
</g>
<g>
	<rect x="80.182" y="283.19" fill="#C0DDE7" width="281.738" height="7.201"/>
</g>
<g>
	<rect x="80.181" y="297.104" fill="#C0DDE7" width="281.739" height="7.2"/>
</g>
<g>
	<rect x="80.181" y="311.018" fill="#C0DDE7" width="281.739" height="7.2"/>
</g>
<g>
	<rect x="80.181" y="324.932" fill="#C0DDE7" width="281.739" height="7.199"/>
</g>
<g>
	<rect x="80.182" y="338.845" fill="#C0DDE7" width="281.738" height="7.2"/>
</g>
<g>
	<rect x="80.181" y="352.759" fill="#C0DDE7" width="281.739" height="7.201"/>
</g>
<g>
	<rect x="80.181" y="366.673" fill="#C0DDE7" width="281.739" height="7.2"/>
</g>
<g>
	<rect x="80.181" y="380.587" fill="#C0DDE7" width="281.739" height="7.199"/>
</g>
<g>
	<rect x="80.181" y="394.501" fill="#C0DDE7" width="281.739" height="7.199"/>
</g>
<g>
	<rect x="80.182" y="408.415" fill="#C0DDE7" width="281.738" height="7.199"/>
</g>
<g>
	<rect x="80.181" y="422.329" fill="#C0DDE7" width="281.739" height="7.2"/>
</g>
<g>
	<rect x="80.182" y="436.242" fill="#C0DDE7" width="281.738" height="7.2"/>
</g>
<g>
	<rect x="80.181" y="450.157" fill="#C0DDE7" width="281.739" height="7.2"/>
</g>
<g>
	<rect x="80.182" y="464.07" fill="#C0DDE7" width="281.738" height="7.199"/>
</g>
<g>
	<rect x="80.181" y="477.984" fill="#C0DDE7" width="281.739" height="7.2"/>
</g>
<g>
	<rect x="80.181" y="60.569" fill="#C0DDE7" width="281.739" height="7.2"/>
</g>
<g>
	<rect x="80.182" y="74.483" fill="#C0DDE7" width="281.738" height="7.201"/>
</g>
<g>
	<rect x="80.182" y="144.052" fill="#C0DDE7" width="281.738" height="7.2"/>
</g>
<g>
	<rect x="80.181" y="88.397" fill="#C0DDE7" width="281.739" height="7.199"/>
</g>
<g>
	<rect x="80.182" y="102.31" fill="#C0DDE7" width="281.738" height="7.2"/>
</g>
<g>
	<rect x="80.182" y="116.224" fill="#C0DDE7" width="281.738" height="7.199"/>
</g>
<g>
	<rect x="80.182" y="130.138" fill="#C0DDE7" width="281.738" height="7.199"/>
</g>
<g>
	<g>
		<g>
			<g>
				<polygon fill="#7C5904" points="218.39,401.702 80.32,401.702 80.32,394.501 218.39,394.501 222.539,398.102 				"/>
			</g>
			<g>
				<polygon fill="#7C5904" points="223.78,394.501 361.851,394.501 361.851,401.702 223.78,401.702 227.928,398.102 				"/>
			</g>
		</g>
		<g>
			<g>
				<polygon fill="#7C5904" points="218.39,415.615 80.32,415.615 80.32,408.417 218.39,408.417 222.539,412.016 				"/>
			</g>
			<g>
				<polygon fill="#7C5904" points="223.78,408.417 361.851,408.417 361.851,415.615 223.78,415.615 227.928,412.016 				"/>
			</g>
		</g>
		<g>
			<g>
				<polygon fill="#7C5904" points="218.39,485.184 80.32,485.184 80.32,477.985 218.39,477.985 222.539,481.584 				"/>
			</g>
			<g>
				<polygon fill="#7C5904" points="223.78,477.985 361.851,477.985 361.851,485.184 223.78,485.184 227.928,481.584 				"/>
			</g>
		</g>
		<g>
			<g>
				<polygon fill="#7C5904" points="218.39,429.529 80.32,429.529 80.32,422.33 218.39,422.33 222.539,425.929 				"/>
			</g>
			<g>
				<polygon fill="#7C5904" points="223.78,422.33 361.851,422.33 361.851,429.529 223.78,429.529 227.928,425.929 				"/>
			</g>
		</g>
		<g>
			<g>
				<polygon fill="#7C5904" points="218.39,443.443 80.32,443.443 80.32,436.244 218.39,436.244 222.539,439.843 				"/>
			</g>
			<g>
				<polygon fill="#7C5904" points="223.78,436.244 361.851,436.244 361.851,443.443 223.78,443.443 227.928,439.843 				"/>
			</g>
		</g>
		<g>
			<g>
				<polygon fill="#7C5904" points="218.39,457.356 80.32,457.356 80.32,450.157 218.39,450.157 222.539,453.756 				"/>
			</g>
			<g>
				<polygon fill="#7C5904" points="223.78,450.157 361.851,450.157 361.851,457.356 223.78,457.356 227.928,453.756 				"/>
			</g>
		</g>
		<g>
			<g>
				<polygon fill="#7C5904" points="218.39,471.271 80.32,471.271 80.32,464.07 218.39,464.07 222.539,467.669 				"/>
			</g>
			<g>
				<polygon fill="#7C5904" points="223.78,464.07 361.851,464.07 361.851,471.271 223.78,471.271 227.928,467.669 				"/>
			</g>
		</g>
	</g>
	<g>
		<path fill="#C63706" d="M66.59,384.332h7.289v3.078h-1.797v10.871h1.797v3.077H66.59v-3.077h1.763V387.41H66.59V384.332z"/>
	</g>
</g>
<g>
	<path fill="#C63706" d="M69.284,55.207c-0.419-0.6-0.797-1.024-1.134-1.275c-0.337-0.251-0.7-0.431-1.089-0.539
		s-0.797-0.162-1.224-0.162c-0.629,0-1.213,0.14-1.752,0.421c-0.539,0.28-1.005,0.662-1.398,1.146
		c-0.394,0.482-0.702,1.044-0.927,1.685c-0.225,0.64-0.337,1.32-0.337,2.039c0,0.726,0.11,1.409,0.331,2.049
		c0.221,0.64,0.526,1.199,0.916,1.679c0.389,0.48,0.853,0.859,1.393,1.14c0.539,0.281,1.13,0.421,1.774,0.421
		c0.449,0,0.869-0.072,1.258-0.219c0.389-0.145,0.743-0.339,1.061-0.578c0.318-0.239,0.597-0.514,0.837-0.825
		c0.239-0.31,0.427-0.635,0.562-0.972l3.616,1.011c-0.232,0.733-0.573,1.413-1.022,2.038c-0.449,0.625-0.99,1.166-1.622,1.624
		c-0.633,0.457-1.344,0.816-2.134,1.078c-0.79,0.262-1.642,0.393-2.555,0.393c-0.771,0-1.509-0.105-2.212-0.314
		c-0.704-0.208-1.361-0.505-1.971-0.886c-0.61-0.382-1.165-0.842-1.662-1.381c-0.498-0.539-0.923-1.136-1.275-1.792
		c-0.352-0.655-0.625-1.358-0.82-2.111c-0.195-0.752-0.292-1.537-0.292-2.352c0-1.221,0.213-2.365,0.64-3.431
		c0.427-1.067,1.011-1.999,1.752-2.797c0.741-0.797,1.612-1.426,2.611-1.887c1-0.46,2.076-0.69,3.229-0.69
		c0.921,0,1.696,0.115,2.325,0.343c0.629,0.229,1.321,0.679,2.078,1.353h2.516v3.797H69.284z"/>
</g>
<g>
	<path fill="#398EB0" d="M219.693,92.695c-0.451-0.123-0.876-0.305-1.274-0.545s-0.747-0.537-1.046-0.893
		c-0.299-0.353-0.536-0.764-0.712-1.23c-0.176-0.465-0.264-0.988-0.264-1.568c0-0.615,0.123-1.191,0.369-1.727
		c0.246-0.537,0.595-1.004,1.046-1.402s0.996-0.712,1.635-0.94c0.639-0.228,1.351-0.343,2.136-0.343h6.012v2.417h-1.239v14.089
		h-2.575V86.464h-1.512v14.089h-2.575V92.695z"/>
</g>
<g>
	<path fill="#398EB0" d="M69.757,148.727c-0.451-0.123-0.876-0.305-1.274-0.545s-0.747-0.537-1.046-0.892
		c-0.299-0.354-0.536-0.764-0.712-1.231c-0.176-0.465-0.264-0.988-0.264-1.568c0-0.615,0.123-1.191,0.369-1.727
		c0.246-0.537,0.595-1.004,1.046-1.402c0.451-0.399,0.996-0.712,1.635-0.94c0.639-0.228,1.351-0.343,2.136-0.343h6.012v2.417h-1.239
		v14.089h-2.575v-14.089h-1.512v14.089h-2.575V148.727z"/>
</g>
<g>
	<path fill="#C63706" d="M69.757,231.727c-0.451-0.123-0.876-0.305-1.274-0.545s-0.747-0.537-1.046-0.892
		c-0.299-0.354-0.536-0.764-0.712-1.231c-0.176-0.465-0.264-0.988-0.264-1.568c0-0.615,0.123-1.191,0.369-1.727
		c0.246-0.537,0.595-1.004,1.046-1.402s0.996-0.712,1.635-0.94c0.639-0.228,1.351-0.343,2.136-0.343h6.012v2.417h-1.239v14.089
		h-2.575v-14.089h-1.512v14.089h-2.575V231.727z"/>
</g>
<g>
	<path fill="#398EB0" d="M69.757,315.061c-0.451-0.123-0.876-0.305-1.274-0.545s-0.747-0.537-1.046-0.893
		c-0.299-0.354-0.536-0.764-0.712-1.23c-0.176-0.465-0.264-0.988-0.264-1.568c0-0.615,0.123-1.191,0.369-1.727
		c0.246-0.537,0.595-1.004,1.046-1.402s0.996-0.712,1.635-0.94c0.639-0.228,1.351-0.343,2.136-0.343h6.012v2.417h-1.239v14.089
		h-2.575V308.83h-1.512v14.089h-2.575V315.061z"/>
</g>
<g>
	<path fill="#7C5904" d="M219.693,259.477c-0.451-0.123-0.876-0.305-1.274-0.545s-0.747-0.537-1.046-0.893
		c-0.299-0.354-0.536-0.764-0.712-1.23c-0.176-0.465-0.264-0.988-0.264-1.568c0-0.615,0.123-1.191,0.369-1.727
		c0.246-0.537,0.595-1.004,1.046-1.402s0.996-0.712,1.635-0.94c0.639-0.228,1.351-0.343,2.136-0.343h6.012v2.417h-1.239v14.089
		h-2.575v-14.089h-1.512v14.089h-2.575V259.477z"/>
</g>
<g>
	<path fill="#C63706" d="M219.693,176.061c-0.451-0.123-0.876-0.305-1.274-0.545s-0.747-0.537-1.046-0.893
		c-0.299-0.354-0.536-0.764-0.712-1.23c-0.176-0.465-0.264-0.988-0.264-1.568c0-0.615,0.123-1.191,0.369-1.727
		c0.246-0.537,0.595-1.004,1.046-1.402s0.996-0.712,1.635-0.94c0.639-0.228,1.351-0.343,2.136-0.343h6.012v2.417h-1.239v14.089
		h-2.575V169.83h-1.512v14.089h-2.575V176.061z"/>
</g>
<g>
	<rect x="229.993" y="60.569" fill="#7C5904" width="131.928" height="7.2"/>
</g>
<g>
	<rect x="80.182" y="60.569" fill="#7C5904" width="131.928" height="7.2"/>
</g>
<g>
	<g>
		<rect x="229.993" y="74.483" fill="#7C5904" width="131.928" height="7.2"/>
	</g>
	<g>
		<rect x="80.182" y="74.483" fill="#7C5904" width="131.928" height="7.2"/>
	</g>
</g>
<g>
	<g>
		<rect x="229.993" y="88.397" fill="#7C5904" width="131.928" height="7.2"/>
	</g>
	<g>
		<rect x="80.182" y="88.397" fill="#7C5904" width="131.928" height="7.2"/>
	</g>
</g>
<g>
	<g>
		<rect x="229.993" y="102.312" fill="#7C5904" width="131.928" height="7.2"/>
	</g>
	<g>
		<rect x="80.182" y="102.312" fill="#7C5904" width="131.928" height="7.2"/>
	</g>
</g>
<g>
	<g>
		<rect x="229.993" y="116.226" fill="#7C5904" width="131.928" height="7.199"/>
	</g>
	<g>
		<rect x="80.182" y="116.226" fill="#7C5904" width="131.928" height="7.199"/>
	</g>
</g>
<g>
	<g>
		<rect x="229.993" y="130.14" fill="#7C5904" width="131.928" height="7.199"/>
	</g>
	<g>
		<rect x="80.182" y="130.14" fill="#7C5904" width="131.928" height="7.199"/>
	</g>
</g>
<g>
	<g>
		<rect x="229.993" y="144.052" fill="#7C5904" width="131.928" height="7.201"/>
	</g>
	<g>
		<rect x="80.182" y="144.052" fill="#7C5904" width="131.928" height="7.201"/>
	</g>
</g>
<g>
	<g>
		<rect x="229.993" y="157.967" fill="#7C5904" width="131.928" height="7.202"/>
	</g>
	<g>
		<rect x="80.182" y="157.967" fill="#7C5904" width="131.928" height="7.202"/>
	</g>
</g>
<g>
	<g>
		<rect x="229.993" y="171.88" fill="#7C5904" width="131.928" height="7.2"/>
	</g>
	<g>
		<rect x="80.182" y="171.88" fill="#7C5904" width="131.928" height="7.2"/>
	</g>
</g>
<g>
	<g>
		<rect x="229.993" y="185.793" fill="#7C5904" width="131.928" height="7.201"/>
	</g>
	<g>
		<rect x="80.182" y="185.793" fill="#7C5904" width="131.928" height="7.201"/>
	</g>
</g>
<g>
	<g>
		<rect x="229.993" y="199.708" fill="#7C5904" width="131.928" height="7.201"/>
	</g>
	<g>
		<rect x="80.182" y="199.708" fill="#7C5904" width="131.928" height="7.201"/>
	</g>
</g>
<g>
	<g>
		<rect x="229.993" y="213.622" fill="#7C5904" width="131.928" height="7.2"/>
	</g>
	<g>
		<rect x="80.182" y="213.622" fill="#7C5904" width="131.928" height="7.2"/>
	</g>
</g>
<g>
	<g>
		<rect x="229.993" y="227.536" fill="#7C5904" width="131.928" height="7.2"/>
	</g>
	<g>
		<rect x="80.182" y="227.536" fill="#7C5904" width="131.928" height="7.2"/>
	</g>
</g>
<g>
	<g>
		<rect x="229.993" y="241.449" fill="#7C5904" width="131.928" height="7.2"/>
	</g>
	<g>
		<rect x="80.182" y="241.449" fill="#7C5904" width="131.928" height="7.2"/>
	</g>
</g>
<g>
	<g>
		<rect x="229.993" y="255.363" fill="#7C5904" width="131.928" height="7.201"/>
	</g>
	<g>
		<rect x="80.182" y="255.363" fill="#7C5904" width="131.928" height="7.201"/>
	</g>
</g>
<g>
	<g>
		<rect x="229.993" y="269.277" fill="#7C5904" width="131.928" height="7.2"/>
	</g>
	<g>
		<rect x="80.182" y="269.277" fill="#7C5904" width="131.928" height="7.2"/>
	</g>
</g>
<g>
	<g>
		<rect x="229.993" y="283.213" fill="#7C5904" width="131.928" height="7.201"/>
	</g>
	<g>
		<rect x="80.182" y="283.213" fill="#7C5904" width="131.928" height="7.201"/>
	</g>
</g>
<g>
	<rect x="80.182" y="297.104" fill="#7C5904" width="131.928" height="7.2"/>
</g>
<g>
	<rect x="80.182" y="311.019" fill="#7C5904" width="131.928" height="7.201"/>
</g>
<g>
	<rect x="80.182" y="324.932" fill="#7C5904" width="131.928" height="7.2"/>
</g>
<g>
	<rect x="80.182" y="338.848" fill="#7C5904" width="131.928" height="7.199"/>
</g>
<g>
	<rect x="80.182" y="352.76" fill="#7C5904" width="131.928" height="7.201"/>
</g>
</svg>
