<?xml version="1.0" encoding="utf-8"?>
<!-- Generator: Adobe Illustrator 16.0.4, SVG Export Plug-In . SVG Version: 6.00 Build 0)  -->
<!DOCTYPE svg PUBLIC "-//W3C//DTD SVG 1.1//EN" "http://www.w3.org/Graphics/SVG/1.1/DTD/svg11.dtd">
<svg version="1.1" id="Layer_1" xmlns="http://www.w3.org/2000/svg" xmlns:xlink="http://www.w3.org/1999/xlink" x="0px" y="0px"
	 width="448.746px" height="616.441px" viewBox="0 0 448.746 616.441" enable-background="new 0 0 448.746 616.441"
	 xml:space="preserve">
<rect x="0.5" y="0.5" fill="#FFFFFF" stroke="#C68D06" stroke-miterlimit="10" width="447.746" height="615.441"/>
<g>
	<path fill="#C68D06" d="M337.511,581.572c0-3.745,1.854-7.174,8.681-11.55c3.885-2.486,5.46-4.236,5.46-7.036
		c0-3.045-1.89-5.04-5.285-5.04c-2.835,0-4.9,1.47-6.44,4.48l-1.961-1.155c1.82-3.5,4.691-5.531,8.507-5.531
		c4.69,0,7.596,2.941,7.596,7.106c0,3.535-1.716,5.776-6.687,8.926c-4.69,2.976-6.965,5.776-7.141,8.121h13.932v2.24h-16.661
		V581.572z"/>
	<path fill="#C68D06" d="M361.451,569.182c0-8.086,3.431-13.442,9.521-13.442s9.451,5.356,9.451,13.442
		c0,8.086-3.36,13.442-9.451,13.442S361.451,577.268,361.451,569.182z M377.973,569.182c0-7.316-2.766-11.236-7.001-11.236
		c-4.41,0-7.036,3.92-7.036,11.236c0,7.315,2.766,11.272,7.036,11.272C375.347,580.453,377.973,576.497,377.973,569.182z"/>
	<path fill="#C68D06" d="M389.207,556.23h8.681c5.776,0,8.996,2.45,8.996,7c0,4.201-2.45,6.301-6.195,7.001l6.546,11.902h-2.801
		l-6.336-11.621h-6.44v11.621h-2.45V556.23z M397.712,568.307c4.271,0,6.686-1.226,6.686-4.97c0-3.571-2.38-4.831-6.721-4.831
		h-6.021v9.802H397.712z"/>
</g>
<g>
	<rect x="80.221" y="157.967" fill="#C0DDE7" width="281.738" height="7.199"/>
</g>
<g>
	<rect x="80.221" y="171.881" fill="#C0DDE7" width="281.738" height="7.199"/>
</g>
<g>
	<rect x="80.221" y="185.794" fill="#C0DDE7" width="281.738" height="7.2"/>
</g>
<g>
	<rect x="80.221" y="199.708" fill="#C0DDE7" width="281.738" height="7.199"/>
</g>
<g>
	<rect x="80.221" y="213.622" fill="#C0DDE7" width="281.738" height="7.199"/>
</g>
<g>
	<rect x="80.221" y="227.535" fill="#C0DDE7" width="281.738" height="7.2"/>
</g>
<g>
	<rect x="80.221" y="241.45" fill="#C0DDE7" width="281.738" height="7.2"/>
</g>
<g>
	<rect x="80.221" y="255.363" fill="#C0DDE7" width="281.738" height="7.201"/>
</g>
<g>
	<rect x="80.221" y="269.277" fill="#C0DDE7" width="281.738" height="7.199"/>
</g>
<g>
	<rect x="80.221" y="283.191" fill="#C0DDE7" width="281.738" height="7.2"/>
</g>
<g>
	<rect x="80.221" y="297.105" fill="#C0DDE7" width="281.738" height="7.201"/>
</g>
<g>
	<rect x="80.221" y="311.019" fill="#C0DDE7" width="281.738" height="7.2"/>
</g>
<g>
	<rect x="80.221" y="324.933" fill="#C0DDE7" width="281.738" height="7.199"/>
</g>
<g>
	<rect x="80.221" y="338.847" fill="#C0DDE7" width="281.738" height="7.2"/>
</g>
<g>
	<rect x="80.221" y="352.76" fill="#C0DDE7" width="281.738" height="7.2"/>
</g>
<g>
	<rect x="80.221" y="366.674" fill="#C0DDE7" width="281.738" height="7.2"/>
</g>
<g>
	<rect x="80.221" y="380.588" fill="#C0DDE7" width="281.738" height="7.199"/>
</g>
<g>
	<rect x="80.221" y="394.502" fill="#C0DDE7" width="281.738" height="7.199"/>
</g>
<g>
	<rect x="80.221" y="408.416" fill="#C0DDE7" width="281.738" height="7.199"/>
</g>
<g>
	<rect x="80.221" y="422.329" fill="#C0DDE7" width="281.738" height="7.2"/>
</g>
<g>
	<rect x="80.221" y="436.243" fill="#C0DDE7" width="281.738" height="7.2"/>
</g>
<g>
	<rect x="80.221" y="450.157" fill="#C0DDE7" width="281.738" height="7.199"/>
</g>
<g>
	<rect x="80.221" y="464.071" fill="#C0DDE7" width="281.738" height="7.199"/>
</g>
<g>
	<rect x="80.221" y="477.984" fill="#C0DDE7" width="281.738" height="7.2"/>
</g>
<g>
	<rect x="80.221" y="60.569" fill="#C0DDE7" width="281.738" height="7.2"/>
</g>
<g>
	<rect x="80.221" y="74.483" fill="#C0DDE7" width="281.738" height="7.2"/>
</g>
<g>
	<rect x="80.221" y="144.053" fill="#C0DDE7" width="281.738" height="7.199"/>
</g>
<g>
	<rect x="80.221" y="88.398" fill="#C0DDE7" width="281.738" height="7.199"/>
</g>
<g>
	<rect x="80.221" y="102.312" fill="#C0DDE7" width="281.738" height="7.2"/>
</g>
<g>
	<rect x="80.221" y="116.226" fill="#C0DDE7" width="281.738" height="7.199"/>
</g>
<g>
	<rect x="80.221" y="130.14" fill="#C0DDE7" width="281.738" height="7.199"/>
</g>
<g>
	<g>
		<path fill="#C63706" d="M60.107,273.592h7.861c0.876,0,1.681,0.136,2.415,0.41s1.366,0.642,1.898,1.105
			c0.532,0.465,0.947,1,1.247,1.606s0.449,1.239,0.449,1.897c0,0.794-0.118,1.537-0.354,2.229c-0.236,0.692-0.602,1.294-1.095,1.803
			c-0.494,0.509-1.119,0.912-1.875,1.207c-0.757,0.296-1.651,0.444-2.684,0.444h-2.37v3.245h1.561v3.077h-7.053v-3.077h1.763v-10.86
			h-1.763V273.592z M65.599,276.68v4.571h1.539c0.854,0,1.531-0.18,2.033-0.539s0.752-0.929,0.752-1.707
			c0-0.727-0.236-1.295-0.708-1.707s-1.164-0.618-2.078-0.618H65.599z"/>
	</g>
	<g>
		<g>
			<g>
				<polygon fill="#7C5904" points="218.498,290.392 80.428,290.392 80.428,283.192 218.498,283.192 222.646,286.792 				"/>
			</g>
			<g>
				<polygon fill="#7C5904" points="223.889,283.192 361.959,283.192 361.959,290.392 223.889,290.392 228.036,286.792 				"/>
			</g>
		</g>
		<g>
			<g>
				<polygon fill="#7C5904" points="218.498,304.306 80.428,304.306 80.428,297.106 218.498,297.106 222.646,300.706 				"/>
			</g>
			<g>
				<polygon fill="#7C5904" points="223.889,297.106 361.959,297.106 361.959,304.306 223.889,304.306 228.036,300.706 				"/>
			</g>
		</g>
		<g>
			<g>
				<polygon fill="#7C5904" points="218.498,373.874 80.428,373.874 80.428,366.675 218.498,366.675 222.646,370.274 				"/>
			</g>
			<g>
				<polygon fill="#7C5904" points="223.889,366.675 361.959,366.675 361.959,373.874 223.889,373.874 228.036,370.274 				"/>
			</g>
		</g>
		<g>
			<g>
				<polygon fill="#7C5904" points="218.498,318.219 80.428,318.219 80.428,311.02 218.498,311.02 222.646,314.619 				"/>
			</g>
			<g>
				<polygon fill="#7C5904" points="223.889,311.02 361.959,311.02 361.959,318.219 223.889,318.219 228.036,314.619 				"/>
			</g>
		</g>
		<g>
			<g>
				<polygon fill="#7C5904" points="218.498,332.134 80.428,332.134 80.428,324.935 218.498,324.935 222.646,328.533 				"/>
			</g>
			<g>
				<polygon fill="#7C5904" points="223.889,324.935 361.959,324.935 361.959,332.134 223.889,332.134 228.036,328.533 				"/>
			</g>
		</g>
		<g>
			<g>
				<polygon fill="#7C5904" points="218.498,346.047 80.428,346.047 80.428,338.847 218.498,338.847 222.646,342.447 				"/>
			</g>
			<g>
				<polygon fill="#7C5904" points="223.889,338.847 361.959,338.847 361.959,346.047 223.889,346.047 228.036,342.447 				"/>
			</g>
		</g>
		<g>
			<g>
				<polygon fill="#7C5904" points="218.498,359.961 80.428,359.961 80.428,352.761 218.498,352.761 222.646,356.36 				"/>
			</g>
			<g>
				<polygon fill="#7C5904" points="223.889,352.761 361.959,352.761 361.959,359.961 223.889,359.961 228.036,356.36 				"/>
			</g>
		</g>
	</g>
</g>
<g>
	<g>
		<path fill="#398EB0" d="M61.388,385.258h13.173v5.807h-3.65v-2.392h-4.032v3.582h3.493v3.269h-3.493v3.684h1.797v3.077h-7.289
			v-3.077h1.763v-10.534h-1.763V385.258z"/>
	</g>
	<g>
		<g>
			<g>
				<polygon fill="#7C5904" points="218.498,401.702 80.428,401.702 80.428,394.503 218.498,394.503 222.646,398.103 				"/>
			</g>
			<g>
				<polygon fill="#7C5904" points="223.889,394.503 361.959,394.503 361.959,401.702 223.889,401.702 228.036,398.103 				"/>
			</g>
		</g>
		<g>
			<g>
				<polygon fill="#7C5904" points="218.498,415.616 80.428,415.616 80.428,408.417 218.498,408.417 222.646,412.018 				"/>
			</g>
			<g>
				<polygon fill="#7C5904" points="223.889,408.417 361.959,408.417 361.959,415.616 223.889,415.616 228.036,412.018 				"/>
			</g>
		</g>
		<g>
			<g>
				<polygon fill="#7C5904" points="218.498,485.185 80.428,485.185 80.428,477.985 218.498,477.985 222.646,481.585 				"/>
			</g>
			<g>
				<polygon fill="#7C5904" points="223.889,477.985 361.959,477.985 361.959,485.185 223.889,485.185 228.036,481.585 				"/>
			</g>
		</g>
		<g>
			<g>
				<polygon fill="#7C5904" points="218.498,429.529 80.428,429.529 80.428,422.33 218.498,422.33 222.646,425.93 				"/>
			</g>
			<g>
				<polygon fill="#7C5904" points="223.889,422.33 361.959,422.33 361.959,429.529 223.889,429.529 228.036,425.93 				"/>
			</g>
		</g>
		<g>
			<g>
				<polygon fill="#7C5904" points="218.498,443.444 80.428,443.444 80.428,436.245 218.498,436.245 222.646,439.844 				"/>
			</g>
			<g>
				<polygon fill="#7C5904" points="223.889,436.245 361.959,436.245 361.959,443.444 223.889,443.444 228.036,439.844 				"/>
			</g>
		</g>
		<g>
			<g>
				<polygon fill="#7C5904" points="218.498,457.358 80.428,457.358 80.428,450.157 218.498,450.157 222.646,453.757 				"/>
			</g>
			<g>
				<polygon fill="#7C5904" points="223.889,450.157 361.959,450.157 361.959,457.358 223.889,457.358 228.036,453.757 				"/>
			</g>
		</g>
		<g>
			<g>
				<polygon fill="#7C5904" points="218.498,471.271 80.428,471.271 80.428,464.071 218.498,464.071 222.646,467.671 				"/>
			</g>
			<g>
				<polygon fill="#7C5904" points="223.889,464.071 361.959,464.071 361.959,471.271 223.889,471.271 228.036,467.671 				"/>
			</g>
		</g>
	</g>
</g>
<g>
	<g>
		<g>
			<g>
				<polygon fill="#7C5904" points="218.498,67.77 80.428,67.77 80.428,60.57 218.498,60.57 222.646,64.17 				"/>
			</g>
			<g>
				<polygon fill="#7C5904" points="223.889,60.57 361.959,60.57 361.959,67.77 223.889,67.77 228.037,64.17 				"/>
			</g>
		</g>
		<g>
			<g>
				<polygon fill="#7C5904" points="218.498,151.252 80.428,151.252 80.428,144.053 218.498,144.053 222.646,147.653 				"/>
			</g>
			<g>
				<polygon fill="#7C5904" points="223.889,144.053 361.959,144.053 361.959,151.252 223.889,151.252 228.037,147.653 				"/>
			</g>
		</g>
		<g>
			<g>
				<polygon fill="#7C5904" points="218.498,95.598 80.428,95.598 80.428,88.398 218.498,88.398 222.646,91.998 				"/>
			</g>
			<g>
				<polygon fill="#7C5904" points="223.889,88.398 361.959,88.398 361.959,95.598 223.889,95.598 228.037,91.998 				"/>
			</g>
		</g>
		<g>
			<g>
				<polygon fill="#7C5904" points="218.498,81.683 80.428,81.683 80.428,74.483 218.498,74.483 222.646,78.082 				"/>
			</g>
			<g>
				<polygon fill="#7C5904" points="223.889,74.483 361.959,74.483 361.959,81.683 223.889,81.683 228.037,78.082 				"/>
			</g>
		</g>
		<g>
			<g>
				<polygon fill="#7C5904" points="218.498,109.512 80.428,109.512 80.428,102.312 218.498,102.312 222.646,105.912 				"/>
			</g>
			<g>
				<polygon fill="#7C5904" points="223.889,102.312 361.959,102.312 361.959,109.512 223.889,109.512 228.037,105.912 				"/>
			</g>
		</g>
		<g>
			<g>
				<polygon fill="#7C5904" points="218.498,123.425 80.428,123.425 80.428,116.226 218.498,116.226 222.646,119.825 				"/>
			</g>
			<g>
				<polygon fill="#7C5904" points="223.889,116.226 361.959,116.226 361.959,123.425 223.889,123.425 228.037,119.825 				"/>
			</g>
		</g>
		<g>
			<g>
				<polygon fill="#7C5904" points="218.498,137.339 80.428,137.339 80.428,130.139 218.498,130.139 222.646,133.738 				"/>
			</g>
			<g>
				<polygon fill="#7C5904" points="223.889,130.139 361.959,130.139 361.959,137.339 223.889,137.339 228.037,133.738 				"/>
			</g>
		</g>
	</g>
	<g>
		<path fill="#C63706" d="M66.63,49.925h7.289v3.077h-1.797v10.871h1.797v3.077H66.63v-3.077h1.763V53.002H66.63V49.925z"/>
	</g>
</g>
<g>
	<g>
		<path fill="#398EB0" d="M69.828,166.388c-0.038-0.262-0.129-0.509-0.275-0.74c-0.146-0.232-0.333-0.433-0.562-0.601
			c-0.228-0.168-0.486-0.301-0.774-0.399c-0.289-0.098-0.59-0.146-0.905-0.146c-0.284,0-0.55,0.03-0.797,0.09
			c-0.247,0.061-0.462,0.152-0.646,0.275c-0.183,0.124-0.329,0.284-0.438,0.478c-0.109,0.194-0.163,0.427-0.163,0.696
			c0,0.337,0.073,0.604,0.219,0.803c0.146,0.198,0.333,0.361,0.562,0.489c0.229,0.127,0.481,0.228,0.758,0.303
			s0.546,0.157,0.809,0.247l3.088,1.034c0.427,0.149,0.827,0.355,1.202,0.617c0.375,0.263,0.698,0.581,0.971,0.955
			c0.273,0.374,0.489,0.805,0.646,1.291c0.157,0.487,0.236,1.033,0.236,1.641c0,0.823-0.151,1.575-0.455,2.257
			c-0.303,0.682-0.728,1.266-1.274,1.752c-0.546,0.486-1.202,0.864-1.965,1.134c-0.764,0.27-1.61,0.404-2.538,0.404
			c-0.651,0-1.267-0.072-1.847-0.218c-0.581-0.146-1.11-0.358-1.589-0.635c-0.479-0.276-0.898-0.607-1.258-0.993
			c-0.359-0.385-0.64-0.822-0.842-1.309h-1.157v-3.38h4.065v0.695c0,0.338,0.054,0.648,0.163,0.933
			c0.109,0.284,0.271,0.531,0.489,0.742c0.217,0.209,0.49,0.372,0.82,0.488c0.33,0.117,0.715,0.174,1.157,0.174
			c0.674,0,1.187-0.155,1.538-0.466c0.353-0.311,0.528-0.743,0.528-1.297c0-0.284-0.062-0.522-0.185-0.713
			c-0.124-0.191-0.283-0.353-0.478-0.483s-0.412-0.241-0.651-0.331c-0.24-0.09-0.476-0.172-0.708-0.248l-2.572-0.831
			c-0.487-0.149-0.957-0.359-1.409-0.629c-0.453-0.27-0.854-0.606-1.202-1.011c-0.348-0.404-0.625-0.878-0.831-1.421
			c-0.206-0.543-0.309-1.162-0.309-1.858c0-0.809,0.15-1.529,0.449-2.162c0.299-0.633,0.719-1.167,1.258-1.6
			c0.539-0.435,1.179-0.764,1.92-0.989c0.741-0.225,1.554-0.338,2.437-0.338c0.697,0,1.341,0.081,1.932,0.243
			c0.591,0.161,1.121,0.375,1.589,0.645c0.468,0.27,0.865,0.578,1.19,0.927c0.327,0.348,0.575,0.709,0.748,1.084h1.123v3.391h-4.065
			V166.388z"/>
	</g>
	<g>
		<g>
			<g>
				<polygon fill="#7C5904" points="218.394,192.995 80.324,192.995 80.324,185.795 218.394,185.795 222.542,189.395 				"/>
			</g>
			<g>
				<polygon fill="#7C5904" points="223.785,185.795 361.855,185.795 361.855,192.995 223.785,192.995 227.933,189.395 				"/>
			</g>
		</g>
		<g>
			<g>
				<polygon fill="#7C5904" points="218.394,179.081 80.324,179.081 80.324,171.882 218.394,171.882 222.542,175.482 				"/>
			</g>
			<g>
				<polygon fill="#7C5904" points="223.785,171.882 361.855,171.882 361.855,179.081 223.785,179.081 227.933,175.482 				"/>
			</g>
		</g>
		<g>
			<g>
				<polygon fill="#7C5904" points="218.394,206.908 80.324,206.908 80.324,199.709 218.394,199.709 222.542,203.308 				"/>
			</g>
			<g>
				<polygon fill="#7C5904" points="223.785,199.709 361.855,199.709 361.855,206.908 223.785,206.908 227.933,203.308 				"/>
			</g>
		</g>
		<g>
			<g>
				<polygon fill="#7C5904" points="218.394,234.735 80.324,234.735 80.324,227.536 218.394,227.536 222.542,231.135 				"/>
			</g>
			<g>
				<polygon fill="#7C5904" points="223.785,227.536 361.855,227.536 361.855,234.735 223.785,234.735 227.933,231.135 				"/>
			</g>
		</g>
		<g>
			<g>
				<polygon fill="#7C5904" points="218.498,220.822 80.428,220.822 80.428,213.624 218.498,213.624 222.646,217.223 				"/>
			</g>
			<g>
				<polygon fill="#7C5904" points="223.889,213.624 361.959,213.624 361.959,220.822 223.889,220.822 228.037,217.223 				"/>
			</g>
		</g>
		<g>
			<g>
				<polygon fill="#7C5904" points="218.394,248.65 80.324,248.65 80.324,241.451 218.394,241.451 222.542,245.051 				"/>
			</g>
			<g>
				<polygon fill="#7C5904" points="223.785,241.451 361.855,241.451 361.855,248.65 223.785,248.65 227.933,245.051 				"/>
			</g>
		</g>
		<g>
			<g>
				<polygon fill="#7C5904" points="218.394,262.563 80.324,262.563 80.324,255.364 218.394,255.364 222.542,258.963 				"/>
			</g>
			<g>
				<polygon fill="#7C5904" points="223.785,255.364 361.855,255.364 361.855,262.563 223.785,262.563 227.933,258.963 				"/>
			</g>
		</g>
	</g>
</g>
</svg>
