<?xml version="1.0" encoding="utf-8"?>
<!-- Generator: Adobe Illustrator 16.0.4, SVG Export Plug-In . SVG Version: 6.00 Build 0)  -->
<!DOCTYPE svg PUBLIC "-//W3C//DTD SVG 1.1//EN" "http://www.w3.org/Graphics/SVG/1.1/DTD/svg11.dtd">
<svg version="1.1" id="Layer_1" xmlns="http://www.w3.org/2000/svg" xmlns:xlink="http://www.w3.org/1999/xlink" x="0px" y="0px"
	 width="448.746px" height="616.435px" viewBox="0 0 448.746 616.435" enable-background="new 0 0 448.746 616.435"
	 xml:space="preserve">
<rect x="0.5" y="0.5" fill="#FFFFFF" stroke="#C68D06" stroke-miterlimit="10" width="447.746" height="615.435"/>
<g>
	<path fill="#C68D06" d="M338.98,582.569c0-3.745,1.855-7.175,8.682-11.551c3.885-2.485,5.46-4.235,5.46-7.036
		c0-3.045-1.89-5.04-5.285-5.04c-2.835,0-4.9,1.47-6.44,4.48l-1.961-1.155c1.82-3.5,4.691-5.53,8.506-5.53
		c4.691,0,7.597,2.94,7.597,7.105c0,3.535-1.716,5.775-6.687,8.926c-4.69,2.976-6.965,5.775-7.141,8.121h13.932v2.24H338.98V582.569
		z"/>
	<path fill="#C68D06" d="M362.92,570.178c0-8.086,3.431-13.441,9.521-13.441s9.451,5.355,9.451,13.441s-3.36,13.441-9.451,13.441
		S362.92,578.264,362.92,570.178z M379.443,570.178c0-7.316-2.766-11.236-7.001-11.236c-4.41,0-7.036,3.92-7.036,11.236
		c0,7.315,2.766,11.271,7.036,11.271C376.817,581.45,379.443,577.494,379.443,570.178z"/>
	<path fill="#C68D06" d="M388.611,557.227h2.556l7.735,22.612h0.07l7.771-22.612h2.416l-9.102,26.008h-2.345L388.611,557.227z"/>
</g>
<g>
	<rect x="80.387" y="158.966" fill="#C0DDE7" width="281.738" height="7.2"/>
</g>
<g>
	<rect x="80.386" y="172.88" fill="#C0DDE7" width="281.739" height="7.199"/>
</g>
<g>
	<rect x="80.387" y="186.793" fill="#C0DDE7" width="281.738" height="7.2"/>
</g>
<g>
	<rect x="80.387" y="200.708" fill="#C0DDE7" width="281.738" height="7.199"/>
</g>
<g>
	<rect x="80.387" y="214.621" fill="#C0DDE7" width="281.738" height="7.199"/>
</g>
<g>
	<rect x="80.387" y="228.534" fill="#C0DDE7" width="281.738" height="7.2"/>
</g>
<g>
	<rect x="80.386" y="242.449" fill="#C0DDE7" width="281.739" height="7.198"/>
</g>
<g>
	<rect x="80.386" y="256.361" fill="#C0DDE7" width="281.739" height="7.2"/>
</g>
<g>
	<rect x="80.387" y="270.275" fill="#C0DDE7" width="281.738" height="7.199"/>
</g>
<g>
	<rect x="80.386" y="284.188" fill="#C0DDE7" width="281.739" height="7.2"/>
</g>
<g>
	<rect x="80.387" y="298.102" fill="#C0DDE7" width="281.738" height="7.2"/>
</g>
<g>
	<rect x="80.387" y="312.015" fill="#C0DDE7" width="281.738" height="7.2"/>
</g>
<g>
	<rect x="80.387" y="325.929" fill="#C0DDE7" width="281.738" height="7.199"/>
</g>
<g>
	<rect x="80.386" y="339.842" fill="#C0DDE7" width="281.739" height="7.2"/>
</g>
<g>
	<rect x="80.387" y="353.755" fill="#C0DDE7" width="281.738" height="7.2"/>
</g>
<g>
	<rect x="80.387" y="367.668" fill="#C0DDE7" width="281.738" height="7.201"/>
</g>
<g>
	<rect x="80.387" y="381.583" fill="#C0DDE7" width="281.738" height="7.198"/>
</g>
<g>
	<rect x="80.387" y="395.497" fill="#C0DDE7" width="281.738" height="7.199"/>
</g>
<g>
	<rect x="80.386" y="409.411" fill="#C0DDE7" width="281.739" height="7.199"/>
</g>
<g>
	<rect x="80.387" y="423.324" fill="#C0DDE7" width="281.738" height="7.2"/>
</g>
<g>
	<rect x="80.386" y="437.238" fill="#C0DDE7" width="281.739" height="7.2"/>
</g>
<g>
	<rect x="80.387" y="451.152" fill="#C0DDE7" width="281.738" height="7.199"/>
</g>
<g>
	<rect x="80.386" y="465.066" fill="#C0DDE7" width="281.739" height="7.199"/>
</g>
<g>
	<rect x="80.387" y="478.979" fill="#C0DDE7" width="281.738" height="7.2"/>
</g>
<g>
	<rect x="80.387" y="61.569" fill="#C0DDE7" width="281.738" height="7.2"/>
</g>
<g>
	<rect x="80.386" y="75.483" fill="#C0DDE7" width="281.739" height="7.2"/>
</g>
<g>
	<rect x="80.386" y="145.052" fill="#C0DDE7" width="281.739" height="7.2"/>
</g>
<g>
	<rect x="80.387" y="89.397" fill="#C0DDE7" width="281.738" height="7.199"/>
</g>
<g>
	<rect x="80.386" y="103.311" fill="#C0DDE7" width="281.739" height="7.2"/>
</g>
<g>
	<rect x="80.386" y="117.225" fill="#C0DDE7" width="281.739" height="7.199"/>
</g>
<g>
	<rect x="80.386" y="131.139" fill="#C0DDE7" width="281.739" height="7.199"/>
</g>
<g>
	<g>
		<g>
			<path fill="#C63706" d="M60.273,274.586h7.861c0.876,0,1.681,0.137,2.415,0.41c0.733,0.273,1.366,0.642,1.898,1.105
				c0.532,0.465,0.947,1,1.247,1.606c0.299,0.606,0.449,1.239,0.449,1.897c0,0.794-0.118,1.537-0.354,2.229
				c-0.236,0.692-0.601,1.294-1.095,1.803c-0.495,0.509-1.12,0.911-1.875,1.207c-0.756,0.296-1.651,0.444-2.684,0.444h-2.37v3.245
				h1.561v3.077h-7.052v-3.077h1.763v-10.86h-1.763V274.586z M65.765,277.674v4.571h1.539c0.854,0,1.531-0.18,2.033-0.539
				s0.752-0.929,0.752-1.707c0-0.727-0.236-1.295-0.708-1.707s-1.164-0.618-2.078-0.618H65.765z"/>
		</g>
		<g>
			<g>
				<g>
					<polygon fill="#7C5904" points="218.664,291.386 80.594,291.386 80.594,284.187 218.664,284.187 222.812,287.787 					"/>
				</g>
				<g>
					<polygon fill="#7C5904" points="224.055,284.187 362.125,284.187 362.125,291.386 224.055,291.386 228.202,287.787 					"/>
				</g>
			</g>
			<g>
				<g>
					<polygon fill="#7C5904" points="218.664,305.3 80.594,305.3 80.594,298.101 218.664,298.101 222.812,301.701 					"/>
				</g>
				<g>
					<polygon fill="#7C5904" points="224.055,298.101 362.125,298.101 362.125,305.3 224.055,305.3 228.202,301.701 					"/>
				</g>
			</g>
			<g>
				<g>
					<polygon fill="#7C5904" points="218.664,374.869 80.594,374.869 80.594,367.669 218.664,367.669 222.812,371.269 					"/>
				</g>
				<g>
					<polygon fill="#7C5904" points="224.055,367.669 362.125,367.669 362.125,374.869 224.055,374.869 228.202,371.269 					"/>
				</g>
			</g>
			<g>
				<g>
					<polygon fill="#7C5904" points="218.664,319.213 80.594,319.213 80.594,312.014 218.664,312.014 222.812,315.614 					"/>
				</g>
				<g>
					<polygon fill="#7C5904" points="224.055,312.014 362.125,312.014 362.125,319.213 224.055,319.213 228.202,315.614 					"/>
				</g>
			</g>
			<g>
				<g>
					<polygon fill="#7C5904" points="218.664,333.128 80.594,333.128 80.594,325.929 218.664,325.929 222.812,329.528 					"/>
				</g>
				<g>
					<polygon fill="#7C5904" points="224.055,325.929 362.125,325.929 362.125,333.128 224.055,333.128 228.202,329.528 					"/>
				</g>
			</g>
			<g>
				<g>
					<polygon fill="#7C5904" points="218.664,347.042 80.594,347.042 80.594,339.841 218.664,339.841 222.812,343.441 					"/>
				</g>
				<g>
					<polygon fill="#7C5904" points="224.055,339.841 362.125,339.841 362.125,347.042 224.055,347.042 228.202,343.441 					"/>
				</g>
			</g>
			<g>
				<g>
					<polygon fill="#7C5904" points="218.664,360.956 80.594,360.956 80.594,353.755 218.664,353.755 222.812,357.355 					"/>
				</g>
				<g>
					<polygon fill="#7C5904" points="224.055,353.755 362.125,353.755 362.125,360.956 224.055,360.956 228.202,357.355 					"/>
				</g>
			</g>
		</g>
	</g>
	<g>
		<g>
			<path fill="#398EB0" d="M60.273,386.252h7.861c0.876,0,1.681,0.137,2.415,0.41c0.733,0.273,1.366,0.642,1.898,1.105
				c0.532,0.465,0.947,1,1.247,1.606c0.299,0.606,0.449,1.239,0.449,1.897c0,0.794-0.118,1.537-0.354,2.229
				c-0.236,0.692-0.601,1.294-1.095,1.803c-0.495,0.509-1.12,0.911-1.875,1.207c-0.756,0.296-1.651,0.444-2.684,0.444h-2.37v3.245
				h1.561v3.077h-7.052v-3.077h1.763v-10.86h-1.763V386.252z M65.765,389.34v4.571h1.539c0.854,0,1.531-0.18,2.033-0.539
				s0.752-0.929,0.752-1.707c0-0.727-0.236-1.295-0.708-1.707s-1.164-0.618-2.078-0.618H65.765z"/>
		</g>
		<g>
			<g>
				<g>
					<polygon fill="#7C5904" points="218.664,402.697 80.594,402.697 80.594,395.498 218.664,395.498 222.812,399.097 					"/>
				</g>
				<g>
					<polygon fill="#7C5904" points="224.055,395.498 362.125,395.498 362.125,402.697 224.055,402.697 228.202,399.097 					"/>
				</g>
			</g>
			<g>
				<g>
					<polygon fill="#7C5904" points="218.664,416.611 80.594,416.611 80.594,409.412 218.664,409.412 222.812,413.011 					"/>
				</g>
				<g>
					<polygon fill="#7C5904" points="224.055,409.412 362.125,409.412 362.125,416.611 224.055,416.611 228.202,413.011 					"/>
				</g>
			</g>
			<g>
				<g>
					<polygon fill="#7C5904" points="218.664,486.179 80.594,486.179 80.594,478.98 218.664,478.98 222.812,482.58 					"/>
				</g>
				<g>
					<polygon fill="#7C5904" points="224.055,478.98 362.125,478.98 362.125,486.179 224.055,486.179 228.202,482.58 					"/>
				</g>
			</g>
			<g>
				<g>
					<polygon fill="#7C5904" points="218.664,430.524 80.594,430.524 80.594,423.325 218.664,423.325 222.812,426.924 					"/>
				</g>
				<g>
					<polygon fill="#7C5904" points="224.055,423.325 362.125,423.325 362.125,430.524 224.055,430.524 228.202,426.924 					"/>
				</g>
			</g>
			<g>
				<g>
					<polygon fill="#7C5904" points="218.664,444.439 80.594,444.439 80.594,437.24 218.664,437.24 222.812,440.838 					"/>
				</g>
				<g>
					<polygon fill="#7C5904" points="224.055,437.24 362.125,437.24 362.125,444.439 224.055,444.439 228.202,440.838 					"/>
				</g>
			</g>
			<g>
				<g>
					<polygon fill="#7C5904" points="218.664,458.352 80.594,458.352 80.594,451.152 218.664,451.152 222.812,454.751 					"/>
				</g>
				<g>
					<polygon fill="#7C5904" points="224.055,451.152 362.125,451.152 362.125,458.352 224.055,458.352 228.202,454.751 					"/>
				</g>
			</g>
			<g>
				<g>
					<polygon fill="#7C5904" points="218.664,472.266 80.594,472.266 80.594,465.066 218.664,465.066 222.812,468.666 					"/>
				</g>
				<g>
					<polygon fill="#7C5904" points="224.055,465.066 362.125,465.066 362.125,472.266 224.055,472.266 228.202,468.666 					"/>
				</g>
			</g>
		</g>
	</g>
	<g>
		<g>
			<g>
				<g>
					<polygon fill="#7C5904" points="218.664,68.764 80.594,68.764 80.594,61.564 218.664,61.564 222.812,65.166 					"/>
				</g>
				<g>
					<polygon fill="#7C5904" points="224.055,61.564 362.125,61.564 362.125,68.764 224.055,68.764 228.203,65.166 					"/>
				</g>
			</g>
			<g>
				<g>
					<polygon fill="#7C5904" points="218.664,152.247 80.594,152.247 80.594,145.048 218.664,145.048 222.812,148.647 					"/>
				</g>
				<g>
					<polygon fill="#7C5904" points="224.055,145.048 362.125,145.048 362.125,152.247 224.055,152.247 228.203,148.647 					"/>
				</g>
			</g>
			<g>
				<g>
					<polygon fill="#7C5904" points="218.664,96.592 80.594,96.592 80.594,89.394 218.664,89.394 222.812,92.992 					"/>
				</g>
				<g>
					<polygon fill="#7C5904" points="224.055,89.394 362.125,89.394 362.125,96.592 224.055,96.592 228.203,92.992 					"/>
				</g>
			</g>
			<g>
				<g>
					<polygon fill="#7C5904" points="218.664,82.677 80.594,82.677 80.594,75.478 218.664,75.478 222.812,79.077 					"/>
				</g>
				<g>
					<polygon fill="#7C5904" points="224.055,75.478 362.125,75.478 362.125,82.677 224.055,82.677 228.203,79.077 					"/>
				</g>
			</g>
			<g>
				<g>
					<polygon fill="#7C5904" points="218.664,110.506 80.594,110.506 80.594,103.307 218.664,103.307 222.812,106.906 					"/>
				</g>
				<g>
					<polygon fill="#7C5904" points="224.055,103.307 362.125,103.307 362.125,110.506 224.055,110.506 228.203,106.906 					"/>
				</g>
			</g>
			<g>
				<g>
					<polygon fill="#7C5904" points="218.664,124.42 80.594,124.42 80.594,117.22 218.664,117.22 222.812,120.819 					"/>
				</g>
				<g>
					<polygon fill="#7C5904" points="224.055,117.22 362.125,117.22 362.125,124.42 224.055,124.42 228.203,120.819 					"/>
				</g>
			</g>
			<g>
				<g>
					<polygon fill="#7C5904" points="218.664,138.333 80.594,138.333 80.594,131.134 218.664,131.134 222.812,134.733 					"/>
				</g>
				<g>
					<polygon fill="#7C5904" points="224.055,131.134 362.125,131.134 362.125,138.333 224.055,138.333 228.203,134.733 					"/>
				</g>
			</g>
		</g>
		<g>
			<path fill="#C63706" d="M60.395,50.92h13.544v5.807h-3.661v-2.415h-4.369v3.358h3.38v3.256h-3.38v3.942h4.369v-3.021h3.661v6.098
				H60.395v-3.077h1.786V54.311h-1.786V50.92z"/>
		</g>
	</g>
	<g>
		<g>
			<path fill="#398EB0" d="M60.673,162.588h7.289v3.088h-1.797v10.86h3.706c0.097,0,0.193-0.029,0.286-0.084
				c0.094-0.057,0.176-0.13,0.247-0.22c0.071-0.09,0.129-0.186,0.174-0.291c0.045-0.105,0.068-0.206,0.068-0.304v-2.281h3.638v6.256
				H60.673v-3.077h1.763v-10.86h-1.763V162.588z"/>
		</g>
		<g>
			<g>
				<g>
					<polygon fill="#7C5904" points="218.56,193.99 80.49,193.99 80.49,186.79 218.56,186.79 222.708,190.389 					"/>
				</g>
				<g>
					<polygon fill="#7C5904" points="223.951,186.79 362.021,186.79 362.021,193.99 223.951,193.99 228.099,190.389 					"/>
				</g>
			</g>
			<g>
				<g>
					<polygon fill="#7C5904" points="218.56,180.076 80.49,180.076 80.49,172.876 218.56,172.876 222.708,176.476 					"/>
				</g>
				<g>
					<polygon fill="#7C5904" points="223.951,172.876 362.021,172.876 362.021,180.076 223.951,180.076 228.099,176.476 					"/>
				</g>
			</g>
			<g>
				<g>
					<polygon fill="#7C5904" points="218.56,207.903 80.49,207.903 80.49,200.704 218.56,200.704 222.708,204.303 					"/>
				</g>
				<g>
					<polygon fill="#7C5904" points="223.951,200.704 362.021,200.704 362.021,207.903 223.951,207.903 228.099,204.303 					"/>
				</g>
			</g>
			<g>
				<g>
					<polygon fill="#7C5904" points="218.56,235.73 80.49,235.73 80.49,228.531 218.56,228.531 222.708,232.129 					"/>
				</g>
				<g>
					<polygon fill="#7C5904" points="223.951,228.531 362.021,228.531 362.021,235.73 223.951,235.73 228.099,232.129 					"/>
				</g>
			</g>
			<g>
				<g>
					<polygon fill="#7C5904" points="218.664,221.817 80.594,221.817 80.594,214.618 218.664,214.618 222.812,218.217 					"/>
				</g>
				<g>
					<polygon fill="#7C5904" points="224.055,214.618 362.125,214.618 362.125,221.817 224.055,221.817 228.203,218.217 					"/>
				</g>
			</g>
			<g>
				<g>
					<polygon fill="#7C5904" points="218.56,249.645 80.49,249.645 80.49,242.446 218.56,242.446 222.708,246.044 					"/>
				</g>
				<g>
					<polygon fill="#7C5904" points="223.951,242.446 362.021,242.446 362.021,249.645 223.951,249.645 228.099,246.044 					"/>
				</g>
			</g>
			<g>
				<g>
					<polygon fill="#7C5904" points="218.56,263.558 80.49,263.558 80.49,256.359 218.56,256.359 222.708,259.958 					"/>
				</g>
				<g>
					<polygon fill="#7C5904" points="223.951,256.359 362.021,256.359 362.021,263.558 223.951,263.558 228.099,259.958 					"/>
				</g>
			</g>
		</g>
	</g>
</g>
</svg>
