<?xml version="1.0" encoding="utf-8"?>
<!-- Generator: Adobe Illustrator 16.0.4, SVG Export Plug-In . SVG Version: 6.00 Build 0)  -->
<!DOCTYPE svg PUBLIC "-//W3C//DTD SVG 1.1//EN" "http://www.w3.org/Graphics/SVG/1.1/DTD/svg11.dtd">
<svg version="1.1" id="Layer_1" xmlns="http://www.w3.org/2000/svg" xmlns:xlink="http://www.w3.org/1999/xlink" x="0px" y="0px"
	 width="448.745px" height="616.44px" viewBox="0 0 448.745 616.44" enable-background="new 0 0 448.745 616.44"
	 xml:space="preserve">
<rect x="0.5" y="0.5" fill="#FFFFFF" stroke="#C68D06" stroke-miterlimit="10" width="447.745" height="615.44"/>
<g>
	<path fill="#C68D06" d="M346.365,579.574c0-3.745,1.854-7.175,8.681-11.551c3.885-2.485,5.46-4.235,5.46-7.036
		c0-3.045-1.89-5.04-5.285-5.04c-2.835,0-4.9,1.47-6.44,4.48l-1.961-1.155c1.82-3.5,4.691-5.53,8.507-5.53
		c4.69,0,7.596,2.94,7.596,7.105c0,3.535-1.716,5.775-6.687,8.926c-4.69,2.976-6.965,5.775-7.141,8.121h13.932v2.24h-16.661V579.574
		z"/>
	<path fill="#C68D06" d="M370.83,577.894h4.865v-20.967c-1.26,0.665-3.29,1.189-4.796,1.189v-2.205
		c1.995-0.07,3.78-0.595,4.936-1.68h2.311v23.662h4.41v2.24H370.83V577.894z"/>
	<path fill="#C68D06" d="M388.609,554.232h2.556l7.735,22.612h0.07l7.771-22.612h2.416l-9.102,26.008h-2.345L388.609,554.232z"/>
</g>
<g>
	<rect x="80.216" y="158.467" fill="#C0DDE7" width="281.738" height="7.199"/>
</g>
<g>
	<rect x="80.216" y="172.38" fill="#C0DDE7" width="281.738" height="7.199"/>
</g>
<g>
	<rect x="80.216" y="186.294" fill="#C0DDE7" width="281.738" height="7.201"/>
</g>
<g>
	<rect x="80.216" y="200.208" fill="#C0DDE7" width="281.738" height="7.199"/>
</g>
<g>
	<rect x="80.216" y="214.122" fill="#C0DDE7" width="281.738" height="7.2"/>
</g>
<g>
	<rect x="80.216" y="228.035" fill="#C0DDE7" width="281.738" height="7.201"/>
</g>
<g>
	<rect x="80.216" y="241.95" fill="#C0DDE7" width="281.738" height="7.199"/>
</g>
<g>
	<rect x="80.216" y="255.863" fill="#C0DDE7" width="281.738" height="7.2"/>
</g>
<g>
	<rect x="80.216" y="269.778" fill="#C0DDE7" width="281.738" height="7.199"/>
</g>
<g>
	<rect x="80.216" y="283.691" fill="#C0DDE7" width="281.738" height="7.2"/>
</g>
<g>
	<rect x="80.216" y="297.604" fill="#C0DDE7" width="281.738" height="7.2"/>
</g>
<g>
	<rect x="80.216" y="311.519" fill="#C0DDE7" width="281.738" height="7.2"/>
</g>
<g>
	<rect x="80.216" y="325.433" fill="#C0DDE7" width="281.738" height="7.199"/>
</g>
<g>
	<rect x="80.216" y="339.346" fill="#C0DDE7" width="281.738" height="7.2"/>
</g>
<g>
	<rect x="80.216" y="353.26" fill="#C0DDE7" width="281.738" height="7.2"/>
</g>
<g>
	<rect x="80.216" y="367.174" fill="#C0DDE7" width="281.738" height="7.2"/>
</g>
<g>
	<rect x="80.216" y="381.088" fill="#C0DDE7" width="281.738" height="7.199"/>
</g>
<g>
	<rect x="80.216" y="395.002" fill="#C0DDE7" width="281.738" height="7.199"/>
</g>
<g>
	<rect x="80.216" y="408.916" fill="#C0DDE7" width="281.738" height="7.199"/>
</g>
<g>
	<rect x="80.216" y="422.829" fill="#C0DDE7" width="281.738" height="7.201"/>
</g>
<g>
	<rect x="80.216" y="436.743" fill="#C0DDE7" width="281.738" height="7.2"/>
</g>
<g>
	<rect x="80.216" y="450.657" fill="#C0DDE7" width="281.738" height="7.199"/>
</g>
<g>
	<rect x="80.216" y="464.571" fill="#C0DDE7" width="281.738" height="7.199"/>
</g>
<g>
	<rect x="80.216" y="478.484" fill="#C0DDE7" width="281.738" height="7.201"/>
</g>
<g>
	<rect x="80.216" y="61.07" fill="#C0DDE7" width="281.738" height="7.2"/>
</g>
<g>
	<rect x="80.216" y="74.984" fill="#C0DDE7" width="281.738" height="7.2"/>
</g>
<g>
	<rect x="80.216" y="144.553" fill="#C0DDE7" width="281.738" height="7.199"/>
</g>
<g>
	<rect x="80.216" y="88.897" fill="#C0DDE7" width="281.738" height="7.199"/>
</g>
<g>
	<rect x="80.216" y="102.811" fill="#C0DDE7" width="281.738" height="7.2"/>
</g>
<g>
	<rect x="80.216" y="116.725" fill="#C0DDE7" width="281.738" height="7.199"/>
</g>
<g>
	<rect x="80.216" y="130.639" fill="#C0DDE7" width="281.738" height="7.199"/>
</g>
<g>
	<g>
		<g>
			<path fill="#C63706" d="M63.608,291.252c-0.958-0.194-1.844-0.552-2.656-1.072c-0.812-0.521-1.517-1.162-2.111-1.926
				c-0.596-0.764-1.06-1.627-1.393-2.589c-0.333-0.962-0.5-1.982-0.5-3.061c0-0.816,0.097-1.601,0.292-2.353
				c0.195-0.753,0.468-1.456,0.82-2.111s0.777-1.251,1.275-1.786c0.498-0.535,1.052-0.993,1.662-1.376
				c0.61-0.381,1.267-0.677,1.971-0.887s1.441-0.314,2.212-0.314s1.51,0.104,2.218,0.314c0.707,0.21,1.366,0.506,1.977,0.887
				c0.61,0.383,1.164,0.841,1.662,1.376c0.497,0.535,0.924,1.131,1.28,1.786c0.355,0.655,0.63,1.358,0.825,2.111
				c0.195,0.752,0.292,1.536,0.292,2.353c0,1.093-0.172,2.126-0.517,3.1s-0.822,1.846-1.432,2.616
				c-0.61,0.771-1.335,1.416-2.173,1.932c-0.838,0.518-1.748,0.861-2.729,1.033c0.232,0.098,0.462,0.204,0.69,0.32
				c0.229,0.116,0.459,0.225,0.691,0.326c0.232,0.101,0.462,0.187,0.691,0.258c0.228,0.071,0.462,0.11,0.702,0.118
				c0.232,0,0.458-0.03,0.679-0.09c0.221-0.06,0.421-0.153,0.601-0.28c0.18-0.128,0.335-0.293,0.466-0.494
				c0.131-0.203,0.219-0.449,0.264-0.742l2.504,1.247c-0.067,0.547-0.223,1.041-0.466,1.482c-0.243,0.441-0.556,0.819-0.938,1.134
				s-0.816,0.559-1.303,0.73s-1.004,0.258-1.55,0.258c-0.442,0-0.885-0.084-1.331-0.252c-0.445-0.169-0.876-0.353-1.291-0.551
				c-0.416-0.198-0.807-0.382-1.174-0.55c-0.367-0.169-0.689-0.253-0.966-0.253c-0.12,0-0.227-0.002-0.32-0.006
				c-0.093-0.004-0.185-0.004-0.275,0s-0.189,0.016-0.297,0.034c-0.109,0.019-0.234,0.054-0.376,0.106L63.608,291.252z
				 M65.18,287.895c0.651,0,1.249-0.141,1.792-0.422c0.542-0.28,1.009-0.662,1.397-1.146c0.39-0.482,0.691-1.044,0.904-1.685
				c0.214-0.64,0.32-1.319,0.32-2.038c0-0.727-0.108-1.411-0.326-2.056c-0.217-0.644-0.522-1.207-0.916-1.689
				c-0.393-0.483-0.859-0.865-1.398-1.146c-0.539-0.281-1.13-0.421-1.774-0.421s-1.235,0.14-1.774,0.421
				c-0.539,0.28-1.003,0.662-1.393,1.146c-0.389,0.482-0.694,1.046-0.916,1.689c-0.221,0.645-0.331,1.329-0.331,2.056
				c0,0.719,0.11,1.398,0.331,2.038c0.221,0.641,0.526,1.202,0.916,1.685c0.389,0.483,0.854,0.865,1.393,1.146
				C63.945,287.754,64.536,287.895,65.18,287.895z"/>
		</g>
		<g>
			<g>
				<g>
					<polygon fill="#7C5904" points="218.494,290.892 80.423,290.892 80.423,283.693 218.494,283.693 222.642,287.292 					"/>
				</g>
				<g>
					<polygon fill="#7C5904" points="223.884,283.693 361.955,283.693 361.955,290.892 223.884,290.892 228.032,287.292 					"/>
				</g>
			</g>
			<g>
				<g>
					<polygon fill="#7C5904" points="218.494,304.806 80.423,304.806 80.423,297.607 218.494,297.607 222.642,301.207 					"/>
				</g>
				<g>
					<polygon fill="#7C5904" points="223.884,297.607 361.955,297.607 361.955,304.806 223.884,304.806 228.032,301.207 					"/>
				</g>
			</g>
			<g>
				<g>
					<polygon fill="#7C5904" points="218.494,374.375 80.423,374.375 80.423,367.175 218.494,367.175 222.642,370.775 					"/>
				</g>
				<g>
					<polygon fill="#7C5904" points="223.884,367.175 361.955,367.175 361.955,374.375 223.884,374.375 228.032,370.775 					"/>
				</g>
			</g>
			<g>
				<g>
					<polygon fill="#7C5904" points="218.494,318.719 80.423,318.719 80.423,311.52 218.494,311.52 222.642,315.12 					"/>
				</g>
				<g>
					<polygon fill="#7C5904" points="223.884,311.52 361.955,311.52 361.955,318.719 223.884,318.719 228.032,315.12 					"/>
				</g>
			</g>
			<g>
				<g>
					<polygon fill="#7C5904" points="218.494,332.634 80.423,332.634 80.423,325.435 218.494,325.435 222.642,329.034 					"/>
				</g>
				<g>
					<polygon fill="#7C5904" points="223.884,325.435 361.955,325.435 361.955,332.634 223.884,332.634 228.032,329.034 					"/>
				</g>
			</g>
			<g>
				<g>
					<polygon fill="#7C5904" points="218.494,346.547 80.423,346.547 80.423,339.347 218.494,339.347 222.642,342.947 					"/>
				</g>
				<g>
					<polygon fill="#7C5904" points="223.884,339.347 361.955,339.347 361.955,346.547 223.884,346.547 228.032,342.947 					"/>
				</g>
			</g>
			<g>
				<g>
					<polygon fill="#7C5904" points="218.494,360.461 80.423,360.461 80.423,353.261 218.494,353.261 222.642,356.861 					"/>
				</g>
				<g>
					<polygon fill="#7C5904" points="223.884,353.261 361.955,353.261 361.955,360.461 223.884,360.461 228.032,356.861 					"/>
				</g>
			</g>
		</g>
	</g>
	<g>
		<g>
			<path fill="#398EB0" d="M60.71,385.758h7.289v3.088h-1.797v10.86h3.706c0.097,0,0.193-0.028,0.286-0.084
				c0.094-0.057,0.176-0.13,0.247-0.22s0.129-0.187,0.174-0.291c0.044-0.105,0.067-0.206,0.067-0.304v-2.28h3.639v6.256H60.71
				v-3.077h1.763v-10.86H60.71V385.758z"/>
		</g>
		<g>
			<g>
				<g>
					<polygon fill="#7C5904" points="218.494,402.203 80.423,402.203 80.423,395.003 218.494,395.003 222.642,398.603 					"/>
				</g>
				<g>
					<polygon fill="#7C5904" points="223.884,395.003 361.955,395.003 361.955,402.203 223.884,402.203 228.032,398.603 					"/>
				</g>
			</g>
			<g>
				<g>
					<polygon fill="#7C5904" points="218.494,416.117 80.423,416.117 80.423,408.917 218.494,408.917 222.642,412.517 					"/>
				</g>
				<g>
					<polygon fill="#7C5904" points="223.884,408.917 361.955,408.917 361.955,416.117 223.884,416.117 228.032,412.517 					"/>
				</g>
			</g>
			<g>
				<g>
					<polygon fill="#7C5904" points="218.494,485.685 80.423,485.685 80.423,478.486 218.494,478.486 222.642,482.085 					"/>
				</g>
				<g>
					<polygon fill="#7C5904" points="223.884,478.486 361.955,478.486 361.955,485.685 223.884,485.685 228.032,482.085 					"/>
				</g>
			</g>
			<g>
				<g>
					<polygon fill="#7C5904" points="218.494,430.03 80.423,430.03 80.423,422.831 218.494,422.831 222.642,426.43 					"/>
				</g>
				<g>
					<polygon fill="#7C5904" points="223.884,422.831 361.955,422.831 361.955,430.03 223.884,430.03 228.032,426.43 					"/>
				</g>
			</g>
			<g>
				<g>
					<polygon fill="#7C5904" points="218.494,443.945 80.423,443.945 80.423,436.746 218.494,436.746 222.642,440.344 					"/>
				</g>
				<g>
					<polygon fill="#7C5904" points="223.884,436.746 361.955,436.746 361.955,443.945 223.884,443.945 228.032,440.344 					"/>
				</g>
			</g>
			<g>
				<g>
					<polygon fill="#7C5904" points="218.494,457.858 80.423,457.858 80.423,450.658 218.494,450.658 222.642,454.257 					"/>
				</g>
				<g>
					<polygon fill="#7C5904" points="223.884,450.658 361.955,450.658 361.955,457.858 223.884,457.858 228.032,454.257 					"/>
				</g>
			</g>
			<g>
				<g>
					<polygon fill="#7C5904" points="218.494,471.772 80.423,471.772 80.423,464.572 218.494,464.572 222.642,468.171 					"/>
				</g>
				<g>
					<polygon fill="#7C5904" points="223.884,464.572 361.955,464.572 361.955,471.772 223.884,471.772 228.032,468.171 					"/>
				</g>
			</g>
		</g>
	</g>
	<g>
		<g>
			<g>
				<g>
					<polygon fill="#7C5904" points="218.494,68.27 80.423,68.27 80.423,61.07 218.494,61.07 222.642,64.671 					"/>
				</g>
				<g>
					<polygon fill="#7C5904" points="223.884,61.07 361.955,61.07 361.955,68.27 223.884,68.27 228.032,64.671 					"/>
				</g>
			</g>
			<g>
				<g>
					<polygon fill="#7C5904" points="218.494,151.752 80.423,151.752 80.423,144.554 218.494,144.554 222.642,148.154 					"/>
				</g>
				<g>
					<polygon fill="#7C5904" points="223.884,144.554 361.955,144.554 361.955,151.752 223.884,151.752 228.032,148.154 					"/>
				</g>
			</g>
			<g>
				<g>
					<polygon fill="#7C5904" points="218.494,96.098 80.423,96.098 80.423,88.899 218.494,88.899 222.642,92.498 					"/>
				</g>
				<g>
					<polygon fill="#7C5904" points="223.884,88.899 361.955,88.899 361.955,96.098 223.884,96.098 228.032,92.498 					"/>
				</g>
			</g>
			<g>
				<g>
					<polygon fill="#7C5904" points="218.494,82.183 80.423,82.183 80.423,74.984 218.494,74.984 222.642,78.583 					"/>
				</g>
				<g>
					<polygon fill="#7C5904" points="223.884,74.984 361.955,74.984 361.955,82.183 223.884,82.183 228.032,78.583 					"/>
				</g>
			</g>
			<g>
				<g>
					<polygon fill="#7C5904" points="218.494,110.012 80.423,110.012 80.423,102.813 218.494,102.813 222.642,106.413 					"/>
				</g>
				<g>
					<polygon fill="#7C5904" points="223.884,102.813 361.955,102.813 361.955,110.012 223.884,110.012 228.032,106.413 					"/>
				</g>
			</g>
			<g>
				<g>
					<polygon fill="#7C5904" points="218.494,123.925 80.423,123.925 80.423,116.726 218.494,116.726 222.642,120.325 					"/>
				</g>
				<g>
					<polygon fill="#7C5904" points="223.884,116.726 361.955,116.726 361.955,123.925 223.884,123.925 228.032,120.325 					"/>
				</g>
			</g>
			<g>
				<g>
					<polygon fill="#7C5904" points="218.494,137.839 80.423,137.839 80.423,130.64 218.494,130.64 222.642,134.239 					"/>
				</g>
				<g>
					<polygon fill="#7C5904" points="223.884,130.64 361.955,130.64 361.955,137.839 223.884,137.839 228.032,134.239 					"/>
				</g>
			</g>
		</g>
		<g>
			<path fill="#C63706" d="M65.234,67.752c-0.771,0-1.509-0.104-2.212-0.314c-0.704-0.209-1.361-0.505-1.971-0.887
				c-0.61-0.382-1.165-0.841-1.662-1.376c-0.498-0.535-0.923-1.13-1.275-1.785s-0.625-1.357-0.82-2.106
				c-0.195-0.748-0.292-1.53-0.292-2.347s0.097-1.601,0.292-2.353c0.195-0.753,0.468-1.456,0.82-2.111s0.777-1.251,1.275-1.786
				c0.498-0.535,1.052-0.993,1.662-1.376c0.609-0.381,1.267-0.677,1.971-0.887s1.441-0.314,2.212-0.314s1.51,0.104,2.218,0.314
				c0.707,0.21,1.366,0.506,1.977,0.887c0.61,0.383,1.164,0.841,1.662,1.376c0.498,0.535,0.924,1.131,1.28,1.786
				c0.355,0.655,0.63,1.358,0.825,2.111c0.195,0.752,0.292,1.536,0.292,2.353c0,0.809-0.097,1.589-0.292,2.342
				c-0.195,0.752-0.47,1.456-0.825,2.111c-0.356,0.655-0.783,1.25-1.28,1.785c-0.498,0.535-1.052,0.994-1.662,1.376
				c-0.61,0.382-1.27,0.678-1.977,0.887C66.744,67.648,66.005,67.752,65.234,67.752z M65.234,64.227
				c0.651,0,1.249-0.141,1.792-0.422c0.542-0.28,1.009-0.662,1.398-1.146c0.389-0.482,0.691-1.044,0.904-1.685
				c0.214-0.64,0.32-1.319,0.32-2.038c0-0.727-0.108-1.411-0.326-2.056c-0.217-0.644-0.522-1.207-0.916-1.689
				c-0.393-0.483-0.859-0.865-1.398-1.146c-0.539-0.281-1.13-0.421-1.774-0.421s-1.235,0.14-1.774,0.421
				c-0.539,0.28-1.003,0.662-1.393,1.146c-0.389,0.482-0.694,1.046-0.916,1.689c-0.221,0.645-0.331,1.329-0.331,2.056
				c0,0.719,0.11,1.398,0.331,2.038c0.221,0.641,0.526,1.202,0.916,1.685c0.389,0.483,0.854,0.865,1.393,1.146
				C63.999,64.086,64.59,64.227,65.234,64.227z"/>
		</g>
	</g>
	<g>
		<g>
			<path fill="#398EB0" d="M59.896,162.092h7.861c0.876,0,1.681,0.137,2.415,0.41s1.366,0.642,1.898,1.105
				c0.532,0.465,0.947,1,1.247,1.606s0.449,1.239,0.449,1.897c0,0.794-0.118,1.537-0.354,2.229
				c-0.236,0.692-0.601,1.294-1.095,1.803s-1.119,0.911-1.875,1.207s-1.651,0.444-2.684,0.444h-2.37v3.245h1.561v3.077h-7.053
				v-3.077h1.763v-10.86h-1.763V162.092z M65.388,165.18v4.571h1.539c0.854,0,1.531-0.18,2.033-0.539s0.752-0.929,0.752-1.707
				c0-0.727-0.236-1.295-0.708-1.707s-1.164-0.618-2.078-0.618H65.388z"/>
		</g>
		<g>
			<g>
				<g>
					<polygon fill="#7C5904" points="218.39,193.495 80.319,193.495 80.319,186.296 218.39,186.296 222.537,189.895 					"/>
				</g>
				<g>
					<polygon fill="#7C5904" points="223.78,186.296 361.851,186.296 361.851,193.495 223.78,193.495 227.928,189.895 					"/>
				</g>
			</g>
			<g>
				<g>
					<polygon fill="#7C5904" points="218.39,179.582 80.319,179.582 80.319,172.382 218.39,172.382 222.537,175.982 					"/>
				</g>
				<g>
					<polygon fill="#7C5904" points="223.78,172.382 361.851,172.382 361.851,179.582 223.78,179.582 227.928,175.982 					"/>
				</g>
			</g>
			<g>
				<g>
					<polygon fill="#7C5904" points="218.39,207.409 80.319,207.409 80.319,200.209 218.39,200.209 222.537,203.809 					"/>
				</g>
				<g>
					<polygon fill="#7C5904" points="223.78,200.209 361.851,200.209 361.851,207.409 223.78,207.409 227.928,203.809 					"/>
				</g>
			</g>
			<g>
				<g>
					<polygon fill="#7C5904" points="218.39,235.236 80.319,235.236 80.319,228.037 218.39,228.037 222.537,231.635 					"/>
				</g>
				<g>
					<polygon fill="#7C5904" points="223.78,228.037 361.851,228.037 361.851,235.236 223.78,235.236 227.928,231.635 					"/>
				</g>
			</g>
			<g>
				<g>
					<polygon fill="#7C5904" points="218.494,221.323 80.423,221.323 80.423,214.124 218.494,214.124 222.642,217.723 					"/>
				</g>
				<g>
					<polygon fill="#7C5904" points="223.884,214.124 361.955,214.124 361.955,221.323 223.884,221.323 228.032,217.723 					"/>
				</g>
			</g>
			<g>
				<g>
					<polygon fill="#7C5904" points="218.39,249.151 80.319,249.151 80.319,241.952 218.39,241.952 222.537,245.551 					"/>
				</g>
				<g>
					<polygon fill="#7C5904" points="223.78,241.952 361.851,241.952 361.851,249.151 223.78,249.151 227.928,245.551 					"/>
				</g>
			</g>
			<g>
				<g>
					<polygon fill="#7C5904" points="218.39,263.064 80.319,263.064 80.319,255.865 218.39,255.865 222.537,259.464 					"/>
				</g>
				<g>
					<polygon fill="#7C5904" points="223.78,255.865 361.851,255.865 361.851,263.064 223.78,263.064 227.928,259.464 					"/>
				</g>
			</g>
		</g>
	</g>
</g>
</svg>
