<?xml version="1.0" encoding="utf-8"?>
<!-- Generator: Adobe Illustrator 16.0.4, SVG Export Plug-In . SVG Version: 6.00 Build 0)  -->
<!DOCTYPE svg PUBLIC "-//W3C//DTD SVG 1.1//EN" "http://www.w3.org/Graphics/SVG/1.1/DTD/svg11.dtd">
<svg version="1.1" id="Layer_1" xmlns="http://www.w3.org/2000/svg" xmlns:xlink="http://www.w3.org/1999/xlink" x="0px" y="0px"
	 width="448.746px" height="616.435px" viewBox="0 0 448.746 616.435" enable-background="new 0 0 448.746 616.435"
	 xml:space="preserve">
<rect x="0.5" y="0.5" fill="#FFFFFF" stroke="#C68D06" stroke-miterlimit="10" width="447.746" height="615.435"/>
<g>
	<path fill="#C68D06" d="M344.629,581.569c0-3.745,1.854-7.175,8.681-11.551c3.885-2.485,5.46-4.235,5.46-7.036
		c0-3.045-1.89-5.04-5.285-5.04c-2.835,0-4.9,1.47-6.44,4.48l-1.961-1.155c1.82-3.5,4.691-5.53,8.507-5.53
		c4.69,0,7.596,2.94,7.596,7.105c0,3.535-1.716,5.775-6.687,8.926c-4.69,2.976-6.965,5.775-7.141,8.121h13.932v2.24h-16.661V581.569
		z"/>
	<path fill="#C68D06" d="M369.094,579.889h4.865v-20.967c-1.26,0.665-3.29,1.189-4.796,1.189v-2.205
		c1.995-0.07,3.78-0.595,4.936-1.68h2.311v23.662h4.41v2.24h-11.726V579.889z"/>
	<path fill="#C68D06" d="M388.939,556.227h8.681c5.776,0,8.996,2.45,8.996,7c0,4.201-2.45,6.301-6.195,7.001l6.546,11.901h-2.801
		l-6.336-11.621h-6.44v11.621h-2.45V556.227z M397.445,568.303c4.271,0,6.686-1.226,6.686-4.971c0-3.57-2.38-4.831-6.721-4.831
		h-6.021v9.802H397.445z"/>
</g>
<g>
	<rect x="80.221" y="157.966" fill="#C0DDE7" width="281.738" height="7.2"/>
</g>
<g>
	<rect x="80.221" y="171.88" fill="#C0DDE7" width="281.738" height="7.199"/>
</g>
<g>
	<rect x="80.221" y="185.793" fill="#C0DDE7" width="281.738" height="7.2"/>
</g>
<g>
	<rect x="80.221" y="199.708" fill="#C0DDE7" width="281.738" height="7.199"/>
</g>
<g>
	<rect x="80.221" y="213.621" fill="#C0DDE7" width="281.738" height="7.199"/>
</g>
<g>
	<rect x="80.221" y="227.534" fill="#C0DDE7" width="281.738" height="7.2"/>
</g>
<g>
	<rect x="80.221" y="241.449" fill="#C0DDE7" width="281.738" height="7.198"/>
</g>
<g>
	<rect x="80.221" y="255.361" fill="#C0DDE7" width="281.738" height="7.2"/>
</g>
<g>
	<rect x="80.221" y="269.275" fill="#C0DDE7" width="281.738" height="7.199"/>
</g>
<g>
	<rect x="80.221" y="283.188" fill="#C0DDE7" width="281.738" height="7.2"/>
</g>
<g>
	<rect x="80.221" y="297.102" fill="#C0DDE7" width="281.738" height="7.2"/>
</g>
<g>
	<rect x="80.221" y="311.015" fill="#C0DDE7" width="281.738" height="7.2"/>
</g>
<g>
	<rect x="80.221" y="324.929" fill="#C0DDE7" width="281.738" height="7.199"/>
</g>
<g>
	<rect x="80.221" y="338.842" fill="#C0DDE7" width="281.738" height="7.2"/>
</g>
<g>
	<rect x="80.221" y="352.755" fill="#C0DDE7" width="281.738" height="7.2"/>
</g>
<g>
	<rect x="80.221" y="366.668" fill="#C0DDE7" width="281.738" height="7.201"/>
</g>
<g>
	<rect x="80.221" y="380.583" fill="#C0DDE7" width="281.738" height="7.198"/>
</g>
<g>
	<rect x="80.221" y="394.497" fill="#C0DDE7" width="281.738" height="7.199"/>
</g>
<g>
	<rect x="80.221" y="408.411" fill="#C0DDE7" width="281.738" height="7.199"/>
</g>
<g>
	<rect x="80.221" y="422.324" fill="#C0DDE7" width="281.738" height="7.2"/>
</g>
<g>
	<rect x="80.221" y="436.238" fill="#C0DDE7" width="281.738" height="7.2"/>
</g>
<g>
	<rect x="80.221" y="450.152" fill="#C0DDE7" width="281.738" height="7.199"/>
</g>
<g>
	<rect x="80.221" y="464.066" fill="#C0DDE7" width="281.738" height="7.199"/>
</g>
<g>
	<rect x="80.221" y="477.979" fill="#C0DDE7" width="281.738" height="7.2"/>
</g>
<g>
	<rect x="80.221" y="60.569" fill="#C0DDE7" width="281.738" height="7.2"/>
</g>
<g>
	<rect x="80.221" y="74.483" fill="#C0DDE7" width="281.738" height="7.2"/>
</g>
<g>
	<rect x="80.221" y="144.052" fill="#C0DDE7" width="281.738" height="7.2"/>
</g>
<g>
	<rect x="80.221" y="88.397" fill="#C0DDE7" width="281.738" height="7.199"/>
</g>
<g>
	<rect x="80.221" y="102.311" fill="#C0DDE7" width="281.738" height="7.2"/>
</g>
<g>
	<rect x="80.221" y="116.225" fill="#C0DDE7" width="281.738" height="7.199"/>
</g>
<g>
	<rect x="80.221" y="130.139" fill="#C0DDE7" width="281.738" height="7.199"/>
</g>
<g>
	<g>
		<g>
			<path fill="#C63706" d="M66.733,273.586h7.289v3.077h-1.797v10.871h1.797v3.077h-7.289v-3.077h1.763v-10.871h-1.763V273.586z"/>
		</g>
		<g>
			<g>
				<g>
					<polygon fill="#7C5904" points="218.498,290.386 80.428,290.386 80.428,283.187 218.498,283.187 222.646,286.787 					"/>
				</g>
				<g>
					<polygon fill="#7C5904" points="223.889,283.187 361.959,283.187 361.959,290.386 223.889,290.386 228.036,286.787 					"/>
				</g>
			</g>
			<g>
				<g>
					<polygon fill="#7C5904" points="218.498,304.3 80.428,304.3 80.428,297.101 218.498,297.101 222.646,300.701 					"/>
				</g>
				<g>
					<polygon fill="#7C5904" points="223.889,297.101 361.959,297.101 361.959,304.3 223.889,304.3 228.036,300.701 					"/>
				</g>
			</g>
			<g>
				<g>
					<polygon fill="#7C5904" points="218.498,373.869 80.428,373.869 80.428,366.669 218.498,366.669 222.646,370.269 					"/>
				</g>
				<g>
					<polygon fill="#7C5904" points="223.889,366.669 361.959,366.669 361.959,373.869 223.889,373.869 228.036,370.269 					"/>
				</g>
			</g>
			<g>
				<g>
					<polygon fill="#7C5904" points="218.498,318.213 80.428,318.213 80.428,311.014 218.498,311.014 222.646,314.614 					"/>
				</g>
				<g>
					<polygon fill="#7C5904" points="223.889,311.014 361.959,311.014 361.959,318.213 223.889,318.213 228.036,314.614 					"/>
				</g>
			</g>
			<g>
				<g>
					<polygon fill="#7C5904" points="218.498,332.128 80.428,332.128 80.428,324.929 218.498,324.929 222.646,328.528 					"/>
				</g>
				<g>
					<polygon fill="#7C5904" points="223.889,324.929 361.959,324.929 361.959,332.128 223.889,332.128 228.036,328.528 					"/>
				</g>
			</g>
			<g>
				<g>
					<polygon fill="#7C5904" points="218.498,346.042 80.428,346.042 80.428,338.841 218.498,338.841 222.646,342.441 					"/>
				</g>
				<g>
					<polygon fill="#7C5904" points="223.889,338.841 361.959,338.841 361.959,346.042 223.889,346.042 228.036,342.441 					"/>
				</g>
			</g>
			<g>
				<g>
					<polygon fill="#7C5904" points="218.498,359.956 80.428,359.956 80.428,352.755 218.498,352.755 222.646,356.355 					"/>
				</g>
				<g>
					<polygon fill="#7C5904" points="223.889,352.755 361.959,352.755 361.959,359.956 223.889,359.956 228.036,356.355 					"/>
				</g>
			</g>
		</g>
	</g>
	<g>
		<g>
			<path fill="#398EB0" d="M67.845,399.201h1.696l-0.764-2.448h-5.233l-0.764,2.448h1.796v3.077H58.12v-3.077h1.269l4.638-13.948
				h4.503l4.537,13.948h1.235v3.077h-6.458V399.201z M64.431,393.877h3.437l-1.729-5.537L64.431,393.877z"/>
		</g>
		<g>
			<g>
				<g>
					<polygon fill="#7C5904" points="218.498,401.697 80.428,401.697 80.428,394.498 218.498,394.498 222.646,398.097 					"/>
				</g>
				<g>
					<polygon fill="#7C5904" points="223.889,394.498 361.959,394.498 361.959,401.697 223.889,401.697 228.036,398.097 					"/>
				</g>
			</g>
			<g>
				<g>
					<polygon fill="#7C5904" points="218.498,415.611 80.428,415.611 80.428,408.412 218.498,408.412 222.646,412.011 					"/>
				</g>
				<g>
					<polygon fill="#7C5904" points="223.889,408.412 361.959,408.412 361.959,415.611 223.889,415.611 228.036,412.011 					"/>
				</g>
			</g>
			<g>
				<g>
					<polygon fill="#7C5904" points="218.498,485.179 80.428,485.179 80.428,477.98 218.498,477.98 222.646,481.58 					"/>
				</g>
				<g>
					<polygon fill="#7C5904" points="223.889,477.98 361.959,477.98 361.959,485.179 223.889,485.179 228.036,481.58 					"/>
				</g>
			</g>
			<g>
				<g>
					<polygon fill="#7C5904" points="218.498,429.524 80.428,429.524 80.428,422.325 218.498,422.325 222.646,425.924 					"/>
				</g>
				<g>
					<polygon fill="#7C5904" points="223.889,422.325 361.959,422.325 361.959,429.524 223.889,429.524 228.036,425.924 					"/>
				</g>
			</g>
			<g>
				<g>
					<polygon fill="#7C5904" points="218.498,443.439 80.428,443.439 80.428,436.24 218.498,436.24 222.646,439.838 					"/>
				</g>
				<g>
					<polygon fill="#7C5904" points="223.889,436.24 361.959,436.24 361.959,443.439 223.889,443.439 228.036,439.838 					"/>
				</g>
			</g>
			<g>
				<g>
					<polygon fill="#7C5904" points="218.498,457.352 80.428,457.352 80.428,450.152 218.498,450.152 222.646,453.751 					"/>
				</g>
				<g>
					<polygon fill="#7C5904" points="223.889,450.152 361.959,450.152 361.959,457.352 223.889,457.352 228.036,453.751 					"/>
				</g>
			</g>
			<g>
				<g>
					<polygon fill="#7C5904" points="218.498,471.266 80.428,471.266 80.428,464.066 218.498,464.066 222.646,467.666 					"/>
				</g>
				<g>
					<polygon fill="#7C5904" points="223.889,464.066 361.959,464.066 361.959,471.266 223.889,471.266 228.036,467.666 					"/>
				</g>
			</g>
		</g>
	</g>
	<g>
		<g>
			<g>
				<g>
					<polygon fill="#7C5904" points="218.498,67.764 80.428,67.764 80.428,60.564 218.498,60.564 222.646,64.166 					"/>
				</g>
				<g>
					<polygon fill="#7C5904" points="223.889,60.564 361.959,60.564 361.959,67.764 223.889,67.764 228.037,64.166 					"/>
				</g>
			</g>
			<g>
				<g>
					<polygon fill="#7C5904" points="218.498,151.247 80.428,151.247 80.428,144.048 218.498,144.048 222.646,147.647 					"/>
				</g>
				<g>
					<polygon fill="#7C5904" points="223.889,144.048 361.959,144.048 361.959,151.247 223.889,151.247 228.037,147.647 					"/>
				</g>
			</g>
			<g>
				<g>
					<polygon fill="#7C5904" points="218.498,95.592 80.428,95.592 80.428,88.394 218.498,88.394 222.646,91.992 					"/>
				</g>
				<g>
					<polygon fill="#7C5904" points="223.889,88.394 361.959,88.394 361.959,95.592 223.889,95.592 228.037,91.992 					"/>
				</g>
			</g>
			<g>
				<g>
					<polygon fill="#7C5904" points="218.498,81.677 80.428,81.677 80.428,74.478 218.498,74.478 222.646,78.077 					"/>
				</g>
				<g>
					<polygon fill="#7C5904" points="223.889,74.478 361.959,74.478 361.959,81.677 223.889,81.677 228.037,78.077 					"/>
				</g>
			</g>
			<g>
				<g>
					<polygon fill="#7C5904" points="218.498,109.506 80.428,109.506 80.428,102.307 218.498,102.307 222.646,105.906 					"/>
				</g>
				<g>
					<polygon fill="#7C5904" points="223.889,102.307 361.959,102.307 361.959,109.506 223.889,109.506 228.037,105.906 					"/>
				</g>
			</g>
			<g>
				<g>
					<polygon fill="#7C5904" points="218.498,123.42 80.428,123.42 80.428,116.22 218.498,116.22 222.646,119.819 					"/>
				</g>
				<g>
					<polygon fill="#7C5904" points="223.889,116.22 361.959,116.22 361.959,123.42 223.889,123.42 228.037,119.819 					"/>
				</g>
			</g>
			<g>
				<g>
					<polygon fill="#7C5904" points="218.498,137.333 80.428,137.333 80.428,130.134 218.498,130.134 222.646,133.733 					"/>
				</g>
				<g>
					<polygon fill="#7C5904" points="223.889,130.134 361.959,130.134 361.959,137.333 223.889,137.333 228.037,133.733 					"/>
				</g>
			</g>
		</g>
		<g>
			<path fill="#C63706" d="M63.508,67.08c-0.958-0.194-1.844-0.552-2.656-1.073c-0.812-0.52-1.517-1.162-2.111-1.926
				c-0.596-0.763-1.06-1.627-1.393-2.589c-0.333-0.962-0.5-1.982-0.5-3.061c0-0.816,0.097-1.6,0.292-2.352
				c0.195-0.753,0.468-1.456,0.82-2.111c0.352-0.655,0.777-1.251,1.275-1.786c0.498-0.535,1.052-0.993,1.662-1.376
				c0.61-0.381,1.267-0.677,1.971-0.887c0.704-0.21,1.441-0.314,2.212-0.314s1.51,0.104,2.218,0.314
				c0.707,0.21,1.366,0.506,1.977,0.887c0.61,0.383,1.164,0.841,1.662,1.376c0.498,0.535,0.924,1.131,1.28,1.786
				c0.355,0.655,0.63,1.358,0.825,2.111c0.195,0.752,0.292,1.536,0.292,2.352c0,1.093-0.172,2.126-0.517,3.1
				s-0.822,1.846-1.432,2.616c-0.61,0.772-1.335,1.416-2.173,1.932c-0.838,0.518-1.748,0.861-2.729,1.033
				c0.232,0.098,0.462,0.204,0.69,0.32c0.229,0.116,0.459,0.225,0.691,0.326c0.232,0.101,0.462,0.187,0.691,0.258
				c0.228,0.071,0.462,0.111,0.702,0.118c0.232,0,0.458-0.03,0.679-0.09s0.421-0.154,0.601-0.281
				c0.18-0.128,0.335-0.293,0.466-0.494c0.131-0.203,0.219-0.449,0.264-0.742l2.504,1.247c-0.067,0.547-0.223,1.041-0.466,1.482
				c-0.243,0.442-0.556,0.819-0.938,1.134c-0.382,0.314-0.816,0.559-1.303,0.731c-0.487,0.172-1.003,0.258-1.55,0.258
				c-0.442,0-0.885-0.084-1.331-0.252c-0.445-0.169-0.876-0.353-1.291-0.551c-0.416-0.198-0.807-0.382-1.174-0.55
				c-0.367-0.169-0.689-0.253-0.966-0.253c-0.12,0-0.227-0.002-0.32-0.006c-0.093-0.004-0.185-0.004-0.275,0
				c-0.09,0.003-0.189,0.016-0.297,0.034c-0.109,0.019-0.234,0.053-0.376,0.106L63.508,67.08z M65.08,63.722
				c0.651,0,1.249-0.141,1.792-0.422c0.542-0.28,1.009-0.662,1.398-1.146c0.389-0.482,0.691-1.044,0.904-1.684
				c0.214-0.64,0.32-1.319,0.32-2.039c0-0.726-0.108-1.411-0.326-2.056c-0.217-0.643-0.522-1.207-0.916-1.689
				c-0.393-0.484-0.859-0.865-1.398-1.146c-0.539-0.281-1.13-0.421-1.774-0.421s-1.235,0.14-1.774,0.421
				c-0.539,0.281-1.003,0.662-1.393,1.146c-0.389,0.482-0.694,1.046-0.916,1.689c-0.221,0.645-0.331,1.329-0.331,2.056
				c0,0.719,0.11,1.399,0.331,2.039c0.221,0.64,0.526,1.202,0.916,1.684c0.389,0.484,0.854,0.865,1.393,1.146
				C63.845,63.582,64.436,63.722,65.08,63.722z"/>
		</g>
	</g>
	<g>
		<g>
			<path fill="#398EB0" d="M69.323,166.765c-0.419-0.6-0.797-1.024-1.134-1.276c-0.337-0.251-0.7-0.43-1.089-0.539
				s-0.797-0.162-1.224-0.162c-0.629,0-1.213,0.14-1.752,0.42c-0.539,0.28-1.005,0.662-1.398,1.146
				c-0.394,0.482-0.702,1.044-0.927,1.684c-0.225,0.64-0.337,1.32-0.337,2.038c0,0.727,0.11,1.409,0.331,2.05
				c0.221,0.639,0.526,1.199,0.916,1.679c0.389,0.479,0.854,0.859,1.393,1.14c0.539,0.281,1.13,0.421,1.774,0.421
				c0.449,0,0.869-0.072,1.258-0.219c0.389-0.146,0.743-0.339,1.061-0.578c0.318-0.239,0.597-0.515,0.837-0.825
				c0.24-0.311,0.427-0.635,0.562-0.972l3.616,1.011c-0.232,0.733-0.573,1.413-1.022,2.038c-0.449,0.625-0.99,1.166-1.623,1.623
				c-0.633,0.457-1.344,0.816-2.134,1.078c-0.79,0.262-1.642,0.392-2.555,0.392c-0.771,0-1.509-0.104-2.212-0.314
				c-0.704-0.209-1.361-0.505-1.971-0.887c-0.61-0.382-1.165-0.842-1.662-1.381c-0.498-0.539-0.923-1.136-1.275-1.792
				c-0.352-0.655-0.625-1.358-0.82-2.111c-0.195-0.752-0.292-1.536-0.292-2.353c0-1.221,0.213-2.364,0.64-3.43
				c0.427-1.068,1.011-1.999,1.752-2.797c0.742-0.797,1.612-1.426,2.611-1.887c1-0.46,2.076-0.691,3.229-0.691
				c0.921,0,1.696,0.115,2.325,0.343c0.629,0.229,1.321,0.678,2.078,1.353h2.516v3.797H69.323z"/>
		</g>
		<g>
			<g>
				<g>
					<polygon fill="#7C5904" points="218.394,192.99 80.324,192.99 80.324,185.79 218.394,185.79 222.542,189.389 					"/>
				</g>
				<g>
					<polygon fill="#7C5904" points="223.785,185.79 361.855,185.79 361.855,192.99 223.785,192.99 227.933,189.389 					"/>
				</g>
			</g>
			<g>
				<g>
					<polygon fill="#7C5904" points="218.394,179.076 80.324,179.076 80.324,171.876 218.394,171.876 222.542,175.476 					"/>
				</g>
				<g>
					<polygon fill="#7C5904" points="223.785,171.876 361.855,171.876 361.855,179.076 223.785,179.076 227.933,175.476 					"/>
				</g>
			</g>
			<g>
				<g>
					<polygon fill="#7C5904" points="218.394,206.903 80.324,206.903 80.324,199.704 218.394,199.704 222.542,203.303 					"/>
				</g>
				<g>
					<polygon fill="#7C5904" points="223.785,199.704 361.855,199.704 361.855,206.903 223.785,206.903 227.933,203.303 					"/>
				</g>
			</g>
			<g>
				<g>
					<polygon fill="#7C5904" points="218.394,234.73 80.324,234.73 80.324,227.531 218.394,227.531 222.542,231.129 					"/>
				</g>
				<g>
					<polygon fill="#7C5904" points="223.785,227.531 361.855,227.531 361.855,234.73 223.785,234.73 227.933,231.129 					"/>
				</g>
			</g>
			<g>
				<g>
					<polygon fill="#7C5904" points="218.498,220.817 80.428,220.817 80.428,213.618 218.498,213.618 222.646,217.217 					"/>
				</g>
				<g>
					<polygon fill="#7C5904" points="223.889,213.618 361.959,213.618 361.959,220.817 223.889,220.817 228.037,217.217 					"/>
				</g>
			</g>
			<g>
				<g>
					<polygon fill="#7C5904" points="218.394,248.645 80.324,248.645 80.324,241.446 218.394,241.446 222.542,245.044 					"/>
				</g>
				<g>
					<polygon fill="#7C5904" points="223.785,241.446 361.855,241.446 361.855,248.645 223.785,248.645 227.933,245.044 					"/>
				</g>
			</g>
			<g>
				<g>
					<polygon fill="#7C5904" points="218.394,262.558 80.324,262.558 80.324,255.359 218.394,255.359 222.542,258.958 					"/>
				</g>
				<g>
					<polygon fill="#7C5904" points="223.785,255.359 361.855,255.359 361.855,262.558 223.785,262.558 227.933,258.958 					"/>
				</g>
			</g>
		</g>
	</g>
</g>
</svg>
