<?xml version="1.0" encoding="utf-8"?>
<!-- Generator: Adobe Illustrator 16.0.4, SVG Export Plug-In . SVG Version: 6.00 Build 0)  -->
<!DOCTYPE svg PUBLIC "-//W3C//DTD SVG 1.1//EN" "http://www.w3.org/Graphics/SVG/1.1/DTD/svg11.dtd">
<svg version="1.1" id="Layer_1" xmlns="http://www.w3.org/2000/svg" xmlns:xlink="http://www.w3.org/1999/xlink" x="0px" y="0px"
	 width="448.745px" height="616.44px" viewBox="0 0 448.745 616.44" enable-background="new 0 0 448.745 616.44"
	 xml:space="preserve">
<rect x="0.5" y="0.5" fill="#FFFFFF" stroke="#C68D06" stroke-miterlimit="10" width="447.745" height="615.44"/>
<g>
	<path fill="#C68D06" d="M340.939,579.574c0-3.745,1.854-7.175,8.681-11.551c3.885-2.485,5.46-4.235,5.46-7.036
		c0-3.045-1.89-5.04-5.285-5.04c-2.835,0-4.9,1.47-6.44,4.48l-1.961-1.155c1.82-3.5,4.691-5.53,8.507-5.53
		c4.69,0,7.596,2.94,7.596,7.105c0,3.535-1.716,5.775-6.687,8.926c-4.69,2.976-6.965,5.775-7.141,8.121h13.932v2.24h-16.661V579.574
		z"/>
	<path fill="#C68D06" d="M364.984,579.574c0-3.745,1.854-7.175,8.681-11.551c3.885-2.485,5.46-4.235,5.46-7.036
		c0-3.045-1.89-5.04-5.285-5.04c-2.835,0-4.9,1.47-6.44,4.48l-1.961-1.155c1.82-3.5,4.691-5.53,8.507-5.53
		c4.69,0,7.596,2.94,7.596,7.105c0,3.535-1.716,5.775-6.687,8.926c-4.69,2.976-6.965,5.775-7.141,8.121h13.932v2.24h-16.661V579.574
		z"/>
	<path fill="#C68D06" d="M388.608,554.232h2.556l7.735,22.612h0.07l7.771-22.612h2.416l-9.102,26.008h-2.345L388.608,554.232z"/>
</g>
<g>
	<rect x="79.375" y="158.217" fill="#C0DDE7" width="281.739" height="7.199"/>
</g>
<g>
	<rect x="79.375" y="172.13" fill="#C0DDE7" width="281.738" height="7.199"/>
</g>
<g>
	<rect x="79.375" y="186.044" fill="#C0DDE7" width="281.739" height="7.201"/>
</g>
<g>
	<rect x="79.375" y="199.958" fill="#C0DDE7" width="281.739" height="7.199"/>
</g>
<g>
	<rect x="79.375" y="213.872" fill="#C0DDE7" width="281.739" height="7.199"/>
</g>
<g>
	<rect x="79.375" y="227.785" fill="#C0DDE7" width="281.739" height="7.201"/>
</g>
<g>
	<rect x="79.375" y="241.699" fill="#C0DDE7" width="281.738" height="7.199"/>
</g>
<g>
	<rect x="79.375" y="255.612" fill="#C0DDE7" width="281.738" height="7.2"/>
</g>
<g>
	<rect x="79.375" y="269.528" fill="#C0DDE7" width="281.739" height="7.199"/>
</g>
<g>
	<rect x="79.375" y="283.44" fill="#C0DDE7" width="281.738" height="7.2"/>
</g>
<g>
	<rect x="79.375" y="297.354" fill="#C0DDE7" width="281.739" height="7.2"/>
</g>
<g>
	<rect x="79.375" y="311.269" fill="#C0DDE7" width="281.739" height="7.2"/>
</g>
<g>
	<rect x="79.375" y="325.183" fill="#C0DDE7" width="281.739" height="7.199"/>
</g>
<g>
	<rect x="79.375" y="339.096" fill="#C0DDE7" width="281.738" height="7.2"/>
</g>
<g>
	<rect x="79.375" y="353.01" fill="#C0DDE7" width="281.739" height="7.2"/>
</g>
<g>
	<rect x="79.375" y="366.924" fill="#C0DDE7" width="281.739" height="7.2"/>
</g>
<g>
	<rect x="79.375" y="380.838" fill="#C0DDE7" width="281.739" height="7.199"/>
</g>
<g>
	<rect x="79.375" y="394.752" fill="#C0DDE7" width="281.739" height="7.199"/>
</g>
<g>
	<rect x="79.375" y="408.665" fill="#C0DDE7" width="281.738" height="7.199"/>
</g>
<g>
	<rect x="79.375" y="422.579" fill="#C0DDE7" width="281.739" height="7.2"/>
</g>
<g>
	<rect x="79.375" y="436.492" fill="#C0DDE7" width="281.738" height="7.2"/>
</g>
<g>
	<rect x="79.375" y="450.407" fill="#C0DDE7" width="281.739" height="7.199"/>
</g>
<g>
	<rect x="79.375" y="464.32" fill="#C0DDE7" width="281.738" height="7.199"/>
</g>
<g>
	<rect x="79.375" y="478.234" fill="#C0DDE7" width="281.739" height="7.2"/>
</g>
<g>
	<rect x="79.375" y="60.82" fill="#C0DDE7" width="281.739" height="7.2"/>
</g>
<g>
	<rect x="79.375" y="74.733" fill="#C0DDE7" width="281.738" height="7.2"/>
</g>
<g>
	<rect x="79.375" y="144.303" fill="#C0DDE7" width="281.738" height="7.199"/>
</g>
<g>
	<rect x="79.375" y="88.647" fill="#C0DDE7" width="281.739" height="7.199"/>
</g>
<g>
	<rect x="79.375" y="102.561" fill="#C0DDE7" width="281.738" height="7.2"/>
</g>
<g>
	<rect x="79.375" y="116.475" fill="#C0DDE7" width="281.738" height="7.199"/>
</g>
<g>
	<rect x="79.375" y="130.389" fill="#C0DDE7" width="281.738" height="7.199"/>
</g>
<g>
	<g>
		<polygon fill="#7C5904" points="217.549,401.95 79.479,401.95 79.479,394.751 217.549,394.751 221.697,398.351 		"/>
	</g>
	<g>
		<polygon fill="#7C5904" points="222.939,394.751 361.01,394.751 361.01,401.95 222.939,401.95 227.088,398.351 		"/>
	</g>
</g>
<g>
	<g>
		<polygon fill="#7C5904" points="217.549,415.864 79.479,415.864 79.479,408.665 217.549,408.665 221.697,412.265 		"/>
	</g>
	<g>
		<polygon fill="#7C5904" points="222.939,408.665 361.01,408.665 361.01,415.864 222.939,415.864 227.088,412.265 		"/>
	</g>
</g>
<g>
	<g>
		<polygon fill="#7C5904" points="217.549,429.777 79.479,429.777 79.479,422.578 217.549,422.578 221.697,426.178 		"/>
	</g>
	<g>
		<polygon fill="#7C5904" points="222.939,422.578 361.01,422.578 361.01,429.777 222.939,429.777 227.088,426.178 		"/>
	</g>
</g>
<g>
	<g>
		<polygon fill="#7C5904" points="217.549,443.691 79.479,443.691 79.479,436.492 217.549,436.492 221.697,440.091 		"/>
	</g>
	<g>
		<polygon fill="#7C5904" points="222.939,436.492 361.01,436.492 361.01,443.691 222.939,443.691 227.088,440.091 		"/>
	</g>
</g>
<g>
	<g>
		<polygon fill="#7C5904" points="217.549,457.604 79.479,457.604 79.479,450.404 217.549,450.404 221.697,454.004 		"/>
	</g>
	<g>
		<polygon fill="#7C5904" points="222.939,450.404 361.01,450.404 361.01,457.604 222.939,457.604 227.088,454.004 		"/>
	</g>
</g>
<g>
	<g>
		<polygon fill="#7C5904" points="217.549,471.519 79.479,471.519 79.479,464.318 217.549,464.318 221.697,467.918 		"/>
	</g>
	<g>
		<polygon fill="#7C5904" points="222.939,464.318 361.01,464.318 361.01,471.519 222.939,471.519 227.088,467.918 		"/>
	</g>
</g>
<g>
	<g>
		<g>
			<polygon fill="#7C5904" points="217.549,68.02 79.479,68.02 79.479,60.82 217.549,60.82 221.697,64.42 			"/>
		</g>
		<g>
			<polygon fill="#7C5904" points="222.939,60.82 361.01,60.82 361.01,68.02 222.939,68.02 227.088,64.42 			"/>
		</g>
	</g>
	<g>
		<g>
			<polygon fill="#7C5904" points="217.549,81.934 79.479,81.934 79.479,74.734 217.549,74.734 221.697,78.334 			"/>
		</g>
		<g>
			<polygon fill="#7C5904" points="222.939,74.734 361.01,74.734 361.01,81.934 222.939,81.934 227.088,78.334 			"/>
		</g>
	</g>
	<g>
		<g>
			<polygon fill="#7C5904" points="217.549,151.502 79.479,151.502 79.479,144.303 217.549,144.303 221.697,147.902 			"/>
		</g>
		<g>
			<polygon fill="#7C5904" points="222.939,144.303 361.01,144.303 361.01,151.502 222.939,151.502 227.088,147.902 			"/>
		</g>
	</g>
	<g>
		<g>
			<polygon fill="#7C5904" points="217.549,95.847 79.479,95.847 79.479,88.647 217.549,88.647 221.697,92.247 			"/>
		</g>
		<g>
			<polygon fill="#7C5904" points="222.939,88.647 361.01,88.647 361.01,95.847 222.939,95.847 227.088,92.247 			"/>
		</g>
	</g>
	<g>
		<g>
			<polygon fill="#7C5904" points="217.549,109.761 79.479,109.761 79.479,102.562 217.549,102.562 221.697,106.161 			"/>
		</g>
		<g>
			<polygon fill="#7C5904" points="222.939,102.562 361.01,102.562 361.01,109.761 222.939,109.761 227.088,106.161 			"/>
		</g>
	</g>
	<g>
		<g>
			<polygon fill="#7C5904" points="217.549,123.674 79.479,123.674 79.479,116.474 217.549,116.474 221.697,120.073 			"/>
		</g>
		<g>
			<polygon fill="#7C5904" points="222.939,116.474 361.01,116.474 361.01,123.674 222.939,123.674 227.088,120.073 			"/>
		</g>
	</g>
	<g>
		<g>
			<polygon fill="#7C5904" points="217.549,137.588 79.479,137.588 79.479,130.388 217.549,130.388 221.697,133.987 			"/>
		</g>
		<g>
			<polygon fill="#7C5904" points="222.939,130.388 361.01,130.388 361.01,137.588 222.939,137.588 227.088,133.987 			"/>
		</g>
	</g>
</g>
<g>
	<g>
		<polygon fill="#7C5904" points="217.549,179.33 79.479,179.33 79.479,172.131 217.549,172.131 221.697,175.73 		"/>
	</g>
	<g>
		<polygon fill="#7C5904" points="222.939,172.131 361.01,172.131 361.01,179.33 222.939,179.33 227.088,175.73 		"/>
	</g>
</g>
<g>
	<g>
		<polygon fill="#7C5904" points="217.549,248.898 79.479,248.898 79.479,241.699 217.549,241.699 221.697,245.299 		"/>
	</g>
	<g>
		<polygon fill="#7C5904" points="222.939,241.699 361.01,241.699 361.01,248.898 222.939,248.898 227.088,245.299 		"/>
	</g>
</g>
<g>
	<g>
		<polygon fill="#7C5904" points="217.549,193.243 79.479,193.243 79.479,186.044 217.549,186.044 221.697,189.644 		"/>
	</g>
	<g>
		<polygon fill="#7C5904" points="222.939,186.044 361.01,186.044 361.01,193.243 222.939,193.243 227.088,189.644 		"/>
	</g>
</g>
<g>
	<g>
		<polygon fill="#7C5904" points="217.549,207.157 79.479,207.157 79.479,199.958 217.549,199.958 221.697,203.557 		"/>
	</g>
	<g>
		<polygon fill="#7C5904" points="222.939,199.958 361.01,199.958 361.01,207.157 222.939,207.157 227.088,203.557 		"/>
	</g>
</g>
<g>
	<g>
		<polygon fill="#7C5904" points="217.549,221.07 79.479,221.07 79.479,213.871 217.549,213.871 221.697,217.47 		"/>
	</g>
	<g>
		<polygon fill="#7C5904" points="222.939,213.871 361.01,213.871 361.01,221.07 222.939,221.07 227.088,217.47 		"/>
	</g>
</g>
<g>
	<g>
		<polygon fill="#7C5904" points="217.549,234.984 79.479,234.984 79.479,227.785 217.549,227.785 221.697,231.384 		"/>
	</g>
	<g>
		<polygon fill="#7C5904" points="222.939,227.785 361.01,227.785 361.01,234.984 222.939,234.984 227.088,231.384 		"/>
	</g>
</g>
<g>
	<g>
		<polygon fill="#7C5904" points="217.549,262.813 79.479,262.813 79.479,255.614 217.549,255.614 221.697,259.214 		"/>
	</g>
	<g>
		<polygon fill="#7C5904" points="222.939,255.614 361.01,255.614 361.01,262.813 222.939,262.813 227.088,259.214 		"/>
	</g>
</g>
<g>
	<g>
		<polygon fill="#7C5904" points="217.549,346.296 79.479,346.296 79.479,339.097 217.549,339.097 221.697,342.696 		"/>
	</g>
	<g>
		<polygon fill="#7C5904" points="222.939,339.097 361.01,339.097 361.01,346.296 222.939,346.296 227.088,342.696 		"/>
	</g>
</g>
<g>
	<g>
		<polygon fill="#7C5904" points="217.549,360.21 79.479,360.21 79.479,353.011 217.549,353.011 221.697,356.61 		"/>
	</g>
	<g>
		<polygon fill="#7C5904" points="222.939,353.011 361.01,353.011 361.01,360.21 222.939,360.21 227.088,356.61 		"/>
	</g>
</g>
<g>
	<g>
		<polygon fill="#7C5904" points="217.549,374.124 79.479,374.124 79.479,366.925 217.549,366.925 221.697,370.524 		"/>
	</g>
	<g>
		<polygon fill="#7C5904" points="222.939,366.925 361.01,366.925 361.01,374.124 222.939,374.124 227.088,370.524 		"/>
	</g>
</g>
<g>
	<g>
		<polygon fill="#7C5904" points="217.549,290.641 79.479,290.641 79.479,283.441 217.549,283.441 221.697,287.041 		"/>
	</g>
	<g>
		<polygon fill="#7C5904" points="222.939,283.441 361.01,283.441 361.01,290.641 222.939,290.641 227.088,287.041 		"/>
	</g>
</g>
<g>
	<g>
		<polygon fill="#7C5904" points="217.549,304.555 79.479,304.555 79.479,297.355 217.549,297.355 221.697,300.954 		"/>
	</g>
	<g>
		<polygon fill="#7C5904" points="222.939,297.355 361.01,297.355 361.01,304.555 222.939,304.555 227.088,300.954 		"/>
	</g>
</g>
<g>
	<g>
		<polygon fill="#7C5904" points="217.549,318.468 79.479,318.468 79.479,311.268 217.549,311.268 221.697,314.867 		"/>
	</g>
	<g>
		<polygon fill="#7C5904" points="222.939,311.268 361.01,311.268 361.01,318.468 222.939,318.468 227.088,314.867 		"/>
	</g>
</g>
<g>
	<g>
		<polygon fill="#7C5904" points="217.549,332.382 79.479,332.382 79.479,325.182 217.549,325.182 221.697,328.781 		"/>
	</g>
	<g>
		<polygon fill="#7C5904" points="222.939,325.182 361.01,325.182 361.01,332.382 222.939,332.382 227.088,328.781 		"/>
	</g>
</g>
<g>
	<path fill="#C63706" d="M48.442,66.43h1.583V55.57h-1.583v-3.088h7.008l5.02,12.286l4.661-12.286h7.109v3.088h-1.583v10.86h1.561
		v3.077H65.85V66.43h1.168v-9.793l-5.099,12.668h-3.156l-5.188-12.331v9.456h1.269v3.077h-6.401V66.43z"/>
</g>
<g>
	<path fill="#398EB0" d="M69.7,176.284c-0.451-0.123-0.876-0.305-1.274-0.545s-0.747-0.537-1.046-0.893
		c-0.299-0.354-0.536-0.764-0.712-1.23c-0.176-0.465-0.264-0.988-0.264-1.568c0-0.615,0.123-1.191,0.369-1.727
		c0.246-0.537,0.595-1.004,1.046-1.402s0.996-0.712,1.635-0.94s1.351-0.343,2.136-0.343h6.012v2.417h-1.239v14.089h-2.575v-14.089
		h-1.512v14.089H69.7V176.284z"/>
</g>
<g>
	<path fill="#C63706" d="M69.7,287.451c-0.451-0.123-0.876-0.305-1.274-0.545s-0.747-0.537-1.046-0.893
		c-0.299-0.354-0.536-0.764-0.712-1.23c-0.176-0.465-0.264-0.988-0.264-1.568c0-0.615,0.123-1.191,0.369-1.727
		c0.246-0.537,0.595-1.004,1.046-1.402s0.996-0.712,1.635-0.94s1.351-0.343,2.136-0.343h6.012v2.417h-1.239v14.089h-2.575v-14.089
		h-1.512v14.089H69.7V287.451z"/>
</g>
<g>
	<path fill="#398EB0" d="M69.7,399.118c-0.451-0.123-0.876-0.305-1.274-0.545s-0.747-0.537-1.046-0.893
		c-0.299-0.354-0.536-0.764-0.712-1.23c-0.176-0.465-0.264-0.988-0.264-1.568c0-0.615,0.123-1.191,0.369-1.727
		c0.246-0.537,0.595-1.004,1.046-1.402s0.996-0.712,1.635-0.94s1.351-0.343,2.136-0.343h6.012v2.417h-1.239v14.089h-2.575v-14.089
		h-1.512v14.089H69.7V399.118z"/>
</g>
<g>
	<rect x="79.375" y="158.217" fill="#7C5904" width="142.488" height="7.199"/>
</g>
<g>
	<rect x="79.375" y="380.838" fill="#7C5904" width="142.488" height="7.199"/>
</g>
<g>
	<rect x="79.375" y="269.528" fill="#7C5904" width="142.488" height="7.199"/>
</g>
<g>
	<g>
		<polygon fill="#7C5904" points="217.445,485.435 79.375,485.435 79.375,478.235 217.445,478.235 221.594,481.835 		"/>
	</g>
	<g>
		<polygon fill="#7C5904" points="222.836,478.235 226.983,481.835 222.836,485.435 356.758,485.435 360.907,481.835 
			356.758,478.235 		"/>
	</g>
</g>
</svg>
