<?xml version="1.0" encoding="utf-8"?>
<!-- Generator: Adobe Illustrator 16.0.4, SVG Export Plug-In . SVG Version: 6.00 Build 0)  -->
<!DOCTYPE svg PUBLIC "-//W3C//DTD SVG 1.1//EN" "http://www.w3.org/Graphics/SVG/1.1/DTD/svg11.dtd">
<svg version="1.1" id="Layer_1" xmlns="http://www.w3.org/2000/svg" xmlns:xlink="http://www.w3.org/1999/xlink" x="0px" y="0px"
	 width="448.746px" height="616.44px" viewBox="0 0 448.746 616.44" enable-background="new 0 0 448.746 616.44"
	 xml:space="preserve">
<rect x="0.5" y="0.5" fill="#FFFFFF" stroke="#C68D06" stroke-miterlimit="10" width="447.746" height="615.44"/>
<g>
	<path fill="#C68D06" d="M339.47,581.574c0-3.745,1.855-7.175,8.682-11.551c3.885-2.485,5.46-4.235,5.46-7.036
		c0-3.045-1.89-5.04-5.285-5.04c-2.835,0-4.9,1.47-6.44,4.48l-1.961-1.155c1.82-3.5,4.691-5.53,8.506-5.53
		c4.691,0,7.597,2.94,7.597,7.105c0,3.535-1.716,5.775-6.687,8.926c-4.69,2.976-6.965,5.775-7.141,8.121h13.932v2.24H339.47V581.574
		z"/>
	<path fill="#C68D06" d="M363.515,581.574c0-3.745,1.855-7.175,8.682-11.551c3.885-2.485,5.46-4.235,5.46-7.036
		c0-3.045-1.89-5.04-5.285-5.04c-2.835,0-4.9,1.47-6.44,4.48l-1.961-1.155c1.82-3.5,4.691-5.53,8.506-5.53
		c4.691,0,7.597,2.94,7.597,7.105c0,3.535-1.716,5.775-6.687,8.926c-4.69,2.976-6.965,5.775-7.141,8.121h13.932v2.24h-16.662
		V581.574z"/>
	<path fill="#C68D06" d="M389.206,556.232h8.681c5.776,0,8.996,2.45,8.996,7c0,4.201-2.45,6.301-6.195,7.001l6.546,11.901h-2.801
		l-6.336-11.621h-6.44v11.621h-2.45V556.232z M397.711,568.308c4.271,0,6.686-1.226,6.686-4.971c0-3.57-2.38-4.831-6.721-4.831
		h-6.021v9.802H397.711z"/>
</g>
<g>
	<rect x="80.212" y="158.3" fill="#C0DDE7" width="281.739" height="7.199"/>
</g>
<g>
	<rect x="80.212" y="172.214" fill="#C0DDE7" width="281.739" height="7.199"/>
</g>
<g>
	<rect x="80.212" y="186.127" fill="#C0DDE7" width="281.739" height="7.201"/>
</g>
<g>
	<rect x="80.212" y="200.042" fill="#C0DDE7" width="281.739" height="7.199"/>
</g>
<g>
	<rect x="80.212" y="213.955" fill="#C0DDE7" width="281.739" height="7.2"/>
</g>
<g>
	<rect x="80.212" y="227.869" fill="#C0DDE7" width="281.739" height="7.201"/>
</g>
<g>
	<rect x="80.212" y="241.783" fill="#C0DDE7" width="281.739" height="7.199"/>
</g>
<g>
	<rect x="80.212" y="255.696" fill="#C0DDE7" width="281.739" height="7.2"/>
</g>
<g>
	<rect x="80.212" y="269.612" fill="#C0DDE7" width="281.739" height="7.199"/>
</g>
<g>
	<rect x="80.212" y="283.524" fill="#C0DDE7" width="281.739" height="7.2"/>
</g>
<g>
	<rect x="80.212" y="297.438" fill="#C0DDE7" width="281.739" height="7.2"/>
</g>
<g>
	<rect x="80.212" y="311.353" fill="#C0DDE7" width="281.739" height="7.199"/>
</g>
<g>
	<rect x="80.212" y="325.266" fill="#C0DDE7" width="281.739" height="7.199"/>
</g>
<g>
	<rect x="80.212" y="339.18" fill="#C0DDE7" width="281.739" height="7.2"/>
</g>
<g>
	<rect x="80.212" y="353.094" fill="#C0DDE7" width="281.739" height="7.199"/>
</g>
<g>
	<rect x="80.212" y="367.007" fill="#C0DDE7" width="281.739" height="7.2"/>
</g>
<g>
	<rect x="80.212" y="380.921" fill="#C0DDE7" width="281.739" height="7.199"/>
</g>
<g>
	<rect x="80.212" y="394.835" fill="#C0DDE7" width="281.739" height="7.199"/>
</g>
<g>
	<rect x="80.212" y="408.749" fill="#C0DDE7" width="281.739" height="7.199"/>
</g>
<g>
	<rect x="80.212" y="422.663" fill="#C0DDE7" width="281.739" height="7.2"/>
</g>
<g>
	<rect x="80.212" y="436.577" fill="#C0DDE7" width="281.739" height="7.2"/>
</g>
<g>
	<rect x="80.212" y="450.491" fill="#C0DDE7" width="281.739" height="7.199"/>
</g>
<g>
	<rect x="80.212" y="464.404" fill="#C0DDE7" width="281.739" height="7.199"/>
</g>
<g>
	<rect x="80.212" y="478.318" fill="#C0DDE7" width="281.739" height="7.201"/>
</g>
<g>
	<rect x="80.212" y="60.904" fill="#C0DDE7" width="281.739" height="7.199"/>
</g>
<g>
	<rect x="80.212" y="74.818" fill="#C0DDE7" width="281.739" height="7.199"/>
</g>
<g>
	<rect x="80.212" y="144.386" fill="#C0DDE7" width="281.739" height="7.199"/>
</g>
<g>
	<rect x="80.212" y="88.731" fill="#C0DDE7" width="281.739" height="7.199"/>
</g>
<g>
	<rect x="80.212" y="102.645" fill="#C0DDE7" width="281.739" height="7.2"/>
</g>
<g>
	<rect x="80.212" y="116.559" fill="#C0DDE7" width="281.739" height="7.199"/>
</g>
<g>
	<rect x="80.212" y="130.473" fill="#C0DDE7" width="281.739" height="7.199"/>
</g>
<g>
	<g>
		<path fill="#C63706" d="M60.706,273.926h7.289v3.088h-1.797v10.86h3.706c0.097,0,0.193-0.028,0.286-0.084
			c0.094-0.057,0.176-0.13,0.247-0.22c0.071-0.09,0.129-0.187,0.174-0.291c0.045-0.105,0.067-0.206,0.067-0.304v-2.28h3.639v6.256
			H60.706v-3.077h1.763v-10.86h-1.763V273.926z"/>
	</g>
	<g>
		<g>
			<g>
				<polygon fill="#7C5904" points="218.49,290.726 80.42,290.726 80.42,283.527 218.49,283.527 222.639,287.126 				"/>
			</g>
			<g>
				<polygon fill="#7C5904" points="223.881,283.527 361.951,283.527 361.951,290.726 223.881,290.726 228.028,287.126 				"/>
			</g>
		</g>
		<g>
			<g>
				<polygon fill="#7C5904" points="218.49,304.64 80.42,304.64 80.42,297.441 218.49,297.441 222.639,301.041 				"/>
			</g>
			<g>
				<polygon fill="#7C5904" points="223.881,297.441 361.951,297.441 361.951,304.64 223.881,304.64 228.028,301.041 				"/>
			</g>
		</g>
		<g>
			<g>
				<polygon fill="#7C5904" points="218.49,374.208 80.42,374.208 80.42,367.009 218.49,367.009 222.639,370.609 				"/>
			</g>
			<g>
				<polygon fill="#7C5904" points="223.881,367.009 361.951,367.009 361.951,374.208 223.881,374.208 228.028,370.609 				"/>
			</g>
		</g>
		<g>
			<g>
				<polygon fill="#7C5904" points="218.49,318.553 80.42,318.553 80.42,311.354 218.49,311.354 222.639,314.954 				"/>
			</g>
			<g>
				<polygon fill="#7C5904" points="223.881,311.354 361.951,311.354 361.951,318.553 223.881,318.553 228.028,314.954 				"/>
			</g>
		</g>
		<g>
			<g>
				<polygon fill="#7C5904" points="218.49,332.468 80.42,332.468 80.42,325.269 218.49,325.269 222.639,328.868 				"/>
			</g>
			<g>
				<polygon fill="#7C5904" points="223.881,325.269 361.951,325.269 361.951,332.468 223.881,332.468 228.028,328.868 				"/>
			</g>
		</g>
		<g>
			<g>
				<polygon fill="#7C5904" points="218.49,346.381 80.42,346.381 80.42,339.181 218.49,339.181 222.639,342.781 				"/>
			</g>
			<g>
				<polygon fill="#7C5904" points="223.881,339.181 361.951,339.181 361.951,346.381 223.881,346.381 228.028,342.781 				"/>
			</g>
		</g>
		<g>
			<g>
				<polygon fill="#7C5904" points="218.49,360.295 80.42,360.295 80.42,353.095 218.49,353.095 222.639,356.695 				"/>
			</g>
			<g>
				<polygon fill="#7C5904" points="223.881,353.095 361.951,353.095 361.951,360.295 223.881,360.295 228.028,356.695 				"/>
			</g>
		</g>
	</g>
</g>
<g>
	<g>
		<g>
			<g>
				<polygon fill="#7C5904" points="218.49,68.104 80.42,68.104 80.42,60.904 218.49,60.904 222.638,64.505 				"/>
			</g>
			<g>
				<polygon fill="#7C5904" points="223.881,60.904 361.951,60.904 361.951,68.104 223.881,68.104 228.029,64.505 				"/>
			</g>
		</g>
		<g>
			<g>
				<polygon fill="#7C5904" points="218.49,151.586 80.42,151.586 80.42,144.388 218.49,144.388 222.638,147.987 				"/>
			</g>
			<g>
				<polygon fill="#7C5904" points="223.881,144.388 361.951,144.388 361.951,151.586 223.881,151.586 228.029,147.987 				"/>
			</g>
		</g>
		<g>
			<g>
				<polygon fill="#7C5904" points="218.49,95.932 80.42,95.932 80.42,88.733 218.49,88.733 222.638,92.332 				"/>
			</g>
			<g>
				<polygon fill="#7C5904" points="223.881,88.733 361.951,88.733 361.951,95.932 223.881,95.932 228.029,92.332 				"/>
			</g>
		</g>
		<g>
			<g>
				<polygon fill="#7C5904" points="218.49,82.017 80.42,82.017 80.42,74.818 218.49,74.818 222.638,78.417 				"/>
			</g>
			<g>
				<polygon fill="#7C5904" points="223.881,74.818 361.951,74.818 361.951,82.017 223.881,82.017 228.029,78.417 				"/>
			</g>
		</g>
		<g>
			<g>
				<polygon fill="#7C5904" points="218.49,109.846 80.42,109.846 80.42,102.647 218.49,102.647 222.638,106.246 				"/>
			</g>
			<g>
				<polygon fill="#7C5904" points="223.881,102.647 361.951,102.647 361.951,109.846 223.881,109.846 228.029,106.246 				"/>
			</g>
		</g>
		<g>
			<g>
				<polygon fill="#7C5904" points="218.49,123.759 80.42,123.759 80.42,116.56 218.49,116.56 222.638,120.159 				"/>
			</g>
			<g>
				<polygon fill="#7C5904" points="223.881,116.56 361.951,116.56 361.951,123.759 223.881,123.759 228.029,120.159 				"/>
			</g>
		</g>
		<g>
			<g>
				<polygon fill="#7C5904" points="218.49,137.673 80.42,137.673 80.42,130.474 218.49,130.474 222.638,134.073 				"/>
			</g>
			<g>
				<polygon fill="#7C5904" points="223.881,130.474 361.951,130.474 361.951,137.673 223.881,137.673 228.029,134.073 				"/>
			</g>
		</g>
	</g>
	<g>
		<path fill="#C63706" d="M69.418,55.436c-0.419-0.6-0.797-1.024-1.134-1.275s-0.7-0.431-1.089-0.539s-0.798-0.162-1.224-0.162
			c-0.629,0-1.213,0.14-1.752,0.421c-0.539,0.28-1.005,0.662-1.398,1.146c-0.394,0.482-0.702,1.044-0.927,1.685
			c-0.225,0.64-0.337,1.319-0.337,2.038c0,0.727,0.11,1.409,0.331,2.05c0.221,0.64,0.526,1.199,0.916,1.679s0.854,0.859,1.393,1.14
			c0.539,0.281,1.13,0.421,1.774,0.421c0.449,0,0.869-0.072,1.258-0.219c0.389-0.146,0.743-0.339,1.061-0.578
			c0.318-0.239,0.597-0.515,0.837-0.825s0.427-0.635,0.562-0.972l3.616,1.011c-0.232,0.733-0.573,1.413-1.022,2.038
			c-0.449,0.625-0.99,1.166-1.623,1.623c-0.633,0.457-1.344,0.816-2.134,1.078c-0.79,0.262-1.642,0.393-2.555,0.393
			c-0.771,0-1.509-0.104-2.212-0.314c-0.704-0.209-1.361-0.505-1.971-0.887c-0.61-0.382-1.165-0.842-1.662-1.381
			c-0.498-0.539-0.923-1.137-1.275-1.792s-0.625-1.358-0.82-2.111c-0.195-0.752-0.292-1.536-0.292-2.353
			c0-1.221,0.213-2.364,0.64-3.431c0.427-1.067,1.011-1.999,1.752-2.797c0.741-0.797,1.612-1.426,2.611-1.887
			c1-0.46,2.076-0.69,3.229-0.69c0.921,0,1.696,0.114,2.325,0.343s1.321,0.679,2.078,1.353h2.516v3.797H69.418z"/>
	</g>
</g>
<g>
	<g>
		<path fill="#398EB0" d="M66.822,161.926h7.289v3.088h-1.516l-4.548,13.938h-4.604l-4.414-13.938h-1.64v-3.088h7.3v3.088h-1.819
			l2.965,9.658l2.954-9.658h-1.965V161.926z"/>
	</g>
	<g>
		<g>
			<g>
				<polygon fill="#7C5904" points="218.386,193.329 80.316,193.329 80.316,186.13 218.386,186.13 222.534,189.729 				"/>
			</g>
			<g>
				<polygon fill="#7C5904" points="223.777,186.13 361.847,186.13 361.847,193.329 223.777,193.329 227.925,189.729 				"/>
			</g>
		</g>
		<g>
			<g>
				<polygon fill="#7C5904" points="218.386,179.416 80.316,179.416 80.316,172.216 218.386,172.216 222.534,175.816 				"/>
			</g>
			<g>
				<polygon fill="#7C5904" points="223.777,172.216 361.847,172.216 361.847,179.416 223.777,179.416 227.925,175.816 				"/>
			</g>
		</g>
		<g>
			<g>
				<polygon fill="#7C5904" points="218.386,207.243 80.316,207.243 80.316,200.043 218.386,200.043 222.534,203.643 				"/>
			</g>
			<g>
				<polygon fill="#7C5904" points="223.777,200.043 361.847,200.043 361.847,207.243 223.777,207.243 227.925,203.643 				"/>
			</g>
		</g>
		<g>
			<g>
				<polygon fill="#7C5904" points="218.386,235.07 80.316,235.07 80.316,227.871 218.386,227.871 222.534,231.469 				"/>
			</g>
			<g>
				<polygon fill="#7C5904" points="223.777,227.871 361.847,227.871 361.847,235.07 223.777,235.07 227.925,231.469 				"/>
			</g>
		</g>
		<g>
			<g>
				<polygon fill="#7C5904" points="218.49,221.157 80.42,221.157 80.42,213.958 218.49,213.958 222.638,217.557 				"/>
			</g>
			<g>
				<polygon fill="#7C5904" points="223.881,213.958 361.951,213.958 361.951,221.157 223.881,221.157 228.029,217.557 				"/>
			</g>
		</g>
		<g>
			<g>
				<polygon fill="#7C5904" points="218.386,248.985 80.316,248.985 80.316,241.786 218.386,241.786 222.534,245.385 				"/>
			</g>
			<g>
				<polygon fill="#7C5904" points="223.777,241.786 361.847,241.786 361.847,248.985 223.777,248.985 227.925,245.385 				"/>
			</g>
		</g>
		<g>
			<g>
				<polygon fill="#7C5904" points="218.386,262.898 80.316,262.898 80.316,255.699 218.386,255.699 222.534,259.298 				"/>
			</g>
			<g>
				<polygon fill="#7C5904" points="223.777,255.699 361.847,255.699 361.847,262.898 223.777,262.898 227.925,259.298 				"/>
			</g>
		</g>
	</g>
</g>
</svg>
