<?xml version="1.0" encoding="utf-8"?>
<!-- Generator: Adobe Illustrator 16.0.4, SVG Export Plug-In . SVG Version: 6.00 Build 0)  -->
<!DOCTYPE svg PUBLIC "-//W3C//DTD SVG 1.1//EN" "http://www.w3.org/Graphics/SVG/1.1/DTD/svg11.dtd">
<svg version="1.1" id="Layer_1" xmlns="http://www.w3.org/2000/svg" xmlns:xlink="http://www.w3.org/1999/xlink" x="0px" y="0px"
	 width="448.747px" height="616.44px" viewBox="0 0 448.747 616.44" enable-background="new 0 0 448.747 616.44"
	 xml:space="preserve">
<rect x="0.5" y="0.5" fill="#FFFFFF" stroke="#C68D06" stroke-miterlimit="10" width="447.747" height="615.44"/>
<g>
	<path fill="#C68D06" d="M341.584,579.321c0-3.745,1.855-7.175,8.682-11.551c3.885-2.485,5.46-4.235,5.46-7.036
		c0-3.045-1.89-5.04-5.285-5.04c-2.835,0-4.9,1.47-6.44,4.48l-1.961-1.155c1.82-3.5,4.691-5.53,8.506-5.53
		c4.691,0,7.597,2.94,7.597,7.105c0,3.535-1.716,5.775-6.687,8.926c-4.69,2.976-6.965,5.775-7.141,8.121h13.932v2.24h-16.662
		V579.321z"/>
	<path fill="#C68D06" d="M364.964,575.541l1.855-1.33c1.891,2.836,4.2,3.991,7.07,3.991c3.815,0,6.161-2.101,6.161-5.286
		c0-3.815-2.24-5.705-8.331-5.705h-0.979v-2.136h1.189c5.496,0,7.561-1.68,7.561-4.865c0-2.591-1.574-4.516-5.495-4.516
		c-2.625,0-4.655,1.295-6.161,3.15l-1.715-1.436c1.855-2.24,4.516-3.92,8.016-3.92c5.461,0,7.771,3.115,7.771,6.476
		c0,3.325-1.961,5.53-5.111,6.126c3.851,0.805,5.706,3.01,5.706,6.825c0,4.235-3.325,7.456-8.646,7.456
		C370.074,580.372,366.89,578.622,364.964,575.541z"/>
	<path fill="#C68D06" d="M389.358,553.979h2.556l7.735,22.612h0.07l7.771-22.612h2.416l-9.102,26.008h-2.345L389.358,553.979z"/>
</g>
<g>
	<rect x="79.883" y="158.217" fill="#C0DDE7" width="281.739" height="7.199"/>
</g>
<g>
	<rect x="79.884" y="172.13" fill="#C0DDE7" width="281.738" height="7.199"/>
</g>
<g>
	<rect x="79.883" y="186.044" fill="#C0DDE7" width="281.739" height="7.2"/>
</g>
<g>
	<rect x="79.883" y="199.958" fill="#C0DDE7" width="281.739" height="7.199"/>
</g>
<g>
	<rect x="79.883" y="213.872" fill="#C0DDE7" width="281.739" height="7.199"/>
</g>
<g>
	<rect x="79.883" y="227.785" fill="#C0DDE7" width="281.739" height="7.2"/>
</g>
<g>
	<rect x="79.884" y="241.699" fill="#C0DDE7" width="281.738" height="7.199"/>
</g>
<g>
	<rect x="79.884" y="255.612" fill="#C0DDE7" width="281.738" height="7.2"/>
</g>
<g>
	<rect x="79.883" y="269.527" fill="#C0DDE7" width="281.739" height="7.199"/>
</g>
<g>
	<rect x="79.884" y="283.44" fill="#C0DDE7" width="281.738" height="7.2"/>
</g>
<g>
	<rect x="79.883" y="297.354" fill="#C0DDE7" width="281.739" height="7.2"/>
</g>
<g>
	<rect x="79.883" y="311.269" fill="#C0DDE7" width="281.739" height="7.2"/>
</g>
<g>
	<rect x="79.883" y="325.183" fill="#C0DDE7" width="281.739" height="7.199"/>
</g>
<g>
	<rect x="79.884" y="339.096" fill="#C0DDE7" width="281.738" height="7.2"/>
</g>
<g>
	<rect x="79.883" y="353.01" fill="#C0DDE7" width="281.739" height="7.2"/>
</g>
<g>
	<rect x="79.883" y="366.924" fill="#C0DDE7" width="281.739" height="7.2"/>
</g>
<g>
	<rect x="79.883" y="380.838" fill="#C0DDE7" width="281.739" height="7.199"/>
</g>
<g>
	<rect x="79.883" y="394.752" fill="#C0DDE7" width="281.739" height="7.199"/>
</g>
<g>
	<rect x="79.884" y="408.665" fill="#C0DDE7" width="281.738" height="7.199"/>
</g>
<g>
	<rect x="79.883" y="422.579" fill="#C0DDE7" width="281.739" height="7.2"/>
</g>
<g>
	<rect x="79.884" y="436.492" fill="#C0DDE7" width="281.738" height="7.2"/>
</g>
<g>
	<rect x="79.883" y="450.407" fill="#C0DDE7" width="281.739" height="7.199"/>
</g>
<g>
	<rect x="79.884" y="464.32" fill="#C0DDE7" width="281.738" height="7.199"/>
</g>
<g>
	<rect x="79.883" y="478.234" fill="#C0DDE7" width="281.739" height="7.2"/>
</g>
<g>
	<rect x="79.883" y="60.819" fill="#C0DDE7" width="281.739" height="7.2"/>
</g>
<g>
	<rect x="79.884" y="74.733" fill="#C0DDE7" width="281.738" height="7.2"/>
</g>
<g>
	<rect x="79.884" y="144.303" fill="#C0DDE7" width="281.738" height="7.199"/>
</g>
<g>
	<rect x="79.883" y="88.647" fill="#C0DDE7" width="281.739" height="7.199"/>
</g>
<g>
	<rect x="79.884" y="102.561" fill="#C0DDE7" width="281.738" height="7.2"/>
</g>
<g>
	<rect x="79.884" y="116.475" fill="#C0DDE7" width="281.738" height="7.199"/>
</g>
<g>
	<rect x="79.884" y="130.389" fill="#C0DDE7" width="281.738" height="7.199"/>
</g>
<g>
	<g>
		<g>
			<path fill="#C63706" d="M59.771,273.842h7.861c0.876,0,1.681,0.137,2.415,0.41s1.366,0.642,1.898,1.105
				c0.532,0.465,0.947,1,1.247,1.606s0.449,1.239,0.449,1.897c0,0.794-0.118,1.537-0.354,2.229
				c-0.236,0.692-0.601,1.294-1.095,1.803s-1.119,0.911-1.875,1.207s-1.651,0.444-2.684,0.444h-2.37v3.245h1.561v3.077h-7.053
				v-3.077h1.763v-10.86h-1.763V273.842z M65.263,276.93v4.571h1.539c0.854,0,1.531-0.18,2.033-0.539s0.752-0.929,0.752-1.707
				c0-0.727-0.236-1.295-0.708-1.707s-1.164-0.618-2.078-0.618H65.263z"/>
		</g>
		<g>
			<g>
				<g>
					<polygon fill="#7C5904" points="218.161,290.642 80.091,290.642 80.091,283.442 218.161,283.442 222.31,287.042 					"/>
				</g>
				<g>
					<polygon fill="#7C5904" points="223.552,283.442 361.622,283.442 361.622,290.642 223.552,290.642 227.699,287.042 					"/>
				</g>
			</g>
			<g>
				<g>
					<polygon fill="#7C5904" points="218.161,304.556 80.091,304.556 80.091,297.356 218.161,297.356 222.31,300.956 					"/>
				</g>
				<g>
					<polygon fill="#7C5904" points="223.552,297.356 361.622,297.356 361.622,304.556 223.552,304.556 227.699,300.956 					"/>
				</g>
			</g>
			<g>
				<g>
					<polygon fill="#7C5904" points="218.161,374.124 80.091,374.124 80.091,366.925 218.161,366.925 222.31,370.524 					"/>
				</g>
				<g>
					<polygon fill="#7C5904" points="223.552,366.925 361.622,366.925 361.622,374.124 223.552,374.124 227.699,370.524 					"/>
				</g>
			</g>
			<g>
				<g>
					<polygon fill="#7C5904" points="218.161,318.469 80.091,318.469 80.091,311.27 218.161,311.27 222.31,314.869 					"/>
				</g>
				<g>
					<polygon fill="#7C5904" points="223.552,311.27 361.622,311.27 361.622,318.469 223.552,318.469 227.699,314.869 					"/>
				</g>
			</g>
			<g>
				<g>
					<polygon fill="#7C5904" points="218.161,332.384 80.091,332.384 80.091,325.185 218.161,325.185 222.31,328.783 					"/>
				</g>
				<g>
					<polygon fill="#7C5904" points="223.552,325.185 361.622,325.185 361.622,332.384 223.552,332.384 227.699,328.783 					"/>
				</g>
			</g>
			<g>
				<g>
					<polygon fill="#7C5904" points="218.161,346.297 80.091,346.297 80.091,339.097 218.161,339.097 222.31,342.696 					"/>
				</g>
				<g>
					<polygon fill="#7C5904" points="223.552,339.097 361.622,339.097 361.622,346.297 223.552,346.297 227.699,342.696 					"/>
				</g>
			</g>
			<g>
				<g>
					<polygon fill="#7C5904" points="218.161,360.211 80.091,360.211 80.091,353.011 218.161,353.011 222.31,356.61 					"/>
				</g>
				<g>
					<polygon fill="#7C5904" points="223.552,353.011 361.622,353.011 361.622,360.211 223.552,360.211 227.699,356.61 					"/>
				</g>
			</g>
		</g>
	</g>
	<g>
		<g>
			<path fill="#398EB0" d="M60.377,385.508h7.289v3.088h-1.797v10.86h3.706c0.097,0,0.193-0.028,0.286-0.084
				c0.094-0.057,0.176-0.13,0.247-0.22s0.129-0.187,0.174-0.291c0.044-0.105,0.067-0.206,0.067-0.304v-2.28h3.639v6.256H60.377
				v-3.077h1.763v-10.86h-1.763V385.508z"/>
		</g>
		<g>
			<g>
				<g>
					<polygon fill="#7C5904" points="218.161,401.952 80.091,401.952 80.091,394.753 218.161,394.753 222.31,398.353 					"/>
				</g>
				<g>
					<polygon fill="#7C5904" points="223.552,394.753 361.622,394.753 361.622,401.952 223.552,401.952 227.699,398.353 					"/>
				</g>
			</g>
			<g>
				<g>
					<polygon fill="#7C5904" points="218.161,415.866 80.091,415.866 80.091,408.667 218.161,408.667 222.31,412.267 					"/>
				</g>
				<g>
					<polygon fill="#7C5904" points="223.552,408.667 361.622,408.667 361.622,415.866 223.552,415.866 227.699,412.267 					"/>
				</g>
			</g>
			<g>
				<g>
					<polygon fill="#7C5904" points="218.161,485.435 80.091,485.435 80.091,478.235 218.161,478.235 222.31,481.835 					"/>
				</g>
				<g>
					<polygon fill="#7C5904" points="223.552,478.235 361.622,478.235 361.622,485.435 223.552,485.435 227.699,481.835 					"/>
				</g>
			</g>
			<g>
				<g>
					<polygon fill="#7C5904" points="218.161,429.779 80.091,429.779 80.091,422.58 218.161,422.58 222.31,426.18 					"/>
				</g>
				<g>
					<polygon fill="#7C5904" points="223.552,422.58 361.622,422.58 361.622,429.779 223.552,429.779 227.699,426.18 					"/>
				</g>
			</g>
			<g>
				<g>
					<polygon fill="#7C5904" points="218.161,443.694 80.091,443.694 80.091,436.495 218.161,436.495 222.31,440.094 					"/>
				</g>
				<g>
					<polygon fill="#7C5904" points="223.552,436.495 361.622,436.495 361.622,443.694 223.552,443.694 227.699,440.094 					"/>
				</g>
			</g>
			<g>
				<g>
					<polygon fill="#7C5904" points="218.161,457.607 80.091,457.607 80.091,450.407 218.161,450.407 222.31,454.007 					"/>
				</g>
				<g>
					<polygon fill="#7C5904" points="223.552,450.407 361.622,450.407 361.622,457.607 223.552,457.607 227.699,454.007 					"/>
				</g>
			</g>
			<g>
				<g>
					<polygon fill="#7C5904" points="218.161,471.521 80.091,471.521 80.091,464.321 218.161,464.321 222.31,467.921 					"/>
				</g>
				<g>
					<polygon fill="#7C5904" points="223.552,464.321 361.622,464.321 361.622,471.521 223.552,471.521 227.699,467.921 					"/>
				</g>
			</g>
		</g>
	</g>
	<g>
		<g>
			<g>
				<g>
					<polygon fill="#7C5904" points="218.161,68.02 80.091,68.02 80.091,60.82 218.161,60.82 222.309,64.42 					"/>
				</g>
				<g>
					<polygon fill="#7C5904" points="223.552,60.82 361.622,60.82 361.622,68.02 223.552,68.02 227.7,64.42 					"/>
				</g>
			</g>
			<g>
				<g>
					<polygon fill="#7C5904" points="218.161,151.502 80.091,151.502 80.091,144.303 218.161,144.303 222.309,147.903 					"/>
				</g>
				<g>
					<polygon fill="#7C5904" points="223.552,144.303 361.622,144.303 361.622,151.502 223.552,151.502 227.7,147.903 					"/>
				</g>
			</g>
			<g>
				<g>
					<polygon fill="#7C5904" points="218.161,95.848 80.091,95.848 80.091,88.648 218.161,88.648 222.309,92.248 					"/>
				</g>
				<g>
					<polygon fill="#7C5904" points="223.552,88.648 361.622,88.648 361.622,95.848 223.552,95.848 227.7,92.248 					"/>
				</g>
			</g>
			<g>
				<g>
					<polygon fill="#7C5904" points="218.161,81.933 80.091,81.933 80.091,74.733 218.161,74.733 222.309,78.332 					"/>
				</g>
				<g>
					<polygon fill="#7C5904" points="223.552,74.733 361.622,74.733 361.622,81.933 223.552,81.933 227.7,78.332 					"/>
				</g>
			</g>
			<g>
				<g>
					<polygon fill="#7C5904" points="218.161,109.762 80.091,109.762 80.091,102.562 218.161,102.562 222.309,106.162 					"/>
				</g>
				<g>
					<polygon fill="#7C5904" points="223.552,102.562 361.622,102.562 361.622,109.762 223.552,109.762 227.7,106.162 					"/>
				</g>
			</g>
			<g>
				<g>
					<polygon fill="#7C5904" points="218.161,123.675 80.091,123.675 80.091,116.476 218.161,116.476 222.309,120.075 					"/>
				</g>
				<g>
					<polygon fill="#7C5904" points="223.552,116.476 361.622,116.476 361.622,123.675 223.552,123.675 227.7,120.075 					"/>
				</g>
			</g>
			<g>
				<g>
					<polygon fill="#7C5904" points="218.161,137.589 80.091,137.589 80.091,130.389 218.161,130.389 222.309,133.988 					"/>
				</g>
				<g>
					<polygon fill="#7C5904" points="223.552,130.389 361.622,130.389 361.622,137.589 223.552,137.589 227.7,133.988 					"/>
				</g>
			</g>
		</g>
		<g>
			<path fill="#C63706" d="M67.405,64.122h1.696l-0.764-2.448h-5.233l-0.764,2.448h1.797v3.077H57.68v-3.077h1.269l4.638-13.948
				h4.503l4.537,13.948h1.235v3.077h-6.458V64.122z M63.991,58.799h3.437l-1.729-5.537L63.991,58.799z"/>
		</g>
	</g>
	<g>
		<g>
			<path fill="#398EB0" d="M60.169,161.842h7.289v3.088h-1.797v10.86h3.706c0.097,0,0.193-0.028,0.286-0.084
				c0.094-0.057,0.176-0.13,0.247-0.22s0.129-0.187,0.174-0.291c0.044-0.105,0.067-0.206,0.067-0.304v-2.28h3.639v6.256H60.169
				v-3.077h1.763v-10.86h-1.763V161.842z"/>
		</g>
		<g>
			<g>
				<g>
					<polygon fill="#7C5904" points="218.057,193.245 79.987,193.245 79.987,186.045 218.057,186.045 222.205,189.645 					"/>
				</g>
				<g>
					<polygon fill="#7C5904" points="223.448,186.045 361.518,186.045 361.518,193.245 223.448,193.245 227.596,189.645 					"/>
				</g>
			</g>
			<g>
				<g>
					<polygon fill="#7C5904" points="218.057,179.331 79.987,179.331 79.987,172.132 218.057,172.132 222.205,175.731 					"/>
				</g>
				<g>
					<polygon fill="#7C5904" points="223.448,172.132 361.518,172.132 361.518,179.331 223.448,179.331 227.596,175.731 					"/>
				</g>
			</g>
			<g>
				<g>
					<polygon fill="#7C5904" points="218.057,207.158 79.987,207.158 79.987,199.959 218.057,199.959 222.205,203.558 					"/>
				</g>
				<g>
					<polygon fill="#7C5904" points="223.448,199.959 361.518,199.959 361.518,207.158 223.448,207.158 227.596,203.558 					"/>
				</g>
			</g>
			<g>
				<g>
					<polygon fill="#7C5904" points="218.057,234.985 79.987,234.985 79.987,227.786 218.057,227.786 222.205,231.385 					"/>
				</g>
				<g>
					<polygon fill="#7C5904" points="223.448,227.786 361.518,227.786 361.518,234.985 223.448,234.985 227.596,231.385 					"/>
				</g>
			</g>
			<g>
				<g>
					<polygon fill="#7C5904" points="218.161,221.072 80.091,221.072 80.091,213.873 218.161,213.873 222.309,217.473 					"/>
				</g>
				<g>
					<polygon fill="#7C5904" points="223.552,213.873 361.622,213.873 361.622,221.072 223.552,221.072 227.7,217.473 					"/>
				</g>
			</g>
			<g>
				<g>
					<polygon fill="#7C5904" points="218.057,248.9 79.987,248.9 79.987,241.701 218.057,241.701 222.205,245.3 					"/>
				</g>
				<g>
					<polygon fill="#7C5904" points="223.448,241.701 361.518,241.701 361.518,248.9 223.448,248.9 227.596,245.3 					"/>
				</g>
			</g>
			<g>
				<g>
					<polygon fill="#7C5904" points="218.057,262.813 79.987,262.813 79.987,255.614 218.057,255.614 222.205,259.213 					"/>
				</g>
				<g>
					<polygon fill="#7C5904" points="223.448,255.614 361.518,255.614 361.518,262.813 223.448,262.813 227.596,259.213 					"/>
				</g>
			</g>
		</g>
	</g>
</g>
</svg>
