<?xml version="1.0" encoding="utf-8"?>
<!-- Generator: Adobe Illustrator 16.0.4, SVG Export Plug-In . SVG Version: 6.00 Build 0)  -->
<!DOCTYPE svg PUBLIC "-//W3C//DTD SVG 1.1//EN" "http://www.w3.org/Graphics/SVG/1.1/DTD/svg11.dtd">
<svg version="1.1" id="Layer_1" xmlns="http://www.w3.org/2000/svg" xmlns:xlink="http://www.w3.org/1999/xlink" x="0px" y="0px"
	 width="448.746px" height="616.44px" viewBox="0 0 448.746 616.44" enable-background="new 0 0 448.746 616.44"
	 xml:space="preserve">
<rect x="0.5" y="0.5" fill="#FFFFFF" stroke="#C68D06" stroke-miterlimit="10" width="447.746" height="615.44"/>
<g>
	<path fill="#C68D06" d="M339.505,581.574c0-3.745,1.855-7.175,8.682-11.551c3.885-2.485,5.46-4.235,5.46-7.036
		c0-3.045-1.89-5.04-5.285-5.04c-2.835,0-4.9,1.47-6.44,4.48l-1.961-1.155c1.82-3.5,4.691-5.53,8.506-5.53
		c4.691,0,7.597,2.94,7.597,7.105c0,3.535-1.716,5.775-6.687,8.926c-4.69,2.976-6.965,5.775-7.141,8.121h13.932v2.24h-16.662
		V581.574z"/>
	<path fill="#C68D06" d="M374.788,575.869h-12.461v-1.855l11.796-17.781h3.046v17.432h4.375v2.205h-4.375v6.266h-2.381V575.869z
		 M374.788,573.664v-14.526h-0.069l-9.592,14.526H374.788z"/>
	<path fill="#C68D06" d="M389.207,556.232h8.681c5.776,0,8.996,2.45,8.996,7c0,4.201-2.45,6.301-6.195,7.001l6.546,11.901h-2.801
		l-6.336-11.621h-6.44v11.621h-2.45V556.232z M397.712,568.308c4.271,0,6.686-1.226,6.686-4.971c0-3.57-2.38-4.831-6.721-4.831
		h-6.021v9.802H397.712z"/>
</g>
<g>
	<rect x="80.049" y="157.967" fill="#C0DDE7" width="281.738" height="7.199"/>
</g>
<g>
	<rect x="80.049" y="171.88" fill="#C0DDE7" width="281.738" height="7.199"/>
</g>
<g>
	<rect x="80.049" y="185.794" fill="#C0DDE7" width="281.738" height="7.2"/>
</g>
<g>
	<rect x="80.049" y="199.708" fill="#C0DDE7" width="281.738" height="7.199"/>
</g>
<g>
	<rect x="80.049" y="213.622" fill="#C0DDE7" width="281.738" height="7.199"/>
</g>
<g>
	<rect x="80.049" y="227.535" fill="#C0DDE7" width="281.738" height="7.2"/>
</g>
<g>
	<rect x="80.049" y="241.45" fill="#C0DDE7" width="281.738" height="7.199"/>
</g>
<g>
	<rect x="80.049" y="255.363" fill="#C0DDE7" width="281.738" height="7.2"/>
</g>
<g>
	<rect x="80.049" y="269.277" fill="#C0DDE7" width="281.738" height="7.199"/>
</g>
<g>
	<rect x="80.049" y="283.191" fill="#C0DDE7" width="281.738" height="7.2"/>
</g>
<g>
	<rect x="80.049" y="297.104" fill="#C0DDE7" width="281.738" height="7.2"/>
</g>
<g>
	<rect x="80.049" y="311.019" fill="#C0DDE7" width="281.738" height="7.2"/>
</g>
<g>
	<rect x="80.049" y="324.933" fill="#C0DDE7" width="281.738" height="7.199"/>
</g>
<g>
	<rect x="80.049" y="338.846" fill="#C0DDE7" width="281.738" height="7.2"/>
</g>
<g>
	<rect x="80.049" y="352.76" fill="#C0DDE7" width="281.738" height="7.2"/>
</g>
<g>
	<rect x="80.049" y="366.674" fill="#C0DDE7" width="281.738" height="7.2"/>
</g>
<g>
	<rect x="80.049" y="380.588" fill="#C0DDE7" width="281.738" height="7.199"/>
</g>
<g>
	<rect x="80.049" y="394.502" fill="#C0DDE7" width="281.738" height="7.199"/>
</g>
<g>
	<rect x="80.049" y="408.416" fill="#C0DDE7" width="281.738" height="7.199"/>
</g>
<g>
	<rect x="80.049" y="422.329" fill="#C0DDE7" width="281.738" height="7.2"/>
</g>
<g>
	<rect x="80.049" y="436.243" fill="#C0DDE7" width="281.738" height="7.2"/>
</g>
<g>
	<rect x="80.049" y="450.157" fill="#C0DDE7" width="281.738" height="7.199"/>
</g>
<g>
	<rect x="80.049" y="464.071" fill="#C0DDE7" width="281.738" height="7.199"/>
</g>
<g>
	<rect x="80.049" y="477.984" fill="#C0DDE7" width="281.738" height="7.2"/>
</g>
<g>
	<rect x="80.049" y="60.569" fill="#C0DDE7" width="281.738" height="7.2"/>
</g>
<g>
	<rect x="80.049" y="74.483" fill="#C0DDE7" width="281.738" height="7.2"/>
</g>
<g>
	<rect x="80.049" y="144.053" fill="#C0DDE7" width="281.738" height="7.199"/>
</g>
<g>
	<rect x="80.049" y="88.397" fill="#C0DDE7" width="281.738" height="7.199"/>
</g>
<g>
	<rect x="80.049" y="102.311" fill="#C0DDE7" width="281.738" height="7.2"/>
</g>
<g>
	<rect x="80.049" y="116.225" fill="#C0DDE7" width="281.738" height="7.199"/>
</g>
<g>
	<rect x="80.049" y="130.139" fill="#C0DDE7" width="281.738" height="7.199"/>
</g>
<g>
	<g>
		<g>
			<path fill="#C63706" d="M58.825,273.592h6.536c0.779,0,1.525,0.102,2.24,0.303c0.715,0.203,1.382,0.487,1.999,0.854
				c0.618,0.367,1.18,0.808,1.685,1.32c0.506,0.513,0.938,1.084,1.297,1.713s0.636,1.306,0.831,2.032s0.292,1.482,0.292,2.269
				s-0.097,1.542-0.292,2.269s-0.472,1.405-0.831,2.038s-0.792,1.209-1.297,1.729c-0.505,0.521-1.066,0.966-1.685,1.337
				c-0.617,0.37-1.284,0.656-1.999,0.859c-0.715,0.201-1.461,0.303-2.24,0.303h-6.536v-3.077h1.359v-10.86h-1.359V273.592z
				 M63.912,276.68v10.86h1.426c0.606,0,1.179-0.143,1.718-0.427s1.006-0.672,1.404-1.162c0.397-0.49,0.711-1.067,0.943-1.729
				c0.232-0.663,0.348-1.376,0.348-2.14c0-0.756-0.116-1.464-0.348-2.123c-0.232-0.658-0.546-1.231-0.943-1.718
				c-0.397-0.486-0.865-0.868-1.404-1.146s-1.112-0.416-1.718-0.416H63.912z"/>
		</g>
		<g>
			<g>
				<g>
					<polygon fill="#7C5904" points="218.327,290.392 80.256,290.392 80.256,283.192 218.327,283.192 222.475,286.792 					"/>
				</g>
				<g>
					<polygon fill="#7C5904" points="223.717,283.192 361.788,283.192 361.788,290.392 223.717,290.392 227.865,286.792 					"/>
				</g>
			</g>
			<g>
				<g>
					<polygon fill="#7C5904" points="218.327,304.306 80.256,304.306 80.256,297.106 218.327,297.106 222.475,300.706 					"/>
				</g>
				<g>
					<polygon fill="#7C5904" points="223.717,297.106 361.788,297.106 361.788,304.306 223.717,304.306 227.865,300.706 					"/>
				</g>
			</g>
			<g>
				<g>
					<polygon fill="#7C5904" points="218.327,373.874 80.256,373.874 80.256,366.675 218.327,366.675 222.475,370.274 					"/>
				</g>
				<g>
					<polygon fill="#7C5904" points="223.717,366.675 361.788,366.675 361.788,373.874 223.717,373.874 227.865,370.274 					"/>
				</g>
			</g>
			<g>
				<g>
					<polygon fill="#7C5904" points="218.327,318.219 80.256,318.219 80.256,311.02 218.327,311.02 222.475,314.619 					"/>
				</g>
				<g>
					<polygon fill="#7C5904" points="223.717,311.02 361.788,311.02 361.788,318.219 223.717,318.219 227.865,314.619 					"/>
				</g>
			</g>
			<g>
				<g>
					<polygon fill="#7C5904" points="218.327,332.134 80.256,332.134 80.256,324.935 218.327,324.935 222.475,328.533 					"/>
				</g>
				<g>
					<polygon fill="#7C5904" points="223.717,324.935 361.788,324.935 361.788,332.134 223.717,332.134 227.865,328.533 					"/>
				</g>
			</g>
			<g>
				<g>
					<polygon fill="#7C5904" points="218.327,346.047 80.256,346.047 80.256,338.847 218.327,338.847 222.475,342.446 					"/>
				</g>
				<g>
					<polygon fill="#7C5904" points="223.717,338.847 361.788,338.847 361.788,346.047 223.717,346.047 227.865,342.446 					"/>
				</g>
			</g>
			<g>
				<g>
					<polygon fill="#7C5904" points="218.327,359.961 80.256,359.961 80.256,352.761 218.327,352.761 222.475,356.36 					"/>
				</g>
				<g>
					<polygon fill="#7C5904" points="223.717,352.761 361.788,352.761 361.788,359.961 223.717,359.961 227.865,356.36 					"/>
				</g>
			</g>
		</g>
	</g>
	<g>
		<g>
			<path fill="#398EB0" d="M66.562,385.258h7.289v3.077h-1.797v10.871h1.797v3.077h-7.289v-3.077h1.764v-10.871h-1.764V385.258z"/>
		</g>
		<g>
			<g>
				<g>
					<polygon fill="#7C5904" points="218.327,401.702 80.256,401.702 80.256,394.503 218.327,394.503 222.475,398.103 					"/>
				</g>
				<g>
					<polygon fill="#7C5904" points="223.717,394.503 361.788,394.503 361.788,401.702 223.717,401.702 227.865,398.103 					"/>
				</g>
			</g>
			<g>
				<g>
					<polygon fill="#7C5904" points="218.327,415.616 80.256,415.616 80.256,408.417 218.327,408.417 222.475,412.017 					"/>
				</g>
				<g>
					<polygon fill="#7C5904" points="223.717,408.417 361.788,408.417 361.788,415.616 223.717,415.616 227.865,412.017 					"/>
				</g>
			</g>
			<g>
				<g>
					<polygon fill="#7C5904" points="218.327,485.185 80.256,485.185 80.256,477.985 218.327,477.985 222.475,481.585 					"/>
				</g>
				<g>
					<polygon fill="#7C5904" points="223.717,477.985 361.788,477.985 361.788,485.185 223.717,485.185 227.865,481.585 					"/>
				</g>
			</g>
			<g>
				<g>
					<polygon fill="#7C5904" points="218.327,429.529 80.256,429.529 80.256,422.33 218.327,422.33 222.475,425.93 					"/>
				</g>
				<g>
					<polygon fill="#7C5904" points="223.717,422.33 361.788,422.33 361.788,429.529 223.717,429.529 227.865,425.93 					"/>
				</g>
			</g>
			<g>
				<g>
					<polygon fill="#7C5904" points="218.327,443.444 80.256,443.444 80.256,436.245 218.327,436.245 222.475,439.844 					"/>
				</g>
				<g>
					<polygon fill="#7C5904" points="223.717,436.245 361.788,436.245 361.788,443.444 223.717,443.444 227.865,439.844 					"/>
				</g>
			</g>
			<g>
				<g>
					<polygon fill="#7C5904" points="218.327,457.357 80.256,457.357 80.256,450.157 218.327,450.157 222.475,453.757 					"/>
				</g>
				<g>
					<polygon fill="#7C5904" points="223.717,450.157 361.788,450.157 361.788,457.357 223.717,457.357 227.865,453.757 					"/>
				</g>
			</g>
			<g>
				<g>
					<polygon fill="#7C5904" points="218.327,471.271 80.256,471.271 80.256,464.071 218.327,464.071 222.475,467.671 					"/>
				</g>
				<g>
					<polygon fill="#7C5904" points="223.717,464.071 361.788,464.071 361.788,471.271 223.717,471.271 227.865,467.671 					"/>
				</g>
			</g>
		</g>
	</g>
	<g>
		<g>
			<g>
				<g>
					<polygon fill="#7C5904" points="218.327,67.77 80.256,67.77 80.256,60.57 218.327,60.57 222.475,64.17 					"/>
				</g>
				<g>
					<polygon fill="#7C5904" points="223.717,60.57 361.788,60.57 361.788,67.77 223.717,67.77 227.865,64.17 					"/>
				</g>
			</g>
			<g>
				<g>
					<polygon fill="#7C5904" points="218.327,151.252 80.256,151.252 80.256,144.053 218.327,144.053 222.475,147.653 					"/>
				</g>
				<g>
					<polygon fill="#7C5904" points="223.717,144.053 361.788,144.053 361.788,151.252 223.717,151.252 227.865,147.653 					"/>
				</g>
			</g>
			<g>
				<g>
					<polygon fill="#7C5904" points="218.327,95.598 80.256,95.598 80.256,88.398 218.327,88.398 222.475,91.998 					"/>
				</g>
				<g>
					<polygon fill="#7C5904" points="223.717,88.398 361.788,88.398 361.788,95.598 223.717,95.598 227.865,91.998 					"/>
				</g>
			</g>
			<g>
				<g>
					<polygon fill="#7C5904" points="218.327,81.683 80.256,81.683 80.256,74.483 218.327,74.483 222.475,78.082 					"/>
				</g>
				<g>
					<polygon fill="#7C5904" points="223.717,74.483 361.788,74.483 361.788,81.683 223.717,81.683 227.865,78.082 					"/>
				</g>
			</g>
			<g>
				<g>
					<polygon fill="#7C5904" points="218.327,109.512 80.256,109.512 80.256,102.312 218.327,102.312 222.475,105.912 					"/>
				</g>
				<g>
					<polygon fill="#7C5904" points="223.717,102.312 361.788,102.312 361.788,109.512 223.717,109.512 227.865,105.912 					"/>
				</g>
			</g>
			<g>
				<g>
					<polygon fill="#7C5904" points="218.327,123.425 80.256,123.425 80.256,116.226 218.327,116.226 222.475,119.825 					"/>
				</g>
				<g>
					<polygon fill="#7C5904" points="223.717,116.226 361.788,116.226 361.788,123.425 223.717,123.425 227.865,119.825 					"/>
				</g>
			</g>
			<g>
				<g>
					<polygon fill="#7C5904" points="218.327,137.339 80.256,137.339 80.256,130.139 218.327,130.139 222.475,133.738 					"/>
				</g>
				<g>
					<polygon fill="#7C5904" points="223.717,130.139 361.788,130.139 361.788,137.339 223.717,137.339 227.865,133.738 					"/>
				</g>
			</g>
		</g>
		<g>
			<path fill="#C63706" d="M69.761,54.719c-0.038-0.262-0.129-0.509-0.275-0.74c-0.146-0.232-0.333-0.433-0.562-0.602
				c-0.228-0.168-0.487-0.301-0.774-0.398c-0.289-0.098-0.59-0.146-0.904-0.146c-0.285,0-0.55,0.03-0.797,0.09
				c-0.247,0.061-0.462,0.152-0.646,0.275c-0.183,0.124-0.329,0.283-0.438,0.478c-0.109,0.194-0.163,0.427-0.163,0.696
				c0,0.337,0.073,0.604,0.219,0.803c0.146,0.198,0.333,0.361,0.561,0.488c0.229,0.128,0.482,0.229,0.759,0.304
				s0.546,0.157,0.809,0.247l3.088,1.033c0.426,0.149,0.827,0.355,1.202,0.617c0.375,0.263,0.698,0.581,0.971,0.955
				c0.273,0.374,0.489,0.805,0.646,1.291c0.157,0.487,0.236,1.033,0.236,1.641c0,0.823-0.151,1.575-0.455,2.257
				c-0.303,0.682-0.728,1.266-1.274,1.752s-1.202,0.864-1.965,1.134s-1.61,0.404-2.538,0.404c-0.651,0-1.267-0.072-1.847-0.219
				c-0.581-0.146-1.11-0.357-1.589-0.635c-0.479-0.276-0.898-0.607-1.258-0.993s-0.64-0.822-0.842-1.309h-1.157v-3.38h4.065v0.695
				c0,0.338,0.054,0.648,0.163,0.933c0.109,0.284,0.271,0.531,0.489,0.741s0.49,0.372,0.82,0.488s0.715,0.174,1.157,0.174
				c0.674,0,1.187-0.155,1.539-0.466s0.528-0.743,0.528-1.297c0-0.284-0.062-0.522-0.185-0.713
				c-0.124-0.191-0.283-0.353-0.478-0.483s-0.412-0.241-0.651-0.331s-0.476-0.172-0.708-0.247l-2.572-0.831
				c-0.487-0.149-0.957-0.359-1.41-0.629c-0.453-0.27-0.853-0.606-1.202-1.011c-0.348-0.404-0.625-0.878-0.831-1.421
				c-0.206-0.543-0.309-1.162-0.309-1.858c0-0.809,0.15-1.529,0.449-2.162s0.719-1.166,1.258-1.6
				c0.539-0.435,1.179-0.764,1.92-0.988s1.554-0.338,2.437-0.338c0.696,0,1.34,0.081,1.932,0.242s1.121,0.376,1.589,0.646
				c0.468,0.27,0.865,0.578,1.19,0.927c0.326,0.348,0.575,0.709,0.747,1.084h1.123v3.391h-4.065V54.719z"/>
		</g>
	</g>
	<g>
		<g>
			<path fill="#398EB0" d="M63.232,178.752c-0.958-0.194-1.844-0.552-2.656-1.072c-0.812-0.521-1.517-1.162-2.111-1.926
				c-0.596-0.764-1.06-1.627-1.393-2.589c-0.333-0.962-0.5-1.982-0.5-3.061c0-0.816,0.097-1.601,0.292-2.353
				c0.195-0.753,0.468-1.456,0.82-2.111s0.777-1.251,1.275-1.786c0.498-0.535,1.052-0.993,1.662-1.376
				c0.609-0.381,1.267-0.677,1.971-0.887s1.441-0.314,2.212-0.314s1.51,0.104,2.218,0.314c0.707,0.21,1.366,0.506,1.977,0.887
				c0.61,0.383,1.164,0.841,1.662,1.376c0.498,0.535,0.924,1.131,1.28,1.786c0.355,0.655,0.63,1.358,0.825,2.111
				c0.195,0.752,0.292,1.536,0.292,2.353c0,1.093-0.172,2.126-0.517,3.1s-0.822,1.846-1.432,2.616
				c-0.61,0.771-1.335,1.416-2.174,1.932c-0.838,0.518-1.748,0.861-2.729,1.033c0.232,0.098,0.462,0.204,0.69,0.32
				c0.229,0.116,0.459,0.225,0.691,0.326c0.232,0.101,0.462,0.187,0.691,0.258c0.228,0.071,0.462,0.11,0.702,0.118
				c0.232,0,0.458-0.03,0.679-0.09c0.221-0.06,0.421-0.153,0.601-0.28c0.18-0.128,0.335-0.293,0.466-0.494
				c0.131-0.203,0.219-0.449,0.264-0.742l2.504,1.247c-0.067,0.547-0.223,1.041-0.466,1.482c-0.243,0.441-0.556,0.819-0.938,1.134
				s-0.816,0.559-1.303,0.73s-1.003,0.258-1.55,0.258c-0.442,0-0.886-0.084-1.331-0.252c-0.445-0.169-0.876-0.353-1.291-0.551
				c-0.416-0.198-0.807-0.382-1.174-0.55c-0.367-0.169-0.689-0.253-0.966-0.253c-0.12,0-0.227-0.002-0.32-0.006
				c-0.093-0.004-0.185-0.004-0.275,0s-0.189,0.016-0.297,0.034c-0.109,0.019-0.234,0.054-0.376,0.106L63.232,178.752z
				 M64.805,175.395c0.651,0,1.249-0.141,1.792-0.422c0.542-0.28,1.009-0.662,1.398-1.146c0.389-0.482,0.691-1.044,0.904-1.685
				c0.214-0.64,0.32-1.319,0.32-2.038c0-0.727-0.108-1.411-0.326-2.056c-0.217-0.644-0.522-1.207-0.916-1.689
				c-0.393-0.483-0.859-0.865-1.398-1.146c-0.539-0.281-1.13-0.421-1.774-0.421s-1.235,0.14-1.774,0.421
				c-0.539,0.28-1.003,0.662-1.393,1.146c-0.389,0.482-0.694,1.046-0.916,1.689c-0.221,0.645-0.331,1.329-0.331,2.056
				c0,0.719,0.11,1.398,0.331,2.038c0.221,0.641,0.526,1.202,0.916,1.685c0.389,0.483,0.854,0.865,1.393,1.146
				C63.569,175.254,64.161,175.395,64.805,175.395z"/>
		</g>
		<g>
			<g>
				<g>
					<polygon fill="#7C5904" points="218.223,192.995 80.152,192.995 80.152,185.795 218.223,185.795 222.371,189.395 					"/>
				</g>
				<g>
					<polygon fill="#7C5904" points="223.613,185.795 361.684,185.795 361.684,192.995 223.613,192.995 227.761,189.395 					"/>
				</g>
			</g>
			<g>
				<g>
					<polygon fill="#7C5904" points="218.223,179.081 80.152,179.081 80.152,171.882 218.223,171.882 222.371,175.481 					"/>
				</g>
				<g>
					<polygon fill="#7C5904" points="223.613,171.882 361.684,171.882 361.684,179.081 223.613,179.081 227.761,175.481 					"/>
				</g>
			</g>
			<g>
				<g>
					<polygon fill="#7C5904" points="218.223,206.908 80.152,206.908 80.152,199.709 218.223,199.709 222.371,203.308 					"/>
				</g>
				<g>
					<polygon fill="#7C5904" points="223.613,199.709 361.684,199.709 361.684,206.908 223.613,206.908 227.761,203.308 					"/>
				</g>
			</g>
			<g>
				<g>
					<polygon fill="#7C5904" points="218.223,234.735 80.152,234.735 80.152,227.536 218.223,227.536 222.371,231.135 					"/>
				</g>
				<g>
					<polygon fill="#7C5904" points="223.613,227.536 361.684,227.536 361.684,234.735 223.613,234.735 227.761,231.135 					"/>
				</g>
			</g>
			<g>
				<g>
					<polygon fill="#7C5904" points="218.327,220.822 80.256,220.822 80.256,213.623 218.327,213.623 222.475,217.223 					"/>
				</g>
				<g>
					<polygon fill="#7C5904" points="223.717,213.623 361.788,213.623 361.788,220.822 223.717,220.822 227.865,217.223 					"/>
				</g>
			</g>
			<g>
				<g>
					<polygon fill="#7C5904" points="218.223,248.65 80.152,248.65 80.152,241.451 218.223,241.451 222.371,245.05 					"/>
				</g>
				<g>
					<polygon fill="#7C5904" points="223.613,241.451 361.684,241.451 361.684,248.65 223.613,248.65 227.761,245.05 					"/>
				</g>
			</g>
			<g>
				<g>
					<polygon fill="#7C5904" points="218.223,262.563 80.152,262.563 80.152,255.364 218.223,255.364 222.371,258.963 					"/>
				</g>
				<g>
					<polygon fill="#7C5904" points="223.613,255.364 361.684,255.364 361.684,262.563 223.613,262.563 227.761,258.963 					"/>
				</g>
			</g>
		</g>
	</g>
</g>
</svg>
