<?xml version="1.0" encoding="utf-8"?>
<!-- Generator: Adobe Illustrator 16.0.4, SVG Export Plug-In . SVG Version: 6.00 Build 0)  -->
<!DOCTYPE svg PUBLIC "-//W3C//DTD SVG 1.1//EN" "http://www.w3.org/Graphics/SVG/1.1/DTD/svg11.dtd">
<svg version="1.1" id="Layer_1" xmlns="http://www.w3.org/2000/svg" xmlns:xlink="http://www.w3.org/1999/xlink" x="0px" y="0px"
	 width="448.747px" height="616.44px" viewBox="0 0 448.747 616.44" enable-background="new 0 0 448.747 616.44"
	 xml:space="preserve">
<rect x="0.5" y="0.5" fill="#FFFFFF" stroke="#C68D06" stroke-miterlimit="10" width="447.747" height="615.44"/>
<g>
	<path fill="#C68D06" d="M343.127,579.319c0-3.745,1.854-7.175,8.681-11.551c3.885-2.485,5.46-4.235,5.46-7.036
		c0-3.045-1.89-5.04-5.285-5.04c-2.835,0-4.9,1.47-6.44,4.48l-1.961-1.155c1.82-3.5,4.691-5.53,8.507-5.53
		c4.69,0,7.596,2.94,7.596,7.105c0,3.535-1.716,5.775-6.687,8.926c-4.69,2.976-6.965,5.775-7.141,8.121h13.932v2.24h-16.661V579.319
		z"/>
	<path fill="#C68D06" d="M378.407,573.614h-12.461v-1.855l11.796-17.781h3.046v17.432h4.375v2.205h-4.375v6.266h-2.381V573.614z
		 M378.407,571.409v-14.526h-0.069l-9.592,14.526H378.407z"/>
	<path fill="#C68D06" d="M390.761,553.977h2.556l7.735,22.612h0.07l7.771-22.612h2.416l-9.102,26.008h-2.345L390.761,553.977z"/>
</g>
<g>
	<rect x="79.918" y="158.217" fill="#C0DDE7" width="281.739" height="7.199"/>
</g>
<g>
	<rect x="79.884" y="172.13" fill="#C0DDE7" width="281.738" height="7.199"/>
</g>
<g>
	<rect x="79.883" y="186.044" fill="#C0DDE7" width="281.739" height="7.2"/>
</g>
<g>
	<rect x="79.883" y="199.958" fill="#C0DDE7" width="281.739" height="7.199"/>
</g>
<g>
	<rect x="79.883" y="213.872" fill="#C0DDE7" width="281.739" height="7.199"/>
</g>
<g>
	<rect x="79.883" y="227.785" fill="#C0DDE7" width="281.739" height="7.2"/>
</g>
<g>
	<rect x="79.884" y="241.699" fill="#C0DDE7" width="281.738" height="7.199"/>
</g>
<g>
	<rect x="79.884" y="255.612" fill="#C0DDE7" width="281.738" height="7.2"/>
</g>
<g>
	<rect x="79.883" y="269.527" fill="#C0DDE7" width="281.739" height="7.199"/>
</g>
<g>
	<rect x="79.884" y="283.44" fill="#C0DDE7" width="281.738" height="7.2"/>
</g>
<g>
	<rect x="79.883" y="297.354" fill="#C0DDE7" width="281.739" height="7.2"/>
</g>
<g>
	<rect x="79.883" y="311.269" fill="#C0DDE7" width="281.739" height="7.2"/>
</g>
<g>
	<rect x="79.883" y="325.183" fill="#C0DDE7" width="281.739" height="7.199"/>
</g>
<g>
	<rect x="79.884" y="339.096" fill="#C0DDE7" width="281.738" height="7.2"/>
</g>
<g>
	<rect x="79.883" y="353.01" fill="#C0DDE7" width="281.739" height="7.2"/>
</g>
<g>
	<rect x="79.883" y="366.924" fill="#C0DDE7" width="281.739" height="7.2"/>
</g>
<g>
	<rect x="79.883" y="380.838" fill="#C0DDE7" width="281.739" height="7.199"/>
</g>
<g>
	<rect x="79.883" y="394.752" fill="#C0DDE7" width="281.739" height="7.199"/>
</g>
<g>
	<rect x="79.884" y="408.665" fill="#C0DDE7" width="281.738" height="7.199"/>
</g>
<g>
	<rect x="79.883" y="422.579" fill="#C0DDE7" width="281.739" height="7.2"/>
</g>
<g>
	<rect x="79.884" y="436.492" fill="#C0DDE7" width="281.738" height="7.2"/>
</g>
<g>
	<rect x="79.883" y="450.407" fill="#C0DDE7" width="281.739" height="7.199"/>
</g>
<g>
	<rect x="79.884" y="464.32" fill="#C0DDE7" width="281.738" height="7.199"/>
</g>
<g>
	<rect x="79.883" y="478.234" fill="#C0DDE7" width="281.739" height="7.2"/>
</g>
<g>
	<rect x="79.883" y="60.819" fill="#C0DDE7" width="281.739" height="7.2"/>
</g>
<g>
	<rect x="79.884" y="74.733" fill="#C0DDE7" width="281.738" height="7.2"/>
</g>
<g>
	<rect x="79.884" y="144.303" fill="#C0DDE7" width="281.738" height="7.199"/>
</g>
<g>
	<rect x="79.883" y="88.647" fill="#C0DDE7" width="281.739" height="7.199"/>
</g>
<g>
	<rect x="79.884" y="102.561" fill="#C0DDE7" width="281.738" height="7.2"/>
</g>
<g>
	<rect x="79.884" y="116.475" fill="#C0DDE7" width="281.738" height="7.199"/>
</g>
<g>
	<rect x="79.884" y="130.389" fill="#C0DDE7" width="281.738" height="7.199"/>
</g>
<g>
	<g>
		<path fill="#C63706" d="M58.311,273.841h9.007c0.876,0,1.658,0.131,2.347,0.393c0.689,0.263,1.269,0.612,1.741,1.051
			c0.472,0.438,0.833,0.947,1.083,1.527c0.251,0.58,0.376,1.185,0.376,1.813c0,0.576-0.062,1.082-0.185,1.517
			c-0.124,0.434-0.304,0.819-0.539,1.156c-0.236,0.337-0.526,0.635-0.871,0.893c-0.344,0.259-0.737,0.492-1.179,0.702
			c0.382,0.194,0.719,0.492,1.011,0.893s0.513,0.919,0.663,1.556l0.573,2.213h1.404l0.022,3.312h-4.941l-0.674-4.043
			c-0.067-0.479-0.17-0.893-0.309-1.241c-0.139-0.348-0.324-0.633-0.556-0.854s-0.515-0.384-0.848-0.488
			c-0.333-0.104-0.729-0.157-1.185-0.157h-1.449v3.706h1.561v3.077h-7.053v-3.077h1.763v-10.86h-1.763V273.841z M63.803,276.929
			v4.122h2.234c0.427,0,0.811-0.039,1.151-0.118c0.341-0.078,0.633-0.202,0.876-0.37c0.244-0.169,0.431-0.38,0.562-0.635
			c0.131-0.255,0.197-0.558,0.197-0.909c0-0.659-0.236-1.172-0.708-1.539s-1.164-0.551-2.078-0.551H63.803z"/>
	</g>
	<g>
		<g>
			<g>
				<polygon fill="#7C5904" points="218.161,290.642 80.091,290.642 80.091,283.442 218.161,283.442 222.31,287.042 				"/>
			</g>
			<g>
				<polygon fill="#7C5904" points="223.552,283.442 361.622,283.442 361.622,290.642 223.552,290.642 227.699,287.042 				"/>
			</g>
		</g>
		<g>
			<g>
				<polygon fill="#7C5904" points="218.161,304.556 80.091,304.556 80.091,297.356 218.161,297.356 222.31,300.956 				"/>
			</g>
			<g>
				<polygon fill="#7C5904" points="223.552,297.356 361.622,297.356 361.622,304.556 223.552,304.556 227.699,300.956 				"/>
			</g>
		</g>
		<g>
			<g>
				<polygon fill="#7C5904" points="218.161,374.124 80.091,374.124 80.091,366.925 218.161,366.925 222.31,370.524 				"/>
			</g>
			<g>
				<polygon fill="#7C5904" points="223.552,366.925 361.622,366.925 361.622,374.124 223.552,374.124 227.699,370.524 				"/>
			</g>
		</g>
		<g>
			<g>
				<polygon fill="#7C5904" points="218.161,318.469 80.091,318.469 80.091,311.27 218.161,311.27 222.31,314.869 				"/>
			</g>
			<g>
				<polygon fill="#7C5904" points="223.552,311.27 361.622,311.27 361.622,318.469 223.552,318.469 227.699,314.869 				"/>
			</g>
		</g>
		<g>
			<g>
				<polygon fill="#7C5904" points="218.161,332.384 80.091,332.384 80.091,325.185 218.161,325.185 222.31,328.783 				"/>
			</g>
			<g>
				<polygon fill="#7C5904" points="223.552,325.185 361.622,325.185 361.622,332.384 223.552,332.384 227.699,328.783 				"/>
			</g>
		</g>
		<g>
			<g>
				<polygon fill="#7C5904" points="218.161,346.297 80.091,346.297 80.091,339.097 218.161,339.097 222.31,342.696 				"/>
			</g>
			<g>
				<polygon fill="#7C5904" points="223.552,339.097 361.622,339.097 361.622,346.297 223.552,346.297 227.699,342.696 				"/>
			</g>
		</g>
		<g>
			<g>
				<polygon fill="#7C5904" points="218.161,360.211 80.091,360.211 80.091,353.011 218.161,353.011 222.31,356.61 				"/>
			</g>
			<g>
				<polygon fill="#7C5904" points="223.552,353.011 361.622,353.011 361.622,360.211 223.552,360.211 227.699,356.61 				"/>
			</g>
		</g>
	</g>
</g>
<g>
	<path fill="#398EB0" d="M57.267,399.007h6.828v3.088h-1.561v7.064c0,0.644,0.073,1.19,0.219,1.64
		c0.146,0.449,0.35,0.816,0.612,1.101s0.573,0.492,0.932,0.623s0.752,0.197,1.179,0.197c0.442,0,0.844-0.057,1.207-0.169
		c0.363-0.112,0.674-0.305,0.933-0.578c0.258-0.273,0.457-0.639,0.595-1.095c0.139-0.457,0.208-1.03,0.208-1.719v-7.064H66.61
		v-3.088h6.828v3.088h-1.359v6.627c0,1.197-0.172,2.263-0.516,3.194c-0.344,0.933-0.818,1.721-1.421,2.364
		c-0.603,0.644-1.31,1.135-2.122,1.471c-0.812,0.338-1.683,0.506-2.611,0.506c-0.921,0-1.782-0.167-2.583-0.5
		s-1.5-0.815-2.095-1.448c-0.595-0.633-1.065-1.402-1.409-2.308c-0.344-0.906-0.517-1.932-0.517-3.078v-6.828h-1.539V399.007z"/>
</g>
<g>
	<g>
		<polygon fill="#7C5904" points="218.161,415.866 80.091,415.866 80.091,408.667 218.161,408.667 222.31,412.267 		"/>
	</g>
	<g>
		<polygon fill="#7C5904" points="223.552,408.667 361.622,408.667 361.622,415.866 223.552,415.866 227.699,412.267 		"/>
	</g>
</g>
<g>
	<g>
		<polygon fill="#7C5904" points="218.161,429.779 80.091,429.779 80.091,422.58 218.161,422.58 222.31,426.18 		"/>
	</g>
	<g>
		<polygon fill="#7C5904" points="223.552,422.58 361.622,422.58 361.622,429.779 223.552,429.779 227.699,426.18 		"/>
	</g>
</g>
<g>
	<g>
		<polygon fill="#7C5904" points="218.161,443.694 80.091,443.694 80.091,436.495 218.161,436.495 222.31,440.094 		"/>
	</g>
	<g>
		<polygon fill="#7C5904" points="223.552,436.495 361.622,436.495 361.622,443.694 223.552,443.694 227.699,440.094 		"/>
	</g>
</g>
<g>
	<g>
		<polygon fill="#7C5904" points="218.161,457.607 80.091,457.607 80.091,450.407 218.161,450.407 222.31,454.007 		"/>
	</g>
	<g>
		<polygon fill="#7C5904" points="223.552,450.407 361.622,450.407 361.622,457.607 223.552,457.607 227.699,454.007 		"/>
	</g>
</g>
<g>
	<g>
		<polygon fill="#7C5904" points="218.161,471.521 80.091,471.521 80.091,464.321 218.161,464.321 222.31,467.921 		"/>
	</g>
	<g>
		<polygon fill="#7C5904" points="223.552,464.321 361.622,464.321 361.622,471.521 223.552,471.521 227.699,467.921 		"/>
	</g>
</g>
<g>
	<g>
		<g>
			<g>
				<polygon fill="#7C5904" points="218.161,68.02 80.091,68.02 80.091,60.82 218.161,60.82 222.309,64.42 				"/>
			</g>
			<g>
				<polygon fill="#7C5904" points="223.552,60.82 361.622,60.82 361.622,68.02 223.552,68.02 227.7,64.42 				"/>
			</g>
		</g>
		<g>
			<g>
				<polygon fill="#7C5904" points="218.161,151.502 80.091,151.502 80.091,144.303 218.161,144.303 222.309,147.903 				"/>
			</g>
			<g>
				<polygon fill="#7C5904" points="223.552,144.303 361.622,144.303 361.622,151.502 223.552,151.502 227.7,147.903 				"/>
			</g>
		</g>
		<g>
			<g>
				<polygon fill="#7C5904" points="218.161,95.848 80.091,95.848 80.091,88.648 218.161,88.648 222.309,92.248 				"/>
			</g>
			<g>
				<polygon fill="#7C5904" points="223.552,88.648 361.622,88.648 361.622,95.848 223.552,95.848 227.7,92.248 				"/>
			</g>
		</g>
		<g>
			<g>
				<polygon fill="#7C5904" points="218.161,81.933 80.091,81.933 80.091,74.733 218.161,74.733 222.309,78.332 				"/>
			</g>
			<g>
				<polygon fill="#7C5904" points="223.552,74.733 361.622,74.733 361.622,81.933 223.552,81.933 227.7,78.332 				"/>
			</g>
		</g>
		<g>
			<g>
				<polygon fill="#7C5904" points="218.161,109.762 80.091,109.762 80.091,102.562 218.161,102.562 222.309,106.162 				"/>
			</g>
			<g>
				<polygon fill="#7C5904" points="223.552,102.562 361.622,102.562 361.622,109.762 223.552,109.762 227.7,106.162 				"/>
			</g>
		</g>
		<g>
			<g>
				<polygon fill="#7C5904" points="218.161,123.675 80.091,123.675 80.091,116.476 218.161,116.476 222.309,120.075 				"/>
			</g>
			<g>
				<polygon fill="#7C5904" points="223.552,116.476 361.622,116.476 361.622,123.675 223.552,123.675 227.7,120.075 				"/>
			</g>
		</g>
		<g>
			<g>
				<polygon fill="#7C5904" points="218.161,137.589 80.091,137.589 80.091,130.389 218.161,130.389 222.309,133.988 				"/>
			</g>
			<g>
				<polygon fill="#7C5904" points="223.552,130.389 361.622,130.389 361.622,137.589 223.552,137.589 227.7,133.988 				"/>
			</g>
		</g>
	</g>
	<g>
		<path fill="#C63706" d="M59.667,50.174h7.861c0.876,0,1.681,0.137,2.415,0.41s1.366,0.642,1.898,1.105
			c0.532,0.465,0.947,1,1.247,1.606s0.449,1.239,0.449,1.897c0,0.794-0.118,1.537-0.354,2.229c-0.236,0.692-0.601,1.294-1.095,1.803
			s-1.119,0.911-1.875,1.207s-1.651,0.444-2.684,0.444h-2.37v3.245h1.561V67.2h-7.053v-3.077h1.763v-10.86h-1.763V50.174z
			 M65.159,53.262v4.571h1.539c0.854,0,1.531-0.18,2.033-0.539s0.752-0.929,0.752-1.707c0-0.727-0.236-1.295-0.708-1.707
			s-1.164-0.618-2.078-0.618H65.159z"/>
	</g>
</g>
<g>
	<g>
		<path fill="#398EB0" d="M69.491,166.637c-0.038-0.262-0.129-0.509-0.275-0.74c-0.146-0.232-0.333-0.433-0.562-0.602
			c-0.228-0.168-0.486-0.301-0.774-0.398c-0.289-0.098-0.59-0.146-0.904-0.146c-0.285,0-0.55,0.03-0.797,0.09
			c-0.247,0.061-0.462,0.152-0.646,0.275c-0.183,0.124-0.33,0.283-0.438,0.478c-0.109,0.194-0.163,0.427-0.163,0.696
			c0,0.337,0.073,0.604,0.219,0.803c0.146,0.198,0.333,0.361,0.562,0.488c0.229,0.128,0.481,0.229,0.758,0.304
			s0.546,0.157,0.809,0.247l3.088,1.033c0.427,0.149,0.827,0.355,1.202,0.617c0.375,0.263,0.698,0.581,0.971,0.955
			c0.273,0.374,0.489,0.805,0.646,1.291c0.157,0.487,0.236,1.033,0.236,1.641c0,0.823-0.151,1.575-0.455,2.257
			c-0.303,0.682-0.728,1.266-1.274,1.752s-1.202,0.864-1.965,1.134s-1.61,0.404-2.538,0.404c-0.651,0-1.267-0.072-1.847-0.219
			c-0.581-0.146-1.11-0.357-1.589-0.635c-0.479-0.276-0.898-0.607-1.258-0.993s-0.64-0.822-0.842-1.309h-1.157v-3.38h4.065v0.695
			c0,0.338,0.054,0.648,0.163,0.933c0.109,0.284,0.271,0.531,0.489,0.741c0.217,0.21,0.49,0.372,0.82,0.488s0.715,0.174,1.157,0.174
			c0.674,0,1.187-0.155,1.539-0.466s0.528-0.743,0.528-1.297c0-0.284-0.062-0.522-0.185-0.713c-0.124-0.191-0.283-0.353-0.478-0.483
			s-0.412-0.241-0.651-0.331s-0.476-0.172-0.708-0.247l-2.572-0.831c-0.486-0.149-0.956-0.359-1.409-0.629
			c-0.453-0.27-0.854-0.606-1.202-1.011c-0.348-0.404-0.625-0.878-0.831-1.421c-0.206-0.543-0.309-1.162-0.309-1.858
			c0-0.809,0.15-1.529,0.45-2.162s0.718-1.166,1.257-1.6c0.54-0.435,1.18-0.764,1.921-0.988s1.554-0.338,2.437-0.338
			c0.696,0,1.34,0.081,1.932,0.242s1.121,0.376,1.588,0.646c0.469,0.27,0.866,0.578,1.191,0.927
			c0.326,0.348,0.575,0.709,0.747,1.084h1.123v3.391h-4.065V166.637z"/>
	</g>
	<g>
		<g>
			<g>
				<polygon fill="#7C5904" points="218.057,193.245 79.987,193.245 79.987,186.045 218.057,186.045 222.205,189.645 				"/>
			</g>
			<g>
				<polygon fill="#7C5904" points="223.448,186.045 361.518,186.045 361.518,193.245 223.448,193.245 227.596,189.645 				"/>
			</g>
		</g>
		<g>
			<g>
				<polygon fill="#7C5904" points="218.057,179.331 79.987,179.331 79.987,172.132 218.057,172.132 222.205,175.731 				"/>
			</g>
			<g>
				<polygon fill="#7C5904" points="223.448,172.132 361.518,172.132 361.518,179.331 223.448,179.331 227.596,175.731 				"/>
			</g>
		</g>
		<g>
			<g>
				<polygon fill="#7C5904" points="218.057,207.158 79.987,207.158 79.987,199.959 218.057,199.959 222.205,203.558 				"/>
			</g>
			<g>
				<polygon fill="#7C5904" points="223.448,199.959 361.518,199.959 361.518,207.158 223.448,207.158 227.596,203.558 				"/>
			</g>
		</g>
		<g>
			<g>
				<polygon fill="#7C5904" points="218.057,234.985 79.987,234.985 79.987,227.786 218.057,227.786 222.205,231.385 				"/>
			</g>
			<g>
				<polygon fill="#7C5904" points="223.448,227.786 361.518,227.786 361.518,234.985 223.448,234.985 227.596,231.385 				"/>
			</g>
		</g>
		<g>
			<g>
				<polygon fill="#7C5904" points="218.161,221.072 80.091,221.072 80.091,213.873 218.161,213.873 222.309,217.473 				"/>
			</g>
			<g>
				<polygon fill="#7C5904" points="223.552,213.873 361.622,213.873 361.622,221.072 223.552,221.072 227.7,217.473 				"/>
			</g>
		</g>
		<g>
			<g>
				<polygon fill="#7C5904" points="218.057,248.9 79.987,248.9 79.987,241.701 218.057,241.701 222.205,245.3 				"/>
			</g>
			<g>
				<polygon fill="#7C5904" points="223.448,241.701 361.518,241.701 361.518,248.9 223.448,248.9 227.596,245.3 				"/>
			</g>
		</g>
		<g>
			<g>
				<polygon fill="#7C5904" points="218.057,262.813 79.987,262.813 79.987,255.614 218.057,255.614 222.205,259.213 				"/>
			</g>
			<g>
				<polygon fill="#7C5904" points="223.448,255.614 361.518,255.614 361.518,262.813 223.448,262.813 227.596,259.213 				"/>
			</g>
		</g>
	</g>
</g>
<g>
	<g>
		<polygon fill="#7C5904" points="217.954,485.435 79.883,485.435 79.883,478.235 217.954,478.235 222.102,481.835 		"/>
	</g>
	<g>
		<polygon fill="#7C5904" points="223.344,478.235 227.492,481.835 223.344,485.435 357.267,485.435 361.415,481.835 
			357.267,478.235 		"/>
	</g>
</g>
</svg>
