<?xml version="1.0" encoding="utf-8"?>
<!-- Generator: Adobe Illustrator 16.0.4, SVG Export Plug-In . SVG Version: 6.00 Build 0)  -->
<!DOCTYPE svg PUBLIC "-//W3C//DTD SVG 1.1//EN" "http://www.w3.org/Graphics/SVG/1.1/DTD/svg11.dtd">
<svg version="1.1" id="Layer_1" xmlns="http://www.w3.org/2000/svg" xmlns:xlink="http://www.w3.org/1999/xlink" x="0px" y="0px"
	 width="448.747px" height="616.439px" viewBox="0 0 448.747 616.439" enable-background="new 0 0 448.747 616.439"
	 xml:space="preserve">
<rect x="0.5" y="0.5" fill="#FFFFFF" stroke="#C68D06" stroke-miterlimit="10" width="447.747" height="615.439"/>
<g>
	<path fill="#C68D06" d="M341.117,581.573c0-3.745,1.854-7.175,8.681-11.551c3.885-2.485,5.46-4.235,5.46-7.036
		c0-3.045-1.89-5.04-5.285-5.04c-2.835,0-4.9,1.47-6.44,4.481l-1.961-1.155c1.82-3.5,4.691-5.531,8.507-5.531
		c4.69,0,7.596,2.94,7.596,7.106c0,3.535-1.716,5.775-6.687,8.925c-4.69,2.976-6.965,5.775-7.141,8.122h13.932v2.24h-16.661V581.573
		z"/>
	<path fill="#C68D06" d="M364.847,577.969l1.785-1.436c1.575,2.275,3.641,3.921,6.721,3.921c4.445,0,6.476-3.291,6.476-6.791
		c0-4.201-2.485-6.44-5.916-6.44c-2.66,0-4.48,1.189-5.915,3.254l-1.855-0.7l1.016-13.546h13.687l-0.211,2.274h-11.411l-0.7,8.997
		c1.261-1.47,2.976-2.416,5.741-2.416c4.69,0,8.016,3.291,8.016,8.471s-3.396,9.066-8.891,9.066
		C369.643,582.624,366.597,580.733,364.847,577.969z"/>
	<path fill="#C68D06" d="M388.61,556.231h2.556l7.735,22.612h0.07l7.771-22.612h2.416l-9.102,26.008h-2.345L388.61,556.231z"/>
</g>
<g>
	<rect x="80.216" y="157.966" fill="#C0DDE7" width="281.738" height="7.199"/>
</g>
<g>
	<rect x="80.216" y="171.879" fill="#C0DDE7" width="281.738" height="7.2"/>
</g>
<g>
	<rect x="80.216" y="185.793" fill="#C0DDE7" width="281.738" height="7.2"/>
</g>
<g>
	<rect x="80.216" y="199.708" fill="#C0DDE7" width="281.738" height="7.199"/>
</g>
<g>
	<rect x="80.216" y="213.622" fill="#C0DDE7" width="281.738" height="7.199"/>
</g>
<g>
	<rect x="80.216" y="227.535" fill="#C0DDE7" width="281.738" height="7.199"/>
</g>
<g>
	<rect x="80.216" y="241.449" fill="#C0DDE7" width="281.738" height="7.199"/>
</g>
<g>
	<rect x="80.216" y="255.362" fill="#C0DDE7" width="281.738" height="7.2"/>
</g>
<g>
	<rect x="80.216" y="269.276" fill="#C0DDE7" width="281.738" height="7.199"/>
</g>
<g>
	<rect x="80.216" y="283.19" fill="#C0DDE7" width="281.738" height="7.2"/>
</g>
<g>
	<rect x="80.216" y="297.104" fill="#C0DDE7" width="281.738" height="7.2"/>
</g>
<g>
	<rect x="80.216" y="311.018" fill="#C0DDE7" width="281.738" height="7.2"/>
</g>
<g>
	<rect x="80.216" y="324.932" fill="#C0DDE7" width="281.738" height="7.199"/>
</g>
<g>
	<rect x="80.216" y="338.845" fill="#C0DDE7" width="281.738" height="7.2"/>
</g>
<g>
	<rect x="80.216" y="352.759" fill="#C0DDE7" width="281.738" height="7.201"/>
</g>
<g>
	<rect x="80.216" y="366.673" fill="#C0DDE7" width="281.738" height="7.2"/>
</g>
<g>
	<rect x="80.216" y="380.587" fill="#C0DDE7" width="281.738" height="7.199"/>
</g>
<g>
	<rect x="80.216" y="394.501" fill="#C0DDE7" width="281.738" height="7.199"/>
</g>
<g>
	<rect x="80.216" y="408.415" fill="#C0DDE7" width="281.738" height="7.199"/>
</g>
<g>
	<rect x="80.216" y="422.328" fill="#C0DDE7" width="281.738" height="7.2"/>
</g>
<g>
	<rect x="80.216" y="436.242" fill="#C0DDE7" width="281.738" height="7.201"/>
</g>
<g>
	<rect x="80.216" y="450.156" fill="#C0DDE7" width="281.738" height="7.2"/>
</g>
<g>
	<rect x="80.216" y="464.07" fill="#C0DDE7" width="281.738" height="7.199"/>
</g>
<g>
	<rect x="80.216" y="477.983" fill="#C0DDE7" width="281.738" height="7.201"/>
</g>
<g>
	<rect x="80.216" y="60.568" fill="#C0DDE7" width="281.738" height="7.2"/>
</g>
<g>
	<rect x="80.216" y="74.482" fill="#C0DDE7" width="281.738" height="7.201"/>
</g>
<g>
	<rect x="80.216" y="144.052" fill="#C0DDE7" width="281.738" height="7.2"/>
</g>
<g>
	<rect x="80.216" y="88.396" fill="#C0DDE7" width="281.738" height="7.199"/>
</g>
<g>
	<rect x="80.216" y="102.31" fill="#C0DDE7" width="281.738" height="7.201"/>
</g>
<g>
	<rect x="80.216" y="116.224" fill="#C0DDE7" width="281.738" height="7.199"/>
</g>
<g>
	<rect x="80.216" y="130.139" fill="#C0DDE7" width="281.738" height="7.198"/>
</g>
<g>
	<g>
		<polygon fill="#7C5904" points="218.39,81.683 80.32,81.683 80.32,74.483 218.39,74.483 222.539,78.084 		"/>
	</g>
	<g>
		<polygon fill="#7C5904" points="223.781,74.483 361.851,74.483 361.851,81.683 223.781,81.683 227.929,78.084 		"/>
	</g>
</g>
<g>
	<g>
		<polygon fill="#7C5904" points="218.39,109.511 80.32,109.511 80.32,102.31 218.39,102.31 222.539,105.91 		"/>
	</g>
	<g>
		<polygon fill="#7C5904" points="223.781,102.31 361.851,102.31 361.851,109.511 223.781,109.511 227.929,105.91 		"/>
	</g>
</g>
<g>
	<g>
		<polygon fill="#7C5904" points="218.39,137.337 80.32,137.337 80.32,130.137 218.39,130.137 222.539,133.737 		"/>
	</g>
	<g>
		<polygon fill="#7C5904" points="223.781,130.137 361.851,130.137 361.851,137.337 223.781,137.337 227.929,133.737 		"/>
	</g>
</g>
<g>
	<g>
		<polygon fill="#7C5904" points="218.39,123.425 80.32,123.425 80.32,116.224 218.39,116.224 222.539,119.824 		"/>
	</g>
	<g>
		<polygon fill="#7C5904" points="223.781,116.224 361.851,116.224 361.851,123.425 223.781,123.425 227.929,119.824 		"/>
	</g>
</g>
<g>
	<g>
		<polygon fill="#7C5904" points="218.39,179.079 80.32,179.079 80.32,171.879 218.39,171.879 222.539,175.48 		"/>
	</g>
	<g>
		<polygon fill="#7C5904" points="223.781,171.879 361.851,171.879 361.851,179.079 223.781,179.079 227.929,175.48 		"/>
	</g>
</g>
<g>
	<g>
		<polygon fill="#7C5904" points="218.39,165.166 80.32,165.166 80.32,157.966 218.39,157.966 222.539,161.567 		"/>
	</g>
	<g>
		<polygon fill="#7C5904" points="223.781,157.966 361.851,157.966 361.851,165.166 223.781,165.166 227.929,161.567 		"/>
	</g>
</g>
<g>
	<g>
		<polygon fill="#7C5904" points="218.39,151.252 80.32,151.252 80.32,144.052 218.39,144.052 222.539,147.653 		"/>
	</g>
	<g>
		<polygon fill="#7C5904" points="223.781,144.052 361.851,144.052 361.851,151.252 223.781,151.252 227.929,147.653 		"/>
	</g>
</g>
<g>
	<g>
		<polygon fill="#7C5904" points="218.39,192.992 80.32,192.992 80.32,185.793 218.39,185.793 222.539,189.394 		"/>
	</g>
	<g>
		<polygon fill="#7C5904" points="223.781,185.793 361.851,185.793 361.851,192.992 223.781,192.992 227.929,189.394 		"/>
	</g>
</g>
<g>
	<g>
		<polygon fill="#7C5904" points="218.39,262.561 80.32,262.561 80.32,255.362 218.39,255.362 222.539,258.961 		"/>
	</g>
	<g>
		<polygon fill="#7C5904" points="223.781,255.362 361.851,255.362 361.851,262.561 223.781,262.561 227.929,258.961 		"/>
	</g>
</g>
<g>
	<g>
		<polygon fill="#7C5904" points="218.39,276.476 80.32,276.476 80.32,269.276 218.39,269.276 222.539,272.876 		"/>
	</g>
	<g>
		<polygon fill="#7C5904" points="223.781,269.276 361.851,269.276 361.851,276.476 223.781,276.476 227.929,272.876 		"/>
	</g>
</g>
<g>
	<g>
		<polygon fill="#7C5904" points="218.39,220.821 80.32,220.821 80.32,213.622 218.39,213.622 222.539,217.22 		"/>
	</g>
	<g>
		<polygon fill="#7C5904" points="223.781,213.622 361.851,213.622 361.851,220.821 223.781,220.821 227.929,217.22 		"/>
	</g>
</g>
<g>
	<g>
		<polygon fill="#7C5904" points="218.39,248.649 80.32,248.649 80.32,241.449 218.39,241.449 222.539,245.048 		"/>
	</g>
	<g>
		<polygon fill="#7C5904" points="223.781,241.449 361.851,241.449 361.851,248.649 223.781,248.649 227.929,245.048 		"/>
	</g>
</g>
<g>
	<g>
		<polygon fill="#7C5904" points="218.39,234.735 80.32,234.735 80.32,227.535 218.39,227.535 222.539,231.135 		"/>
	</g>
	<g>
		<polygon fill="#7C5904" points="223.781,227.535 361.851,227.535 361.851,234.735 223.781,234.735 227.929,231.135 		"/>
	</g>
</g>
<g>
	<g>
		<polygon fill="#7C5904" points="218.39,290.542 80.32,290.542 80.32,283.343 218.39,283.343 222.539,286.942 		"/>
	</g>
	<g>
		<polygon fill="#7C5904" points="223.781,283.343 361.852,283.343 361.852,290.542 223.781,290.542 227.929,286.942 		"/>
	</g>
</g>
<g>
	<g>
		<polygon fill="#7C5904" points="218.39,304.476 80.32,304.476 80.32,297.277 218.39,297.277 222.539,300.876 		"/>
	</g>
	<g>
		<polygon fill="#7C5904" points="223.781,297.277 361.851,297.277 361.851,304.476 223.781,304.476 227.929,300.876 		"/>
	</g>
</g>
<g>
	<g>
		<polygon fill="#7C5904" points="218.39,332.344 80.32,332.344 80.32,325.145 218.39,325.145 222.539,328.744 		"/>
	</g>
	<g>
		<polygon fill="#7C5904" points="223.781,325.145 361.851,325.145 361.851,332.344 223.781,332.344 227.929,328.744 		"/>
	</g>
</g>
<g>
	<g>
		<polygon fill="#7C5904" points="218.39,346.044 80.32,346.044 80.32,338.845 218.39,338.845 222.539,342.444 		"/>
	</g>
	<g>
		<polygon fill="#7C5904" points="223.781,338.845 361.851,338.845 361.851,346.044 223.781,346.044 227.929,342.444 		"/>
	</g>
</g>
<g>
	<g>
		<polygon fill="#7C5904" points="218.39,360.213 80.32,360.213 80.32,353.013 218.39,353.013 222.539,356.613 		"/>
	</g>
	<g>
		<polygon fill="#7C5904" points="223.781,353.013 361.851,353.013 361.851,360.213 223.781,360.213 227.929,356.613 		"/>
	</g>
</g>
<g>
	<g>
		<polygon fill="#7C5904" points="218.39,401.542 80.32,401.542 80.32,394.343 218.39,394.343 222.539,397.942 		"/>
	</g>
	<g>
		<polygon fill="#7C5904" points="223.781,394.343 361.852,394.343 361.852,401.542 223.781,401.542 227.929,397.942 		"/>
	</g>
</g>
<g>
	<g>
		<polygon fill="#7C5904" points="218.39,415.476 80.32,415.476 80.32,408.277 218.39,408.277 222.539,411.876 		"/>
	</g>
	<g>
		<polygon fill="#7C5904" points="223.781,408.277 361.851,408.277 361.851,415.476 223.781,415.476 227.929,411.876 		"/>
	</g>
</g>
<g>
	<g>
		<polygon fill="#7C5904" points="218.39,429.41 80.32,429.41 80.32,422.211 218.39,422.211 222.539,425.811 		"/>
	</g>
	<g>
		<polygon fill="#7C5904" points="223.781,422.211 361.851,422.211 361.851,429.41 223.781,429.41 227.929,425.811 		"/>
	</g>
</g>
<g>
	<g>
		<polygon fill="#7C5904" points="218.39,443.442 80.32,443.442 80.32,436.242 218.39,436.242 222.539,439.843 		"/>
	</g>
	<g>
		<polygon fill="#7C5904" points="223.781,436.242 361.851,436.242 361.851,443.442 223.781,443.442 227.929,439.843 		"/>
	</g>
</g>
<g>
	<g>
		<polygon fill="#7C5904" points="218.39,457.356 80.32,457.356 80.32,450.156 218.39,450.156 222.539,453.756 		"/>
	</g>
	<g>
		<polygon fill="#7C5904" points="223.781,450.156 361.851,450.156 361.851,457.356 223.781,457.356 227.929,453.756 		"/>
	</g>
</g>
<g>
	<g>
		<polygon fill="#7C5904" points="218.39,471.213 80.32,471.213 80.32,464.013 218.39,464.013 222.539,467.613 		"/>
	</g>
	<g>
		<polygon fill="#7C5904" points="223.781,464.013 361.851,464.013 361.851,471.213 223.781,471.213 227.929,467.613 		"/>
	</g>
</g>
<g>
	<g>
		<polygon fill="#7C5904" points="218.39,485.184 80.32,485.184 80.32,477.984 218.39,477.984 222.539,481.584 		"/>
	</g>
	<g>
		<polygon fill="#7C5904" points="223.781,477.984 361.851,477.984 361.851,485.184 223.781,485.184 227.929,481.584 		"/>
	</g>
</g>
<g>
	<path fill="#398EB0" d="M63.32,401.161c-0.958-0.194-1.844-0.552-2.656-1.073c-0.812-0.52-1.517-1.161-2.111-1.925
		c-0.596-0.764-1.06-1.627-1.393-2.589c-0.333-0.961-0.5-1.982-0.5-3.061c0-0.816,0.097-1.6,0.292-2.352
		c0.195-0.753,0.468-1.456,0.82-2.112c0.352-0.655,0.777-1.251,1.275-1.786c0.498-0.535,1.052-0.993,1.662-1.376
		c0.61-0.381,1.267-0.677,1.971-0.887s1.441-0.314,2.212-0.314s1.51,0.104,2.218,0.314c0.707,0.21,1.366,0.506,1.977,0.887
		c0.61,0.383,1.164,0.841,1.662,1.376c0.498,0.535,0.924,1.131,1.28,1.786c0.355,0.656,0.63,1.358,0.825,2.112
		c0.195,0.752,0.292,1.536,0.292,2.352c0,1.093-0.172,2.126-0.517,3.1c-0.344,0.973-0.822,1.846-1.432,2.616
		c-0.61,0.771-1.335,1.416-2.173,1.932c-0.838,0.518-1.748,0.861-2.729,1.033c0.232,0.098,0.462,0.204,0.69,0.32
		c0.229,0.116,0.459,0.225,0.691,0.326c0.232,0.101,0.462,0.187,0.691,0.258c0.228,0.071,0.462,0.11,0.702,0.119
		c0.232,0,0.458-0.031,0.679-0.09c0.221-0.06,0.421-0.153,0.601-0.28c0.18-0.128,0.335-0.293,0.466-0.495
		c0.131-0.203,0.219-0.449,0.264-0.742l2.504,1.247c-0.067,0.547-0.223,1.041-0.466,1.482c-0.243,0.441-0.556,0.82-0.938,1.134
		c-0.382,0.314-0.816,0.559-1.303,0.73c-0.487,0.172-1.003,0.257-1.55,0.257c-0.442,0-0.885-0.084-1.331-0.251
		c-0.445-0.169-0.876-0.353-1.291-0.551c-0.416-0.199-0.807-0.382-1.174-0.55c-0.367-0.169-0.689-0.253-0.966-0.253
		c-0.12,0-0.227-0.002-0.32-0.006c-0.093-0.003-0.185-0.003-0.275,0c-0.09,0.004-0.189,0.016-0.297,0.035
		c-0.109,0.018-0.234,0.053-0.376,0.106L63.32,401.161z M64.892,397.803c0.651,0,1.249-0.141,1.792-0.422
		c0.542-0.28,1.009-0.662,1.398-1.145c0.389-0.483,0.691-1.044,0.904-1.685c0.214-0.64,0.32-1.319,0.32-2.038
		c0-0.727-0.108-1.411-0.326-2.056c-0.217-0.644-0.522-1.207-0.916-1.689c-0.393-0.483-0.859-0.865-1.398-1.146
		c-0.539-0.281-1.13-0.421-1.774-0.421s-1.235,0.14-1.774,0.421c-0.539,0.28-1.003,0.663-1.393,1.146
		c-0.389,0.482-0.694,1.046-0.916,1.689c-0.221,0.645-0.331,1.329-0.331,2.056c0,0.719,0.11,1.398,0.331,2.038
		c0.221,0.641,0.526,1.202,0.916,1.685c0.389,0.483,0.854,0.865,1.393,1.145C63.657,397.663,64.248,397.803,64.892,397.803z"/>
</g>
<g>
	<path fill="#C63706" d="M66.703,106.902c-0.451-0.123-0.876-0.305-1.274-0.545c-0.398-0.24-0.747-0.536-1.046-0.893
		c-0.299-0.354-0.536-0.763-0.712-1.23c-0.176-0.465-0.264-0.988-0.264-1.568c0-0.615,0.123-1.191,0.369-1.727
		c0.246-0.537,0.595-1.003,1.046-1.401c0.451-0.398,0.996-0.712,1.635-0.941c0.639-0.229,1.351-0.343,2.136-0.343h6.012v2.417
		h-1.239v14.089H70.79V100.67h-1.512v14.089h-2.575V106.902z"/>
</g>
<g>
	<path fill="#398EB0" d="M66.703,217.267c-0.451-0.123-0.876-0.305-1.274-0.545c-0.398-0.241-0.747-0.537-1.046-0.892
		c-0.299-0.354-0.536-0.765-0.712-1.231c-0.176-0.465-0.264-0.988-0.264-1.568c0-0.615,0.123-1.192,0.369-1.727
		c0.246-0.537,0.595-1.003,1.046-1.402c0.451-0.398,0.996-0.712,1.635-0.94c0.639-0.229,1.351-0.342,2.136-0.342h6.012v2.417h-1.239
		v14.089H70.79v-14.089h-1.512v14.089h-2.575V217.267z"/>
</g>
<g>
	<path fill="#C63706" d="M66.703,329.6c-0.451-0.123-0.876-0.305-1.274-0.545c-0.398-0.24-0.747-0.537-1.046-0.893
		c-0.299-0.353-0.536-0.764-0.712-1.23c-0.176-0.465-0.264-0.988-0.264-1.568c0-0.616,0.123-1.192,0.369-1.727
		c0.246-0.537,0.595-1.004,1.046-1.402c0.451-0.399,0.996-0.712,1.635-0.941c0.639-0.228,1.351-0.342,2.136-0.342h6.012v2.417
		h-1.239v14.088H70.79v-14.088h-1.512v14.088h-2.575V329.6z"/>
</g>
<g>
	<rect x="80.216" y="88.396" fill="#7C5904" width="142.488" height="7.199"/>
</g>
<g>
	<rect x="80.216" y="199.708" fill="#7C5904" width="142.488" height="7.199"/>
</g>
<g>
	<rect x="80.216" y="311.018" fill="#7C5904" width="142.488" height="7.199"/>
</g>
<g>
	<rect x="80.216" y="366.674" fill="#7C5904" width="142.488" height="7.199"/>
</g>
<g>
	<g>
		<polygon fill="#7C5904" points="223.677,60.568 361.748,60.568 361.748,67.768 223.677,67.768 227.825,64.168 		"/>
	</g>
	<g>
		<polygon fill="#7C5904" points="222.435,64.168 218.287,60.568 218.287,60.568 218.287,60.568 80.216,60.568 84.365,64.168 
			80.216,67.768 218.287,67.768 218.287,67.768 218.287,67.767 		"/>
	</g>
</g>
</svg>
