<?xml version="1.0" encoding="utf-8"?>
<!-- Generator: Adobe Illustrator 21.1.0, SVG Export Plug-In . SVG Version: 6.00 Build 0)  -->
<svg version="1.1" id="Layer_1" xmlns="http://www.w3.org/2000/svg" xmlns:xlink="http://www.w3.org/1999/xlink" x="0px" y="0px"
	 viewBox="0 0 448.7 616.4" style="enable-background:new 0 0 448.7 616.4;" xml:space="preserve">
<style type="text/css">
	.st0{fill:#FFFFFF;stroke:#C68D06;stroke-miterlimit:10;}
	.st1{fill:#C68D06;}
	.st2{fill:#C0DDE7;}
	.st3{fill:#266279;}
	.st4{fill:#398EB0;}
	.st5{fill:#C63706;}
	.st6{fill:#7C5904;}
</style>
<rect x="0.5" y="0.5" class="st0" width="447.7" height="615.4"/>
<g>
	<path class="st1" d="M338.9,580.6c0-3.7,1.9-7.2,8.7-11.6c3.9-2.5,5.5-4.2,5.5-7c0-3-1.9-5-5.3-5c-2.8,0-4.9,1.5-6.4,4.5l-2-1.2
		c1.8-3.5,4.7-5.5,8.5-5.5c4.7,0,7.6,2.9,7.6,7.1c0,3.5-1.7,5.8-6.7,8.9c-4.7,3-7,5.8-7.1,8.1h13.9v2.2h-16.7L338.9,580.6
		L338.9,580.6z"/>
	<path class="st1" d="M363.2,568.6c0-8,4.2-13.9,10.2-13.9c2.9,0,4.8,0.9,6.2,2l-1.3,1.9c-1.3-1.1-2.6-1.7-5-1.7
		c-4.7,0-7.6,5-7.7,11.5c1.6-1.8,4.1-3.5,7.4-3.5c5.5,0,8.1,3.4,8.1,8.1c0,4.9-3.5,8.6-8.7,8.6C367.3,581.6,363.2,577.5,363.2,568.6
		z M378.6,573c0-3.5-1.8-6-6-6c-2.9,0-5.4,1.6-7,3.8c0.5,6,3.4,8.6,6.8,8.6C376.2,579.5,378.6,577.1,378.6,573z"/>
	<path class="st1" d="M389.5,555.2h8.7c5.8,0,9,2.4,9,7c0,4.2-2.5,6.3-6.2,7l6.5,11.9h-2.8l-6.3-11.6h-6.4v11.6h-2.5L389.5,555.2
		L389.5,555.2z M398,567.3c4.3,0,6.7-1.2,6.7-5c0-3.6-2.4-4.8-6.7-4.8h-6v9.8H398z"/>
</g>
<g>
	<rect x="80.5" y="157" class="st2" width="281.7" height="7.2"/>
</g>
<g>
	<rect x="80.5" y="184.8" class="st2" width="281.7" height="7.2"/>
</g>
<g>
	<rect x="80.5" y="198.7" class="st2" width="281.7" height="7.2"/>
</g>
<g>
	<rect x="80.5" y="212.6" class="st2" width="281.7" height="7.2"/>
</g>
<g>
	<rect x="80.5" y="226.5" class="st2" width="281.7" height="7.2"/>
</g>
<g>
	<rect x="80.5" y="240.4" class="st2" width="281.7" height="7.2"/>
</g>
<g>
	<rect x="80.5" y="254.4" class="st2" width="281.7" height="7.2"/>
</g>
<g>
	<rect x="80.5" y="268.3" class="st2" width="281.7" height="7.2"/>
</g>
<g>
	<rect x="80.5" y="282.2" class="st2" width="281.7" height="7.2"/>
</g>
<g>
	<rect x="80.5" y="296.1" class="st2" width="281.7" height="7.2"/>
</g>
<g>
	<rect x="80.5" y="310" class="st2" width="281.7" height="7.2"/>
</g>
<g>
	<rect x="80.5" y="323.9" class="st2" width="281.7" height="7.2"/>
</g>
<g>
	<rect x="80.5" y="337.8" class="st2" width="281.7" height="7.2"/>
</g>
<g>
	<rect x="80.5" y="351.8" class="st2" width="281.7" height="7.2"/>
</g>
<g>
	<rect x="80.5" y="365.7" class="st2" width="281.7" height="7.2"/>
</g>
<g>
	<rect x="80.5" y="379.6" class="st2" width="281.7" height="7.2"/>
</g>
<g>
	<rect x="80.5" y="393.5" class="st2" width="281.7" height="7.2"/>
</g>
<g>
	<rect x="80.5" y="407.4" class="st2" width="281.7" height="7.2"/>
</g>
<g>
	<rect x="80.5" y="421.3" class="st2" width="281.7" height="7.2"/>
</g>
<g>
	<rect x="80.5" y="435.2" class="st2" width="281.7" height="7.2"/>
</g>
<g>
	<rect x="80.5" y="449.2" class="st2" width="281.7" height="7.2"/>
</g>
<g>
	<rect x="80.5" y="463.1" class="st2" width="281.7" height="7.2"/>
</g>
<g>
	<rect x="80.5" y="477" class="st2" width="281.7" height="7.2"/>
</g>
<g>
	<rect x="80.5" y="59.6" class="st2" width="281.7" height="7.2"/>
</g>
<g>
	<rect x="80.5" y="73.5" class="st2" width="281.7" height="7.2"/>
</g>
<g>
	<rect x="80.5" y="143.1" class="st2" width="281.7" height="7.2"/>
</g>
<g>
	<rect x="80.5" y="170.9" class="st2" width="281.7" height="7.2"/>
</g>
<g>
	<rect x="80.5" y="87.4" class="st2" width="281.7" height="7.2"/>
</g>
<g>
	<rect x="80.5" y="101.3" class="st2" width="281.7" height="7.2"/>
</g>
<g>
	<rect x="80.5" y="115.2" class="st2" width="281.7" height="7.2"/>
</g>
<g>
	<rect x="80.5" y="129.1" class="st2" width="281.7" height="7.2"/>
</g>
<polygon class="st3" points="218.6,80.7 80.6,80.7 80.6,73.5 218.6,73.5 222.8,77.1 "/>
<g>
	<g>
		<polygon class="st3" points="218.6,66.8 80.6,66.8 80.6,59.6 218.6,59.6 222.8,63.2 		"/>
	</g>
	<g>
		<polygon class="st3" points="224,59.6 362.1,59.6 362.1,66.8 224,66.8 228.2,63.2 		"/>
	</g>
</g>
<g>
	<g>
		<polygon class="st3" points="218.6,94.6 80.6,94.6 80.6,87.4 218.6,87.4 222.8,91 		"/>
	</g>
	<g>
		<polygon class="st3" points="224,87.4 362.1,87.4 362.1,94.6 224,94.6 228.2,91 		"/>
	</g>
</g>
<g>
	<polygon class="st3" points="218.6,108.5 80.6,108.5 80.6,101.3 218.6,101.3 222.8,104.9 	"/>
</g>
<g>
	<g>
		<polygon class="st3" points="218.6,122.4 80.6,122.4 80.6,115.2 218.6,115.2 222.8,118.8 		"/>
	</g>
	<g>
		<polygon class="st3" points="224,115.2 362.1,115.2 362.1,122.4 224,122.4 228.2,118.8 		"/>
	</g>
</g>
<g>
	<polygon class="st3" points="218.6,136.3 80.6,136.3 80.6,129.1 218.6,129.1 222.8,132.7 	"/>
</g>
<g>
	<path class="st4" d="M59,147.4h6.5c0.8,0,1.5,0.1,2.2,0.3c0.7,0.2,1.4,0.5,2,0.9c0.6,0.4,1.2,0.8,1.7,1.3c0.5,0.5,0.9,1.1,1.3,1.7
		c0.4,0.6,0.6,1.3,0.8,2s0.3,1.5,0.3,2.3c0,0.8-0.1,1.5-0.3,2.3c-0.2,0.7-0.5,1.4-0.8,2s-0.8,1.2-1.3,1.7c-0.5,0.5-1.1,1-1.7,1.3
		c-0.6,0.4-1.3,0.7-2,0.9c-0.7,0.2-1.5,0.3-2.2,0.3H59v-3.1h1.4v-10.9H59V147.4z M64,150.5v10.9h1.4c0.6,0,1.2-0.1,1.7-0.4
		s1-0.7,1.4-1.2s0.7-1.1,0.9-1.7c0.2-0.7,0.3-1.4,0.3-2.1c0-0.8-0.1-1.5-0.3-2.1c-0.2-0.7-0.5-1.2-0.9-1.7c-0.4-0.5-0.9-0.9-1.4-1.1
		s-1.1-0.4-1.7-0.4L64,150.5L64,150.5z"/>
</g>
<g>
	<path class="st5" d="M65.3,66.8c-0.8,0-1.5-0.1-2.2-0.3c-0.7-0.2-1.4-0.5-2-0.9s-1.2-0.8-1.7-1.4c-0.5-0.5-0.9-1.1-1.3-1.8
		s-0.6-1.4-0.8-2.1c-0.2-0.7-0.3-1.5-0.3-2.3c0-0.8,0.1-1.6,0.3-2.4c0.2-0.8,0.5-1.5,0.8-2.1s0.8-1.3,1.3-1.8c0.5-0.5,1.1-1,1.7-1.4
		c0.6-0.4,1.3-0.7,2-0.9c0.7-0.2,1.4-0.3,2.2-0.3s1.5,0.1,2.2,0.3c0.7,0.2,1.4,0.5,2,0.9c0.6,0.4,1.2,0.8,1.7,1.4
		c0.5,0.5,0.9,1.1,1.3,1.8c0.4,0.7,0.6,1.4,0.8,2.1c0.2,0.8,0.3,1.5,0.3,2.4c0,0.8-0.1,1.6-0.3,2.3c-0.2,0.8-0.5,1.5-0.8,2.1
		c-0.4,0.7-0.8,1.2-1.3,1.8c-0.5,0.5-1.1,1-1.7,1.4c-0.6,0.4-1.3,0.7-2,0.9C66.8,66.7,66.1,66.8,65.3,66.8z M65.3,63.3
		c0.7,0,1.2-0.1,1.8-0.4c0.5-0.3,1-0.7,1.4-1.1c0.4-0.5,0.7-1,0.9-1.7c0.2-0.6,0.3-1.3,0.3-2c0-0.7-0.1-1.4-0.3-2.1
		c-0.2-0.6-0.5-1.2-0.9-1.7c-0.4-0.5-0.9-0.9-1.4-1.1c-0.5-0.3-1.1-0.4-1.8-0.4s-1.2,0.1-1.8,0.4c-0.5,0.3-1,0.7-1.4,1.1
		c-0.4,0.5-0.7,1-0.9,1.7c-0.2,0.6-0.3,1.3-0.3,2.1c0,0.7,0.1,1.4,0.3,2c0.2,0.6,0.5,1.2,0.9,1.7c0.4,0.5,0.9,0.9,1.4,1.1
		C64.1,63.2,64.7,63.3,65.3,63.3z"/>
</g>
<g>
	<rect x="80.5" y="157" class="st2" width="281.7" height="7.2"/>
</g>
<g>
	<g>
		<polygon class="st6" points="218.6,178.1 80.6,178.1 80.6,170.9 218.6,170.9 222.8,174.5 		"/>
	</g>
	<g>
		<polygon class="st6" points="224,170.9 362.1,170.9 362.1,178.1 224,178.1 228.2,174.5 		"/>
	</g>
</g>
<g>
	<g>
		<polygon class="st6" points="218.6,164.2 80.6,164.2 80.6,157 218.6,157 222.8,160.6 		"/>
	</g>
	<g>
		<polygon class="st6" points="224,157 362.1,157 362.1,164.2 224,164.2 228.2,160.6 		"/>
	</g>
</g>
<g>
	<g>
		<polygon class="st6" points="218.6,247.6 80.6,247.6 80.6,240.4 218.6,240.4 222.8,244 		"/>
	</g>
	<g>
		<polygon class="st6" points="224,240.4 362.1,240.4 362.1,247.6 224,247.6 228.2,244 		"/>
	</g>
</g>
<g>
	<g>
		<polygon class="st6" points="218.6,192 80.6,192 80.6,184.8 218.6,184.8 222.8,188.4 		"/>
	</g>
	<g>
		<polygon class="st6" points="224,184.8 362.1,184.8 362.1,192 224,192 228.2,188.4 		"/>
	</g>
</g>
<g>
	<g>
		<polygon class="st6" points="218.6,205.9 80.6,205.9 80.6,198.7 218.6,198.7 222.8,202.3 		"/>
	</g>
	<g>
		<polygon class="st6" points="224,198.7 362.1,198.7 362.1,205.9 224,205.9 228.2,202.3 		"/>
	</g>
</g>
<g>
	<g>
		<polygon class="st6" points="218.6,219.8 80.6,219.8 80.6,212.6 218.6,212.6 222.8,216.2 		"/>
	</g>
	<g>
		<polygon class="st6" points="224,212.6 362.1,212.6 362.1,219.8 224,219.8 228.2,216.2 		"/>
	</g>
</g>
<g>
	<g>
		<polygon class="st6" points="218.6,233.7 80.6,233.7 80.6,226.5 218.6,226.5 222.8,230.1 		"/>
	</g>
	<g>
		<polygon class="st6" points="224,226.5 362.1,226.5 362.1,233.7 224,233.7 228.2,230.1 		"/>
	</g>
</g>
<g>
	<g>
		<polygon class="st6" points="218.6,289.6 80.6,289.6 80.6,282.4 218.6,282.4 222.8,286 		"/>
	</g>
	<g>
		<polygon class="st6" points="224,282.4 362.1,282.4 362.1,289.6 224,289.6 228.2,286 		"/>
	</g>
</g>
<g>
	<g>
		<polygon class="st6" points="218.6,275.5 80.6,275.5 80.6,268.3 218.6,268.3 222.8,271.9 		"/>
	</g>
	<g>
		<polygon class="st6" points="224,268.3 362.1,268.3 362.1,275.5 224,275.5 228.2,271.9 		"/>
	</g>
</g>
<g>
	<g>
		<polygon class="st6" points="218.6,359.2 80.6,359.2 80.6,352 218.6,352 222.8,355.6 		"/>
	</g>
	<g>
		<polygon class="st6" points="224,352 362.1,352 362.1,359.2 224,359.2 228.2,355.6 		"/>
	</g>
</g>
<g>
	<g>
		<polygon class="st6" points="218.6,303.5 80.6,303.5 80.6,296.3 218.6,296.3 222.8,299.9 		"/>
	</g>
	<g>
		<polygon class="st6" points="224,296.3 362.1,296.3 362.1,303.5 224,303.5 228.2,299.9 		"/>
	</g>
</g>
<g>
	<g>
		<polygon class="st6" points="218.6,317.4 80.6,317.4 80.6,310.2 218.6,310.2 222.8,313.8 		"/>
	</g>
	<g>
		<polygon class="st6" points="224,310.2 362.1,310.2 362.1,317.4 224,317.4 228.2,313.8 		"/>
	</g>
</g>
<g>
	<g>
		<polygon class="st6" points="218.6,331.4 80.6,331.4 80.6,324.2 218.6,324.2 222.8,327.8 		"/>
	</g>
	<g>
		<polygon class="st6" points="224,324.2 362.1,324.2 362.1,331.4 224,331.4 228.2,327.8 		"/>
	</g>
</g>
<g>
	<g>
		<polygon class="st6" points="218.6,345.3 80.6,345.3 80.6,338.1 218.6,338.1 222.8,341.7 		"/>
	</g>
	<g>
		<polygon class="st6" points="224,338.1 362.1,338.1 362.1,345.3 224,345.3 228.2,341.7 		"/>
	</g>
</g>
<g>
	<g>
		<polygon class="st6" points="218.6,400.6 80.6,400.6 80.6,393.4 218.6,393.4 222.8,397 		"/>
	</g>
	<g>
		<polygon class="st6" points="224,393.4 362.1,393.4 362.1,400.6 224,400.6 228.2,397 		"/>
	</g>
</g>
<g>
	<g>
		<polygon class="st6" points="218.6,386.8 80.6,386.8 80.6,379.6 218.6,379.6 222.8,383.2 		"/>
	</g>
	<g>
		<polygon class="st6" points="224,379.6 362.1,379.6 362.1,386.8 224,386.8 228.2,383.2 		"/>
	</g>
</g>
<g>
	<g>
		<polygon class="st6" points="218.6,414.5 80.6,414.5 80.6,407.3 218.6,407.3 222.8,410.9 		"/>
	</g>
	<g>
		<polygon class="st6" points="224,407.3 362.1,407.3 362.1,414.5 224,414.5 228.2,410.9 		"/>
	</g>
</g>
<g>
	<g>
		<polygon class="st6" points="218.6,428.4 80.6,428.4 80.6,421.2 218.6,421.2 222.8,424.8 		"/>
	</g>
	<g>
		<polygon class="st6" points="224,421.2 362.1,421.2 362.1,428.4 224,428.4 228.2,424.8 		"/>
	</g>
</g>
<g>
	<g>
		<polygon class="st6" points="218.6,442.4 80.6,442.4 80.6,435.2 218.6,435.2 222.8,438.8 		"/>
	</g>
	<g>
		<polygon class="st6" points="224,435.2 362.1,435.2 362.1,442.4 224,442.4 228.2,438.8 		"/>
	</g>
</g>
<g>
	<g>
		<polygon class="st6" points="218.6,456.3 80.6,456.3 80.6,449.1 218.6,449.1 222.8,452.7 		"/>
	</g>
	<g>
		<polygon class="st6" points="224,449.1 362.1,449.1 362.1,456.3 224,456.3 228.2,452.7 		"/>
	</g>
</g>
<g>
	<g>
		<polygon class="st6" points="218.6,470.3 80.6,470.3 80.6,463.1 218.6,463.1 222.8,466.7 		"/>
	</g>
	<g>
		<polygon class="st6" points="224,463.1 362.1,463.1 362.1,470.3 224,470.3 228.2,466.7 		"/>
	</g>
</g>
<g>
	<path class="st4" d="M67.8,384h1.7l-0.8-2.4h-5.2l-0.8,2.4h1.8v3.1h-6.5V384h1.3l4.6-13.9h4.5L73,384h1.2v3.1h-6.5L67.8,384
		L67.8,384z M64.4,378.7h3.4l-1.7-5.5L64.4,378.7z"/>
</g>
<g>
	<path class="st5" d="M63.6,275.5c-1-0.2-1.8-0.6-2.7-1.1c-0.8-0.5-1.5-1.2-2.1-1.9c-0.6-0.8-1.1-1.6-1.4-2.6c-0.3-1-0.5-2-0.5-3.1
		c0-0.8,0.1-1.6,0.3-2.4c0.2-0.8,0.5-1.5,0.8-2.1s0.8-1.2,1.3-1.8c0.5-0.5,1.1-1,1.7-1.4c0.6-0.4,1.3-0.7,2-0.9
		c0.7-0.2,1.4-0.3,2.2-0.3s1.5,0.1,2.2,0.3c0.7,0.2,1.4,0.5,2,0.9c0.6,0.4,1.2,0.8,1.7,1.4c0.5,0.5,0.9,1.1,1.3,1.8
		c0.4,0.7,0.6,1.4,0.8,2.1c0.2,0.8,0.3,1.5,0.3,2.4c0,1.1-0.2,2.1-0.5,3.1c-0.3,1-0.8,1.8-1.4,2.6c-0.6,0.8-1.3,1.4-2.2,1.9
		c-0.8,0.5-1.7,0.9-2.7,1c0.2,0.1,0.5,0.2,0.7,0.3c0.2,0.1,0.5,0.2,0.7,0.3c0.2,0.1,0.5,0.2,0.7,0.3c0.2,0.1,0.5,0.1,0.7,0.1
		c0.2,0,0.5,0,0.7-0.1c0.2-0.1,0.4-0.2,0.6-0.3c0.2-0.1,0.3-0.3,0.5-0.5c0.1-0.2,0.2-0.4,0.3-0.7l2.5,1.2c-0.1,0.5-0.2,1-0.5,1.5
		c-0.2,0.4-0.6,0.8-0.9,1.1c-0.4,0.3-0.8,0.6-1.3,0.7s-1,0.3-1.6,0.3c-0.4,0-0.9-0.1-1.3-0.3c-0.4-0.2-0.9-0.4-1.3-0.6
		c-0.4-0.2-0.8-0.4-1.2-0.5c-0.4-0.2-0.7-0.3-1-0.3c-0.1,0-0.2,0-0.3,0s-0.2,0-0.3,0c-0.1,0-0.2,0-0.3,0c-0.1,0-0.2,0.1-0.4,0.1
		L63.6,275.5z M65.1,272.1c0.7,0,1.2-0.1,1.8-0.4c0.5-0.3,1-0.7,1.4-1.1s0.7-1,0.9-1.7c0.2-0.6,0.3-1.3,0.3-2c0-0.7-0.1-1.4-0.3-2.1
		c-0.2-0.6-0.5-1.2-0.9-1.7c-0.4-0.5-0.9-0.9-1.4-1.1c-0.5-0.3-1.1-0.4-1.8-0.4s-1.2,0.1-1.8,0.4c-0.5,0.3-1,0.7-1.4,1.1
		c-0.4,0.5-0.7,1-0.9,1.7c-0.2,0.6-0.3,1.3-0.3,2.1c0,0.7,0.1,1.4,0.3,2c0.2,0.6,0.5,1.2,0.9,1.7s0.9,0.9,1.4,1.1
		C63.9,272,64.5,272.1,65.1,272.1z"/>
</g>
</svg>
