<?xml version="1.0" encoding="utf-8"?>
<!-- Generator: Adobe Illustrator 16.0.4, SVG Export Plug-In . SVG Version: 6.00 Build 0)  -->
<!DOCTYPE svg PUBLIC "-//W3C//DTD SVG 1.1//EN" "http://www.w3.org/Graphics/SVG/1.1/DTD/svg11.dtd">
<svg version="1.1" id="Layer_1" xmlns="http://www.w3.org/2000/svg" xmlns:xlink="http://www.w3.org/1999/xlink" x="0px" y="0px"
	 width="448.747px" height="616.439px" viewBox="0 0 448.747 616.439" enable-background="new 0 0 448.747 616.439"
	 xml:space="preserve">
<rect x="0.5" y="0.5" fill="#FFFFFF" stroke="#C68D06" stroke-miterlimit="10" width="447.747" height="615.439"/>
<g>
	<path fill="#C68D06" d="M339.137,581.823c0-3.745,1.854-7.175,8.681-11.551c3.885-2.485,5.46-4.235,5.46-7.036
		c0-3.045-1.89-5.04-5.285-5.04c-2.835,0-4.9,1.47-6.44,4.481l-1.961-1.155c1.82-3.5,4.691-5.531,8.507-5.531
		c4.69,0,7.596,2.94,7.596,7.106c0,3.535-1.716,5.775-6.687,8.925c-4.69,2.976-6.965,5.775-7.141,8.122h13.932v2.24h-16.661V581.823
		z"/>
	<path fill="#C68D06" d="M363.391,569.888c0-7.981,4.201-13.896,10.151-13.896c2.87,0,4.796,0.875,6.195,1.96l-1.295,1.89
		c-1.33-1.051-2.625-1.681-4.971-1.681c-4.726,0-7.631,5.041-7.665,11.481c1.645-1.785,4.095-3.465,7.386-3.465
		c5.46,0,8.086,3.395,8.086,8.085c0,4.901-3.466,8.611-8.682,8.611C367.486,582.874,363.391,578.779,363.391,569.888z
		 M378.862,574.298c0-3.465-1.75-5.985-5.95-5.985c-2.87,0-5.426,1.61-7.001,3.815c0.525,6.021,3.36,8.611,6.791,8.611
		C376.412,580.739,378.862,578.394,378.862,574.298z"/>
	<path fill="#C68D06" d="M387.61,556.481h2.556l7.735,22.612h0.07l7.771-22.612h2.416l-9.102,26.008h-2.345L387.61,556.481z"/>
</g>
<g>
	<g>
		<rect x="79.217" y="158.216" fill="#C0DDE7" width="281.738" height="7.199"/>
	</g>
	<g>
		<rect x="79.217" y="172.13" fill="#C0DDE7" width="281.738" height="7.199"/>
	</g>
	<g>
		<rect x="79.217" y="186.043" fill="#C0DDE7" width="281.738" height="7.2"/>
	</g>
	<g>
		<rect x="79.217" y="199.958" fill="#C0DDE7" width="281.738" height="7.199"/>
	</g>
	<g>
		<rect x="79.217" y="213.872" fill="#C0DDE7" width="281.738" height="7.199"/>
	</g>
	<g>
		<rect x="79.217" y="227.786" fill="#C0DDE7" width="281.738" height="7.199"/>
	</g>
	<g>
		<rect x="79.217" y="241.699" fill="#C0DDE7" width="281.738" height="7.199"/>
	</g>
	<g>
		<rect x="79.217" y="255.612" fill="#C0DDE7" width="281.738" height="7.2"/>
	</g>
	<g>
		<rect x="79.217" y="269.527" fill="#C0DDE7" width="281.738" height="7.199"/>
	</g>
	<g>
		<rect x="79.217" y="283.44" fill="#C0DDE7" width="281.738" height="7.2"/>
	</g>
	<g>
		<rect x="79.217" y="297.354" fill="#C0DDE7" width="281.738" height="7.2"/>
	</g>
	<g>
		<rect x="79.217" y="311.268" fill="#C0DDE7" width="281.738" height="7.2"/>
	</g>
	<g>
		<rect x="79.217" y="325.182" fill="#C0DDE7" width="281.738" height="7.199"/>
	</g>
	<g>
		<rect x="79.217" y="339.096" fill="#C0DDE7" width="281.738" height="7.2"/>
	</g>
	<g>
		<rect x="79.217" y="353.009" fill="#C0DDE7" width="281.738" height="7.201"/>
	</g>
	<g>
		<rect x="79.217" y="366.923" fill="#C0DDE7" width="281.738" height="7.2"/>
	</g>
	<g>
		<rect x="79.217" y="380.837" fill="#C0DDE7" width="281.738" height="7.199"/>
	</g>
	<g>
		<rect x="79.217" y="394.751" fill="#C0DDE7" width="281.738" height="7.199"/>
	</g>
	<g>
		<rect x="79.217" y="408.665" fill="#C0DDE7" width="281.738" height="7.199"/>
	</g>
	<g>
		<rect x="79.217" y="422.579" fill="#C0DDE7" width="281.738" height="7.2"/>
	</g>
	<g>
		<rect x="79.217" y="436.492" fill="#C0DDE7" width="281.738" height="7.2"/>
	</g>
	<g>
		<rect x="79.217" y="450.407" fill="#C0DDE7" width="281.738" height="7.2"/>
	</g>
	<g>
		<rect x="79.217" y="464.32" fill="#C0DDE7" width="281.738" height="7.199"/>
	</g>
	<g>
		<rect x="79.217" y="478.234" fill="#C0DDE7" width="281.738" height="7.2"/>
	</g>
	<g>
		<rect x="79.217" y="60.819" fill="#C0DDE7" width="281.738" height="7.2"/>
	</g>
	<g>
		<rect x="79.217" y="74.733" fill="#C0DDE7" width="281.738" height="7.201"/>
	</g>
	<g>
		<rect x="79.217" y="144.302" fill="#C0DDE7" width="281.738" height="7.2"/>
	</g>
	<g>
		<rect x="79.217" y="88.647" fill="#C0DDE7" width="281.738" height="7.199"/>
	</g>
	<g>
		<rect x="79.217" y="102.561" fill="#C0DDE7" width="281.738" height="7.201"/>
	</g>
	<g>
		<rect x="79.217" y="116.475" fill="#C0DDE7" width="281.738" height="7.199"/>
	</g>
	<g>
		<rect x="79.217" y="130.389" fill="#C0DDE7" width="281.738" height="7.198"/>
	</g>
	<g>
		<path fill="#C63706" d="M68.744,55.705c-0.038-0.262-0.129-0.509-0.275-0.74c-0.146-0.232-0.333-0.433-0.562-0.602
			c-0.228-0.168-0.486-0.301-0.774-0.398c-0.289-0.097-0.59-0.146-0.904-0.146c-0.285,0-0.55,0.03-0.797,0.089
			c-0.247,0.061-0.462,0.152-0.646,0.275c-0.183,0.124-0.329,0.283-0.438,0.478c-0.109,0.194-0.163,0.426-0.163,0.696
			c0,0.337,0.073,0.604,0.219,0.803c0.146,0.198,0.333,0.362,0.562,0.488c0.229,0.128,0.481,0.229,0.758,0.304
			s0.546,0.157,0.809,0.247l3.088,1.033c0.427,0.149,0.827,0.355,1.202,0.617c0.375,0.263,0.698,0.581,0.971,0.956
			c0.273,0.374,0.489,0.804,0.646,1.291c0.157,0.487,0.236,1.033,0.236,1.641c0,0.824-0.151,1.575-0.455,2.257
			c-0.303,0.681-0.728,1.266-1.274,1.751c-0.546,0.486-1.202,0.864-1.965,1.133c-0.764,0.27-1.61,0.405-2.538,0.405
			c-0.651,0-1.267-0.072-1.847-0.219c-0.581-0.146-1.11-0.357-1.589-0.635c-0.479-0.276-0.898-0.607-1.258-0.993
			c-0.359-0.385-0.64-0.822-0.842-1.309h-1.157v-3.379h4.065v0.695c0,0.338,0.054,0.648,0.163,0.933
			c0.109,0.284,0.271,0.531,0.489,0.741c0.217,0.21,0.49,0.372,0.82,0.488c0.33,0.116,0.715,0.173,1.157,0.173
			c0.674,0,1.187-0.155,1.539-0.465c0.352-0.312,0.528-0.743,0.528-1.297c0-0.284-0.062-0.522-0.185-0.713
			c-0.124-0.191-0.283-0.352-0.478-0.483c-0.195-0.13-0.412-0.241-0.651-0.331c-0.24-0.09-0.476-0.172-0.708-0.247l-2.572-0.831
			c-0.487-0.15-0.957-0.36-1.409-0.629c-0.453-0.269-0.854-0.606-1.202-1.011c-0.348-0.404-0.625-0.877-0.831-1.421
			c-0.206-0.543-0.309-1.162-0.309-1.858c0-0.809,0.15-1.53,0.449-2.162c0.299-0.633,0.719-1.166,1.258-1.6
			c0.539-0.435,1.179-0.764,1.92-0.988c0.741-0.224,1.554-0.338,2.437-0.338c0.696,0,1.34,0.081,1.932,0.242
			s1.121,0.376,1.589,0.646c0.468,0.27,0.865,0.578,1.19,0.927c0.326,0.347,0.575,0.708,0.747,1.083h1.123v3.391h-4.065V55.705z"/>
	</g>
	<g>
		<g>
			<g>
				<polygon fill="#7C5904" points="217.39,109.761 79.32,109.761 79.32,102.562 217.39,102.562 221.539,106.16 				"/>
			</g>
			<g>
				<polygon fill="#7C5904" points="222.781,102.562 360.851,102.562 360.851,109.761 222.781,109.761 226.929,106.16 				"/>
			</g>
		</g>
		<g>
			<g>
				<polygon fill="#7C5904" points="217.39,123.674 79.32,123.674 79.32,116.474 217.39,116.474 221.539,120.073 				"/>
			</g>
			<g>
				<polygon fill="#7C5904" points="222.781,116.474 360.851,116.474 360.851,123.674 222.781,123.674 226.929,120.073 				"/>
			</g>
		</g>
		<g>
			<g>
				<polygon fill="#7C5904" points="265.387,68.019 175.705,68.019 179.855,64.418 175.705,60.819 265.387,60.819 269.537,64.418 
									"/>
			</g>
			<g>
				<polygon fill="#7C5904" points="168.898,68.019 79.217,68.019 79.217,60.819 168.898,60.819 173.047,64.418 				"/>
			</g>
			<g>
				<polygon fill="#7C5904" points="271.13,60.819 360.812,60.819 360.812,68.019 271.13,68.019 275.279,64.418 				"/>
			</g>
		</g>
		<g>
			<g>
				<polygon fill="#7C5904" points="265.387,81.932 175.705,81.932 179.855,78.332 175.705,74.732 265.387,74.732 269.537,78.332 
									"/>
			</g>
			<g>
				<polygon fill="#7C5904" points="168.898,81.932 79.217,81.932 79.217,74.732 168.898,74.732 173.047,78.332 				"/>
			</g>
			<g>
				<polygon fill="#7C5904" points="271.13,74.732 360.812,74.732 360.812,81.932 271.13,81.932 275.279,78.332 				"/>
			</g>
		</g>
		<g>
			<g>
				<polygon fill="#7C5904" points="265.387,95.846 175.705,95.846 179.855,92.246 175.705,88.646 265.387,88.646 269.537,92.246 
									"/>
			</g>
			<g>
				<polygon fill="#7C5904" points="168.898,95.846 79.217,95.846 79.217,88.646 168.898,88.646 173.047,92.246 				"/>
			</g>
			<g>
				<polygon fill="#7C5904" points="271.13,88.646 360.812,88.646 360.812,95.846 271.13,95.846 275.279,92.246 				"/>
			</g>
		</g>
	</g>
	<g>
		<g>
			<g>
				<polygon fill="#7C5904" points="217.39,179.332 79.32,179.332 79.32,172.133 217.39,172.133 221.539,175.731 				"/>
			</g>
			<g>
				<polygon fill="#7C5904" points="222.781,172.133 360.851,172.133 360.851,179.332 222.781,179.332 226.929,175.731 				"/>
			</g>
		</g>
		<g>
			<g>
				<polygon fill="#7C5904" points="217.39,193.245 79.32,193.245 79.32,186.044 217.39,186.044 221.539,189.644 				"/>
			</g>
			<g>
				<polygon fill="#7C5904" points="222.781,186.044 360.851,186.044 360.851,193.245 222.781,193.245 226.929,189.644 				"/>
			</g>
		</g>
		<g>
			<g>
				<polygon fill="#7C5904" points="265.387,137.589 175.705,137.589 179.855,133.989 175.705,130.39 265.387,130.39 
					269.537,133.989 				"/>
			</g>
			<g>
				<polygon fill="#7C5904" points="168.898,137.589 79.217,137.589 79.217,130.39 168.898,130.39 173.047,133.989 				"/>
			</g>
			<g>
				<polygon fill="#7C5904" points="271.13,130.39 360.812,130.39 360.812,137.589 271.13,137.589 275.279,133.989 				"/>
			</g>
		</g>
		<g>
			<g>
				<polygon fill="#7C5904" points="265.387,151.502 175.705,151.502 179.855,147.903 175.705,144.303 265.387,144.303 
					269.537,147.903 				"/>
			</g>
			<g>
				<polygon fill="#7C5904" points="168.898,151.502 79.217,151.502 79.217,144.303 168.898,144.303 173.047,147.903 				"/>
			</g>
			<g>
				<polygon fill="#7C5904" points="271.13,144.303 360.812,144.303 360.812,151.502 271.13,151.502 275.279,147.903 				"/>
			</g>
		</g>
		<g>
			<g>
				<polygon fill="#7C5904" points="265.387,165.417 175.705,165.417 179.855,161.816 175.705,158.217 265.387,158.217 
					269.537,161.816 				"/>
			</g>
			<g>
				<polygon fill="#7C5904" points="168.898,165.417 79.217,165.417 79.217,158.217 168.898,158.217 173.047,161.816 				"/>
			</g>
			<g>
				<polygon fill="#7C5904" points="271.13,158.217 360.812,158.217 360.812,165.417 271.13,165.417 275.279,161.816 				"/>
			</g>
		</g>
	</g>
	<g>
		<g>
			<g>
				<polygon fill="#7C5904" points="217.39,248.9 79.32,248.9 79.32,241.702 217.39,241.702 221.539,245.299 				"/>
			</g>
			<g>
				<polygon fill="#7C5904" points="222.781,241.702 360.851,241.702 360.851,248.9 222.781,248.9 226.929,245.299 				"/>
			</g>
		</g>
		<g>
			<g>
				<polygon fill="#7C5904" points="217.39,262.813 79.32,262.813 79.32,255.613 217.39,255.613 221.539,259.212 				"/>
			</g>
			<g>
				<polygon fill="#7C5904" points="222.781,255.613 360.851,255.613 360.851,262.813 222.781,262.813 226.929,259.212 				"/>
			</g>
		</g>
		<g>
			<g>
				<polygon fill="#7C5904" points="265.387,207.158 175.705,207.158 179.855,203.558 175.705,199.958 265.387,199.958 
					269.537,203.558 				"/>
			</g>
			<g>
				<polygon fill="#7C5904" points="168.898,207.158 79.217,207.158 79.217,199.958 168.898,199.958 173.047,203.558 				"/>
			</g>
			<g>
				<polygon fill="#7C5904" points="271.13,199.958 360.812,199.958 360.812,207.158 271.13,207.158 275.279,203.558 				"/>
			</g>
		</g>
		<g>
			<g>
				<polygon fill="#7C5904" points="265.387,221.071 175.705,221.071 179.855,217.471 175.705,213.872 265.387,213.872 
					269.537,217.471 				"/>
			</g>
			<g>
				<polygon fill="#7C5904" points="168.898,221.071 79.217,221.071 79.217,213.872 168.898,213.872 173.047,217.471 				"/>
			</g>
			<g>
				<polygon fill="#7C5904" points="271.13,213.872 360.812,213.872 360.812,221.071 271.13,221.071 275.279,217.471 				"/>
			</g>
		</g>
		<g>
			<g>
				<polygon fill="#7C5904" points="265.387,234.985 175.705,234.985 179.855,231.385 175.705,227.786 265.387,227.786 
					269.537,231.385 				"/>
			</g>
			<g>
				<polygon fill="#7C5904" points="168.898,234.985 79.217,234.985 79.217,227.786 168.898,227.786 173.047,231.385 				"/>
			</g>
			<g>
				<polygon fill="#7C5904" points="271.13,227.786 360.812,227.786 360.812,234.985 271.13,234.985 275.279,231.385 				"/>
			</g>
		</g>
	</g>
	<g>
		<g>
			<g>
				<polygon fill="#7C5904" points="217.39,318.469 79.32,318.469 79.32,311.27 217.39,311.27 221.539,314.868 				"/>
			</g>
			<g>
				<polygon fill="#7C5904" points="222.781,311.27 360.851,311.27 360.851,318.469 222.781,318.469 226.929,314.868 				"/>
			</g>
		</g>
		<g>
			<g>
				<polygon fill="#7C5904" points="217.39,332.382 79.32,332.382 79.32,325.182 217.39,325.182 221.539,328.781 				"/>
			</g>
			<g>
				<polygon fill="#7C5904" points="222.781,325.182 360.851,325.182 360.851,332.382 222.781,332.382 226.929,328.781 				"/>
			</g>
		</g>
		<g>
			<g>
				<polygon fill="#7C5904" points="265.387,276.727 175.705,276.727 179.855,273.126 175.705,269.527 265.387,269.527 
					269.537,273.126 				"/>
			</g>
			<g>
				<polygon fill="#7C5904" points="168.898,276.727 79.217,276.727 79.217,269.527 168.898,269.527 173.047,273.126 				"/>
			</g>
			<g>
				<polygon fill="#7C5904" points="271.13,269.527 360.812,269.527 360.812,276.727 271.13,276.727 275.279,273.126 				"/>
			</g>
		</g>
		<g>
			<g>
				<polygon fill="#7C5904" points="265.387,290.64 175.705,290.64 179.855,287.04 175.705,283.44 265.387,283.44 269.537,287.04 
									"/>
			</g>
			<g>
				<polygon fill="#7C5904" points="168.898,290.64 79.217,290.64 79.217,283.44 168.898,283.44 173.047,287.04 				"/>
			</g>
			<g>
				<polygon fill="#7C5904" points="271.13,283.44 360.812,283.44 360.812,290.64 271.13,290.64 275.279,287.04 				"/>
			</g>
		</g>
		<g>
			<g>
				<polygon fill="#7C5904" points="265.387,304.554 175.705,304.554 179.855,300.954 175.705,297.354 265.387,297.354 
					269.537,300.954 				"/>
			</g>
			<g>
				<polygon fill="#7C5904" points="168.898,304.554 79.217,304.554 79.217,297.354 168.898,297.354 173.047,300.954 				"/>
			</g>
			<g>
				<polygon fill="#7C5904" points="271.13,297.354 360.812,297.354 360.812,304.554 271.13,304.554 275.279,300.954 				"/>
			</g>
		</g>
	</g>
	<g>
		<g>
			<g>
				<polygon fill="#7C5904" points="217.39,388.038 79.32,388.038 79.32,380.839 217.39,380.839 221.539,384.437 				"/>
			</g>
			<g>
				<polygon fill="#7C5904" points="222.781,380.839 360.851,380.839 360.851,388.038 222.781,388.038 226.929,384.437 				"/>
			</g>
		</g>
		<g>
			<g>
				<polygon fill="#7C5904" points="217.39,401.951 79.32,401.951 79.32,394.75 217.39,394.75 221.539,398.35 				"/>
			</g>
			<g>
				<polygon fill="#7C5904" points="222.781,394.75 360.851,394.75 360.851,401.951 222.781,401.951 226.929,398.35 				"/>
			</g>
		</g>
		<g>
			<g>
				<polygon fill="#7C5904" points="265.387,346.295 175.705,346.295 179.855,342.695 175.705,339.096 265.387,339.096 
					269.537,342.695 				"/>
			</g>
			<g>
				<polygon fill="#7C5904" points="168.898,346.295 79.217,346.295 79.217,339.096 168.898,339.096 173.047,342.695 				"/>
			</g>
			<g>
				<polygon fill="#7C5904" points="271.13,339.096 360.812,339.096 360.812,346.295 271.13,346.295 275.279,342.695 				"/>
			</g>
		</g>
		<g>
			<g>
				<polygon fill="#7C5904" points="265.387,360.209 175.705,360.209 179.855,356.609 175.705,353.009 265.387,353.009 
					269.537,356.609 				"/>
			</g>
			<g>
				<polygon fill="#7C5904" points="168.898,360.209 79.217,360.209 79.217,353.009 168.898,353.009 173.047,356.609 				"/>
			</g>
			<g>
				<polygon fill="#7C5904" points="271.13,353.009 360.812,353.009 360.812,360.209 271.13,360.209 275.279,356.609 				"/>
			</g>
		</g>
		<g>
			<g>
				<polygon fill="#7C5904" points="265.387,374.123 175.705,374.123 179.855,370.523 175.705,366.923 265.387,366.923 
					269.537,370.523 				"/>
			</g>
			<g>
				<polygon fill="#7C5904" points="168.898,374.123 79.217,374.123 79.217,366.923 168.898,366.923 173.047,370.523 				"/>
			</g>
			<g>
				<polygon fill="#7C5904" points="271.13,366.923 360.812,366.923 360.812,374.123 271.13,374.123 275.279,370.523 				"/>
			</g>
		</g>
	</g>
	<g>
		<g>
			<polygon fill="#7C5904" points="217.39,457.607 79.32,457.607 79.32,450.408 217.39,450.408 221.539,454.007 			"/>
		</g>
		<g>
			<polygon fill="#7C5904" points="222.781,450.408 360.851,450.408 360.851,457.607 222.781,457.607 226.929,454.007 			"/>
		</g>
	</g>
	<g>
		<g>
			<polygon fill="#7C5904" points="217.39,471.52 79.32,471.52 79.32,464.32 217.39,464.32 221.539,467.919 			"/>
		</g>
		<g>
			<polygon fill="#7C5904" points="222.781,464.32 360.851,464.32 360.851,471.52 222.781,471.52 226.929,467.919 			"/>
		</g>
	</g>
	<g>
		<g>
			<polygon fill="#7C5904" points="265.387,415.865 175.705,415.865 179.855,412.265 175.705,408.665 265.387,408.665 
				269.537,412.265 			"/>
		</g>
		<g>
			<polygon fill="#7C5904" points="168.898,415.865 79.217,415.865 79.217,408.665 168.898,408.665 173.047,412.265 			"/>
		</g>
		<g>
			<polygon fill="#7C5904" points="271.13,408.665 360.812,408.665 360.812,415.865 271.13,415.865 275.279,412.265 			"/>
		</g>
	</g>
	<g>
		<g>
			<polygon fill="#7C5904" points="265.387,485.434 175.705,485.434 179.855,481.834 175.705,478.235 265.387,478.235 
				269.537,481.834 			"/>
		</g>
		<g>
			<polygon fill="#7C5904" points="168.898,485.434 79.217,485.434 79.217,478.235 168.898,478.235 173.047,481.834 			"/>
		</g>
		<g>
			<polygon fill="#7C5904" points="271.13,478.235 360.812,478.235 360.812,485.434 271.13,485.434 275.279,481.834 			"/>
		</g>
	</g>
	<g>
		<g>
			<polygon fill="#7C5904" points="265.387,429.779 175.705,429.779 179.855,426.178 175.705,422.579 265.387,422.579 
				269.537,426.178 			"/>
		</g>
		<g>
			<polygon fill="#7C5904" points="168.898,429.779 79.217,429.779 79.217,422.579 168.898,422.579 173.047,426.178 			"/>
		</g>
		<g>
			<polygon fill="#7C5904" points="271.13,422.579 360.812,422.579 360.812,429.779 271.13,429.779 275.279,426.178 			"/>
		</g>
	</g>
	<g>
		<g>
			<polygon fill="#7C5904" points="265.387,443.692 175.705,443.692 179.855,440.092 175.705,436.494 265.387,436.494 
				269.537,440.092 			"/>
		</g>
		<g>
			<polygon fill="#7C5904" points="168.898,443.692 79.217,443.692 79.217,436.494 168.898,436.494 173.047,440.092 			"/>
		</g>
		<g>
			<polygon fill="#7C5904" points="271.13,436.494 360.812,436.494 360.812,443.692 271.13,443.692 275.279,440.092 			"/>
		</g>
	</g>
	<g>
		<path fill="#398EB0" d="M69.356,134.727c-0.451-0.123-0.876-0.305-1.274-0.545s-0.747-0.537-1.046-0.893
			c-0.299-0.354-0.536-0.764-0.712-1.23c-0.176-0.465-0.264-0.988-0.264-1.568c0-0.615,0.123-1.191,0.369-1.727
			c0.246-0.537,0.595-1.004,1.046-1.402c0.451-0.399,0.996-0.712,1.635-0.94c0.639-0.228,1.351-0.343,2.136-0.343h6.012v2.417
			h-1.239v14.089h-2.575v-14.089h-1.512v14.089h-2.575V134.727z"/>
	</g>
	<g>
		<path fill="#C63706" d="M69.356,204.227c-0.451-0.123-0.876-0.305-1.274-0.545s-0.747-0.537-1.046-0.893
			c-0.299-0.354-0.536-0.764-0.712-1.23c-0.176-0.465-0.264-0.988-0.264-1.568c0-0.615,0.123-1.191,0.369-1.727
			c0.246-0.537,0.595-1.004,1.046-1.402s0.996-0.712,1.635-0.94c0.639-0.228,1.351-0.343,2.136-0.343h6.012v2.417h-1.239v14.089
			h-2.575v-14.089h-1.512v14.089h-2.575V204.227z"/>
	</g>
	<g>
		<path fill="#398EB0" d="M69.356,273.977c-0.451-0.123-0.876-0.305-1.274-0.545s-0.747-0.537-1.046-0.892
			c-0.299-0.354-0.536-0.764-0.712-1.231c-0.176-0.465-0.264-0.988-0.264-1.568c0-0.615,0.123-1.191,0.369-1.727
			c0.246-0.537,0.595-1.004,1.046-1.402s0.996-0.712,1.635-0.94c0.639-0.228,1.351-0.343,2.136-0.343h6.012v2.417h-1.239v14.089
			h-2.575v-14.089h-1.512v14.089h-2.575V273.977z"/>
	</g>
	<g>
		<path fill="#C63706" d="M69.356,343.477c-0.451-0.123-0.876-0.305-1.274-0.545s-0.747-0.537-1.046-0.892
			c-0.299-0.354-0.536-0.764-0.712-1.231c-0.176-0.465-0.264-0.988-0.264-1.568c0-0.615,0.123-1.191,0.369-1.727
			c0.246-0.537,0.595-1.004,1.046-1.402s0.996-0.712,1.635-0.94c0.639-0.228,1.351-0.343,2.136-0.343h6.012v2.417h-1.239v14.089
			h-2.575v-14.089h-1.512v14.089h-2.575V343.477z"/>
	</g>
	<g>
		<path fill="#398EB0" d="M69.356,413.227c-0.451-0.123-0.876-0.305-1.274-0.545s-0.747-0.537-1.046-0.893
			c-0.299-0.354-0.536-0.764-0.712-1.23c-0.176-0.465-0.264-0.988-0.264-1.568c0-0.615,0.123-1.191,0.369-1.727
			c0.246-0.537,0.595-1.004,1.046-1.402s0.996-0.712,1.635-0.94s1.351-0.343,2.136-0.343h6.012v2.417h-1.239v14.088h-2.575v-14.088
			h-1.512v14.088h-2.575V413.227z"/>
	</g>
	<g>
		<path fill="#C63706" d="M69.356,481.977c-0.451-0.123-0.876-0.305-1.274-0.545s-0.747-0.537-1.046-0.892
			c-0.299-0.354-0.536-0.764-0.712-1.231c-0.176-0.465-0.264-0.988-0.264-1.568c0-0.615,0.123-1.191,0.369-1.727
			c0.246-0.537,0.595-1.004,1.046-1.402s0.996-0.712,1.635-0.94s1.351-0.343,2.136-0.343h6.012v2.417h-1.239v14.089h-2.575v-14.089
			h-1.512v14.089h-2.575V481.977z"/>
	</g>
</g>
</svg>
