<?xml version="1.0" encoding="utf-8"?>
<!-- Generator: Adobe Illustrator 16.0.4, SVG Export Plug-In . SVG Version: 6.00 Build 0)  -->
<!DOCTYPE svg PUBLIC "-//W3C//DTD SVG 1.1//EN" "http://www.w3.org/Graphics/SVG/1.1/DTD/svg11.dtd">
<svg version="1.1" id="Layer_1" xmlns="http://www.w3.org/2000/svg" xmlns:xlink="http://www.w3.org/1999/xlink" x="0px" y="0px"
	 width="448.746px" height="616.439px" viewBox="0 0 448.746 616.439" enable-background="new 0 0 448.746 616.439"
	 xml:space="preserve">
<rect x="0.5" y="0.5" fill="#FFFFFF" stroke="#C68D06" stroke-miterlimit="10" width="447.746" height="615.439"/>
<g>
	<path fill="#C68D06" d="M338.917,580.573c0-3.745,1.854-7.175,8.683-11.552c3.885-2.484,5.459-4.234,5.459-7.035
		c0-3.045-1.89-5.04-5.285-5.04c-2.834,0-4.899,1.47-6.439,4.48l-1.961-1.155c1.82-3.5,4.691-5.53,8.506-5.53
		c4.691,0,7.598,2.939,7.598,7.105c0,3.535-1.717,5.775-6.688,8.925c-4.689,2.977-6.965,5.775-7.141,8.122h13.932v2.24h-16.662
		L338.917,580.573L338.917,580.573z"/>
	<path fill="#C68D06" d="M363.172,568.637c0-7.98,4.201-13.896,10.151-13.896c2.87,0,4.796,0.875,6.194,1.96l-1.295,1.89
		c-1.33-1.051-2.625-1.681-4.971-1.681c-4.725,0-7.631,5.041-7.665,11.48c1.646-1.784,4.095-3.465,7.386-3.465
		c5.461,0,8.086,3.396,8.086,8.085c0,4.901-3.466,8.611-8.682,8.611C367.268,581.624,363.172,577.528,363.172,568.637z
		 M378.645,573.047c0-3.465-1.75-5.984-5.951-5.984c-2.869,0-5.426,1.609-7,3.814c0.524,6.021,3.359,8.611,6.791,8.611
		C376.193,579.488,378.645,577.144,378.645,573.047z"/>
	<path fill="#C68D06" d="M389.458,555.231h8.681c5.776,0,8.996,2.449,8.996,7c0,4.2-2.45,6.301-6.194,7.001l6.546,11.9h-2.802
		l-6.336-11.621h-6.439v11.621h-2.45L389.458,555.231L389.458,555.231z M397.963,567.307c4.271,0,6.687-1.226,6.687-4.971
		c0-3.57-2.381-4.831-6.722-4.831h-6.021v9.802H397.963z"/>
</g>
<g>
	<rect x="80.466" y="156.966" fill="#C0DDE7" width="281.738" height="7.199"/>
</g>
<g>
	<rect x="80.466" y="184.793" fill="#C0DDE7" width="281.738" height="7.2"/>
</g>
<g>
	<rect x="80.466" y="198.708" fill="#C0DDE7" width="281.738" height="7.199"/>
</g>
<g>
	<rect x="80.466" y="212.622" fill="#C0DDE7" width="281.738" height="7.199"/>
</g>
<g>
	<rect x="80.466" y="226.535" fill="#C0DDE7" width="281.738" height="7.199"/>
</g>
<g>
	<rect x="80.466" y="240.449" fill="#C0DDE7" width="281.738" height="7.199"/>
</g>
<g>
	<rect x="80.466" y="254.362" fill="#C0DDE7" width="281.738" height="7.2"/>
</g>
<g>
	<rect x="80.466" y="268.276" fill="#C0DDE7" width="281.738" height="7.199"/>
</g>
<g>
	<rect x="80.466" y="282.19" fill="#C0DDE7" width="281.738" height="7.2"/>
</g>
<g>
	<rect x="80.466" y="296.104" fill="#C0DDE7" width="281.738" height="7.2"/>
</g>
<g>
	<rect x="80.466" y="310.018" fill="#C0DDE7" width="281.738" height="7.2"/>
</g>
<g>
	<rect x="80.466" y="323.932" fill="#C0DDE7" width="281.738" height="7.199"/>
</g>
<g>
	<rect x="80.466" y="337.845" fill="#C0DDE7" width="281.738" height="7.2"/>
</g>
<g>
	<rect x="80.466" y="351.759" fill="#C0DDE7" width="281.738" height="7.201"/>
</g>
<g>
	<rect x="80.466" y="365.673" fill="#C0DDE7" width="281.738" height="7.2"/>
</g>
<g>
	<rect x="80.466" y="379.587" fill="#C0DDE7" width="281.738" height="7.199"/>
</g>
<g>
	<rect x="80.466" y="393.501" fill="#C0DDE7" width="281.738" height="7.199"/>
</g>
<g>
	<rect x="80.466" y="407.415" fill="#C0DDE7" width="281.738" height="7.199"/>
</g>
<g>
	<rect x="80.466" y="421.328" fill="#C0DDE7" width="281.738" height="7.2"/>
</g>
<g>
	<rect x="80.466" y="435.242" fill="#C0DDE7" width="281.738" height="7.201"/>
</g>
<g>
	<rect x="80.466" y="449.156" fill="#C0DDE7" width="281.738" height="7.2"/>
</g>
<g>
	<rect x="80.466" y="463.07" fill="#C0DDE7" width="281.738" height="7.198"/>
</g>
<g>
	<rect x="80.466" y="476.983" fill="#C0DDE7" width="281.738" height="7.2"/>
</g>
<g>
	<rect x="80.466" y="59.568" fill="#C0DDE7" width="281.738" height="7.2"/>
</g>
<g>
	<rect x="80.466" y="73.482" fill="#C0DDE7" width="281.738" height="7.201"/>
</g>
<g>
	<rect x="80.466" y="143.052" fill="#C0DDE7" width="281.738" height="7.2"/>
</g>
<g>
	<rect x="80.466" y="170.879" fill="#C0DDE7" width="281.738" height="7.201"/>
</g>
<g>
	<rect x="80.466" y="87.396" fill="#C0DDE7" width="281.738" height="7.199"/>
</g>
<g>
	<rect x="80.466" y="101.31" fill="#C0DDE7" width="281.738" height="7.201"/>
</g>
<g>
	<rect x="80.466" y="115.224" fill="#C0DDE7" width="281.738" height="7.199"/>
</g>
<g>
	<rect x="80.466" y="129.139" fill="#C0DDE7" width="281.738" height="7.198"/>
</g>
<polygon fill="#7C5904" points="218.64,80.683 80.57,80.683 80.57,73.483 218.64,73.483 222.789,77.084 "/>
<g>
	<g>
		<polygon fill="#7C5904" points="218.64,66.768 80.57,66.768 80.57,59.568 218.64,59.568 222.789,63.169 		"/>
	</g>
	<g>
		<polygon fill="#7C5904" points="224.03,59.568 362.102,59.568 362.102,66.768 224.03,66.768 228.18,63.169 		"/>
	</g>
</g>
<g>
	<g>
		<polygon fill="#7C5904" points="218.64,94.596 80.57,94.596 80.57,87.396 218.64,87.396 222.789,90.996 		"/>
	</g>
	<g>
		<polygon fill="#7C5904" points="224.03,87.396 362.102,87.396 362.102,94.596 224.03,94.596 228.18,90.996 		"/>
	</g>
</g>
<g>
	<polygon fill="#7C5904" points="218.64,108.511 80.57,108.511 80.57,101.312 218.64,101.312 222.789,104.91 	"/>
</g>
<g>
	<g>
		<polygon fill="#7C5904" points="218.64,122.423 80.57,122.423 80.57,115.223 218.64,115.223 222.789,118.823 		"/>
	</g>
	<g>
		<polygon fill="#7C5904" points="224.03,115.223 362.102,115.223 362.102,122.423 224.03,122.423 228.18,118.823 		"/>
	</g>
</g>
<g>
	<polygon fill="#7C5904" points="218.64,136.337 80.57,136.337 80.57,129.137 218.64,129.137 222.789,132.736 	"/>
</g>
<g>
	<path fill="#398EB0" d="M58.954,147.418h6.536c0.779,0,1.525,0.102,2.24,0.303c0.715,0.204,1.382,0.487,1.999,0.854
		c0.618,0.367,1.18,0.807,1.685,1.32c0.506,0.512,0.938,1.084,1.297,1.713c0.359,0.628,0.636,1.305,0.831,2.032
		s0.292,1.482,0.292,2.269c0,0.786-0.097,1.542-0.292,2.268c-0.195,0.727-0.472,1.405-0.831,2.038
		c-0.359,0.633-0.792,1.209-1.297,1.729c-0.505,0.521-1.066,0.966-1.685,1.337c-0.617,0.371-1.284,0.656-1.999,0.86
		c-0.715,0.201-1.461,0.303-2.24,0.303h-6.536v-3.077h1.359v-10.861h-1.359V147.418z M64.041,150.506v10.861h1.426
		c0.606,0,1.179-0.143,1.718-0.427c0.539-0.284,1.007-0.672,1.404-1.162c0.397-0.49,0.711-1.067,0.943-1.729
		c0.232-0.663,0.348-1.376,0.348-2.139c0-0.756-0.116-1.464-0.348-2.124c-0.232-0.659-0.546-1.231-0.943-1.717
		c-0.397-0.487-0.865-0.869-1.404-1.146c-0.539-0.277-1.112-0.416-1.718-0.416L64.041,150.506L64.041,150.506z"/>
</g>
<g>
	<path fill="#C63706" d="M65.299,66.818c-0.771,0-1.509-0.105-2.212-0.315c-0.704-0.209-1.361-0.504-1.971-0.886
		c-0.61-0.382-1.165-0.841-1.662-1.376c-0.498-0.535-0.923-1.13-1.275-1.785c-0.352-0.655-0.625-1.357-0.82-2.106
		c-0.195-0.748-0.292-1.531-0.292-2.348c0-0.816,0.097-1.6,0.292-2.352c0.195-0.753,0.468-1.457,0.82-2.112
		c0.352-0.655,0.777-1.251,1.275-1.787c0.498-0.535,1.052-0.993,1.662-1.375c0.61-0.381,1.267-0.677,1.971-0.887
		c0.704-0.209,1.441-0.314,2.212-0.314s1.51,0.105,2.218,0.314c0.707,0.21,1.366,0.506,1.977,0.887
		c0.61,0.383,1.164,0.841,1.662,1.375c0.498,0.536,0.924,1.131,1.28,1.787c0.355,0.655,0.63,1.358,0.825,2.112
		c0.195,0.751,0.292,1.536,0.292,2.352c0,0.81-0.097,1.589-0.292,2.342c-0.195,0.752-0.47,1.457-0.825,2.111
		c-0.356,0.655-0.783,1.25-1.28,1.785c-0.498,0.536-1.052,0.994-1.662,1.376c-0.61,0.381-1.27,0.677-1.977,0.886
		C66.809,66.713,66.07,66.818,65.299,66.818z M65.299,63.292c0.651,0,1.249-0.14,1.792-0.422c0.542-0.28,1.009-0.662,1.398-1.145
		c0.389-0.482,0.691-1.044,0.904-1.685c0.214-0.64,0.32-1.319,0.32-2.039c0-0.726-0.108-1.411-0.326-2.055
		c-0.217-0.644-0.522-1.207-0.916-1.689c-0.393-0.483-0.859-0.865-1.398-1.145c-0.539-0.282-1.13-0.421-1.774-0.421
		s-1.235,0.14-1.774,0.421c-0.539,0.28-1.003,0.662-1.393,1.145c-0.389,0.482-0.694,1.046-0.916,1.689
		c-0.221,0.645-0.331,1.33-0.331,2.055c0,0.719,0.11,1.399,0.331,2.039c0.221,0.641,0.526,1.203,0.916,1.685
		c0.389,0.483,0.854,0.865,1.393,1.145C64.063,63.152,64.655,63.292,65.299,63.292z"/>
</g>
<g>
	<rect x="80.466" y="156.966" fill="#C0DDE7" width="281.738" height="7.2"/>
</g>
<g>
	<g>
		<polygon fill="#7C5904" points="218.64,178.08 80.57,178.08 80.57,170.88 218.64,170.88 222.789,174.48 		"/>
	</g>
	<g>
		<polygon fill="#7C5904" points="224.03,170.88 362.102,170.88 362.102,178.08 224.03,178.08 228.18,174.48 		"/>
	</g>
</g>
<g>
	<g>
		<polygon fill="#7C5904" points="218.64,164.165 80.57,164.165 80.57,156.966 218.64,156.966 222.789,160.566 		"/>
	</g>
	<g>
		<polygon fill="#7C5904" points="224.03,156.966 362.102,156.966 362.102,164.165 224.03,164.165 228.18,160.566 		"/>
	</g>
</g>
<g>
	<g>
		<polygon fill="#7C5904" points="218.64,247.648 80.57,247.648 80.57,240.449 218.64,240.449 222.789,244.048 		"/>
	</g>
	<g>
		<polygon fill="#7C5904" points="224.03,240.449 362.102,240.449 362.102,247.648 224.03,247.648 228.18,244.048 		"/>
	</g>
</g>
<g>
	<g>
		<polygon fill="#7C5904" points="218.64,191.994 80.57,191.994 80.57,184.794 218.64,184.794 222.789,188.394 		"/>
	</g>
	<g>
		<polygon fill="#7C5904" points="224.03,184.794 362.102,184.794 362.102,191.994 224.03,191.994 228.18,188.394 		"/>
	</g>
</g>
<g>
	<g>
		<polygon fill="#7C5904" points="218.64,205.908 80.57,205.908 80.57,198.708 218.64,198.708 222.789,202.307 		"/>
	</g>
	<g>
		<polygon fill="#7C5904" points="224.03,198.708 362.102,198.708 362.102,205.908 224.03,205.908 228.18,202.307 		"/>
	</g>
</g>
<g>
	<g>
		<polygon fill="#7C5904" points="218.64,219.821 80.57,219.821 80.57,212.622 218.64,212.622 222.789,216.221 		"/>
	</g>
	<g>
		<polygon fill="#7C5904" points="224.03,212.622 362.102,212.622 362.102,219.821 224.03,219.821 228.18,216.221 		"/>
	</g>
</g>
<g>
	<g>
		<polygon fill="#7C5904" points="218.64,233.736 80.57,233.736 80.57,226.536 218.64,226.536 222.789,230.135 		"/>
	</g>
	<g>
		<polygon fill="#7C5904" points="224.03,226.536 362.102,226.536 362.102,233.736 224.03,233.736 228.18,230.135 		"/>
	</g>
</g>
<g>
	<g>
		<polygon fill="#7C5904" points="218.64,289.564 80.57,289.564 80.57,282.364 218.64,282.364 222.789,285.963 		"/>
	</g>
	<g>
		<polygon fill="#7C5904" points="224.03,282.364 362.102,282.364 362.102,289.564 224.03,289.564 228.18,285.963 		"/>
	</g>
</g>
<g>
	<g>
		<polygon fill="#7C5904" points="218.64,275.476 80.57,275.476 80.57,268.277 218.64,268.277 222.789,271.876 		"/>
	</g>
	<g>
		<polygon fill="#7C5904" points="224.03,268.277 362.102,268.277 362.102,275.476 224.03,275.476 228.18,271.876 		"/>
	</g>
</g>
<g>
	<g>
		<polygon fill="#7C5904" points="218.64,359.233 80.57,359.233 80.57,352.035 218.64,352.035 222.789,355.634 		"/>
	</g>
	<g>
		<polygon fill="#7C5904" points="224.03,352.035 362.102,352.035 362.102,359.233 224.03,359.233 228.18,355.634 		"/>
	</g>
</g>
<g>
	<g>
		<polygon fill="#7C5904" points="218.64,303.498 80.57,303.498 80.57,296.298 218.64,296.298 222.789,299.898 		"/>
	</g>
	<g>
		<polygon fill="#7C5904" points="224.03,296.298 362.102,296.298 362.102,303.498 224.03,303.498 228.18,299.898 		"/>
	</g>
</g>
<g>
	<g>
		<polygon fill="#7C5904" points="218.64,317.431 80.57,317.431 80.57,310.232 218.64,310.232 222.789,313.831 		"/>
	</g>
	<g>
		<polygon fill="#7C5904" points="224.03,310.232 362.102,310.232 362.102,317.431 224.03,317.431 228.18,313.831 		"/>
	</g>
</g>
<g>
	<g>
		<polygon fill="#7C5904" points="218.64,331.366 80.57,331.366 80.57,324.166 218.64,324.166 222.789,327.766 		"/>
	</g>
	<g>
		<polygon fill="#7C5904" points="224.03,324.166 362.102,324.166 362.102,331.366 224.03,331.366 228.18,327.766 		"/>
	</g>
</g>
<g>
	<g>
		<polygon fill="#7C5904" points="218.64,345.301 80.57,345.301 80.57,338.1 218.64,338.1 222.789,341.7 		"/>
	</g>
	<g>
		<polygon fill="#7C5904" points="224.03,338.1 362.102,338.1 362.102,345.301 224.03,345.301 228.18,341.7 		"/>
	</g>
</g>
<g>
	<g>
		<polygon fill="#7C5904" points="218.64,400.564 80.57,400.564 80.57,393.364 218.64,393.364 222.789,396.963 		"/>
	</g>
	<g>
		<polygon fill="#7C5904" points="224.03,393.364 362.102,393.364 362.102,400.564 224.03,400.564 228.18,396.963 		"/>
	</g>
</g>
<g>
	<g>
		<polygon fill="#7C5904" points="218.64,386.788 80.57,386.788 80.57,379.588 218.64,379.588 222.789,383.188 		"/>
	</g>
	<g>
		<polygon fill="#7C5904" points="224.03,379.588 362.102,379.588 362.102,386.788 224.03,386.788 228.18,383.188 		"/>
	</g>
</g>
<g>
	<g>
		<polygon fill="#7C5904" points="218.64,414.498 80.57,414.498 80.57,407.298 218.64,407.298 222.789,410.898 		"/>
	</g>
	<g>
		<polygon fill="#7C5904" points="224.03,407.298 362.102,407.298 362.102,414.498 224.03,414.498 228.18,410.898 		"/>
	</g>
</g>
<g>
	<g>
		<polygon fill="#7C5904" points="218.64,428.431 80.57,428.431 80.57,421.232 218.64,421.232 222.789,424.831 		"/>
	</g>
	<g>
		<polygon fill="#7C5904" points="224.03,421.232 362.102,421.232 362.102,428.431 224.03,428.431 228.18,424.831 		"/>
	</g>
</g>
<g>
	<g>
		<polygon fill="#7C5904" points="218.64,442.366 80.57,442.366 80.57,435.166 218.64,435.166 222.789,438.766 		"/>
	</g>
	<g>
		<polygon fill="#7C5904" points="224.03,435.166 362.102,435.166 362.102,442.366 224.03,442.366 228.18,438.766 		"/>
	</g>
</g>
<g>
	<g>
		<polygon fill="#7C5904" points="218.64,456.301 80.57,456.301 80.57,449.1 218.64,449.1 222.789,452.7 		"/>
	</g>
	<g>
		<polygon fill="#7C5904" points="224.03,449.1 362.102,449.1 362.102,456.301 224.03,456.301 228.18,452.7 		"/>
	</g>
</g>
<g>
	<g>
		<polygon fill="#7C5904" points="218.64,470.269 80.57,470.269 80.57,463.069 218.64,463.069 222.789,466.669 		"/>
	</g>
	<g>
		<polygon fill="#7C5904" points="224.03,463.069 362.102,463.069 362.102,470.269 224.03,470.269 228.18,466.669 		"/>
	</g>
</g>
<g>
	<path fill="#398EB0" d="M67.803,384.024h1.696l-0.764-2.448h-5.233l-0.764,2.448h1.797v3.077h-6.458v-3.077h1.269l4.638-13.948
		h4.503l4.537,13.948h1.235v3.077h-6.458v-3.077H67.803z M64.389,378.701h3.437l-1.729-5.538L64.389,378.701z"/>
</g>
<g>
	<path fill="#C63706" d="M63.569,275.488c-0.958-0.195-1.844-0.552-2.656-1.073c-0.812-0.52-1.517-1.163-2.111-1.926
		c-0.596-0.764-1.06-1.627-1.393-2.589c-0.333-0.961-0.5-1.983-0.5-3.061c0-0.816,0.097-1.601,0.292-2.352
		c0.195-0.753,0.468-1.457,0.82-2.112c0.352-0.655,0.777-1.25,1.275-1.786c0.498-0.535,1.052-0.993,1.662-1.376
		c0.61-0.38,1.267-0.677,1.971-0.887c0.704-0.21,1.441-0.314,2.212-0.314s1.51,0.104,2.218,0.314
		c0.707,0.21,1.366,0.506,1.977,0.887c0.61,0.383,1.164,0.841,1.662,1.376c0.498,0.536,0.924,1.131,1.28,1.786
		c0.355,0.655,0.63,1.358,0.825,2.112c0.195,0.751,0.292,1.536,0.292,2.352c0,1.093-0.172,2.126-0.517,3.1
		c-0.344,0.974-0.822,1.846-1.432,2.616c-0.61,0.771-1.335,1.416-2.173,1.932c-0.838,0.517-1.748,0.861-2.729,1.033
		c0.232,0.098,0.462,0.205,0.69,0.32c0.229,0.116,0.459,0.225,0.691,0.327c0.232,0.1,0.462,0.186,0.691,0.257
		c0.228,0.072,0.462,0.11,0.702,0.118c0.232,0,0.458-0.03,0.679-0.089c0.221-0.06,0.421-0.153,0.601-0.28
		c0.18-0.128,0.335-0.293,0.466-0.494c0.131-0.203,0.219-0.449,0.264-0.742l2.504,1.247c-0.067,0.547-0.223,1.042-0.466,1.482
		c-0.243,0.442-0.556,0.819-0.938,1.134c-0.382,0.314-0.816,0.558-1.303,0.73c-0.487,0.172-1.003,0.258-1.55,0.258
		c-0.442,0-0.885-0.084-1.331-0.252c-0.445-0.169-0.876-0.353-1.291-0.551c-0.416-0.198-0.807-0.382-1.174-0.55
		c-0.367-0.168-0.689-0.252-0.966-0.252c-0.12,0-0.227-0.002-0.32-0.006c-0.093-0.004-0.185-0.004-0.275,0
		c-0.09,0.004-0.189,0.016-0.297,0.034c-0.109,0.019-0.234,0.054-0.376,0.107L63.569,275.488z M65.142,272.13
		c0.651,0,1.249-0.141,1.792-0.422c0.542-0.28,1.009-0.663,1.398-1.145s0.691-1.044,0.904-1.686c0.214-0.639,0.32-1.318,0.32-2.038
		c0-0.727-0.108-1.411-0.326-2.055c-0.217-0.644-0.522-1.208-0.916-1.69c-0.393-0.483-0.859-0.865-1.398-1.146
		c-0.539-0.282-1.13-0.421-1.774-0.421s-1.235,0.139-1.774,0.421c-0.539,0.28-1.003,0.663-1.393,1.146
		c-0.389,0.482-0.694,1.046-0.916,1.69c-0.221,0.644-0.331,1.329-0.331,2.055c0,0.719,0.11,1.398,0.331,2.038
		c0.221,0.642,0.526,1.203,0.916,1.686s0.854,0.865,1.393,1.145C63.906,271.99,64.498,272.13,65.142,272.13z"/>
</g>
</svg>
