<?xml version="1.0" encoding="utf-8"?>
<!-- Generator: Adobe Illustrator 16.0.4, SVG Export Plug-In . SVG Version: 6.00 Build 0)  -->
<!DOCTYPE svg PUBLIC "-//W3C//DTD SVG 1.1//EN" "http://www.w3.org/Graphics/SVG/1.1/DTD/svg11.dtd">
<svg version="1.1" id="Layer_1" xmlns="http://www.w3.org/2000/svg" xmlns:xlink="http://www.w3.org/1999/xlink" x="0px" y="0px"
	 width="448.747px" height="616.44px" viewBox="0 0 448.747 616.44" enable-background="new 0 0 448.747 616.44"
	 xml:space="preserve">
<rect x="0.5" y="0.5" fill="#FFFFFF" stroke="#C68D06" stroke-miterlimit="10" width="447.747" height="615.44"/>
<g>
	<path fill="#C68D06" d="M343.615,579.822c0-3.745,1.855-7.174,8.682-11.55c3.885-2.486,5.46-4.236,5.46-7.036
		c0-3.045-1.89-5.04-5.285-5.04c-2.835,0-4.9,1.47-6.44,4.48l-1.961-1.155c1.82-3.5,4.691-5.531,8.506-5.531
		c4.691,0,7.597,2.941,7.597,7.106c0,3.535-1.716,5.776-6.687,8.926c-4.69,2.976-6.965,5.776-7.141,8.121h13.932v2.24h-16.662
		V579.822z"/>
	<path fill="#C68D06" d="M380.473,556.755h-13.337v-2.274h15.927v2.135l-10.956,23.768h-2.556L380.473,556.755z"/>
	<path fill="#C68D06" d="M389.36,554.48h2.556l7.735,22.613h0.07l7.771-22.613h2.416l-9.102,26.008h-2.345L389.36,554.48z"/>
</g>
<g>
	<rect x="79.884" y="158.719" fill="#C0DDE7" width="281.739" height="7.199"/>
</g>
<g>
	<rect x="79.884" y="172.633" fill="#C0DDE7" width="281.738" height="7.199"/>
</g>
<g>
	<rect x="79.875" y="186.547" fill="#C0DDE7" width="281.739" height="7.2"/>
</g>
<g>
	<rect x="79.884" y="200.46" fill="#C0DDE7" width="281.739" height="7.199"/>
</g>
<g>
	<rect x="79.884" y="214.374" fill="#C0DDE7" width="281.739" height="7.199"/>
</g>
<g>
	<rect x="79.884" y="228.287" fill="#C0DDE7" width="281.739" height="7.2"/>
</g>
<g>
	<rect x="79.884" y="242.202" fill="#C0DDE7" width="281.738" height="7.2"/>
</g>
<g>
	<rect x="79.884" y="256.115" fill="#C0DDE7" width="281.738" height="7.201"/>
</g>
<g>
	<rect x="79.884" y="270.029" fill="#C0DDE7" width="281.739" height="7.199"/>
</g>
<g>
	<rect x="79.884" y="283.943" fill="#C0DDE7" width="281.738" height="7.2"/>
</g>
<g>
	<rect x="79.884" y="297.856" fill="#C0DDE7" width="281.739" height="7.201"/>
</g>
<g>
	<rect x="79.884" y="311.771" fill="#C0DDE7" width="281.739" height="7.2"/>
</g>
<g>
	<rect x="79.884" y="325.686" fill="#C0DDE7" width="281.739" height="7.199"/>
</g>
<g>
	<rect x="79.884" y="339.599" fill="#C0DDE7" width="281.738" height="7.2"/>
</g>
<g>
	<rect x="79.884" y="353.512" fill="#C0DDE7" width="281.739" height="7.2"/>
</g>
<g>
	<rect x="79.884" y="367.426" fill="#C0DDE7" width="281.739" height="7.2"/>
</g>
<g>
	<rect x="79.884" y="381.341" fill="#C0DDE7" width="281.739" height="7.198"/>
</g>
<g>
	<rect x="79.884" y="395.254" fill="#C0DDE7" width="281.739" height="7.199"/>
</g>
<g>
	<rect x="79.884" y="409.168" fill="#C0DDE7" width="281.738" height="7.199"/>
</g>
<g>
	<rect x="79.884" y="423.082" fill="#C0DDE7" width="281.739" height="7.2"/>
</g>
<g>
	<rect x="79.884" y="436.995" fill="#C0DDE7" width="281.738" height="7.2"/>
</g>
<g>
	<rect x="79.884" y="450.909" fill="#C0DDE7" width="281.739" height="7.199"/>
</g>
<g>
	<rect x="79.884" y="464.823" fill="#C0DDE7" width="281.738" height="7.199"/>
</g>
<g>
	<rect x="79.884" y="478.736" fill="#C0DDE7" width="281.739" height="7.2"/>
</g>
<g>
	<rect x="79.884" y="61.321" fill="#C0DDE7" width="281.739" height="7.2"/>
</g>
<g>
	<rect x="79.884" y="75.235" fill="#C0DDE7" width="281.738" height="7.2"/>
</g>
<g>
	<rect x="79.884" y="144.805" fill="#C0DDE7" width="281.738" height="7.199"/>
</g>
<g>
	<rect x="79.884" y="89.15" fill="#C0DDE7" width="281.739" height="7.199"/>
</g>
<g>
	<rect x="79.884" y="103.064" fill="#C0DDE7" width="281.738" height="7.2"/>
</g>
<g>
	<rect x="79.884" y="116.978" fill="#C0DDE7" width="281.738" height="7.199"/>
</g>
<g>
	<rect x="79.884" y="130.892" fill="#C0DDE7" width="281.738" height="7.199"/>
</g>
<g>
	<g>
		<polygon fill="#7C5904" points="218.058,152.004 79.987,152.004 79.987,144.805 218.058,144.805 222.206,148.405 		"/>
	</g>
	<g>
		<polygon fill="#7C5904" points="223.448,144.805 361.519,144.805 361.519,152.004 223.448,152.004 227.596,148.405 		"/>
	</g>
</g>
<g>
	<g>
		<polygon fill="#7C5904" points="218.058,165.918 79.987,165.918 79.987,158.719 218.058,158.719 222.206,162.319 		"/>
	</g>
	<g>
		<polygon fill="#7C5904" points="223.448,158.719 361.519,158.719 361.519,165.918 223.448,165.918 227.596,162.319 		"/>
	</g>
</g>
<g>
	<g>
		<polygon fill="#7C5904" points="218.058,96.35 79.987,96.35 79.987,89.15 218.058,89.15 222.206,92.75 		"/>
	</g>
	<g>
		<polygon fill="#7C5904" points="223.448,89.15 361.519,89.15 361.519,96.35 223.448,96.35 227.596,92.75 		"/>
	</g>
</g>
<g>
	<g>
		<polygon fill="#7C5904" points="218.058,82.435 79.987,82.435 79.987,75.235 218.058,75.235 222.206,78.834 		"/>
	</g>
	<g>
		<polygon fill="#7C5904" points="223.448,75.235 361.519,75.235 361.519,82.435 223.448,82.435 227.596,78.834 		"/>
	</g>
</g>
<g>
	<g>
		<polygon fill="#7C5904" points="218.058,110.264 79.987,110.264 79.987,103.064 218.058,103.064 222.206,106.664 		"/>
	</g>
	<g>
		<polygon fill="#7C5904" points="223.448,103.064 361.519,103.064 361.519,110.264 223.448,110.264 227.596,106.664 		"/>
	</g>
</g>
<g>
	<g>
		<polygon fill="#7C5904" points="218.058,124.177 79.987,124.177 79.987,116.978 218.058,116.978 222.206,120.577 		"/>
	</g>
	<g>
		<polygon fill="#7C5904" points="223.448,116.978 361.519,116.978 361.519,124.177 223.448,124.177 227.596,120.577 		"/>
	</g>
</g>
<g>
	<g>
		<polygon fill="#7C5904" points="218.058,138.091 79.987,138.091 79.987,130.891 218.058,130.891 222.206,134.49 		"/>
	</g>
	<g>
		<polygon fill="#7C5904" points="223.448,130.891 361.519,130.891 361.519,138.091 223.448,138.091 227.596,134.49 		"/>
	</g>
</g>
<g>
	<g>
		<polygon fill="#7C5904" points="218.058,193.746 79.987,193.746 79.987,186.546 218.058,186.546 222.206,190.146 		"/>
	</g>
	<g>
		<polygon fill="#7C5904" points="223.448,186.546 361.519,186.546 361.519,193.746 223.448,193.746 227.596,190.146 		"/>
	</g>
</g>
<g>
	<g>
		<polygon fill="#7C5904" points="218.058,179.832 79.987,179.832 79.987,172.633 218.058,172.633 222.206,176.232 		"/>
	</g>
	<g>
		<polygon fill="#7C5904" points="223.448,172.633 361.519,172.633 361.519,179.832 223.448,179.832 227.596,176.232 		"/>
	</g>
</g>
<g>
	<g>
		<polygon fill="#7C5904" points="218.058,207.659 79.987,207.659 79.987,200.46 218.058,200.46 222.206,204.059 		"/>
	</g>
	<g>
		<polygon fill="#7C5904" points="223.448,200.46 361.519,200.46 361.519,207.659 223.448,207.659 227.596,204.059 		"/>
	</g>
</g>
<g>
	<g>
		<polygon fill="#7C5904" points="218.058,235.486 79.987,235.486 79.987,228.287 218.058,228.287 222.206,231.886 		"/>
	</g>
	<g>
		<polygon fill="#7C5904" points="223.448,228.287 361.519,228.287 361.519,235.486 223.448,235.486 227.596,231.886 		"/>
	</g>
</g>
<g>
	<g>
		<polygon fill="#7C5904" points="218.162,221.573 80.091,221.573 80.091,214.374 218.162,214.374 222.31,217.974 		"/>
	</g>
	<g>
		<polygon fill="#7C5904" points="223.552,214.374 361.623,214.374 361.623,221.573 223.552,221.573 227.7,217.974 		"/>
	</g>
</g>
<g>
	<g>
		<polygon fill="#7C5904" points="218.058,249.401 79.987,249.401 79.987,242.202 218.058,242.202 222.206,245.801 		"/>
	</g>
	<g>
		<polygon fill="#7C5904" points="223.448,242.202 361.519,242.202 361.519,249.401 223.448,249.401 227.596,245.801 		"/>
	</g>
</g>
<g>
	<g>
		<polygon fill="#7C5904" points="218.058,263.314 79.987,263.314 79.987,256.115 218.058,256.115 222.206,259.714 		"/>
	</g>
	<g>
		<polygon fill="#7C5904" points="223.448,256.115 361.519,256.115 361.519,263.314 223.448,263.314 227.596,259.714 		"/>
	</g>
</g>
<g>
	<g>
		<polygon fill="#7C5904" points="218.058,277.229 79.987,277.229 79.987,270.029 218.058,270.029 222.206,273.629 		"/>
	</g>
	<g>
		<polygon fill="#7C5904" points="223.448,270.029 361.519,270.029 361.519,277.229 223.448,277.229 227.596,273.629 		"/>
	</g>
</g>
<g>
	<g>
		<polygon fill="#7C5904" points="217.954,291.143 79.884,291.143 79.884,283.943 217.954,283.943 222.103,287.543 		"/>
	</g>
	<g>
		<polygon fill="#7C5904" points="223.345,283.943 361.415,283.943 361.415,291.143 223.345,291.143 227.492,287.543 		"/>
	</g>
</g>
<g>
	<g>
		<polygon fill="#7C5904" points="217.954,305.057 79.884,305.057 79.884,297.857 217.954,297.857 222.103,301.458 		"/>
	</g>
	<g>
		<polygon fill="#7C5904" points="223.345,297.857 361.415,297.857 361.415,305.057 223.345,305.057 227.492,301.458 		"/>
	</g>
</g>
<g>
	<g>
		<polygon fill="#7C5904" points="217.954,374.626 79.884,374.626 79.884,367.426 217.954,367.426 222.103,371.025 		"/>
	</g>
	<g>
		<polygon fill="#7C5904" points="223.345,367.426 361.415,367.426 361.415,374.626 223.345,374.626 227.492,371.025 		"/>
	</g>
</g>
<g>
	<g>
		<polygon fill="#7C5904" points="217.954,388.539 79.884,388.539 79.884,381.339 217.954,381.339 222.103,384.938 		"/>
	</g>
	<g>
		<polygon fill="#7C5904" points="223.345,381.339 361.415,381.339 361.415,388.539 223.345,388.539 227.492,384.938 		"/>
	</g>
</g>
<g>
	<g>
		<polygon fill="#7C5904" points="217.954,318.97 79.884,318.97 79.884,311.771 217.954,311.771 222.103,315.37 		"/>
	</g>
	<g>
		<polygon fill="#7C5904" points="223.345,311.771 361.415,311.771 361.415,318.97 223.345,318.97 227.492,315.37 		"/>
	</g>
</g>
<g>
	<g>
		<polygon fill="#7C5904" points="217.954,332.885 79.884,332.885 79.884,325.686 217.954,325.686 222.103,329.284 		"/>
	</g>
	<g>
		<polygon fill="#7C5904" points="223.345,325.686 361.415,325.686 361.415,332.885 223.345,332.885 227.492,329.284 		"/>
	</g>
</g>
<g>
	<g>
		<polygon fill="#7C5904" points="217.954,346.798 79.884,346.798 79.884,339.598 217.954,339.598 222.103,343.197 		"/>
	</g>
	<g>
		<polygon fill="#7C5904" points="223.345,339.598 361.415,339.598 361.415,346.798 223.345,346.798 227.492,343.197 		"/>
	</g>
</g>
<g>
	<g>
		<polygon fill="#7C5904" points="217.954,360.712 79.884,360.712 79.884,353.512 217.954,353.512 222.103,357.111 		"/>
	</g>
	<g>
		<polygon fill="#7C5904" points="223.345,353.512 361.415,353.512 361.415,360.712 223.345,360.712 227.492,357.111 		"/>
	</g>
</g>
<g>
	<g>
		<g>
			<polygon fill="#7C5904" points="217.954,402.454 79.884,402.454 79.884,395.255 217.954,395.255 222.103,398.854 			"/>
		</g>
		<g>
			<polygon fill="#7C5904" points="223.345,395.255 361.415,395.255 361.415,402.454 223.345,402.454 227.492,398.854 			"/>
		</g>
	</g>
	<g>
		<g>
			<polygon fill="#7C5904" points="217.954,416.368 79.884,416.368 79.884,409.169 217.954,409.169 222.103,412.769 			"/>
		</g>
		<g>
			<polygon fill="#7C5904" points="223.345,409.169 361.415,409.169 361.415,416.368 223.345,416.368 227.492,412.769 			"/>
		</g>
	</g>
	<g>
		<g>
			<polygon fill="#7C5904" points="217.954,485.937 79.884,485.937 79.884,478.737 217.954,478.737 222.103,482.337 			"/>
		</g>
		<g>
			<polygon fill="#7C5904" points="223.345,478.737 361.415,478.737 361.415,485.937 223.345,485.937 227.492,482.337 			"/>
		</g>
	</g>
	<g>
		<g>
			<polygon fill="#7C5904" points="217.954,430.281 79.884,430.281 79.884,423.082 217.954,423.082 222.103,426.682 			"/>
		</g>
		<g>
			<polygon fill="#7C5904" points="223.345,423.082 361.415,423.082 361.415,430.281 223.345,430.281 227.492,426.682 			"/>
		</g>
	</g>
	<g>
		<g>
			<polygon fill="#7C5904" points="217.954,444.197 79.884,444.197 79.884,436.998 217.954,436.998 222.103,440.596 			"/>
		</g>
		<g>
			<polygon fill="#7C5904" points="223.345,436.998 361.415,436.998 361.415,444.197 223.345,444.197 227.492,440.596 			"/>
		</g>
	</g>
	<g>
		<g>
			<polygon fill="#7C5904" points="217.954,458.109 79.884,458.109 79.884,450.909 217.954,450.909 222.103,454.509 			"/>
		</g>
		<g>
			<polygon fill="#7C5904" points="223.345,450.909 361.415,450.909 361.415,458.109 223.345,458.109 227.492,454.509 			"/>
		</g>
	</g>
	<g>
		<g>
			<polygon fill="#7C5904" points="217.954,472.024 79.884,472.024 79.884,464.823 217.954,464.823 222.103,468.423 			"/>
		</g>
		<g>
			<polygon fill="#7C5904" points="223.345,464.823 361.415,464.823 361.415,472.024 223.345,472.024 227.492,468.423 			"/>
		</g>
	</g>
</g>
<g>
	<path fill="#C63706" d="M70.495,120.505c-0.451-0.123-0.876-0.305-1.274-0.545s-0.747-0.537-1.046-0.893
		c-0.299-0.353-0.536-0.764-0.712-1.23c-0.176-0.465-0.264-0.988-0.264-1.568c0-0.615,0.123-1.191,0.369-1.727
		c0.246-0.537,0.595-1.004,1.046-1.402s0.996-0.712,1.635-0.94c0.639-0.228,1.351-0.343,2.136-0.343h6.012v2.417h-1.239v14.089
		h-2.575v-14.089H73.07v14.089h-2.575V120.505z"/>
</g>
<g>
	<path fill="#398EB0" d="M70.495,217.88c-0.451-0.123-0.876-0.305-1.274-0.545s-0.747-0.537-1.046-0.893
		c-0.299-0.354-0.536-0.764-0.712-1.23c-0.176-0.465-0.264-0.988-0.264-1.568c0-0.615,0.123-1.191,0.369-1.726
		c0.246-0.538,0.595-1.004,1.046-1.402c0.451-0.399,0.996-0.712,1.635-0.941s1.351-0.342,2.136-0.342h6.012v2.417h-1.239v14.089
		h-2.575v-14.089H73.07v14.089h-2.575V217.88z"/>
</g>
<g>
	<path fill="#C63706" d="M70.495,315.88c-0.451-0.123-0.876-0.305-1.274-0.545s-0.747-0.537-1.046-0.893
		c-0.299-0.354-0.536-0.764-0.712-1.23c-0.176-0.465-0.264-0.988-0.264-1.568c0-0.615,0.123-1.191,0.369-1.726
		c0.246-0.538,0.595-1.004,1.046-1.402c0.451-0.399,0.996-0.712,1.635-0.941s1.351-0.342,2.136-0.342h6.012v2.417h-1.239v14.089
		h-2.575v-14.089H73.07v14.089h-2.575V315.88z"/>
</g>
<g>
	<path fill="#398EB0" d="M70.495,413.382c-0.451-0.124-0.876-0.305-1.274-0.545s-0.747-0.537-1.046-0.893
		c-0.299-0.354-0.536-0.764-0.712-1.23c-0.176-0.465-0.264-0.989-0.264-1.569c0-0.615,0.123-1.191,0.369-1.727
		c0.246-0.537,0.595-1.004,1.046-1.402s0.996-0.711,1.635-0.94c0.639-0.229,1.351-0.343,2.136-0.343h6.012v2.417h-1.239v14.089
		h-2.575V407.15H73.07v14.089h-2.575V413.382z"/>
</g>
<g>
	<g>
		<polygon fill="#7C5904" points="223.345,61.321 361.416,61.321 361.416,68.521 223.345,68.521 227.492,64.921 		"/>
	</g>
	<g>
		<polygon fill="#7C5904" points="222.103,64.921 217.955,61.321 217.955,61.321 217.954,61.321 79.884,61.321 84.032,64.921 
			79.884,68.521 217.954,68.521 217.955,68.521 217.955,68.52 		"/>
	</g>
</g>
</svg>
