<?xml version="1.0" encoding="utf-8"?>
<!-- Generator: Adobe Illustrator 16.0.4, SVG Export Plug-In . SVG Version: 6.00 Build 0)  -->
<!DOCTYPE svg PUBLIC "-//W3C//DTD SVG 1.1//EN" "http://www.w3.org/Graphics/SVG/1.1/DTD/svg11.dtd">
<svg version="1.1" id="Layer_1" xmlns="http://www.w3.org/2000/svg" xmlns:xlink="http://www.w3.org/1999/xlink" x="0px" y="0px"
	 width="448.746px" height="616.439px" viewBox="0 0 448.746 616.439" enable-background="new 0 0 448.746 616.439"
	 xml:space="preserve">
<rect x="0.5" y="0.5" fill="#FFFFFF" stroke="#C68D06" stroke-miterlimit="10" width="447.746" height="615.439"/>
<g>
	<path fill="#C68D06" d="M341.398,581.573c0-3.745,1.854-7.175,8.681-11.551c3.885-2.485,5.46-4.235,5.46-7.036
		c0-3.045-1.89-5.04-5.285-5.04c-2.835,0-4.9,1.47-6.44,4.481l-1.961-1.155c1.82-3.5,4.691-5.531,8.507-5.531
		c4.69,0,7.596,2.94,7.596,7.106c0,3.535-1.716,5.775-6.687,8.925c-4.69,2.976-6.965,5.775-7.141,8.122h13.932v2.24h-16.661V581.573
		z"/>
	<path fill="#C68D06" d="M378.254,558.506h-13.337v-2.274h15.927v2.135l-10.956,23.768h-2.556L378.254,558.506z"/>
	<path fill="#C68D06" d="M389.208,556.231h8.681c5.776,0,8.996,2.45,8.996,7c0,4.201-2.45,6.301-6.195,7.001l6.546,11.901h-2.801
		l-6.336-11.621h-6.44v11.621h-2.45V556.231z M397.713,568.308c4.271,0,6.686-1.226,6.686-4.971c0-3.57-2.38-4.831-6.721-4.831
		h-6.021v9.802H397.713z"/>
</g>
<g>
	<rect x="80.217" y="157.966" fill="#C0DDE7" width="281.738" height="7.199"/>
</g>
<g>
	<rect x="80.217" y="171.88" fill="#C0DDE7" width="281.738" height="7.199"/>
</g>
<g>
	<rect x="80.217" y="185.793" fill="#C0DDE7" width="281.738" height="7.2"/>
</g>
<g>
	<rect x="80.217" y="199.708" fill="#C0DDE7" width="281.738" height="7.199"/>
</g>
<g>
	<rect x="80.217" y="213.622" fill="#C0DDE7" width="281.738" height="7.199"/>
</g>
<g>
	<rect x="80.217" y="227.536" fill="#C0DDE7" width="281.738" height="7.199"/>
</g>
<g>
	<rect x="80.217" y="241.449" fill="#C0DDE7" width="281.738" height="7.199"/>
</g>
<g>
	<rect x="80.217" y="255.362" fill="#C0DDE7" width="281.738" height="7.2"/>
</g>
<g>
	<rect x="80.217" y="269.277" fill="#C0DDE7" width="281.738" height="7.199"/>
</g>
<g>
	<rect x="80.217" y="283.19" fill="#C0DDE7" width="281.738" height="7.2"/>
</g>
<g>
	<rect x="80.217" y="297.104" fill="#C0DDE7" width="281.738" height="7.2"/>
</g>
<g>
	<rect x="80.217" y="311.018" fill="#C0DDE7" width="281.738" height="7.2"/>
</g>
<g>
	<rect x="80.217" y="324.932" fill="#C0DDE7" width="281.738" height="7.199"/>
</g>
<g>
	<rect x="80.217" y="338.846" fill="#C0DDE7" width="281.738" height="7.2"/>
</g>
<g>
	<rect x="80.217" y="352.759" fill="#C0DDE7" width="281.738" height="7.201"/>
</g>
<g>
	<rect x="80.217" y="366.673" fill="#C0DDE7" width="281.738" height="7.2"/>
</g>
<g>
	<rect x="80.217" y="380.587" fill="#C0DDE7" width="281.738" height="7.199"/>
</g>
<g>
	<rect x="80.217" y="394.501" fill="#C0DDE7" width="281.738" height="7.199"/>
</g>
<g>
	<rect x="80.217" y="408.415" fill="#C0DDE7" width="281.738" height="7.199"/>
</g>
<g>
	<rect x="80.217" y="422.329" fill="#C0DDE7" width="281.738" height="7.2"/>
</g>
<g>
	<rect x="80.217" y="436.242" fill="#C0DDE7" width="281.738" height="7.2"/>
</g>
<g>
	<rect x="80.217" y="450.157" fill="#C0DDE7" width="281.738" height="7.2"/>
</g>
<g>
	<rect x="80.217" y="464.07" fill="#C0DDE7" width="281.738" height="7.199"/>
</g>
<g>
	<rect x="80.217" y="477.984" fill="#C0DDE7" width="281.738" height="7.2"/>
</g>
<g>
	<rect x="80.217" y="60.569" fill="#C0DDE7" width="281.738" height="7.2"/>
</g>
<g>
	<rect x="80.217" y="74.483" fill="#C0DDE7" width="281.738" height="7.201"/>
</g>
<g>
	<rect x="80.217" y="144.052" fill="#C0DDE7" width="281.738" height="7.2"/>
</g>
<g>
	<rect x="80.217" y="88.397" fill="#C0DDE7" width="281.738" height="7.199"/>
</g>
<g>
	<rect x="80.217" y="102.311" fill="#C0DDE7" width="281.738" height="7.201"/>
</g>
<g>
	<rect x="80.217" y="116.225" fill="#C0DDE7" width="281.738" height="7.199"/>
</g>
<g>
	<rect x="80.217" y="130.139" fill="#C0DDE7" width="281.738" height="7.198"/>
</g>
<g>
	<path fill="#C63706" d="M69.238,57.837c-0.419-0.599-0.797-1.024-1.134-1.275c-0.337-0.25-0.7-0.431-1.089-0.539
		s-0.797-0.162-1.224-0.162c-0.629,0-1.213,0.14-1.752,0.421c-0.539,0.28-1.005,0.663-1.398,1.146
		c-0.394,0.482-0.702,1.044-0.927,1.685c-0.225,0.64-0.337,1.319-0.337,2.038c0,0.726,0.11,1.409,0.331,2.049
		c0.221,0.64,0.526,1.199,0.916,1.678c0.389,0.48,0.854,0.86,1.393,1.14c0.539,0.281,1.13,0.421,1.774,0.421
		c0.449,0,0.869-0.072,1.258-0.219c0.389-0.146,0.743-0.339,1.061-0.578c0.318-0.239,0.597-0.515,0.837-0.825
		c0.24-0.311,0.427-0.635,0.562-0.972l3.616,1.011c-0.232,0.733-0.573,1.413-1.022,2.038c-0.449,0.625-0.99,1.166-1.623,1.624
		c-0.633,0.457-1.344,0.816-2.134,1.078c-0.79,0.262-1.642,0.393-2.555,0.393c-0.771,0-1.509-0.105-2.212-0.315
		c-0.704-0.209-1.361-0.505-1.971-0.887c-0.61-0.382-1.165-0.842-1.662-1.381c-0.498-0.539-0.923-1.137-1.275-1.792
		s-0.625-1.358-0.82-2.112c-0.195-0.751-0.292-1.536-0.292-2.352c0-1.221,0.213-2.365,0.64-3.431
		c0.427-1.067,1.011-1.999,1.752-2.797c0.741-0.796,1.612-1.425,2.611-1.887c1-0.46,2.076-0.69,3.229-0.69
		c0.921,0,1.696,0.115,2.325,0.343c0.629,0.229,1.321,0.679,2.078,1.353h2.516v3.796H69.238z"/>
</g>
<g>
	<path fill="#C63706" d="M66.441,439.326h7.289v3.077h-1.797v10.871h1.797v3.078h-7.289v-3.078h1.763v-10.871h-1.763V439.326z"/>
</g>
<g>
	<g>
		<g>
			<polygon fill="#7C5904" points="218.39,109.511 80.32,109.511 80.32,102.312 218.39,102.312 222.539,105.91 			"/>
		</g>
		<g>
			<polygon fill="#7C5904" points="223.781,102.312 361.851,102.312 361.851,109.511 223.781,109.511 227.929,105.91 			"/>
		</g>
	</g>
	<g>
		<g>
			<polygon fill="#7C5904" points="218.39,123.424 80.32,123.424 80.32,116.224 218.39,116.224 222.539,119.823 			"/>
		</g>
		<g>
			<polygon fill="#7C5904" points="223.781,116.224 361.851,116.224 361.851,123.424 223.781,123.424 227.929,119.823 			"/>
		</g>
	</g>
	<g>
		<g>
			<polygon fill="#7C5904" points="266.387,67.769 176.705,67.769 180.855,64.168 176.705,60.569 266.387,60.569 270.537,64.168 			
				"/>
		</g>
		<g>
			<polygon fill="#7C5904" points="169.898,67.769 80.217,67.769 80.217,60.569 169.898,60.569 174.047,64.168 			"/>
		</g>
		<g>
			<polygon fill="#7C5904" points="272.13,60.569 361.812,60.569 361.812,67.769 272.13,67.769 276.279,64.168 			"/>
		</g>
	</g>
	<g>
		<g>
			<polygon fill="#7C5904" points="266.387,81.682 176.705,81.682 180.855,78.082 176.705,74.482 266.387,74.482 270.537,78.082 			
				"/>
		</g>
		<g>
			<polygon fill="#7C5904" points="169.898,81.682 80.217,81.682 80.217,74.482 169.898,74.482 174.047,78.082 			"/>
		</g>
		<g>
			<polygon fill="#7C5904" points="272.13,74.482 361.812,74.482 361.812,81.682 272.13,81.682 276.279,78.082 			"/>
		</g>
	</g>
	<g>
		<g>
			<polygon fill="#7C5904" points="266.387,95.596 176.705,95.596 180.855,91.996 176.705,88.396 266.387,88.396 270.537,91.996 			
				"/>
		</g>
		<g>
			<polygon fill="#7C5904" points="169.898,95.596 80.217,95.596 80.217,88.396 169.898,88.396 174.047,91.996 			"/>
		</g>
		<g>
			<polygon fill="#7C5904" points="272.13,88.396 361.812,88.396 361.812,95.596 272.13,95.596 276.279,91.996 			"/>
		</g>
	</g>
</g>
<g>
	<g>
		<g>
			<polygon fill="#7C5904" points="218.39,179.082 80.32,179.082 80.32,171.883 218.39,171.883 222.539,175.481 			"/>
		</g>
		<g>
			<polygon fill="#7C5904" points="223.781,171.883 361.851,171.883 361.851,179.082 223.781,179.082 227.929,175.481 			"/>
		</g>
	</g>
	<g>
		<g>
			<polygon fill="#7C5904" points="218.39,192.995 80.32,192.995 80.32,185.794 218.39,185.794 222.539,189.394 			"/>
		</g>
		<g>
			<polygon fill="#7C5904" points="223.781,185.794 361.851,185.794 361.851,192.995 223.781,192.995 227.929,189.394 			"/>
		</g>
	</g>
	<g>
		<g>
			<polygon fill="#7C5904" points="266.387,137.339 176.705,137.339 180.855,133.739 176.705,130.14 266.387,130.14 
				270.537,133.739 			"/>
		</g>
		<g>
			<polygon fill="#7C5904" points="169.898,137.339 80.217,137.339 80.217,130.14 169.898,130.14 174.047,133.739 			"/>
		</g>
		<g>
			<polygon fill="#7C5904" points="272.13,130.14 361.812,130.14 361.812,137.339 272.13,137.339 276.279,133.739 			"/>
		</g>
	</g>
	<g>
		<g>
			<polygon fill="#7C5904" points="266.387,151.252 176.705,151.252 180.855,147.653 176.705,144.053 266.387,144.053 
				270.537,147.653 			"/>
		</g>
		<g>
			<polygon fill="#7C5904" points="169.898,151.252 80.217,151.252 80.217,144.053 169.898,144.053 174.047,147.653 			"/>
		</g>
		<g>
			<polygon fill="#7C5904" points="272.13,144.053 361.812,144.053 361.812,151.252 272.13,151.252 276.279,147.653 			"/>
		</g>
	</g>
	<g>
		<g>
			<polygon fill="#7C5904" points="266.387,165.167 176.705,165.167 180.855,161.566 176.705,157.967 266.387,157.967 
				270.537,161.566 			"/>
		</g>
		<g>
			<polygon fill="#7C5904" points="169.898,165.167 80.217,165.167 80.217,157.967 169.898,157.967 174.047,161.566 			"/>
		</g>
		<g>
			<polygon fill="#7C5904" points="272.13,157.967 361.812,157.967 361.812,165.167 272.13,165.167 276.279,161.566 			"/>
		</g>
	</g>
</g>
<g>
	<g>
		<g>
			<polygon fill="#7C5904" points="218.39,248.65 80.32,248.65 80.32,241.452 218.39,241.452 222.539,245.049 			"/>
		</g>
		<g>
			<polygon fill="#7C5904" points="223.781,241.452 361.851,241.452 361.851,248.65 223.781,248.65 227.929,245.049 			"/>
		</g>
	</g>
	<g>
		<g>
			<polygon fill="#7C5904" points="218.39,262.563 80.32,262.563 80.32,255.363 218.39,255.363 222.539,258.962 			"/>
		</g>
		<g>
			<polygon fill="#7C5904" points="223.781,255.363 361.851,255.363 361.851,262.563 223.781,262.563 227.929,258.962 			"/>
		</g>
	</g>
	<g>
		<g>
			<polygon fill="#7C5904" points="266.387,206.908 176.705,206.908 180.855,203.308 176.705,199.708 266.387,199.708 
				270.537,203.308 			"/>
		</g>
		<g>
			<polygon fill="#7C5904" points="169.898,206.908 80.217,206.908 80.217,199.708 169.898,199.708 174.047,203.308 			"/>
		</g>
		<g>
			<polygon fill="#7C5904" points="272.13,199.708 361.812,199.708 361.812,206.908 272.13,206.908 276.279,203.308 			"/>
		</g>
	</g>
	<g>
		<g>
			<polygon fill="#7C5904" points="266.387,220.821 176.705,220.821 180.855,217.221 176.705,213.622 266.387,213.622 
				270.537,217.221 			"/>
		</g>
		<g>
			<polygon fill="#7C5904" points="169.898,220.821 80.217,220.821 80.217,213.622 169.898,213.622 174.047,217.221 			"/>
		</g>
		<g>
			<polygon fill="#7C5904" points="272.13,213.622 361.812,213.622 361.812,220.821 272.13,220.821 276.279,217.221 			"/>
		</g>
	</g>
	<g>
		<g>
			<polygon fill="#7C5904" points="266.387,234.735 176.705,234.735 180.855,231.135 176.705,227.536 266.387,227.536 
				270.537,231.135 			"/>
		</g>
		<g>
			<polygon fill="#7C5904" points="169.898,234.735 80.217,234.735 80.217,227.536 169.898,227.536 174.047,231.135 			"/>
		</g>
		<g>
			<polygon fill="#7C5904" points="272.13,227.536 361.812,227.536 361.812,234.735 272.13,234.735 276.279,231.135 			"/>
		</g>
	</g>
</g>
<g>
	<g>
		<g>
			<polygon fill="#7C5904" points="218.39,318.219 80.32,318.219 80.32,311.02 218.39,311.02 222.539,314.618 			"/>
		</g>
		<g>
			<polygon fill="#7C5904" points="223.781,311.02 361.851,311.02 361.851,318.219 223.781,318.219 227.929,314.618 			"/>
		</g>
	</g>
	<g>
		<g>
			<polygon fill="#7C5904" points="218.39,332.132 80.32,332.132 80.32,324.932 218.39,324.932 222.539,328.531 			"/>
		</g>
		<g>
			<polygon fill="#7C5904" points="223.781,324.932 361.851,324.932 361.851,332.132 223.781,332.132 227.929,328.531 			"/>
		</g>
	</g>
	<g>
		<g>
			<polygon fill="#7C5904" points="266.387,276.477 176.705,276.477 180.855,272.876 176.705,269.277 266.387,269.277 
				270.537,272.876 			"/>
		</g>
		<g>
			<polygon fill="#7C5904" points="169.898,276.477 80.217,276.477 80.217,269.277 169.898,269.277 174.047,272.876 			"/>
		</g>
		<g>
			<polygon fill="#7C5904" points="272.13,269.277 361.812,269.277 361.812,276.477 272.13,276.477 276.279,272.876 			"/>
		</g>
	</g>
	<g>
		<g>
			<polygon fill="#7C5904" points="266.387,290.39 176.705,290.39 180.855,286.79 176.705,283.19 266.387,283.19 270.537,286.79 			
				"/>
		</g>
		<g>
			<polygon fill="#7C5904" points="169.898,290.39 80.217,290.39 80.217,283.19 169.898,283.19 174.047,286.79 			"/>
		</g>
		<g>
			<polygon fill="#7C5904" points="272.13,283.19 361.812,283.19 361.812,290.39 272.13,290.39 276.279,286.79 			"/>
		</g>
	</g>
	<g>
		<g>
			<polygon fill="#7C5904" points="266.387,304.304 176.705,304.304 180.855,300.704 176.705,297.104 266.387,297.104 
				270.537,300.704 			"/>
		</g>
		<g>
			<polygon fill="#7C5904" points="169.898,304.304 80.217,304.304 80.217,297.104 169.898,297.104 174.047,300.704 			"/>
		</g>
		<g>
			<polygon fill="#7C5904" points="272.13,297.104 361.812,297.104 361.812,304.304 272.13,304.304 276.279,300.704 			"/>
		</g>
	</g>
</g>
<g>
	<g>
		<g>
			<polygon fill="#7C5904" points="218.39,387.788 80.32,387.788 80.32,380.589 218.39,380.589 222.539,384.187 			"/>
		</g>
		<g>
			<polygon fill="#7C5904" points="223.781,380.589 361.851,380.589 361.851,387.788 223.781,387.788 227.929,384.187 			"/>
		</g>
	</g>
	<g>
		<g>
			<polygon fill="#7C5904" points="218.39,401.701 80.32,401.701 80.32,394.5 218.39,394.5 222.539,398.1 			"/>
		</g>
		<g>
			<polygon fill="#7C5904" points="223.781,394.5 361.851,394.5 361.851,401.701 223.781,401.701 227.929,398.1 			"/>
		</g>
	</g>
	<g>
		<g>
			<polygon fill="#7C5904" points="266.387,346.045 176.705,346.045 180.855,342.445 176.705,338.846 266.387,338.846 
				270.537,342.445 			"/>
		</g>
		<g>
			<polygon fill="#7C5904" points="169.898,346.045 80.217,346.045 80.217,338.846 169.898,338.846 174.047,342.445 			"/>
		</g>
		<g>
			<polygon fill="#7C5904" points="272.13,338.846 361.812,338.846 361.812,346.045 272.13,346.045 276.279,342.445 			"/>
		</g>
	</g>
	<g>
		<g>
			<polygon fill="#7C5904" points="266.387,359.959 176.705,359.959 180.855,356.359 176.705,352.759 266.387,352.759 
				270.537,356.359 			"/>
		</g>
		<g>
			<polygon fill="#7C5904" points="169.898,359.959 80.217,359.959 80.217,352.759 169.898,352.759 174.047,356.359 			"/>
		</g>
		<g>
			<polygon fill="#7C5904" points="272.13,352.759 361.812,352.759 361.812,359.959 272.13,359.959 276.279,356.359 			"/>
		</g>
	</g>
	<g>
		<g>
			<polygon fill="#7C5904" points="266.387,373.873 176.705,373.873 180.855,370.273 176.705,366.673 266.387,366.673 
				270.537,370.273 			"/>
		</g>
		<g>
			<polygon fill="#7C5904" points="169.898,373.873 80.217,373.873 80.217,366.673 169.898,366.673 174.047,370.273 			"/>
		</g>
		<g>
			<polygon fill="#7C5904" points="272.13,366.673 361.812,366.673 361.812,373.873 272.13,373.873 276.279,370.273 			"/>
		</g>
	</g>
</g>
<g>
	<g>
		<polygon fill="#7C5904" points="218.39,457.357 80.32,457.357 80.32,450.158 218.39,450.158 222.539,453.757 		"/>
	</g>
	<g>
		<polygon fill="#7C5904" points="223.781,450.158 361.851,450.158 361.851,457.357 223.781,457.357 227.929,453.757 		"/>
	</g>
</g>
<g>
	<g>
		<polygon fill="#7C5904" points="218.39,415.614 80.32,415.614 80.32,408.415 218.39,408.415 222.539,412.013 		"/>
	</g>
	<g>
		<polygon fill="#7C5904" points="223.781,408.415 361.851,408.415 361.851,415.614 223.781,415.614 227.929,412.013 		"/>
	</g>
</g>
<g>
	<g>
		<polygon fill="#7C5904" points="218.39,471.27 80.32,471.27 80.32,464.07 218.39,464.07 222.539,467.669 		"/>
	</g>
	<g>
		<polygon fill="#7C5904" points="223.781,464.07 361.851,464.07 361.851,471.27 223.781,471.27 227.929,467.669 		"/>
	</g>
</g>
<g>
	<path fill="#398EB0" d="M70.357,134.477c-0.451-0.123-0.876-0.305-1.274-0.545s-0.747-0.537-1.046-0.893
		c-0.299-0.354-0.536-0.764-0.712-1.23c-0.176-0.465-0.264-0.988-0.264-1.568c0-0.615,0.123-1.191,0.369-1.727
		c0.246-0.537,0.595-1.004,1.046-1.402c0.451-0.399,0.996-0.712,1.635-0.94c0.639-0.228,1.351-0.343,2.136-0.343h6.012v2.417h-1.239
		v14.089h-2.575v-14.089h-1.512v14.089h-2.575V134.477z"/>
</g>
<g>
	<path fill="#C63706" d="M70.357,203.977c-0.451-0.123-0.876-0.305-1.274-0.545s-0.747-0.537-1.046-0.893
		c-0.299-0.354-0.536-0.764-0.712-1.23c-0.176-0.465-0.264-0.988-0.264-1.568c0-0.615,0.123-1.191,0.369-1.727
		c0.246-0.537,0.595-1.004,1.046-1.402s0.996-0.712,1.635-0.94c0.639-0.228,1.351-0.343,2.136-0.343h6.012v2.417h-1.239v14.089
		h-2.575v-14.089h-1.512v14.089h-2.575V203.977z"/>
</g>
<g>
	<path fill="#398EB0" d="M70.357,273.727c-0.451-0.123-0.876-0.305-1.274-0.545s-0.747-0.537-1.046-0.892
		c-0.299-0.354-0.536-0.764-0.712-1.231c-0.176-0.465-0.264-0.988-0.264-1.568c0-0.615,0.123-1.191,0.369-1.727
		c0.246-0.537,0.595-1.004,1.046-1.402s0.996-0.712,1.635-0.94c0.639-0.228,1.351-0.343,2.136-0.343h6.012v2.417h-1.239v14.089
		h-2.575v-14.089h-1.512v14.089h-2.575V273.727z"/>
</g>
<g>
	<path fill="#C63706" d="M70.357,343.227c-0.451-0.123-0.876-0.305-1.274-0.545s-0.747-0.537-1.046-0.892
		c-0.299-0.354-0.536-0.764-0.712-1.231c-0.176-0.465-0.264-0.988-0.264-1.568c0-0.615,0.123-1.191,0.369-1.727
		c0.246-0.537,0.595-1.004,1.046-1.402s0.996-0.712,1.635-0.94c0.639-0.228,1.351-0.343,2.136-0.343h6.012v2.417h-1.239v14.089
		h-2.575v-14.089h-1.512v14.089h-2.575V343.227z"/>
</g>
<g>
	<path fill="#398EB0" d="M70.357,412.977c-0.451-0.123-0.876-0.305-1.274-0.545s-0.747-0.537-1.046-0.893
		c-0.299-0.354-0.536-0.764-0.712-1.23c-0.176-0.465-0.264-0.988-0.264-1.568c0-0.615,0.123-1.191,0.369-1.727
		c0.246-0.537,0.595-1.004,1.046-1.402s0.996-0.712,1.635-0.94s1.351-0.343,2.136-0.343h6.012v2.417h-1.239v14.088h-2.575v-14.088
		h-1.512v14.088h-2.575V412.977z"/>
</g>
<g>
	<rect x="80.217" y="422.33" fill="#7C5904" width="142.488" height="7.199"/>
</g>
<g>
	<g>
		<polygon fill="#7C5904" points="218.493,485.184 80.423,485.184 80.423,477.985 218.493,477.985 222.642,481.584 		"/>
	</g>
	<g>
		<polygon fill="#7C5904" points="223.884,477.985 228.031,481.584 223.884,485.184 357.806,485.184 361.955,481.584 
			357.806,477.985 		"/>
	</g>
</g>
</svg>
