<?xml version="1.0" encoding="utf-8"?>
<!-- Generator: Adobe Illustrator 16.0.4, SVG Export Plug-In . SVG Version: 6.00 Build 0)  -->
<!DOCTYPE svg PUBLIC "-//W3C//DTD SVG 1.1//EN" "http://www.w3.org/Graphics/SVG/1.1/DTD/svg11.dtd">
<svg version="1.1" id="Layer_1" xmlns="http://www.w3.org/2000/svg" xmlns:xlink="http://www.w3.org/1999/xlink" x="0px" y="0px"
	 width="448.746px" height="616.441px" viewBox="0 0 448.746 616.441" enable-background="new 0 0 448.746 616.441"
	 xml:space="preserve">
<rect x="0.5" y="0.5" fill="#FFFFFF" stroke="#C68D06" stroke-miterlimit="10" width="447.746" height="615.441"/>
<g>
	<path fill="#C68D06" d="M338.773,581.572c0-3.745,1.855-7.174,8.682-11.55c3.885-2.486,5.46-4.236,5.46-7.036
		c0-3.045-1.89-5.04-5.285-5.04c-2.835,0-4.9,1.47-6.44,4.48l-1.961-1.155c1.82-3.5,4.691-5.531,8.506-5.531
		c4.691,0,7.597,2.941,7.597,7.106c0,3.535-1.716,5.776-6.687,8.926c-4.69,2.976-6.965,5.776-7.141,8.121h13.932v2.24h-16.662
		V581.572z"/>
	<path fill="#C68D06" d="M362.539,575.867c0-3.64,2.59-5.635,6.86-7.491c-3.535-1.575-5.671-3.255-5.671-6.405
		c0-3.186,2.976-6.266,8.051-6.266c5.181,0,8.017,3.081,8.017,6.266c0,3.08-2.065,4.69-5.741,6.336
		c4.411,1.925,6.931,3.78,6.931,7.56c0,3.676-3.395,6.791-9.206,6.791C365.934,582.658,362.539,579.613,362.539,575.867z
		 M378.535,575.728c0-2.906-2.45-4.516-6.896-6.371c-4.585,2.031-6.65,3.606-6.65,6.371c0,2.835,2.835,4.83,6.79,4.83
		C375.7,580.558,378.535,578.667,378.535,575.728z M377.38,562.076c0-2.065-1.716-4.271-5.602-4.271c-3.71,0-5.635,2.1-5.635,4.165
		c0,2.45,1.785,3.676,5.74,5.39C375.77,565.681,377.38,564.491,377.38,562.076z"/>
	<path fill="#C68D06" d="M389.208,556.23h8.681c5.776,0,8.996,2.45,8.996,7c0,4.201-2.45,6.301-6.195,7.001l6.546,11.902h-2.801
		l-6.336-11.621h-6.44v11.621h-2.45V556.23z M397.714,568.307c4.271,0,6.686-1.226,6.686-4.97c0-3.571-2.38-4.831-6.721-4.831
		h-6.021v9.802H397.714z"/>
</g>
<g>
	<rect x="80.221" y="157.967" fill="#C0DDE7" width="281.738" height="7.199"/>
</g>
<g>
	<rect x="80.221" y="171.881" fill="#C0DDE7" width="281.738" height="7.199"/>
</g>
<g>
	<rect x="80.221" y="185.794" fill="#C0DDE7" width="281.738" height="7.2"/>
</g>
<g>
	<rect x="80.221" y="199.708" fill="#C0DDE7" width="281.738" height="7.199"/>
</g>
<g>
	<rect x="80.221" y="213.622" fill="#C0DDE7" width="281.738" height="7.199"/>
</g>
<g>
	<rect x="80.221" y="227.535" fill="#C0DDE7" width="281.738" height="7.2"/>
</g>
<g>
	<rect x="80.221" y="241.45" fill="#C0DDE7" width="281.738" height="7.2"/>
</g>
<g>
	<rect x="80.221" y="255.363" fill="#C0DDE7" width="281.738" height="7.201"/>
</g>
<g>
	<rect x="80.221" y="269.277" fill="#C0DDE7" width="281.738" height="7.199"/>
</g>
<g>
	<rect x="80.221" y="283.191" fill="#C0DDE7" width="281.738" height="7.2"/>
</g>
<g>
	<rect x="80.221" y="297.105" fill="#C0DDE7" width="281.738" height="7.201"/>
</g>
<g>
	<rect x="80.221" y="311.019" fill="#C0DDE7" width="281.738" height="7.2"/>
</g>
<g>
	<rect x="80.221" y="324.933" fill="#C0DDE7" width="281.738" height="7.199"/>
</g>
<g>
	<rect x="80.221" y="338.847" fill="#C0DDE7" width="281.738" height="7.2"/>
</g>
<g>
	<rect x="80.221" y="352.76" fill="#C0DDE7" width="281.738" height="7.2"/>
</g>
<g>
	<rect x="80.221" y="366.674" fill="#C0DDE7" width="281.738" height="7.2"/>
</g>
<g>
	<rect x="80.221" y="380.588" fill="#C0DDE7" width="281.738" height="7.199"/>
</g>
<g>
	<rect x="80.221" y="394.502" fill="#C0DDE7" width="281.738" height="7.199"/>
</g>
<g>
	<rect x="80.221" y="408.416" fill="#C0DDE7" width="281.738" height="7.199"/>
</g>
<g>
	<rect x="80.221" y="422.329" fill="#C0DDE7" width="281.738" height="7.2"/>
</g>
<g>
	<rect x="80.221" y="436.243" fill="#C0DDE7" width="281.738" height="7.2"/>
</g>
<g>
	<rect x="80.221" y="450.157" fill="#C0DDE7" width="281.738" height="7.199"/>
</g>
<g>
	<rect x="80.221" y="464.071" fill="#C0DDE7" width="281.738" height="7.199"/>
</g>
<g>
	<rect x="80.221" y="477.984" fill="#C0DDE7" width="281.738" height="7.2"/>
</g>
<g>
	<rect x="80.221" y="60.569" fill="#C0DDE7" width="281.738" height="7.2"/>
</g>
<g>
	<rect x="80.221" y="74.483" fill="#C0DDE7" width="281.738" height="7.2"/>
</g>
<g>
	<rect x="80.221" y="144.053" fill="#C0DDE7" width="281.738" height="7.199"/>
</g>
<g>
	<rect x="80.221" y="88.398" fill="#C0DDE7" width="281.738" height="7.199"/>
</g>
<g>
	<rect x="80.221" y="102.312" fill="#C0DDE7" width="281.738" height="7.2"/>
</g>
<g>
	<rect x="80.221" y="116.226" fill="#C0DDE7" width="281.738" height="7.199"/>
</g>
<g>
	<rect x="80.221" y="130.14" fill="#C0DDE7" width="281.738" height="7.199"/>
</g>
<g>
	<g>
		<g>
			<polygon fill="#7C5904" points="218.498,290.392 80.428,290.392 80.428,283.192 218.498,283.192 222.646,286.792 			"/>
		</g>
		<g>
			<polygon fill="#7C5904" points="223.889,283.192 361.959,283.192 361.959,290.392 223.889,290.392 228.036,286.792 			"/>
		</g>
	</g>
	<g>
		<g>
			<polygon fill="#7C5904" points="218.498,276.477 80.428,276.477 80.428,269.277 218.498,269.277 222.646,272.877 			"/>
		</g>
		<g>
			<polygon fill="#7C5904" points="223.889,269.277 361.959,269.277 361.959,276.477 223.889,276.477 228.036,272.877 			"/>
		</g>
	</g>
	<g>
		<g>
			<polygon fill="#7C5904" points="218.498,304.306 80.428,304.306 80.428,297.106 218.498,297.106 222.646,300.706 			"/>
		</g>
		<g>
			<polygon fill="#7C5904" points="223.889,297.106 361.959,297.106 361.959,304.306 223.889,304.306 228.036,300.706 			"/>
		</g>
	</g>
	<g>
		<g>
			<polygon fill="#7C5904" points="218.498,373.874 80.428,373.874 80.428,366.675 218.498,366.675 222.646,370.274 			"/>
		</g>
		<g>
			<polygon fill="#7C5904" points="223.889,366.675 361.959,366.675 361.959,373.874 223.889,373.874 228.036,370.274 			"/>
		</g>
	</g>
	<g>
		<g>
			<polygon fill="#7C5904" points="218.498,387.787 80.428,387.787 80.428,380.588 218.498,380.588 222.646,384.188 			"/>
		</g>
		<g>
			<polygon fill="#7C5904" points="223.889,380.588 361.959,380.588 361.959,387.787 223.889,387.787 228.036,384.188 			"/>
		</g>
	</g>
	<g>
		<g>
			<polygon fill="#7C5904" points="218.498,318.219 80.428,318.219 80.428,311.02 218.498,311.02 222.646,314.619 			"/>
		</g>
		<g>
			<polygon fill="#7C5904" points="223.889,311.02 361.959,311.02 361.959,318.219 223.889,318.219 228.036,314.619 			"/>
		</g>
	</g>
	<g>
		<g>
			<polygon fill="#7C5904" points="218.498,346.047 80.428,346.047 80.428,338.847 218.498,338.847 222.646,342.447 			"/>
		</g>
		<g>
			<polygon fill="#7C5904" points="223.889,338.847 361.959,338.847 361.959,346.047 223.889,346.047 228.036,342.447 			"/>
		</g>
	</g>
	<g>
		<g>
			<polygon fill="#7C5904" points="218.498,359.961 80.428,359.961 80.428,352.761 218.498,352.761 222.646,356.36 			"/>
		</g>
		<g>
			<polygon fill="#7C5904" points="223.889,352.761 361.959,352.761 361.959,359.961 223.889,359.961 228.036,356.36 			"/>
		</g>
	</g>
	<g>
		<path fill="#398EB0" d="M66.735,328.925h7.289v3.077h-1.797v10.871h1.797v3.077h-7.289v-3.077h1.763v-10.871h-1.763V328.925z"/>
	</g>
	<g>
		<g>
			<polygon fill="#7C5904" points="218.498,401.702 80.428,401.702 80.428,394.503 218.498,394.503 222.646,398.103 			"/>
		</g>
		<g>
			<polygon fill="#7C5904" points="223.889,394.503 361.959,394.503 361.959,401.702 223.889,401.702 228.036,398.103 			"/>
		</g>
	</g>
	<g>
		<g>
			<polygon fill="#7C5904" points="218.498,415.616 80.428,415.616 80.428,408.417 218.498,408.417 222.646,412.018 			"/>
		</g>
		<g>
			<polygon fill="#7C5904" points="223.889,408.417 361.959,408.417 361.959,415.616 223.889,415.616 228.036,412.018 			"/>
		</g>
	</g>
	<g>
		<g>
			<polygon fill="#7C5904" points="218.498,429.529 80.428,429.529 80.428,422.33 218.498,422.33 222.646,425.93 			"/>
		</g>
		<g>
			<polygon fill="#7C5904" points="223.889,422.33 361.959,422.33 361.959,429.529 223.889,429.529 228.036,425.93 			"/>
		</g>
	</g>
	<g>
		<g>
			<polygon fill="#7C5904" points="218.498,443.444 80.428,443.444 80.428,436.245 218.498,436.245 222.646,439.844 			"/>
		</g>
		<g>
			<polygon fill="#7C5904" points="223.889,436.245 361.959,436.245 361.959,443.444 223.889,443.444 228.036,439.844 			"/>
		</g>
	</g>
	<g>
		<g>
			<polygon fill="#7C5904" points="218.498,457.358 80.428,457.358 80.428,450.157 218.498,450.157 222.646,453.757 			"/>
		</g>
		<g>
			<polygon fill="#7C5904" points="223.889,450.157 361.959,450.157 361.959,457.358 223.889,457.358 228.036,453.757 			"/>
		</g>
	</g>
	<g>
		<g>
			<polygon fill="#7C5904" points="218.498,471.271 80.428,471.271 80.428,464.071 218.498,464.071 222.646,467.671 			"/>
		</g>
		<g>
			<polygon fill="#7C5904" points="223.889,464.071 361.959,464.071 361.959,471.271 223.889,471.271 228.036,467.671 			"/>
		</g>
	</g>
	<g>
		<g>
			<polygon fill="#7C5904" points="218.498,151.252 80.428,151.252 80.428,144.053 218.498,144.053 222.646,147.653 			"/>
		</g>
		<g>
			<polygon fill="#7C5904" points="223.889,144.053 361.959,144.053 361.959,151.252 223.889,151.252 228.037,147.653 			"/>
		</g>
	</g>
	<g>
		<g>
			<polygon fill="#7C5904" points="218.498,165.166 80.428,165.166 80.428,157.967 218.498,157.967 222.646,161.567 			"/>
		</g>
		<g>
			<polygon fill="#7C5904" points="223.889,157.967 361.959,157.967 361.959,165.166 223.889,165.166 228.037,161.567 			"/>
		</g>
	</g>
	<g>
		<g>
			<polygon fill="#7C5904" points="218.498,95.598 80.428,95.598 80.428,88.398 218.498,88.398 222.646,91.998 			"/>
		</g>
		<g>
			<polygon fill="#7C5904" points="223.889,88.398 361.959,88.398 361.959,95.598 223.889,95.598 228.037,91.998 			"/>
		</g>
	</g>
	<g>
		<g>
			<polygon fill="#7C5904" points="218.498,81.683 80.428,81.683 80.428,74.483 218.498,74.483 222.646,78.082 			"/>
		</g>
		<g>
			<polygon fill="#7C5904" points="223.889,74.483 361.959,74.483 361.959,81.683 223.889,81.683 228.037,78.082 			"/>
		</g>
	</g>
	<g>
		<g>
			<polygon fill="#7C5904" points="218.498,109.512 80.428,109.512 80.428,102.312 218.498,102.312 222.646,105.912 			"/>
		</g>
		<g>
			<polygon fill="#7C5904" points="223.889,102.312 361.959,102.312 361.959,109.512 223.889,109.512 228.037,105.912 			"/>
		</g>
	</g>
	<g>
		<g>
			<polygon fill="#7C5904" points="218.498,123.425 80.428,123.425 80.428,116.226 218.498,116.226 222.646,119.825 			"/>
		</g>
		<g>
			<polygon fill="#7C5904" points="223.889,116.226 361.959,116.226 361.959,123.425 223.889,123.425 228.037,119.825 			"/>
		</g>
	</g>
	<g>
		<g>
			<polygon fill="#7C5904" points="218.498,137.339 80.428,137.339 80.428,130.139 218.498,130.139 222.646,133.738 			"/>
		</g>
		<g>
			<polygon fill="#7C5904" points="223.889,130.139 361.959,130.139 361.959,137.339 223.889,137.339 228.037,133.738 			"/>
		</g>
	</g>
	<g>
		<g>
			<polygon fill="#7C5904" points="218.394,192.995 80.324,192.995 80.324,185.795 218.394,185.795 222.542,189.395 			"/>
		</g>
		<g>
			<polygon fill="#7C5904" points="223.785,185.795 361.855,185.795 361.855,192.995 223.785,192.995 227.933,189.395 			"/>
		</g>
	</g>
	<g>
		<g>
			<polygon fill="#7C5904" points="218.394,179.081 80.324,179.081 80.324,171.882 218.394,171.882 222.542,175.482 			"/>
		</g>
		<g>
			<polygon fill="#7C5904" points="223.785,171.882 361.855,171.882 361.855,179.081 223.785,179.081 227.933,175.482 			"/>
		</g>
	</g>
	<g>
		<g>
			<polygon fill="#7C5904" points="218.394,206.908 80.324,206.908 80.324,199.709 218.394,199.709 222.542,203.308 			"/>
		</g>
		<g>
			<polygon fill="#7C5904" points="223.785,199.709 361.855,199.709 361.855,206.908 223.785,206.908 227.933,203.308 			"/>
		</g>
	</g>
	<g>
		<g>
			<polygon fill="#7C5904" points="218.394,234.735 80.324,234.735 80.324,227.536 218.394,227.536 222.542,231.135 			"/>
		</g>
		<g>
			<polygon fill="#7C5904" points="223.785,227.536 361.855,227.536 361.855,234.735 223.785,234.735 227.933,231.135 			"/>
		</g>
	</g>
	<g>
		<g>
			<polygon fill="#7C5904" points="218.498,220.822 80.428,220.822 80.428,213.624 218.498,213.624 222.646,217.223 			"/>
		</g>
		<g>
			<polygon fill="#7C5904" points="223.889,213.624 361.959,213.624 361.959,220.822 223.889,220.822 228.037,217.223 			"/>
		</g>
	</g>
	<g>
		<g>
			<polygon fill="#7C5904" points="218.394,248.65 80.324,248.65 80.324,241.451 218.394,241.451 222.542,245.051 			"/>
		</g>
		<g>
			<polygon fill="#7C5904" points="223.785,241.451 361.855,241.451 361.855,248.65 223.785,248.65 227.933,245.051 			"/>
		</g>
	</g>
	<g>
		<g>
			<polygon fill="#7C5904" points="218.394,262.563 80.324,262.563 80.324,255.364 218.394,255.364 222.542,258.963 			"/>
		</g>
		<g>
			<polygon fill="#7C5904" points="223.785,255.364 361.855,255.364 361.855,262.563 223.785,262.563 227.933,258.963 			"/>
		</g>
	</g>
	<g>
		<path fill="#C63706" d="M69.357,78.922c-0.451-0.123-0.876-0.305-1.274-0.545s-0.747-0.537-1.046-0.893
			c-0.299-0.354-0.536-0.763-0.712-1.23c-0.176-0.465-0.264-0.988-0.264-1.568c0-0.615,0.123-1.191,0.369-1.727
			c0.246-0.537,0.595-1.003,1.046-1.402c0.451-0.399,0.996-0.712,1.635-0.941s1.351-0.342,2.136-0.342h6.012v2.417h-1.239v14.089
			h-2.575V72.69h-1.512v14.089h-2.575V78.922z"/>
	</g>
	<g>
		<path fill="#398EB0" d="M69.357,176.255c-0.451-0.123-0.876-0.305-1.274-0.545s-0.747-0.537-1.046-0.893
			c-0.299-0.353-0.536-0.764-0.712-1.23c-0.176-0.465-0.264-0.988-0.264-1.568c0-0.615,0.123-1.191,0.369-1.727
			c0.246-0.537,0.595-1.004,1.046-1.402s0.996-0.712,1.635-0.94c0.639-0.228,1.351-0.343,2.136-0.343h6.012v2.417h-1.239v14.089
			h-2.575v-14.089h-1.512v14.089h-2.575V176.255z"/>
	</g>
	<g>
		<path fill="#C63706" d="M69.357,274.255c-0.451-0.123-0.876-0.305-1.274-0.545s-0.747-0.537-1.046-0.893
			c-0.299-0.353-0.536-0.764-0.712-1.23c-0.176-0.465-0.264-0.988-0.264-1.568c0-0.615,0.123-1.191,0.369-1.727
			c0.246-0.537,0.595-1.004,1.046-1.402s0.996-0.712,1.635-0.94s1.351-0.343,2.136-0.343h6.012v2.417h-1.239v14.089h-2.575v-14.089
			h-1.512v14.089h-2.575V274.255z"/>
	</g>
	<g>
		<path fill="#C63706" d="M69.357,454.756c-0.451-0.124-0.876-0.305-1.274-0.545s-0.747-0.537-1.046-0.893
			c-0.299-0.354-0.536-0.763-0.712-1.23c-0.176-0.465-0.264-0.989-0.264-1.569c0-0.615,0.123-1.191,0.369-1.727
			c0.246-0.537,0.595-1.004,1.046-1.402s0.996-0.712,1.635-0.94s1.351-0.343,2.136-0.343h6.012v2.417h-1.239v14.088h-2.575v-14.088
			h-1.512v14.088h-2.575V454.756z"/>
	</g>
	<g>
		<g>
			<polygon fill="#7C5904" points="223.888,60.569 361.959,60.569 361.959,67.769 223.888,67.769 228.036,64.169 			"/>
		</g>
		<g>
			<polygon fill="#7C5904" points="222.646,64.169 218.498,60.569 218.498,60.569 218.498,60.569 80.427,60.569 84.576,64.169 
				80.427,67.769 218.498,67.769 218.498,67.769 218.498,67.768 			"/>
		</g>
	</g>
	<g>
		<g>
			<polygon fill="#7C5904" points="218.498,485.185 80.427,485.185 80.427,477.985 218.498,477.985 222.646,481.585 			"/>
		</g>
		<g>
			<polygon fill="#7C5904" points="223.888,477.985 228.036,481.585 223.888,485.185 357.811,485.185 361.959,481.585 
				357.811,477.985 			"/>
		</g>
	</g>
</g>
</svg>
