<?xml version="1.0" encoding="utf-8"?>
<!-- Generator: Adobe Illustrator 16.0.4, SVG Export Plug-In . SVG Version: 6.00 Build 0)  -->
<!DOCTYPE svg PUBLIC "-//W3C//DTD SVG 1.1//EN" "http://www.w3.org/Graphics/SVG/1.1/DTD/svg11.dtd">
<svg version="1.1" id="Layer_1" xmlns="http://www.w3.org/2000/svg" xmlns:xlink="http://www.w3.org/1999/xlink" x="0px" y="0px"
	 width="448.746px" height="616.435px" viewBox="0 0 448.746 616.435" enable-background="new 0 0 448.746 616.435"
	 xml:space="preserve">
<rect x="0.5" y="0.5" fill="#FFFFFF" stroke="#C68D06" stroke-miterlimit="10" width="447.746" height="615.435"/>
<g>
	<path fill="#C68D06" d="M340.244,582.569c0-3.745,1.854-7.175,8.681-11.551c3.885-2.485,5.46-4.235,5.46-7.036
		c0-3.045-1.89-5.04-5.285-5.04c-2.835,0-4.9,1.47-6.44,4.48l-1.961-1.155c1.82-3.5,4.691-5.53,8.507-5.53
		c4.69,0,7.596,2.94,7.596,7.105c0,3.535-1.716,5.775-6.687,8.926c-4.69,2.976-6.965,5.775-7.141,8.121h13.932v2.24h-16.661V582.569
		z"/>
	<path fill="#C68D06" d="M364.008,576.864c0-3.641,2.59-5.636,6.86-7.491c-3.535-1.575-5.671-3.255-5.671-6.405
		c0-3.186,2.976-6.266,8.052-6.266c5.18,0,8.016,3.08,8.016,6.266c0,3.08-2.065,4.69-5.741,6.336
		c4.411,1.925,6.931,3.78,6.931,7.561c0,3.676-3.395,6.791-9.205,6.791C367.404,583.655,364.008,580.609,364.008,576.864z
		 M380.004,576.724c0-2.905-2.45-4.516-6.896-6.371c-4.585,2.03-6.65,3.605-6.65,6.371c0,2.835,2.835,4.83,6.791,4.83
		C377.169,581.554,380.004,579.664,380.004,576.724z M378.849,563.073c0-2.065-1.715-4.271-5.6-4.271
		c-3.711,0-5.636,2.1-5.636,4.165c0,2.45,1.785,3.676,5.74,5.391C377.24,566.677,378.849,565.488,378.849,563.073z"/>
	<path fill="#C68D06" d="M388.613,557.227h2.556l7.735,22.612h0.07l7.771-22.612h2.416l-9.102,26.008h-2.345L388.613,557.227z"/>
</g>
<g>
	<rect x="80.387" y="158.966" fill="#C0DDE7" width="281.738" height="7.2"/>
</g>
<g>
	<rect x="80.386" y="172.88" fill="#C0DDE7" width="281.739" height="7.199"/>
</g>
<g>
	<rect x="80.387" y="186.793" fill="#C0DDE7" width="281.738" height="7.2"/>
</g>
<g>
	<rect x="80.387" y="200.708" fill="#C0DDE7" width="281.738" height="7.199"/>
</g>
<g>
	<rect x="80.387" y="214.621" fill="#C0DDE7" width="281.738" height="7.199"/>
</g>
<g>
	<rect x="80.387" y="228.534" fill="#C0DDE7" width="281.738" height="7.2"/>
</g>
<g>
	<rect x="80.386" y="242.449" fill="#C0DDE7" width="281.739" height="7.198"/>
</g>
<g>
	<rect x="80.386" y="256.361" fill="#C0DDE7" width="281.739" height="7.2"/>
</g>
<g>
	<rect x="80.387" y="270.275" fill="#C0DDE7" width="281.738" height="7.199"/>
</g>
<g>
	<rect x="80.386" y="284.188" fill="#C0DDE7" width="281.739" height="7.2"/>
</g>
<g>
	<rect x="80.387" y="298.102" fill="#C0DDE7" width="281.738" height="7.2"/>
</g>
<g>
	<rect x="80.387" y="312.015" fill="#C0DDE7" width="281.738" height="7.2"/>
</g>
<g>
	<rect x="80.387" y="325.929" fill="#C0DDE7" width="281.738" height="7.199"/>
</g>
<g>
	<rect x="80.386" y="339.842" fill="#C0DDE7" width="281.739" height="7.2"/>
</g>
<g>
	<rect x="80.387" y="353.755" fill="#C0DDE7" width="281.738" height="7.2"/>
</g>
<g>
	<rect x="80.387" y="367.668" fill="#C0DDE7" width="281.738" height="7.201"/>
</g>
<g>
	<rect x="80.387" y="381.583" fill="#C0DDE7" width="281.738" height="7.198"/>
</g>
<g>
	<rect x="80.387" y="395.497" fill="#C0DDE7" width="281.738" height="7.199"/>
</g>
<g>
	<rect x="80.386" y="409.411" fill="#C0DDE7" width="281.739" height="7.199"/>
</g>
<g>
	<rect x="80.387" y="423.324" fill="#C0DDE7" width="281.738" height="7.2"/>
</g>
<g>
	<rect x="80.386" y="437.238" fill="#C0DDE7" width="281.739" height="7.2"/>
</g>
<g>
	<rect x="80.387" y="451.152" fill="#C0DDE7" width="281.738" height="7.199"/>
</g>
<g>
	<rect x="80.386" y="465.066" fill="#C0DDE7" width="281.739" height="7.199"/>
</g>
<g>
	<rect x="80.387" y="478.979" fill="#C0DDE7" width="281.738" height="7.2"/>
</g>
<g>
	<rect x="80.387" y="61.569" fill="#C0DDE7" width="281.738" height="7.2"/>
</g>
<g>
	<rect x="80.386" y="75.483" fill="#C0DDE7" width="281.739" height="7.2"/>
</g>
<g>
	<rect x="80.386" y="145.052" fill="#C0DDE7" width="281.739" height="7.2"/>
</g>
<g>
	<rect x="80.387" y="89.397" fill="#C0DDE7" width="281.738" height="7.199"/>
</g>
<g>
	<rect x="80.386" y="103.311" fill="#C0DDE7" width="281.739" height="7.2"/>
</g>
<g>
	<rect x="80.386" y="117.225" fill="#C0DDE7" width="281.739" height="7.199"/>
</g>
<g>
	<rect x="80.386" y="131.139" fill="#C0DDE7" width="281.739" height="7.199"/>
</g>
<g>
	<g>
		<path fill="#C63706" d="M69.523,135.588c-0.451-0.123-0.876-0.305-1.274-0.545c-0.398-0.24-0.747-0.537-1.046-0.892
			c-0.299-0.354-0.536-0.763-0.712-1.23c-0.176-0.465-0.264-0.989-0.264-1.568c0-0.615,0.123-1.191,0.369-1.727
			c0.246-0.537,0.595-1.003,1.046-1.402s0.996-0.712,1.635-0.941c0.639-0.228,1.351-0.342,2.136-0.342h6.012v2.417h-1.239v14.089
			H73.61v-14.089h-1.512v14.089h-2.575V135.588z"/>
	</g>
	<g>
		<path fill="#398EB0" d="M69.523,246.254c-0.451-0.123-0.876-0.305-1.274-0.545s-0.747-0.537-1.046-0.893
			c-0.299-0.354-0.536-0.764-0.712-1.23c-0.176-0.465-0.264-0.988-0.264-1.568c0-0.615,0.123-1.191,0.369-1.727
			c0.246-0.537,0.595-1.004,1.046-1.402s0.996-0.712,1.635-0.94s1.351-0.343,2.136-0.343h6.012v2.417h-1.239v14.089H73.61v-14.089
			h-1.512v14.089h-2.575V246.254z"/>
	</g>
	<g>
		<path fill="#C63706" d="M69.523,358.004c-0.451-0.123-0.876-0.305-1.274-0.545s-0.747-0.537-1.046-0.893
			c-0.299-0.354-0.536-0.764-0.712-1.23c-0.176-0.465-0.264-0.988-0.264-1.568c0-0.615,0.123-1.191,0.369-1.727
			c0.246-0.537,0.595-1.004,1.046-1.402s0.996-0.712,1.635-0.94s1.351-0.343,2.136-0.343h6.012v2.417h-1.239v14.089H73.61v-14.089
			h-1.512v14.089h-2.575V358.004z"/>
	</g>
	<g>
		<path fill="#398EB0" d="M69.523,469.255c-0.451-0.123-0.876-0.305-1.274-0.545s-0.747-0.537-1.046-0.893
			c-0.299-0.354-0.536-0.764-0.712-1.23c-0.176-0.465-0.264-0.988-0.264-1.568c0-0.615,0.123-1.191,0.369-1.727
			c0.246-0.537,0.595-1.004,1.046-1.402s0.996-0.712,1.635-0.94s1.351-0.343,2.136-0.343h6.012v2.417h-1.239v14.089H73.61v-14.089
			h-1.512v14.089h-2.575V469.255z"/>
	</g>
	<g>
		<g>
			<g>
				<polygon fill="#7C5904" points="218.664,291.391 80.594,291.391 80.594,284.192 218.664,284.192 222.812,287.792 				"/>
			</g>
			<g>
				<polygon fill="#7C5904" points="224.055,284.192 362.125,284.192 362.125,291.391 224.055,291.391 228.202,287.792 				"/>
			</g>
		</g>
		<g>
			<g>
				<polygon fill="#7C5904" points="218.664,277.476 80.594,277.476 80.594,270.277 218.664,270.277 222.812,273.876 				"/>
			</g>
			<g>
				<polygon fill="#7C5904" points="224.055,270.277 362.125,270.277 362.125,277.476 224.055,277.476 228.202,273.876 				"/>
			</g>
		</g>
		<g>
			<g>
				<polygon fill="#7C5904" points="218.664,305.305 80.594,305.305 80.594,298.106 218.664,298.106 222.812,301.706 				"/>
			</g>
			<g>
				<polygon fill="#7C5904" points="224.055,298.106 362.125,298.106 362.125,305.305 224.055,305.305 228.202,301.706 				"/>
			</g>
		</g>
		<g>
			<g>
				<polygon fill="#7C5904" points="218.664,374.874 80.594,374.874 80.594,367.674 218.664,367.674 222.812,371.274 				"/>
			</g>
			<g>
				<polygon fill="#7C5904" points="224.055,367.674 362.125,367.674 362.125,374.874 224.055,374.874 228.202,371.274 				"/>
			</g>
		</g>
		<g>
			<g>
				<polygon fill="#7C5904" points="218.664,388.787 80.594,388.787 80.594,381.587 218.664,381.587 222.812,385.187 				"/>
			</g>
			<g>
				<polygon fill="#7C5904" points="224.055,381.587 362.125,381.587 362.125,388.787 224.055,388.787 228.202,385.187 				"/>
			</g>
		</g>
		<g>
			<g>
				<polygon fill="#7C5904" points="218.664,319.218 80.594,319.218 80.594,312.019 218.664,312.019 222.812,315.619 				"/>
			</g>
			<g>
				<polygon fill="#7C5904" points="224.055,312.019 362.125,312.019 362.125,319.218 224.055,319.218 228.202,315.619 				"/>
			</g>
		</g>
		<g>
			<g>
				<polygon fill="#7C5904" points="218.664,333.128 80.594,333.128 80.594,325.929 218.664,325.929 222.812,329.528 				"/>
			</g>
			<g>
				<polygon fill="#7C5904" points="224.055,325.929 362.125,325.929 362.125,333.128 224.055,333.128 228.202,329.528 				"/>
			</g>
		</g>
		<g>
			<g>
				<polygon fill="#7C5904" points="218.664,347.046 80.594,347.046 80.594,339.846 218.664,339.846 222.812,343.447 				"/>
			</g>
			<g>
				<polygon fill="#7C5904" points="224.055,339.846 362.125,339.846 362.125,347.046 224.055,347.046 228.202,343.447 				"/>
			</g>
		</g>
		<g>
			<g>
				<polygon fill="#7C5904" points="218.664,360.96 80.594,360.96 80.594,353.76 218.664,353.76 222.812,357.36 				"/>
			</g>
			<g>
				<polygon fill="#7C5904" points="224.055,353.76 362.125,353.76 362.125,360.96 224.055,360.96 228.202,357.36 				"/>
			</g>
		</g>
		<g>
			<g>
				<polygon fill="#7C5904" points="218.664,402.702 80.594,402.702 80.594,395.502 218.664,395.502 222.812,399.102 				"/>
			</g>
			<g>
				<polygon fill="#7C5904" points="224.055,395.502 362.125,395.502 362.125,402.702 224.055,402.702 228.202,399.102 				"/>
			</g>
		</g>
		<g>
			<g>
				<polygon fill="#7C5904" points="218.664,416.616 80.594,416.616 80.594,409.417 218.664,409.417 222.812,413.017 				"/>
			</g>
			<g>
				<polygon fill="#7C5904" points="224.055,409.417 362.125,409.417 362.125,416.616 224.055,416.616 228.202,413.017 				"/>
			</g>
		</g>
		<g>
			<g>
				<polygon fill="#7C5904" points="218.664,430.529 80.594,430.529 80.594,423.33 218.664,423.33 222.812,426.929 				"/>
			</g>
			<g>
				<polygon fill="#7C5904" points="224.055,423.33 362.125,423.33 362.125,430.529 224.055,430.529 228.202,426.929 				"/>
			</g>
		</g>
		<g>
			<g>
				<polygon fill="#7C5904" points="218.664,444.444 80.594,444.444 80.594,437.245 218.664,437.245 222.812,440.843 				"/>
			</g>
			<g>
				<polygon fill="#7C5904" points="224.055,437.245 362.125,437.245 362.125,444.444 224.055,444.444 228.202,440.843 				"/>
			</g>
		</g>
		<g>
			<g>
				<polygon fill="#7C5904" points="218.664,458.358 80.594,458.358 80.594,451.157 218.664,451.157 222.812,454.756 				"/>
			</g>
			<g>
				<polygon fill="#7C5904" points="224.055,451.157 362.125,451.157 362.125,458.358 224.055,458.358 228.202,454.756 				"/>
			</g>
		</g>
		<g>
			<g>
				<polygon fill="#7C5904" points="218.664,472.271 80.594,472.271 80.594,465.071 218.664,465.071 222.812,468.67 				"/>
			</g>
			<g>
				<polygon fill="#7C5904" points="224.055,465.071 362.125,465.071 362.125,472.271 224.055,472.271 228.202,468.67 				"/>
			</g>
		</g>
		<g>
			<g>
				<polygon fill="#7C5904" points="218.664,152.252 80.594,152.252 80.594,145.053 218.664,145.053 222.812,148.653 				"/>
			</g>
			<g>
				<polygon fill="#7C5904" points="224.055,145.053 362.125,145.053 362.125,152.252 224.055,152.252 228.203,148.653 				"/>
			</g>
		</g>
		<g>
			<g>
				<polygon fill="#7C5904" points="218.664,166.166 80.594,166.166 80.594,158.967 218.664,158.967 222.812,162.567 				"/>
			</g>
			<g>
				<polygon fill="#7C5904" points="224.055,158.967 362.125,158.967 362.125,166.166 224.055,166.166 228.203,162.567 				"/>
			</g>
		</g>
		<g>
			<g>
				<polygon fill="#7C5904" points="218.664,96.598 80.594,96.598 80.594,89.398 218.664,89.398 222.812,92.998 				"/>
			</g>
			<g>
				<polygon fill="#7C5904" points="224.055,89.398 362.125,89.398 362.125,96.598 224.055,96.598 228.203,92.998 				"/>
			</g>
		</g>
		<g>
			<g>
				<polygon fill="#7C5904" points="218.664,82.682 80.594,82.682 80.594,75.483 218.664,75.483 222.812,79.082 				"/>
			</g>
			<g>
				<polygon fill="#7C5904" points="224.055,75.483 362.125,75.483 362.125,82.682 224.055,82.682 228.203,79.082 				"/>
			</g>
		</g>
		<g>
			<g>
				<polygon fill="#7C5904" points="218.664,110.511 80.594,110.511 80.594,103.312 218.664,103.312 222.812,106.912 				"/>
			</g>
			<g>
				<polygon fill="#7C5904" points="224.055,103.312 362.125,103.312 362.125,110.511 224.055,110.511 228.203,106.912 				"/>
			</g>
		</g>
		<g>
			<g>
				<polygon fill="#7C5904" points="218.664,124.425 80.594,124.425 80.594,117.226 218.664,117.226 222.812,120.824 				"/>
			</g>
			<g>
				<polygon fill="#7C5904" points="224.055,117.226 362.125,117.226 362.125,124.425 224.055,124.425 228.203,120.824 				"/>
			</g>
		</g>
		<g>
			<g>
				<polygon fill="#7C5904" points="218.664,138.339 80.594,138.339 80.594,131.139 218.664,131.139 222.812,134.737 				"/>
			</g>
			<g>
				<polygon fill="#7C5904" points="224.055,131.139 362.125,131.139 362.125,138.339 224.055,138.339 228.203,134.737 				"/>
			</g>
		</g>
		<g>
			<g>
				<polygon fill="#7C5904" points="218.56,193.995 80.49,193.995 80.49,186.795 218.56,186.795 222.708,190.394 				"/>
			</g>
			<g>
				<polygon fill="#7C5904" points="223.951,186.795 362.021,186.795 362.021,193.995 223.951,193.995 228.099,190.394 				"/>
			</g>
		</g>
		<g>
			<g>
				<polygon fill="#7C5904" points="218.56,180.081 80.49,180.081 80.49,172.882 218.56,172.882 222.708,176.482 				"/>
			</g>
			<g>
				<polygon fill="#7C5904" points="223.951,172.882 362.021,172.882 362.021,180.081 223.951,180.081 228.099,176.482 				"/>
			</g>
		</g>
		<g>
			<g>
				<polygon fill="#7C5904" points="218.56,207.908 80.49,207.908 80.49,200.708 218.56,200.708 222.708,204.308 				"/>
			</g>
			<g>
				<polygon fill="#7C5904" points="223.951,200.708 362.021,200.708 362.021,207.908 223.951,207.908 228.099,204.308 				"/>
			</g>
		</g>
		<g>
			<g>
				<polygon fill="#7C5904" points="218.56,235.735 80.49,235.735 80.49,228.536 218.56,228.536 222.708,232.134 				"/>
			</g>
			<g>
				<polygon fill="#7C5904" points="223.951,228.536 362.021,228.536 362.021,235.735 223.951,235.735 228.099,232.134 				"/>
			</g>
		</g>
		<g>
			<g>
				<polygon fill="#7C5904" points="218.664,221.822 80.594,221.822 80.594,214.624 218.664,214.624 222.812,218.222 				"/>
			</g>
			<g>
				<polygon fill="#7C5904" points="224.055,214.624 362.125,214.624 362.125,221.822 224.055,221.822 228.203,218.222 				"/>
			</g>
		</g>
		<g>
			<g>
				<polygon fill="#7C5904" points="218.56,249.65 80.49,249.65 80.49,242.451 218.56,242.451 222.708,246.05 				"/>
			</g>
			<g>
				<polygon fill="#7C5904" points="223.951,242.451 362.021,242.451 362.021,249.65 223.951,249.65 228.099,246.05 				"/>
			</g>
		</g>
		<g>
			<g>
				<polygon fill="#7C5904" points="218.56,263.563 80.49,263.563 80.49,256.364 218.56,256.364 222.708,259.963 				"/>
			</g>
			<g>
				<polygon fill="#7C5904" points="223.951,256.364 362.021,256.364 362.021,263.563 223.951,263.563 228.099,259.963 				"/>
			</g>
		</g>
		<g>
			<g>
				<polygon fill="#7C5904" points="224.054,61.569 362.125,61.569 362.125,68.768 224.054,68.768 228.202,65.169 				"/>
			</g>
			<g>
				<polygon fill="#7C5904" points="222.812,65.169 218.664,61.569 218.664,61.569 218.664,61.569 80.593,61.569 84.742,65.169 
					80.593,68.768 218.664,68.768 218.664,68.768 218.664,68.767 				"/>
			</g>
		</g>
		<g>
			<g>
				<polygon fill="#7C5904" points="218.664,486.184 80.593,486.184 80.593,478.985 218.664,478.985 222.812,482.584 				"/>
			</g>
			<g>
				<polygon fill="#7C5904" points="224.054,478.985 228.202,482.584 224.054,486.184 357.977,486.184 362.125,482.584 
					357.977,478.985 				"/>
			</g>
		</g>
	</g>
</g>
</svg>
