<?xml version="1.0" encoding="utf-8"?>
<!-- Generator: Adobe Illustrator 16.0.4, SVG Export Plug-In . SVG Version: 6.00 Build 0)  -->
<!DOCTYPE svg PUBLIC "-//W3C//DTD SVG 1.1//EN" "http://www.w3.org/Graphics/SVG/1.1/DTD/svg11.dtd">
<svg version="1.1" id="Layer_1" xmlns="http://www.w3.org/2000/svg" xmlns:xlink="http://www.w3.org/1999/xlink" x="0px" y="0px"
	 width="448.746px" height="616.44px" viewBox="0 0 448.746 616.44" enable-background="new 0 0 448.746 616.44"
	 xml:space="preserve">
<rect x="0.5" y="0.5" fill="#FFFFFF" stroke="#C68D06" stroke-miterlimit="10" width="447.746" height="615.44"/>
<g>
	<path fill="#C68D06" d="M340.102,579.574c0-3.745,1.854-7.175,8.681-11.551c3.885-2.485,5.46-4.235,5.46-7.036
		c0-3.045-1.89-5.04-5.285-5.04c-2.835,0-4.9,1.47-6.44,4.48l-1.961-1.155c1.82-3.5,4.691-5.53,8.507-5.53
		c4.69,0,7.596,2.94,7.596,7.105c0,3.535-1.716,5.775-6.687,8.926c-4.69,2.976-6.965,5.775-7.141,8.121h13.932v2.24h-16.661V579.574
		z"/>
	<path fill="#C68D06" d="M365.161,578.314l1.26-1.855c1.506,1.226,2.871,1.996,5.426,1.996c4.726,0,7.631-5.006,7.631-11.481
		c-1.646,1.785-4.061,3.465-7.351,3.465c-5.461,0-8.086-3.396-8.086-8.086c0-4.9,3.465-8.61,8.681-8.61
		c5.11,0,9.171,4.096,9.171,12.986c0,7.98-4.165,13.896-10.116,13.896C368.767,580.625,366.631,579.609,365.161,578.314z
		 M379.407,564.488c-0.524-6.021-3.395-8.576-6.825-8.576c-3.676,0-6.126,2.311-6.126,6.406c0,3.465,1.75,5.985,5.951,5.985
		C375.277,568.303,377.832,566.693,379.407,564.488z"/>
	<path fill="#C68D06" d="M388.61,554.232h2.556l7.735,22.612h0.07l7.771-22.612h2.416l-9.102,26.008h-2.345L388.61,554.232z"/>
</g>
<g>
	<rect x="80.216" y="158.467" fill="#C0DDE7" width="281.738" height="7.199"/>
</g>
<g>
	<rect x="80.216" y="172.38" fill="#C0DDE7" width="281.738" height="7.199"/>
</g>
<g>
	<rect x="80.216" y="186.294" fill="#C0DDE7" width="281.738" height="7.201"/>
</g>
<g>
	<rect x="80.216" y="200.208" fill="#C0DDE7" width="281.738" height="7.199"/>
</g>
<g>
	<rect x="80.216" y="214.122" fill="#C0DDE7" width="281.738" height="7.2"/>
</g>
<g>
	<rect x="80.216" y="228.035" fill="#C0DDE7" width="281.738" height="7.201"/>
</g>
<g>
	<rect x="80.216" y="241.95" fill="#C0DDE7" width="281.738" height="7.199"/>
</g>
<g>
	<rect x="80.216" y="255.863" fill="#C0DDE7" width="281.738" height="7.2"/>
</g>
<g>
	<rect x="80.216" y="269.778" fill="#C0DDE7" width="281.738" height="7.199"/>
</g>
<g>
	<rect x="80.216" y="283.691" fill="#C0DDE7" width="281.738" height="7.2"/>
</g>
<g>
	<rect x="80.216" y="297.604" fill="#C0DDE7" width="281.738" height="7.2"/>
</g>
<g>
	<rect x="80.216" y="311.519" fill="#C0DDE7" width="281.738" height="7.2"/>
</g>
<g>
	<rect x="80.216" y="325.433" fill="#C0DDE7" width="281.738" height="7.199"/>
</g>
<g>
	<rect x="80.216" y="339.346" fill="#C0DDE7" width="281.738" height="7.2"/>
</g>
<g>
	<rect x="80.216" y="353.26" fill="#C0DDE7" width="281.738" height="7.2"/>
</g>
<g>
	<rect x="80.216" y="367.174" fill="#C0DDE7" width="281.738" height="7.2"/>
</g>
<g>
	<rect x="80.216" y="381.088" fill="#C0DDE7" width="281.738" height="7.199"/>
</g>
<g>
	<rect x="80.216" y="395.002" fill="#C0DDE7" width="281.738" height="7.199"/>
</g>
<g>
	<rect x="80.216" y="408.916" fill="#C0DDE7" width="281.738" height="7.199"/>
</g>
<g>
	<rect x="80.216" y="422.829" fill="#C0DDE7" width="281.738" height="7.201"/>
</g>
<g>
	<rect x="80.216" y="436.743" fill="#C0DDE7" width="281.738" height="7.2"/>
</g>
<g>
	<rect x="80.216" y="450.657" fill="#C0DDE7" width="281.738" height="7.199"/>
</g>
<g>
	<rect x="80.216" y="464.571" fill="#C0DDE7" width="281.738" height="7.199"/>
</g>
<g>
	<rect x="80.216" y="478.484" fill="#C0DDE7" width="281.738" height="7.201"/>
</g>
<g>
	<rect x="80.216" y="61.07" fill="#C0DDE7" width="281.738" height="7.2"/>
</g>
<g>
	<rect x="80.216" y="74.984" fill="#C0DDE7" width="281.738" height="7.2"/>
</g>
<g>
	<rect x="80.216" y="144.553" fill="#C0DDE7" width="281.738" height="7.199"/>
</g>
<g>
	<rect x="80.216" y="88.897" fill="#C0DDE7" width="281.738" height="7.199"/>
</g>
<g>
	<rect x="80.216" y="102.811" fill="#C0DDE7" width="281.738" height="7.2"/>
</g>
<g>
	<rect x="80.216" y="116.725" fill="#C0DDE7" width="281.738" height="7.199"/>
</g>
<g>
	<rect x="80.216" y="130.639" fill="#C0DDE7" width="281.738" height="7.199"/>
</g>
<g>
	<path fill="#C63706" d="M69.353,106.756c-0.451-0.123-0.876-0.305-1.274-0.545s-0.747-0.537-1.046-0.893
		c-0.299-0.354-0.536-0.764-0.712-1.23c-0.176-0.465-0.264-0.988-0.264-1.568c0-0.615,0.123-1.191,0.369-1.727
		c0.246-0.537,0.595-1.004,1.046-1.402s0.996-0.712,1.635-0.94s1.351-0.343,2.136-0.343h6.012v2.417h-1.239v14.089h-2.575v-14.089
		h-1.512v14.089h-2.575V106.756z"/>
</g>
<g>
	<path fill="#398EB0" d="M69.353,204.755c-0.451-0.123-0.876-0.305-1.274-0.545s-0.747-0.537-1.046-0.893
		c-0.299-0.354-0.536-0.764-0.712-1.23c-0.176-0.465-0.264-0.988-0.264-1.568c0-0.615,0.123-1.191,0.369-1.727
		c0.246-0.537,0.595-1.004,1.046-1.402s0.996-0.712,1.635-0.94s1.351-0.343,2.136-0.343h6.012v2.417h-1.239v14.089h-2.575v-14.089
		h-1.512v14.089h-2.575V204.755z"/>
</g>
<g>
	<path fill="#398EB0" d="M69.353,399.504c-0.451-0.123-0.876-0.305-1.274-0.545s-0.747-0.537-1.046-0.893
		c-0.299-0.354-0.536-0.764-0.712-1.23c-0.176-0.465-0.264-0.988-0.264-1.568c0-0.615,0.123-1.191,0.369-1.727
		c0.246-0.537,0.595-1.004,1.046-1.402s0.996-0.712,1.635-0.94s1.351-0.343,2.136-0.343h6.012v2.417h-1.239v14.089h-2.575v-14.089
		h-1.512v14.089h-2.575V399.504z"/>
</g>
<g>
	<path fill="#C63706" d="M69.353,302.504c-0.451-0.123-0.876-0.305-1.274-0.545s-0.747-0.537-1.046-0.893
		c-0.299-0.354-0.536-0.764-0.712-1.23c-0.176-0.465-0.264-0.988-0.264-1.568c0-0.615,0.123-1.191,0.369-1.727
		c0.246-0.537,0.595-1.004,1.046-1.402s0.996-0.712,1.635-0.94s1.351-0.343,2.136-0.343h6.012v2.417h-1.239v14.089h-2.575v-14.089
		h-1.512v14.089h-2.575V302.504z"/>
</g>
<g>
	<g>
		<polygon fill="#7C5904" points="218.494,276.977 80.423,276.977 80.423,269.778 218.494,269.778 222.642,273.377 		"/>
	</g>
	<g>
		<polygon fill="#7C5904" points="223.884,269.778 361.955,269.778 361.955,276.977 223.884,276.977 228.032,273.377 		"/>
	</g>
</g>
<g>
	<g>
		<polygon fill="#7C5904" points="218.494,304.806 80.423,304.806 80.423,297.607 218.494,297.607 222.642,301.207 		"/>
	</g>
	<g>
		<polygon fill="#7C5904" points="223.884,297.607 361.955,297.607 361.955,304.806 223.884,304.806 228.032,301.207 		"/>
	</g>
</g>
<g>
	<g>
		<polygon fill="#7C5904" points="218.494,374.375 80.423,374.375 80.423,367.175 218.494,367.175 222.642,370.775 		"/>
	</g>
	<g>
		<polygon fill="#7C5904" points="223.884,367.175 361.955,367.175 361.955,374.375 223.884,374.375 228.032,370.775 		"/>
	</g>
</g>
<g>
	<g>
		<polygon fill="#7C5904" points="218.494,318.719 80.423,318.719 80.423,311.52 218.494,311.52 222.642,315.12 		"/>
	</g>
	<g>
		<polygon fill="#7C5904" points="223.884,311.52 361.955,311.52 361.955,318.719 223.884,318.719 228.032,315.12 		"/>
	</g>
</g>
<g>
	<g>
		<polygon fill="#7C5904" points="218.494,332.629 80.423,332.629 80.423,325.43 218.494,325.43 222.642,329.029 		"/>
	</g>
	<g>
		<polygon fill="#7C5904" points="223.884,325.43 361.955,325.43 361.955,332.629 223.884,332.629 228.032,329.029 		"/>
	</g>
</g>
<g>
	<g>
		<polygon fill="#7C5904" points="218.494,346.547 80.423,346.547 80.423,339.347 218.494,339.347 222.642,342.948 		"/>
	</g>
	<g>
		<polygon fill="#7C5904" points="223.884,339.347 361.955,339.347 361.955,346.547 223.884,346.547 228.032,342.948 		"/>
	</g>
</g>
<g>
	<g>
		<polygon fill="#7C5904" points="218.494,360.461 80.423,360.461 80.423,353.261 218.494,353.261 222.642,356.861 		"/>
	</g>
	<g>
		<polygon fill="#7C5904" points="223.884,353.261 361.955,353.261 361.955,360.461 223.884,360.461 228.032,356.861 		"/>
	</g>
</g>
<g>
	<g>
		<polygon fill="#7C5904" points="218.494,402.203 80.423,402.203 80.423,395.003 218.494,395.003 222.642,398.603 		"/>
	</g>
	<g>
		<polygon fill="#7C5904" points="223.884,395.003 361.955,395.003 361.955,402.203 223.884,402.203 228.032,398.603 		"/>
	</g>
</g>
<g>
	<g>
		<polygon fill="#7C5904" points="218.494,416.117 80.423,416.117 80.423,408.917 218.494,408.917 222.642,412.518 		"/>
	</g>
	<g>
		<polygon fill="#7C5904" points="223.884,408.917 361.955,408.917 361.955,416.117 223.884,416.117 228.032,412.518 		"/>
	</g>
</g>
<g>
	<g>
		<polygon fill="#7C5904" points="218.494,430.03 80.423,430.03 80.423,422.831 218.494,422.831 222.642,426.43 		"/>
	</g>
	<g>
		<polygon fill="#7C5904" points="223.884,422.831 361.955,422.831 361.955,430.03 223.884,430.03 228.032,426.43 		"/>
	</g>
</g>
<g>
	<g>
		<polygon fill="#7C5904" points="218.494,151.752 80.423,151.752 80.423,144.554 218.494,144.554 222.642,148.154 		"/>
	</g>
	<g>
		<polygon fill="#7C5904" points="223.884,144.554 361.955,144.554 361.955,151.752 223.884,151.752 228.032,148.154 		"/>
	</g>
</g>
<g>
	<g>
		<polygon fill="#7C5904" points="218.494,165.667 80.423,165.667 80.423,158.468 218.494,158.468 222.642,162.068 		"/>
	</g>
	<g>
		<polygon fill="#7C5904" points="223.884,158.468 361.955,158.468 361.955,165.667 223.884,165.667 228.032,162.068 		"/>
	</g>
</g>
<g>
	<g>
		<polygon fill="#7C5904" points="218.494,82.183 80.423,82.183 80.423,74.984 218.494,74.984 222.642,78.583 		"/>
	</g>
	<g>
		<polygon fill="#7C5904" points="223.884,74.984 361.955,74.984 361.955,82.183 223.884,82.183 228.032,78.583 		"/>
	</g>
</g>
<g>
	<g>
		<polygon fill="#7C5904" points="218.494,110.012 80.423,110.012 80.423,102.813 218.494,102.813 222.642,106.413 		"/>
	</g>
	<g>
		<polygon fill="#7C5904" points="223.884,102.813 361.955,102.813 361.955,110.012 223.884,110.012 228.032,106.413 		"/>
	</g>
</g>
<g>
	<g>
		<polygon fill="#7C5904" points="218.494,123.925 80.423,123.925 80.423,116.726 218.494,116.726 222.642,120.326 		"/>
	</g>
	<g>
		<polygon fill="#7C5904" points="223.884,116.726 361.955,116.726 361.955,123.925 223.884,123.925 228.032,120.326 		"/>
	</g>
</g>
<g>
	<g>
		<polygon fill="#7C5904" points="218.494,137.839 80.423,137.839 80.423,130.64 218.494,130.64 222.642,134.239 		"/>
	</g>
	<g>
		<polygon fill="#7C5904" points="223.884,130.64 361.955,130.64 361.955,137.839 223.884,137.839 228.032,134.239 		"/>
	</g>
</g>
<g>
	<g>
		<polygon fill="#7C5904" points="218.39,179.582 80.319,179.582 80.319,172.382 218.39,172.382 222.538,175.983 		"/>
	</g>
	<g>
		<polygon fill="#7C5904" points="223.78,172.382 361.851,172.382 361.851,179.582 223.78,179.582 227.928,175.983 		"/>
	</g>
</g>
<g>
	<g>
		<polygon fill="#7C5904" points="218.39,207.409 80.319,207.409 80.319,200.209 218.39,200.209 222.538,203.809 		"/>
	</g>
	<g>
		<polygon fill="#7C5904" points="223.78,200.209 361.851,200.209 361.851,207.409 223.78,207.409 227.928,203.809 		"/>
	</g>
</g>
<g>
	<g>
		<polygon fill="#7C5904" points="218.39,235.236 80.319,235.236 80.319,228.037 218.39,228.037 222.538,231.635 		"/>
	</g>
	<g>
		<polygon fill="#7C5904" points="223.78,228.037 361.851,228.037 361.851,235.236 223.78,235.236 227.928,231.635 		"/>
	</g>
</g>
<g>
	<g>
		<polygon fill="#7C5904" points="218.494,221.323 80.423,221.323 80.423,214.125 218.494,214.125 222.642,217.723 		"/>
	</g>
	<g>
		<polygon fill="#7C5904" points="223.884,214.125 361.955,214.125 361.955,221.323 223.884,221.323 228.032,217.723 		"/>
	</g>
</g>
<g>
	<g>
		<polygon fill="#7C5904" points="218.39,249.151 80.319,249.151 80.319,241.952 218.39,241.952 222.538,245.551 		"/>
	</g>
	<g>
		<polygon fill="#7C5904" points="223.78,241.952 361.851,241.952 361.851,249.151 223.78,249.151 227.928,245.551 		"/>
	</g>
</g>
<g>
	<g>
		<polygon fill="#7C5904" points="218.39,263.064 80.319,263.064 80.319,255.865 218.39,255.865 222.538,259.464 		"/>
	</g>
	<g>
		<polygon fill="#7C5904" points="223.78,255.865 361.851,255.865 361.851,263.064 223.78,263.064 227.928,259.464 		"/>
	</g>
</g>
<g>
	<g>
		<polygon fill="#7C5904" points="223.884,61.07 361.955,61.07 361.955,68.269 223.884,68.269 228.031,64.669 		"/>
	</g>
	<g>
		<polygon fill="#7C5904" points="222.642,64.669 218.494,61.07 218.494,61.07 218.493,61.07 80.423,61.07 84.571,64.669 
			80.423,68.269 218.493,68.269 218.494,68.269 218.494,68.268 		"/>
	</g>
</g>
<g>
	<rect x="80.216" y="381.088" fill="#7C5904" width="142.488" height="7.199"/>
</g>
<g>
	<rect x="80.216" y="283.691" fill="#7C5904" width="142.488" height="7.199"/>
</g>
<g>
	<rect x="80.216" y="186.294" fill="#7C5904" width="142.488" height="7.199"/>
</g>
<g>
	<rect x="80.216" y="88.897" fill="#7C5904" width="142.488" height="7.199"/>
</g>
<g>
	<rect x="80.216" y="436.744" fill="#7C5904" width="142.488" height="7.199"/>
</g>
</svg>
