<?xml version="1.0" encoding="utf-8"?>
<!-- Generator: Adobe Illustrator 16.0.4, SVG Export Plug-In . SVG Version: 6.00 Build 0)  -->
<!DOCTYPE svg PUBLIC "-//W3C//DTD SVG 1.1//EN" "http://www.w3.org/Graphics/SVG/1.1/DTD/svg11.dtd">
<svg version="1.1" id="Layer_1" xmlns="http://www.w3.org/2000/svg" xmlns:xlink="http://www.w3.org/1999/xlink" x="0px" y="0px"
	 width="448.746px" height="616.435px" viewBox="0 0 448.746 616.435" enable-background="new 0 0 448.746 616.435"
	 xml:space="preserve">
<rect x="0.5" y="0.5" fill="#FFFFFF" stroke="#C68D06" stroke-miterlimit="10" width="447.746" height="615.435"/>
<g>
	<path fill="#C68D06" d="M338.365,581.569c0-3.745,1.855-7.175,8.682-11.551c3.885-2.485,5.46-4.235,5.46-7.036
		c0-3.045-1.89-5.04-5.285-5.04c-2.835,0-4.9,1.47-6.44,4.48l-1.961-1.155c1.82-3.5,4.691-5.53,8.506-5.53
		c4.691,0,7.597,2.94,7.597,7.105c0,3.535-1.716,5.775-6.687,8.926c-4.69,2.976-6.965,5.775-7.141,8.121h13.932v2.24h-16.662
		V581.569z"/>
	<path fill="#C68D06" d="M363.425,580.309l1.26-1.855c1.506,1.226,2.871,1.996,5.426,1.996c4.726,0,7.631-5.006,7.631-11.481
		c-1.646,1.785-4.061,3.465-7.351,3.465c-5.461,0-8.086-3.396-8.086-8.086c0-4.9,3.466-8.61,8.681-8.61
		c5.11,0,9.171,4.096,9.171,12.986c0,7.98-4.165,13.896-10.116,13.896C367.031,582.62,364.895,581.604,363.425,580.309z
		 M377.671,566.483c-0.524-6.021-3.395-8.576-6.825-8.576c-3.676,0-6.126,2.311-6.126,6.406c0,3.465,1.75,5.985,5.951,5.985
		C373.542,570.298,376.096,568.688,377.671,566.483z"/>
	<path fill="#C68D06" d="M388.94,556.227h8.681c5.776,0,8.996,2.45,8.996,7c0,4.201-2.45,6.301-6.195,7.001l6.546,11.901h-2.801
		l-6.336-11.621h-6.44v11.621h-2.45V556.227z M397.446,568.303c4.271,0,6.686-1.226,6.686-4.971c0-3.57-2.38-4.831-6.721-4.831
		h-6.021v9.802H397.446z"/>
</g>
<g>
	<rect x="80.221" y="157.966" fill="#C0DDE7" width="281.738" height="7.2"/>
</g>
<g>
	<rect x="80.221" y="171.88" fill="#C0DDE7" width="281.738" height="7.199"/>
</g>
<g>
	<rect x="80.221" y="185.793" fill="#C0DDE7" width="281.738" height="7.2"/>
</g>
<g>
	<rect x="80.221" y="199.708" fill="#C0DDE7" width="281.738" height="7.199"/>
</g>
<g>
	<rect x="80.221" y="213.621" fill="#C0DDE7" width="281.738" height="7.199"/>
</g>
<g>
	<rect x="80.221" y="227.534" fill="#C0DDE7" width="281.738" height="7.2"/>
</g>
<g>
	<rect x="80.221" y="241.449" fill="#C0DDE7" width="281.738" height="7.198"/>
</g>
<g>
	<rect x="80.221" y="255.361" fill="#C0DDE7" width="281.738" height="7.2"/>
</g>
<g>
	<rect x="80.221" y="269.275" fill="#C0DDE7" width="281.738" height="7.199"/>
</g>
<g>
	<rect x="80.221" y="283.188" fill="#C0DDE7" width="281.738" height="7.2"/>
</g>
<g>
	<rect x="80.221" y="297.102" fill="#C0DDE7" width="281.738" height="7.2"/>
</g>
<g>
	<rect x="80.221" y="311.015" fill="#C0DDE7" width="281.738" height="7.2"/>
</g>
<g>
	<rect x="80.221" y="324.929" fill="#C0DDE7" width="281.738" height="7.199"/>
</g>
<g>
	<rect x="80.221" y="338.842" fill="#C0DDE7" width="281.738" height="7.2"/>
</g>
<g>
	<rect x="80.221" y="352.755" fill="#C0DDE7" width="281.738" height="7.2"/>
</g>
<g>
	<rect x="80.221" y="366.668" fill="#C0DDE7" width="281.738" height="7.201"/>
</g>
<g>
	<rect x="80.221" y="380.583" fill="#C0DDE7" width="281.738" height="7.198"/>
</g>
<g>
	<rect x="80.221" y="394.497" fill="#C0DDE7" width="281.738" height="7.199"/>
</g>
<g>
	<rect x="80.221" y="408.411" fill="#C0DDE7" width="281.738" height="7.199"/>
</g>
<g>
	<rect x="80.221" y="422.324" fill="#C0DDE7" width="281.738" height="7.2"/>
</g>
<g>
	<rect x="80.221" y="436.238" fill="#C0DDE7" width="281.738" height="7.2"/>
</g>
<g>
	<rect x="80.221" y="450.152" fill="#C0DDE7" width="281.738" height="7.199"/>
</g>
<g>
	<rect x="80.221" y="464.066" fill="#C0DDE7" width="281.738" height="7.199"/>
</g>
<g>
	<rect x="80.221" y="477.979" fill="#C0DDE7" width="281.738" height="7.2"/>
</g>
<g>
	<rect x="80.221" y="60.569" fill="#C0DDE7" width="281.738" height="7.2"/>
</g>
<g>
	<rect x="80.221" y="74.483" fill="#C0DDE7" width="281.738" height="7.2"/>
</g>
<g>
	<rect x="80.221" y="144.052" fill="#C0DDE7" width="281.738" height="7.2"/>
</g>
<g>
	<rect x="80.221" y="88.397" fill="#C0DDE7" width="281.738" height="7.199"/>
</g>
<g>
	<rect x="80.221" y="102.311" fill="#C0DDE7" width="281.738" height="7.2"/>
</g>
<g>
	<rect x="80.221" y="116.225" fill="#C0DDE7" width="281.738" height="7.199"/>
</g>
<g>
	<rect x="80.221" y="130.139" fill="#C0DDE7" width="281.738" height="7.199"/>
</g>
<g>
	<path fill="#C63706" d="M67.847,342.701h1.696l-0.764-2.448h-5.233l-0.764,2.448h1.797v3.077h-6.458v-3.077h1.269l4.638-13.948
		h4.503l4.537,13.948h1.235v3.077h-6.458V342.701z M64.433,337.377h3.437l-1.729-5.537L64.433,337.377z"/>
</g>
<g>
	<path fill="#C63706" d="M69.357,148.588c-0.451-0.123-0.876-0.305-1.274-0.545c-0.398-0.24-0.747-0.537-1.046-0.892
		c-0.299-0.354-0.536-0.763-0.712-1.23c-0.176-0.465-0.264-0.989-0.264-1.568c0-0.615,0.123-1.191,0.369-1.727
		c0.246-0.537,0.595-1.003,1.046-1.402s0.996-0.712,1.635-0.941c0.639-0.228,1.351-0.342,2.136-0.342h6.012v2.417h-1.239v14.089
		h-2.575v-14.089h-1.512v14.089h-2.575V148.588z"/>
</g>
<g>
	<path fill="#398EB0" d="M69.357,259.004c-0.451-0.123-0.876-0.305-1.274-0.545s-0.747-0.537-1.046-0.893
		c-0.299-0.354-0.536-0.764-0.712-1.23c-0.176-0.465-0.264-0.988-0.264-1.568c0-0.615,0.123-1.191,0.369-1.727
		c0.246-0.537,0.595-1.004,1.046-1.402s0.996-0.712,1.635-0.94s1.351-0.343,2.136-0.343h6.012v2.417h-1.239v14.089h-2.575v-14.089
		h-1.512v14.089h-2.575V259.004z"/>
</g>
<g>
	<path fill="#C63706" d="M69.357,440.505c-0.451-0.123-0.876-0.305-1.274-0.545s-0.747-0.537-1.046-0.893
		c-0.299-0.354-0.536-0.764-0.712-1.23c-0.176-0.465-0.264-0.988-0.264-1.568c0-0.615,0.123-1.191,0.369-1.727
		c0.246-0.537,0.595-1.004,1.046-1.402s0.996-0.712,1.635-0.94s1.351-0.343,2.136-0.343h6.012v2.417h-1.239v14.089h-2.575v-14.089
		h-1.512v14.089h-2.575V440.505z"/>
</g>
<g>
	<g>
		<polygon fill="#7C5904" points="218.498,290.391 80.428,290.391 80.428,283.192 218.498,283.192 222.646,286.792 		"/>
	</g>
	<g>
		<polygon fill="#7C5904" points="223.889,283.192 361.959,283.192 361.959,290.391 223.889,290.391 228.036,286.792 		"/>
	</g>
</g>
<g>
	<g>
		<polygon fill="#7C5904" points="218.498,276.476 80.428,276.476 80.428,269.277 218.498,269.277 222.646,272.876 		"/>
	</g>
	<g>
		<polygon fill="#7C5904" points="223.889,269.277 361.959,269.277 361.959,276.476 223.889,276.476 228.036,272.876 		"/>
	</g>
</g>
<g>
	<g>
		<polygon fill="#7C5904" points="218.498,304.305 80.428,304.305 80.428,297.106 218.498,297.106 222.646,300.706 		"/>
	</g>
	<g>
		<polygon fill="#7C5904" points="223.889,297.106 361.959,297.106 361.959,304.305 223.889,304.305 228.036,300.706 		"/>
	</g>
</g>
<g>
	<g>
		<polygon fill="#7C5904" points="218.498,373.874 80.428,373.874 80.428,366.674 218.498,366.674 222.646,370.274 		"/>
	</g>
	<g>
		<polygon fill="#7C5904" points="223.889,366.674 361.959,366.674 361.959,373.874 223.889,373.874 228.036,370.274 		"/>
	</g>
</g>
<g>
	<g>
		<polygon fill="#7C5904" points="218.498,387.787 80.428,387.787 80.428,380.587 218.498,380.587 222.646,384.187 		"/>
	</g>
	<g>
		<polygon fill="#7C5904" points="223.889,380.587 361.959,380.587 361.959,387.787 223.889,387.787 228.036,384.187 		"/>
	</g>
</g>
<g>
	<g>
		<polygon fill="#7C5904" points="218.498,318.218 80.428,318.218 80.428,311.019 218.498,311.019 222.646,314.619 		"/>
	</g>
	<g>
		<polygon fill="#7C5904" points="223.889,311.019 361.959,311.019 361.959,318.218 223.889,318.218 228.036,314.619 		"/>
	</g>
</g>
<g>
	<g>
		<polygon fill="#7C5904" points="218.498,346.046 80.428,346.046 80.428,338.846 218.498,338.846 222.646,342.447 		"/>
	</g>
	<g>
		<polygon fill="#7C5904" points="223.889,338.846 361.959,338.846 361.959,346.046 223.889,346.046 228.036,342.447 		"/>
	</g>
</g>
<g>
	<g>
		<polygon fill="#7C5904" points="218.498,359.96 80.428,359.96 80.428,352.76 218.498,352.76 222.646,356.36 		"/>
	</g>
	<g>
		<polygon fill="#7C5904" points="223.889,352.76 361.959,352.76 361.959,359.96 223.889,359.96 228.036,356.36 		"/>
	</g>
</g>
<g>
	<g>
		<polygon fill="#7C5904" points="218.498,401.702 80.428,401.702 80.428,394.502 218.498,394.502 222.646,398.102 		"/>
	</g>
	<g>
		<polygon fill="#7C5904" points="223.889,394.502 361.959,394.502 361.959,401.702 223.889,401.702 228.036,398.102 		"/>
	</g>
</g>
<g>
	<g>
		<polygon fill="#7C5904" points="218.498,415.616 80.428,415.616 80.428,408.417 218.498,408.417 222.646,412.017 		"/>
	</g>
	<g>
		<polygon fill="#7C5904" points="223.889,408.417 361.959,408.417 361.959,415.616 223.889,415.616 228.036,412.017 		"/>
	</g>
</g>
<g>
	<g>
		<polygon fill="#7C5904" points="218.498,443.444 80.428,443.444 80.428,436.245 218.498,436.245 222.646,439.843 		"/>
	</g>
	<g>
		<polygon fill="#7C5904" points="223.889,436.245 361.959,436.245 361.959,443.444 223.889,443.444 228.036,439.843 		"/>
	</g>
</g>
<g>
	<g>
		<polygon fill="#7C5904" points="218.498,457.358 80.428,457.358 80.428,450.157 218.498,450.157 222.646,453.756 		"/>
	</g>
	<g>
		<polygon fill="#7C5904" points="223.889,450.157 361.959,450.157 361.959,457.358 223.889,457.358 228.036,453.756 		"/>
	</g>
</g>
<g>
	<g>
		<polygon fill="#7C5904" points="218.498,471.271 80.428,471.271 80.428,464.071 218.498,464.071 222.646,467.67 		"/>
	</g>
	<g>
		<polygon fill="#7C5904" points="223.889,464.071 361.959,464.071 361.959,471.271 223.889,471.271 228.036,467.67 		"/>
	</g>
</g>
<g>
	<g>
		<polygon fill="#7C5904" points="218.498,151.252 80.428,151.252 80.428,144.053 218.498,144.053 222.646,147.653 		"/>
	</g>
	<g>
		<polygon fill="#7C5904" points="223.889,144.053 361.959,144.053 361.959,151.252 223.889,151.252 228.037,147.653 		"/>
	</g>
</g>
<g>
	<g>
		<polygon fill="#7C5904" points="218.498,165.166 80.428,165.166 80.428,157.967 218.498,157.967 222.646,161.567 		"/>
	</g>
	<g>
		<polygon fill="#7C5904" points="223.889,157.967 361.959,157.967 361.959,165.166 223.889,165.166 228.037,161.567 		"/>
	</g>
</g>
<g>
	<g>
		<polygon fill="#7C5904" points="218.498,95.598 80.428,95.598 80.428,88.398 218.498,88.398 222.646,91.998 		"/>
	</g>
	<g>
		<polygon fill="#7C5904" points="223.889,88.398 361.959,88.398 361.959,95.598 223.889,95.598 228.037,91.998 		"/>
	</g>
</g>
<g>
	<g>
		<polygon fill="#7C5904" points="218.498,81.682 80.428,81.682 80.428,74.483 218.498,74.483 222.646,78.082 		"/>
	</g>
	<g>
		<polygon fill="#7C5904" points="223.889,74.483 361.959,74.483 361.959,81.682 223.889,81.682 228.037,78.082 		"/>
	</g>
</g>
<g>
	<g>
		<polygon fill="#7C5904" points="218.498,109.511 80.428,109.511 80.428,102.312 218.498,102.312 222.646,105.912 		"/>
	</g>
	<g>
		<polygon fill="#7C5904" points="223.889,102.312 361.959,102.312 361.959,109.511 223.889,109.511 228.037,105.912 		"/>
	</g>
</g>
<g>
	<g>
		<polygon fill="#7C5904" points="218.498,123.425 80.428,123.425 80.428,116.226 218.498,116.226 222.646,119.824 		"/>
	</g>
	<g>
		<polygon fill="#7C5904" points="223.889,116.226 361.959,116.226 361.959,123.425 223.889,123.425 228.037,119.824 		"/>
	</g>
</g>
<g>
	<g>
		<polygon fill="#7C5904" points="218.498,137.339 80.428,137.339 80.428,130.139 218.498,130.139 222.646,133.737 		"/>
	</g>
	<g>
		<polygon fill="#7C5904" points="223.889,130.139 361.959,130.139 361.959,137.339 223.889,137.339 228.037,133.737 		"/>
	</g>
</g>
<g>
	<g>
		<polygon fill="#7C5904" points="218.394,192.995 80.324,192.995 80.324,185.795 218.394,185.795 222.542,189.394 		"/>
	</g>
	<g>
		<polygon fill="#7C5904" points="223.785,185.795 361.855,185.795 361.855,192.995 223.785,192.995 227.933,189.394 		"/>
	</g>
</g>
<g>
	<g>
		<polygon fill="#7C5904" points="218.394,179.081 80.324,179.081 80.324,171.882 218.394,171.882 222.542,175.482 		"/>
	</g>
	<g>
		<polygon fill="#7C5904" points="223.785,171.882 361.855,171.882 361.855,179.081 223.785,179.081 227.933,175.482 		"/>
	</g>
</g>
<g>
	<g>
		<polygon fill="#7C5904" points="218.394,206.908 80.324,206.908 80.324,199.708 218.394,199.708 222.542,203.308 		"/>
	</g>
	<g>
		<polygon fill="#7C5904" points="223.785,199.708 361.855,199.708 361.855,206.908 223.785,206.908 227.933,203.308 		"/>
	</g>
</g>
<g>
	<g>
		<polygon fill="#7C5904" points="218.394,234.735 80.324,234.735 80.324,227.536 218.394,227.536 222.542,231.134 		"/>
	</g>
	<g>
		<polygon fill="#7C5904" points="223.785,227.536 361.855,227.536 361.855,234.735 223.785,234.735 227.933,231.134 		"/>
	</g>
</g>
<g>
	<g>
		<polygon fill="#7C5904" points="218.498,220.822 80.428,220.822 80.428,213.624 218.498,213.624 222.646,217.222 		"/>
	</g>
	<g>
		<polygon fill="#7C5904" points="223.889,213.624 361.959,213.624 361.959,220.822 223.889,220.822 228.037,217.222 		"/>
	</g>
</g>
<g>
	<g>
		<polygon fill="#7C5904" points="218.394,248.65 80.324,248.65 80.324,241.451 218.394,241.451 222.542,245.05 		"/>
	</g>
	<g>
		<polygon fill="#7C5904" points="223.785,241.451 361.855,241.451 361.855,248.65 223.785,248.65 227.933,245.05 		"/>
	</g>
</g>
<g>
	<g>
		<polygon fill="#7C5904" points="218.394,262.563 80.324,262.563 80.324,255.364 218.394,255.364 222.542,258.963 		"/>
	</g>
	<g>
		<polygon fill="#7C5904" points="223.785,255.364 361.855,255.364 361.855,262.563 223.785,262.563 227.933,258.963 		"/>
	</g>
</g>
<g>
	<g>
		<polygon fill="#7C5904" points="223.888,60.569 361.959,60.569 361.959,67.768 223.888,67.768 228.036,64.169 		"/>
	</g>
	<g>
		<polygon fill="#7C5904" points="222.646,64.169 218.498,60.569 218.498,60.569 218.498,60.569 80.427,60.569 84.576,64.169 
			80.427,67.768 218.498,67.768 218.498,67.768 218.498,67.767 		"/>
	</g>
</g>
<g>
	<g>
		<polygon fill="#7C5904" points="218.498,485.184 80.427,485.184 80.427,477.985 218.498,477.985 222.646,481.584 		"/>
	</g>
	<g>
		<polygon fill="#7C5904" points="223.888,477.985 228.036,481.584 223.888,485.184 357.811,485.184 361.959,481.584 
			357.811,477.985 		"/>
	</g>
</g>
<g>
	<rect x="80.221" y="422.325" fill="#7C5904" width="142.488" height="7.199"/>
</g>
</svg>
