<?xml version="1.0" encoding="utf-8"?>
<!-- Generator: Adobe Illustrator 16.0.4, SVG Export Plug-In . SVG Version: 6.00 Build 0)  -->
<!DOCTYPE svg PUBLIC "-//W3C//DTD SVG 1.1//EN" "http://www.w3.org/Graphics/SVG/1.1/DTD/svg11.dtd">
<svg version="1.1" id="Layer_1" xmlns="http://www.w3.org/2000/svg" xmlns:xlink="http://www.w3.org/1999/xlink" x="0px" y="0px"
	 width="448.746px" height="616.44px" viewBox="0 0 448.746 616.44" enable-background="new 0 0 448.746 616.44"
	 xml:space="preserve">
<rect x="0.5" y="0.5" fill="#FFFFFF" stroke="#C68D06" stroke-miterlimit="10" width="447.746" height="615.44"/>
<g>
	<path fill="#C68D06" d="M337.86,575.793l1.855-1.33c1.891,2.836,4.2,3.991,7.07,3.991c3.815,0,6.161-2.101,6.161-5.286
		c0-3.815-2.24-5.705-8.331-5.705h-0.979v-2.136h1.189c5.496,0,7.561-1.68,7.561-4.865c0-2.591-1.574-4.516-5.495-4.516
		c-2.625,0-4.655,1.295-6.161,3.15l-1.715-1.436c1.855-2.24,4.516-3.92,8.016-3.92c5.461,0,7.771,3.115,7.771,6.476
		c0,3.325-1.961,5.53-5.111,6.126c3.851,0.805,5.706,3.01,5.706,6.825c0,4.235-3.325,7.456-8.646,7.456
		C342.971,580.625,339.786,578.875,337.86,575.793z"/>
	<path fill="#C68D06" d="M362.92,567.183c0-8.086,3.431-13.441,9.521-13.441s9.451,5.355,9.451,13.441s-3.36,13.441-9.451,13.441
		S362.92,575.269,362.92,567.183z M379.442,567.183c0-7.316-2.766-11.236-7.001-11.236c-4.41,0-7.036,3.92-7.036,11.236
		c0,7.315,2.766,11.271,7.036,11.271C376.816,578.455,379.442,574.499,379.442,567.183z"/>
	<path fill="#C68D06" d="M388.61,554.232h2.556l7.735,22.612h0.07l7.771-22.612h2.416l-9.102,26.008h-2.345L388.61,554.232z"/>
</g>
<g>
	<rect x="79.375" y="158.217" fill="#C0DDE7" width="281.739" height="7.199"/>
</g>
<g>
	<rect x="79.375" y="172.13" fill="#C0DDE7" width="281.738" height="7.199"/>
</g>
<g>
	<rect x="79.375" y="186.044" fill="#C0DDE7" width="281.739" height="7.201"/>
</g>
<g>
	<rect x="79.375" y="199.958" fill="#C0DDE7" width="281.739" height="7.199"/>
</g>
<g>
	<rect x="79.375" y="213.872" fill="#C0DDE7" width="281.739" height="7.199"/>
</g>
<g>
	<rect x="79.375" y="227.785" fill="#C0DDE7" width="281.739" height="7.201"/>
</g>
<g>
	<rect x="79.375" y="241.699" fill="#C0DDE7" width="281.738" height="7.199"/>
</g>
<g>
	<rect x="79.375" y="255.612" fill="#C0DDE7" width="281.738" height="7.2"/>
</g>
<g>
	<rect x="79.375" y="269.528" fill="#C0DDE7" width="281.739" height="7.199"/>
</g>
<g>
	<rect x="79.375" y="283.44" fill="#C0DDE7" width="281.738" height="7.2"/>
</g>
<g>
	<rect x="79.375" y="297.354" fill="#C0DDE7" width="281.739" height="7.2"/>
</g>
<g>
	<rect x="79.375" y="311.269" fill="#C0DDE7" width="281.739" height="7.2"/>
</g>
<g>
	<rect x="79.375" y="325.183" fill="#C0DDE7" width="281.739" height="7.199"/>
</g>
<g>
	<rect x="79.375" y="339.096" fill="#C0DDE7" width="281.738" height="7.2"/>
</g>
<g>
	<rect x="79.375" y="353.01" fill="#C0DDE7" width="281.739" height="7.2"/>
</g>
<g>
	<rect x="79.375" y="366.924" fill="#C0DDE7" width="281.739" height="7.2"/>
</g>
<g>
	<rect x="79.375" y="380.838" fill="#C0DDE7" width="281.739" height="7.199"/>
</g>
<g>
	<rect x="79.375" y="394.752" fill="#C0DDE7" width="281.739" height="7.199"/>
</g>
<g>
	<rect x="79.375" y="408.665" fill="#C0DDE7" width="281.738" height="7.199"/>
</g>
<g>
	<rect x="79.375" y="422.579" fill="#C0DDE7" width="281.739" height="7.2"/>
</g>
<g>
	<rect x="79.375" y="436.492" fill="#C0DDE7" width="281.738" height="7.2"/>
</g>
<g>
	<rect x="79.375" y="450.407" fill="#C0DDE7" width="281.739" height="7.199"/>
</g>
<g>
	<rect x="79.375" y="464.32" fill="#C0DDE7" width="281.738" height="7.199"/>
</g>
<g>
	<rect x="79.375" y="478.234" fill="#C0DDE7" width="281.739" height="7.2"/>
</g>
<g>
	<rect x="79.375" y="60.82" fill="#C0DDE7" width="281.739" height="7.2"/>
</g>
<g>
	<rect x="79.375" y="74.733" fill="#C0DDE7" width="281.738" height="7.2"/>
</g>
<g>
	<rect x="79.375" y="144.303" fill="#C0DDE7" width="281.738" height="7.199"/>
</g>
<g>
	<rect x="79.375" y="88.647" fill="#C0DDE7" width="281.739" height="7.199"/>
</g>
<g>
	<rect x="79.375" y="102.561" fill="#C0DDE7" width="281.738" height="7.2"/>
</g>
<g>
	<rect x="79.375" y="116.475" fill="#C0DDE7" width="281.738" height="7.199"/>
</g>
<g>
	<rect x="79.375" y="130.389" fill="#C0DDE7" width="281.738" height="7.199"/>
</g>
<g>
	<g>
		<polygon fill="#7C5904" points="217.549,401.95 79.479,401.95 79.479,394.751 217.549,394.751 221.697,398.351 		"/>
	</g>
	<g>
		<polygon fill="#7C5904" points="222.939,394.751 361.01,394.751 361.01,401.95 222.939,401.95 227.088,398.351 		"/>
	</g>
</g>
<g>
	<g>
		<polygon fill="#7C5904" points="217.549,415.864 79.479,415.864 79.479,408.665 217.549,408.665 221.697,412.265 		"/>
	</g>
	<g>
		<polygon fill="#7C5904" points="222.939,408.665 361.01,408.665 361.01,415.864 222.939,415.864 227.088,412.265 		"/>
	</g>
</g>
<g>
	<g>
		<polygon fill="#7C5904" points="217.549,429.777 79.479,429.777 79.479,422.578 217.549,422.578 221.697,426.178 		"/>
	</g>
	<g>
		<polygon fill="#7C5904" points="222.939,422.578 361.01,422.578 361.01,429.777 222.939,429.777 227.088,426.178 		"/>
	</g>
</g>
<g>
	<g>
		<polygon fill="#7C5904" points="217.549,443.691 79.479,443.691 79.479,436.492 217.549,436.492 221.697,440.091 		"/>
	</g>
	<g>
		<polygon fill="#7C5904" points="222.939,436.492 361.01,436.492 361.01,443.691 222.939,443.691 227.088,440.091 		"/>
	</g>
</g>
<g>
	<g>
		<polygon fill="#7C5904" points="217.549,457.604 79.479,457.604 79.479,450.404 217.549,450.404 221.697,454.004 		"/>
	</g>
	<g>
		<polygon fill="#7C5904" points="222.939,450.404 361.01,450.404 361.01,457.604 222.939,457.604 227.088,454.004 		"/>
	</g>
</g>
<g>
	<g>
		<polygon fill="#7C5904" points="217.549,471.519 79.479,471.519 79.479,464.318 217.549,464.318 221.697,467.918 		"/>
	</g>
	<g>
		<polygon fill="#7C5904" points="222.939,464.318 361.01,464.318 361.01,471.519 222.939,471.519 227.088,467.918 		"/>
	</g>
</g>
<g>
	<g>
		<g>
			<polygon fill="#7C5904" points="217.549,68.02 79.479,68.02 79.479,60.82 217.549,60.82 221.697,64.42 			"/>
		</g>
		<g>
			<polygon fill="#7C5904" points="222.939,60.82 361.01,60.82 361.01,68.02 222.939,68.02 227.088,64.42 			"/>
		</g>
	</g>
	<g>
		<g>
			<polygon fill="#7C5904" points="217.549,81.934 79.479,81.934 79.479,74.734 217.549,74.734 221.697,78.334 			"/>
		</g>
		<g>
			<polygon fill="#7C5904" points="222.939,74.734 361.01,74.734 361.01,81.934 222.939,81.934 227.088,78.334 			"/>
		</g>
	</g>
	<g>
		<g>
			<polygon fill="#7C5904" points="217.549,151.502 79.479,151.502 79.479,144.303 217.549,144.303 221.697,147.902 			"/>
		</g>
		<g>
			<polygon fill="#7C5904" points="222.939,144.303 361.01,144.303 361.01,151.502 222.939,151.502 227.088,147.902 			"/>
		</g>
	</g>
	<g>
		<g>
			<polygon fill="#7C5904" points="217.549,95.847 79.479,95.847 79.479,88.647 217.549,88.647 221.697,92.247 			"/>
		</g>
		<g>
			<polygon fill="#7C5904" points="222.939,88.647 361.01,88.647 361.01,95.847 222.939,95.847 227.088,92.247 			"/>
		</g>
	</g>
	<g>
		<g>
			<polygon fill="#7C5904" points="217.549,109.761 79.479,109.761 79.479,102.562 217.549,102.562 221.697,106.161 			"/>
		</g>
		<g>
			<polygon fill="#7C5904" points="222.939,102.562 361.01,102.562 361.01,109.761 222.939,109.761 227.088,106.161 			"/>
		</g>
	</g>
	<g>
		<g>
			<polygon fill="#7C5904" points="217.549,123.674 79.479,123.674 79.479,116.474 217.549,116.474 221.697,120.073 			"/>
		</g>
		<g>
			<polygon fill="#7C5904" points="222.939,116.474 361.01,116.474 361.01,123.674 222.939,123.674 227.088,120.073 			"/>
		</g>
	</g>
	<g>
		<g>
			<polygon fill="#7C5904" points="217.549,137.588 79.479,137.588 79.479,130.388 217.549,130.388 221.697,133.987 			"/>
		</g>
		<g>
			<polygon fill="#7C5904" points="222.939,130.388 361.01,130.388 361.01,137.588 222.939,137.588 227.088,133.987 			"/>
		</g>
	</g>
</g>
<g>
	<g>
		<polygon fill="#7C5904" points="217.549,179.33 79.479,179.33 79.479,172.131 217.549,172.131 221.697,175.73 		"/>
	</g>
	<g>
		<polygon fill="#7C5904" points="222.939,172.131 361.01,172.131 361.01,179.33 222.939,179.33 227.088,175.73 		"/>
	</g>
</g>
<g>
	<g>
		<polygon fill="#7C5904" points="217.549,248.898 79.479,248.898 79.479,241.699 217.549,241.699 221.697,245.299 		"/>
	</g>
	<g>
		<polygon fill="#7C5904" points="222.939,241.699 361.01,241.699 361.01,248.898 222.939,248.898 227.088,245.299 		"/>
	</g>
</g>
<g>
	<g>
		<polygon fill="#7C5904" points="217.549,193.243 79.479,193.243 79.479,186.044 217.549,186.044 221.697,189.644 		"/>
	</g>
	<g>
		<polygon fill="#7C5904" points="222.939,186.044 361.01,186.044 361.01,193.243 222.939,193.243 227.088,189.644 		"/>
	</g>
</g>
<g>
	<g>
		<polygon fill="#7C5904" points="217.549,207.157 79.479,207.157 79.479,199.958 217.549,199.958 221.697,203.557 		"/>
	</g>
	<g>
		<polygon fill="#7C5904" points="222.939,199.958 361.01,199.958 361.01,207.157 222.939,207.157 227.088,203.557 		"/>
	</g>
</g>
<g>
	<g>
		<polygon fill="#7C5904" points="217.549,221.07 79.479,221.07 79.479,213.871 217.549,213.871 221.697,217.47 		"/>
	</g>
	<g>
		<polygon fill="#7C5904" points="222.939,213.871 361.01,213.871 361.01,221.07 222.939,221.07 227.088,217.47 		"/>
	</g>
</g>
<g>
	<g>
		<polygon fill="#7C5904" points="217.549,234.984 79.479,234.984 79.479,227.785 217.549,227.785 221.697,231.384 		"/>
	</g>
	<g>
		<polygon fill="#7C5904" points="222.939,227.785 361.01,227.785 361.01,234.984 222.939,234.984 227.088,231.384 		"/>
	</g>
</g>
<g>
	<g>
		<polygon fill="#7C5904" points="217.549,262.813 79.479,262.813 79.479,255.614 217.549,255.614 221.697,259.214 		"/>
	</g>
	<g>
		<polygon fill="#7C5904" points="222.939,255.614 361.01,255.614 361.01,262.813 222.939,262.813 227.088,259.214 		"/>
	</g>
</g>
<g>
	<g>
		<polygon fill="#7C5904" points="217.549,346.296 79.479,346.296 79.479,339.097 217.549,339.097 221.697,342.696 		"/>
	</g>
	<g>
		<polygon fill="#7C5904" points="222.939,339.097 361.01,339.097 361.01,346.296 222.939,346.296 227.088,342.696 		"/>
	</g>
</g>
<g>
	<g>
		<polygon fill="#7C5904" points="217.549,360.21 79.479,360.21 79.479,353.011 217.549,353.011 221.697,356.61 		"/>
	</g>
	<g>
		<polygon fill="#7C5904" points="222.939,353.011 361.01,353.011 361.01,360.21 222.939,360.21 227.088,356.61 		"/>
	</g>
</g>
<g>
	<g>
		<polygon fill="#7C5904" points="217.549,374.124 79.479,374.124 79.479,366.925 217.549,366.925 221.697,370.524 		"/>
	</g>
	<g>
		<polygon fill="#7C5904" points="222.939,366.925 361.01,366.925 361.01,374.124 222.939,374.124 227.088,370.524 		"/>
	</g>
</g>
<g>
	<g>
		<polygon fill="#7C5904" points="217.549,290.641 79.479,290.641 79.479,283.441 217.549,283.441 221.697,287.041 		"/>
	</g>
	<g>
		<polygon fill="#7C5904" points="222.939,283.441 361.01,283.441 361.01,290.641 222.939,290.641 227.088,287.041 		"/>
	</g>
</g>
<g>
	<g>
		<polygon fill="#7C5904" points="217.549,304.555 79.479,304.555 79.479,297.355 217.549,297.355 221.697,300.954 		"/>
	</g>
	<g>
		<polygon fill="#7C5904" points="222.939,297.355 361.01,297.355 361.01,304.555 222.939,304.555 227.088,300.954 		"/>
	</g>
</g>
<g>
	<g>
		<polygon fill="#7C5904" points="217.549,318.468 79.479,318.468 79.479,311.268 217.549,311.268 221.697,314.867 		"/>
	</g>
	<g>
		<polygon fill="#7C5904" points="222.939,311.268 361.01,311.268 361.01,318.468 222.939,318.468 227.088,314.867 		"/>
	</g>
</g>
<g>
	<g>
		<polygon fill="#7C5904" points="217.549,332.382 79.479,332.382 79.479,325.182 217.549,325.182 221.697,328.781 		"/>
	</g>
	<g>
		<polygon fill="#7C5904" points="222.939,325.182 361.01,325.182 361.01,332.382 222.939,332.382 227.088,328.781 		"/>
	</g>
</g>
<g>
	<path fill="#C63706" d="M59.056,52.482h7.861c0.876,0,1.681,0.137,2.415,0.41s1.366,0.642,1.898,1.105
		c0.532,0.465,0.947,1,1.247,1.606s0.449,1.239,0.449,1.897c0,0.794-0.118,1.537-0.354,2.229c-0.236,0.692-0.601,1.294-1.095,1.803
		s-1.119,0.911-1.875,1.207s-1.651,0.444-2.684,0.444h-2.37v3.245h1.561v3.077h-7.053V66.43h1.763V55.57h-1.763V52.482z
		 M64.548,55.57v4.571h1.539c0.854,0,1.531-0.18,2.033-0.539s0.752-0.929,0.752-1.707c0-0.727-0.236-1.295-0.708-1.707
		S67,55.57,66.086,55.57H64.548z"/>
</g>
<g>
	<path fill="#398EB0" d="M62.56,179.642c-0.958-0.194-1.844-0.552-2.656-1.072c-0.812-0.521-1.517-1.162-2.111-1.926
		c-0.596-0.764-1.06-1.627-1.393-2.589c-0.333-0.962-0.5-1.982-0.5-3.061c0-0.816,0.097-1.601,0.292-2.353
		c0.195-0.753,0.468-1.456,0.82-2.111s0.777-1.251,1.275-1.786c0.498-0.535,1.052-0.993,1.662-1.376
		c0.61-0.381,1.267-0.677,1.971-0.887s1.441-0.314,2.212-0.314s1.51,0.104,2.218,0.314c0.707,0.21,1.366,0.506,1.977,0.887
		c0.61,0.383,1.164,0.841,1.662,1.376c0.498,0.535,0.924,1.131,1.28,1.786c0.355,0.655,0.63,1.358,0.825,2.111
		c0.195,0.752,0.292,1.536,0.292,2.353c0,1.093-0.172,2.126-0.517,3.1s-0.822,1.846-1.432,2.616
		c-0.61,0.771-1.335,1.416-2.173,1.932c-0.838,0.518-1.748,0.861-2.729,1.033c0.232,0.098,0.462,0.204,0.69,0.32
		c0.229,0.116,0.459,0.225,0.691,0.326c0.232,0.101,0.462,0.187,0.691,0.258c0.228,0.071,0.462,0.11,0.702,0.118
		c0.232,0,0.458-0.03,0.679-0.09c0.221-0.06,0.421-0.153,0.601-0.28c0.18-0.128,0.335-0.293,0.466-0.494
		c0.131-0.203,0.219-0.449,0.264-0.742l2.504,1.247c-0.067,0.547-0.223,1.041-0.466,1.482c-0.243,0.441-0.556,0.819-0.938,1.134
		s-0.816,0.559-1.303,0.73s-1.003,0.258-1.55,0.258c-0.442,0-0.885-0.084-1.331-0.252c-0.445-0.169-0.876-0.353-1.291-0.551
		c-0.416-0.198-0.807-0.382-1.174-0.55c-0.367-0.169-0.689-0.253-0.966-0.253c-0.12,0-0.227-0.002-0.32-0.006
		c-0.093-0.004-0.185-0.004-0.275,0s-0.189,0.016-0.297,0.034c-0.109,0.019-0.234,0.054-0.376,0.106L62.56,179.642z M64.132,176.285
		c0.651,0,1.249-0.141,1.792-0.422c0.542-0.28,1.009-0.662,1.398-1.146c0.389-0.482,0.691-1.044,0.904-1.685
		c0.214-0.64,0.32-1.319,0.32-2.038c0-0.727-0.108-1.411-0.326-2.056c-0.217-0.644-0.522-1.207-0.916-1.689
		c-0.393-0.483-0.859-0.865-1.398-1.146c-0.539-0.281-1.13-0.421-1.774-0.421s-1.235,0.14-1.774,0.421
		c-0.539,0.28-1.003,0.662-1.393,1.146c-0.389,0.482-0.694,1.046-0.916,1.689c-0.221,0.645-0.331,1.329-0.331,2.056
		c0,0.719,0.11,1.398,0.331,2.038c0.221,0.641,0.526,1.202,0.916,1.685c0.389,0.483,0.854,0.865,1.393,1.146
		C62.897,176.144,63.488,176.285,64.132,176.285z"/>
</g>
<g>
	<path fill="#C63706" d="M69.702,287.451c-0.451-0.123-0.876-0.305-1.274-0.545s-0.747-0.537-1.046-0.893
		c-0.299-0.354-0.536-0.764-0.712-1.23c-0.176-0.465-0.264-0.988-0.264-1.568c0-0.615,0.123-1.191,0.369-1.727
		c0.246-0.537,0.595-1.004,1.046-1.402s0.996-0.712,1.635-0.94s1.351-0.343,2.136-0.343h6.012v2.417h-1.239v14.089h-2.575v-14.089
		h-1.512v14.089h-2.575V287.451z"/>
</g>
<g>
	<path fill="#398EB0" d="M69.702,399.118c-0.451-0.123-0.876-0.305-1.274-0.545s-0.747-0.537-1.046-0.893
		c-0.299-0.354-0.536-0.764-0.712-1.23c-0.176-0.465-0.264-0.988-0.264-1.568c0-0.615,0.123-1.191,0.369-1.727
		c0.246-0.537,0.595-1.004,1.046-1.402s0.996-0.712,1.635-0.94s1.351-0.343,2.136-0.343h6.012v2.417h-1.239v14.089h-2.575v-14.089
		h-1.512v14.089h-2.575V399.118z"/>
</g>
<g>
	<rect x="79.375" y="380.838" fill="#7C5904" width="142.488" height="7.199"/>
</g>
<g>
	<rect x="79.375" y="269.528" fill="#7C5904" width="142.488" height="7.199"/>
</g>
<g>
	<g>
		<polygon fill="#7C5904" points="217.445,485.435 79.375,485.435 79.375,478.235 217.445,478.235 221.594,481.835 		"/>
	</g>
	<g>
		<polygon fill="#7C5904" points="222.836,478.235 226.983,481.835 222.836,485.435 356.758,485.435 360.907,481.835 
			356.758,478.235 		"/>
	</g>
</g>
</svg>
