<?xml version="1.0" encoding="utf-8"?>
<!-- Generator: Adobe Illustrator 16.0.4, SVG Export Plug-In . SVG Version: 6.00 Build 0)  -->
<!DOCTYPE svg PUBLIC "-//W3C//DTD SVG 1.1//EN" "http://www.w3.org/Graphics/SVG/1.1/DTD/svg11.dtd">
<svg version="1.1" id="Layer_1" xmlns="http://www.w3.org/2000/svg" xmlns:xlink="http://www.w3.org/1999/xlink" x="0px" y="0px"
	 width="448.746px" height="616.44px" viewBox="0 0 448.746 616.44" enable-background="new 0 0 448.746 616.44"
	 xml:space="preserve">
<rect x="0.5" y="0.5" fill="#FFFFFF" stroke="#C68D06" stroke-miterlimit="10" width="447.746" height="615.44"/>
<g>
	<path fill="#C68D06" d="M344.127,577.793l1.855-1.33c1.891,2.836,4.2,3.991,7.07,3.991c3.815,0,6.161-2.101,6.161-5.286
		c0-3.815-2.24-5.705-8.331-5.705h-0.979v-2.136h1.189c5.496,0,7.561-1.68,7.561-4.865c0-2.591-1.574-4.516-5.495-4.516
		c-2.625,0-4.655,1.295-6.161,3.15l-1.715-1.436c1.855-2.24,4.516-3.92,8.016-3.92c5.461,0,7.771,3.115,7.771,6.476
		c0,3.325-1.961,5.53-5.111,6.126c3.851,0.805,5.706,3.01,5.706,6.825c0,4.235-3.325,7.456-8.646,7.456
		C349.238,582.625,346.053,580.875,344.127,577.793z"/>
	<path fill="#C68D06" d="M369.363,579.894h4.865v-20.967c-1.26,0.665-3.29,1.189-4.796,1.189v-2.205
		c1.995-0.07,3.78-0.595,4.936-1.68h2.311v23.662h4.41v2.24h-11.726V579.894z"/>
	<path fill="#C68D06" d="M389.208,556.232h8.681c5.776,0,8.996,2.45,8.996,7c0,4.201-2.45,6.301-6.195,7.001l6.546,11.901h-2.801
		l-6.336-11.621h-6.44v11.621h-2.45V556.232z M397.713,568.308c4.271,0,6.686-1.226,6.686-4.971c0-3.57-2.38-4.831-6.721-4.831
		h-6.021v9.802H397.713z"/>
</g>
<g>
	<rect x="79.125" y="158.3" fill="#C0DDE7" width="281.738" height="7.199"/>
</g>
<g>
	<rect x="79.125" y="172.213" fill="#C0DDE7" width="281.738" height="7.199"/>
</g>
<g>
	<rect x="79.125" y="186.127" fill="#C0DDE7" width="281.738" height="7.2"/>
</g>
<g>
	<rect x="79.125" y="200.041" fill="#C0DDE7" width="281.738" height="7.199"/>
</g>
<g>
	<rect x="79.125" y="213.955" fill="#C0DDE7" width="281.738" height="7.199"/>
</g>
<g>
	<rect x="79.125" y="227.869" fill="#C0DDE7" width="281.738" height="7.2"/>
</g>
<g>
	<rect x="79.125" y="241.783" fill="#C0DDE7" width="281.738" height="7.199"/>
</g>
<g>
	<rect x="79.125" y="255.696" fill="#C0DDE7" width="281.738" height="7.2"/>
</g>
<g>
	<rect x="79.125" y="269.611" fill="#C0DDE7" width="281.738" height="7.199"/>
</g>
<g>
	<rect x="79.125" y="283.524" fill="#C0DDE7" width="281.738" height="7.2"/>
</g>
<g>
	<rect x="79.125" y="297.438" fill="#C0DDE7" width="281.738" height="7.2"/>
</g>
<g>
	<rect x="79.125" y="311.352" fill="#C0DDE7" width="281.738" height="7.2"/>
</g>
<g>
	<rect x="79.125" y="325.266" fill="#C0DDE7" width="281.738" height="7.199"/>
</g>
<g>
	<rect x="79.125" y="339.179" fill="#C0DDE7" width="281.738" height="7.2"/>
</g>
<g>
	<rect x="79.125" y="353.093" fill="#C0DDE7" width="281.738" height="7.2"/>
</g>
<g>
	<rect x="79.125" y="367.007" fill="#C0DDE7" width="281.738" height="7.2"/>
</g>
<g>
	<rect x="79.125" y="297.438" fill="#C0DDE7" width="281.738" height="7.2"/>
</g>
<g>
	<rect x="79.125" y="394.835" fill="#C0DDE7" width="281.738" height="7.199"/>
</g>
<g>
	<rect x="79.125" y="408.749" fill="#C0DDE7" width="281.738" height="7.199"/>
</g>
<g>
	<rect x="79.125" y="422.663" fill="#C0DDE7" width="281.738" height="7.2"/>
</g>
<g>
	<rect x="79.125" y="436.576" fill="#C0DDE7" width="281.738" height="7.2"/>
</g>
<g>
	<rect x="79.125" y="450.49" fill="#C0DDE7" width="281.738" height="7.199"/>
</g>
<g>
	<rect x="79.125" y="464.404" fill="#C0DDE7" width="281.738" height="7.199"/>
</g>
<g>
	<rect x="79.125" y="478.317" fill="#C0DDE7" width="281.738" height="7.2"/>
</g>
<g>
	<rect x="79.125" y="60.903" fill="#C0DDE7" width="281.738" height="7.2"/>
</g>
<g>
	<rect x="79.125" y="74.816" fill="#C0DDE7" width="281.738" height="7.2"/>
</g>
<g>
	<rect x="79.125" y="144.386" fill="#C0DDE7" width="281.738" height="7.199"/>
</g>
<g>
	<rect x="79.125" y="88.73" fill="#C0DDE7" width="281.738" height="7.199"/>
</g>
<g>
	<rect x="79.125" y="102.644" fill="#C0DDE7" width="281.738" height="7.2"/>
</g>
<g>
	<rect x="79.125" y="116.558" fill="#C0DDE7" width="281.738" height="7.199"/>
</g>
<g>
	<rect x="79.125" y="130.472" fill="#C0DDE7" width="281.738" height="7.199"/>
</g>
<g>
	<path fill="#C63706" d="M69.68,78.916c-0.451-0.123-0.876-0.305-1.274-0.545s-0.747-0.537-1.046-0.893
		c-0.299-0.354-0.536-0.764-0.712-1.23c-0.176-0.465-0.264-0.988-0.264-1.568c0-0.615,0.123-1.191,0.369-1.727
		c0.246-0.537,0.595-1.004,1.046-1.402s0.996-0.712,1.635-0.94s1.351-0.343,2.136-0.343h6.012v2.417h-1.239v14.089h-2.575V72.684
		h-1.512v14.089H69.68V78.916z"/>
</g>
<g>
	<path fill="#398EB0" d="M69.68,191.249c-0.451-0.123-0.876-0.305-1.274-0.545s-0.747-0.537-1.046-0.893
		c-0.299-0.354-0.536-0.764-0.712-1.23c-0.176-0.465-0.264-0.988-0.264-1.568c0-0.615,0.123-1.191,0.369-1.727
		c0.246-0.537,0.595-1.004,1.046-1.402s0.996-0.712,1.635-0.94s1.351-0.343,2.136-0.343h6.012v2.417h-1.239v14.089h-2.575v-14.089
		h-1.512v14.089H69.68V191.249z"/>
</g>
<g>
	<path fill="#C63706" d="M69.68,302.249c-0.451-0.123-0.876-0.305-1.274-0.545s-0.747-0.537-1.046-0.893
		c-0.299-0.354-0.536-0.764-0.712-1.23c-0.176-0.465-0.264-0.988-0.264-1.568c0-0.615,0.123-1.191,0.369-1.727
		c0.246-0.537,0.595-1.004,1.046-1.402s0.996-0.712,1.635-0.94s1.351-0.343,2.136-0.343h6.012v2.417h-1.239v14.089h-2.575v-14.089
		h-1.512v14.089H69.68V302.249z"/>
</g>
<g>
	<path fill="#398EB0" d="M69.68,413.249c-0.451-0.123-0.876-0.305-1.274-0.545s-0.747-0.537-1.046-0.893
		c-0.299-0.354-0.536-0.764-0.712-1.23c-0.176-0.465-0.264-0.988-0.264-1.568c0-0.615,0.123-1.191,0.369-1.727
		c0.246-0.537,0.595-1.004,1.046-1.402s0.996-0.712,1.635-0.94s1.351-0.343,2.136-0.343h6.012v2.417h-1.239v14.089h-2.575v-14.089
		h-1.512v14.089H69.68V413.249z"/>
</g>
<g>
	<g>
		<polygon fill="#7C5904" points="217.402,82.017 79.332,82.017 79.332,74.818 217.402,74.818 221.55,78.417 		"/>
	</g>
	<g>
		<polygon fill="#7C5904" points="222.793,74.818 360.863,74.818 360.863,82.017 222.793,82.017 226.941,78.417 		"/>
	</g>
</g>
<g>
	<g>
		<polygon fill="#7C5904" points="217.402,151.585 79.332,151.585 79.332,144.386 217.402,144.386 221.55,147.986 		"/>
	</g>
	<g>
		<polygon fill="#7C5904" points="222.793,144.386 360.863,144.386 360.863,151.585 222.793,151.585 226.941,147.986 		"/>
	</g>
</g>
<g>
	<g>
		<polygon fill="#7C5904" points="217.402,165.499 79.332,165.499 79.332,158.3 217.402,158.3 221.55,161.899 		"/>
	</g>
	<g>
		<polygon fill="#7C5904" points="222.793,158.3 360.863,158.3 360.863,165.499 222.793,165.499 226.941,161.899 		"/>
	</g>
</g>
<g>
	<g>
		<polygon fill="#7C5904" points="217.402,95.93 79.332,95.93 79.332,88.731 217.402,88.731 221.55,92.331 		"/>
	</g>
	<g>
		<polygon fill="#7C5904" points="222.793,88.731 360.863,88.731 360.863,95.93 222.793,95.93 226.941,92.331 		"/>
	</g>
</g>
<g>
	<g>
		<polygon fill="#7C5904" points="217.402,109.844 79.332,109.844 79.332,102.645 217.402,102.645 221.55,106.244 		"/>
	</g>
	<g>
		<polygon fill="#7C5904" points="222.793,102.645 360.863,102.645 360.863,109.844 222.793,109.844 226.941,106.244 		"/>
	</g>
</g>
<g>
	<g>
		<polygon fill="#7C5904" points="217.402,123.757 79.332,123.757 79.332,116.557 217.402,116.557 221.55,120.157 		"/>
	</g>
	<g>
		<polygon fill="#7C5904" points="222.793,116.557 360.863,116.557 360.863,123.757 222.793,123.757 226.941,120.157 		"/>
	</g>
</g>
<g>
	<g>
		<polygon fill="#7C5904" points="217.402,137.671 79.332,137.671 79.332,130.471 217.402,130.471 221.55,134.071 		"/>
	</g>
	<g>
		<polygon fill="#7C5904" points="222.793,130.471 360.863,130.471 360.863,137.671 222.793,137.671 226.941,134.071 		"/>
	</g>
</g>
<g>
	<g>
		<polygon fill="#7C5904" points="217.402,415.948 79.332,415.948 79.332,408.749 217.402,408.749 221.55,412.348 		"/>
	</g>
	<g>
		<polygon fill="#7C5904" points="222.793,408.749 360.863,408.749 360.863,415.948 222.793,415.948 226.941,412.348 		"/>
	</g>
</g>
<g>
	<g>
		<polygon fill="#7C5904" points="217.402,429.862 79.332,429.862 79.332,422.663 217.402,422.663 221.55,426.262 		"/>
	</g>
	<g>
		<polygon fill="#7C5904" points="222.793,422.663 360.863,422.663 360.863,429.862 222.793,429.862 226.941,426.262 		"/>
	</g>
</g>
<g>
	<g>
		<polygon fill="#7C5904" points="217.402,443.775 79.332,443.775 79.332,436.576 217.402,436.576 221.55,440.175 		"/>
	</g>
	<g>
		<polygon fill="#7C5904" points="222.793,436.576 360.863,436.576 360.863,443.775 222.793,443.775 226.941,440.175 		"/>
	</g>
</g>
<g>
	<rect x="79.229" y="172.213" fill="#7C5904" width="142.488" height="7.199"/>
</g>
<g>
	<g>
		<g>
			<polygon fill="#7C5904" points="217.402,193.517 79.332,193.517 79.332,186.318 217.402,186.318 221.55,189.917 			"/>
		</g>
		<g>
			<polygon fill="#7C5904" points="222.793,186.318 360.863,186.318 360.863,193.517 222.793,193.517 226.941,189.917 			"/>
		</g>
	</g>
	<g>
		<g>
			<polygon fill="#7C5904" points="217.402,263.085 79.332,263.085 79.332,255.886 217.402,255.886 221.55,259.486 			"/>
		</g>
		<g>
			<polygon fill="#7C5904" points="222.793,255.886 360.863,255.886 360.863,263.085 222.793,263.085 226.941,259.486 			"/>
		</g>
	</g>
	<g>
		<g>
			<polygon fill="#7C5904" points="217.402,276.81 79.332,276.81 79.332,269.611 217.402,269.611 221.55,273.21 			"/>
		</g>
		<g>
			<polygon fill="#7C5904" points="222.793,269.611 360.863,269.611 360.863,276.81 222.793,276.81 226.941,273.21 			"/>
		</g>
	</g>
	<g>
		<g>
			<polygon fill="#7C5904" points="217.402,207.43 79.332,207.43 79.332,200.231 217.402,200.231 221.55,203.831 			"/>
		</g>
		<g>
			<polygon fill="#7C5904" points="222.793,200.231 360.863,200.231 360.863,207.43 222.793,207.43 226.941,203.831 			"/>
		</g>
	</g>
	<g>
		<g>
			<polygon fill="#7C5904" points="217.402,221.344 79.332,221.344 79.332,214.145 217.402,214.145 221.55,217.744 			"/>
		</g>
		<g>
			<polygon fill="#7C5904" points="222.793,214.145 360.863,214.145 360.863,221.344 222.793,221.344 226.941,217.744 			"/>
		</g>
	</g>
	<g>
		<g>
			<polygon fill="#7C5904" points="217.402,235.257 79.332,235.257 79.332,228.057 217.402,228.057 221.55,231.657 			"/>
		</g>
		<g>
			<polygon fill="#7C5904" points="222.793,228.057 360.863,228.057 360.863,235.257 222.793,235.257 226.941,231.657 			"/>
		</g>
	</g>
	<g>
		<g>
			<polygon fill="#7C5904" points="217.402,249.171 79.332,249.171 79.332,241.971 217.402,241.971 221.55,245.571 			"/>
		</g>
		<g>
			<polygon fill="#7C5904" points="222.793,241.971 360.863,241.971 360.863,249.171 222.793,249.171 226.941,245.571 			"/>
		</g>
	</g>
	<g>
		<rect x="79.229" y="283.525" fill="#7C5904" width="142.488" height="7.199"/>
	</g>
</g>
<g>
	<g>
		<polygon fill="#7C5904" points="217.402,304.637 79.332,304.637 79.332,297.438 217.402,297.438 221.55,301.037 		"/>
	</g>
	<g>
		<polygon fill="#7C5904" points="222.793,297.438 360.863,297.438 360.863,304.637 222.793,304.637 226.941,301.037 		"/>
	</g>
</g>
<g>
	<g>
		<polygon fill="#7C5904" points="217.402,374.205 79.332,374.205 79.332,367.006 217.402,367.006 221.55,370.605 		"/>
	</g>
	<g>
		<polygon fill="#7C5904" points="222.793,367.006 360.863,367.006 360.863,374.205 222.793,374.205 226.941,370.605 		"/>
	</g>
</g>
<g>
	<g>
		<polygon fill="#7C5904" points="217.402,387.93 79.332,387.93 79.332,380.73 217.402,380.73 221.55,384.33 		"/>
	</g>
	<g>
		<polygon fill="#7C5904" points="222.793,380.73 360.863,380.73 360.863,387.93 222.793,387.93 226.941,384.33 		"/>
	</g>
</g>
<g>
	<g>
		<polygon fill="#7C5904" points="217.402,318.55 79.332,318.55 79.332,311.351 217.402,311.351 221.55,314.95 		"/>
	</g>
	<g>
		<polygon fill="#7C5904" points="222.793,311.351 360.863,311.351 360.863,318.55 222.793,318.55 226.941,314.95 		"/>
	</g>
</g>
<g>
	<g>
		<polygon fill="#7C5904" points="217.402,332.464 79.332,332.464 79.332,325.265 217.402,325.265 221.55,328.863 		"/>
	</g>
	<g>
		<polygon fill="#7C5904" points="222.793,325.265 360.863,325.265 360.863,332.464 222.793,332.464 226.941,328.863 		"/>
	</g>
</g>
<g>
	<g>
		<polygon fill="#7C5904" points="217.402,346.377 79.332,346.377 79.332,339.177 217.402,339.177 221.55,342.776 		"/>
	</g>
	<g>
		<polygon fill="#7C5904" points="222.793,339.177 360.863,339.177 360.863,346.377 222.793,346.377 226.941,342.776 		"/>
	</g>
</g>
<g>
	<g>
		<polygon fill="#7C5904" points="217.402,360.291 79.332,360.291 79.332,353.091 217.402,353.091 221.55,356.69 		"/>
	</g>
	<g>
		<polygon fill="#7C5904" points="222.793,353.091 360.863,353.091 360.863,360.291 222.793,360.291 226.941,356.69 		"/>
	</g>
</g>
<g>
	<rect x="79.229" y="394.645" fill="#7C5904" width="142.488" height="7.199"/>
</g>
<g>
	<rect x="79.229" y="450.49" fill="#7C5904" width="142.488" height="7.199"/>
</g>
<g>
	<polygon fill="#7C5904" points="79.125,60.903 217.196,60.903 217.196,68.102 79.125,68.102 83.274,64.502 	"/>
</g>
</svg>
