<?xml version="1.0" encoding="utf-8"?>
<!-- Generator: Adobe Illustrator 16.0.4, SVG Export Plug-In . SVG Version: 6.00 Build 0)  -->
<!DOCTYPE svg PUBLIC "-//W3C//DTD SVG 1.1//EN" "http://www.w3.org/Graphics/SVG/1.1/DTD/svg11.dtd">
<svg version="1.1" id="Layer_1" xmlns="http://www.w3.org/2000/svg" xmlns:xlink="http://www.w3.org/1999/xlink" x="0px" y="0px"
	 width="448.746px" height="616.44px" viewBox="0 0 448.746 616.44" enable-background="new 0 0 448.746 616.44"
	 xml:space="preserve">
<rect x="0.5" y="0.5" fill="#FFFFFF" stroke="#C68D06" stroke-miterlimit="10" width="447.746" height="615.44"/>
<g>
	<path fill="#C68D06" d="M338.703,577.793l1.855-1.33c1.891,2.836,4.2,3.991,7.07,3.991c3.815,0,6.161-2.101,6.161-5.286
		c0-3.815-2.24-5.705-8.331-5.705h-0.979v-2.136h1.189c5.496,0,7.561-1.68,7.561-4.865c0-2.591-1.575-4.516-5.495-4.516
		c-2.625,0-4.655,1.295-6.16,3.15l-1.716-1.436c1.855-2.24,4.516-3.92,8.016-3.92c5.461,0,7.771,3.115,7.771,6.476
		c0,3.325-1.961,5.53-5.11,6.126c3.85,0.805,5.705,3.01,5.705,6.825c0,4.235-3.325,7.456-8.646,7.456
		C343.814,582.625,340.628,580.875,338.703,577.793z"/>
	<path fill="#C68D06" d="M363.517,581.574c0-3.745,1.855-7.175,8.682-11.551c3.885-2.485,5.46-4.235,5.46-7.036
		c0-3.045-1.89-5.04-5.285-5.04c-2.835,0-4.9,1.47-6.44,4.48l-1.961-1.155c1.82-3.5,4.691-5.53,8.506-5.53
		c4.691,0,7.597,2.94,7.597,7.105c0,3.535-1.716,5.775-6.687,8.926c-4.69,2.976-6.965,5.775-7.141,8.121h13.932v2.24h-16.662
		V581.574z"/>
	<path fill="#C68D06" d="M389.208,556.232h8.681c5.776,0,8.996,2.45,8.996,7c0,4.201-2.45,6.301-6.195,7.001l6.546,11.901h-2.801
		l-6.336-11.621h-6.44v11.621h-2.45V556.232z M397.713,568.308c4.271,0,6.686-1.226,6.686-4.971c0-3.57-2.38-4.831-6.721-4.831
		h-6.021v9.802H397.713z"/>
</g>
<g>
	<rect x="80.049" y="157.967" fill="#C0DDE7" width="281.738" height="7.199"/>
</g>
<g>
	<rect x="80.049" y="171.88" fill="#C0DDE7" width="281.738" height="7.199"/>
</g>
<g>
	<rect x="80.049" y="185.794" fill="#C0DDE7" width="281.738" height="7.2"/>
</g>
<g>
	<rect x="80.049" y="199.708" fill="#C0DDE7" width="281.738" height="7.199"/>
</g>
<g>
	<rect x="80.049" y="213.622" fill="#C0DDE7" width="281.738" height="7.199"/>
</g>
<g>
	<rect x="80.049" y="227.535" fill="#C0DDE7" width="281.738" height="7.2"/>
</g>
<g>
	<rect x="80.049" y="241.45" fill="#C0DDE7" width="281.738" height="7.199"/>
</g>
<g>
	<rect x="80.049" y="255.363" fill="#C0DDE7" width="281.738" height="7.2"/>
</g>
<g>
	<rect x="80.049" y="269.277" fill="#C0DDE7" width="281.738" height="7.199"/>
</g>
<g>
	<rect x="80.049" y="297.104" fill="#C0DDE7" width="281.738" height="7.2"/>
</g>
<g>
	<rect x="80.049" y="311.019" fill="#C0DDE7" width="281.738" height="7.2"/>
</g>
<g>
	<rect x="80.049" y="324.933" fill="#C0DDE7" width="281.738" height="7.199"/>
</g>
<g>
	<rect x="80.049" y="338.846" fill="#C0DDE7" width="281.738" height="7.2"/>
</g>
<g>
	<rect x="80.049" y="352.76" fill="#C0DDE7" width="281.738" height="7.2"/>
</g>
<g>
	<rect x="80.049" y="366.674" fill="#C0DDE7" width="281.738" height="7.2"/>
</g>
<g>
	<rect x="80.049" y="380.588" fill="#C0DDE7" width="281.738" height="7.199"/>
</g>
<g>
	<rect x="80.049" y="394.502" fill="#C0DDE7" width="281.738" height="7.199"/>
</g>
<g>
	<rect x="80.049" y="408.416" fill="#C0DDE7" width="281.738" height="7.199"/>
</g>
<g>
	<rect x="80.049" y="422.329" fill="#C0DDE7" width="281.738" height="7.2"/>
</g>
<g>
	<rect x="80.049" y="436.243" fill="#C0DDE7" width="281.738" height="7.2"/>
</g>
<g>
	<rect x="80.049" y="450.157" fill="#C0DDE7" width="281.738" height="7.199"/>
</g>
<g>
	<rect x="80.049" y="464.071" fill="#C0DDE7" width="281.738" height="7.199"/>
</g>
<g>
	<rect x="80.049" y="477.984" fill="#C0DDE7" width="281.738" height="7.2"/>
</g>
<g>
	<rect x="80.049" y="60.569" fill="#C0DDE7" width="281.738" height="7.2"/>
</g>
<g>
	<rect x="80.049" y="74.483" fill="#C0DDE7" width="281.738" height="7.2"/>
</g>
<g>
	<rect x="80.049" y="144.053" fill="#C0DDE7" width="281.738" height="7.199"/>
</g>
<g>
	<rect x="80.049" y="88.397" fill="#C0DDE7" width="281.738" height="7.199"/>
</g>
<g>
	<rect x="80.049" y="102.311" fill="#C0DDE7" width="281.738" height="7.2"/>
</g>
<g>
	<rect x="80.049" y="116.225" fill="#C0DDE7" width="281.738" height="7.199"/>
</g>
<g>
	<rect x="80.049" y="130.139" fill="#C0DDE7" width="281.738" height="7.199"/>
</g>
<g>
	<path fill="#C63706" d="M67.676,287.541h1.696l-0.764-2.448h-5.233l-0.764,2.448h1.797v3.077h-6.458v-3.077h1.269l4.638-13.948
		h4.503l4.537,13.948h1.235v3.077h-6.458V287.541z M64.262,282.217h3.437l-1.729-5.537L64.262,282.217z"/>
</g>
<g>
	<g>
		<g>
			<g>
				<polygon fill="#7C5904" points="218.327,67.77 80.256,67.77 80.256,60.57 218.327,60.57 222.475,64.17 				"/>
			</g>
			<g>
				<polygon fill="#7C5904" points="223.717,60.57 361.788,60.57 361.788,67.77 223.717,67.77 227.865,64.17 				"/>
			</g>
		</g>
		<g>
			<g>
				<polygon fill="#7C5904" points="218.327,151.252 80.256,151.252 80.256,144.053 218.327,144.053 222.475,147.653 				"/>
			</g>
			<g>
				<polygon fill="#7C5904" points="223.717,144.053 361.788,144.053 361.788,151.252 223.717,151.252 227.865,147.653 				"/>
			</g>
		</g>
		<g>
			<g>
				<polygon fill="#7C5904" points="218.327,95.598 80.256,95.598 80.256,88.398 218.327,88.398 222.475,91.998 				"/>
			</g>
			<g>
				<polygon fill="#7C5904" points="223.717,88.398 361.788,88.398 361.788,95.598 223.717,95.598 227.865,91.998 				"/>
			</g>
		</g>
		<g>
			<g>
				<polygon fill="#7C5904" points="218.327,81.683 80.256,81.683 80.256,74.483 218.327,74.483 222.475,78.082 				"/>
			</g>
			<g>
				<polygon fill="#7C5904" points="223.717,74.483 361.788,74.483 361.788,81.683 223.717,81.683 227.865,78.082 				"/>
			</g>
		</g>
		<g>
			<g>
				<polygon fill="#7C5904" points="218.327,109.512 80.256,109.512 80.256,102.312 218.327,102.312 222.475,105.912 				"/>
			</g>
			<g>
				<polygon fill="#7C5904" points="223.717,102.312 361.788,102.312 361.788,109.512 223.717,109.512 227.865,105.912 				"/>
			</g>
		</g>
		<g>
			<g>
				<polygon fill="#7C5904" points="218.327,123.425 80.256,123.425 80.256,116.226 218.327,116.226 222.475,119.825 				"/>
			</g>
			<g>
				<polygon fill="#7C5904" points="223.717,116.226 361.788,116.226 361.788,123.425 223.717,123.425 227.865,119.825 				"/>
			</g>
		</g>
		<g>
			<g>
				<polygon fill="#7C5904" points="218.327,137.339 80.256,137.339 80.256,130.139 218.327,130.139 222.475,133.738 				"/>
			</g>
			<g>
				<polygon fill="#7C5904" points="223.717,130.139 361.788,130.139 361.788,137.339 223.717,137.339 227.865,133.738 				"/>
			</g>
		</g>
	</g>
	<g>
		<path fill="#C63706" d="M67.573,63.873h1.696l-0.764-2.448h-5.233l-0.764,2.448h1.797v3.077h-6.458v-3.077h1.269l4.638-13.948
			h4.503l4.537,13.948h1.235v3.077h-6.458V63.873z M64.159,58.549h3.437l-1.729-5.537L64.159,58.549z"/>
	</g>
</g>
<g>
	<g>
		<path fill="#398EB0" d="M69.153,166.77c-0.419-0.6-0.797-1.024-1.134-1.275s-0.7-0.431-1.089-0.539s-0.797-0.162-1.224-0.162
			c-0.629,0-1.213,0.14-1.752,0.421c-0.539,0.28-1.005,0.662-1.398,1.146c-0.394,0.482-0.702,1.044-0.927,1.685
			c-0.225,0.64-0.337,1.319-0.337,2.038c0,0.727,0.11,1.409,0.331,2.05c0.221,0.64,0.526,1.199,0.916,1.679s0.854,0.859,1.393,1.14
			c0.539,0.281,1.13,0.421,1.774,0.421c0.449,0,0.869-0.072,1.258-0.219c0.389-0.146,0.743-0.339,1.061-0.578
			c0.318-0.239,0.597-0.515,0.837-0.825s0.427-0.635,0.562-0.972l3.616,1.011c-0.232,0.733-0.573,1.413-1.022,2.038
			s-0.99,1.166-1.623,1.623c-0.633,0.457-1.344,0.816-2.134,1.078c-0.79,0.262-1.642,0.393-2.555,0.393
			c-0.771,0-1.509-0.104-2.212-0.314c-0.704-0.209-1.361-0.505-1.971-0.887c-0.61-0.382-1.165-0.842-1.662-1.381
			c-0.498-0.539-0.923-1.137-1.275-1.792s-0.625-1.358-0.82-2.111c-0.195-0.752-0.292-1.536-0.292-2.353
			c0-1.221,0.213-2.364,0.64-3.431c0.427-1.067,1.011-1.999,1.752-2.797c0.741-0.797,1.612-1.426,2.611-1.887
			c1-0.46,2.076-0.69,3.229-0.69c0.921,0,1.696,0.114,2.325,0.343s1.321,0.679,2.078,1.353h2.516v3.797H69.153z"/>
	</g>
	<g>
		<g>
			<g>
				<polygon fill="#7C5904" points="218.223,192.995 80.152,192.995 80.152,185.795 218.223,185.795 222.371,189.395 				"/>
			</g>
			<g>
				<polygon fill="#7C5904" points="223.613,185.795 361.684,185.795 361.684,192.995 223.613,192.995 227.761,189.395 				"/>
			</g>
		</g>
		<g>
			<g>
				<polygon fill="#7C5904" points="218.223,179.081 80.152,179.081 80.152,171.882 218.223,171.882 222.371,175.481 				"/>
			</g>
			<g>
				<polygon fill="#7C5904" points="223.613,171.882 361.684,171.882 361.684,179.081 223.613,179.081 227.761,175.481 				"/>
			</g>
		</g>
		<g>
			<g>
				<polygon fill="#7C5904" points="218.223,206.908 80.152,206.908 80.152,199.709 218.223,199.709 222.371,203.308 				"/>
			</g>
			<g>
				<polygon fill="#7C5904" points="223.613,199.709 361.684,199.709 361.684,206.908 223.613,206.908 227.761,203.308 				"/>
			</g>
		</g>
		<g>
			<g>
				<polygon fill="#7C5904" points="218.223,234.735 80.152,234.735 80.152,227.536 218.223,227.536 222.371,231.135 				"/>
			</g>
			<g>
				<polygon fill="#7C5904" points="223.613,227.536 361.684,227.536 361.684,234.735 223.613,234.735 227.761,231.135 				"/>
			</g>
		</g>
		<g>
			<g>
				<polygon fill="#7C5904" points="218.327,220.822 80.256,220.822 80.256,213.623 218.327,213.623 222.475,217.223 				"/>
			</g>
			<g>
				<polygon fill="#7C5904" points="223.717,213.623 361.788,213.623 361.788,220.822 223.717,220.822 227.865,217.223 				"/>
			</g>
		</g>
		<g>
			<g>
				<polygon fill="#7C5904" points="218.223,248.65 80.152,248.65 80.152,241.451 218.223,241.451 222.371,245.05 				"/>
			</g>
			<g>
				<polygon fill="#7C5904" points="223.613,241.451 361.684,241.451 361.684,248.65 223.613,248.65 227.761,245.05 				"/>
			</g>
		</g>
		<g>
			<g>
				<polygon fill="#7C5904" points="218.223,262.563 80.152,262.563 80.152,255.364 218.223,255.364 222.371,258.963 				"/>
			</g>
			<g>
				<polygon fill="#7C5904" points="223.613,255.364 361.684,255.364 361.684,262.563 223.613,262.563 227.761,258.963 				"/>
			</g>
		</g>
	</g>
</g>
<g>
	<g>
		<g>
			<rect x="80.049" y="283.191" fill="#C0DDE7" width="281.738" height="7.2"/>
		</g>
		<g>
			<rect x="229.86" y="283.191" fill="#7C5904" width="131.928" height="7.201"/>
		</g>
		<g>
			<rect x="80.049" y="283.191" fill="#7C5904" width="131.928" height="7.201"/>
		</g>
		<g>
			<g>
				<rect x="229.86" y="297.104" fill="#7C5904" width="131.928" height="7.2"/>
			</g>
			<g>
				<rect x="80.049" y="297.104" fill="#7C5904" width="131.928" height="7.2"/>
			</g>
		</g>
		<g>
			<g>
				<rect x="229.86" y="311.018" fill="#7C5904" width="131.928" height="7.2"/>
			</g>
			<g>
				<rect x="80.049" y="311.018" fill="#7C5904" width="131.928" height="7.2"/>
			</g>
		</g>
		<g>
			<g>
				<rect x="229.86" y="324.932" fill="#7C5904" width="131.928" height="7.2"/>
			</g>
			<g>
				<rect x="80.049" y="324.932" fill="#7C5904" width="131.928" height="7.2"/>
			</g>
		</g>
		<g>
			<g>
				<rect x="229.86" y="338.845" fill="#7C5904" width="131.928" height="7.2"/>
			</g>
			<g>
				<rect x="80.049" y="338.845" fill="#7C5904" width="131.928" height="7.2"/>
			</g>
		</g>
		<g>
			<g>
				<rect x="229.86" y="352.76" fill="#7C5904" width="131.928" height="7.2"/>
			</g>
			<g>
				<rect x="80.049" y="352.76" fill="#7C5904" width="131.928" height="7.2"/>
			</g>
		</g>
		<g>
			<g>
				<rect x="229.86" y="366.673" fill="#7C5904" width="131.928" height="7.201"/>
			</g>
			<g>
				<rect x="80.049" y="366.673" fill="#7C5904" width="131.928" height="7.201"/>
			</g>
		</g>
		<g>
			<g>
				<rect x="229.86" y="380.587" fill="#7C5904" width="131.928" height="7.201"/>
			</g>
			<g>
				<rect x="80.049" y="380.587" fill="#7C5904" width="131.928" height="7.201"/>
			</g>
		</g>
		<g>
			<g>
				<rect x="229.86" y="394.501" fill="#7C5904" width="131.928" height="7.2"/>
			</g>
			<g>
				<rect x="80.049" y="394.501" fill="#7C5904" width="131.928" height="7.2"/>
			</g>
		</g>
		<g>
			<g>
				<rect x="229.86" y="408.415" fill="#7C5904" width="131.928" height="7.201"/>
			</g>
			<g>
				<rect x="80.049" y="408.415" fill="#7C5904" width="131.928" height="7.201"/>
			</g>
		</g>
		<g>
			<g>
				<rect x="229.86" y="422.329" fill="#7C5904" width="131.928" height="7.2"/>
			</g>
			<g>
				<rect x="80.049" y="422.329" fill="#7C5904" width="131.928" height="7.2"/>
			</g>
		</g>
		<g>
			<g>
				<rect x="229.86" y="436.244" fill="#7C5904" width="131.928" height="7.199"/>
			</g>
			<g>
				<rect x="80.049" y="436.244" fill="#7C5904" width="131.928" height="7.199"/>
			</g>
		</g>
		<g>
			<g>
				<rect x="229.86" y="450.157" fill="#7C5904" width="131.928" height="7.2"/>
			</g>
			<g>
				<rect x="80.049" y="450.157" fill="#7C5904" width="131.928" height="7.2"/>
			</g>
		</g>
		<g>
			<g>
				<rect x="229.86" y="464.07" fill="#7C5904" width="131.928" height="7.2"/>
			</g>
			<g>
				<rect x="80.049" y="464.07" fill="#7C5904" width="131.928" height="7.2"/>
			</g>
		</g>
	</g>
	<g>
		<g>
			<polygon fill="#7C5904" points="357.37,485.311 361.518,481.711 357.37,478.112 229.86,478.112 229.86,485.311 			"/>
		</g>
		<g>
			<rect x="80.049" y="477.984" fill="#7C5904" width="131.928" height="7.2"/>
		</g>
	</g>
</g>
<g>
	<path fill="#C63706" d="M220.014,329.459c-0.451-0.123-0.876-0.305-1.274-0.545s-0.747-0.537-1.046-0.893
		c-0.299-0.354-0.536-0.764-0.712-1.23c-0.176-0.465-0.264-0.988-0.264-1.568c0-0.615,0.123-1.191,0.369-1.727
		c0.246-0.537,0.595-1.004,1.046-1.402s0.996-0.712,1.635-0.94s1.351-0.343,2.136-0.343h6.012v2.417h-1.239v14.089h-2.575v-14.089
		h-1.512v14.089h-2.575V329.459z"/>
</g>
<g>
	<path fill="#398EB0" d="M220.014,412.792c-0.451-0.123-0.876-0.305-1.274-0.545s-0.747-0.537-1.046-0.893
		c-0.299-0.354-0.536-0.764-0.712-1.23c-0.176-0.465-0.264-0.988-0.264-1.568c0-0.615,0.123-1.191,0.369-1.727
		c0.246-0.537,0.595-1.004,1.046-1.402s0.996-0.712,1.635-0.94s1.351-0.343,2.136-0.343h6.012v2.417h-1.239v14.089h-2.575v-14.089
		h-1.512v14.089h-2.575V412.792z"/>
</g>
<g>
	<path fill="#C63706" d="M70.346,371.459c-0.451-0.123-0.876-0.305-1.274-0.545s-0.747-0.537-1.046-0.893
		c-0.299-0.354-0.536-0.764-0.712-1.23c-0.176-0.465-0.264-0.988-0.264-1.568c0-0.615,0.123-1.191,0.369-1.727
		c0.246-0.537,0.595-1.004,1.046-1.402s0.996-0.712,1.635-0.94s1.351-0.343,2.136-0.343h6.012v2.417h-1.239v14.089h-2.575v-14.089
		h-1.512v14.089h-2.575V371.459z"/>
</g>
<g>
	<path fill="#398EB0" d="M70.346,455.125c-0.451-0.123-0.876-0.305-1.274-0.545s-0.747-0.537-1.046-0.893
		c-0.299-0.354-0.536-0.764-0.712-1.23c-0.176-0.465-0.264-0.988-0.264-1.568c0-0.615,0.123-1.191,0.369-1.727
		c0.246-0.537,0.595-1.004,1.046-1.402s0.996-0.712,1.635-0.94s1.351-0.343,2.136-0.343h6.012v2.417h-1.239v14.089h-2.575v-14.089
		h-1.512v14.089h-2.575V455.125z"/>
</g>
</svg>
