<?xml version="1.0" encoding="utf-8"?>
<!-- Generator: Adobe Illustrator 16.0.4, SVG Export Plug-In . SVG Version: 6.00 Build 0)  -->
<!DOCTYPE svg PUBLIC "-//W3C//DTD SVG 1.1//EN" "http://www.w3.org/Graphics/SVG/1.1/DTD/svg11.dtd">
<svg version="1.1" id="Layer_1" xmlns="http://www.w3.org/2000/svg" xmlns:xlink="http://www.w3.org/1999/xlink" x="0px" y="0px"
	 width="448.747px" height="616.44px" viewBox="0 0 448.747 616.44" enable-background="new 0 0 448.747 616.44"
	 xml:space="preserve">
<rect x="0.5" y="0.5" fill="#FFFFFF" stroke="#C68D06" stroke-miterlimit="10" width="447.747" height="615.44"/>
<g>
	<path fill="#C68D06" d="M342.323,575.539l1.855-1.33c1.891,2.836,4.2,3.991,7.07,3.991c3.815,0,6.161-2.101,6.161-5.286
		c0-3.815-2.24-5.705-8.331-5.705H348.1v-2.136h1.189c5.496,0,7.561-1.68,7.561-4.865c0-2.591-1.574-4.516-5.495-4.516
		c-2.625,0-4.655,1.295-6.161,3.15l-1.715-1.436c1.855-2.24,4.516-3.92,8.016-3.92c5.461,0,7.771,3.115,7.771,6.476
		c0,3.325-1.961,5.53-5.111,6.126c3.851,0.805,5.706,3.01,5.706,6.825c0,4.235-3.325,7.456-8.646,7.456
		C347.434,580.37,344.249,578.62,342.323,575.539z"/>
	<path fill="#C68D06" d="M367.139,579.319c0-3.745,1.854-7.175,8.681-11.551c3.885-2.485,5.46-4.235,5.46-7.036
		c0-3.045-1.89-5.04-5.285-5.04c-2.835,0-4.9,1.47-6.44,4.48l-1.961-1.155c1.82-3.5,4.691-5.53,8.507-5.53
		c4.69,0,7.596,2.94,7.596,7.105c0,3.535-1.716,5.775-6.687,8.926c-4.69,2.976-6.965,5.775-7.141,8.121H383.8v2.24h-16.661V579.319z
		"/>
	<path fill="#C68D06" d="M390.763,553.977h2.556l7.735,22.612h0.07l7.771-22.612h2.416l-9.102,26.008h-2.345L390.763,553.977z"/>
</g>
<g>
	<rect x="79.918" y="158.217" fill="#C0DDE7" width="281.739" height="7.199"/>
</g>
<g>
	<rect x="79.884" y="172.13" fill="#C0DDE7" width="281.738" height="7.199"/>
</g>
<g>
	<rect x="79.883" y="186.044" fill="#C0DDE7" width="281.739" height="7.2"/>
</g>
<g>
	<rect x="79.883" y="199.958" fill="#C0DDE7" width="281.739" height="7.199"/>
</g>
<g>
	<rect x="79.883" y="213.872" fill="#C0DDE7" width="281.739" height="7.199"/>
</g>
<g>
	<rect x="79.883" y="227.785" fill="#C0DDE7" width="281.739" height="7.2"/>
</g>
<g>
	<rect x="79.884" y="241.699" fill="#C0DDE7" width="281.738" height="7.199"/>
</g>
<g>
	<rect x="79.884" y="255.612" fill="#C0DDE7" width="281.738" height="7.2"/>
</g>
<g>
	<rect x="79.883" y="269.527" fill="#C0DDE7" width="281.739" height="7.199"/>
</g>
<g>
	<rect x="79.884" y="283.44" fill="#C0DDE7" width="281.738" height="7.2"/>
</g>
<g>
	<rect x="79.883" y="297.354" fill="#C0DDE7" width="281.739" height="7.2"/>
</g>
<g>
	<rect x="79.883" y="311.269" fill="#C0DDE7" width="281.739" height="7.2"/>
</g>
<g>
	<rect x="79.883" y="325.183" fill="#C0DDE7" width="281.739" height="7.199"/>
</g>
<g>
	<rect x="79.884" y="339.096" fill="#C0DDE7" width="281.738" height="7.2"/>
</g>
<g>
	<rect x="79.883" y="353.01" fill="#C0DDE7" width="281.739" height="7.2"/>
</g>
<g>
	<rect x="79.883" y="366.924" fill="#C0DDE7" width="281.739" height="7.2"/>
</g>
<g>
	<rect x="79.883" y="380.838" fill="#C0DDE7" width="281.739" height="7.199"/>
</g>
<g>
	<rect x="79.883" y="394.752" fill="#C0DDE7" width="281.739" height="7.199"/>
</g>
<g>
	<rect x="79.884" y="408.665" fill="#C0DDE7" width="281.738" height="7.199"/>
</g>
<g>
	<rect x="79.883" y="422.579" fill="#C0DDE7" width="281.739" height="7.2"/>
</g>
<g>
	<rect x="79.884" y="436.492" fill="#C0DDE7" width="281.738" height="7.2"/>
</g>
<g>
	<rect x="79.883" y="450.407" fill="#C0DDE7" width="281.739" height="7.199"/>
</g>
<g>
	<rect x="79.884" y="464.32" fill="#C0DDE7" width="281.738" height="7.199"/>
</g>
<g>
	<rect x="79.883" y="478.234" fill="#C0DDE7" width="281.739" height="7.2"/>
</g>
<g>
	<rect x="79.883" y="60.819" fill="#C0DDE7" width="281.739" height="7.2"/>
</g>
<g>
	<rect x="79.884" y="74.733" fill="#C0DDE7" width="281.738" height="7.2"/>
</g>
<g>
	<rect x="79.884" y="144.303" fill="#C0DDE7" width="281.738" height="7.199"/>
</g>
<g>
	<rect x="79.883" y="88.647" fill="#C0DDE7" width="281.739" height="7.199"/>
</g>
<g>
	<rect x="79.884" y="102.561" fill="#C0DDE7" width="281.738" height="7.2"/>
</g>
<g>
	<rect x="79.884" y="116.475" fill="#C0DDE7" width="281.738" height="7.199"/>
</g>
<g>
	<rect x="79.884" y="130.389" fill="#C0DDE7" width="281.738" height="7.199"/>
</g>
<g>
	<g>
		<path fill="#C63706" d="M67.185,273.841h6.469v3.088h-1.381v13.938h-3.729l-7.086-11.006v7.929h1.426v3.077h-6.458v-3.077h1.404
			v-10.86h-1.381v-3.088h5.144l7.042,11.152v-8.064h-1.449V273.841z"/>
	</g>
	<g>
		<g>
			<g>
				<polygon fill="#7C5904" points="218.161,290.642 80.091,290.642 80.091,283.442 218.161,283.442 222.31,287.042 				"/>
			</g>
			<g>
				<polygon fill="#7C5904" points="223.552,283.442 361.622,283.442 361.622,290.642 223.552,290.642 227.699,287.042 				"/>
			</g>
		</g>
		<g>
			<g>
				<polygon fill="#7C5904" points="218.161,304.556 80.091,304.556 80.091,297.356 218.161,297.356 222.31,300.956 				"/>
			</g>
			<g>
				<polygon fill="#7C5904" points="223.552,297.356 361.622,297.356 361.622,304.556 223.552,304.556 227.699,300.956 				"/>
			</g>
		</g>
		<g>
			<g>
				<polygon fill="#7C5904" points="218.161,374.124 80.091,374.124 80.091,366.925 218.161,366.925 222.31,370.524 				"/>
			</g>
			<g>
				<polygon fill="#7C5904" points="223.552,366.925 361.622,366.925 361.622,374.124 223.552,374.124 227.699,370.524 				"/>
			</g>
		</g>
		<g>
			<g>
				<polygon fill="#7C5904" points="218.161,318.469 80.091,318.469 80.091,311.27 218.161,311.27 222.31,314.869 				"/>
			</g>
			<g>
				<polygon fill="#7C5904" points="223.552,311.27 361.622,311.27 361.622,318.469 223.552,318.469 227.699,314.869 				"/>
			</g>
		</g>
		<g>
			<g>
				<polygon fill="#7C5904" points="218.161,332.384 80.091,332.384 80.091,325.185 218.161,325.185 222.31,328.783 				"/>
			</g>
			<g>
				<polygon fill="#7C5904" points="223.552,325.185 361.622,325.185 361.622,332.384 223.552,332.384 227.699,328.783 				"/>
			</g>
		</g>
		<g>
			<g>
				<polygon fill="#7C5904" points="218.161,346.297 80.091,346.297 80.091,339.097 218.161,339.097 222.31,342.696 				"/>
			</g>
			<g>
				<polygon fill="#7C5904" points="223.552,339.097 361.622,339.097 361.622,346.297 223.552,346.297 227.699,342.696 				"/>
			</g>
		</g>
		<g>
			<g>
				<polygon fill="#7C5904" points="218.161,360.211 80.091,360.211 80.091,353.011 218.161,353.011 222.31,356.61 				"/>
			</g>
			<g>
				<polygon fill="#7C5904" points="223.552,353.011 361.622,353.011 361.622,360.211 223.552,360.211 227.699,356.61 				"/>
			</g>
		</g>
	</g>
</g>
<g>
	<path fill="#398EB0" d="M59.773,399.007h7.861c0.876,0,1.681,0.137,2.415,0.41s1.366,0.642,1.898,1.105
		c0.532,0.465,0.947,1,1.247,1.606s0.449,1.239,0.449,1.897c0,0.794-0.118,1.537-0.354,2.229c-0.236,0.692-0.601,1.294-1.095,1.803
		s-1.119,0.911-1.875,1.207s-1.651,0.444-2.684,0.444h-2.37v3.245h1.561v3.077h-7.053v-3.077h1.763v-10.86h-1.763V399.007z
		 M65.265,402.095v4.571h1.539c0.854,0,1.531-0.18,2.033-0.539s0.752-0.929,0.752-1.707c0-0.727-0.236-1.295-0.708-1.707
		s-1.164-0.618-2.078-0.618H65.265z"/>
</g>
<g>
	<g>
		<polygon fill="#7C5904" points="218.161,415.866 80.091,415.866 80.091,408.667 218.161,408.667 222.31,412.267 		"/>
	</g>
	<g>
		<polygon fill="#7C5904" points="223.552,408.667 361.622,408.667 361.622,415.866 223.552,415.866 227.699,412.267 		"/>
	</g>
</g>
<g>
	<g>
		<polygon fill="#7C5904" points="218.161,429.779 80.091,429.779 80.091,422.58 218.161,422.58 222.31,426.18 		"/>
	</g>
	<g>
		<polygon fill="#7C5904" points="223.552,422.58 361.622,422.58 361.622,429.779 223.552,429.779 227.699,426.18 		"/>
	</g>
</g>
<g>
	<g>
		<polygon fill="#7C5904" points="218.161,443.694 80.091,443.694 80.091,436.495 218.161,436.495 222.31,440.094 		"/>
	</g>
	<g>
		<polygon fill="#7C5904" points="223.552,436.495 361.622,436.495 361.622,443.694 223.552,443.694 227.699,440.094 		"/>
	</g>
</g>
<g>
	<g>
		<polygon fill="#7C5904" points="218.161,457.607 80.091,457.607 80.091,450.407 218.161,450.407 222.31,454.007 		"/>
	</g>
	<g>
		<polygon fill="#7C5904" points="223.552,450.407 361.622,450.407 361.622,457.607 223.552,457.607 227.699,454.007 		"/>
	</g>
</g>
<g>
	<g>
		<polygon fill="#7C5904" points="218.161,471.521 80.091,471.521 80.091,464.321 218.161,464.321 222.31,467.921 		"/>
	</g>
	<g>
		<polygon fill="#7C5904" points="223.552,464.321 361.622,464.321 361.622,471.521 223.552,471.521 227.699,467.921 		"/>
	</g>
</g>
<g>
	<path fill="#398EB0" d="M63.069,179.002c-0.958-0.194-1.844-0.552-2.656-1.072c-0.812-0.521-1.517-1.162-2.111-1.926
		c-0.596-0.764-1.06-1.627-1.393-2.589c-0.333-0.962-0.5-1.982-0.5-3.061c0-0.816,0.097-1.601,0.292-2.353
		c0.195-0.753,0.468-1.456,0.82-2.111s0.777-1.251,1.275-1.786c0.498-0.535,1.052-0.993,1.662-1.376
		c0.61-0.381,1.267-0.677,1.971-0.887s1.441-0.314,2.212-0.314s1.51,0.104,2.218,0.314c0.707,0.21,1.366,0.506,1.977,0.887
		c0.61,0.383,1.164,0.841,1.662,1.376c0.498,0.535,0.924,1.131,1.28,1.786c0.355,0.655,0.63,1.358,0.825,2.111
		c0.195,0.752,0.292,1.536,0.292,2.353c0,1.093-0.172,2.126-0.517,3.1s-0.822,1.846-1.432,2.616
		c-0.61,0.771-1.335,1.416-2.173,1.932c-0.838,0.518-1.748,0.861-2.729,1.033c0.232,0.098,0.462,0.204,0.69,0.32
		c0.229,0.116,0.459,0.225,0.691,0.326c0.232,0.101,0.462,0.187,0.691,0.258c0.228,0.071,0.462,0.11,0.702,0.118
		c0.232,0,0.458-0.03,0.679-0.09c0.221-0.06,0.421-0.153,0.601-0.28c0.18-0.128,0.335-0.293,0.466-0.494
		c0.131-0.203,0.219-0.449,0.264-0.742l2.504,1.247c-0.067,0.547-0.223,1.041-0.466,1.482c-0.243,0.441-0.556,0.819-0.938,1.134
		s-0.816,0.559-1.303,0.73s-1.003,0.258-1.55,0.258c-0.442,0-0.885-0.084-1.331-0.252c-0.445-0.169-0.876-0.353-1.291-0.551
		c-0.416-0.198-0.807-0.382-1.174-0.55c-0.367-0.169-0.689-0.253-0.966-0.253c-0.12,0-0.227-0.002-0.32-0.006
		c-0.093-0.004-0.185-0.004-0.275,0s-0.189,0.016-0.297,0.034c-0.109,0.019-0.234,0.054-0.376,0.106L63.069,179.002z
		 M64.641,175.645c0.651,0,1.249-0.141,1.792-0.422c0.542-0.28,1.009-0.662,1.398-1.146c0.389-0.482,0.691-1.044,0.904-1.685
		c0.214-0.64,0.32-1.319,0.32-2.038c0-0.727-0.108-1.411-0.326-2.056c-0.217-0.644-0.522-1.207-0.916-1.689
		c-0.393-0.483-0.859-0.865-1.398-1.146c-0.539-0.281-1.13-0.421-1.774-0.421s-1.235,0.14-1.774,0.421
		c-0.539,0.28-1.003,0.662-1.393,1.146c-0.389,0.482-0.694,1.046-0.916,1.689c-0.221,0.645-0.331,1.329-0.331,2.056
		c0,0.719,0.11,1.398,0.331,2.038c0.221,0.641,0.526,1.202,0.916,1.685c0.389,0.483,0.854,0.865,1.393,1.146
		C63.406,175.504,63.997,175.645,64.641,175.645z"/>
</g>
<g>
	<g>
		<polygon fill="#7C5904" points="218.057,193.245 79.987,193.245 79.987,186.045 218.057,186.045 222.205,189.645 		"/>
	</g>
	<g>
		<polygon fill="#7C5904" points="223.448,186.045 361.518,186.045 361.518,193.245 223.448,193.245 227.596,189.645 		"/>
	</g>
</g>
<g>
	<g>
		<polygon fill="#7C5904" points="218.057,179.331 79.987,179.331 79.987,172.132 218.057,172.132 222.205,175.731 		"/>
	</g>
	<g>
		<polygon fill="#7C5904" points="223.448,172.132 361.518,172.132 361.518,179.331 223.448,179.331 227.596,175.731 		"/>
	</g>
</g>
<g>
	<g>
		<polygon fill="#7C5904" points="218.057,207.158 79.987,207.158 79.987,199.959 218.057,199.959 222.205,203.558 		"/>
	</g>
	<g>
		<polygon fill="#7C5904" points="223.448,199.959 361.518,199.959 361.518,207.158 223.448,207.158 227.596,203.558 		"/>
	</g>
</g>
<g>
	<g>
		<polygon fill="#7C5904" points="218.057,234.985 79.987,234.985 79.987,227.786 218.057,227.786 222.205,231.385 		"/>
	</g>
	<g>
		<polygon fill="#7C5904" points="223.448,227.786 361.518,227.786 361.518,234.985 223.448,234.985 227.596,231.385 		"/>
	</g>
</g>
<g>
	<g>
		<polygon fill="#7C5904" points="218.161,221.072 80.091,221.072 80.091,213.873 218.161,213.873 222.309,217.473 		"/>
	</g>
	<g>
		<polygon fill="#7C5904" points="223.552,213.873 361.622,213.873 361.622,221.072 223.552,221.072 227.7,217.473 		"/>
	</g>
</g>
<g>
	<g>
		<polygon fill="#7C5904" points="218.057,248.9 79.987,248.9 79.987,241.701 218.057,241.701 222.205,245.3 		"/>
	</g>
	<g>
		<polygon fill="#7C5904" points="223.448,241.701 361.518,241.701 361.518,248.9 223.448,248.9 227.596,245.3 		"/>
	</g>
</g>
<g>
	<g>
		<polygon fill="#7C5904" points="218.057,262.813 79.987,262.813 79.987,255.614 218.057,255.614 222.205,259.213 		"/>
	</g>
	<g>
		<polygon fill="#7C5904" points="223.448,255.614 361.518,255.614 361.518,262.813 223.448,262.813 227.596,259.213 		"/>
	</g>
</g>
<g>
	<g>
		<polygon fill="#7C5904" points="217.954,485.435 79.883,485.435 79.883,478.235 217.954,478.235 222.102,481.835 		"/>
	</g>
	<g>
		<polygon fill="#7C5904" points="223.344,478.235 227.492,481.835 223.344,485.435 357.267,485.435 361.415,481.835 
			357.267,478.235 		"/>
	</g>
</g>
<g>
	<rect x="229.694" y="60.691" fill="#7C5904" width="131.928" height="7.201"/>
</g>
<g>
	<polygon fill="#7C5904" points="79.884,60.693 84.032,64.293 79.884,67.893 211.812,67.893 211.812,60.693 	"/>
</g>
<g>
	<g>
		<rect x="229.694" y="74.605" fill="#7C5904" width="131.928" height="7.2"/>
	</g>
	<g>
		<rect x="79.884" y="74.605" fill="#7C5904" width="131.928" height="7.2"/>
	</g>
</g>
<g>
	<g>
		<rect x="229.694" y="88.521" fill="#7C5904" width="131.928" height="7.199"/>
	</g>
	<g>
		<rect x="79.884" y="88.521" fill="#7C5904" width="131.928" height="7.199"/>
	</g>
</g>
<g>
	<rect x="79.884" y="102.434" fill="#7C5904" width="131.928" height="7.2"/>
</g>
<g>
	<rect x="79.884" y="116.347" fill="#7C5904" width="131.928" height="7.2"/>
</g>
<g>
	<rect x="79.884" y="130.261" fill="#7C5904" width="131.928" height="7.2"/>
</g>
<g>
	<path fill="#C63706" d="M69.819,65.9c-0.451-0.123-0.876-0.305-1.274-0.545s-0.747-0.537-1.046-0.893
		c-0.299-0.354-0.536-0.764-0.712-1.23c-0.176-0.465-0.264-0.988-0.264-1.568c0-0.615,0.123-1.191,0.369-1.727
		c0.246-0.537,0.595-1.004,1.046-1.402s0.996-0.712,1.635-0.94s1.351-0.343,2.136-0.343h6.012v2.417h-1.239v14.089h-2.575V59.668
		h-1.512v14.089h-2.575V65.9z"/>
</g>
</svg>
