<?xml version="1.0" encoding="utf-8"?>
<!-- Generator: Adobe Illustrator 16.0.4, SVG Export Plug-In . SVG Version: 6.00 Build 0)  -->
<!DOCTYPE svg PUBLIC "-//W3C//DTD SVG 1.1//EN" "http://www.w3.org/Graphics/SVG/1.1/DTD/svg11.dtd">
<svg version="1.1" id="Layer_1" xmlns="http://www.w3.org/2000/svg" xmlns:xlink="http://www.w3.org/1999/xlink" x="0px" y="0px"
	 width="448.747px" height="616.439px" viewBox="0 0 448.747 616.439" enable-background="new 0 0 448.747 616.439"
	 xml:space="preserve">
<rect x="0.5" y="0.5" fill="#FFFFFF" stroke="#C68D06" stroke-miterlimit="10" width="447.747" height="615.439"/>
<g>
	<path fill="#C68D06" d="M340.031,577.792l1.855-1.331c1.891,2.836,4.2,3.992,7.07,3.992c3.815,0,6.161-2.101,6.161-5.286
		c0-3.816-2.24-5.706-8.331-5.706h-0.979v-2.135h1.189c5.496,0,7.561-1.679,7.561-4.866c0-2.59-1.575-4.515-5.495-4.515
		c-2.625,0-4.655,1.295-6.16,3.15l-1.716-1.435c1.855-2.241,4.516-3.92,8.016-3.92c5.461,0,7.771,3.115,7.771,6.476
		c0,3.325-1.961,5.53-5.11,6.126c3.85,0.805,5.705,3.009,5.705,6.825c0,4.235-3.325,7.456-8.646,7.456
		C345.143,582.624,341.957,580.874,340.031,577.792z"/>
	<path fill="#C68D06" d="M364.216,577.792l1.855-1.331c1.891,2.836,4.2,3.992,7.07,3.992c3.815,0,6.161-2.101,6.161-5.286
		c0-3.816-2.24-5.706-8.331-5.706h-0.979v-2.135h1.189c5.496,0,7.561-1.679,7.561-4.866c0-2.59-1.574-4.515-5.495-4.515
		c-2.625,0-4.655,1.295-6.161,3.15l-1.715-1.435c1.855-2.241,4.516-3.92,8.016-3.92c5.461,0,7.771,3.115,7.771,6.476
		c0,3.325-1.961,5.53-5.111,6.126c3.851,0.805,5.706,3.009,5.706,6.825c0,4.235-3.325,7.456-8.646,7.456
		C369.326,582.624,366.142,580.874,364.216,577.792z"/>
	<path fill="#C68D06" d="M388.61,556.231h2.556l7.735,22.612h0.07l7.771-22.612h2.416l-9.102,26.008h-2.345L388.61,556.231z"/>
</g>
<g>
	<rect x="80.216" y="157.966" fill="#C0DDE7" width="281.738" height="7.199"/>
</g>
<g>
	<rect x="80.216" y="171.879" fill="#C0DDE7" width="281.738" height="7.2"/>
</g>
<g>
	<rect x="80.216" y="185.793" fill="#C0DDE7" width="281.738" height="7.2"/>
</g>
<g>
	<rect x="80.216" y="199.708" fill="#C0DDE7" width="281.738" height="7.199"/>
</g>
<g>
	<rect x="80.216" y="213.622" fill="#C0DDE7" width="281.738" height="7.199"/>
</g>
<g>
	<rect x="80.216" y="227.535" fill="#C0DDE7" width="281.738" height="7.199"/>
</g>
<g>
	<rect x="80.216" y="241.449" fill="#C0DDE7" width="281.738" height="7.199"/>
</g>
<g>
	<rect x="80.216" y="255.362" fill="#C0DDE7" width="281.738" height="7.2"/>
</g>
<g>
	<rect x="80.216" y="269.276" fill="#C0DDE7" width="281.738" height="7.199"/>
</g>
<g>
	<rect x="80.216" y="283.19" fill="#C0DDE7" width="281.738" height="7.2"/>
</g>
<g>
	<rect x="80.216" y="297.104" fill="#C0DDE7" width="281.738" height="7.2"/>
</g>
<g>
	<rect x="80.216" y="311.018" fill="#C0DDE7" width="281.738" height="7.2"/>
</g>
<g>
	<rect x="80.216" y="324.932" fill="#C0DDE7" width="281.738" height="7.199"/>
</g>
<g>
	<rect x="80.216" y="338.845" fill="#C0DDE7" width="281.738" height="7.2"/>
</g>
<g>
	<rect x="80.216" y="352.759" fill="#C0DDE7" width="281.738" height="7.201"/>
</g>
<g>
	<rect x="80.216" y="366.673" fill="#C0DDE7" width="281.738" height="7.2"/>
</g>
<g>
	<rect x="80.216" y="380.587" fill="#C0DDE7" width="281.738" height="7.199"/>
</g>
<g>
	<rect x="80.216" y="394.501" fill="#C0DDE7" width="281.738" height="7.199"/>
</g>
<g>
	<rect x="80.216" y="408.415" fill="#C0DDE7" width="281.738" height="7.199"/>
</g>
<g>
	<rect x="80.216" y="422.328" fill="#C0DDE7" width="281.738" height="7.2"/>
</g>
<g>
	<rect x="80.216" y="436.242" fill="#C0DDE7" width="281.738" height="7.201"/>
</g>
<g>
	<rect x="80.216" y="450.156" fill="#C0DDE7" width="281.738" height="7.2"/>
</g>
<g>
	<rect x="80.216" y="464.07" fill="#C0DDE7" width="281.738" height="7.199"/>
</g>
<g>
	<rect x="80.216" y="477.983" fill="#C0DDE7" width="281.738" height="7.201"/>
</g>
<g>
	<rect x="80.216" y="60.568" fill="#C0DDE7" width="281.738" height="7.2"/>
</g>
<g>
	<rect x="80.216" y="74.482" fill="#C0DDE7" width="281.738" height="7.201"/>
</g>
<g>
	<rect x="80.216" y="144.052" fill="#C0DDE7" width="281.738" height="7.2"/>
</g>
<g>
	<rect x="80.216" y="88.396" fill="#C0DDE7" width="281.738" height="7.199"/>
</g>
<g>
	<rect x="80.216" y="102.31" fill="#C0DDE7" width="281.738" height="7.201"/>
</g>
<g>
	<rect x="80.216" y="116.224" fill="#C0DDE7" width="281.738" height="7.199"/>
</g>
<g>
	<rect x="80.216" y="130.139" fill="#C0DDE7" width="281.738" height="7.198"/>
</g>
<g>
	<g>
		<g>
			<path fill="#C63706" d="M63.609,290.752c-0.958-0.195-1.844-0.552-2.656-1.073c-0.812-0.52-1.517-1.162-2.111-1.926
				c-0.596-0.763-1.06-1.626-1.393-2.588c-0.333-0.962-0.5-1.982-0.5-3.061c0-0.816,0.097-1.601,0.292-2.352
				c0.195-0.753,0.468-1.457,0.82-2.112c0.352-0.655,0.777-1.251,1.275-1.786c0.498-0.535,1.052-0.993,1.662-1.376
				c0.61-0.381,1.267-0.677,1.971-0.887s1.441-0.314,2.212-0.314s1.51,0.104,2.218,0.314c0.707,0.21,1.366,0.506,1.977,0.887
				c0.61,0.383,1.164,0.841,1.662,1.376c0.498,0.535,0.924,1.131,1.28,1.786c0.355,0.655,0.63,1.358,0.825,2.112
				c0.195,0.751,0.292,1.536,0.292,2.352c0,1.093-0.172,2.126-0.517,3.1s-0.822,1.846-1.432,2.617
				c-0.61,0.771-1.335,1.416-2.173,1.932c-0.838,0.517-1.748,0.861-2.729,1.033c0.232,0.097,0.462,0.204,0.69,0.32
				c0.229,0.116,0.459,0.225,0.691,0.326c0.232,0.101,0.462,0.187,0.691,0.258c0.228,0.071,0.462,0.11,0.702,0.118
				c0.232,0,0.458-0.03,0.679-0.09c0.221-0.06,0.421-0.153,0.601-0.28c0.18-0.127,0.335-0.293,0.466-0.494
				c0.131-0.203,0.219-0.449,0.264-0.742l2.504,1.247c-0.067,0.547-0.223,1.041-0.466,1.483c-0.243,0.441-0.556,0.819-0.938,1.133
				s-0.816,0.559-1.303,0.73c-0.487,0.173-1.003,0.258-1.55,0.258c-0.442,0-0.885-0.083-1.331-0.251
				c-0.445-0.169-0.876-0.353-1.291-0.551c-0.416-0.199-0.807-0.382-1.174-0.55c-0.367-0.169-0.689-0.253-0.966-0.253
				c-0.12,0-0.227-0.002-0.32-0.006c-0.093-0.004-0.185-0.004-0.275,0s-0.189,0.016-0.297,0.035
				c-0.109,0.018-0.234,0.053-0.376,0.106L63.609,290.752z M65.182,287.394c0.651,0,1.249-0.141,1.792-0.422
				c0.542-0.28,1.009-0.662,1.398-1.146c0.389-0.482,0.691-1.043,0.904-1.685c0.214-0.64,0.32-1.319,0.32-2.038
				c0-0.727-0.108-1.411-0.326-2.056c-0.217-0.644-0.522-1.207-0.916-1.689c-0.393-0.483-0.859-0.865-1.398-1.146
				s-1.13-0.42-1.774-0.42s-1.235,0.14-1.774,0.42s-1.003,0.663-1.393,1.146c-0.389,0.482-0.694,1.046-0.916,1.689
				c-0.221,0.645-0.331,1.329-0.331,2.056c0,0.719,0.11,1.398,0.331,2.038c0.221,0.641,0.526,1.202,0.916,1.685
				c0.389,0.483,0.854,0.866,1.393,1.146C63.946,287.253,64.538,287.394,65.182,287.394z"/>
		</g>
		<g>
			<g>
				<g>
					<polygon fill="#7C5904" points="218.494,290.391 80.424,290.391 80.424,283.191 218.494,283.191 222.642,286.792 					"/>
				</g>
				<g>
					<polygon fill="#7C5904" points="223.884,283.191 361.955,283.191 361.955,290.391 223.884,290.391 228.033,286.792 					"/>
				</g>
			</g>
			<g>
				<g>
					<polygon fill="#7C5904" points="218.494,304.305 80.424,304.305 80.424,297.106 218.494,297.106 222.642,300.706 					"/>
				</g>
				<g>
					<polygon fill="#7C5904" points="223.884,297.106 361.955,297.106 361.955,304.305 223.884,304.305 228.033,300.706 					"/>
				</g>
			</g>
			<g>
				<g>
					<polygon fill="#7C5904" points="218.494,373.873 80.424,373.873 80.424,366.674 218.494,366.674 222.642,370.273 					"/>
				</g>
				<g>
					<polygon fill="#7C5904" points="223.884,366.674 361.955,366.674 361.955,373.873 223.884,373.873 228.033,370.273 					"/>
				</g>
			</g>
			<g>
				<g>
					<polygon fill="#7C5904" points="218.494,318.218 80.424,318.218 80.424,311.019 218.494,311.019 222.642,314.619 					"/>
				</g>
				<g>
					<polygon fill="#7C5904" points="223.884,311.019 361.955,311.019 361.955,318.218 223.884,318.218 228.033,314.619 					"/>
				</g>
			</g>
			<g>
				<g>
					<polygon fill="#7C5904" points="218.494,332.133 80.424,332.133 80.424,324.934 218.494,324.934 222.642,328.532 					"/>
				</g>
				<g>
					<polygon fill="#7C5904" points="223.884,324.934 361.955,324.934 361.955,332.133 223.884,332.133 228.033,328.532 					"/>
				</g>
			</g>
			<g>
				<g>
					<polygon fill="#7C5904" points="218.494,346.046 80.424,346.046 80.424,338.846 218.494,338.846 222.642,342.445 					"/>
				</g>
				<g>
					<polygon fill="#7C5904" points="223.884,338.846 361.955,338.846 361.955,346.046 223.884,346.046 228.033,342.445 					"/>
				</g>
			</g>
			<g>
				<g>
					<polygon fill="#7C5904" points="218.494,359.96 80.424,359.96 80.424,352.76 218.494,352.76 222.642,356.359 					"/>
				</g>
				<g>
					<polygon fill="#7C5904" points="223.884,352.76 361.955,352.76 361.955,359.96 223.884,359.96 228.033,356.359 					"/>
				</g>
			</g>
		</g>
	</g>
	<g>
		<g>
			<g>
				<g>
					<polygon fill="#7C5904" points="218.494,67.769 80.424,67.769 80.424,60.569 218.494,60.569 222.642,64.169 					"/>
				</g>
				<g>
					<polygon fill="#7C5904" points="223.884,60.569 361.955,60.569 361.955,67.769 223.884,67.769 228.033,64.169 					"/>
				</g>
			</g>
			<g>
				<g>
					<polygon fill="#7C5904" points="218.494,151.252 80.424,151.252 80.424,144.052 218.494,144.052 222.642,147.652 					"/>
				</g>
				<g>
					<polygon fill="#7C5904" points="223.884,144.052 361.955,144.052 361.955,151.252 223.884,151.252 228.033,147.652 					"/>
				</g>
			</g>
			<g>
				<g>
					<polygon fill="#7C5904" points="218.494,95.597 80.424,95.597 80.424,88.398 218.494,88.398 222.642,91.998 					"/>
				</g>
				<g>
					<polygon fill="#7C5904" points="223.884,88.398 361.955,88.398 361.955,95.597 223.884,95.597 228.033,91.998 					"/>
				</g>
			</g>
			<g>
				<g>
					<polygon fill="#7C5904" points="218.494,81.682 80.424,81.682 80.424,74.482 218.494,74.482 222.642,78.081 					"/>
				</g>
				<g>
					<polygon fill="#7C5904" points="223.884,74.482 361.955,74.482 361.955,81.682 223.884,81.682 228.033,78.081 					"/>
				</g>
			</g>
			<g>
				<g>
					<polygon fill="#7C5904" points="218.494,109.511 80.424,109.511 80.424,102.312 218.494,102.312 222.642,105.91 					"/>
				</g>
				<g>
					<polygon fill="#7C5904" points="223.884,102.312 361.955,102.312 361.955,109.511 223.884,109.511 228.033,105.91 					"/>
				</g>
			</g>
			<g>
				<g>
					<polygon fill="#7C5904" points="218.494,123.425 80.424,123.425 80.424,116.226 218.494,116.226 222.642,119.824 					"/>
				</g>
				<g>
					<polygon fill="#7C5904" points="223.884,116.226 361.955,116.226 361.955,123.425 223.884,123.425 228.033,119.824 					"/>
				</g>
			</g>
			<g>
				<g>
					<polygon fill="#7C5904" points="218.494,137.338 80.424,137.338 80.424,130.139 218.494,130.139 222.642,133.737 					"/>
				</g>
				<g>
					<polygon fill="#7C5904" points="223.884,130.139 361.955,130.139 361.955,137.338 223.884,137.338 228.033,133.737 					"/>
				</g>
			</g>
		</g>
		<g>
			<path fill="#C63706" d="M69.424,55.102c-0.419-0.6-0.797-1.024-1.134-1.276c-0.337-0.25-0.7-0.43-1.089-0.539
				c-0.389-0.108-0.797-0.162-1.224-0.162c-0.629,0-1.213,0.14-1.752,0.42s-1.005,0.663-1.398,1.146
				c-0.394,0.482-0.702,1.044-0.927,1.685c-0.225,0.639-0.337,1.319-0.337,2.038c0,0.727,0.11,1.409,0.331,2.049
				c0.221,0.641,0.526,1.2,0.916,1.679s0.854,0.86,1.393,1.14c0.539,0.282,1.13,0.421,1.774,0.421c0.449,0,0.869-0.072,1.258-0.218
				c0.389-0.146,0.743-0.339,1.061-0.579c0.318-0.239,0.597-0.514,0.837-0.825c0.24-0.311,0.427-0.635,0.562-0.972l3.616,1.011
				c-0.232,0.733-0.573,1.414-1.022,2.038c-0.449,0.625-0.99,1.166-1.623,1.623c-0.633,0.457-1.344,0.816-2.134,1.078
				c-0.79,0.262-1.642,0.393-2.555,0.393c-0.771,0-1.509-0.104-2.212-0.315c-0.704-0.209-1.361-0.505-1.971-0.886
				c-0.61-0.383-1.165-0.842-1.662-1.382c-0.498-0.539-0.923-1.136-1.275-1.792c-0.352-0.654-0.625-1.357-0.82-2.111
				c-0.195-0.752-0.292-1.536-0.292-2.353c0-1.221,0.213-2.364,0.64-3.431c0.427-1.067,1.011-1.999,1.752-2.797
				c0.741-0.797,1.612-1.426,2.611-1.887c1-0.46,2.076-0.69,3.229-0.69c0.921,0,1.696,0.114,2.325,0.343s1.321,0.679,2.078,1.353
				h2.516v3.797H69.424z"/>
		</g>
	</g>
	<g>
		<g>
			<g>
				<g>
					<polygon fill="#7C5904" points="218.494,401.701 80.424,401.701 80.424,394.502 218.494,394.502 222.642,398.102 					"/>
				</g>
				<g>
					<polygon fill="#7C5904" points="223.884,394.502 361.955,394.502 361.955,401.701 223.884,401.701 228.033,398.102 					"/>
				</g>
			</g>
			<g>
				<g>
					<polygon fill="#7C5904" points="218.494,485.184 80.424,485.184 80.424,477.985 218.494,477.985 222.642,481.584 					"/>
				</g>
				<g>
					<polygon fill="#7C5904" points="223.884,477.985 361.955,477.985 361.955,485.184 223.884,485.184 228.033,481.584 					"/>
				</g>
			</g>
			<g>
				<g>
					<polygon fill="#7C5904" points="218.494,429.529 80.424,429.529 80.424,422.33 218.494,422.33 222.642,425.929 					"/>
				</g>
				<g>
					<polygon fill="#7C5904" points="223.884,422.33 361.955,422.33 361.955,429.529 223.884,429.529 228.033,425.929 					"/>
				</g>
			</g>
			<g>
				<g>
					<polygon fill="#7C5904" points="218.494,415.615 80.424,415.615 80.424,408.416 218.494,408.416 222.642,412.014 					"/>
				</g>
				<g>
					<polygon fill="#7C5904" points="223.884,408.416 361.955,408.416 361.955,415.615 223.884,415.615 228.033,412.014 					"/>
				</g>
			</g>
			<g>
				<g>
					<polygon fill="#7C5904" points="218.494,443.443 80.424,443.443 80.424,436.244 218.494,436.244 222.642,439.843 					"/>
				</g>
				<g>
					<polygon fill="#7C5904" points="223.884,436.244 361.955,436.244 361.955,443.443 223.884,443.443 228.033,439.843 					"/>
				</g>
			</g>
			<g>
				<g>
					<polygon fill="#7C5904" points="218.494,457.356 80.424,457.356 80.424,450.157 218.494,450.157 222.642,453.756 					"/>
				</g>
				<g>
					<polygon fill="#7C5904" points="223.884,450.157 361.955,450.157 361.955,457.356 223.884,457.356 228.033,453.756 					"/>
				</g>
			</g>
			<g>
				<g>
					<polygon fill="#7C5904" points="218.494,471.271 80.424,471.271 80.424,464.071 218.494,464.071 222.642,467.67 					"/>
				</g>
				<g>
					<polygon fill="#7C5904" points="223.884,464.071 361.955,464.071 361.955,471.271 223.884,471.271 228.033,467.67 					"/>
				</g>
			</g>
		</g>
		<g>
			<path fill="#398EB0" d="M66.628,383.855h7.289v3.077H72.12v10.871h1.797v3.077h-7.289v-3.077h1.763v-10.871h-1.763V383.855z"/>
		</g>
	</g>
	<g>
		<g>
			<path fill="#398EB0" d="M67.31,161.591h6.469v3.088h-1.381v13.938h-3.729l-7.086-11.006v7.929h1.426v3.078h-6.458v-3.078h1.404
				v-10.86h-1.381v-3.088h5.144l7.042,11.152v-8.064H67.31V161.591z"/>
		</g>
		<g>
			<g>
				<g>
					<polygon fill="#7C5904" points="218.39,192.993 80.32,192.993 80.32,185.794 218.39,185.794 222.539,189.394 					"/>
				</g>
				<g>
					<polygon fill="#7C5904" points="223.781,185.794 361.851,185.794 361.851,192.993 223.781,192.993 227.929,189.394 					"/>
				</g>
			</g>
			<g>
				<g>
					<polygon fill="#7C5904" points="218.39,179.08 80.32,179.08 80.32,171.881 218.39,171.881 222.539,175.48 					"/>
				</g>
				<g>
					<polygon fill="#7C5904" points="223.781,171.881 361.851,171.881 361.851,179.08 223.781,179.08 227.929,175.48 					"/>
				</g>
			</g>
			<g>
				<g>
					<polygon fill="#7C5904" points="218.39,206.907 80.32,206.907 80.32,199.708 218.39,199.708 222.539,203.308 					"/>
				</g>
				<g>
					<polygon fill="#7C5904" points="223.781,199.708 361.851,199.708 361.851,206.907 223.781,206.907 227.929,203.308 					"/>
				</g>
			</g>
			<g>
				<g>
					<polygon fill="#7C5904" points="218.39,234.734 80.32,234.734 80.32,227.535 218.39,227.535 222.539,231.134 					"/>
				</g>
				<g>
					<polygon fill="#7C5904" points="223.781,227.535 361.851,227.535 361.851,234.734 223.781,234.734 227.929,231.134 					"/>
				</g>
			</g>
			<g>
				<g>
					<polygon fill="#7C5904" points="218.494,220.821 80.424,220.821 80.424,213.622 218.494,213.622 222.642,217.222 					"/>
				</g>
				<g>
					<polygon fill="#7C5904" points="223.884,213.622 361.955,213.622 361.955,220.821 223.884,220.821 228.033,217.222 					"/>
				</g>
			</g>
			<g>
				<g>
					<polygon fill="#7C5904" points="218.39,248.649 80.32,248.649 80.32,241.451 218.39,241.451 222.539,245.049 					"/>
				</g>
				<g>
					<polygon fill="#7C5904" points="223.781,241.451 361.851,241.451 361.851,248.649 223.781,248.649 227.929,245.049 					"/>
				</g>
			</g>
			<g>
				<g>
					<polygon fill="#7C5904" points="218.39,262.562 80.32,262.562 80.32,255.363 218.39,255.363 222.539,258.962 					"/>
				</g>
				<g>
					<polygon fill="#7C5904" points="223.781,255.363 361.851,255.363 361.851,262.562 223.781,262.562 227.929,258.962 					"/>
				</g>
			</g>
		</g>
	</g>
</g>
</svg>
