<?xml version="1.0" encoding="utf-8"?>
<!-- Generator: Adobe Illustrator 16.0.4, SVG Export Plug-In . SVG Version: 6.00 Build 0)  -->
<!DOCTYPE svg PUBLIC "-//W3C//DTD SVG 1.1//EN" "http://www.w3.org/Graphics/SVG/1.1/DTD/svg11.dtd">
<svg version="1.1" id="Layer_1" xmlns="http://www.w3.org/2000/svg" xmlns:xlink="http://www.w3.org/1999/xlink" x="0px" y="0px"
	 width="448.746px" height="616.439px" viewBox="0 0 448.746 616.439" enable-background="new 0 0 448.746 616.439"
	 xml:space="preserve">
<rect x="0.5" y="0.5" fill="#FFFFFF" stroke="#C68D06" stroke-miterlimit="10" width="447.746" height="615.439"/>
<g>
	<path fill="#C68D06" d="M338.562,577.793l1.855-1.331c1.891,2.836,4.2,3.992,7.07,3.992c3.815,0,6.161-2.101,6.161-5.286
		c0-3.816-2.24-5.706-8.331-5.706h-0.979v-2.135h1.189c5.496,0,7.561-1.679,7.561-4.866c0-2.59-1.574-4.515-5.495-4.515
		c-2.625,0-4.655,1.295-6.161,3.15l-1.715-1.435c1.855-2.241,4.516-3.92,8.016-3.92c5.461,0,7.771,3.115,7.771,6.476
		c0,3.325-1.961,5.53-5.111,6.126c3.851,0.805,5.706,3.009,5.706,6.825c0,4.235-3.325,7.456-8.646,7.456
		C343.673,582.624,340.488,580.874,338.562,577.793z"/>
	<path fill="#C68D06" d="M362.747,577.793l1.855-1.331c1.891,2.836,4.2,3.992,7.07,3.992c3.815,0,6.161-2.101,6.161-5.286
		c0-3.816-2.24-5.706-8.331-5.706h-0.979v-2.135h1.189c5.496,0,7.561-1.679,7.561-4.866c0-2.59-1.575-4.515-5.495-4.515
		c-2.625,0-4.655,1.295-6.16,3.15l-1.716-1.435c1.855-2.241,4.516-3.92,8.016-3.92c5.461,0,7.771,3.115,7.771,6.476
		c0,3.325-1.961,5.53-5.11,6.126c3.85,0.805,5.705,3.009,5.705,6.825c0,4.235-3.325,7.456-8.646,7.456
		C367.858,582.624,364.673,580.874,362.747,577.793z"/>
	<path fill="#C68D06" d="M389.207,556.231h8.681c5.776,0,8.996,2.45,8.996,7c0,4.201-2.45,6.301-6.195,7.001l6.546,11.901h-2.801
		l-6.336-11.621h-6.44v11.621h-2.45V556.231z M397.713,568.308c4.271,0,6.686-1.226,6.686-4.971c0-3.57-2.38-4.831-6.721-4.831
		h-6.021v9.802H397.713z"/>
</g>
<g>
	<rect x="80.216" y="171.879" fill="#C0DDE7" width="281.738" height="7.201"/>
</g>
<g>
	<rect x="80.215" y="185.793" fill="#C0DDE7" width="281.739" height="7.199"/>
</g>
<g>
	<rect x="80.216" y="199.707" fill="#C0DDE7" width="281.738" height="7.2"/>
</g>
<g>
	<rect x="80.216" y="213.622" fill="#C0DDE7" width="281.738" height="7.199"/>
</g>
<g>
	<rect x="80.216" y="227.535" fill="#C0DDE7" width="281.738" height="7.198"/>
</g>
<g>
	<rect x="80.216" y="241.448" fill="#C0DDE7" width="281.738" height="7.201"/>
</g>
<g>
	<rect x="80.215" y="255.362" fill="#C0DDE7" width="281.739" height="7.198"/>
</g>
<g>
	<rect x="80.215" y="269.275" fill="#C0DDE7" width="281.739" height="7.201"/>
</g>
<g>
	<rect x="80.216" y="283.188" fill="#C0DDE7" width="281.738" height="7.199"/>
</g>
<g>
	<rect x="80.215" y="297.102" fill="#C0DDE7" width="281.739" height="7.2"/>
</g>
<g>
	<rect x="80.216" y="311.015" fill="#C0DDE7" width="281.738" height="7.2"/>
</g>
<g>
	<rect x="80.216" y="324.928" fill="#C0DDE7" width="281.738" height="7.2"/>
</g>
<g>
	<rect x="80.216" y="338.842" fill="#C0DDE7" width="281.738" height="7.199"/>
</g>
<g>
	<rect x="80.215" y="352.755" fill="#C0DDE7" width="281.739" height="7.201"/>
</g>
<g>
	<rect x="80.216" y="366.668" fill="#C0DDE7" width="281.738" height="7.201"/>
</g>
<g>
	<rect x="80.216" y="380.582" fill="#C0DDE7" width="281.738" height="7.202"/>
</g>
<g>
	<rect x="80.216" y="394.498" fill="#C0DDE7" width="281.738" height="7.197"/>
</g>
<g>
	<rect x="80.216" y="408.41" fill="#C0DDE7" width="281.738" height="7.199"/>
</g>
<g>
	<rect x="80.215" y="422.324" fill="#C0DDE7" width="281.739" height="7.199"/>
</g>
<g>
	<rect x="80.216" y="436.237" fill="#C0DDE7" width="281.738" height="7.2"/>
</g>
<g>
	<rect x="80.215" y="450.152" fill="#C0DDE7" width="281.739" height="7.201"/>
</g>
<g>
	<rect x="80.216" y="464.065" fill="#C0DDE7" width="281.738" height="7.199"/>
</g>
<g>
	<rect x="80.215" y="477.98" fill="#C0DDE7" width="281.739" height="7.199"/>
</g>
<g>
	<rect x="80.216" y="491.893" fill="#C0DDE7" width="281.738" height="7.201"/>
</g>
<g>
	<rect x="80.216" y="74.483" fill="#C0DDE7" width="281.738" height="7.201"/>
</g>
<g>
	<rect x="80.215" y="88.396" fill="#C0DDE7" width="281.739" height="7.2"/>
</g>
<g>
	<rect x="80.215" y="157.966" fill="#C0DDE7" width="281.739" height="7.199"/>
</g>
<g>
	<rect x="80.216" y="102.311" fill="#C0DDE7" width="281.738" height="7.199"/>
</g>
<g>
	<rect x="80.215" y="116.225" fill="#C0DDE7" width="281.739" height="7.2"/>
</g>
<g>
	<rect x="80.215" y="130.139" fill="#C0DDE7" width="281.739" height="7.198"/>
</g>
<g>
	<rect x="80.215" y="144.053" fill="#C0DDE7" width="281.739" height="7.199"/>
</g>
<g>
	<g>
		<polygon fill="#7C5904" points="218.493,95.597 80.423,95.597 80.423,88.397 218.493,88.397 222.642,91.998 		"/>
	</g>
	<g>
		<polygon fill="#7C5904" points="223.883,88.397 361.954,88.397 361.954,95.597 223.883,95.597 228.032,91.998 		"/>
	</g>
</g>
<g>
	<g>
		<polygon fill="#7C5904" points="218.493,81.683 80.423,81.683 80.423,74.482 218.493,74.482 222.642,78.084 		"/>
	</g>
	<g>
		<polygon fill="#7C5904" points="223.883,74.482 361.954,74.482 361.954,81.683 223.883,81.683 228.032,78.084 		"/>
	</g>
</g>
<g>
	<g>
		<polygon fill="#7C5904" points="218.493,109.51 80.423,109.51 80.423,102.311 218.493,102.311 222.642,105.91 		"/>
	</g>
	<g>
		<polygon fill="#7C5904" points="223.883,102.311 361.954,102.311 361.954,109.51 223.883,109.51 228.032,105.91 		"/>
	</g>
</g>
<g>
	<g>
		<polygon fill="#7C5904" points="218.493,123.425 80.423,123.425 80.423,116.226 218.493,116.226 222.642,119.825 		"/>
	</g>
	<g>
		<polygon fill="#7C5904" points="223.883,116.226 361.954,116.226 361.954,123.425 223.883,123.425 228.032,119.825 		"/>
	</g>
</g>
<g>
	<g>
		<polygon fill="#7C5904" points="218.493,137.337 80.423,137.337 80.423,130.138 218.493,130.138 222.642,133.737 		"/>
	</g>
	<g>
		<polygon fill="#7C5904" points="223.883,130.138 361.954,130.138 361.954,137.337 223.883,137.337 228.032,133.737 		"/>
	</g>
</g>
<g>
	<g>
		<polygon fill="#7C5904" points="218.493,151.251 80.423,151.251 80.423,144.052 218.493,144.052 222.642,147.65 		"/>
	</g>
	<g>
		<polygon fill="#7C5904" points="223.883,144.052 361.954,144.052 361.954,151.251 223.883,151.251 228.032,147.65 		"/>
	</g>
</g>
<g>
	<g>
		<polygon fill="#7C5904" points="218.493,165.166 80.423,165.166 80.423,157.965 218.493,157.965 222.642,161.564 		"/>
	</g>
	<g>
		<polygon fill="#7C5904" points="223.883,157.965 361.954,157.965 361.954,165.166 223.883,165.166 228.032,161.564 		"/>
	</g>
</g>
<g>
	<path fill="#C63706" d="M65.152,82.658c-0.771,0-1.51-0.104-2.213-0.314c-0.703-0.208-1.361-0.505-1.971-0.886
		c-0.61-0.382-1.164-0.841-1.662-1.376c-0.498-0.536-0.923-1.13-1.275-1.786c-0.352-0.655-0.625-1.357-0.819-2.106
		c-0.194-0.748-0.292-1.53-0.292-2.346c0-0.817,0.098-1.601,0.292-2.353c0.194-0.753,0.468-1.456,0.819-2.112
		c0.353-0.655,0.777-1.251,1.275-1.786c0.498-0.535,1.052-0.993,1.662-1.376c0.609-0.381,1.268-0.677,1.971-0.887
		c0.703-0.209,1.441-0.314,2.213-0.314c0.771,0,1.51,0.104,2.218,0.314c0.707,0.21,1.366,0.505,1.977,0.887
		c0.61,0.383,1.164,0.841,1.662,1.376c0.497,0.535,0.925,1.131,1.28,1.786c0.355,0.656,0.631,1.359,0.825,2.112
		c0.194,0.752,0.292,1.536,0.292,2.353c0,0.809-0.098,1.588-0.292,2.341c-0.194,0.752-0.47,1.456-0.825,2.111
		c-0.355,0.656-0.783,1.25-1.28,1.786c-0.498,0.535-1.052,0.994-1.662,1.376c-0.61,0.381-1.27,0.678-1.977,0.886
		C66.662,82.554,65.923,82.658,65.152,82.658z M65.152,79.133c0.65,0,1.248-0.14,1.791-0.422c0.543-0.28,1.009-0.662,1.398-1.146
		c0.389-0.482,0.69-1.044,0.903-1.685c0.214-0.639,0.32-1.319,0.32-2.038c0-0.727-0.108-1.412-0.325-2.056
		c-0.218-0.643-0.522-1.207-0.916-1.689c-0.393-0.484-0.859-0.865-1.398-1.146c-0.539-0.282-1.13-0.421-1.773-0.421
		c-0.645,0-1.236,0.139-1.775,0.421c-0.539,0.28-1.003,0.662-1.393,1.146c-0.389,0.482-0.693,1.046-0.915,1.689
		c-0.221,0.645-0.331,1.33-0.331,2.056c0,0.718,0.11,1.398,0.331,2.038c0.222,0.641,0.526,1.202,0.915,1.685
		c0.39,0.483,0.854,0.866,1.393,1.146C63.916,78.993,64.508,79.133,65.152,79.133z"/>
</g>
<g>
	<path fill="#398EB0" d="M63.422,193.402c-0.958-0.194-1.844-0.551-2.655-1.072c-0.812-0.521-1.517-1.162-2.111-1.925
		c-0.596-0.764-1.06-1.627-1.393-2.589c-0.333-0.962-0.5-1.982-0.5-3.062c0-0.816,0.097-1.6,0.292-2.352
		c0.195-0.753,0.468-1.456,0.82-2.111c0.352-0.655,0.776-1.251,1.274-1.787c0.497-0.534,1.052-0.993,1.662-1.376
		c0.61-0.38,1.267-0.677,1.971-0.886s1.441-0.314,2.212-0.314c0.771,0,1.511,0.105,2.219,0.314c0.707,0.209,1.366,0.506,1.977,0.886
		c0.609,0.383,1.164,0.842,1.662,1.376c0.498,0.536,0.924,1.131,1.28,1.787c0.355,0.655,0.63,1.358,0.825,2.111
		c0.195,0.752,0.292,1.536,0.292,2.352c0,1.093-0.173,2.126-0.517,3.101c-0.344,0.973-0.822,1.846-1.432,2.616
		c-0.61,0.771-1.335,1.416-2.174,1.931c-0.838,0.517-1.748,0.861-2.729,1.034c0.232,0.098,0.463,0.204,0.69,0.319
		c0.229,0.117,0.459,0.225,0.69,0.327c0.232,0.101,0.463,0.187,0.691,0.258s0.462,0.11,0.701,0.119c0.232,0,0.459-0.031,0.68-0.09
		c0.221-0.06,0.422-0.154,0.602-0.281s0.334-0.293,0.466-0.493c0.131-0.203,0.219-0.45,0.264-0.742l2.505,1.247
		c-0.068,0.546-0.223,1.041-0.467,1.482c-0.243,0.441-0.556,0.819-0.938,1.133c-0.382,0.314-0.816,0.559-1.303,0.73
		c-0.486,0.172-1.004,0.258-1.55,0.258c-0.442,0-0.886-0.084-1.331-0.252c-0.445-0.169-0.876-0.352-1.291-0.55
		c-0.416-0.199-0.807-0.382-1.174-0.55c-0.367-0.169-0.689-0.253-0.966-0.253c-0.12,0-0.227-0.002-0.32-0.006
		c-0.093-0.004-0.185-0.004-0.274,0c-0.09,0.004-0.189,0.016-0.298,0.035c-0.108,0.018-0.234,0.053-0.376,0.106L63.422,193.402z
		 M64.994,190.044c0.652,0,1.249-0.14,1.792-0.421c0.542-0.28,1.009-0.662,1.397-1.146c0.39-0.482,0.691-1.044,0.904-1.684
		c0.214-0.64,0.32-1.32,0.32-2.039c0-0.726-0.108-1.411-0.326-2.055c-0.217-0.644-0.521-1.207-0.915-1.689
		c-0.393-0.484-0.858-0.866-1.397-1.146c-0.539-0.282-1.131-0.421-1.775-0.421c-0.644,0-1.234,0.139-1.773,0.421
		c-0.539,0.28-1.004,0.662-1.393,1.146c-0.39,0.482-0.695,1.045-0.916,1.689c-0.221,0.645-0.331,1.33-0.331,2.055
		c0,0.719,0.11,1.399,0.331,2.039s0.526,1.202,0.916,1.684c0.389,0.483,0.854,0.866,1.393,1.146
		C63.76,189.905,64.351,190.044,64.994,190.044z"/>
</g>
<g>
	<g>
		<g>
			<polygon fill="#7C5904" points="218.493,206.903 80.423,206.903 80.423,199.705 218.493,199.705 222.642,203.305 			"/>
		</g>
		<g>
			<polygon fill="#7C5904" points="223.883,199.705 361.954,199.705 361.954,206.903 223.883,206.903 228.032,203.305 			"/>
		</g>
	</g>
	<g>
		<g>
			<polygon fill="#7C5904" points="218.493,192.989 80.423,192.989 80.423,185.79 218.493,185.79 222.642,189.39 			"/>
		</g>
		<g>
			<polygon fill="#7C5904" points="223.883,185.79 361.954,185.79 361.954,192.989 223.883,192.989 228.032,189.39 			"/>
		</g>
	</g>
	<g>
		<g>
			<polygon fill="#7C5904" points="218.493,276.473 80.423,276.473 80.423,269.273 218.493,269.273 222.642,272.873 			"/>
		</g>
		<g>
			<polygon fill="#7C5904" points="223.883,269.273 361.954,269.273 361.954,276.473 223.883,276.473 228.032,272.873 			"/>
		</g>
	</g>
	<g>
		<g>
			<polygon fill="#7C5904" points="218.493,220.817 80.423,220.817 80.423,213.619 218.493,213.619 222.642,217.217 			"/>
		</g>
		<g>
			<polygon fill="#7C5904" points="223.883,213.619 361.954,213.619 361.954,220.817 223.883,220.817 228.032,217.217 			"/>
		</g>
	</g>
	<g>
		<g>
			<polygon fill="#7C5904" points="218.493,234.731 80.423,234.731 80.423,227.533 218.493,227.533 222.642,231.13 			"/>
		</g>
		<g>
			<polygon fill="#7C5904" points="223.883,227.533 361.954,227.533 361.954,234.731 223.883,234.731 228.032,231.13 			"/>
		</g>
	</g>
	<g>
		<g>
			<polygon fill="#7C5904" points="218.493,248.646 80.423,248.646 80.423,241.446 218.493,241.446 222.642,245.044 			"/>
		</g>
		<g>
			<polygon fill="#7C5904" points="223.883,241.446 361.954,241.446 361.954,248.646 223.883,248.646 228.032,245.044 			"/>
		</g>
	</g>
	<g>
		<g>
			<polygon fill="#7C5904" points="218.493,262.561 80.423,262.561 80.423,255.359 218.493,255.359 222.642,258.96 			"/>
		</g>
		<g>
			<polygon fill="#7C5904" points="223.883,255.359 361.954,255.359 361.954,262.561 223.883,262.561 228.032,258.96 			"/>
		</g>
	</g>
</g>
<g>
	<g>
		<polygon fill="#7C5904" points="218.493,429.388 80.423,429.388 80.423,422.188 218.493,422.188 222.642,425.788 		"/>
	</g>
	<g>
		<polygon fill="#7C5904" points="223.883,422.188 361.954,422.188 361.954,429.388 223.883,429.388 228.032,425.788 		"/>
	</g>
</g>
<g>
	<g>
		<polygon fill="#7C5904" points="218.493,415.611 80.423,415.611 80.423,408.412 218.493,408.412 222.642,412.011 		"/>
	</g>
	<g>
		<polygon fill="#7C5904" points="223.883,408.412 361.954,408.412 361.954,415.611 223.883,415.611 228.032,412.011 		"/>
	</g>
</g>
<g>
	<g>
		<polygon fill="#7C5904" points="218.493,443.321 80.423,443.321 80.423,436.122 218.493,436.122 222.642,439.722 		"/>
	</g>
	<g>
		<polygon fill="#7C5904" points="223.883,436.122 361.954,436.122 361.954,443.321 223.883,443.321 228.032,439.722 		"/>
	</g>
</g>
<g>
	<g>
		<polygon fill="#7C5904" points="218.493,457.255 80.423,457.255 80.423,450.056 218.493,450.056 222.642,453.655 		"/>
	</g>
	<g>
		<polygon fill="#7C5904" points="223.883,450.056 361.954,450.056 361.954,457.255 223.883,457.255 228.032,453.655 		"/>
	</g>
</g>
<g>
	<g>
		<polygon fill="#7C5904" points="218.493,471.189 80.423,471.189 80.423,463.99 218.493,463.99 222.642,467.59 		"/>
	</g>
	<g>
		<polygon fill="#7C5904" points="223.883,463.99 361.954,463.99 361.954,471.189 223.883,471.189 228.032,467.59 		"/>
	</g>
</g>
<g>
	<g>
		<polygon fill="#7C5904" points="218.493,485.124 80.423,485.124 80.423,477.925 218.493,477.925 222.642,481.523 		"/>
	</g>
	<g>
		<polygon fill="#7C5904" points="223.883,477.925 361.954,477.925 361.954,485.124 223.883,485.124 228.032,481.523 		"/>
	</g>
</g>
<g>
	<g>
		<polygon fill="#7C5904" points="218.493,499.093 80.423,499.093 80.423,491.894 218.493,491.894 222.642,495.493 		"/>
	</g>
	<g>
		<polygon fill="#7C5904" points="223.883,491.894 361.954,491.894 361.954,499.093 223.883,499.093 228.032,495.493 		"/>
	</g>
</g>
<g>
	<g>
		<polygon fill="#7C5904" points="218.493,513.062 80.423,513.062 80.423,505.862 218.493,505.862 222.642,509.461 		"/>
	</g>
	<g>
		<polygon fill="#7C5904" points="223.883,505.862 361.954,505.862 361.954,513.062 223.883,513.062 228.032,509.461 		"/>
	</g>
</g>
<g>
	<path fill="#398EB0" d="M58.807,398.901h6.536c0.778,0,1.525,0.102,2.24,0.302c0.716,0.203,1.382,0.487,1.999,0.854
		c0.618,0.367,1.18,0.808,1.685,1.32c0.506,0.513,0.938,1.084,1.298,1.713c0.359,0.629,0.636,1.306,0.83,2.032
		c0.195,0.727,0.293,1.482,0.293,2.269c0,0.787-0.098,1.542-0.293,2.269c-0.194,0.726-0.471,1.405-0.83,2.038
		s-0.792,1.209-1.298,1.73c-0.505,0.52-1.066,0.965-1.685,1.336c-0.617,0.37-1.283,0.656-1.999,0.859
		c-0.715,0.201-1.462,0.303-2.24,0.303h-6.536v-3.077h1.359v-10.86h-1.359V398.901z M63.895,401.989v10.86h1.426
		c0.606,0,1.18-0.143,1.719-0.427c0.539-0.284,1.006-0.671,1.403-1.162c0.397-0.49,0.712-1.067,0.943-1.729s0.349-1.376,0.349-2.14
		c0-0.755-0.117-1.463-0.349-2.123c-0.231-0.659-0.546-1.232-0.943-1.718c-0.397-0.486-0.864-0.868-1.403-1.145
		c-0.539-0.278-1.112-0.416-1.719-0.416H63.895z"/>
</g>
<g>
	<g>
		<g>
			<g>
				<polygon fill="#7C5904" points="218.493,318.388 80.423,318.388 80.423,311.188 218.493,311.188 222.642,314.788 				"/>
			</g>
			<g>
				<polygon fill="#7C5904" points="223.883,311.188 361.954,311.188 361.954,318.388 223.883,318.388 228.032,314.788 				"/>
			</g>
		</g>
		<g>
			<g>
				<polygon fill="#7C5904" points="218.493,304.301 80.423,304.301 80.423,297.102 218.493,297.102 222.642,300.701 				"/>
			</g>
			<g>
				<polygon fill="#7C5904" points="223.883,297.102 361.954,297.102 361.954,304.301 223.883,304.301 228.032,300.701 				"/>
			</g>
		</g>
		<g>
			<g>
				<polygon fill="#7C5904" points="218.493,388.058 80.423,388.058 80.423,380.857 218.493,380.857 222.642,384.458 				"/>
			</g>
			<g>
				<polygon fill="#7C5904" points="223.883,380.857 361.954,380.857 361.954,388.058 223.883,388.058 228.032,384.458 				"/>
			</g>
		</g>
		<g>
			<g>
				<polygon fill="#7C5904" points="218.493,332.321 80.423,332.321 80.423,325.122 218.493,325.122 222.642,328.722 				"/>
			</g>
			<g>
				<polygon fill="#7C5904" points="223.883,325.122 361.954,325.122 361.954,332.321 223.883,332.321 228.032,328.722 				"/>
			</g>
		</g>
		<g>
			<g>
				<polygon fill="#7C5904" points="218.493,346.255 80.423,346.255 80.423,339.056 218.493,339.056 222.642,342.655 				"/>
			</g>
			<g>
				<polygon fill="#7C5904" points="223.883,339.056 361.954,339.056 361.954,346.255 223.883,346.255 228.032,342.655 				"/>
			</g>
		</g>
		<g>
			<g>
				<polygon fill="#7C5904" points="218.493,360.189 80.423,360.189 80.423,352.99 218.493,352.99 222.642,356.59 				"/>
			</g>
			<g>
				<polygon fill="#7C5904" points="223.883,352.99 361.954,352.99 361.954,360.189 223.883,360.189 228.032,356.59 				"/>
			</g>
		</g>
		<g>
			<g>
				<polygon fill="#7C5904" points="218.493,374.124 80.423,374.124 80.423,366.925 218.493,366.925 222.642,370.523 				"/>
			</g>
			<g>
				<polygon fill="#7C5904" points="223.883,366.925 361.954,366.925 361.954,374.124 223.883,374.124 228.032,370.523 				"/>
			</g>
		</g>
	</g>
	<g>
		<path fill="#C63706" d="M67.33,287.153h6.469v3.087h-1.381v13.938h-3.729l-7.086-11.006v7.929h1.426v3.077h-6.457v-3.077h1.403
			v-10.86h-1.382v-3.087h5.145l7.041,11.152v-8.064H67.33V287.153z"/>
	</g>
</g>
</svg>
