<?xml version="1.0" encoding="utf-8"?>
<!-- Generator: Adobe Illustrator 16.0.4, SVG Export Plug-In . SVG Version: 6.00 Build 0)  -->
<!DOCTYPE svg PUBLIC "-//W3C//DTD SVG 1.1//EN" "http://www.w3.org/Graphics/SVG/1.1/DTD/svg11.dtd">
<svg version="1.1" id="Layer_1" xmlns="http://www.w3.org/2000/svg" xmlns:xlink="http://www.w3.org/1999/xlink" x="0px" y="0px"
	 width="448.746px" height="616.439px" viewBox="0 0 448.746 616.439" enable-background="new 0 0 448.746 616.439"
	 xml:space="preserve">
<rect x="0.5" y="0.5" fill="#FFFFFF" stroke="#C68D06" stroke-miterlimit="10" width="447.746" height="615.439"/>
<g>
	<path fill="#C68D06" d="M338.287,576.792l1.855-1.331c1.891,2.836,4.2,3.992,7.07,3.992c3.815,0,6.161-2.101,6.161-5.286
		c0-3.816-2.24-5.706-8.331-5.706h-0.979v-2.135h1.189c5.496,0,7.561-1.679,7.561-4.866c0-2.59-1.574-4.515-5.495-4.515
		c-2.625,0-4.655,1.295-6.161,3.15l-1.715-1.435c1.855-2.241,4.516-3.92,8.016-3.92c5.461,0,7.771,3.115,7.771,6.476
		c0,3.325-1.961,5.53-5.111,6.126c3.851,0.805,5.706,3.009,5.706,6.825c0,4.235-3.325,7.456-8.646,7.456
		C343.397,581.624,340.213,579.874,338.287,576.792z"/>
	<path fill="#C68D06" d="M375.038,574.868h-12.461v-1.855l11.796-17.781h3.046v17.432h4.375v2.205h-4.375v6.266h-2.381V574.868z
		 M375.038,572.663v-14.526h-0.069l-9.592,14.526H375.038z"/>
	<path fill="#C68D06" d="M389.457,555.231h8.681c5.776,0,8.996,2.45,8.996,7c0,4.201-2.45,6.301-6.195,7.001l6.546,11.901h-2.801
		l-6.336-11.621h-6.44v11.621h-2.45V555.231z M397.963,567.307c4.271,0,6.686-1.226,6.686-4.971c0-3.57-2.38-4.831-6.721-4.831
		h-6.021v9.802H397.963z"/>
</g>
<g>
	<g>
		<rect x="80.466" y="156.966" fill="#C0DDE7" width="281.738" height="7.199"/>
	</g>
	<g>
		<rect x="80.466" y="184.793" fill="#C0DDE7" width="281.738" height="7.2"/>
	</g>
	<g>
		<rect x="80.466" y="198.708" fill="#C0DDE7" width="281.738" height="7.199"/>
	</g>
	<g>
		<rect x="80.466" y="212.622" fill="#C0DDE7" width="281.738" height="7.199"/>
	</g>
	<g>
		<rect x="80.466" y="226.535" fill="#C0DDE7" width="281.738" height="7.199"/>
	</g>
	<g>
		<rect x="80.466" y="240.449" fill="#C0DDE7" width="281.738" height="7.199"/>
	</g>
	<g>
		<rect x="80.466" y="254.362" fill="#C0DDE7" width="281.738" height="7.2"/>
	</g>
	<g>
		<rect x="80.466" y="268.276" fill="#C0DDE7" width="281.738" height="7.199"/>
	</g>
	<g>
		<rect x="80.466" y="282.19" fill="#C0DDE7" width="281.738" height="7.2"/>
	</g>
	<g>
		<rect x="80.466" y="296.104" fill="#C0DDE7" width="281.738" height="7.2"/>
	</g>
	<g>
		<rect x="80.466" y="310.018" fill="#C0DDE7" width="281.738" height="7.2"/>
	</g>
	<g>
		<rect x="80.466" y="323.932" fill="#C0DDE7" width="281.738" height="7.199"/>
	</g>
	<g>
		<rect x="80.466" y="337.845" fill="#C0DDE7" width="281.738" height="7.2"/>
	</g>
	<g>
		<rect x="80.466" y="351.759" fill="#C0DDE7" width="281.738" height="7.201"/>
	</g>
	<g>
		<rect x="80.466" y="365.673" fill="#C0DDE7" width="281.738" height="7.2"/>
	</g>
	<g>
		<rect x="80.466" y="379.587" fill="#C0DDE7" width="281.738" height="7.199"/>
	</g>
	<g>
		<rect x="80.466" y="393.501" fill="#C0DDE7" width="281.738" height="7.199"/>
	</g>
	<g>
		<rect x="80.466" y="407.415" fill="#C0DDE7" width="281.738" height="7.199"/>
	</g>
	<g>
		<rect x="80.466" y="421.328" fill="#C0DDE7" width="281.738" height="7.2"/>
	</g>
	<g>
		<rect x="80.466" y="435.242" fill="#C0DDE7" width="281.738" height="7.201"/>
	</g>
	<g>
		<rect x="80.466" y="449.156" fill="#C0DDE7" width="281.738" height="7.2"/>
	</g>
	<g>
		<rect x="80.466" y="463.07" fill="#C0DDE7" width="281.738" height="7.199"/>
	</g>
	<g>
		<rect x="80.466" y="476.983" fill="#C0DDE7" width="281.738" height="7.201"/>
	</g>
	<g>
		<rect x="80.466" y="59.568" fill="#C0DDE7" width="281.738" height="7.2"/>
	</g>
	<g>
		<rect x="80.466" y="73.482" fill="#C0DDE7" width="281.738" height="7.201"/>
	</g>
	<g>
		<rect x="80.466" y="143.052" fill="#C0DDE7" width="281.738" height="7.2"/>
	</g>
	<g>
		<rect x="80.466" y="170.879" fill="#C0DDE7" width="281.738" height="7.201"/>
	</g>
	<g>
		<rect x="80.466" y="87.396" fill="#C0DDE7" width="281.738" height="7.199"/>
	</g>
	<g>
		<rect x="80.466" y="101.31" fill="#C0DDE7" width="281.738" height="7.201"/>
	</g>
	<g>
		<rect x="80.466" y="115.224" fill="#C0DDE7" width="281.738" height="7.199"/>
	</g>
	<g>
		<rect x="80.466" y="129.139" fill="#C0DDE7" width="281.738" height="7.198"/>
	</g>
	<g>
		<rect x="80.466" y="156.966" fill="#C0DDE7" width="281.738" height="7.2"/>
	</g>
	<g>
		<g>
			<g>
				<path fill="#C63706" d="M66.98,272.591h7.289v3.077h-1.797v10.872h1.797v3.078H66.98v-3.078h1.764v-10.872H66.98V272.591z"/>
			</g>
			<g>
				<g>
					<g>
						<polygon fill="#7C5904" points="218.742,289.391 80.674,289.391 80.674,282.191 218.742,282.191 222.891,285.792 						"/>
					</g>
					<g>
						<polygon fill="#7C5904" points="224.133,282.191 362.203,282.191 362.203,289.391 224.133,289.391 228.281,285.792 						"/>
					</g>
				</g>
				<g>
					<g>
						<polygon fill="#7C5904" points="218.742,303.305 80.674,303.305 80.674,296.106 218.742,296.106 222.891,299.706 						"/>
					</g>
					<g>
						<polygon fill="#7C5904" points="224.133,296.106 362.203,296.106 362.203,303.305 224.133,303.305 228.281,299.706 						"/>
					</g>
				</g>
				<g>
					<g>
						<polygon fill="#7C5904" points="218.742,372.873 80.674,372.873 80.674,365.674 218.742,365.674 222.891,369.273 						"/>
					</g>
					<g>
						<polygon fill="#7C5904" points="224.133,365.674 362.203,365.674 362.203,372.873 224.133,372.873 228.281,369.273 						"/>
					</g>
				</g>
				<g>
					<g>
						<polygon fill="#7C5904" points="218.742,317.218 80.674,317.218 80.674,310.019 218.742,310.019 222.891,313.619 						"/>
					</g>
					<g>
						<polygon fill="#7C5904" points="224.133,310.019 362.203,310.019 362.203,317.218 224.133,317.218 228.281,313.619 						"/>
					</g>
				</g>
				<g>
					<g>
						<polygon fill="#7C5904" points="218.742,331.133 80.674,331.133 80.674,323.934 218.742,323.934 222.891,327.532 						"/>
					</g>
					<g>
						<polygon fill="#7C5904" points="224.133,323.934 362.203,323.934 362.203,331.133 224.133,331.133 228.281,327.532 						"/>
					</g>
				</g>
				<g>
					<g>
						<polygon fill="#7C5904" points="218.742,345.046 80.674,345.046 80.674,337.846 218.742,337.846 222.891,341.445 						"/>
					</g>
					<g>
						<polygon fill="#7C5904" points="224.133,337.846 362.203,337.846 362.203,345.046 224.133,345.046 228.281,341.445 						"/>
					</g>
				</g>
				<g>
					<g>
						<polygon fill="#7C5904" points="218.742,358.96 80.674,358.96 80.674,351.76 218.742,351.76 222.891,355.359 						"/>
					</g>
					<g>
						<polygon fill="#7C5904" points="224.133,351.76 362.203,351.76 362.203,358.96 224.133,358.96 228.281,355.359 						"/>
					</g>
				</g>
			</g>
		</g>
		<g>
			<g>
				<g>
					<g>
						<polygon fill="#7C5904" points="218.742,66.769 80.674,66.769 80.674,59.569 218.742,59.569 222.891,63.169 						"/>
					</g>
					<g>
						<polygon fill="#7C5904" points="224.133,59.569 362.203,59.569 362.203,66.769 224.133,66.769 228.281,63.169 						"/>
					</g>
				</g>
				<g>
					<g>
						<polygon fill="#7C5904" points="218.742,150.252 80.674,150.252 80.674,143.052 218.742,143.052 222.891,146.652 						"/>
					</g>
					<g>
						<polygon fill="#7C5904" points="224.133,143.052 362.203,143.052 362.203,150.252 224.133,150.252 228.281,146.652 						"/>
					</g>
				</g>
				<g>
					<g>
						<polygon fill="#7C5904" points="218.742,94.597 80.674,94.597 80.674,87.398 218.742,87.398 222.891,90.998 						"/>
					</g>
					<g>
						<polygon fill="#7C5904" points="224.133,87.398 362.203,87.398 362.203,94.597 224.133,94.597 228.281,90.998 						"/>
					</g>
				</g>
				<g>
					<g>
						<polygon fill="#7C5904" points="218.742,80.682 80.674,80.682 80.674,73.482 218.742,73.482 222.891,77.081 						"/>
					</g>
					<g>
						<polygon fill="#7C5904" points="224.133,73.482 362.203,73.482 362.203,80.682 224.133,80.682 228.281,77.081 						"/>
					</g>
				</g>
				<g>
					<g>
						<polygon fill="#7C5904" points="218.742,108.511 80.674,108.511 80.674,101.312 218.742,101.312 222.891,104.91 						"/>
					</g>
					<g>
						<polygon fill="#7C5904" points="224.133,101.312 362.203,101.312 362.203,108.511 224.133,108.511 228.281,104.91 						"/>
					</g>
				</g>
				<g>
					<g>
						<polygon fill="#7C5904" points="218.742,122.425 80.674,122.425 80.674,115.226 218.742,115.226 222.891,118.824 						"/>
					</g>
					<g>
						<polygon fill="#7C5904" points="224.133,115.226 362.203,115.226 362.203,122.425 224.133,122.425 228.281,118.824 						"/>
					</g>
				</g>
				<g>
					<g>
						<polygon fill="#7C5904" points="218.742,136.338 80.674,136.338 80.674,129.139 218.742,129.139 222.891,132.737 						"/>
					</g>
					<g>
						<polygon fill="#7C5904" points="224.133,129.139 362.203,129.139 362.203,136.338 224.133,136.338 228.281,132.737 						"/>
					</g>
				</g>
			</g>
			<g>
				<path fill="#C63706" d="M60.857,48.923h7.289v3.088H66.35v10.86h3.706c0.097,0,0.192-0.028,0.286-0.084
					c0.094-0.057,0.176-0.13,0.247-0.219c0.071-0.09,0.13-0.187,0.175-0.292c0.045-0.106,0.066-0.206,0.066-0.304v-2.28h3.639v6.256
					H60.857v-3.077h1.764v-10.86h-1.764V48.923z"/>
			</g>
		</g>
		<g>
			<g>
				<g>
					<g>
						<polygon fill="#7C5904" points="218.742,400.701 80.674,400.701 80.674,393.502 218.742,393.502 222.891,397.102 						"/>
					</g>
					<g>
						<polygon fill="#7C5904" points="224.133,393.502 362.203,393.502 362.203,400.701 224.133,400.701 228.281,397.102 						"/>
					</g>
				</g>
				<g>
					<g>
						<polygon fill="#7C5904" points="218.742,484.184 80.674,484.184 80.674,476.985 218.742,476.985 222.891,480.584 						"/>
					</g>
					<g>
						<polygon fill="#7C5904" points="224.133,476.985 362.203,476.985 362.203,484.184 224.133,484.184 228.281,480.584 						"/>
					</g>
				</g>
				<g>
					<g>
						<polygon fill="#7C5904" points="218.742,428.529 80.674,428.529 80.674,421.33 218.742,421.33 222.891,424.929 						"/>
					</g>
					<g>
						<polygon fill="#7C5904" points="224.133,421.33 362.203,421.33 362.203,428.529 224.133,428.529 228.281,424.929 						"/>
					</g>
				</g>
				<g>
					<g>
						<polygon fill="#7C5904" points="218.742,414.615 80.674,414.615 80.674,407.416 218.742,407.416 222.891,411.014 						"/>
					</g>
					<g>
						<polygon fill="#7C5904" points="224.133,407.416 362.203,407.416 362.203,414.615 224.133,414.615 228.281,411.014 						"/>
					</g>
				</g>
				<g>
					<g>
						<polygon fill="#7C5904" points="218.742,442.443 80.674,442.443 80.674,435.244 218.742,435.244 222.891,438.843 						"/>
					</g>
					<g>
						<polygon fill="#7C5904" points="224.133,435.244 362.203,435.244 362.203,442.443 224.133,442.443 228.281,438.843 						"/>
					</g>
				</g>
				<g>
					<g>
						<polygon fill="#7C5904" points="218.742,456.356 80.674,456.356 80.674,449.157 218.742,449.157 222.891,452.756 						"/>
					</g>
					<g>
						<polygon fill="#7C5904" points="224.133,449.157 362.203,449.157 362.203,456.356 224.133,456.356 228.281,452.756 						"/>
					</g>
				</g>
				<g>
					<g>
						<polygon fill="#7C5904" points="218.742,470.271 80.674,470.271 80.674,463.071 218.742,463.071 222.891,466.67 						"/>
					</g>
					<g>
						<polygon fill="#7C5904" points="224.133,463.071 362.203,463.071 362.203,470.271 224.133,470.271 228.281,466.67 						"/>
					</g>
				</g>
			</g>
			<g>
				<path fill="#398EB0" d="M63.756,400.015c-0.959-0.194-1.844-0.552-2.656-1.072c-0.812-0.521-1.517-1.162-2.111-1.925
					c-0.596-0.765-1.06-1.627-1.393-2.589c-0.334-0.961-0.5-1.982-0.5-3.061c0-0.816,0.098-1.6,0.292-2.353s0.468-1.456,0.819-2.111
					c0.353-0.656,0.777-1.251,1.275-1.787s1.052-0.993,1.662-1.376c0.609-0.381,1.268-0.677,1.971-0.886
					c0.703-0.21,1.441-0.315,2.213-0.315c0.771,0,1.51,0.104,2.218,0.315c0.707,0.209,1.366,0.505,1.977,0.886
					c0.61,0.383,1.164,0.841,1.662,1.376c0.497,0.535,0.925,1.131,1.28,1.787c0.355,0.655,0.631,1.358,0.825,2.111
					s0.292,1.536,0.292,2.353c0,1.093-0.172,2.126-0.517,3.1s-0.821,1.846-1.432,2.617c-0.61,0.771-1.335,1.416-2.173,1.931
					c-0.839,0.518-1.748,0.861-2.729,1.033c0.231,0.098,0.462,0.204,0.69,0.321c0.229,0.116,0.459,0.224,0.691,0.326
					c0.231,0.1,0.462,0.187,0.69,0.258c0.228,0.071,0.462,0.11,0.702,0.118c0.231,0,0.458-0.03,0.679-0.09
					c0.222-0.06,0.421-0.153,0.601-0.28c0.18-0.128,0.336-0.293,0.467-0.495c0.131-0.204,0.219-0.449,0.264-0.742l2.504,1.247
					c-0.066,0.548-0.223,1.041-0.466,1.483c-0.243,0.441-0.556,0.819-0.938,1.134s-0.815,0.559-1.303,0.73
					c-0.487,0.172-1.003,0.258-1.55,0.258c-0.441,0-0.885-0.084-1.331-0.252c-0.445-0.168-0.876-0.353-1.291-0.551
					c-0.416-0.198-0.808-0.382-1.174-0.55c-0.366-0.169-0.688-0.252-0.966-0.252c-0.119,0-0.227-0.002-0.32-0.005
					c-0.094-0.004-0.186-0.004-0.275,0c-0.09,0.003-0.188,0.015-0.297,0.034c-0.109,0.019-0.234,0.054-0.377,0.106L63.756,400.015z
					 M65.328,396.658c0.65,0,1.248-0.14,1.791-0.421c0.543-0.281,1.009-0.663,1.398-1.146c0.389-0.482,0.69-1.044,0.903-1.685
					c0.214-0.64,0.32-1.32,0.32-2.038c0-0.726-0.108-1.411-0.325-2.056c-0.218-0.644-0.522-1.207-0.916-1.689
					c-0.393-0.483-0.859-0.865-1.398-1.146c-0.539-0.281-1.13-0.421-1.773-0.421c-0.645,0-1.236,0.14-1.775,0.421
					c-0.539,0.28-1.003,0.662-1.393,1.146c-0.389,0.482-0.693,1.045-0.915,1.689c-0.221,0.645-0.331,1.33-0.331,2.056
					c0,0.718,0.11,1.398,0.331,2.038c0.222,0.64,0.526,1.203,0.915,1.685c0.39,0.483,0.854,0.865,1.393,1.146
					C64.092,396.518,64.684,396.658,65.328,396.658z"/>
			</g>
		</g>
		<g>
			<g>
				<path fill="#398EB0" d="M67.559,160.591h6.469v3.088h-1.381v13.938h-3.729l-7.086-11.006v7.929h1.426v3.078h-6.457v-3.078h1.403
					v-10.86h-1.382v-3.088h5.145l7.041,11.152v-8.064h-1.449V160.591z"/>
			</g>
			<g>
				<g>
					<g>
						<polygon fill="#7C5904" points="218.639,191.993 80.568,191.993 80.568,184.794 218.639,184.794 222.787,188.394 						"/>
					</g>
					<g>
						<polygon fill="#7C5904" points="224.029,184.794 362.1,184.794 362.1,191.993 224.029,191.993 228.178,188.394 						"/>
					</g>
				</g>
				<g>
					<g>
						<polygon fill="#7C5904" points="218.639,178.08 80.568,178.08 80.568,170.881 218.639,170.881 222.787,174.48 						"/>
					</g>
					<g>
						<polygon fill="#7C5904" points="224.029,170.881 362.1,170.881 362.1,178.08 224.029,178.08 228.178,174.48 						"/>
					</g>
				</g>
				<g>
					<g>
						<polygon fill="#7C5904" points="218.639,205.907 80.568,205.907 80.568,198.708 218.639,198.708 222.787,202.308 						"/>
					</g>
					<g>
						<polygon fill="#7C5904" points="224.029,198.708 362.1,198.708 362.1,205.907 224.029,205.907 228.178,202.308 						"/>
					</g>
				</g>
				<g>
					<g>
						<polygon fill="#7C5904" points="218.639,233.734 80.568,233.734 80.568,226.535 218.639,226.535 222.787,230.134 						"/>
					</g>
					<g>
						<polygon fill="#7C5904" points="224.029,226.535 362.1,226.535 362.1,233.734 224.029,233.734 228.178,230.134 						"/>
					</g>
				</g>
				<g>
					<g>
						<polygon fill="#7C5904" points="218.742,219.821 80.674,219.821 80.674,212.622 218.742,212.622 222.891,216.222 						"/>
					</g>
					<g>
						<polygon fill="#7C5904" points="224.133,212.622 362.203,212.622 362.203,219.821 224.133,219.821 228.281,216.222 						"/>
					</g>
				</g>
				<g>
					<g>
						<polygon fill="#7C5904" points="218.639,247.649 80.568,247.649 80.568,240.451 218.639,240.451 222.787,244.049 						"/>
					</g>
					<g>
						<polygon fill="#7C5904" points="224.029,240.451 362.1,240.451 362.1,247.649 224.029,247.649 228.178,244.049 						"/>
					</g>
				</g>
				<g>
					<g>
						<polygon fill="#7C5904" points="218.639,261.562 80.568,261.562 80.568,254.363 218.639,254.363 222.787,257.962 						"/>
					</g>
					<g>
						<polygon fill="#7C5904" points="224.029,254.363 362.1,254.363 362.1,261.562 224.029,261.562 228.178,257.962 						"/>
					</g>
				</g>
			</g>
		</g>
	</g>
</g>
</svg>
