<?xml version="1.0" encoding="utf-8"?>
<!-- Generator: Adobe Illustrator 16.0.4, SVG Export Plug-In . SVG Version: 6.00 Build 0)  -->
<!DOCTYPE svg PUBLIC "-//W3C//DTD SVG 1.1//EN" "http://www.w3.org/Graphics/SVG/1.1/DTD/svg11.dtd">
<svg version="1.1" id="Layer_1" xmlns="http://www.w3.org/2000/svg" xmlns:xlink="http://www.w3.org/1999/xlink" x="0px" y="0px"
	 width="448.747px" height="616.439px" viewBox="0 0 448.747 616.439" enable-background="new 0 0 448.747 616.439"
	 xml:space="preserve">
<rect x="0.5" y="0.5" fill="#FFFFFF" stroke="#C68D06" stroke-miterlimit="10" width="447.747" height="615.439"/>
<g>
	<path fill="#C68D06" d="M338.506,578.043l1.855-1.33c1.891,2.836,4.2,3.991,7.07,3.991c3.815,0,6.161-2.101,6.161-5.286
		c0-3.816-2.24-5.706-8.331-5.706h-0.979v-2.136h1.189c5.496,0,7.561-1.679,7.561-4.866c0-2.59-1.575-4.515-5.495-4.515
		c-2.625,0-4.655,1.295-6.16,3.15l-1.716-1.435c1.855-2.241,4.516-3.92,8.016-3.92c5.461,0,7.771,3.115,7.771,6.476
		c0,3.325-1.961,5.53-5.11,6.126c3.85,0.805,5.705,3.009,5.705,6.825c0,4.235-3.325,7.456-8.646,7.456
		C343.617,582.874,340.432,581.124,338.506,578.043z"/>
	<path fill="#C68D06" d="M375.257,576.118h-12.461v-1.855l11.796-17.781h3.046v17.432h4.375v2.205h-4.375v6.266h-2.381V576.118z
		 M375.257,573.913v-14.526h-0.069l-9.592,14.526H375.257z"/>
	<path fill="#C68D06" d="M387.61,556.481h2.556l7.735,22.612h0.07l7.771-22.612h2.416l-9.102,26.008h-2.345L387.61,556.481z"/>
</g>
<g>
	<g>
		<rect x="79.216" y="163.935" fill="#C0DDE7" width="281.738" height="7.199"/>
	</g>
	<g>
		<rect x="79.216" y="191.761" fill="#C0DDE7" width="281.738" height="7.2"/>
	</g>
	<g>
		<rect x="79.216" y="205.676" fill="#C0DDE7" width="281.738" height="7.199"/>
	</g>
	<g>
		<rect x="79.216" y="219.591" fill="#C0DDE7" width="281.738" height="7.199"/>
	</g>
	<g>
		<rect x="79.216" y="233.503" fill="#C0DDE7" width="281.738" height="7.2"/>
	</g>
	<g>
		<rect x="79.216" y="247.418" fill="#C0DDE7" width="281.738" height="7.199"/>
	</g>
	<g>
		<rect x="79.216" y="261.33" fill="#C0DDE7" width="281.738" height="7.201"/>
	</g>
	<g>
		<rect x="79.216" y="275.245" fill="#C0DDE7" width="281.738" height="7.199"/>
	</g>
	<g>
		<rect x="79.216" y="289.159" fill="#C0DDE7" width="281.738" height="7.2"/>
	</g>
	<g>
		<rect x="79.216" y="303.073" fill="#C0DDE7" width="281.738" height="7.199"/>
	</g>
	<g>
		<rect x="79.216" y="316.987" fill="#C0DDE7" width="281.738" height="7.2"/>
	</g>
	<g>
		<rect x="79.216" y="330.9" fill="#C0DDE7" width="281.738" height="7.199"/>
	</g>
	<g>
		<rect x="79.216" y="344.814" fill="#C0DDE7" width="281.738" height="7.199"/>
	</g>
	<g>
		<rect x="79.216" y="358.727" fill="#C0DDE7" width="281.738" height="7.202"/>
	</g>
	<g>
		<rect x="79.216" y="372.642" fill="#C0DDE7" width="281.738" height="7.2"/>
	</g>
	<g>
		<rect x="79.216" y="386.556" fill="#C0DDE7" width="281.738" height="7.199"/>
	</g>
	<g>
		<rect x="79.216" y="400.47" fill="#C0DDE7" width="281.738" height="7.199"/>
	</g>
	<g>
		<rect x="79.216" y="414.383" fill="#C0DDE7" width="281.738" height="7.199"/>
	</g>
	<g>
		<rect x="79.216" y="428.297" fill="#C0DDE7" width="281.738" height="7.2"/>
	</g>
	<g>
		<rect x="79.216" y="442.21" fill="#C0DDE7" width="281.738" height="7.2"/>
	</g>
	<g>
		<rect x="79.216" y="456.125" fill="#C0DDE7" width="281.738" height="7.2"/>
	</g>
	<g>
		<rect x="79.216" y="470.039" fill="#C0DDE7" width="281.738" height="7.199"/>
	</g>
	<g>
		<rect x="79.216" y="483.951" fill="#C0DDE7" width="281.738" height="7.201"/>
	</g>
	<g>
		<rect x="79.216" y="66.537" fill="#C0DDE7" width="281.738" height="7.2"/>
	</g>
	<g>
		<rect x="79.216" y="80.45" fill="#C0DDE7" width="281.738" height="7.201"/>
	</g>
	<g>
		<rect x="79.216" y="150.021" fill="#C0DDE7" width="281.738" height="7.201"/>
	</g>
	<g>
		<rect x="79.216" y="177.848" fill="#C0DDE7" width="281.738" height="7.2"/>
	</g>
	<g>
		<rect x="79.216" y="94.365" fill="#C0DDE7" width="281.738" height="7.199"/>
	</g>
	<g>
		<rect x="79.216" y="108.279" fill="#C0DDE7" width="281.738" height="7.201"/>
	</g>
	<g>
		<rect x="79.216" y="122.193" fill="#C0DDE7" width="281.738" height="7.199"/>
	</g>
	<g>
		<rect x="79.216" y="136.107" fill="#C0DDE7" width="281.738" height="7.198"/>
	</g>
	<g>
		<rect x="79.216" y="163.935" fill="#C0DDE7" width="281.738" height="7.201"/>
	</g>
	<g>
		<g>
			<g>
				<path fill="#C63706" d="M66.843,293.509h1.696l-0.764-2.448h-5.233l-0.764,2.448h1.797v3.077h-6.458v-3.077h1.269l4.638-13.948
					h4.503l4.537,13.948h1.235v3.077h-6.458V293.509z M63.429,288.186h3.437l-1.729-5.538L63.429,288.186z"/>
			</g>
			<g>
				<g>
					<g>
						<polygon fill="#7C5904" points="217.493,296.359 79.424,296.359 79.424,289.16 217.493,289.16 221.641,292.76 						"/>
					</g>
					<g>
						<polygon fill="#7C5904" points="222.883,289.16 360.954,289.16 360.954,296.359 222.883,296.359 227.032,292.76 						"/>
					</g>
				</g>
				<g>
					<g>
						<polygon fill="#7C5904" points="217.493,310.273 79.424,310.273 79.424,303.074 217.493,303.074 221.641,306.674 						"/>
					</g>
					<g>
						<polygon fill="#7C5904" points="222.883,303.074 360.954,303.074 360.954,310.273 222.883,310.273 227.032,306.674 						"/>
					</g>
				</g>
				<g>
					<g>
						<polygon fill="#7C5904" points="217.493,379.842 79.424,379.842 79.424,372.643 217.493,372.643 221.641,376.242 						"/>
					</g>
					<g>
						<polygon fill="#7C5904" points="222.883,372.643 360.954,372.643 360.954,379.842 222.883,379.842 227.032,376.242 						"/>
					</g>
				</g>
				<g>
					<g>
						<polygon fill="#7C5904" points="217.493,324.187 79.424,324.187 79.424,316.987 217.493,316.987 221.641,320.586 						"/>
					</g>
					<g>
						<polygon fill="#7C5904" points="222.883,316.987 360.954,316.987 360.954,324.187 222.883,324.187 227.032,320.586 						"/>
					</g>
				</g>
				<g>
					<g>
						<polygon fill="#7C5904" points="217.493,338.102 79.424,338.102 79.424,330.903 217.493,330.903 221.641,334.501 						"/>
					</g>
					<g>
						<polygon fill="#7C5904" points="222.883,330.903 360.954,330.903 360.954,338.102 222.883,338.102 227.032,334.501 						"/>
					</g>
				</g>
				<g>
					<g>
						<polygon fill="#7C5904" points="217.493,352.015 79.424,352.015 79.424,344.814 217.493,344.814 221.641,348.414 						"/>
					</g>
					<g>
						<polygon fill="#7C5904" points="222.883,344.814 360.954,344.814 360.954,352.015 222.883,352.015 227.032,348.414 						"/>
					</g>
				</g>
				<g>
					<g>
						<polygon fill="#7C5904" points="217.493,365.929 79.424,365.929 79.424,358.729 217.493,358.729 221.641,362.328 						"/>
					</g>
					<g>
						<polygon fill="#7C5904" points="222.883,358.729 360.954,358.729 360.954,365.929 222.883,365.929 227.032,362.328 						"/>
					</g>
				</g>
			</g>
		</g>
		<g>
			<g>
				<g>
					<g>
						<polygon fill="#7C5904" points="217.493,73.737 79.424,73.737 79.424,66.538 217.493,66.538 221.641,70.138 						"/>
					</g>
					<g>
						<polygon fill="#7C5904" points="222.883,66.538 360.954,66.538 360.954,73.737 222.883,73.737 227.032,70.138 						"/>
					</g>
				</g>
				<g>
					<g>
						<polygon fill="#7C5904" points="217.493,157.22 79.424,157.22 79.424,150.021 217.493,150.021 221.641,153.621 						"/>
					</g>
					<g>
						<polygon fill="#7C5904" points="222.883,150.021 360.954,150.021 360.954,157.22 222.883,157.22 227.032,153.621 						"/>
					</g>
				</g>
				<g>
					<g>
						<polygon fill="#7C5904" points="217.493,101.565 79.424,101.565 79.424,94.366 217.493,94.366 221.641,97.965 						"/>
					</g>
					<g>
						<polygon fill="#7C5904" points="222.883,94.366 360.954,94.366 360.954,101.565 222.883,101.565 227.032,97.965 						"/>
					</g>
				</g>
				<g>
					<g>
						<polygon fill="#7C5904" points="217.493,87.65 79.424,87.65 79.424,80.452 217.493,80.452 221.641,84.05 						"/>
					</g>
					<g>
						<polygon fill="#7C5904" points="222.883,80.452 360.954,80.452 360.954,87.65 222.883,87.65 227.032,84.05 						"/>
					</g>
				</g>
				<g>
					<g>
						<polygon fill="#7C5904" points="217.493,115.479 79.424,115.479 79.424,108.28 217.493,108.28 221.641,111.878 						"/>
					</g>
					<g>
						<polygon fill="#7C5904" points="222.883,108.28 360.954,108.28 360.954,115.479 222.883,115.479 227.032,111.878 						"/>
					</g>
				</g>
				<g>
					<g>
						<polygon fill="#7C5904" points="217.493,129.393 79.424,129.393 79.424,122.193 217.493,122.193 221.641,125.792 						"/>
					</g>
					<g>
						<polygon fill="#7C5904" points="222.883,122.193 360.954,122.193 360.954,129.393 222.883,129.393 227.032,125.792 						"/>
					</g>
				</g>
				<g>
					<g>
						<polygon fill="#7C5904" points="217.493,143.307 79.424,143.307 79.424,136.106 217.493,136.106 221.641,139.706 						"/>
					</g>
					<g>
						<polygon fill="#7C5904" points="222.883,136.106 360.954,136.106 360.954,143.307 222.883,143.307 227.032,139.706 						"/>
					</g>
				</g>
			</g>
			<g>
				<path fill="#C63706" d="M64.235,73.221c-0.771,0-1.509-0.105-2.212-0.314s-1.361-0.505-1.971-0.887
					c-0.61-0.382-1.165-0.841-1.662-1.375c-0.498-0.536-0.923-1.13-1.275-1.786c-0.352-0.655-0.625-1.357-0.82-2.106
					c-0.195-0.749-0.292-1.531-0.292-2.347s0.097-1.6,0.292-2.352c0.195-0.753,0.468-1.456,0.82-2.112
					c0.352-0.655,0.777-1.251,1.275-1.786c0.498-0.535,1.052-0.993,1.662-1.376c0.61-0.381,1.267-0.677,1.971-0.887
					s1.441-0.314,2.212-0.314s1.51,0.104,2.218,0.314c0.707,0.21,1.366,0.506,1.977,0.887c0.61,0.383,1.164,0.841,1.662,1.376
					c0.498,0.535,0.924,1.131,1.28,1.786c0.355,0.656,0.63,1.358,0.825,2.112c0.195,0.752,0.292,1.536,0.292,2.352
					c0,0.809-0.097,1.589-0.292,2.342c-0.195,0.751-0.47,1.456-0.825,2.111c-0.356,0.655-0.783,1.25-1.28,1.786
					c-0.498,0.535-1.052,0.994-1.662,1.375c-0.61,0.382-1.27,0.678-1.977,0.887C65.746,73.116,65.006,73.221,64.235,73.221z
					 M64.235,69.695c0.651,0,1.249-0.141,1.792-0.422c0.542-0.28,1.009-0.662,1.398-1.146c0.389-0.481,0.691-1.043,0.904-1.684
					c0.214-0.64,0.32-1.319,0.32-2.038c0-0.727-0.108-1.411-0.326-2.056c-0.217-0.644-0.522-1.207-0.916-1.689
					c-0.393-0.483-0.859-0.866-1.398-1.146c-0.539-0.281-1.13-0.421-1.774-0.421s-1.235,0.14-1.774,0.421
					c-0.539,0.28-1.003,0.663-1.393,1.146c-0.389,0.482-0.694,1.046-0.916,1.689c-0.221,0.645-0.331,1.329-0.331,2.056
					c0,0.719,0.11,1.398,0.331,2.038c0.221,0.641,0.526,1.203,0.916,1.684c0.389,0.484,0.854,0.866,1.393,1.146
					C63,69.555,63.591,69.695,64.235,69.695z"/>
			</g>
		</g>
		<g>
			<g>
				<g>
					<g>
						<polygon fill="#7C5904" points="217.493,407.669 79.424,407.669 79.424,400.47 217.493,400.47 221.641,404.071 						"/>
					</g>
					<g>
						<polygon fill="#7C5904" points="222.883,400.47 360.954,400.47 360.954,407.669 222.883,407.669 227.032,404.071 						"/>
					</g>
				</g>
				<g>
					<g>
						<polygon fill="#7C5904" points="217.493,491.152 79.424,491.152 79.424,483.954 217.493,483.954 221.641,487.553 						"/>
					</g>
					<g>
						<polygon fill="#7C5904" points="222.883,483.954 360.954,483.954 360.954,491.152 222.883,491.152 227.032,487.553 						"/>
					</g>
				</g>
				<g>
					<g>
						<polygon fill="#7C5904" points="217.493,435.498 79.424,435.498 79.424,428.299 217.493,428.299 221.641,431.898 						"/>
					</g>
					<g>
						<polygon fill="#7C5904" points="222.883,428.299 360.954,428.299 360.954,435.498 222.883,435.498 227.032,431.898 						"/>
					</g>
				</g>
				<g>
					<g>
						<polygon fill="#7C5904" points="217.493,421.583 79.424,421.583 79.424,414.384 217.493,414.384 221.641,417.982 						"/>
					</g>
					<g>
						<polygon fill="#7C5904" points="222.883,414.384 360.954,414.384 360.954,421.583 222.883,421.583 227.032,417.982 						"/>
					</g>
				</g>
				<g>
					<g>
						<polygon fill="#7C5904" points="217.493,449.412 79.424,449.412 79.424,442.213 217.493,442.213 221.641,445.812 						"/>
					</g>
					<g>
						<polygon fill="#7C5904" points="222.883,442.213 360.954,442.213 360.954,449.412 222.883,449.412 227.032,445.812 						"/>
					</g>
				</g>
				<g>
					<g>
						<polygon fill="#7C5904" points="217.493,463.325 79.424,463.325 79.424,456.126 217.493,456.126 221.641,459.725 						"/>
					</g>
					<g>
						<polygon fill="#7C5904" points="222.883,456.126 360.954,456.126 360.954,463.325 222.883,463.325 227.032,459.725 						"/>
					</g>
				</g>
				<g>
					<g>
						<polygon fill="#7C5904" points="217.493,477.239 79.424,477.239 79.424,470.04 217.493,470.04 221.641,473.639 						"/>
					</g>
					<g>
						<polygon fill="#7C5904" points="222.883,470.04 360.954,470.04 360.954,477.239 222.883,477.239 227.032,473.639 						"/>
					</g>
				</g>
			</g>
			<g>
				<path fill="#398EB0" d="M64.235,407.152c-0.771,0-1.509-0.104-2.212-0.314c-0.704-0.209-1.361-0.505-1.971-0.886
					c-0.61-0.382-1.165-0.841-1.662-1.376c-0.498-0.535-0.923-1.13-1.275-1.785c-0.352-0.655-0.625-1.357-0.82-2.106
					c-0.195-0.748-0.292-1.53-0.292-2.347c0-0.816,0.097-1.6,0.292-2.352c0.195-0.753,0.468-1.457,0.82-2.112
					s0.777-1.251,1.275-1.787c0.498-0.535,1.052-0.993,1.662-1.375c0.61-0.381,1.267-0.677,1.971-0.887
					c0.704-0.209,1.441-0.314,2.212-0.314s1.51,0.105,2.218,0.314c0.707,0.21,1.366,0.506,1.977,0.887
					c0.61,0.383,1.164,0.841,1.662,1.375c0.498,0.536,0.924,1.131,1.28,1.787c0.355,0.655,0.63,1.358,0.825,2.112
					c0.195,0.751,0.292,1.536,0.292,2.352c0,0.81-0.097,1.589-0.292,2.342c-0.195,0.752-0.47,1.457-0.825,2.111
					c-0.356,0.655-0.783,1.25-1.28,1.785c-0.498,0.536-1.052,0.994-1.662,1.376c-0.61,0.381-1.27,0.677-1.977,0.886
					C65.746,407.048,65.006,407.152,64.235,407.152z M64.235,403.627c0.651,0,1.249-0.14,1.792-0.422
					c0.542-0.28,1.009-0.662,1.398-1.145s0.691-1.044,0.904-1.685c0.214-0.64,0.32-1.319,0.32-2.039
					c0-0.726-0.108-1.411-0.326-2.055c-0.217-0.644-0.522-1.207-0.916-1.689c-0.393-0.483-0.859-0.865-1.398-1.145
					c-0.539-0.282-1.13-0.421-1.774-0.421s-1.235,0.14-1.774,0.421c-0.539,0.28-1.003,0.662-1.393,1.145
					c-0.389,0.482-0.694,1.046-0.916,1.689c-0.221,0.645-0.331,1.33-0.331,2.055c0,0.719,0.11,1.399,0.331,2.039
					c0.221,0.641,0.526,1.202,0.916,1.685s0.854,0.865,1.393,1.145C63,403.487,63.591,403.627,64.235,403.627z"/>
			</g>
		</g>
		<g>
			<g>
				<path fill="#398EB0" d="M65.523,167.561h7.289v3.077h-1.797v10.871h1.797v3.077h-7.289v-3.077h1.763v-10.871h-1.763V167.561z"/>
			</g>
			<g>
				<g>
					<g>
						<polygon fill="#7C5904" points="217.389,198.961 79.319,198.961 79.319,191.764 217.389,191.764 221.538,195.363 						"/>
					</g>
					<g>
						<polygon fill="#7C5904" points="222.78,191.764 360.85,191.764 360.85,198.961 222.78,198.961 226.928,195.363 						"/>
					</g>
				</g>
				<g>
					<g>
						<polygon fill="#7C5904" points="217.389,185.049 79.319,185.049 79.319,177.85 217.389,177.85 221.538,181.449 						"/>
					</g>
					<g>
						<polygon fill="#7C5904" points="222.78,177.85 360.85,177.85 360.85,185.049 222.78,185.049 226.928,181.449 						"/>
					</g>
				</g>
				<g>
					<g>
						<polygon fill="#7C5904" points="217.389,212.876 79.319,212.876 79.319,205.677 217.389,205.677 221.538,209.277 						"/>
					</g>
					<g>
						<polygon fill="#7C5904" points="222.78,205.677 360.85,205.677 360.85,212.876 222.78,212.876 226.928,209.277 						"/>
					</g>
				</g>
				<g>
					<g>
						<polygon fill="#7C5904" points="217.389,240.704 79.319,240.704 79.319,233.503 217.389,233.503 221.538,237.103 						"/>
					</g>
					<g>
						<polygon fill="#7C5904" points="222.78,233.503 360.85,233.503 360.85,240.704 222.78,240.704 226.928,237.103 						"/>
					</g>
				</g>
				<g>
					<g>
						<polygon fill="#7C5904" points="217.493,226.79 79.424,226.79 79.424,219.591 217.493,219.591 221.641,223.19 						"/>
					</g>
					<g>
						<polygon fill="#7C5904" points="222.883,219.591 360.954,219.591 360.954,226.79 222.883,226.79 227.032,223.19 						"/>
					</g>
				</g>
				<g>
					<g>
						<polygon fill="#7C5904" points="217.389,254.618 79.319,254.618 79.319,247.418 217.389,247.418 221.538,251.018 						"/>
					</g>
					<g>
						<polygon fill="#7C5904" points="222.78,247.418 360.85,247.418 360.85,254.618 222.78,254.618 226.928,251.018 						"/>
					</g>
				</g>
				<g>
					<g>
						<polygon fill="#7C5904" points="217.389,268.531 79.319,268.531 79.319,261.332 217.389,261.332 221.538,264.932 						"/>
					</g>
					<g>
						<polygon fill="#7C5904" points="222.78,261.332 360.85,261.332 360.85,268.531 222.78,268.531 226.928,264.932 						"/>
					</g>
				</g>
			</g>
		</g>
	</g>
</g>
</svg>
