<?xml version="1.0" encoding="utf-8"?>
<!-- Generator: Adobe Illustrator 16.0.4, SVG Export Plug-In . SVG Version: 6.00 Build 0)  -->
<!DOCTYPE svg PUBLIC "-//W3C//DTD SVG 1.1//EN" "http://www.w3.org/Graphics/SVG/1.1/DTD/svg11.dtd">
<svg version="1.1" id="Layer_1" xmlns="http://www.w3.org/2000/svg" xmlns:xlink="http://www.w3.org/1999/xlink" x="0px" y="0px"
	 width="448.747px" height="616.44px" viewBox="0 0 448.747 616.44" enable-background="new 0 0 448.747 616.44"
	 xml:space="preserve">
<rect x="0.5" y="0.5" fill="#FFFFFF" stroke="#C68D06" stroke-miterlimit="10" width="447.747" height="615.44"/>
<g>
	<path fill="#C68D06" d="M341.097,576.042l1.855-1.33c1.891,2.836,4.2,3.991,7.07,3.991c3.815,0,6.161-2.101,6.161-5.286
		c0-3.815-2.24-5.705-8.331-5.705h-0.979v-2.136h1.189c5.496,0,7.561-1.68,7.561-4.865c0-2.591-1.574-4.516-5.495-4.516
		c-2.625,0-4.655,1.295-6.161,3.15l-1.715-1.436c1.855-2.24,4.516-3.92,8.016-3.92c5.461,0,7.771,3.115,7.771,6.476
		c0,3.325-1.961,5.53-5.111,6.126c3.851,0.805,5.706,3.01,5.706,6.825c0,4.235-3.325,7.456-8.646,7.456
		C346.207,580.873,343.022,579.123,341.097,576.042z"/>
	<path fill="#C68D06" d="M365.597,576.218l1.785-1.436c1.575,2.276,3.641,3.921,6.721,3.921c4.445,0,6.476-3.291,6.476-6.791
		c0-4.2-2.485-6.44-5.916-6.44c-2.66,0-4.48,1.19-5.915,3.255l-1.855-0.7l1.016-13.546h13.687l-0.211,2.274h-11.411l-0.7,8.996
		c1.261-1.47,2.976-2.415,5.741-2.415c4.69,0,8.016,3.29,8.016,8.471c0,5.18-3.396,9.066-8.891,9.066
		C370.393,580.873,367.347,578.982,365.597,576.218z"/>
	<path fill="#C68D06" d="M389.36,554.48h2.556l7.735,22.613h0.07l7.771-22.613h2.416l-9.102,26.008h-2.345L389.36,554.48z"/>
</g>
<g>
	<g>
		<rect x="79.885" y="158.719" fill="#C0DDE7" width="281.738" height="7.199"/>
	</g>
	<g>
		<rect x="79.885" y="186.547" fill="#C0DDE7" width="281.738" height="7.2"/>
	</g>
	<g>
		<rect x="79.885" y="200.461" fill="#C0DDE7" width="281.738" height="7.199"/>
	</g>
	<g>
		<rect x="79.885" y="214.375" fill="#C0DDE7" width="281.738" height="7.199"/>
	</g>
	<g>
		<rect x="79.885" y="228.288" fill="#C0DDE7" width="281.738" height="7.199"/>
	</g>
	<g>
		<rect x="79.885" y="242.202" fill="#C0DDE7" width="281.738" height="7.199"/>
	</g>
	<g>
		<rect x="79.885" y="256.115" fill="#C0DDE7" width="281.738" height="7.201"/>
	</g>
	<g>
		<rect x="79.885" y="270.029" fill="#C0DDE7" width="281.738" height="7.199"/>
	</g>
	<g>
		<rect x="79.885" y="283.943" fill="#C0DDE7" width="281.738" height="7.2"/>
	</g>
	<g>
		<rect x="79.885" y="297.857" fill="#C0DDE7" width="281.738" height="7.199"/>
	</g>
	<g>
		<rect x="79.885" y="311.771" fill="#C0DDE7" width="281.738" height="7.2"/>
	</g>
	<g>
		<rect x="79.885" y="325.685" fill="#C0DDE7" width="281.738" height="7.199"/>
	</g>
	<g>
		<rect x="79.885" y="339.599" fill="#C0DDE7" width="281.738" height="7.199"/>
	</g>
	<g>
		<rect x="79.885" y="353.512" fill="#C0DDE7" width="281.738" height="7.201"/>
	</g>
	<g>
		<rect x="79.885" y="367.426" fill="#C0DDE7" width="281.738" height="7.2"/>
	</g>
	<g>
		<rect x="79.885" y="381.34" fill="#C0DDE7" width="281.738" height="7.199"/>
	</g>
	<g>
		<rect x="79.885" y="395.254" fill="#C0DDE7" width="281.738" height="7.199"/>
	</g>
	<g>
		<rect x="79.885" y="409.168" fill="#C0DDE7" width="281.738" height="7.199"/>
	</g>
	<g>
		<rect x="79.885" y="423.082" fill="#C0DDE7" width="281.738" height="7.2"/>
	</g>
	<g>
		<rect x="79.885" y="436.995" fill="#C0DDE7" width="281.738" height="7.2"/>
	</g>
	<g>
		<rect x="79.885" y="450.909" fill="#C0DDE7" width="281.738" height="7.2"/>
	</g>
	<g>
		<rect x="79.885" y="464.823" fill="#C0DDE7" width="281.738" height="7.199"/>
	</g>
	<g>
		<rect x="79.885" y="478.736" fill="#C0DDE7" width="281.738" height="7.2"/>
	</g>
	<g>
		<rect x="79.885" y="61.321" fill="#C0DDE7" width="281.738" height="7.2"/>
	</g>
	<g>
		<rect x="79.885" y="75.235" fill="#C0DDE7" width="281.738" height="7.2"/>
	</g>
	<g>
		<rect x="79.885" y="144.805" fill="#C0DDE7" width="281.738" height="7.2"/>
	</g>
	<g>
		<rect x="79.885" y="172.632" fill="#C0DDE7" width="281.738" height="7.2"/>
	</g>
	<g>
		<rect x="79.885" y="89.149" fill="#C0DDE7" width="281.738" height="7.199"/>
	</g>
	<g>
		<rect x="79.885" y="103.064" fill="#C0DDE7" width="281.738" height="7.2"/>
	</g>
	<g>
		<rect x="79.885" y="116.978" fill="#C0DDE7" width="281.738" height="7.199"/>
	</g>
	<g>
		<rect x="79.885" y="130.892" fill="#C0DDE7" width="281.738" height="7.198"/>
	</g>
	<g>
		<rect x="79.885" y="158.719" fill="#C0DDE7" width="281.738" height="7.2"/>
	</g>
	<g>
		<g>
			<g>
				<path fill="#C63706" d="M67.512,288.293h1.696l-0.764-2.448H63.21l-0.764,2.448h1.797v3.077h-6.458v-3.077h1.269l4.638-13.948
					h4.503l4.537,13.948h1.235v3.077h-6.458V288.293z M64.098,282.97h3.437l-1.729-5.537L64.098,282.97z"/>
			</g>
			<g>
				<g>
					<g>
						<polygon fill="#7C5904" points="218.162,291.144 80.093,291.144 80.093,283.944 218.162,283.944 222.31,287.544 						"/>
					</g>
					<g>
						<polygon fill="#7C5904" points="223.552,283.944 361.623,283.944 361.623,291.144 223.552,291.144 227.701,287.544 						"/>
					</g>
				</g>
				<g>
					<g>
						<polygon fill="#7C5904" points="218.162,305.058 80.093,305.058 80.093,297.858 218.162,297.858 222.31,301.458 						"/>
					</g>
					<g>
						<polygon fill="#7C5904" points="223.552,297.858 361.623,297.858 361.623,305.058 223.552,305.058 227.701,301.458 						"/>
					</g>
				</g>
				<g>
					<g>
						<polygon fill="#7C5904" points="218.162,374.626 80.093,374.626 80.093,367.427 218.162,367.427 222.31,371.026 						"/>
					</g>
					<g>
						<polygon fill="#7C5904" points="223.552,367.427 361.623,367.427 361.623,374.626 223.552,374.626 227.701,371.026 						"/>
					</g>
				</g>
				<g>
					<g>
						<polygon fill="#7C5904" points="218.162,318.971 80.093,318.971 80.093,311.772 218.162,311.772 222.31,315.372 						"/>
					</g>
					<g>
						<polygon fill="#7C5904" points="223.552,311.772 361.623,311.772 361.623,318.971 223.552,318.971 227.701,315.372 						"/>
					</g>
				</g>
				<g>
					<g>
						<polygon fill="#7C5904" points="218.162,332.886 80.093,332.886 80.093,325.687 218.162,325.687 222.31,329.285 						"/>
					</g>
					<g>
						<polygon fill="#7C5904" points="223.552,325.687 361.623,325.687 361.623,332.886 223.552,332.886 227.701,329.285 						"/>
					</g>
				</g>
				<g>
					<g>
						<polygon fill="#7C5904" points="218.162,346.799 80.093,346.799 80.093,339.599 218.162,339.599 222.31,343.198 						"/>
					</g>
					<g>
						<polygon fill="#7C5904" points="223.552,339.599 361.623,339.599 361.623,346.799 223.552,346.799 227.701,343.198 						"/>
					</g>
				</g>
				<g>
					<g>
						<polygon fill="#7C5904" points="218.162,360.713 80.093,360.713 80.093,353.513 218.162,353.513 222.31,357.112 						"/>
					</g>
					<g>
						<polygon fill="#7C5904" points="223.552,353.513 361.623,353.513 361.623,360.713 223.552,360.713 227.701,357.112 						"/>
					</g>
				</g>
			</g>
		</g>
		<g>
			<g>
				<g>
					<g>
						<polygon fill="#7C5904" points="218.162,68.521 80.093,68.521 80.093,61.322 218.162,61.322 222.31,64.923 						"/>
					</g>
					<g>
						<polygon fill="#7C5904" points="223.552,61.322 361.623,61.322 361.623,68.521 223.552,68.521 227.701,64.923 						"/>
					</g>
				</g>
				<g>
					<g>
						<polygon fill="#7C5904" points="218.162,152.004 80.093,152.004 80.093,144.806 218.162,144.806 222.31,148.405 						"/>
					</g>
					<g>
						<polygon fill="#7C5904" points="223.552,144.806 361.623,144.806 361.623,152.004 223.552,152.004 227.701,148.405 						"/>
					</g>
				</g>
				<g>
					<g>
						<polygon fill="#7C5904" points="218.162,96.35 80.093,96.35 80.093,89.15 218.162,89.15 222.31,92.75 						"/>
					</g>
					<g>
						<polygon fill="#7C5904" points="223.552,89.15 361.623,89.15 361.623,96.35 223.552,96.35 227.701,92.75 						"/>
					</g>
				</g>
				<g>
					<g>
						<polygon fill="#7C5904" points="218.162,82.435 80.093,82.435 80.093,75.235 218.162,75.235 222.31,78.834 						"/>
					</g>
					<g>
						<polygon fill="#7C5904" points="223.552,75.235 361.623,75.235 361.623,82.435 223.552,82.435 227.701,78.834 						"/>
					</g>
				</g>
				<g>
					<g>
						<polygon fill="#7C5904" points="218.162,110.264 80.093,110.264 80.093,103.064 218.162,103.064 222.31,106.664 						"/>
					</g>
					<g>
						<polygon fill="#7C5904" points="223.552,103.064 361.623,103.064 361.623,110.264 223.552,110.264 227.701,106.664 						"/>
					</g>
				</g>
				<g>
					<g>
						<polygon fill="#7C5904" points="218.162,124.177 80.093,124.177 80.093,116.978 218.162,116.978 222.31,120.577 						"/>
					</g>
					<g>
						<polygon fill="#7C5904" points="223.552,116.978 361.623,116.978 361.623,124.177 223.552,124.177 227.701,120.577 						"/>
					</g>
				</g>
				<g>
					<g>
						<polygon fill="#7C5904" points="218.162,138.091 80.093,138.091 80.093,130.892 218.162,130.892 222.31,134.49 						"/>
					</g>
					<g>
						<polygon fill="#7C5904" points="223.552,130.892 361.623,130.892 361.623,138.091 223.552,138.091 227.701,134.49 						"/>
					</g>
				</g>
			</g>
			<g>
				<path fill="#C63706" d="M69.598,55.472c-0.038-0.262-0.129-0.509-0.275-0.74c-0.146-0.233-0.333-0.433-0.562-0.602
					c-0.228-0.168-0.486-0.301-0.774-0.398c-0.289-0.098-0.59-0.147-0.904-0.147c-0.285,0-0.55,0.03-0.797,0.09
					c-0.247,0.061-0.462,0.152-0.646,0.275c-0.183,0.124-0.329,0.283-0.438,0.478c-0.109,0.194-0.163,0.427-0.163,0.696
					c0,0.337,0.073,0.604,0.219,0.803c0.146,0.199,0.333,0.361,0.562,0.488c0.229,0.128,0.481,0.229,0.758,0.304
					s0.546,0.157,0.809,0.248l3.088,1.033c0.427,0.149,0.827,0.355,1.202,0.617c0.375,0.263,0.698,0.581,0.971,0.955
					c0.273,0.374,0.489,0.805,0.646,1.292s0.236,1.033,0.236,1.64c0,0.823-0.151,1.575-0.455,2.257
					c-0.303,0.682-0.728,1.266-1.274,1.752s-1.202,0.864-1.965,1.134s-1.61,0.405-2.538,0.405c-0.651,0-1.267-0.073-1.847-0.219
					c-0.581-0.146-1.11-0.357-1.589-0.634s-0.898-0.608-1.258-0.994s-0.64-0.822-0.842-1.309h-1.157v-3.379h4.065v0.695
					c0,0.338,0.054,0.648,0.163,0.933c0.109,0.284,0.271,0.532,0.489,0.741c0.217,0.21,0.49,0.372,0.82,0.488
					c0.33,0.116,0.715,0.174,1.157,0.174c0.674,0,1.187-0.155,1.539-0.466c0.352-0.311,0.528-0.743,0.528-1.297
					c0-0.284-0.062-0.522-0.185-0.713c-0.124-0.191-0.283-0.353-0.478-0.483s-0.412-0.241-0.651-0.331s-0.476-0.172-0.708-0.247
					l-2.572-0.831c-0.487-0.149-0.957-0.359-1.409-0.629c-0.453-0.27-0.854-0.606-1.202-1.011c-0.348-0.404-0.625-0.878-0.831-1.421
					c-0.206-0.543-0.309-1.162-0.309-1.858c0-0.809,0.15-1.529,0.449-2.162c0.299-0.633,0.719-1.166,1.258-1.599
					c0.539-0.435,1.179-0.764,1.92-0.989s1.554-0.338,2.437-0.338c0.696,0,1.34,0.081,1.932,0.243
					c0.591,0.161,1.121,0.376,1.589,0.646c0.468,0.269,0.865,0.578,1.19,0.926c0.326,0.348,0.575,0.709,0.747,1.084h1.123v3.391
					h-4.065V55.472z"/>
			</g>
		</g>
		<g>
			<g>
				<g>
					<g>
						<polygon fill="#7C5904" points="218.162,402.454 80.093,402.454 80.093,395.255 218.162,395.255 222.31,398.856 						"/>
					</g>
					<g>
						<polygon fill="#7C5904" points="223.552,395.255 361.623,395.255 361.623,402.454 223.552,402.454 227.701,398.856 						"/>
					</g>
				</g>
				<g>
					<g>
						<polygon fill="#7C5904" points="218.162,485.937 80.093,485.937 80.093,478.738 218.162,478.738 222.31,482.338 						"/>
					</g>
					<g>
						<polygon fill="#7C5904" points="223.552,478.738 361.623,478.738 361.623,485.937 223.552,485.937 227.701,482.338 						"/>
					</g>
				</g>
				<g>
					<g>
						<polygon fill="#7C5904" points="218.162,430.282 80.093,430.282 80.093,423.083 218.162,423.083 222.31,426.683 						"/>
					</g>
					<g>
						<polygon fill="#7C5904" points="223.552,423.083 361.623,423.083 361.623,430.282 223.552,430.282 227.701,426.683 						"/>
					</g>
				</g>
				<g>
					<g>
						<polygon fill="#7C5904" points="218.162,416.367 80.093,416.367 80.093,409.168 218.162,409.168 222.31,412.768 						"/>
					</g>
					<g>
						<polygon fill="#7C5904" points="223.552,409.168 361.623,409.168 361.623,416.367 223.552,416.367 227.701,412.768 						"/>
					</g>
				</g>
				<g>
					<g>
						<polygon fill="#7C5904" points="218.162,444.197 80.093,444.197 80.093,436.998 218.162,436.998 222.31,440.596 						"/>
					</g>
					<g>
						<polygon fill="#7C5904" points="223.552,436.998 361.623,436.998 361.623,444.197 223.552,444.197 227.701,440.596 						"/>
					</g>
				</g>
				<g>
					<g>
						<polygon fill="#7C5904" points="218.162,458.109 80.093,458.109 80.093,450.91 218.162,450.91 222.31,454.51 						"/>
					</g>
					<g>
						<polygon fill="#7C5904" points="223.552,450.91 361.623,450.91 361.623,458.109 223.552,458.109 227.701,454.51 						"/>
					</g>
				</g>
				<g>
					<g>
						<polygon fill="#7C5904" points="218.162,472.024 80.093,472.024 80.093,464.824 218.162,464.824 222.31,468.423 						"/>
					</g>
					<g>
						<polygon fill="#7C5904" points="223.552,464.824 361.623,464.824 361.623,472.024 223.552,472.024 227.701,468.423 						"/>
					</g>
				</g>
			</g>
			<g>
				<path fill="#398EB0" d="M59.67,384.608h7.861c0.876,0,1.681,0.137,2.415,0.41s1.366,0.642,1.898,1.105
					c0.532,0.465,0.947,1,1.247,1.606s0.449,1.239,0.449,1.897c0,0.794-0.118,1.538-0.354,2.229
					c-0.236,0.693-0.601,1.294-1.095,1.803s-1.119,0.911-1.875,1.207c-0.756,0.296-1.651,0.444-2.684,0.444h-2.37v3.245h1.561v3.078
					H59.67v-3.078h1.763v-10.86H59.67V384.608z M65.162,387.697v4.571h1.539c0.854,0,1.531-0.179,2.033-0.539
					c0.501-0.359,0.752-0.929,0.752-1.707c0-0.727-0.236-1.295-0.708-1.707s-1.164-0.618-2.078-0.618H65.162z"/>
			</g>
		</g>
		<g>
			<g>
				<path fill="#398EB0" d="M63.07,179.505c-0.958-0.194-1.844-0.552-2.656-1.072c-0.812-0.521-1.517-1.162-2.111-1.926
					c-0.596-0.764-1.06-1.627-1.393-2.589c-0.333-0.962-0.5-1.982-0.5-3.061c0-0.816,0.097-1.601,0.292-2.353
					c0.195-0.753,0.468-1.456,0.82-2.111c0.352-0.656,0.777-1.251,1.275-1.786c0.498-0.536,1.052-0.994,1.662-1.376
					c0.61-0.381,1.267-0.677,1.971-0.887c0.704-0.21,1.441-0.315,2.212-0.315s1.51,0.105,2.218,0.315
					c0.707,0.21,1.366,0.506,1.977,0.887c0.61,0.382,1.164,0.84,1.662,1.376c0.498,0.535,0.924,1.13,1.28,1.786
					c0.355,0.655,0.63,1.358,0.825,2.111c0.195,0.752,0.292,1.537,0.292,2.353c0,1.093-0.172,2.126-0.517,3.1
					s-0.822,1.845-1.432,2.616c-0.61,0.771-1.335,1.416-2.173,1.932c-0.838,0.518-1.748,0.861-2.729,1.033
					c0.232,0.098,0.462,0.204,0.69,0.32c0.229,0.117,0.459,0.225,0.691,0.326c0.232,0.101,0.462,0.187,0.691,0.258
					c0.228,0.071,0.462,0.11,0.702,0.118c0.232,0,0.458-0.031,0.679-0.09c0.221-0.06,0.421-0.153,0.601-0.28
					c0.18-0.128,0.335-0.293,0.466-0.494c0.131-0.204,0.219-0.45,0.264-0.743l2.504,1.247c-0.067,0.547-0.223,1.041-0.466,1.482
					c-0.243,0.442-0.556,0.819-0.938,1.134s-0.816,0.559-1.303,0.73s-1.003,0.258-1.55,0.258c-0.442,0-0.885-0.084-1.331-0.252
					c-0.445-0.169-0.876-0.353-1.291-0.551c-0.416-0.198-0.807-0.381-1.174-0.55c-0.367-0.169-0.689-0.253-0.966-0.253
					c-0.12,0-0.227-0.002-0.32-0.006c-0.093-0.004-0.185-0.004-0.275,0s-0.189,0.016-0.297,0.034
					c-0.109,0.019-0.234,0.054-0.376,0.106L63.07,179.505z M64.642,176.148c0.651,0,1.249-0.141,1.792-0.422
					c0.542-0.28,1.009-0.662,1.398-1.146c0.389-0.482,0.691-1.044,0.904-1.685c0.214-0.64,0.32-1.319,0.32-2.038
					c0-0.727-0.108-1.411-0.326-2.056c-0.217-0.644-0.522-1.207-0.916-1.689c-0.393-0.483-0.859-0.865-1.398-1.146
					c-0.539-0.281-1.13-0.42-1.774-0.42s-1.235,0.139-1.774,0.42c-0.539,0.28-1.003,0.662-1.393,1.146
					c-0.389,0.482-0.694,1.046-0.916,1.689c-0.221,0.645-0.331,1.329-0.331,2.056c0,0.719,0.11,1.398,0.331,2.038
					c0.221,0.641,0.526,1.202,0.916,1.685c0.389,0.484,0.854,0.865,1.393,1.146C63.407,176.007,63.998,176.148,64.642,176.148z"/>
			</g>
			<g>
				<g>
					<g>
						<polygon fill="#7C5904" points="218.058,193.746 79.987,193.746 79.987,186.548 218.058,186.548 222.207,190.146 						"/>
					</g>
					<g>
						<polygon fill="#7C5904" points="223.449,186.548 361.519,186.548 361.519,193.746 223.449,193.746 227.597,190.146 						"/>
					</g>
				</g>
				<g>
					<g>
						<polygon fill="#7C5904" points="218.058,179.834 79.987,179.834 79.987,172.634 218.058,172.634 222.207,176.233 						"/>
					</g>
					<g>
						<polygon fill="#7C5904" points="223.449,172.634 361.519,172.634 361.519,179.834 223.449,179.834 227.597,176.233 						"/>
					</g>
				</g>
				<g>
					<g>
						<polygon fill="#7C5904" points="218.058,207.66 79.987,207.66 79.987,200.461 218.058,200.461 222.207,204.061 						"/>
					</g>
					<g>
						<polygon fill="#7C5904" points="223.449,200.461 361.519,200.461 361.519,207.66 223.449,207.66 227.597,204.061 						"/>
					</g>
				</g>
				<g>
					<g>
						<polygon fill="#7C5904" points="218.058,235.487 79.987,235.487 79.987,228.288 218.058,228.288 222.207,231.887 						"/>
					</g>
					<g>
						<polygon fill="#7C5904" points="223.449,228.288 361.519,228.288 361.519,235.487 223.449,235.487 227.597,231.887 						"/>
					</g>
				</g>
				<g>
					<g>
						<polygon fill="#7C5904" points="218.162,221.574 80.093,221.574 80.093,214.375 218.162,214.375 222.31,217.976 						"/>
					</g>
					<g>
						<polygon fill="#7C5904" points="223.552,214.375 361.623,214.375 361.623,221.574 223.552,221.574 227.701,217.976 						"/>
					</g>
				</g>
				<g>
					<g>
						<polygon fill="#7C5904" points="218.058,249.402 79.987,249.402 79.987,242.203 218.058,242.203 222.207,245.803 						"/>
					</g>
					<g>
						<polygon fill="#7C5904" points="223.449,242.203 361.519,242.203 361.519,249.402 223.449,249.402 227.597,245.803 						"/>
					</g>
				</g>
				<g>
					<g>
						<polygon fill="#7C5904" points="218.058,263.316 79.987,263.316 79.987,256.116 218.058,256.116 222.207,259.716 						"/>
					</g>
					<g>
						<polygon fill="#7C5904" points="223.449,256.116 361.519,256.116 361.519,263.316 223.449,263.316 227.597,259.716 						"/>
					</g>
				</g>
			</g>
		</g>
	</g>
</g>
</svg>
