<?xml version="1.0" encoding="utf-8"?>
<!-- Generator: Adobe Illustrator 16.0.4, SVG Export Plug-In . SVG Version: 6.00 Build 0)  -->
<!DOCTYPE svg PUBLIC "-//W3C//DTD SVG 1.1//EN" "http://www.w3.org/Graphics/SVG/1.1/DTD/svg11.dtd">
<svg version="1.1" id="Layer_1" xmlns="http://www.w3.org/2000/svg" xmlns:xlink="http://www.w3.org/1999/xlink" x="0px" y="0px"
	 width="448.747px" height="616.439px" viewBox="0 0 448.747 616.439" enable-background="new 0 0 448.747 616.439"
	 xml:space="preserve">
<rect x="0.501" y="0.5" fill="#FFFFFF" stroke="#C68D06" stroke-miterlimit="10" width="447.747" height="615.439"/>
<g>
	<path fill="#C68D06" d="M337.877,578.043l1.855-1.33c1.891,2.836,4.2,3.991,7.07,3.991c3.815,0,6.161-2.101,6.161-5.286
		c0-3.816-2.24-5.706-8.331-5.706h-0.979v-2.136h1.189c5.496,0,7.561-1.679,7.561-4.866c0-2.59-1.575-4.515-5.495-4.515
		c-2.625,0-4.655,1.295-6.16,3.15l-1.716-1.435c1.855-2.241,4.516-3.92,8.016-3.92c5.461,0,7.771,3.115,7.771,6.476
		c0,3.325-1.961,5.53-5.11,6.126c3.85,0.805,5.705,3.009,5.705,6.825c0,4.235-3.325,7.456-8.646,7.456
		C342.988,582.874,339.803,581.124,337.877,578.043z"/>
	<path fill="#C68D06" d="M362.377,578.219l1.785-1.436c1.575,2.275,3.641,3.921,6.721,3.921c4.445,0,6.476-3.291,6.476-6.791
		c0-4.2-2.485-6.44-5.916-6.44c-2.66,0-4.48,1.189-5.915,3.254l-1.855-0.7l1.016-13.546h13.686l-0.21,2.274h-11.411l-0.699,8.997
		c1.26-1.47,2.975-2.416,5.74-2.416c4.69,0,8.016,3.291,8.016,8.471s-3.396,9.066-8.891,9.066
		C367.172,582.874,364.127,580.983,362.377,578.219z"/>
	<path fill="#C68D06" d="M388.206,556.481h8.681c5.776,0,8.996,2.45,8.996,7c0,4.201-2.45,6.301-6.195,7.001l6.546,11.901h-2.801
		l-6.336-11.621h-6.44v11.621h-2.45V556.481z M396.712,568.558c4.271,0,6.686-1.226,6.686-4.971c0-3.57-2.38-4.831-6.721-4.831
		h-6.021v9.802H396.712z"/>
</g>
<g>
	<g>
		<rect x="79.217" y="163.935" fill="#C0DDE7" width="281.738" height="7.199"/>
	</g>
	<g>
		<rect x="79.217" y="191.761" fill="#C0DDE7" width="281.738" height="7.2"/>
	</g>
	<g>
		<rect x="79.217" y="205.676" fill="#C0DDE7" width="281.738" height="7.199"/>
	</g>
	<g>
		<rect x="79.217" y="219.591" fill="#C0DDE7" width="281.738" height="7.199"/>
	</g>
	<g>
		<rect x="79.217" y="233.503" fill="#C0DDE7" width="281.738" height="7.2"/>
	</g>
	<g>
		<rect x="79.217" y="247.418" fill="#C0DDE7" width="281.738" height="7.199"/>
	</g>
	<g>
		<rect x="79.217" y="261.33" fill="#C0DDE7" width="281.738" height="7.201"/>
	</g>
	<g>
		<rect x="79.217" y="275.245" fill="#C0DDE7" width="281.738" height="7.199"/>
	</g>
	<g>
		<rect x="79.217" y="289.159" fill="#C0DDE7" width="281.738" height="7.2"/>
	</g>
	<g>
		<rect x="79.217" y="303.073" fill="#C0DDE7" width="281.738" height="7.199"/>
	</g>
	<g>
		<rect x="79.217" y="316.987" fill="#C0DDE7" width="281.738" height="7.2"/>
	</g>
	<g>
		<rect x="79.217" y="330.9" fill="#C0DDE7" width="281.738" height="7.199"/>
	</g>
	<g>
		<rect x="79.217" y="344.814" fill="#C0DDE7" width="281.738" height="7.199"/>
	</g>
	<g>
		<rect x="79.217" y="358.727" fill="#C0DDE7" width="281.738" height="7.202"/>
	</g>
	<g>
		<rect x="79.217" y="372.642" fill="#C0DDE7" width="281.738" height="7.2"/>
	</g>
	<g>
		<rect x="79.217" y="386.556" fill="#C0DDE7" width="281.738" height="7.199"/>
	</g>
	<g>
		<rect x="79.217" y="400.47" fill="#C0DDE7" width="281.738" height="7.199"/>
	</g>
	<g>
		<rect x="79.217" y="414.383" fill="#C0DDE7" width="281.738" height="7.199"/>
	</g>
	<g>
		<rect x="79.217" y="428.297" fill="#C0DDE7" width="281.738" height="7.2"/>
	</g>
	<g>
		<rect x="79.217" y="442.21" fill="#C0DDE7" width="281.738" height="7.2"/>
	</g>
	<g>
		<rect x="79.217" y="456.125" fill="#C0DDE7" width="281.738" height="7.2"/>
	</g>
	<g>
		<rect x="79.217" y="470.039" fill="#C0DDE7" width="281.738" height="7.199"/>
	</g>
	<g>
		<rect x="79.217" y="483.951" fill="#C0DDE7" width="281.738" height="7.201"/>
	</g>
	<g>
		<rect x="79.217" y="66.537" fill="#C0DDE7" width="281.738" height="7.2"/>
	</g>
	<g>
		<rect x="79.217" y="80.45" fill="#C0DDE7" width="281.738" height="7.201"/>
	</g>
	<g>
		<rect x="79.217" y="150.021" fill="#C0DDE7" width="281.738" height="7.201"/>
	</g>
	<g>
		<rect x="79.217" y="177.848" fill="#C0DDE7" width="281.738" height="7.2"/>
	</g>
	<g>
		<rect x="79.217" y="94.365" fill="#C0DDE7" width="281.738" height="7.199"/>
	</g>
	<g>
		<rect x="79.217" y="108.279" fill="#C0DDE7" width="281.738" height="7.201"/>
	</g>
	<g>
		<rect x="79.217" y="122.193" fill="#C0DDE7" width="281.738" height="7.199"/>
	</g>
	<g>
		<rect x="79.217" y="136.107" fill="#C0DDE7" width="281.738" height="7.198"/>
	</g>
	<g>
		<rect x="79.217" y="163.935" fill="#C0DDE7" width="281.738" height="7.201"/>
	</g>
	<g>
		<g>
			<g>
				<path fill="#C63706" d="M64.34,296.889c-0.771,0-1.51-0.105-2.213-0.315c-0.703-0.209-1.361-0.505-1.971-0.887
					c-0.61-0.382-1.164-0.841-1.662-1.376c-0.498-0.535-0.923-1.13-1.275-1.785c-0.352-0.655-0.625-1.358-0.819-2.107
					c-0.194-0.748-0.292-1.53-0.292-2.346s0.098-1.6,0.292-2.352c0.194-0.753,0.468-1.457,0.819-2.112
					c0.353-0.655,0.777-1.251,1.275-1.786s1.052-0.993,1.662-1.376c0.609-0.381,1.268-0.677,1.971-0.887s1.441-0.314,2.213-0.314
					c0.771,0,1.51,0.104,2.218,0.314c0.707,0.21,1.366,0.506,1.977,0.887c0.61,0.383,1.164,0.841,1.662,1.376
					c0.497,0.535,0.925,1.131,1.28,1.786s0.631,1.358,0.825,2.112c0.194,0.752,0.292,1.536,0.292,2.352
					c0,0.809-0.098,1.589-0.292,2.342c-0.194,0.752-0.47,1.457-0.825,2.112c-0.355,0.655-0.783,1.25-1.28,1.785
					c-0.498,0.535-1.052,0.994-1.662,1.376s-1.27,0.678-1.977,0.887C65.85,296.784,65.11,296.889,64.34,296.889z M64.34,293.363
					c0.65,0,1.248-0.141,1.791-0.422c0.543-0.28,1.009-0.662,1.398-1.146c0.389-0.481,0.69-1.043,0.903-1.684
					c0.214-0.64,0.32-1.319,0.32-2.038c0-0.727-0.108-1.411-0.325-2.055c-0.218-0.644-0.522-1.208-0.916-1.69
					c-0.393-0.483-0.859-0.865-1.398-1.146c-0.539-0.281-1.13-0.421-1.773-0.421c-0.645,0-1.236,0.14-1.775,0.421
					c-0.539,0.28-1.003,0.663-1.393,1.146c-0.389,0.482-0.693,1.046-0.915,1.69c-0.221,0.644-0.331,1.329-0.331,2.055
					c0,0.719,0.11,1.398,0.331,2.038c0.222,0.641,0.526,1.203,0.915,1.684c0.39,0.484,0.854,0.866,1.393,1.146
					C63.104,293.223,63.695,293.363,64.34,293.363z"/>
			</g>
			<g>
				<g>
					<g>
						<polygon fill="#7C5904" points="217.494,296.359 79.426,296.359 79.426,289.16 217.494,289.16 221.643,292.76 						"/>
					</g>
					<g>
						<polygon fill="#7C5904" points="222.885,289.16 360.955,289.16 360.955,296.359 222.885,296.359 227.033,292.76 						"/>
					</g>
				</g>
				<g>
					<g>
						<polygon fill="#7C5904" points="217.494,310.273 79.426,310.273 79.426,303.074 217.494,303.074 221.643,306.674 						"/>
					</g>
					<g>
						<polygon fill="#7C5904" points="222.885,303.074 360.955,303.074 360.955,310.273 222.885,310.273 227.033,306.674 						"/>
					</g>
				</g>
				<g>
					<g>
						<polygon fill="#7C5904" points="217.494,379.842 79.426,379.842 79.426,372.643 217.494,372.643 221.643,376.242 						"/>
					</g>
					<g>
						<polygon fill="#7C5904" points="222.885,372.643 360.955,372.643 360.955,379.842 222.885,379.842 227.033,376.242 						"/>
					</g>
				</g>
				<g>
					<g>
						<polygon fill="#7C5904" points="217.494,324.187 79.426,324.187 79.426,316.987 217.494,316.987 221.643,320.586 						"/>
					</g>
					<g>
						<polygon fill="#7C5904" points="222.885,316.987 360.955,316.987 360.955,324.187 222.885,324.187 227.033,320.586 						"/>
					</g>
				</g>
				<g>
					<g>
						<polygon fill="#7C5904" points="217.494,338.102 79.426,338.102 79.426,330.903 217.494,330.903 221.643,334.501 						"/>
					</g>
					<g>
						<polygon fill="#7C5904" points="222.885,330.903 360.955,330.903 360.955,338.102 222.885,338.102 227.033,334.501 						"/>
					</g>
				</g>
				<g>
					<g>
						<polygon fill="#7C5904" points="217.494,352.015 79.426,352.015 79.426,344.814 217.494,344.814 221.643,348.414 						"/>
					</g>
					<g>
						<polygon fill="#7C5904" points="222.885,344.814 360.955,344.814 360.955,352.015 222.885,352.015 227.033,348.414 						"/>
					</g>
				</g>
				<g>
					<g>
						<polygon fill="#7C5904" points="217.494,365.929 79.426,365.929 79.426,358.729 217.494,358.729 221.643,362.328 						"/>
					</g>
					<g>
						<polygon fill="#7C5904" points="222.885,358.729 360.955,358.729 360.955,365.929 222.885,365.929 227.033,362.328 						"/>
					</g>
				</g>
			</g>
		</g>
		<g>
			<g>
				<g>
					<g>
						<polygon fill="#7C5904" points="217.494,73.737 79.426,73.737 79.426,66.538 217.494,66.538 221.643,70.138 						"/>
					</g>
					<g>
						<polygon fill="#7C5904" points="222.885,66.538 360.955,66.538 360.955,73.737 222.885,73.737 227.033,70.138 						"/>
					</g>
				</g>
				<g>
					<g>
						<polygon fill="#7C5904" points="217.494,157.22 79.426,157.22 79.426,150.021 217.494,150.021 221.643,153.621 						"/>
					</g>
					<g>
						<polygon fill="#7C5904" points="222.885,150.021 360.955,150.021 360.955,157.22 222.885,157.22 227.033,153.621 						"/>
					</g>
				</g>
				<g>
					<g>
						<polygon fill="#7C5904" points="217.494,101.565 79.426,101.565 79.426,94.366 217.494,94.366 221.643,97.965 						"/>
					</g>
					<g>
						<polygon fill="#7C5904" points="222.885,94.366 360.955,94.366 360.955,101.565 222.885,101.565 227.033,97.965 						"/>
					</g>
				</g>
				<g>
					<g>
						<polygon fill="#7C5904" points="217.494,87.65 79.426,87.65 79.426,80.452 217.494,80.452 221.643,84.05 						"/>
					</g>
					<g>
						<polygon fill="#7C5904" points="222.885,80.452 360.955,80.452 360.955,87.65 222.885,87.65 227.033,84.05 						"/>
					</g>
				</g>
				<g>
					<g>
						<polygon fill="#7C5904" points="217.494,115.479 79.426,115.479 79.426,108.28 217.494,108.28 221.643,111.878 						"/>
					</g>
					<g>
						<polygon fill="#7C5904" points="222.885,108.28 360.955,108.28 360.955,115.479 222.885,115.479 227.033,111.878 						"/>
					</g>
				</g>
				<g>
					<g>
						<polygon fill="#7C5904" points="217.494,129.393 79.426,129.393 79.426,122.193 217.494,122.193 221.643,125.792 						"/>
					</g>
					<g>
						<polygon fill="#7C5904" points="222.885,122.193 360.955,122.193 360.955,129.393 222.885,129.393 227.033,125.792 						"/>
					</g>
				</g>
				<g>
					<g>
						<polygon fill="#7C5904" points="217.494,143.307 79.426,143.307 79.426,136.106 217.494,136.106 221.643,139.706 						"/>
					</g>
					<g>
						<polygon fill="#7C5904" points="222.885,136.106 360.955,136.106 360.955,143.307 222.885,143.307 227.033,139.706 						"/>
					</g>
				</g>
			</g>
			<g>
				<path fill="#C63706" d="M59.609,55.893h7.288v3.088h-1.797v10.86h3.706c0.098,0,0.193-0.028,0.286-0.084
					c0.094-0.057,0.177-0.13,0.247-0.22c0.071-0.09,0.129-0.187,0.174-0.291c0.045-0.105,0.068-0.206,0.068-0.303v-2.281h3.639
					v6.256H59.609v-3.078h1.763V58.98h-1.763V55.893z"/>
			</g>
		</g>
		<g>
			<g>
				<g>
					<g>
						<polygon fill="#7C5904" points="217.494,407.669 79.426,407.669 79.426,400.47 217.494,400.47 221.643,404.071 						"/>
					</g>
					<g>
						<polygon fill="#7C5904" points="222.885,400.47 360.955,400.47 360.955,407.669 222.885,407.669 227.033,404.071 						"/>
					</g>
				</g>
				<g>
					<g>
						<polygon fill="#7C5904" points="217.494,491.152 79.426,491.152 79.426,483.954 217.494,483.954 221.643,487.553 						"/>
					</g>
					<g>
						<polygon fill="#7C5904" points="222.885,483.954 360.955,483.954 360.955,491.152 222.885,491.152 227.033,487.553 						"/>
					</g>
				</g>
				<g>
					<g>
						<polygon fill="#7C5904" points="217.494,435.498 79.426,435.498 79.426,428.299 217.494,428.299 221.643,431.898 						"/>
					</g>
					<g>
						<polygon fill="#7C5904" points="222.885,428.299 360.955,428.299 360.955,435.498 222.885,435.498 227.033,431.898 						"/>
					</g>
				</g>
				<g>
					<g>
						<polygon fill="#7C5904" points="217.494,421.583 79.426,421.583 79.426,414.384 217.494,414.384 221.643,417.982 						"/>
					</g>
					<g>
						<polygon fill="#7C5904" points="222.885,414.384 360.955,414.384 360.955,421.583 222.885,421.583 227.033,417.982 						"/>
					</g>
				</g>
				<g>
					<g>
						<polygon fill="#7C5904" points="217.494,449.412 79.426,449.412 79.426,442.213 217.494,442.213 221.643,445.812 						"/>
					</g>
					<g>
						<polygon fill="#7C5904" points="222.885,442.213 360.955,442.213 360.955,449.412 222.885,449.412 227.033,445.812 						"/>
					</g>
				</g>
				<g>
					<g>
						<polygon fill="#7C5904" points="217.494,463.325 79.426,463.325 79.426,456.126 217.494,456.126 221.643,459.725 						"/>
					</g>
					<g>
						<polygon fill="#7C5904" points="222.885,456.126 360.955,456.126 360.955,463.325 222.885,463.325 227.033,459.725 						"/>
					</g>
				</g>
				<g>
					<g>
						<polygon fill="#7C5904" points="217.494,477.239 79.426,477.239 79.426,470.04 217.494,470.04 221.643,473.639 						"/>
					</g>
					<g>
						<polygon fill="#7C5904" points="222.885,470.04 360.955,470.04 360.955,477.239 222.885,477.239 227.033,473.639 						"/>
					</g>
				</g>
			</g>
			<g>
				<path fill="#398EB0" d="M68.425,395.002c-0.419-0.6-0.798-1.024-1.134-1.276c-0.338-0.251-0.701-0.431-1.09-0.539
					c-0.389-0.108-0.797-0.162-1.225-0.162c-0.629,0-1.213,0.14-1.752,0.421c-0.539,0.28-1.005,0.662-1.397,1.145
					c-0.394,0.482-0.702,1.044-0.927,1.685c-0.225,0.639-0.337,1.319-0.337,2.038c0,0.727,0.11,1.409,0.331,2.05
					c0.221,0.639,0.526,1.199,0.916,1.679c0.389,0.479,0.854,0.86,1.393,1.14c0.539,0.281,1.13,0.421,1.773,0.421
					c0.449,0,0.869-0.072,1.258-0.218c0.39-0.146,0.744-0.339,1.062-0.579c0.318-0.239,0.597-0.515,0.837-0.825
					s0.427-0.635,0.562-0.972l3.616,1.011c-0.232,0.733-0.572,1.413-1.021,2.038s-0.99,1.166-1.623,1.623s-1.344,0.816-2.134,1.078
					c-0.79,0.262-1.642,0.393-2.556,0.393c-0.771,0-1.508-0.104-2.212-0.314c-0.704-0.209-1.36-0.505-1.971-0.886
					c-0.61-0.382-1.165-0.842-1.662-1.381c-0.498-0.54-0.923-1.137-1.274-1.792c-0.353-0.656-0.625-1.359-0.82-2.112
					c-0.195-0.752-0.292-1.536-0.292-2.353c0-1.221,0.214-2.364,0.64-3.431c0.428-1.067,1.012-1.999,1.752-2.797
					c0.742-0.796,1.612-1.425,2.611-1.886c1-0.46,2.076-0.69,3.229-0.69c0.922,0,1.696,0.114,2.325,0.343s1.321,0.679,2.077,1.353
					h2.516v3.797H68.425z"/>
			</g>
		</g>
		<g>
			<g>
				<path fill="#398EB0" d="M66.636,181.509h1.696l-0.764-2.448h-5.234l-0.764,2.448h1.797v3.077H56.91v-3.077h1.27l4.638-13.948
					h4.503l4.537,13.948h1.236v3.077h-6.458V181.509z M63.222,176.186h3.437l-1.729-5.538L63.222,176.186z"/>
			</g>
			<g>
				<g>
					<g>
						<polygon fill="#7C5904" points="217.391,198.961 79.32,198.961 79.32,191.764 217.391,191.764 221.539,195.363 						"/>
					</g>
					<g>
						<polygon fill="#7C5904" points="222.781,191.764 360.852,191.764 360.852,198.961 222.781,198.961 226.93,195.363 						"/>
					</g>
				</g>
				<g>
					<g>
						<polygon fill="#7C5904" points="217.391,185.049 79.32,185.049 79.32,177.85 217.391,177.85 221.539,181.449 						"/>
					</g>
					<g>
						<polygon fill="#7C5904" points="222.781,177.85 360.852,177.85 360.852,185.049 222.781,185.049 226.93,181.449 						"/>
					</g>
				</g>
				<g>
					<g>
						<polygon fill="#7C5904" points="217.391,212.876 79.32,212.876 79.32,205.677 217.391,205.677 221.539,209.277 						"/>
					</g>
					<g>
						<polygon fill="#7C5904" points="222.781,205.677 360.852,205.677 360.852,212.876 222.781,212.876 226.93,209.277 						"/>
					</g>
				</g>
				<g>
					<g>
						<polygon fill="#7C5904" points="217.391,240.704 79.32,240.704 79.32,233.503 217.391,233.503 221.539,237.103 						"/>
					</g>
					<g>
						<polygon fill="#7C5904" points="222.781,233.503 360.852,233.503 360.852,240.704 222.781,240.704 226.93,237.103 						"/>
					</g>
				</g>
				<g>
					<g>
						<polygon fill="#7C5904" points="217.494,226.79 79.426,226.79 79.426,219.591 217.494,219.591 221.643,223.19 						"/>
					</g>
					<g>
						<polygon fill="#7C5904" points="222.885,219.591 360.955,219.591 360.955,226.79 222.885,226.79 227.033,223.19 						"/>
					</g>
				</g>
				<g>
					<g>
						<polygon fill="#7C5904" points="217.391,254.618 79.32,254.618 79.32,247.418 217.391,247.418 221.539,251.018 						"/>
					</g>
					<g>
						<polygon fill="#7C5904" points="222.781,247.418 360.852,247.418 360.852,254.618 222.781,254.618 226.93,251.018 						"/>
					</g>
				</g>
				<g>
					<g>
						<polygon fill="#7C5904" points="217.391,268.531 79.32,268.531 79.32,261.332 217.391,261.332 221.539,264.932 						"/>
					</g>
					<g>
						<polygon fill="#7C5904" points="222.781,261.332 360.852,261.332 360.852,268.531 222.781,268.531 226.93,264.932 						"/>
					</g>
				</g>
			</g>
		</g>
	</g>
</g>
</svg>
