<?xml version="1.0" encoding="utf-8"?>
<!-- Generator: Adobe Illustrator 16.0.4, SVG Export Plug-In . SVG Version: 6.00 Build 0)  -->
<!DOCTYPE svg PUBLIC "-//W3C//DTD SVG 1.1//EN" "http://www.w3.org/Graphics/SVG/1.1/DTD/svg11.dtd">
<svg version="1.1" id="Layer_1" xmlns="http://www.w3.org/2000/svg" xmlns:xlink="http://www.w3.org/1999/xlink" x="0px" y="0px"
	 width="448.747px" height="616.435px" viewBox="0 0 448.747 616.435" enable-background="new 0 0 448.747 616.435"
	 xml:space="preserve">
<rect x="0.5" y="0.5" fill="#FFFFFF" stroke="#C68D06" stroke-miterlimit="10" width="447.747" height="615.435"/>
<g>
	<path fill="#C68D06" d="M339.333,578.789l1.855-1.33c1.891,2.836,4.2,3.991,7.07,3.991c3.815,0,6.161-2.101,6.161-5.286
		c0-3.815-2.24-5.705-8.331-5.705h-0.979v-2.136h1.189c5.496,0,7.561-1.68,7.561-4.865c0-2.591-1.574-4.516-5.495-4.516
		c-2.625,0-4.655,1.295-6.161,3.15l-1.715-1.436c1.855-2.24,4.516-3.92,8.016-3.92c5.461,0,7.771,3.115,7.771,6.476
		c0,3.325-1.961,5.53-5.111,6.126c3.851,0.805,5.706,3.01,5.706,6.825c0,4.235-3.325,7.456-8.646,7.456
		C344.443,583.62,341.258,581.87,339.333,578.789z"/>
	<path fill="#C68D06" d="M364.392,570.633c0-7.981,4.201-13.896,10.151-13.896c2.87,0,4.796,0.875,6.195,1.96l-1.295,1.891
		c-1.33-1.051-2.625-1.681-4.971-1.681c-4.726,0-7.631,5.041-7.665,11.481c1.645-1.785,4.095-3.466,7.386-3.466
		c5.46,0,8.086,3.396,8.086,8.086c0,4.9-3.466,8.611-8.682,8.611C368.488,583.62,364.392,579.524,364.392,570.633z M379.864,575.043
		c0-3.465-1.75-5.985-5.95-5.985c-2.87,0-5.426,1.61-7.001,3.815c0.525,6.021,3.36,8.61,6.791,8.61
		C377.414,581.484,379.864,579.139,379.864,575.043z"/>
	<path fill="#C68D06" d="M388.612,557.227h2.556l7.735,22.612h0.07l7.771-22.612h2.416l-9.102,26.008h-2.345L388.612,557.227z"/>
</g>
<g>
	<g>
		<rect x="80.387" y="158.966" fill="#C0DDE7" width="281.738" height="7.199"/>
	</g>
	<g>
		<rect x="80.387" y="186.793" fill="#C0DDE7" width="281.738" height="7.2"/>
	</g>
	<g>
		<rect x="80.387" y="200.708" fill="#C0DDE7" width="281.738" height="7.199"/>
	</g>
	<g>
		<rect x="80.387" y="214.623" fill="#C0DDE7" width="281.738" height="7.199"/>
	</g>
	<g>
		<rect x="80.387" y="228.536" fill="#C0DDE7" width="281.738" height="7.199"/>
	</g>
	<g>
		<rect x="80.387" y="242.45" fill="#C0DDE7" width="281.738" height="7.199"/>
	</g>
	<g>
		<rect x="80.387" y="256.363" fill="#C0DDE7" width="281.738" height="7.2"/>
	</g>
	<g>
		<rect x="80.387" y="270.277" fill="#C0DDE7" width="281.738" height="7.199"/>
	</g>
	<g>
		<rect x="80.387" y="284.191" fill="#C0DDE7" width="281.738" height="7.2"/>
	</g>
	<g>
		<rect x="80.387" y="298.105" fill="#C0DDE7" width="281.738" height="7.199"/>
	</g>
	<g>
		<rect x="80.387" y="312.018" fill="#C0DDE7" width="281.738" height="7.2"/>
	</g>
	<g>
		<rect x="80.387" y="325.932" fill="#C0DDE7" width="281.738" height="7.199"/>
	</g>
	<g>
		<rect x="80.387" y="339.846" fill="#C0DDE7" width="281.738" height="7.199"/>
	</g>
	<g>
		<rect x="80.387" y="353.759" fill="#C0DDE7" width="281.738" height="7.201"/>
	</g>
	<g>
		<rect x="80.387" y="367.673" fill="#C0DDE7" width="281.738" height="7.2"/>
	</g>
	<g>
		<rect x="80.387" y="381.587" fill="#C0DDE7" width="281.738" height="7.199"/>
	</g>
	<g>
		<rect x="80.387" y="395.501" fill="#C0DDE7" width="281.738" height="7.199"/>
	</g>
	<g>
		<rect x="80.387" y="409.416" fill="#C0DDE7" width="281.738" height="7.199"/>
	</g>
	<g>
		<rect x="80.387" y="423.329" fill="#C0DDE7" width="281.738" height="7.2"/>
	</g>
	<g>
		<rect x="80.387" y="437.243" fill="#C0DDE7" width="281.738" height="7.2"/>
	</g>
	<g>
		<rect x="80.387" y="451.157" fill="#C0DDE7" width="281.738" height="7.2"/>
	</g>
	<g>
		<rect x="80.387" y="465.071" fill="#C0DDE7" width="281.738" height="7.199"/>
	</g>
	<g>
		<rect x="80.387" y="478.984" fill="#C0DDE7" width="281.738" height="7.2"/>
	</g>
	<g>
		<rect x="80.387" y="61.569" fill="#C0DDE7" width="281.738" height="7.2"/>
	</g>
	<g>
		<rect x="80.387" y="75.483" fill="#C0DDE7" width="281.738" height="7.2"/>
	</g>
	<g>
		<rect x="80.387" y="145.052" fill="#C0DDE7" width="281.738" height="7.2"/>
	</g>
	<g>
		<rect x="80.387" y="172.88" fill="#C0DDE7" width="281.738" height="7.2"/>
	</g>
	<g>
		<rect x="80.387" y="89.397" fill="#C0DDE7" width="281.738" height="7.199"/>
	</g>
	<g>
		<rect x="80.387" y="103.311" fill="#C0DDE7" width="281.738" height="7.2"/>
	</g>
	<g>
		<rect x="80.387" y="117.225" fill="#C0DDE7" width="281.738" height="7.199"/>
	</g>
	<g>
		<rect x="80.387" y="131.14" fill="#C0DDE7" width="281.738" height="7.198"/>
	</g>
	<g>
		<rect x="80.387" y="158.966" fill="#C0DDE7" width="281.738" height="7.2"/>
	</g>
	<g>
		<g>
			<g>
				<path fill="#C63706" d="M60.276,274.592h7.861c0.876,0,1.681,0.137,2.415,0.41s1.366,0.642,1.898,1.105
					c0.532,0.465,0.947,1,1.247,1.606s0.449,1.239,0.449,1.897c0,0.794-0.118,1.537-0.354,2.229
					c-0.236,0.692-0.601,1.294-1.095,1.803s-1.119,0.911-1.875,1.207s-1.651,0.444-2.684,0.444h-2.37v3.245h1.561v3.077h-7.053
					v-3.077h1.763v-10.86h-1.763V274.592z M65.768,277.68v4.571h1.539c0.854,0,1.531-0.18,2.033-0.539s0.752-0.929,0.752-1.707
					c0-0.727-0.236-1.295-0.708-1.707s-1.164-0.618-2.078-0.618H65.768z"/>
			</g>
			<g>
				<g>
					<g>
						<polygon fill="#7C5904" points="218.664,291.391 80.595,291.391 80.595,284.192 218.664,284.192 222.812,287.792 						"/>
					</g>
					<g>
						<polygon fill="#7C5904" points="224.055,284.192 362.125,284.192 362.125,291.391 224.055,291.391 228.203,287.792 						"/>
					</g>
				</g>
				<g>
					<g>
						<polygon fill="#7C5904" points="218.664,305.305 80.595,305.305 80.595,298.106 218.664,298.106 222.812,301.706 						"/>
					</g>
					<g>
						<polygon fill="#7C5904" points="224.055,298.106 362.125,298.106 362.125,305.305 224.055,305.305 228.203,301.706 						"/>
					</g>
				</g>
				<g>
					<g>
						<polygon fill="#7C5904" points="218.664,374.874 80.595,374.874 80.595,367.674 218.664,367.674 222.812,371.274 						"/>
					</g>
					<g>
						<polygon fill="#7C5904" points="224.055,367.674 362.125,367.674 362.125,374.874 224.055,374.874 228.203,371.274 						"/>
					</g>
				</g>
				<g>
					<g>
						<polygon fill="#7C5904" points="218.664,319.218 80.595,319.218 80.595,312.019 218.664,312.019 222.812,315.619 						"/>
					</g>
					<g>
						<polygon fill="#7C5904" points="224.055,312.019 362.125,312.019 362.125,319.218 224.055,319.218 228.203,315.619 						"/>
					</g>
				</g>
				<g>
					<g>
						<polygon fill="#7C5904" points="218.664,333.133 80.595,333.133 80.595,325.934 218.664,325.934 222.812,329.533 						"/>
					</g>
					<g>
						<polygon fill="#7C5904" points="224.055,325.934 362.125,325.934 362.125,333.133 224.055,333.133 228.203,329.533 						"/>
					</g>
				</g>
				<g>
					<g>
						<polygon fill="#7C5904" points="218.664,347.046 80.595,347.046 80.595,339.846 218.664,339.846 222.812,343.446 						"/>
					</g>
					<g>
						<polygon fill="#7C5904" points="224.055,339.846 362.125,339.846 362.125,347.046 224.055,347.046 228.203,343.446 						"/>
					</g>
				</g>
				<g>
					<g>
						<polygon fill="#7C5904" points="218.664,360.96 80.595,360.96 80.595,353.76 218.664,353.76 222.812,357.36 						"/>
					</g>
					<g>
						<polygon fill="#7C5904" points="224.055,353.76 362.125,353.76 362.125,360.96 224.055,360.96 228.203,357.36 						"/>
					</g>
				</g>
			</g>
		</g>
		<g>
			<g>
				<g>
					<g>
						<polygon fill="#7C5904" points="218.664,68.769 80.595,68.769 80.595,61.57 218.664,61.57 222.812,65.17 						"/>
					</g>
					<g>
						<polygon fill="#7C5904" points="224.055,61.57 362.125,61.57 362.125,68.769 224.055,68.769 228.203,65.17 						"/>
					</g>
				</g>
				<g>
					<g>
						<polygon fill="#7C5904" points="218.664,152.252 80.595,152.252 80.595,145.053 218.664,145.053 222.812,148.653 						"/>
					</g>
					<g>
						<polygon fill="#7C5904" points="224.055,145.053 362.125,145.053 362.125,152.252 224.055,152.252 228.203,148.653 						"/>
					</g>
				</g>
				<g>
					<g>
						<polygon fill="#7C5904" points="218.664,96.597 80.595,96.597 80.595,89.398 218.664,89.398 222.812,92.998 						"/>
					</g>
					<g>
						<polygon fill="#7C5904" points="224.055,89.398 362.125,89.398 362.125,96.597 224.055,96.597 228.203,92.998 						"/>
					</g>
				</g>
				<g>
					<g>
						<polygon fill="#7C5904" points="218.664,82.682 80.595,82.682 80.595,75.483 218.664,75.483 222.812,79.082 						"/>
					</g>
					<g>
						<polygon fill="#7C5904" points="224.055,75.483 362.125,75.483 362.125,82.682 224.055,82.682 228.203,79.082 						"/>
					</g>
				</g>
				<g>
					<g>
						<polygon fill="#7C5904" points="218.664,110.511 80.595,110.511 80.595,103.312 218.664,103.312 222.812,106.911 						"/>
					</g>
					<g>
						<polygon fill="#7C5904" points="224.055,103.312 362.125,103.312 362.125,110.511 224.055,110.511 228.203,106.911 						"/>
					</g>
				</g>
				<g>
					<g>
						<polygon fill="#7C5904" points="218.664,124.424 80.595,124.424 80.595,117.225 218.664,117.225 222.812,120.825 						"/>
					</g>
					<g>
						<polygon fill="#7C5904" points="224.055,117.225 362.125,117.225 362.125,124.424 224.055,124.424 228.203,120.825 						"/>
					</g>
				</g>
				<g>
					<g>
						<polygon fill="#7C5904" points="218.664,138.338 80.595,138.338 80.595,131.139 218.664,131.139 222.812,134.738 						"/>
					</g>
					<g>
						<polygon fill="#7C5904" points="224.055,131.139 362.125,131.139 362.125,138.338 224.055,138.338 228.203,134.738 						"/>
					</g>
				</g>
			</g>
			<g>
				<path fill="#C63706" d="M61.453,50.924h13.173v5.807h-3.65v-2.393h-4.032v3.582h3.493v3.269h-3.493v3.684h1.797v3.077h-7.289
					v-3.077h1.763V54.338h-1.763V50.924z"/>
			</g>
		</g>
		<g>
			<g>
				<g>
					<g>
						<polygon fill="#7C5904" points="218.664,402.702 80.595,402.702 80.595,395.502 218.664,395.502 222.812,399.103 						"/>
					</g>
					<g>
						<polygon fill="#7C5904" points="224.055,395.502 362.125,395.502 362.125,402.702 224.055,402.702 228.203,399.103 						"/>
					</g>
				</g>
				<g>
					<g>
						<polygon fill="#7C5904" points="218.664,486.184 80.595,486.184 80.595,478.986 218.664,478.986 222.812,482.585 						"/>
					</g>
					<g>
						<polygon fill="#7C5904" points="224.055,478.986 362.125,478.986 362.125,486.184 224.055,486.184 228.203,482.585 						"/>
					</g>
				</g>
				<g>
					<g>
						<polygon fill="#7C5904" points="218.664,430.53 80.595,430.53 80.595,423.331 218.664,423.331 222.812,426.93 						"/>
					</g>
					<g>
						<polygon fill="#7C5904" points="224.055,423.331 362.125,423.331 362.125,430.53 224.055,430.53 228.203,426.93 						"/>
					</g>
				</g>
				<g>
					<g>
						<polygon fill="#7C5904" points="218.664,416.615 80.595,416.615 80.595,409.416 218.664,409.416 222.812,413.014 						"/>
					</g>
					<g>
						<polygon fill="#7C5904" points="224.055,409.416 362.125,409.416 362.125,416.615 224.055,416.615 228.203,413.014 						"/>
					</g>
				</g>
				<g>
					<g>
						<polygon fill="#7C5904" points="218.664,444.444 80.595,444.444 80.595,437.245 218.664,437.245 222.812,440.843 						"/>
					</g>
					<g>
						<polygon fill="#7C5904" points="224.055,437.245 362.125,437.245 362.125,444.444 224.055,444.444 228.203,440.843 						"/>
					</g>
				</g>
				<g>
					<g>
						<polygon fill="#7C5904" points="218.664,458.357 80.595,458.357 80.595,451.158 218.664,451.158 222.812,454.757 						"/>
					</g>
					<g>
						<polygon fill="#7C5904" points="224.055,451.158 362.125,451.158 362.125,458.357 224.055,458.357 228.203,454.757 						"/>
					</g>
				</g>
				<g>
					<g>
						<polygon fill="#7C5904" points="218.664,472.271 80.595,472.271 80.595,465.072 218.664,465.072 222.812,468.67 						"/>
					</g>
					<g>
						<polygon fill="#7C5904" points="224.055,465.072 362.125,465.072 362.125,472.271 224.055,472.271 228.203,468.67 						"/>
					</g>
				</g>
			</g>
			<g>
				<path fill="#398EB0" d="M49.56,398.804h1.583v-10.86H49.56v-3.088h7.008l5.02,12.286l4.661-12.286h7.109v3.088h-1.583v10.86
					h1.561v3.077h-6.368v-3.077h1.168v-9.793l-5.099,12.668h-3.156l-5.188-12.331v9.456h1.269v3.077H49.56V398.804z"/>
			</g>
		</g>
		<g>
			<g>
				<path fill="#398EB0" d="M63.572,179.752c-0.958-0.194-1.844-0.552-2.656-1.072c-0.812-0.521-1.517-1.162-2.111-1.926
					c-0.596-0.764-1.06-1.627-1.393-2.589c-0.333-0.962-0.5-1.982-0.5-3.06c0-0.816,0.097-1.601,0.292-2.353
					c0.195-0.753,0.468-1.456,0.82-2.111c0.352-0.655,0.777-1.251,1.275-1.786c0.498-0.535,1.052-0.993,1.662-1.376
					c0.61-0.381,1.267-0.677,1.971-0.887c0.704-0.21,1.441-0.314,2.212-0.314s1.51,0.104,2.218,0.314
					c0.707,0.21,1.366,0.506,1.977,0.887c0.61,0.383,1.164,0.841,1.662,1.376c0.498,0.535,0.924,1.131,1.28,1.786
					c0.355,0.655,0.63,1.358,0.825,2.111c0.195,0.752,0.292,1.536,0.292,2.353c0,1.092-0.172,2.126-0.517,3.1
					s-0.822,1.845-1.432,2.616c-0.61,0.771-1.335,1.416-2.173,1.932c-0.838,0.518-1.748,0.862-2.729,1.033
					c0.232,0.098,0.462,0.204,0.69,0.32c0.229,0.116,0.459,0.225,0.691,0.326c0.232,0.101,0.462,0.187,0.691,0.258
					c0.228,0.071,0.462,0.11,0.702,0.118c0.232,0,0.458-0.03,0.679-0.09c0.221-0.06,0.421-0.154,0.601-0.281
					c0.18-0.128,0.335-0.293,0.466-0.494c0.131-0.203,0.219-0.449,0.264-0.742l2.504,1.247c-0.067,0.547-0.223,1.041-0.466,1.482
					c-0.243,0.442-0.556,0.819-0.938,1.134c-0.382,0.315-0.816,0.559-1.303,0.731c-0.487,0.172-1.003,0.258-1.55,0.258
					c-0.442,0-0.885-0.084-1.331-0.252c-0.445-0.169-0.876-0.353-1.291-0.551c-0.416-0.198-0.807-0.381-1.174-0.55
					c-0.367-0.169-0.689-0.253-0.966-0.253c-0.12,0-0.227-0.002-0.32-0.006c-0.093-0.004-0.185-0.004-0.275,0
					c-0.09,0.004-0.189,0.015-0.297,0.034c-0.109,0.019-0.234,0.054-0.376,0.106L63.572,179.752z M65.145,176.395
					c0.651,0,1.249-0.141,1.792-0.422c0.542-0.28,1.009-0.662,1.398-1.146c0.389-0.482,0.691-1.044,0.904-1.684
					c0.214-0.64,0.32-1.319,0.32-2.038c0-0.727-0.108-1.411-0.326-2.056c-0.217-0.644-0.522-1.207-0.916-1.689
					c-0.393-0.484-0.859-0.865-1.398-1.146c-0.539-0.281-1.13-0.421-1.774-0.421s-1.235,0.14-1.774,0.421
					c-0.539,0.281-1.003,0.662-1.393,1.146c-0.389,0.482-0.694,1.046-0.916,1.689c-0.221,0.645-0.331,1.329-0.331,2.056
					c0,0.719,0.11,1.398,0.331,2.038c0.221,0.641,0.526,1.202,0.916,1.684c0.389,0.484,0.854,0.865,1.393,1.146
					C63.909,176.254,64.5,176.395,65.145,176.395z"/>
			</g>
			<g>
				<g>
					<g>
						<polygon fill="#7C5904" points="218.561,193.994 80.49,193.994 80.49,186.795 218.561,186.795 222.709,190.394 						"/>
					</g>
					<g>
						<polygon fill="#7C5904" points="223.951,186.795 362.021,186.795 362.021,193.994 223.951,193.994 228.1,190.394 						"/>
					</g>
				</g>
				<g>
					<g>
						<polygon fill="#7C5904" points="218.561,180.081 80.49,180.081 80.49,172.882 218.561,172.882 222.709,176.481 						"/>
					</g>
					<g>
						<polygon fill="#7C5904" points="223.951,172.882 362.021,172.882 362.021,180.081 223.951,180.081 228.1,176.481 						"/>
					</g>
				</g>
				<g>
					<g>
						<polygon fill="#7C5904" points="218.561,207.908 80.49,207.908 80.49,200.708 218.561,200.708 222.709,204.308 						"/>
					</g>
					<g>
						<polygon fill="#7C5904" points="223.951,200.708 362.021,200.708 362.021,207.908 223.951,207.908 228.1,204.308 						"/>
					</g>
				</g>
				<g>
					<g>
						<polygon fill="#7C5904" points="218.561,235.735 80.49,235.735 80.49,228.536 218.561,228.536 222.709,232.134 						"/>
					</g>
					<g>
						<polygon fill="#7C5904" points="223.951,228.536 362.021,228.536 362.021,235.735 223.951,235.735 228.1,232.134 						"/>
					</g>
				</g>
				<g>
					<g>
						<polygon fill="#7C5904" points="218.664,221.822 80.595,221.822 80.595,214.623 218.664,214.623 222.812,218.222 						"/>
					</g>
					<g>
						<polygon fill="#7C5904" points="224.055,214.623 362.125,214.623 362.125,221.822 224.055,221.822 228.203,218.222 						"/>
					</g>
				</g>
				<g>
					<g>
						<polygon fill="#7C5904" points="218.561,249.65 80.49,249.65 80.49,242.451 218.561,242.451 222.709,246.05 						"/>
					</g>
					<g>
						<polygon fill="#7C5904" points="223.951,242.451 362.021,242.451 362.021,249.65 223.951,249.65 228.1,246.05 						"/>
					</g>
				</g>
				<g>
					<g>
						<polygon fill="#7C5904" points="218.561,263.563 80.49,263.563 80.49,256.364 218.561,256.364 222.709,259.963 						"/>
					</g>
					<g>
						<polygon fill="#7C5904" points="223.951,256.364 362.021,256.364 362.021,263.563 223.951,263.563 228.1,259.963 						"/>
					</g>
				</g>
			</g>
		</g>
	</g>
</g>
</svg>
