<?xml version="1.0" encoding="utf-8"?>
<!-- Generator: Adobe Illustrator 16.0.4, SVG Export Plug-In . SVG Version: 6.00 Build 0)  -->
<!DOCTYPE svg PUBLIC "-//W3C//DTD SVG 1.1//EN" "http://www.w3.org/Graphics/SVG/1.1/DTD/svg11.dtd">
<svg version="1.1" id="Layer_1" xmlns="http://www.w3.org/2000/svg" xmlns:xlink="http://www.w3.org/1999/xlink" x="0px" y="0px"
	 width="448.746px" height="616.441px" viewBox="0 0 448.746 616.441" enable-background="new 0 0 448.746 616.441"
	 xml:space="preserve">
<rect x="0.5" y="0.5" fill="#FFFFFF" stroke="#C68D06" stroke-miterlimit="10" width="447.746" height="615.441"/>
<g>
	<path fill="#C68D06" d="M337.862,577.792l1.855-1.33c1.891,2.836,4.2,3.991,7.07,3.991c3.815,0,6.161-2.101,6.161-5.286
		c0-3.815-2.24-5.705-8.331-5.705h-0.979v-2.136h1.189c5.496,0,7.561-1.68,7.561-4.865c0-2.591-1.575-4.516-5.495-4.516
		c-2.625,0-4.655,1.295-6.16,3.15l-1.716-1.436c1.855-2.24,4.516-3.92,8.016-3.92c5.461,0,7.771,3.115,7.771,6.476
		c0,3.325-1.961,5.53-5.11,6.126c3.85,0.805,5.705,3.01,5.705,6.825c0,4.235-3.325,7.456-8.646,7.456
		C342.974,582.623,339.788,580.873,337.862,577.792z"/>
	<path fill="#C68D06" d="M362.922,569.637c0-7.982,4.201-13.897,10.151-13.897c2.87,0,4.796,0.875,6.195,1.96l-1.295,1.891
		c-1.33-1.051-2.625-1.681-4.971-1.681c-4.725,0-7.631,5.041-7.665,11.482c1.645-1.785,4.095-3.466,7.386-3.466
		c5.46,0,8.086,3.396,8.086,8.086c0,4.9-3.466,8.612-8.682,8.612C367.018,582.623,362.922,578.527,362.922,569.637z
		 M378.394,574.047c0-3.465-1.75-5.985-5.95-5.985c-2.87,0-5.426,1.61-7.001,3.815c0.525,6.021,3.36,8.61,6.791,8.61
		C375.943,580.487,378.394,578.143,378.394,574.047z"/>
	<path fill="#C68D06" d="M389.207,556.23h8.681c5.776,0,8.996,2.45,8.996,7c0,4.201-2.45,6.301-6.195,7.001l6.546,11.902h-2.801
		l-6.336-11.621h-6.44v11.621h-2.45V556.23z M397.713,568.307c4.271,0,6.686-1.226,6.686-4.97c0-3.571-2.38-4.831-6.721-4.831
		h-6.021v9.802H397.713z"/>
</g>
<g>
	<g>
		<rect x="80.221" y="157.967" fill="#C0DDE7" width="281.738" height="7.199"/>
	</g>
	<g>
		<rect x="80.221" y="185.794" fill="#C0DDE7" width="281.738" height="7.2"/>
	</g>
	<g>
		<rect x="80.221" y="199.709" fill="#C0DDE7" width="281.738" height="7.199"/>
	</g>
	<g>
		<rect x="80.221" y="213.623" fill="#C0DDE7" width="281.738" height="7.199"/>
	</g>
	<g>
		<rect x="80.221" y="227.536" fill="#C0DDE7" width="281.738" height="7.199"/>
	</g>
	<g>
		<rect x="80.221" y="241.45" fill="#C0DDE7" width="281.738" height="7.2"/>
	</g>
	<g>
		<rect x="80.221" y="255.363" fill="#C0DDE7" width="281.738" height="7.201"/>
	</g>
	<g>
		<rect x="80.221" y="269.277" fill="#C0DDE7" width="281.738" height="7.199"/>
	</g>
	<g>
		<rect x="80.221" y="283.191" fill="#C0DDE7" width="281.738" height="7.2"/>
	</g>
	<g>
		<rect x="80.221" y="297.106" fill="#C0DDE7" width="281.738" height="7.199"/>
	</g>
	<g>
		<rect x="80.221" y="311.019" fill="#C0DDE7" width="281.738" height="7.2"/>
	</g>
	<g>
		<rect x="80.221" y="324.933" fill="#C0DDE7" width="281.738" height="7.199"/>
	</g>
	<g>
		<rect x="80.221" y="338.846" fill="#C0DDE7" width="281.738" height="7.2"/>
	</g>
	<g>
		<rect x="80.221" y="352.76" fill="#C0DDE7" width="281.738" height="7.201"/>
	</g>
	<g>
		<rect x="80.221" y="366.674" fill="#C0DDE7" width="281.738" height="7.2"/>
	</g>
	<g>
		<rect x="80.221" y="380.588" fill="#C0DDE7" width="281.738" height="7.199"/>
	</g>
	<g>
		<rect x="80.221" y="394.502" fill="#C0DDE7" width="281.738" height="7.199"/>
	</g>
	<g>
		<rect x="80.221" y="408.416" fill="#C0DDE7" width="281.738" height="7.199"/>
	</g>
	<g>
		<rect x="80.221" y="422.329" fill="#C0DDE7" width="281.738" height="7.2"/>
	</g>
	<g>
		<rect x="80.221" y="436.243" fill="#C0DDE7" width="281.738" height="7.2"/>
	</g>
	<g>
		<rect x="80.221" y="450.157" fill="#C0DDE7" width="281.738" height="7.201"/>
	</g>
	<g>
		<rect x="80.221" y="464.071" fill="#C0DDE7" width="281.738" height="7.199"/>
	</g>
	<g>
		<rect x="80.221" y="477.984" fill="#C0DDE7" width="281.738" height="7.2"/>
	</g>
	<g>
		<rect x="80.221" y="60.569" fill="#C0DDE7" width="281.738" height="7.2"/>
	</g>
	<g>
		<rect x="80.221" y="74.483" fill="#C0DDE7" width="281.738" height="7.2"/>
	</g>
	<g>
		<rect x="80.221" y="144.053" fill="#C0DDE7" width="281.738" height="7.2"/>
	</g>
	<g>
		<rect x="80.221" y="171.881" fill="#C0DDE7" width="281.738" height="7.2"/>
	</g>
	<g>
		<rect x="80.221" y="88.398" fill="#C0DDE7" width="281.738" height="7.199"/>
	</g>
	<g>
		<rect x="80.221" y="102.312" fill="#C0DDE7" width="281.738" height="7.2"/>
	</g>
	<g>
		<rect x="80.221" y="116.226" fill="#C0DDE7" width="281.738" height="7.199"/>
	</g>
	<g>
		<rect x="80.221" y="130.141" fill="#C0DDE7" width="281.738" height="7.197"/>
	</g>
	<g>
		<rect x="80.221" y="157.967" fill="#C0DDE7" width="281.738" height="7.201"/>
	</g>
	<g>
		<g>
			<g>
				<path fill="#C63706" d="M65.343,290.921c-0.771,0-1.509-0.104-2.212-0.314c-0.704-0.208-1.361-0.505-1.971-0.887
					c-0.611-0.381-1.165-0.841-1.662-1.376c-0.498-0.535-0.924-1.13-1.275-1.785s-0.625-1.357-0.82-2.106
					c-0.194-0.748-0.291-1.53-0.291-2.346c0-0.817,0.097-1.601,0.291-2.353c0.195-0.753,0.469-1.456,0.82-2.111
					s0.777-1.251,1.275-1.786c0.497-0.535,1.051-0.993,1.662-1.375c0.609-0.381,1.267-0.677,1.971-0.887
					c0.703-0.21,1.441-0.314,2.212-0.314s1.511,0.104,2.218,0.314s1.367,0.506,1.977,0.887c0.61,0.382,1.164,0.84,1.662,1.375
					s0.925,1.131,1.281,1.786c0.355,0.655,0.63,1.358,0.824,2.111c0.195,0.752,0.293,1.536,0.293,2.353
					c0,0.808-0.098,1.588-0.293,2.341c-0.194,0.752-0.469,1.456-0.824,2.111c-0.356,0.655-0.783,1.25-1.281,1.785
					c-0.498,0.535-1.052,0.995-1.662,1.376c-0.609,0.382-1.27,0.678-1.977,0.887C66.854,290.816,66.113,290.921,65.343,290.921z
					 M65.343,287.396c0.651,0,1.249-0.141,1.792-0.422c0.542-0.28,1.008-0.662,1.397-1.146c0.39-0.482,0.69-1.044,0.903-1.685
					c0.215-0.64,0.32-1.319,0.32-2.038c0-0.727-0.107-1.412-0.325-2.056c-0.218-0.644-0.522-1.207-0.915-1.689
					c-0.393-0.483-0.859-0.865-1.398-1.146c-0.539-0.281-1.131-0.421-1.774-0.421s-1.235,0.14-1.774,0.421
					c-0.539,0.28-1.004,0.662-1.393,1.146c-0.389,0.482-0.694,1.046-0.916,1.689c-0.221,0.645-0.33,1.329-0.33,2.056
					c0,0.718,0.109,1.398,0.33,2.038c0.222,0.641,0.527,1.202,0.916,1.685c0.389,0.483,0.854,0.865,1.393,1.146
					C64.107,287.255,64.699,287.396,65.343,287.396z"/>
			</g>
			<g>
				<g>
					<g>
						<polygon fill="#7C5904" points="218.498,290.392 80.428,290.392 80.428,283.192 218.498,283.192 222.646,286.792 						"/>
					</g>
					<g>
						<polygon fill="#7C5904" points="223.889,283.192 361.959,283.192 361.959,290.392 223.889,290.392 228.037,286.792 						"/>
					</g>
				</g>
				<g>
					<g>
						<polygon fill="#7C5904" points="218.498,304.306 80.428,304.306 80.428,297.106 218.498,297.106 222.646,300.706 						"/>
					</g>
					<g>
						<polygon fill="#7C5904" points="223.889,297.106 361.959,297.106 361.959,304.306 223.889,304.306 228.037,300.706 						"/>
					</g>
				</g>
				<g>
					<g>
						<polygon fill="#7C5904" points="218.498,373.874 80.428,373.874 80.428,366.675 218.498,366.675 222.646,370.274 						"/>
					</g>
					<g>
						<polygon fill="#7C5904" points="223.889,366.675 361.959,366.675 361.959,373.874 223.889,373.874 228.037,370.274 						"/>
					</g>
				</g>
				<g>
					<g>
						<polygon fill="#7C5904" points="218.498,318.219 80.428,318.219 80.428,311.02 218.498,311.02 222.646,314.619 						"/>
					</g>
					<g>
						<polygon fill="#7C5904" points="223.889,311.02 361.959,311.02 361.959,318.219 223.889,318.219 228.037,314.619 						"/>
					</g>
				</g>
				<g>
					<g>
						<polygon fill="#7C5904" points="218.498,332.134 80.428,332.134 80.428,324.935 218.498,324.935 222.646,328.533 						"/>
					</g>
					<g>
						<polygon fill="#7C5904" points="223.889,324.935 361.959,324.935 361.959,332.134 223.889,332.134 228.037,328.533 						"/>
					</g>
				</g>
				<g>
					<g>
						<polygon fill="#7C5904" points="218.498,346.047 80.428,346.047 80.428,338.847 218.498,338.847 222.646,342.447 						"/>
					</g>
					<g>
						<polygon fill="#7C5904" points="223.889,338.847 361.959,338.847 361.959,346.047 223.889,346.047 228.037,342.447 						"/>
					</g>
				</g>
				<g>
					<g>
						<polygon fill="#7C5904" points="218.498,359.961 80.428,359.961 80.428,352.761 218.498,352.761 222.646,356.36 						"/>
					</g>
					<g>
						<polygon fill="#7C5904" points="223.889,352.761 361.959,352.761 361.959,359.961 223.889,359.961 228.037,356.36 						"/>
					</g>
				</g>
			</g>
		</g>
		<g>
			<g>
				<g>
					<g>
						<polygon fill="#7C5904" points="218.498,67.77 80.428,67.77 80.428,60.57 218.498,60.57 222.646,64.171 						"/>
					</g>
					<g>
						<polygon fill="#7C5904" points="223.889,60.57 361.959,60.57 361.959,67.77 223.889,67.77 228.037,64.171 						"/>
					</g>
				</g>
				<g>
					<g>
						<polygon fill="#7C5904" points="218.498,151.252 80.428,151.252 80.428,144.054 218.498,144.054 222.646,147.653 						"/>
					</g>
					<g>
						<polygon fill="#7C5904" points="223.889,144.054 361.959,144.054 361.959,151.252 223.889,151.252 228.037,147.653 						"/>
					</g>
				</g>
				<g>
					<g>
						<polygon fill="#7C5904" points="218.498,95.598 80.428,95.598 80.428,88.398 218.498,88.398 222.646,91.998 						"/>
					</g>
					<g>
						<polygon fill="#7C5904" points="223.889,88.398 361.959,88.398 361.959,95.598 223.889,95.598 228.037,91.998 						"/>
					</g>
				</g>
				<g>
					<g>
						<polygon fill="#7C5904" points="218.498,81.683 80.428,81.683 80.428,74.483 218.498,74.483 222.646,78.082 						"/>
					</g>
					<g>
						<polygon fill="#7C5904" points="223.889,74.483 361.959,74.483 361.959,81.683 223.889,81.683 228.037,78.082 						"/>
					</g>
				</g>
				<g>
					<g>
						<polygon fill="#7C5904" points="218.498,109.512 80.428,109.512 80.428,102.312 218.498,102.312 222.646,105.911 						"/>
					</g>
					<g>
						<polygon fill="#7C5904" points="223.889,102.312 361.959,102.312 361.959,109.512 223.889,109.512 228.037,105.911 						"/>
					</g>
				</g>
				<g>
					<g>
						<polygon fill="#7C5904" points="218.498,123.425 80.428,123.425 80.428,116.226 218.498,116.226 222.646,119.825 						"/>
					</g>
					<g>
						<polygon fill="#7C5904" points="223.889,116.226 361.959,116.226 361.959,123.425 223.889,123.425 228.037,119.825 						"/>
					</g>
				</g>
				<g>
					<g>
						<polygon fill="#7C5904" points="218.498,137.339 80.428,137.339 80.428,130.14 218.498,130.14 222.646,133.738 						"/>
					</g>
					<g>
						<polygon fill="#7C5904" points="223.889,130.14 361.959,130.14 361.959,137.339 223.889,137.339 228.037,133.738 						"/>
					</g>
				</g>
			</g>
			<g>
				<path fill="#C63706" d="M60.006,49.925h7.861c0.876,0,1.681,0.137,2.414,0.41c0.734,0.273,1.367,0.642,1.898,1.105
					c0.531,0.465,0.947,1,1.246,1.606c0.3,0.606,0.449,1.239,0.449,1.897c0,0.793-0.117,1.538-0.354,2.229
					c-0.236,0.692-0.601,1.294-1.095,1.803s-1.119,0.911-1.876,1.207c-0.756,0.296-1.65,0.444-2.684,0.444h-2.369v3.245h1.561v3.077
					h-7.053v-3.077h1.764v-10.86h-1.764V49.925z M65.498,53.013v4.571h1.538c0.854,0,1.531-0.179,2.032-0.539
					c0.502-0.359,0.753-0.929,0.753-1.707c0-0.727-0.235-1.295-0.708-1.708c-0.471-0.412-1.164-0.618-2.077-0.618H65.498z"/>
			</g>
		</g>
		<g>
			<g>
				<g>
					<g>
						<polygon fill="#7C5904" points="218.498,401.702 80.428,401.702 80.428,394.503 218.498,394.503 222.646,398.104 						"/>
					</g>
					<g>
						<polygon fill="#7C5904" points="223.889,394.503 361.959,394.503 361.959,401.702 223.889,401.702 228.037,398.104 						"/>
					</g>
				</g>
				<g>
					<g>
						<polygon fill="#7C5904" points="218.498,485.185 80.428,485.185 80.428,477.986 218.498,477.986 222.646,481.586 						"/>
					</g>
					<g>
						<polygon fill="#7C5904" points="223.889,477.986 361.959,477.986 361.959,485.185 223.889,485.185 228.037,481.586 						"/>
					</g>
				</g>
				<g>
					<g>
						<polygon fill="#7C5904" points="218.498,429.53 80.428,429.53 80.428,422.332 218.498,422.332 222.646,425.931 						"/>
					</g>
					<g>
						<polygon fill="#7C5904" points="223.889,422.332 361.959,422.332 361.959,429.53 223.889,429.53 228.037,425.931 						"/>
					</g>
				</g>
				<g>
					<g>
						<polygon fill="#7C5904" points="218.498,415.615 80.428,415.615 80.428,408.416 218.498,408.416 222.646,412.015 						"/>
					</g>
					<g>
						<polygon fill="#7C5904" points="223.889,408.416 361.959,408.416 361.959,415.615 223.889,415.615 228.037,412.015 						"/>
					</g>
				</g>
				<g>
					<g>
						<polygon fill="#7C5904" points="218.498,443.444 80.428,443.444 80.428,436.245 218.498,436.245 222.646,439.844 						"/>
					</g>
					<g>
						<polygon fill="#7C5904" points="223.889,436.245 361.959,436.245 361.959,443.444 223.889,443.444 228.037,439.844 						"/>
					</g>
				</g>
				<g>
					<g>
						<polygon fill="#7C5904" points="218.498,457.358 80.428,457.358 80.428,450.158 218.498,450.158 222.646,453.758 						"/>
					</g>
					<g>
						<polygon fill="#7C5904" points="223.889,450.158 361.959,450.158 361.959,457.358 223.889,457.358 228.037,453.758 						"/>
					</g>
				</g>
				<g>
					<g>
						<polygon fill="#7C5904" points="218.498,471.271 80.428,471.271 80.428,464.072 218.498,464.072 222.646,467.671 						"/>
					</g>
					<g>
						<polygon fill="#7C5904" points="223.889,464.072 361.959,464.072 361.959,471.271 223.889,471.271 228.037,467.671 						"/>
					</g>
				</g>
			</g>
			<g>
				<path fill="#398EB0" d="M49.393,397.805h1.584v-10.861h-1.584v-3.088H56.4l5.021,12.286l4.661-12.286h7.108v3.088h-1.583v10.861
					h1.561v3.077h-6.367v-3.077h1.168v-9.793l-5.1,12.668h-3.155l-5.188-12.331v9.456h1.27v3.077h-6.402V397.805z"/>
			</g>
		</g>
		<g>
			<g>
				<path fill="#398EB0" d="M69.594,178.618v-2.92c-0.465,0.816-0.918,1.415-1.359,1.797c-0.441,0.382-0.941,0.688-1.5,0.921
					c-0.557,0.232-1.304,0.345-2.24,0.337c-0.464-0.008-0.928-0.062-1.393-0.163c-0.464-0.101-0.913-0.243-1.348-0.426
					c-0.434-0.184-0.859-0.405-1.273-0.663c-0.416-0.259-0.793-0.557-1.129-0.893c-0.832-0.839-1.477-1.811-1.938-2.915
					s-0.691-2.308-0.691-3.61c0-0.801,0.098-1.577,0.293-2.325c0.194-0.749,0.467-1.449,0.819-2.101s0.776-1.245,1.274-1.78
					c0.498-0.535,1.053-0.994,1.662-1.375c0.61-0.383,1.268-0.678,1.971-0.888c0.704-0.21,1.441-0.314,2.213-0.314
					c0.883,0,1.65,0.118,2.303,0.354c0.65,0.236,1.352,0.675,2.1,1.319h2.516v3.797h-3.471c-0.344-0.533-0.668-0.918-0.971-1.158
					c-0.303-0.239-0.633-0.438-0.988-0.594c-0.355-0.158-0.852-0.236-1.488-0.236c-0.629,0-1.213,0.143-1.752,0.427
					s-1.006,0.668-1.398,1.151c-0.393,0.482-0.701,1.052-0.926,1.707s-0.338,1.327-0.338,2.016c0,0.682,0.102,1.329,0.304,1.943
					c0.202,0.613,0.509,1.166,0.921,1.656s0.891,0.866,1.438,1.129c0.547,0.262,1.131,0.393,1.752,0.393
					c0.793,0,1.486-0.232,2.078-0.696c0.591-0.464,1.018-1.097,1.279-1.898h-3.245v-3.078h7.884v9.086H69.594z"/>
			</g>
			<g>
				<g>
					<g>
						<polygon fill="#7C5904" points="218.395,192.994 80.322,192.994 80.322,185.796 218.395,185.796 222.543,189.395 						"/>
					</g>
					<g>
						<polygon fill="#7C5904" points="223.785,185.796 361.855,185.796 361.855,192.994 223.785,192.994 227.934,189.395 						"/>
					</g>
				</g>
				<g>
					<g>
						<polygon fill="#7C5904" points="218.395,179.081 80.322,179.081 80.322,171.882 218.395,171.882 222.543,175.482 						"/>
					</g>
					<g>
						<polygon fill="#7C5904" points="223.785,171.882 361.855,171.882 361.855,179.081 223.785,179.081 227.934,175.482 						"/>
					</g>
				</g>
				<g>
					<g>
						<polygon fill="#7C5904" points="218.395,206.908 80.322,206.908 80.322,199.709 218.395,199.709 222.543,203.309 						"/>
					</g>
					<g>
						<polygon fill="#7C5904" points="223.785,199.709 361.855,199.709 361.855,206.908 223.785,206.908 227.934,203.309 						"/>
					</g>
				</g>
				<g>
					<g>
						<polygon fill="#7C5904" points="218.395,234.735 80.322,234.735 80.322,227.536 218.395,227.536 222.543,231.135 						"/>
					</g>
					<g>
						<polygon fill="#7C5904" points="223.785,227.536 361.855,227.536 361.855,234.735 223.785,234.735 227.934,231.135 						"/>
					</g>
				</g>
				<g>
					<g>
						<polygon fill="#7C5904" points="218.498,220.822 80.428,220.822 80.428,213.624 218.498,213.624 222.646,217.223 						"/>
					</g>
					<g>
						<polygon fill="#7C5904" points="223.889,213.624 361.959,213.624 361.959,220.822 223.889,220.822 228.037,217.223 						"/>
					</g>
				</g>
				<g>
					<g>
						<polygon fill="#7C5904" points="218.395,248.65 80.322,248.65 80.322,241.451 218.395,241.451 222.543,245.051 						"/>
					</g>
					<g>
						<polygon fill="#7C5904" points="223.785,241.451 361.855,241.451 361.855,248.65 223.785,248.65 227.934,245.051 						"/>
					</g>
				</g>
				<g>
					<g>
						<polygon fill="#7C5904" points="218.395,262.563 80.322,262.563 80.322,255.364 218.395,255.364 222.543,258.964 						"/>
					</g>
					<g>
						<polygon fill="#7C5904" points="223.785,255.364 361.855,255.364 361.855,262.563 223.785,262.563 227.934,258.964 						"/>
					</g>
				</g>
			</g>
		</g>
	</g>
</g>
</svg>
