<?xml version="1.0" encoding="utf-8"?>
<!-- Generator: Adobe Illustrator 16.0.4, SVG Export Plug-In . SVG Version: 6.00 Build 0)  -->
<!DOCTYPE svg PUBLIC "-//W3C//DTD SVG 1.1//EN" "http://www.w3.org/Graphics/SVG/1.1/DTD/svg11.dtd">
<svg version="1.1" id="Layer_1" xmlns="http://www.w3.org/2000/svg" xmlns:xlink="http://www.w3.org/1999/xlink" x="0px" y="0px"
	 width="448.746px" height="616.435px" viewBox="0 0 448.746 616.435" enable-background="new 0 0 448.746 616.435"
	 xml:space="preserve">
<rect x="0.5" y="0.5" fill="#FFFFFF" stroke="#C68D06" stroke-miterlimit="10" width="447.746" height="615.435"/>
<g>
	<path fill="#C68D06" d="M340.674,577.789l1.855-1.33c1.891,2.836,4.2,3.991,7.07,3.991c3.815,0,6.161-2.101,6.161-5.286
		c0-3.815-2.24-5.705-8.331-5.705h-0.979v-2.136h1.189c5.496,0,7.561-1.68,7.561-4.865c0-2.591-1.574-4.516-5.495-4.516
		c-2.625,0-4.655,1.295-6.161,3.15l-1.715-1.436c1.855-2.24,4.516-3.92,8.016-3.92c5.461,0,7.771,3.115,7.771,6.476
		c0,3.325-1.961,5.53-5.111,6.126c3.851,0.805,5.706,3.01,5.706,6.825c0,4.235-3.325,7.456-8.646,7.456
		C345.784,582.62,342.6,580.87,340.674,577.789z"/>
	<path fill="#C68D06" d="M377.986,558.501h-13.337v-2.274h15.927v2.135l-10.956,23.768h-2.556L377.986,558.501z"/>
	<path fill="#C68D06" d="M388.939,556.227h8.681c5.776,0,8.996,2.45,8.996,7c0,4.201-2.45,6.301-6.195,7.001l6.546,11.901h-2.801
		l-6.336-11.621h-6.44v11.621h-2.45V556.227z M397.445,568.303c4.271,0,6.686-1.226,6.686-4.971c0-3.57-2.38-4.831-6.721-4.831
		h-6.021v9.802H397.445z"/>
</g>
<g>
	<rect x="80.221" y="157.966" fill="#C0DDE7" width="281.738" height="7.199"/>
</g>
<g>
	<rect x="80.221" y="185.793" fill="#C0DDE7" width="281.738" height="7.2"/>
</g>
<g>
	<rect x="80.221" y="199.708" fill="#C0DDE7" width="281.738" height="7.199"/>
</g>
<g>
	<rect x="80.221" y="213.623" fill="#C0DDE7" width="281.738" height="7.199"/>
</g>
<g>
	<rect x="80.221" y="227.536" fill="#C0DDE7" width="281.738" height="7.199"/>
</g>
<g>
	<rect x="80.221" y="241.45" fill="#C0DDE7" width="281.738" height="7.199"/>
</g>
<g>
	<rect x="80.221" y="255.363" fill="#C0DDE7" width="281.738" height="7.2"/>
</g>
<g>
	<rect x="80.221" y="269.277" fill="#C0DDE7" width="281.738" height="7.199"/>
</g>
<g>
	<rect x="80.221" y="283.191" fill="#C0DDE7" width="281.738" height="7.2"/>
</g>
<g>
	<rect x="80.221" y="297.105" fill="#C0DDE7" width="281.738" height="7.199"/>
</g>
<g>
	<rect x="80.221" y="311.018" fill="#C0DDE7" width="281.738" height="7.2"/>
</g>
<g>
	<rect x="80.221" y="324.932" fill="#C0DDE7" width="281.738" height="7.199"/>
</g>
<g>
	<rect x="80.221" y="338.846" fill="#C0DDE7" width="281.738" height="7.199"/>
</g>
<g>
	<rect x="80.221" y="352.759" fill="#C0DDE7" width="281.738" height="7.201"/>
</g>
<g>
	<rect x="80.221" y="366.673" fill="#C0DDE7" width="281.738" height="7.2"/>
</g>
<g>
	<rect x="80.221" y="380.587" fill="#C0DDE7" width="281.738" height="7.199"/>
</g>
<g>
	<rect x="80.221" y="394.501" fill="#C0DDE7" width="281.738" height="7.199"/>
</g>
<g>
	<rect x="80.221" y="408.416" fill="#C0DDE7" width="281.738" height="7.199"/>
</g>
<g>
	<rect x="80.221" y="422.329" fill="#C0DDE7" width="281.738" height="7.2"/>
</g>
<g>
	<rect x="80.221" y="436.243" fill="#C0DDE7" width="281.738" height="7.2"/>
</g>
<g>
	<rect x="80.221" y="450.157" fill="#C0DDE7" width="281.738" height="7.2"/>
</g>
<g>
	<rect x="80.221" y="464.071" fill="#C0DDE7" width="281.738" height="7.199"/>
</g>
<g>
	<rect x="80.221" y="477.984" fill="#C0DDE7" width="281.738" height="7.2"/>
</g>
<g>
	<rect x="80.221" y="60.569" fill="#C0DDE7" width="281.738" height="7.2"/>
</g>
<g>
	<rect x="80.221" y="74.483" fill="#C0DDE7" width="281.738" height="7.2"/>
</g>
<g>
	<rect x="80.221" y="144.052" fill="#C0DDE7" width="281.738" height="7.2"/>
</g>
<g>
	<rect x="80.221" y="171.88" fill="#C0DDE7" width="281.738" height="7.2"/>
</g>
<g>
	<rect x="80.221" y="88.397" fill="#C0DDE7" width="281.738" height="7.199"/>
</g>
<g>
	<rect x="80.221" y="102.311" fill="#C0DDE7" width="281.738" height="7.2"/>
</g>
<g>
	<rect x="80.221" y="116.225" fill="#C0DDE7" width="281.738" height="7.199"/>
</g>
<g>
	<rect x="80.221" y="130.14" fill="#C0DDE7" width="281.738" height="7.198"/>
</g>
<g>
	<rect x="80.221" y="157.966" fill="#C0DDE7" width="281.738" height="7.2"/>
</g>
<g>
	<g>
		<g>
			<path fill="#C63706" d="M60.109,273.592h7.861c0.877,0,1.682,0.137,2.415,0.41s1.366,0.642,1.897,1.105
				c0.532,0.465,0.947,1,1.247,1.606s0.449,1.239,0.449,1.897c0,0.794-0.118,1.537-0.354,2.229
				c-0.236,0.692-0.601,1.294-1.095,1.803s-1.119,0.911-1.876,1.207s-1.651,0.444-2.685,0.444h-2.369v3.245h1.561v3.077h-7.053
				v-3.077h1.764v-10.86h-1.764V273.592z M65.602,276.68v4.571h1.539c0.854,0,1.531-0.18,2.032-0.539s0.753-0.929,0.753-1.707
				c0-0.727-0.236-1.295-0.708-1.707s-1.164-0.618-2.077-0.618H65.602z"/>
		</g>
		<g>
			<g>
				<g>
					<polygon fill="#7C5904" points="218.498,290.391 80.429,290.391 80.429,283.192 218.498,283.192 222.646,286.792 					"/>
				</g>
				<g>
					<polygon fill="#7C5904" points="223.889,283.192 361.959,283.192 361.959,290.391 223.889,290.391 228.037,286.792 					"/>
				</g>
			</g>
			<g>
				<g>
					<polygon fill="#7C5904" points="218.498,304.305 80.429,304.305 80.429,297.106 218.498,297.106 222.646,300.706 					"/>
				</g>
				<g>
					<polygon fill="#7C5904" points="223.889,297.106 361.959,297.106 361.959,304.305 223.889,304.305 228.037,300.706 					"/>
				</g>
			</g>
			<g>
				<g>
					<polygon fill="#7C5904" points="218.498,373.874 80.429,373.874 80.429,366.674 218.498,366.674 222.646,370.274 					"/>
				</g>
				<g>
					<polygon fill="#7C5904" points="223.889,366.674 361.959,366.674 361.959,373.874 223.889,373.874 228.037,370.274 					"/>
				</g>
			</g>
			<g>
				<g>
					<polygon fill="#7C5904" points="218.498,318.218 80.429,318.218 80.429,311.019 218.498,311.019 222.646,314.619 					"/>
				</g>
				<g>
					<polygon fill="#7C5904" points="223.889,311.019 361.959,311.019 361.959,318.218 223.889,318.218 228.037,314.619 					"/>
				</g>
			</g>
			<g>
				<g>
					<polygon fill="#7C5904" points="218.498,332.133 80.429,332.133 80.429,324.934 218.498,324.934 222.646,328.533 					"/>
				</g>
				<g>
					<polygon fill="#7C5904" points="223.889,324.934 361.959,324.934 361.959,332.133 223.889,332.133 228.037,328.533 					"/>
				</g>
			</g>
			<g>
				<g>
					<polygon fill="#7C5904" points="218.498,346.046 80.429,346.046 80.429,338.846 218.498,338.846 222.646,342.446 					"/>
				</g>
				<g>
					<polygon fill="#7C5904" points="223.889,338.846 361.959,338.846 361.959,346.046 223.889,346.046 228.037,342.446 					"/>
				</g>
			</g>
			<g>
				<g>
					<polygon fill="#7C5904" points="218.498,359.96 80.429,359.96 80.429,352.76 218.498,352.76 222.646,356.36 					"/>
				</g>
				<g>
					<polygon fill="#7C5904" points="223.889,352.76 361.959,352.76 361.959,359.96 223.889,359.96 228.037,356.36 					"/>
				</g>
			</g>
		</g>
	</g>
	<g>
		<g>
			<g>
				<g>
					<polygon fill="#7C5904" points="218.498,67.769 80.429,67.769 80.429,60.57 218.498,60.57 222.646,64.17 					"/>
				</g>
				<g>
					<polygon fill="#7C5904" points="223.889,60.57 361.959,60.57 361.959,67.769 223.889,67.769 228.037,64.17 					"/>
				</g>
			</g>
			<g>
				<g>
					<polygon fill="#7C5904" points="218.498,151.252 80.429,151.252 80.429,144.053 218.498,144.053 222.646,147.653 					"/>
				</g>
				<g>
					<polygon fill="#7C5904" points="223.889,144.053 361.959,144.053 361.959,151.252 223.889,151.252 228.037,147.653 					"/>
				</g>
			</g>
			<g>
				<g>
					<polygon fill="#7C5904" points="218.498,95.597 80.429,95.597 80.429,88.398 218.498,88.398 222.646,91.998 					"/>
				</g>
				<g>
					<polygon fill="#7C5904" points="223.889,88.398 361.959,88.398 361.959,95.597 223.889,95.597 228.037,91.998 					"/>
				</g>
			</g>
			<g>
				<g>
					<polygon fill="#7C5904" points="218.498,81.682 80.429,81.682 80.429,74.483 218.498,74.483 222.646,78.082 					"/>
				</g>
				<g>
					<polygon fill="#7C5904" points="223.889,74.483 361.959,74.483 361.959,81.682 223.889,81.682 228.037,78.082 					"/>
				</g>
			</g>
			<g>
				<g>
					<polygon fill="#7C5904" points="218.498,109.511 80.429,109.511 80.429,102.312 218.498,102.312 222.646,105.911 					"/>
				</g>
				<g>
					<polygon fill="#7C5904" points="223.889,102.312 361.959,102.312 361.959,109.511 223.889,109.511 228.037,105.911 					"/>
				</g>
			</g>
			<g>
				<g>
					<polygon fill="#7C5904" points="218.498,123.424 80.429,123.424 80.429,116.225 218.498,116.225 222.646,119.825 					"/>
				</g>
				<g>
					<polygon fill="#7C5904" points="223.889,116.225 361.959,116.225 361.959,123.424 223.889,123.424 228.037,119.825 					"/>
				</g>
			</g>
			<g>
				<g>
					<polygon fill="#7C5904" points="218.498,137.338 80.429,137.338 80.429,130.139 218.498,130.139 222.646,133.738 					"/>
				</g>
				<g>
					<polygon fill="#7C5904" points="223.889,130.139 361.959,130.139 361.959,137.338 223.889,137.338 228.037,133.738 					"/>
				</g>
			</g>
		</g>
		<g>
			<path fill="#C63706" d="M67.744,63.873h1.695l-0.764-2.448h-5.232l-0.764,2.448h1.797v3.077h-6.458v-3.077h1.269l4.639-13.948
				h4.504l4.537,13.948h1.234v3.077h-6.457V63.873z M64.33,58.55h3.437l-1.729-5.537L64.33,58.55z"/>
		</g>
	</g>
	<g>
		<g>
			<g>
				<g>
					<polygon fill="#7C5904" points="218.498,401.702 80.429,401.702 80.429,394.502 218.498,394.502 222.646,398.103 					"/>
				</g>
				<g>
					<polygon fill="#7C5904" points="223.889,394.502 361.959,394.502 361.959,401.702 223.889,401.702 228.037,398.103 					"/>
				</g>
			</g>
			<g>
				<g>
					<polygon fill="#7C5904" points="218.498,485.184 80.429,485.184 80.429,477.986 218.498,477.986 222.646,481.585 					"/>
				</g>
				<g>
					<polygon fill="#7C5904" points="223.889,477.986 361.959,477.986 361.959,485.184 223.889,485.184 228.037,481.585 					"/>
				</g>
			</g>
			<g>
				<g>
					<polygon fill="#7C5904" points="218.498,429.53 80.429,429.53 80.429,422.331 218.498,422.331 222.646,425.93 					"/>
				</g>
				<g>
					<polygon fill="#7C5904" points="223.889,422.331 361.959,422.331 361.959,429.53 223.889,429.53 228.037,425.93 					"/>
				</g>
			</g>
			<g>
				<g>
					<polygon fill="#7C5904" points="218.498,415.615 80.429,415.615 80.429,408.416 218.498,408.416 222.646,412.014 					"/>
				</g>
				<g>
					<polygon fill="#7C5904" points="223.889,408.416 361.959,408.416 361.959,415.615 223.889,415.615 228.037,412.014 					"/>
				</g>
			</g>
			<g>
				<g>
					<polygon fill="#7C5904" points="218.498,443.444 80.429,443.444 80.429,436.245 218.498,436.245 222.646,439.843 					"/>
				</g>
				<g>
					<polygon fill="#7C5904" points="223.889,436.245 361.959,436.245 361.959,443.444 223.889,443.444 228.037,439.843 					"/>
				</g>
			</g>
			<g>
				<g>
					<polygon fill="#7C5904" points="218.498,457.357 80.429,457.357 80.429,450.158 218.498,450.158 222.646,453.757 					"/>
				</g>
				<g>
					<polygon fill="#7C5904" points="223.889,450.158 361.959,450.158 361.959,457.357 223.889,457.357 228.037,453.757 					"/>
				</g>
			</g>
			<g>
				<g>
					<polygon fill="#7C5904" points="218.498,471.271 80.429,471.271 80.429,464.072 218.498,464.072 222.646,467.67 					"/>
				</g>
				<g>
					<polygon fill="#7C5904" points="223.889,464.072 361.959,464.072 361.959,471.271 223.889,471.271 228.037,467.67 					"/>
				</g>
			</g>
		</g>
		<g>
			<path fill="#398EB0" d="M67.744,397.804h1.695l-0.764-2.448h-5.232l-0.764,2.448h1.797v3.077h-6.458v-3.077h1.269l4.639-13.948
				h4.504l4.537,13.948h1.234v3.077h-6.457V397.804z M64.33,392.481h3.437l-1.729-5.537L64.33,392.481z"/>
		</g>
	</g>
	<g>
		<g>
			<path fill="#398EB0" d="M69.594,178.618v-2.92c-0.465,0.817-0.917,1.415-1.359,1.797c-0.441,0.381-0.941,0.688-1.499,0.92
				c-0.558,0.233-1.304,0.345-2.24,0.337c-0.464-0.008-0.929-0.061-1.393-0.163c-0.464-0.101-0.913-0.243-1.348-0.427
				s-0.859-0.405-1.274-0.663c-0.416-0.259-0.792-0.556-1.129-0.892c-0.831-0.839-1.477-1.81-1.938-2.915
				c-0.46-1.104-0.69-2.308-0.69-3.611c0-0.801,0.097-1.576,0.292-2.324c0.195-0.749,0.468-1.449,0.82-2.101
				c0.352-0.651,0.776-1.245,1.274-1.78c0.497-0.535,1.052-0.994,1.662-1.375c0.61-0.383,1.267-0.678,1.971-0.888
				s1.441-0.314,2.212-0.314c0.884,0,1.651,0.118,2.303,0.354c0.651,0.236,1.352,0.676,2.1,1.319h2.516v3.797h-3.47
				c-0.345-0.532-0.668-0.918-0.972-1.157c-0.303-0.24-0.633-0.438-0.988-0.594c-0.355-0.158-0.852-0.237-1.488-0.237
				c-0.629,0-1.213,0.143-1.752,0.427c-0.539,0.284-1.005,0.668-1.397,1.152c-0.394,0.482-0.702,1.052-0.927,1.707
				c-0.225,0.655-0.337,1.327-0.337,2.015c0,0.682,0.101,1.329,0.304,1.944c0.201,0.613,0.509,1.166,0.92,1.656
				c0.412,0.49,0.892,0.866,1.438,1.129c0.547,0.261,1.131,0.392,1.752,0.392c0.794,0,1.486-0.232,2.078-0.697
				c0.592-0.464,1.018-1.096,1.28-1.897h-3.245v-3.078h7.883v9.086H69.594z"/>
		</g>
		<g>
			<g>
				<g>
					<polygon fill="#266279" points="218.395,192.994 80.323,192.994 80.323,185.795 218.395,185.795 222.543,189.394 					"/>
				</g>
				<g>
					<polygon fill="#266279" points="223.785,185.795 361.855,185.795 361.855,192.994 223.785,192.994 227.934,189.394 					"/>
				</g>
			</g>
			<g>
				<g>
					<polygon fill="#266279" points="218.395,179.081 80.323,179.081 80.323,171.882 218.395,171.882 222.543,175.481 					"/>
				</g>
				<g>
					<polygon fill="#266279" points="223.785,171.882 361.855,171.882 361.855,179.081 223.785,179.081 227.934,175.481 					"/>
				</g>
			</g>
			<g>
				<g>
					<polygon fill="#266279" points="218.395,206.908 80.323,206.908 80.323,199.708 218.395,199.708 222.543,203.308 					"/>
				</g>
				<g>
					<polygon fill="#266279" points="223.785,199.708 361.855,199.708 361.855,206.908 223.785,206.908 227.934,203.308 					"/>
				</g>
			</g>
			<g>
				<g>
					<polygon fill="#266279" points="218.395,234.735 80.323,234.735 80.323,227.536 218.395,227.536 222.543,231.134 					"/>
				</g>
				<g>
					<polygon fill="#266279" points="223.785,227.536 361.855,227.536 361.855,234.735 223.785,234.735 227.934,231.134 					"/>
				</g>
			</g>
			<g>
				<g>
					<polygon fill="#266279" points="218.498,220.822 80.429,220.822 80.429,213.623 218.498,213.623 222.646,217.222 					"/>
				</g>
				<g>
					<polygon fill="#266279" points="223.889,213.623 361.959,213.623 361.959,220.822 223.889,220.822 228.037,217.222 					"/>
				</g>
			</g>
			<g>
				<g>
					<polygon fill="#266279" points="218.395,248.65 80.323,248.65 80.323,241.451 218.395,241.451 222.543,245.05 					"/>
				</g>
				<g>
					<polygon fill="#266279" points="223.785,241.451 361.855,241.451 361.855,248.65 223.785,248.65 227.934,245.05 					"/>
				</g>
			</g>
			<g>
				<g>
					<polygon fill="#266279" points="218.395,262.563 80.323,262.563 80.323,255.364 218.395,255.364 222.543,258.963 					"/>
				</g>
				<g>
					<polygon fill="#266279" points="223.785,255.364 361.855,255.364 361.855,262.563 223.785,262.563 227.934,258.963 					"/>
				</g>
			</g>
		</g>
	</g>
</g>
</svg>
