<?xml version="1.0" encoding="utf-8"?>
<!-- Generator: Adobe Illustrator 16.0.4, SVG Export Plug-In . SVG Version: 6.00 Build 0)  -->
<!DOCTYPE svg PUBLIC "-//W3C//DTD SVG 1.1//EN" "http://www.w3.org/Graphics/SVG/1.1/DTD/svg11.dtd">
<svg version="1.1" id="Layer_1" xmlns="http://www.w3.org/2000/svg" xmlns:xlink="http://www.w3.org/1999/xlink" x="0px" y="0px"
	 width="448.745px" height="616.44px" viewBox="0 0 448.745 616.44" enable-background="new 0 0 448.745 616.44"
	 xml:space="preserve">
<rect x="0.5" y="0.5" fill="#FFFFFF" stroke="#C68D06" stroke-miterlimit="10" width="447.745" height="615.44"/>
<g>
	<path fill="#C68D06" d="M342.41,575.793l1.855-1.33c1.891,2.836,4.2,3.991,7.07,3.991c3.815,0,6.161-2.101,6.161-5.286
		c0-3.815-2.24-5.705-8.331-5.705h-0.979v-2.136h1.189c5.496,0,7.561-1.68,7.561-4.865c0-2.591-1.575-4.516-5.495-4.516
		c-2.625,0-4.655,1.295-6.16,3.15l-1.716-1.436c1.855-2.24,4.516-3.92,8.016-3.92c5.461,0,7.771,3.115,7.771,6.476
		c0,3.325-1.961,5.53-5.11,6.126c3.85,0.805,5.705,3.01,5.705,6.825c0,4.235-3.325,7.456-8.646,7.456
		C347.521,580.625,344.336,578.875,342.41,575.793z"/>
	<path fill="#C68D06" d="M379.723,556.506h-13.337v-2.274h15.927v2.135l-10.956,23.768h-2.556L379.723,556.506z"/>
	<path fill="#C68D06" d="M388.61,554.232h2.556l7.735,22.612h0.07l7.771-22.612h2.416l-9.102,26.008h-2.345L388.61,554.232z"/>
</g>
<g>
	<g>
		<rect x="80.216" y="158.467" fill="#C0DDE7" width="281.738" height="7.199"/>
	</g>
	<g>
		<rect x="80.216" y="186.294" fill="#C0DDE7" width="281.738" height="7.2"/>
	</g>
	<g>
		<rect x="80.216" y="200.209" fill="#C0DDE7" width="281.738" height="7.199"/>
	</g>
	<g>
		<rect x="80.216" y="214.124" fill="#C0DDE7" width="281.738" height="7.199"/>
	</g>
	<g>
		<rect x="80.216" y="228.037" fill="#C0DDE7" width="281.738" height="7.199"/>
	</g>
	<g>
		<rect x="80.216" y="241.951" fill="#C0DDE7" width="281.738" height="7.199"/>
	</g>
	<g>
		<rect x="80.216" y="255.864" fill="#C0DDE7" width="281.738" height="7.2"/>
	</g>
	<g>
		<rect x="80.216" y="269.778" fill="#C0DDE7" width="281.738" height="7.199"/>
	</g>
	<g>
		<rect x="80.216" y="283.692" fill="#C0DDE7" width="281.738" height="7.2"/>
	</g>
	<g>
		<rect x="80.216" y="297.606" fill="#C0DDE7" width="281.738" height="7.199"/>
	</g>
	<g>
		<rect x="80.216" y="311.519" fill="#C0DDE7" width="281.738" height="7.2"/>
	</g>
	<g>
		<rect x="80.216" y="325.433" fill="#C0DDE7" width="281.738" height="7.199"/>
	</g>
	<g>
		<rect x="80.216" y="339.347" fill="#C0DDE7" width="281.738" height="7.199"/>
	</g>
	<g>
		<rect x="80.216" y="353.26" fill="#C0DDE7" width="281.738" height="7.201"/>
	</g>
	<g>
		<rect x="80.216" y="367.174" fill="#C0DDE7" width="281.738" height="7.2"/>
	</g>
	<g>
		<rect x="80.216" y="381.088" fill="#C0DDE7" width="281.738" height="7.199"/>
	</g>
	<g>
		<rect x="80.216" y="395.002" fill="#C0DDE7" width="281.738" height="7.199"/>
	</g>
	<g>
		<rect x="80.216" y="408.917" fill="#C0DDE7" width="281.738" height="7.199"/>
	</g>
	<g>
		<rect x="80.216" y="422.83" fill="#C0DDE7" width="281.738" height="7.2"/>
	</g>
	<g>
		<rect x="80.216" y="436.744" fill="#C0DDE7" width="281.738" height="7.2"/>
	</g>
	<g>
		<rect x="80.216" y="450.658" fill="#C0DDE7" width="281.738" height="7.2"/>
	</g>
	<g>
		<rect x="80.216" y="464.572" fill="#C0DDE7" width="281.738" height="7.199"/>
	</g>
	<g>
		<rect x="80.216" y="478.485" fill="#C0DDE7" width="281.738" height="7.2"/>
	</g>
	<g>
		<rect x="80.216" y="61.07" fill="#C0DDE7" width="281.738" height="7.2"/>
	</g>
	<g>
		<rect x="80.216" y="74.984" fill="#C0DDE7" width="281.738" height="7.2"/>
	</g>
	<g>
		<rect x="80.216" y="144.553" fill="#C0DDE7" width="281.738" height="7.2"/>
	</g>
	<g>
		<rect x="80.216" y="172.38" fill="#C0DDE7" width="281.738" height="7.2"/>
	</g>
	<g>
		<rect x="80.216" y="88.898" fill="#C0DDE7" width="281.738" height="7.199"/>
	</g>
	<g>
		<rect x="80.216" y="102.812" fill="#C0DDE7" width="281.738" height="7.2"/>
	</g>
	<g>
		<rect x="80.216" y="116.726" fill="#C0DDE7" width="281.738" height="7.199"/>
	</g>
	<g>
		<rect x="80.216" y="130.641" fill="#C0DDE7" width="281.738" height="7.197"/>
	</g>
	<g>
		<rect x="80.216" y="158.467" fill="#C0DDE7" width="281.738" height="7.2"/>
	</g>
	<g>
		<g>
			<g>
				<path fill="#C63706" d="M67.843,288.042h1.696l-0.764-2.448h-5.233l-0.764,2.448h1.797v3.077h-6.458v-3.077h1.269l4.638-13.948
					h4.503l4.537,13.948h1.235v3.077h-6.458V288.042z M64.429,282.718h3.437l-1.729-5.537L64.429,282.718z"/>
			</g>
			<g>
				<g>
					<g>
						<polygon fill="#7C5904" points="218.493,290.892 80.424,290.892 80.424,283.693 218.493,283.693 222.642,287.292 						"/>
					</g>
					<g>
						<polygon fill="#7C5904" points="223.884,283.693 361.955,283.693 361.955,290.892 223.884,290.892 228.032,287.292 						"/>
					</g>
				</g>
				<g>
					<g>
						<polygon fill="#7C5904" points="218.493,304.806 80.424,304.806 80.424,297.607 218.493,297.607 222.642,301.207 						"/>
					</g>
					<g>
						<polygon fill="#7C5904" points="223.884,297.607 361.955,297.607 361.955,304.806 223.884,304.806 228.032,301.207 						"/>
					</g>
				</g>
				<g>
					<g>
						<polygon fill="#7C5904" points="218.493,374.375 80.424,374.375 80.424,367.175 218.493,367.175 222.642,370.775 						"/>
					</g>
					<g>
						<polygon fill="#7C5904" points="223.884,367.175 361.955,367.175 361.955,374.375 223.884,374.375 228.032,370.775 						"/>
					</g>
				</g>
				<g>
					<g>
						<polygon fill="#7C5904" points="218.493,318.719 80.424,318.719 80.424,311.52 218.493,311.52 222.642,315.12 						"/>
					</g>
					<g>
						<polygon fill="#7C5904" points="223.884,311.52 361.955,311.52 361.955,318.719 223.884,318.719 228.032,315.12 						"/>
					</g>
				</g>
				<g>
					<g>
						<polygon fill="#7C5904" points="218.493,332.634 80.424,332.634 80.424,325.435 218.493,325.435 222.642,329.034 						"/>
					</g>
					<g>
						<polygon fill="#7C5904" points="223.884,325.435 361.955,325.435 361.955,332.634 223.884,332.634 228.032,329.034 						"/>
					</g>
				</g>
				<g>
					<g>
						<polygon fill="#7C5904" points="218.493,346.547 80.424,346.547 80.424,339.347 218.493,339.347 222.642,342.947 						"/>
					</g>
					<g>
						<polygon fill="#7C5904" points="223.884,339.347 361.955,339.347 361.955,346.547 223.884,346.547 228.032,342.947 						"/>
					</g>
				</g>
				<g>
					<g>
						<polygon fill="#7C5904" points="218.493,360.461 80.424,360.461 80.424,353.261 218.493,353.261 222.642,356.861 						"/>
					</g>
					<g>
						<polygon fill="#7C5904" points="223.884,353.261 361.955,353.261 361.955,360.461 223.884,360.461 228.032,356.861 						"/>
					</g>
				</g>
			</g>
		</g>
		<g>
			<g>
				<g>
					<g>
						<polygon fill="#7C5904" points="218.493,68.27 80.424,68.27 80.424,61.071 218.493,61.071 222.642,64.671 						"/>
					</g>
					<g>
						<polygon fill="#7C5904" points="223.884,61.071 361.955,61.071 361.955,68.27 223.884,68.27 228.032,64.671 						"/>
					</g>
				</g>
				<g>
					<g>
						<polygon fill="#7C5904" points="218.493,151.752 80.424,151.752 80.424,144.554 218.493,144.554 222.642,148.154 						"/>
					</g>
					<g>
						<polygon fill="#7C5904" points="223.884,144.554 361.955,144.554 361.955,151.752 223.884,151.752 228.032,148.154 						"/>
					</g>
				</g>
				<g>
					<g>
						<polygon fill="#7C5904" points="218.493,96.098 80.424,96.098 80.424,88.899 218.493,88.899 222.642,92.499 						"/>
					</g>
					<g>
						<polygon fill="#7C5904" points="223.884,88.899 361.955,88.899 361.955,96.098 223.884,96.098 228.032,92.499 						"/>
					</g>
				</g>
				<g>
					<g>
						<polygon fill="#7C5904" points="218.493,82.183 80.424,82.183 80.424,74.984 218.493,74.984 222.642,78.583 						"/>
					</g>
					<g>
						<polygon fill="#7C5904" points="223.884,74.984 361.955,74.984 361.955,82.183 223.884,82.183 228.032,78.583 						"/>
					</g>
				</g>
				<g>
					<g>
						<polygon fill="#7C5904" points="218.493,110.012 80.424,110.012 80.424,102.813 218.493,102.813 222.642,106.412 						"/>
					</g>
					<g>
						<polygon fill="#7C5904" points="223.884,102.813 361.955,102.813 361.955,110.012 223.884,110.012 228.032,106.412 						"/>
					</g>
				</g>
				<g>
					<g>
						<polygon fill="#7C5904" points="218.493,123.925 80.424,123.925 80.424,116.726 218.493,116.726 222.642,120.326 						"/>
					</g>
					<g>
						<polygon fill="#7C5904" points="223.884,116.726 361.955,116.726 361.955,123.925 223.884,123.925 228.032,120.326 						"/>
					</g>
				</g>
				<g>
					<g>
						<polygon fill="#7C5904" points="218.493,137.839 80.424,137.839 80.424,130.64 218.493,130.64 222.642,134.239 						"/>
					</g>
					<g>
						<polygon fill="#7C5904" points="223.884,130.64 361.955,130.64 361.955,137.839 223.884,137.839 228.032,134.239 						"/>
					</g>
				</g>
			</g>
			<g>
				<path fill="#C63706" d="M67.74,64.374h1.696l-0.764-2.448h-5.233l-0.764,2.448h1.797v3.077h-6.458v-3.077h1.269l4.638-13.948
					h4.503l4.537,13.948h1.235v3.077H67.74V64.374z M64.326,59.05h3.437l-1.729-5.537L64.326,59.05z"/>
			</g>
		</g>
		<g>
			<g>
				<g>
					<g>
						<polygon fill="#7C5904" points="218.493,402.203 80.424,402.203 80.424,395.003 218.493,395.003 222.642,398.604 						"/>
					</g>
					<g>
						<polygon fill="#7C5904" points="223.884,395.003 361.955,395.003 361.955,402.203 223.884,402.203 228.032,398.604 						"/>
					</g>
				</g>
				<g>
					<g>
						<polygon fill="#7C5904" points="218.493,485.685 80.424,485.685 80.424,478.487 218.493,478.487 222.642,482.086 						"/>
					</g>
					<g>
						<polygon fill="#7C5904" points="223.884,478.487 361.955,478.487 361.955,485.685 223.884,485.685 228.032,482.086 						"/>
					</g>
				</g>
				<g>
					<g>
						<polygon fill="#7C5904" points="218.493,430.031 80.424,430.031 80.424,422.832 218.493,422.832 222.642,426.431 						"/>
					</g>
					<g>
						<polygon fill="#7C5904" points="223.884,422.832 361.955,422.832 361.955,430.031 223.884,430.031 228.032,426.431 						"/>
					</g>
				</g>
				<g>
					<g>
						<polygon fill="#7C5904" points="218.493,416.116 80.424,416.116 80.424,408.917 218.493,408.917 222.642,412.515 						"/>
					</g>
					<g>
						<polygon fill="#7C5904" points="223.884,408.917 361.955,408.917 361.955,416.116 223.884,416.116 228.032,412.515 						"/>
					</g>
				</g>
				<g>
					<g>
						<polygon fill="#7C5904" points="218.493,443.945 80.424,443.945 80.424,436.746 218.493,436.746 222.642,440.344 						"/>
					</g>
					<g>
						<polygon fill="#7C5904" points="223.884,436.746 361.955,436.746 361.955,443.945 223.884,443.945 228.032,440.344 						"/>
					</g>
				</g>
				<g>
					<g>
						<polygon fill="#7C5904" points="218.493,457.858 80.424,457.858 80.424,450.659 218.493,450.659 222.642,454.258 						"/>
					</g>
					<g>
						<polygon fill="#7C5904" points="223.884,450.659 361.955,450.659 361.955,457.858 223.884,457.858 228.032,454.258 						"/>
					</g>
				</g>
				<g>
					<g>
						<polygon fill="#7C5904" points="218.493,471.772 80.424,471.772 80.424,464.573 218.493,464.573 222.642,468.171 						"/>
					</g>
					<g>
						<polygon fill="#7C5904" points="223.884,464.573 361.955,464.573 361.955,471.772 223.884,471.772 228.032,468.171 						"/>
					</g>
				</g>
			</g>
			<g>
				<path fill="#398EB0" d="M63.506,401.517c-0.958-0.194-1.844-0.552-2.656-1.072c-0.812-0.521-1.517-1.162-2.111-1.926
					c-0.596-0.764-1.06-1.627-1.393-2.589c-0.333-0.962-0.5-1.982-0.5-3.061c0-0.816,0.097-1.601,0.292-2.353
					c0.195-0.753,0.468-1.456,0.82-2.111s0.777-1.251,1.275-1.786c0.498-0.535,1.052-0.993,1.662-1.376
					c0.61-0.381,1.267-0.677,1.971-0.887s1.441-0.314,2.212-0.314s1.51,0.104,2.218,0.314c0.707,0.21,1.366,0.506,1.977,0.887
					c0.61,0.383,1.164,0.841,1.662,1.376c0.498,0.535,0.924,1.131,1.28,1.786c0.355,0.655,0.63,1.358,0.825,2.111
					c0.195,0.752,0.292,1.536,0.292,2.353c0,1.093-0.172,2.126-0.517,3.1s-0.822,1.846-1.432,2.616
					c-0.61,0.771-1.335,1.416-2.173,1.932c-0.838,0.518-1.748,0.861-2.729,1.033c0.232,0.098,0.462,0.204,0.69,0.32
					c0.229,0.116,0.459,0.225,0.691,0.326c0.232,0.101,0.462,0.187,0.691,0.258c0.228,0.071,0.462,0.11,0.702,0.118
					c0.232,0,0.458-0.03,0.679-0.09c0.221-0.06,0.421-0.153,0.601-0.28c0.18-0.128,0.335-0.293,0.466-0.494
					c0.131-0.203,0.219-0.449,0.264-0.742l2.504,1.247c-0.067,0.547-0.223,1.041-0.466,1.482c-0.243,0.441-0.556,0.819-0.938,1.134
					s-0.816,0.559-1.303,0.73s-1.003,0.258-1.55,0.258c-0.442,0-0.885-0.084-1.331-0.252c-0.445-0.169-0.876-0.353-1.291-0.551
					c-0.416-0.198-0.807-0.382-1.174-0.55c-0.367-0.169-0.689-0.253-0.966-0.253c-0.12,0-0.227-0.002-0.32-0.006
					c-0.093-0.004-0.185-0.004-0.275,0s-0.189,0.016-0.297,0.034c-0.109,0.019-0.234,0.054-0.376,0.106L63.506,401.517z
					 M65.078,398.16c0.651,0,1.249-0.141,1.792-0.422c0.542-0.28,1.009-0.662,1.398-1.146c0.389-0.482,0.691-1.044,0.904-1.685
					c0.214-0.64,0.32-1.319,0.32-2.038c0-0.727-0.108-1.411-0.326-2.056c-0.217-0.644-0.522-1.207-0.916-1.689
					c-0.393-0.483-0.859-0.865-1.398-1.146c-0.539-0.281-1.13-0.421-1.774-0.421s-1.235,0.14-1.774,0.421
					c-0.539,0.28-1.003,0.662-1.393,1.146c-0.389,0.482-0.694,1.046-0.916,1.689c-0.221,0.645-0.331,1.329-0.331,2.056
					c0,0.719,0.11,1.398,0.331,2.038c0.221,0.641,0.526,1.202,0.916,1.685c0.389,0.483,0.854,0.865,1.393,1.146
					C63.843,398.019,64.434,398.16,65.078,398.16z"/>
			</g>
		</g>
		<g>
			<g>
				<path fill="#398EB0" d="M69.825,166.888c-0.038-0.262-0.129-0.509-0.275-0.74c-0.146-0.232-0.333-0.433-0.562-0.602
					c-0.228-0.168-0.486-0.301-0.774-0.398c-0.289-0.098-0.59-0.146-0.904-0.146c-0.285,0-0.55,0.03-0.797,0.09
					c-0.247,0.061-0.462,0.152-0.646,0.275c-0.183,0.124-0.329,0.283-0.438,0.478c-0.109,0.194-0.163,0.427-0.163,0.696
					c0,0.337,0.073,0.604,0.219,0.803c0.146,0.198,0.333,0.361,0.562,0.488c0.229,0.128,0.481,0.229,0.758,0.304
					s0.546,0.157,0.809,0.247l3.088,1.033c0.427,0.149,0.827,0.355,1.202,0.617c0.375,0.263,0.698,0.581,0.971,0.955
					c0.273,0.374,0.489,0.805,0.646,1.291c0.157,0.487,0.236,1.033,0.236,1.641c0,0.823-0.151,1.575-0.455,2.257
					c-0.303,0.682-0.728,1.266-1.274,1.752s-1.202,0.864-1.965,1.134s-1.61,0.404-2.538,0.404c-0.651,0-1.267-0.072-1.847-0.219
					c-0.581-0.146-1.11-0.357-1.589-0.635c-0.479-0.276-0.898-0.607-1.258-0.993s-0.64-0.822-0.842-1.309H60.83v-3.38h4.065v0.695
					c0,0.338,0.054,0.648,0.163,0.933c0.109,0.284,0.271,0.531,0.489,0.741s0.49,0.372,0.82,0.488s0.715,0.174,1.157,0.174
					c0.674,0,1.187-0.155,1.539-0.466s0.528-0.743,0.528-1.297c0-0.284-0.062-0.522-0.185-0.713
					c-0.124-0.191-0.283-0.353-0.478-0.483s-0.412-0.241-0.651-0.331s-0.476-0.172-0.708-0.247l-2.572-0.831
					c-0.487-0.149-0.957-0.359-1.409-0.629c-0.453-0.27-0.854-0.606-1.202-1.011c-0.348-0.404-0.625-0.878-0.831-1.421
					c-0.206-0.543-0.309-1.162-0.309-1.858c0-0.809,0.15-1.529,0.449-2.162s0.719-1.166,1.258-1.6
					c0.539-0.435,1.179-0.764,1.92-0.988s1.554-0.338,2.437-0.338c0.696,0,1.34,0.081,1.932,0.242s1.121,0.376,1.589,0.646
					c0.468,0.27,0.865,0.578,1.19,0.927c0.326,0.348,0.575,0.709,0.747,1.084h1.123v3.391h-4.065V166.888z"/>
			</g>
			<g>
				<g>
					<g>
						<polygon fill="#7C5904" points="218.39,193.495 80.319,193.495 80.319,186.296 218.39,186.296 222.538,189.895 						"/>
					</g>
					<g>
						<polygon fill="#7C5904" points="223.78,186.296 361.851,186.296 361.851,193.495 223.78,193.495 227.929,189.895 						"/>
					</g>
				</g>
				<g>
					<g>
						<polygon fill="#7C5904" points="218.39,179.582 80.319,179.582 80.319,172.382 218.39,172.382 222.538,175.982 						"/>
					</g>
					<g>
						<polygon fill="#7C5904" points="223.78,172.382 361.851,172.382 361.851,179.582 223.78,179.582 227.929,175.982 						"/>
					</g>
				</g>
				<g>
					<g>
						<polygon fill="#7C5904" points="218.39,207.409 80.319,207.409 80.319,200.209 218.39,200.209 222.538,203.809 						"/>
					</g>
					<g>
						<polygon fill="#7C5904" points="223.78,200.209 361.851,200.209 361.851,207.409 223.78,207.409 227.929,203.809 						"/>
					</g>
				</g>
				<g>
					<g>
						<polygon fill="#7C5904" points="218.39,235.236 80.319,235.236 80.319,228.037 218.39,228.037 222.538,231.635 						"/>
					</g>
					<g>
						<polygon fill="#7C5904" points="223.78,228.037 361.851,228.037 361.851,235.236 223.78,235.236 227.929,231.635 						"/>
					</g>
				</g>
				<g>
					<g>
						<polygon fill="#7C5904" points="218.493,221.323 80.424,221.323 80.424,214.124 218.493,214.124 222.642,217.723 						"/>
					</g>
					<g>
						<polygon fill="#7C5904" points="223.884,214.124 361.955,214.124 361.955,221.323 223.884,221.323 228.032,217.723 						"/>
					</g>
				</g>
				<g>
					<g>
						<polygon fill="#7C5904" points="218.39,249.151 80.319,249.151 80.319,241.952 218.39,241.952 222.538,245.551 						"/>
					</g>
					<g>
						<polygon fill="#7C5904" points="223.78,241.952 361.851,241.952 361.851,249.151 223.78,249.151 227.929,245.551 						"/>
					</g>
				</g>
				<g>
					<g>
						<polygon fill="#7C5904" points="218.39,263.064 80.319,263.064 80.319,255.865 218.39,255.865 222.538,259.464 						"/>
					</g>
					<g>
						<polygon fill="#7C5904" points="223.78,255.865 361.851,255.865 361.851,263.064 223.78,263.064 227.929,259.464 						"/>
					</g>
				</g>
			</g>
		</g>
	</g>
</g>
</svg>
