<?xml version="1.0" encoding="utf-8"?>
<!-- Generator: Adobe Illustrator 16.0.4, SVG Export Plug-In . SVG Version: 6.00 Build 0)  -->
<!DOCTYPE svg PUBLIC "-//W3C//DTD SVG 1.1//EN" "http://www.w3.org/Graphics/SVG/1.1/DTD/svg11.dtd">
<svg version="1.1" id="Layer_1" xmlns="http://www.w3.org/2000/svg" xmlns:xlink="http://www.w3.org/1999/xlink" x="0px" y="0px"
	 width="448.745px" height="616.44px" viewBox="0 0 448.745 616.44" enable-background="new 0 0 448.745 616.44"
	 xml:space="preserve">
<rect x="0.5" y="0.5" fill="#FFFFFF" stroke="#C68D06" stroke-miterlimit="10" width="447.745" height="615.44"/>
<g>
	<path fill="#C68D06" d="M339.471,575.793l1.855-1.33c1.891,2.836,4.2,3.991,7.07,3.991c3.815,0,6.161-2.101,6.161-5.286
		c0-3.815-2.24-5.705-8.331-5.705h-0.979v-2.136h1.189c5.496,0,7.561-1.68,7.561-4.865c0-2.591-1.575-4.516-5.495-4.516
		c-2.625,0-4.655,1.295-6.16,3.15l-1.716-1.436c1.855-2.24,4.516-3.92,8.016-3.92c5.461,0,7.771,3.115,7.771,6.476
		c0,3.325-1.961,5.53-5.11,6.126c3.85,0.805,5.705,3.01,5.705,6.825c0,4.235-3.325,7.456-8.646,7.456
		C344.582,580.625,341.396,578.875,339.471,575.793z"/>
	<path fill="#C68D06" d="M364.006,573.869c0-3.641,2.59-5.636,6.86-7.491c-3.535-1.575-5.671-3.255-5.671-6.405
		c0-3.186,2.976-6.266,8.051-6.266c5.181,0,8.017,3.08,8.017,6.266c0,3.08-2.065,4.69-5.741,6.336
		c4.411,1.925,6.931,3.78,6.931,7.561c0,3.676-3.395,6.791-9.206,6.791C367.401,580.66,364.006,577.614,364.006,573.869z
		 M380.002,573.729c0-2.905-2.45-4.516-6.896-6.371c-4.585,2.03-6.65,3.605-6.65,6.371c0,2.835,2.835,4.83,6.79,4.83
		C377.167,578.559,380.002,576.668,380.002,573.729z M378.848,560.078c0-2.065-1.716-4.271-5.602-4.271
		c-3.71,0-5.635,2.1-5.635,4.165c0,2.45,1.785,3.676,5.74,5.391C377.237,563.682,378.848,562.493,378.848,560.078z"/>
	<path fill="#C68D06" d="M388.61,554.232h2.556l7.735,22.612h0.07l7.771-22.612h2.416l-9.102,26.008h-2.345L388.61,554.232z"/>
</g>
<g>
	<rect x="79.375" y="158.217" fill="#C0DDE7" width="281.738" height="7.199"/>
</g>
<g>
	<rect x="79.375" y="186.044" fill="#C0DDE7" width="281.738" height="7.201"/>
</g>
<g>
	<rect x="79.375" y="199.959" fill="#C0DDE7" width="281.738" height="7.199"/>
</g>
<g>
	<rect x="79.375" y="213.873" fill="#C0DDE7" width="281.738" height="7.199"/>
</g>
<g>
	<rect x="79.375" y="227.787" fill="#C0DDE7" width="281.738" height="7.199"/>
</g>
<g>
	<rect x="79.375" y="241.7" fill="#C0DDE7" width="281.738" height="7.199"/>
</g>
<g>
	<rect x="79.375" y="255.613" fill="#C0DDE7" width="281.738" height="7.2"/>
</g>
<g>
	<rect x="79.375" y="269.528" fill="#C0DDE7" width="281.738" height="7.199"/>
</g>
<g>
	<rect x="79.375" y="283.441" fill="#C0DDE7" width="281.738" height="7.2"/>
</g>
<g>
	<rect x="79.375" y="297.355" fill="#C0DDE7" width="281.738" height="7.199"/>
</g>
<g>
	<rect x="79.375" y="311.269" fill="#C0DDE7" width="281.738" height="7.2"/>
</g>
<g>
	<rect x="79.375" y="325.183" fill="#C0DDE7" width="281.738" height="7.199"/>
</g>
<g>
	<rect x="79.375" y="339.097" fill="#C0DDE7" width="281.738" height="7.199"/>
</g>
<g>
	<rect x="79.375" y="353.01" fill="#C0DDE7" width="281.738" height="7.201"/>
</g>
<g>
	<rect x="79.375" y="366.924" fill="#C0DDE7" width="281.738" height="7.2"/>
</g>
<g>
	<rect x="79.375" y="380.838" fill="#C0DDE7" width="281.738" height="7.199"/>
</g>
<g>
	<rect x="79.375" y="394.752" fill="#C0DDE7" width="281.738" height="7.199"/>
</g>
<g>
	<rect x="79.375" y="408.666" fill="#C0DDE7" width="281.738" height="7.199"/>
</g>
<g>
	<rect x="79.375" y="422.579" fill="#C0DDE7" width="281.738" height="7.2"/>
</g>
<g>
	<rect x="79.375" y="436.493" fill="#C0DDE7" width="281.738" height="7.2"/>
</g>
<g>
	<rect x="79.375" y="450.407" fill="#C0DDE7" width="281.738" height="7.2"/>
</g>
<g>
	<rect x="79.375" y="464.321" fill="#C0DDE7" width="281.738" height="7.199"/>
</g>
<g>
	<rect x="79.375" y="478.234" fill="#C0DDE7" width="281.738" height="7.2"/>
</g>
<g>
	<rect x="79.375" y="60.82" fill="#C0DDE7" width="281.738" height="7.2"/>
</g>
<g>
	<rect x="79.375" y="74.733" fill="#C0DDE7" width="281.738" height="7.2"/>
</g>
<g>
	<rect x="79.375" y="144.303" fill="#C0DDE7" width="281.738" height="7.201"/>
</g>
<g>
	<rect x="79.375" y="172.13" fill="#C0DDE7" width="281.738" height="7.2"/>
</g>
<g>
	<rect x="79.375" y="88.647" fill="#C0DDE7" width="281.738" height="7.199"/>
</g>
<g>
	<rect x="79.375" y="102.562" fill="#C0DDE7" width="281.738" height="7.201"/>
</g>
<g>
	<rect x="79.375" y="116.476" fill="#C0DDE7" width="281.738" height="7.199"/>
</g>
<g>
	<rect x="79.375" y="130.391" fill="#C0DDE7" width="281.738" height="7.197"/>
</g>
<g>
	<rect x="79.375" y="158.217" fill="#C0DDE7" width="281.738" height="7.2"/>
</g>
<g>
	<path fill="#C63706" d="M69.192,278.637c-0.038-0.262-0.129-0.509-0.275-0.74c-0.146-0.232-0.333-0.433-0.562-0.602
		c-0.228-0.168-0.486-0.301-0.774-0.398c-0.289-0.098-0.59-0.146-0.904-0.146c-0.285,0-0.55,0.03-0.797,0.09
		c-0.247,0.061-0.462,0.152-0.646,0.275c-0.183,0.124-0.329,0.283-0.438,0.478c-0.109,0.194-0.163,0.427-0.163,0.696
		c0,0.337,0.073,0.604,0.219,0.803c0.146,0.198,0.333,0.361,0.562,0.488c0.229,0.128,0.481,0.229,0.758,0.304
		s0.546,0.157,0.809,0.247l3.088,1.033c0.427,0.149,0.827,0.355,1.202,0.617c0.375,0.263,0.698,0.581,0.971,0.955
		c0.273,0.374,0.489,0.805,0.646,1.291c0.157,0.487,0.236,1.033,0.236,1.641c0,0.823-0.151,1.575-0.455,2.257
		c-0.303,0.682-0.728,1.266-1.274,1.752s-1.202,0.864-1.965,1.134s-1.61,0.404-2.538,0.404c-0.651,0-1.267-0.072-1.847-0.219
		c-0.581-0.146-1.11-0.357-1.589-0.635c-0.479-0.276-0.898-0.607-1.258-0.993s-0.64-0.822-0.842-1.309h-1.157v-3.38h4.065v0.695
		c0,0.338,0.054,0.648,0.163,0.933c0.109,0.284,0.271,0.531,0.489,0.741s0.49,0.372,0.82,0.488s0.715,0.174,1.157,0.174
		c0.674,0,1.187-0.155,1.539-0.466s0.528-0.743,0.528-1.297c0-0.284-0.062-0.522-0.185-0.713c-0.124-0.191-0.283-0.353-0.478-0.483
		s-0.412-0.241-0.651-0.331s-0.476-0.172-0.708-0.247l-2.572-0.831c-0.487-0.149-0.957-0.359-1.409-0.629
		c-0.453-0.27-0.854-0.606-1.202-1.011c-0.348-0.404-0.625-0.878-0.831-1.421c-0.206-0.543-0.309-1.162-0.309-1.858
		c0-0.809,0.15-1.529,0.449-2.162s0.719-1.166,1.258-1.6c0.539-0.435,1.179-0.764,1.92-0.988s1.554-0.338,2.437-0.338
		c0.696,0,1.34,0.081,1.932,0.242s1.121,0.376,1.589,0.646c0.468,0.27,0.865,0.578,1.19,0.927c0.326,0.348,0.575,0.709,0.747,1.084
		h1.123v3.391h-4.065V278.637z"/>
</g>
<g>
	<g>
		<g>
			<polygon fill="#266279" points="217.652,290.642 79.583,290.642 79.583,283.442 217.652,283.442 221.801,287.042 			"/>
		</g>
		<g>
			<polygon fill="#266279" points="223.043,283.442 361.114,283.442 361.114,290.642 223.043,290.642 227.191,287.042 			"/>
		</g>
	</g>
	<g>
		<g>
			<polygon fill="#266279" points="217.652,304.556 79.583,304.556 79.583,297.356 217.652,297.356 221.801,300.956 			"/>
		</g>
		<g>
			<polygon fill="#266279" points="223.043,297.356 361.114,297.356 361.114,304.556 223.043,304.556 227.191,300.956 			"/>
		</g>
	</g>
	<g>
		<g>
			<polygon fill="#266279" points="217.652,374.124 79.583,374.124 79.583,366.925 217.652,366.925 221.801,370.524 			"/>
		</g>
		<g>
			<polygon fill="#266279" points="223.043,366.925 361.114,366.925 361.114,374.124 223.043,374.124 227.191,370.524 			"/>
		</g>
	</g>
	<g>
		<g>
			<polygon fill="#266279" points="217.652,318.469 79.583,318.469 79.583,311.27 217.652,311.27 221.801,314.869 			"/>
		</g>
		<g>
			<polygon fill="#266279" points="223.043,311.27 361.114,311.27 361.114,318.469 223.043,318.469 227.191,314.869 			"/>
		</g>
	</g>
	<g>
		<g>
			<polygon fill="#266279" points="217.652,332.384 79.583,332.384 79.583,325.185 217.652,325.185 221.801,328.783 			"/>
		</g>
		<g>
			<polygon fill="#266279" points="223.043,325.185 361.114,325.185 361.114,332.384 223.043,332.384 227.191,328.783 			"/>
		</g>
	</g>
	<g>
		<g>
			<polygon fill="#266279" points="217.652,346.297 79.583,346.297 79.583,339.097 217.652,339.097 221.801,342.696 			"/>
		</g>
		<g>
			<polygon fill="#266279" points="223.043,339.097 361.114,339.097 361.114,346.297 223.043,346.297 227.191,342.696 			"/>
		</g>
	</g>
	<g>
		<g>
			<polygon fill="#266279" points="217.652,360.211 79.583,360.211 79.583,353.011 217.652,353.011 221.801,356.61 			"/>
		</g>
		<g>
			<polygon fill="#266279" points="223.043,353.011 361.114,353.011 361.114,360.211 223.043,360.211 227.191,356.61 			"/>
		</g>
	</g>
</g>
<g>
	<g>
		<g>
			<g>
				<polygon fill="#7C5904" points="217.652,68.02 79.583,68.02 79.583,60.82 217.652,60.82 221.801,64.421 				"/>
			</g>
			<g>
				<polygon fill="#7C5904" points="223.043,60.82 361.114,60.82 361.114,68.02 223.043,68.02 227.191,64.421 				"/>
			</g>
		</g>
		<g>
			<g>
				<polygon fill="#7C5904" points="217.652,151.502 79.583,151.502 79.583,144.304 217.652,144.304 221.801,147.904 				"/>
			</g>
			<g>
				<polygon fill="#7C5904" points="223.043,144.304 361.114,144.304 361.114,151.502 223.043,151.502 227.191,147.904 				"/>
			</g>
		</g>
		<g>
			<g>
				<polygon fill="#7C5904" points="217.652,95.848 79.583,95.848 79.583,88.648 217.652,88.648 221.801,92.248 				"/>
			</g>
			<g>
				<polygon fill="#7C5904" points="223.043,88.648 361.114,88.648 361.114,95.848 223.043,95.848 227.191,92.248 				"/>
			</g>
		</g>
		<g>
			<g>
				<polygon fill="#7C5904" points="217.652,81.933 79.583,81.933 79.583,74.733 217.652,74.733 221.801,78.332 				"/>
			</g>
			<g>
				<polygon fill="#7C5904" points="223.043,74.733 361.114,74.733 361.114,81.933 223.043,81.933 227.191,78.332 				"/>
			</g>
		</g>
		<g>
			<g>
				<polygon fill="#7C5904" points="217.652,109.762 79.583,109.762 79.583,102.562 217.652,102.562 221.801,106.161 				"/>
			</g>
			<g>
				<polygon fill="#7C5904" points="223.043,102.562 361.114,102.562 361.114,109.762 223.043,109.762 227.191,106.161 				"/>
			</g>
		</g>
		<g>
			<g>
				<polygon fill="#7C5904" points="217.652,123.675 79.583,123.675 79.583,116.476 217.652,116.476 221.801,120.075 				"/>
			</g>
			<g>
				<polygon fill="#7C5904" points="223.043,116.476 361.114,116.476 361.114,123.675 223.043,123.675 227.191,120.075 				"/>
			</g>
		</g>
		<g>
			<g>
				<polygon fill="#7C5904" points="217.652,137.589 79.583,137.589 79.583,130.39 217.652,130.39 221.801,133.988 				"/>
			</g>
			<g>
				<polygon fill="#7C5904" points="223.043,130.39 361.114,130.39 361.114,137.589 223.043,137.589 227.191,133.988 				"/>
			</g>
		</g>
	</g>
	<g>
		<path fill="#C63706" d="M56.657,50.174h6.828v3.088h-1.561v7.064c0,0.644,0.073,1.19,0.219,1.64
			c0.146,0.449,0.35,0.816,0.612,1.101s0.573,0.492,0.932,0.623s0.752,0.197,1.179,0.197c0.442,0,0.844-0.057,1.207-0.169
			c0.363-0.112,0.674-0.305,0.933-0.578c0.258-0.273,0.457-0.639,0.595-1.095c0.139-0.457,0.208-1.03,0.208-1.719v-7.064H66v-3.088
			h6.828v3.088H71.47v6.627c0,1.197-0.172,2.263-0.517,3.194c-0.344,0.933-0.818,1.721-1.421,2.364
			c-0.603,0.644-1.31,1.135-2.122,1.471c-0.812,0.338-1.683,0.506-2.611,0.506c-0.921,0-1.782-0.167-2.583-0.5
			s-1.499-0.815-2.095-1.448c-0.595-0.633-1.065-1.402-1.409-2.308c-0.344-0.906-0.517-1.932-0.517-3.078v-6.828h-1.539V50.174z"/>
	</g>
</g>
<g>
	<g>
		<g>
			<polygon fill="#266279" points="217.652,401.952 79.583,401.952 79.583,394.753 217.652,394.753 221.801,398.354 			"/>
		</g>
		<g>
			<polygon fill="#266279" points="223.043,394.753 361.114,394.753 361.114,401.952 223.043,401.952 227.191,398.354 			"/>
		</g>
	</g>
	<g>
		<g>
			<polygon fill="#266279" points="217.652,485.435 79.583,485.435 79.583,478.236 217.652,478.236 221.801,481.836 			"/>
		</g>
		<g>
			<polygon fill="#266279" points="223.043,478.236 361.114,478.236 361.114,485.435 223.043,485.435 227.191,481.836 			"/>
		</g>
	</g>
	<g>
		<g>
			<polygon fill="#266279" points="217.652,429.78 79.583,429.78 79.583,422.581 217.652,422.581 221.801,426.181 			"/>
		</g>
		<g>
			<polygon fill="#266279" points="223.043,422.581 361.114,422.581 361.114,429.78 223.043,429.78 227.191,426.181 			"/>
		</g>
	</g>
	<g>
		<g>
			<polygon fill="#266279" points="217.652,415.865 79.583,415.865 79.583,408.666 217.652,408.666 221.801,412.265 			"/>
		</g>
		<g>
			<polygon fill="#266279" points="223.043,408.666 361.114,408.666 361.114,415.865 223.043,415.865 227.191,412.265 			"/>
		</g>
	</g>
	<g>
		<g>
			<polygon fill="#266279" points="217.652,443.694 79.583,443.694 79.583,436.495 217.652,436.495 221.801,440.094 			"/>
		</g>
		<g>
			<polygon fill="#266279" points="223.043,436.495 361.114,436.495 361.114,443.694 223.043,443.694 227.191,440.094 			"/>
		</g>
	</g>
	<g>
		<g>
			<polygon fill="#266279" points="217.652,457.607 79.583,457.607 79.583,450.408 217.652,450.408 221.801,454.008 			"/>
		</g>
		<g>
			<polygon fill="#266279" points="223.043,450.408 361.114,450.408 361.114,457.607 223.043,457.607 227.191,454.008 			"/>
		</g>
	</g>
	<g>
		<g>
			<polygon fill="#266279" points="217.652,471.521 79.583,471.521 79.583,464.322 217.652,464.322 221.801,467.921 			"/>
		</g>
		<g>
			<polygon fill="#266279" points="223.043,464.322 361.114,464.322 361.114,471.521 223.043,471.521 227.191,467.921 			"/>
		</g>
	</g>
</g>
<g>
	<path fill="#398EB0" d="M59.161,384.106h7.861c0.876,0,1.681,0.137,2.415,0.41s1.366,0.642,1.898,1.105
		c0.532,0.465,0.947,1,1.247,1.606s0.449,1.239,0.449,1.897c0,0.794-0.118,1.537-0.354,2.229c-0.236,0.692-0.601,1.294-1.095,1.803
		s-1.119,0.911-1.875,1.207s-1.651,0.444-2.684,0.444h-2.37v3.245h1.561v3.077h-7.053v-3.077h1.763v-10.86h-1.763V384.106z
		 M64.653,387.194v4.571h1.539c0.854,0,1.531-0.18,2.033-0.539s0.752-0.929,0.752-1.707c0-0.727-0.236-1.295-0.708-1.707
		s-1.164-0.618-2.078-0.618H64.653z"/>
</g>
<g>
	<path fill="#398EB0" d="M68.984,166.637c-0.038-0.262-0.129-0.509-0.275-0.74c-0.146-0.232-0.333-0.433-0.562-0.602
		c-0.228-0.168-0.486-0.301-0.774-0.398c-0.289-0.098-0.59-0.146-0.904-0.146c-0.285,0-0.55,0.03-0.797,0.09
		c-0.247,0.061-0.462,0.152-0.646,0.275c-0.183,0.124-0.329,0.283-0.438,0.478c-0.109,0.194-0.163,0.427-0.163,0.696
		c0,0.337,0.073,0.604,0.219,0.803c0.146,0.198,0.333,0.361,0.562,0.488c0.229,0.128,0.481,0.229,0.758,0.304
		s0.546,0.157,0.809,0.247l3.088,1.033c0.427,0.149,0.827,0.355,1.202,0.617c0.375,0.263,0.698,0.581,0.971,0.955
		c0.273,0.374,0.489,0.805,0.646,1.291c0.157,0.487,0.236,1.033,0.236,1.641c0,0.823-0.151,1.575-0.455,2.257
		c-0.303,0.682-0.728,1.266-1.274,1.752s-1.202,0.864-1.965,1.134s-1.61,0.404-2.538,0.404c-0.651,0-1.267-0.072-1.847-0.219
		c-0.581-0.146-1.11-0.357-1.589-0.635c-0.479-0.276-0.898-0.607-1.258-0.993s-0.64-0.822-0.842-1.309h-1.157v-3.38h4.065v0.695
		c0,0.338,0.054,0.648,0.163,0.933c0.109,0.284,0.271,0.531,0.489,0.741s0.49,0.372,0.82,0.488s0.715,0.174,1.157,0.174
		c0.674,0,1.187-0.155,1.539-0.466s0.528-0.743,0.528-1.297c0-0.284-0.062-0.522-0.185-0.713c-0.124-0.191-0.283-0.353-0.478-0.483
		s-0.412-0.241-0.651-0.331s-0.476-0.172-0.708-0.247l-2.572-0.831c-0.487-0.149-0.957-0.359-1.409-0.629
		c-0.453-0.27-0.854-0.606-1.202-1.011c-0.348-0.404-0.625-0.878-0.831-1.421c-0.206-0.543-0.309-1.162-0.309-1.858
		c0-0.809,0.15-1.529,0.449-2.162s0.719-1.166,1.258-1.6c0.539-0.435,1.179-0.764,1.92-0.988s1.554-0.338,2.437-0.338
		c0.696,0,1.34,0.081,1.932,0.242s1.121,0.376,1.589,0.646c0.468,0.27,0.865,0.578,1.19,0.927c0.326,0.348,0.575,0.709,0.747,1.084
		h1.123v3.391h-4.065V166.637z"/>
</g>
<g>
	<g>
		<g>
			<polygon fill="#266279" points="217.549,193.245 79.478,193.245 79.478,186.046 217.549,186.046 221.697,189.645 			"/>
		</g>
		<g>
			<polygon fill="#266279" points="222.939,186.046 361.01,186.046 361.01,193.245 222.939,193.245 227.088,189.645 			"/>
		</g>
	</g>
	<g>
		<g>
			<polygon fill="#266279" points="217.549,179.331 79.478,179.331 79.478,172.132 217.549,172.132 221.697,175.731 			"/>
		</g>
		<g>
			<polygon fill="#266279" points="222.939,172.132 361.01,172.132 361.01,179.331 222.939,179.331 227.088,175.731 			"/>
		</g>
	</g>
	<g>
		<g>
			<polygon fill="#266279" points="217.549,207.158 79.478,207.158 79.478,199.959 217.549,199.959 221.697,203.559 			"/>
		</g>
		<g>
			<polygon fill="#266279" points="222.939,199.959 361.01,199.959 361.01,207.158 222.939,207.158 227.088,203.559 			"/>
		</g>
	</g>
	<g>
		<g>
			<polygon fill="#266279" points="217.549,234.986 79.478,234.986 79.478,227.787 217.549,227.787 221.697,231.385 			"/>
		</g>
		<g>
			<polygon fill="#266279" points="222.939,227.787 361.01,227.787 361.01,234.986 222.939,234.986 227.088,231.385 			"/>
		</g>
	</g>
	<g>
		<g>
			<polygon fill="#266279" points="217.652,221.072 79.583,221.072 79.583,213.873 217.652,213.873 221.801,217.473 			"/>
		</g>
		<g>
			<polygon fill="#266279" points="223.043,213.873 361.114,213.873 361.114,221.072 223.043,221.072 227.191,217.473 			"/>
		</g>
	</g>
	<g>
		<g>
			<polygon fill="#266279" points="217.549,248.9 79.478,248.9 79.478,241.701 217.549,241.701 221.697,245.301 			"/>
		</g>
		<g>
			<polygon fill="#266279" points="222.939,241.701 361.01,241.701 361.01,248.9 222.939,248.9 227.088,245.301 			"/>
		</g>
	</g>
	<g>
		<g>
			<polygon fill="#266279" points="217.549,262.813 79.478,262.813 79.478,255.614 217.549,255.614 221.697,259.214 			"/>
		</g>
		<g>
			<polygon fill="#266279" points="222.939,255.614 361.01,255.614 361.01,262.813 222.939,262.813 227.088,259.214 			"/>
		</g>
	</g>
</g>
</svg>
