<?xml version="1.0" encoding="utf-8"?>
<!-- Generator: Adobe Illustrator 16.0.4, SVG Export Plug-In . SVG Version: 6.00 Build 0)  -->
<!DOCTYPE svg PUBLIC "-//W3C//DTD SVG 1.1//EN" "http://www.w3.org/Graphics/SVG/1.1/DTD/svg11.dtd">
<svg version="1.1" id="Layer_1" xmlns="http://www.w3.org/2000/svg" xmlns:xlink="http://www.w3.org/1999/xlink" x="0px" y="0px"
	 width="448.746px" height="616.44px" viewBox="0 0 448.746 616.44" enable-background="new 0 0 448.746 616.44"
	 xml:space="preserve">
<rect x="0.5" y="0.5" fill="#FFFFFF" stroke="#C68D06" stroke-miterlimit="10" width="447.746" height="615.44"/>
<g>
	<path fill="#C68D06" d="M338.002,577.793l1.855-1.33c1.891,2.836,4.2,3.991,7.07,3.991c3.815,0,6.161-2.101,6.161-5.286
		c0-3.815-2.24-5.705-8.331-5.705h-0.979v-2.136h1.189c5.496,0,7.561-1.68,7.561-4.865c0-2.591-1.574-4.516-5.495-4.516
		c-2.625,0-4.655,1.295-6.161,3.15l-1.715-1.436c1.855-2.24,4.516-3.92,8.016-3.92c5.461,0,7.771,3.115,7.771,6.476
		c0,3.325-1.961,5.53-5.111,6.126c3.851,0.805,5.706,3.01,5.706,6.825c0,4.235-3.325,7.456-8.646,7.456
		C343.112,582.625,339.928,580.875,338.002,577.793z"/>
	<path fill="#C68D06" d="M362.537,575.869c0-3.641,2.59-5.636,6.86-7.491c-3.535-1.575-5.671-3.255-5.671-6.405
		c0-3.186,2.976-6.266,8.052-6.266c5.18,0,8.016,3.08,8.016,6.266c0,3.08-2.065,4.69-5.741,6.336
		c4.411,1.925,6.931,3.78,6.931,7.561c0,3.676-3.395,6.791-9.205,6.791C365.933,582.66,362.537,579.614,362.537,575.869z
		 M378.533,575.729c0-2.905-2.45-4.516-6.896-6.371c-4.585,2.03-6.65,3.605-6.65,6.371c0,2.835,2.835,4.83,6.791,4.83
		C375.698,580.559,378.533,578.668,378.533,575.729z M377.378,562.078c0-2.065-1.715-4.271-5.6-4.271
		c-3.711,0-5.636,2.1-5.636,4.165c0,2.45,1.785,3.676,5.74,5.391C375.769,565.682,377.378,564.493,377.378,562.078z"/>
	<path fill="#C68D06" d="M389.207,556.232h8.681c5.776,0,8.996,2.45,8.996,7c0,4.201-2.45,6.301-6.195,7.001l6.546,11.901h-2.801
		l-6.336-11.621h-6.44v11.621h-2.45V556.232z M397.713,568.308c4.271,0,6.686-1.226,6.686-4.971c0-3.57-2.38-4.831-6.721-4.831
		h-6.021v9.802H397.713z"/>
</g>
<g>
	<rect x="80.212" y="158.3" fill="#C0DDE7" width="281.739" height="7.199"/>
</g>
<g>
	<rect x="80.212" y="172.214" fill="#C0DDE7" width="281.739" height="7.199"/>
</g>
<g>
	<rect x="80.212" y="186.127" fill="#C0DDE7" width="281.739" height="7.201"/>
</g>
<g>
	<rect x="80.212" y="200.042" fill="#C0DDE7" width="281.739" height="7.199"/>
</g>
<g>
	<rect x="80.212" y="213.955" fill="#C0DDE7" width="281.739" height="7.2"/>
</g>
<g>
	<rect x="80.212" y="227.869" fill="#C0DDE7" width="281.739" height="7.201"/>
</g>
<g>
	<rect x="80.212" y="241.783" fill="#C0DDE7" width="281.739" height="7.199"/>
</g>
<g>
	<rect x="80.212" y="255.696" fill="#C0DDE7" width="281.739" height="7.2"/>
</g>
<g>
	<rect x="80.212" y="269.612" fill="#C0DDE7" width="281.739" height="7.199"/>
</g>
<g>
	<rect x="80.212" y="283.524" fill="#C0DDE7" width="281.739" height="7.2"/>
</g>
<g>
	<rect x="80.212" y="297.438" fill="#C0DDE7" width="281.739" height="7.2"/>
</g>
<g>
	<rect x="80.212" y="311.353" fill="#C0DDE7" width="281.739" height="7.199"/>
</g>
<g>
	<rect x="80.212" y="325.266" fill="#C0DDE7" width="281.739" height="7.199"/>
</g>
<g>
	<rect x="80.212" y="339.18" fill="#C0DDE7" width="281.739" height="7.2"/>
</g>
<g>
	<rect x="80.212" y="353.094" fill="#C0DDE7" width="281.739" height="7.199"/>
</g>
<g>
	<rect x="80.212" y="367.007" fill="#C0DDE7" width="281.739" height="7.2"/>
</g>
<g>
	<rect x="80.212" y="380.921" fill="#C0DDE7" width="281.739" height="7.199"/>
</g>
<g>
	<rect x="80.212" y="394.835" fill="#C0DDE7" width="281.739" height="7.199"/>
</g>
<g>
	<rect x="80.212" y="408.749" fill="#C0DDE7" width="281.739" height="7.199"/>
</g>
<g>
	<rect x="80.212" y="422.663" fill="#C0DDE7" width="281.739" height="7.2"/>
</g>
<g>
	<rect x="80.212" y="436.577" fill="#C0DDE7" width="281.739" height="7.2"/>
</g>
<g>
	<rect x="80.212" y="450.491" fill="#C0DDE7" width="281.739" height="7.199"/>
</g>
<g>
	<rect x="80.212" y="464.404" fill="#C0DDE7" width="281.739" height="7.199"/>
</g>
<g>
	<rect x="80.212" y="478.318" fill="#C0DDE7" width="281.739" height="7.201"/>
</g>
<g>
	<rect x="80.212" y="60.904" fill="#C0DDE7" width="281.739" height="7.199"/>
</g>
<g>
	<rect x="80.212" y="74.818" fill="#C0DDE7" width="281.739" height="7.199"/>
</g>
<g>
	<rect x="80.212" y="144.386" fill="#C0DDE7" width="281.739" height="7.199"/>
</g>
<g>
	<rect x="80.212" y="88.731" fill="#C0DDE7" width="281.739" height="7.199"/>
</g>
<g>
	<rect x="80.212" y="102.645" fill="#C0DDE7" width="281.739" height="7.2"/>
</g>
<g>
	<rect x="80.212" y="116.559" fill="#C0DDE7" width="281.739" height="7.199"/>
</g>
<g>
	<rect x="80.212" y="130.473" fill="#C0DDE7" width="281.739" height="7.199"/>
</g>
<g>
	<g>
		<path fill="#C63706" d="M67.839,287.875h1.696l-0.764-2.448h-5.234l-0.764,2.448h1.797v3.077h-6.457v-3.077h1.27l4.638-13.948
			h4.503l4.537,13.948h1.236v3.077h-6.458V287.875z M64.425,282.551h3.437l-1.729-5.537L64.425,282.551z"/>
	</g>
	<g>
		<g>
			<g>
				<polygon fill="#7C5904" points="218.49,290.726 80.42,290.726 80.42,283.527 218.49,283.527 222.639,287.126 				"/>
			</g>
			<g>
				<polygon fill="#7C5904" points="223.881,283.527 361.951,283.527 361.951,290.726 223.881,290.726 228.027,287.126 				"/>
			</g>
		</g>
		<g>
			<g>
				<polygon fill="#7C5904" points="218.49,304.64 80.42,304.64 80.42,297.441 218.49,297.441 222.639,301.041 				"/>
			</g>
			<g>
				<polygon fill="#7C5904" points="223.881,297.441 361.951,297.441 361.951,304.64 223.881,304.64 228.027,301.041 				"/>
			</g>
		</g>
		<g>
			<g>
				<polygon fill="#7C5904" points="218.49,374.208 80.42,374.208 80.42,367.009 218.49,367.009 222.639,370.609 				"/>
			</g>
			<g>
				<polygon fill="#7C5904" points="223.881,367.009 361.951,367.009 361.951,374.208 223.881,374.208 228.027,370.609 				"/>
			</g>
		</g>
		<g>
			<g>
				<polygon fill="#7C5904" points="218.49,318.553 80.42,318.553 80.42,311.354 218.49,311.354 222.639,314.954 				"/>
			</g>
			<g>
				<polygon fill="#7C5904" points="223.881,311.354 361.951,311.354 361.951,318.553 223.881,318.553 228.027,314.954 				"/>
			</g>
		</g>
		<g>
			<g>
				<polygon fill="#7C5904" points="218.49,332.468 80.42,332.468 80.42,325.269 218.49,325.269 222.639,328.868 				"/>
			</g>
			<g>
				<polygon fill="#7C5904" points="223.881,325.269 361.951,325.269 361.951,332.468 223.881,332.468 228.027,328.868 				"/>
			</g>
		</g>
		<g>
			<g>
				<polygon fill="#7C5904" points="218.49,346.381 80.42,346.381 80.42,339.181 218.49,339.181 222.639,342.781 				"/>
			</g>
			<g>
				<polygon fill="#7C5904" points="223.881,339.181 361.951,339.181 361.951,346.381 223.881,346.381 228.027,342.781 				"/>
			</g>
		</g>
		<g>
			<g>
				<polygon fill="#7C5904" points="218.49,360.295 80.42,360.295 80.42,353.095 218.49,353.095 222.639,356.695 				"/>
			</g>
			<g>
				<polygon fill="#7C5904" points="223.881,353.095 361.951,353.095 361.951,360.295 223.881,360.295 228.027,356.695 				"/>
			</g>
		</g>
	</g>
</g>
<g>
	<g>
		<g>
			<g>
				<polygon fill="#7C5904" points="218.49,68.104 80.42,68.104 80.42,60.904 218.49,60.904 222.638,64.505 				"/>
			</g>
			<g>
				<polygon fill="#7C5904" points="223.881,60.904 361.951,60.904 361.951,68.104 223.881,68.104 228.028,64.505 				"/>
			</g>
		</g>
		<g>
			<g>
				<polygon fill="#7C5904" points="218.49,151.586 80.42,151.586 80.42,144.388 218.49,144.388 222.638,147.987 				"/>
			</g>
			<g>
				<polygon fill="#7C5904" points="223.881,144.388 361.951,144.388 361.951,151.586 223.881,151.586 228.028,147.987 				"/>
			</g>
		</g>
		<g>
			<g>
				<polygon fill="#7C5904" points="218.49,95.932 80.42,95.932 80.42,88.733 218.49,88.733 222.638,92.332 				"/>
			</g>
			<g>
				<polygon fill="#7C5904" points="223.881,88.733 361.951,88.733 361.951,95.932 223.881,95.932 228.028,92.332 				"/>
			</g>
		</g>
		<g>
			<g>
				<polygon fill="#7C5904" points="218.49,82.017 80.42,82.017 80.42,74.818 218.49,74.818 222.638,78.417 				"/>
			</g>
			<g>
				<polygon fill="#7C5904" points="223.881,74.818 361.951,74.818 361.951,82.017 223.881,82.017 228.028,78.417 				"/>
			</g>
		</g>
		<g>
			<g>
				<polygon fill="#7C5904" points="218.49,109.846 80.42,109.846 80.42,102.647 218.49,102.647 222.638,106.246 				"/>
			</g>
			<g>
				<polygon fill="#7C5904" points="223.881,102.647 361.951,102.647 361.951,109.846 223.881,109.846 228.028,106.246 				"/>
			</g>
		</g>
		<g>
			<g>
				<polygon fill="#7C5904" points="218.49,123.759 80.42,123.759 80.42,116.56 218.49,116.56 222.638,120.159 				"/>
			</g>
			<g>
				<polygon fill="#7C5904" points="223.881,116.56 361.951,116.56 361.951,123.759 223.881,123.759 228.028,120.159 				"/>
			</g>
		</g>
		<g>
			<g>
				<polygon fill="#7C5904" points="218.49,137.673 80.42,137.673 80.42,130.474 218.49,130.474 222.638,134.073 				"/>
			</g>
			<g>
				<polygon fill="#7C5904" points="223.881,130.474 361.951,130.474 361.951,137.673 223.881,137.673 228.028,134.073 				"/>
			</g>
		</g>
	</g>
	<g>
		<path fill="#C63706" d="M69.926,55.053c-0.038-0.262-0.129-0.509-0.275-0.74c-0.146-0.232-0.334-0.433-0.562-0.602
			c-0.228-0.168-0.486-0.301-0.773-0.398c-0.289-0.098-0.59-0.146-0.904-0.146c-0.285,0-0.551,0.03-0.798,0.09
			c-0.247,0.061-0.462,0.152-0.646,0.275c-0.184,0.124-0.33,0.283-0.438,0.478c-0.109,0.194-0.164,0.427-0.164,0.696
			c0,0.337,0.074,0.604,0.219,0.803c0.146,0.198,0.334,0.361,0.562,0.488c0.229,0.128,0.48,0.229,0.758,0.304
			s0.547,0.157,0.809,0.247l3.088,1.033c0.428,0.149,0.828,0.355,1.202,0.617c0.374,0.263,0.698,0.581,0.972,0.955
			s0.488,0.805,0.646,1.291c0.157,0.487,0.235,1.033,0.235,1.641c0,0.823-0.15,1.575-0.455,2.257
			c-0.303,0.682-0.728,1.266-1.273,1.752c-0.547,0.486-1.202,0.864-1.966,1.134s-1.61,0.404-2.538,0.404
			c-0.651,0-1.268-0.072-1.848-0.219c-0.58-0.146-1.109-0.357-1.589-0.635c-0.479-0.276-0.898-0.607-1.258-0.993
			s-0.64-0.822-0.843-1.309H60.93v-3.38h4.065v0.695c0,0.338,0.054,0.648,0.163,0.933c0.108,0.284,0.271,0.531,0.488,0.741
			s0.49,0.372,0.82,0.488c0.329,0.116,0.715,0.174,1.156,0.174c0.674,0,1.187-0.155,1.539-0.466
			c0.352-0.311,0.527-0.743,0.527-1.297c0-0.284-0.062-0.522-0.186-0.713c-0.123-0.191-0.282-0.353-0.477-0.483
			c-0.195-0.131-0.412-0.241-0.652-0.331c-0.239-0.09-0.475-0.172-0.707-0.247l-2.572-0.831c-0.486-0.149-0.956-0.359-1.408-0.629
			c-0.453-0.27-0.854-0.606-1.203-1.011c-0.348-0.404-0.625-0.878-0.83-1.421c-0.206-0.543-0.309-1.162-0.309-1.858
			c0-0.809,0.149-1.529,0.449-2.162c0.299-0.633,0.719-1.166,1.258-1.6c0.539-0.435,1.179-0.764,1.92-0.988s1.554-0.338,2.438-0.338
			c0.695,0,1.34,0.081,1.932,0.242c0.591,0.161,1.121,0.376,1.588,0.646c0.469,0.27,0.865,0.578,1.191,0.927
			c0.326,0.348,0.574,0.709,0.746,1.084h1.123v3.391h-4.064V55.053z"/>
	</g>
</g>
<g>
	<g>
		<g>
			<g>
				<polygon fill="#7C5904" points="218.49,402.037 80.42,402.037 80.42,394.837 218.49,394.837 222.638,398.438 				"/>
			</g>
			<g>
				<polygon fill="#7C5904" points="223.881,394.837 361.951,394.837 361.951,402.037 223.881,402.037 228.028,398.438 				"/>
			</g>
		</g>
		<g>
			<g>
				<polygon fill="#7C5904" points="218.49,485.519 80.42,485.519 80.42,478.32 218.49,478.32 222.638,481.92 				"/>
			</g>
			<g>
				<polygon fill="#7C5904" points="223.881,478.32 361.951,478.32 361.951,485.519 223.881,485.519 228.028,481.92 				"/>
			</g>
		</g>
		<g>
			<g>
				<polygon fill="#7C5904" points="218.49,429.865 80.42,429.865 80.42,422.666 218.49,422.666 222.638,426.265 				"/>
			</g>
			<g>
				<polygon fill="#7C5904" points="223.881,422.666 361.951,422.666 361.951,429.865 223.881,429.865 228.028,426.265 				"/>
			</g>
		</g>
		<g>
			<g>
				<polygon fill="#7C5904" points="218.49,415.95 80.42,415.95 80.42,408.75 218.49,408.75 222.638,412.349 				"/>
			</g>
			<g>
				<polygon fill="#7C5904" points="223.881,408.75 361.951,408.75 361.951,415.95 223.881,415.95 228.028,412.349 				"/>
			</g>
		</g>
		<g>
			<g>
				<polygon fill="#7C5904" points="218.49,443.779 80.42,443.779 80.42,436.58 218.49,436.58 222.638,440.178 				"/>
			</g>
			<g>
				<polygon fill="#7C5904" points="223.881,436.58 361.951,436.58 361.951,443.779 223.881,443.779 228.028,440.178 				"/>
			</g>
		</g>
		<g>
			<g>
				<polygon fill="#7C5904" points="218.49,457.692 80.42,457.692 80.42,450.493 218.49,450.493 222.638,454.092 				"/>
			</g>
			<g>
				<polygon fill="#7C5904" points="223.881,450.493 361.951,450.493 361.951,457.692 223.881,457.692 228.028,454.092 				"/>
			</g>
		</g>
		<g>
			<g>
				<polygon fill="#7C5904" points="218.49,471.606 80.42,471.606 80.42,464.406 218.49,464.406 222.638,468.005 				"/>
			</g>
			<g>
				<polygon fill="#7C5904" points="223.881,464.406 361.951,464.406 361.951,471.606 223.881,471.606 228.028,468.005 				"/>
			</g>
		</g>
	</g>
	<g>
		<path fill="#398EB0" d="M59.998,384.191h7.861c0.875,0,1.68,0.137,2.414,0.41s1.366,0.642,1.898,1.105
			c0.531,0.465,0.947,1,1.246,1.606s0.449,1.239,0.449,1.897c0,0.794-0.118,1.537-0.354,2.229c-0.236,0.692-0.602,1.294-1.096,1.803
			s-1.119,0.911-1.875,1.207s-1.65,0.444-2.684,0.444h-2.37v3.245h1.562v3.077h-7.053v-3.077h1.763v-10.86h-1.763V384.191z
			 M65.489,387.279v4.571h1.538c0.854,0,1.531-0.18,2.033-0.539s0.752-0.929,0.752-1.707c0-0.727-0.235-1.295-0.707-1.707
			s-1.164-0.618-2.078-0.618H65.489z"/>
	</g>
</g>
<g>
	<g>
		<path fill="#398EB0" d="M69.585,178.952v-2.92c-0.464,0.816-0.917,1.415-1.358,1.797c-0.442,0.382-0.941,0.688-1.5,0.921
			c-0.558,0.232-1.305,0.345-2.24,0.337c-0.465-0.008-0.928-0.062-1.393-0.163c-0.465-0.101-0.914-0.243-1.348-0.427
			s-0.859-0.404-1.274-0.662c-0.416-0.259-0.792-0.557-1.129-0.893c-0.831-0.839-1.477-1.811-1.938-2.915
			c-0.46-1.104-0.69-2.308-0.69-3.61c0-0.801,0.098-1.576,0.292-2.324c0.194-0.749,0.468-1.449,0.819-2.101
			c0.353-0.651,0.777-1.245,1.275-1.78s1.052-0.994,1.662-1.375c0.609-0.383,1.268-0.678,1.971-0.888s1.441-0.314,2.213-0.314
			c0.883,0,1.65,0.118,2.302,0.354c0.651,0.236,1.352,0.676,2.101,1.319h2.516v3.797h-3.471c-0.344-0.532-0.668-0.918-0.972-1.157
			c-0.303-0.239-0.632-0.438-0.988-0.595c-0.355-0.158-0.852-0.236-1.487-0.236c-0.629,0-1.213,0.143-1.752,0.427
			s-1.006,0.668-1.398,1.151c-0.394,0.482-0.702,1.052-0.927,1.707s-0.337,1.327-0.337,2.016c0,0.682,0.102,1.329,0.303,1.943
			c0.203,0.613,0.51,1.166,0.922,1.656c0.411,0.49,0.891,0.866,1.438,1.129c0.546,0.262,1.13,0.393,1.752,0.393
			c0.793,0,1.486-0.232,2.077-0.696s1.019-1.097,1.28-1.897h-3.246v-3.078h7.885v9.086H69.585z"/>
	</g>
	<g>
		<g>
			<g>
				<polygon fill="#7C5904" points="218.386,193.329 80.315,193.329 80.315,186.13 218.386,186.13 222.533,189.729 				"/>
			</g>
			<g>
				<polygon fill="#7C5904" points="223.776,186.13 361.847,186.13 361.847,193.329 223.776,193.329 227.924,189.729 				"/>
			</g>
		</g>
		<g>
			<g>
				<polygon fill="#7C5904" points="218.386,179.416 80.315,179.416 80.315,172.216 218.386,172.216 222.533,175.816 				"/>
			</g>
			<g>
				<polygon fill="#7C5904" points="223.776,172.216 361.847,172.216 361.847,179.416 223.776,179.416 227.924,175.816 				"/>
			</g>
		</g>
		<g>
			<g>
				<polygon fill="#7C5904" points="218.386,207.243 80.315,207.243 80.315,200.043 218.386,200.043 222.533,203.643 				"/>
			</g>
			<g>
				<polygon fill="#7C5904" points="223.776,200.043 361.847,200.043 361.847,207.243 223.776,207.243 227.924,203.643 				"/>
			</g>
		</g>
		<g>
			<g>
				<polygon fill="#7C5904" points="218.386,235.07 80.315,235.07 80.315,227.871 218.386,227.871 222.533,231.469 				"/>
			</g>
			<g>
				<polygon fill="#7C5904" points="223.776,227.871 361.847,227.871 361.847,235.07 223.776,235.07 227.924,231.469 				"/>
			</g>
		</g>
		<g>
			<g>
				<polygon fill="#7C5904" points="218.49,221.157 80.42,221.157 80.42,213.958 218.49,213.958 222.638,217.557 				"/>
			</g>
			<g>
				<polygon fill="#7C5904" points="223.881,213.958 361.951,213.958 361.951,221.157 223.881,221.157 228.028,217.557 				"/>
			</g>
		</g>
		<g>
			<g>
				<polygon fill="#7C5904" points="218.386,248.985 80.315,248.985 80.315,241.786 218.386,241.786 222.533,245.385 				"/>
			</g>
			<g>
				<polygon fill="#7C5904" points="223.776,241.786 361.847,241.786 361.847,248.985 223.776,248.985 227.924,245.385 				"/>
			</g>
		</g>
		<g>
			<g>
				<polygon fill="#7C5904" points="218.386,262.898 80.315,262.898 80.315,255.699 218.386,255.699 222.533,259.298 				"/>
			</g>
			<g>
				<polygon fill="#7C5904" points="223.776,255.699 361.847,255.699 361.847,262.898 223.776,262.898 227.924,259.298 				"/>
			</g>
		</g>
	</g>
</g>
</svg>
