<?xml version="1.0" encoding="utf-8"?>
<!-- Generator: Adobe Illustrator 16.0.4, SVG Export Plug-In . SVG Version: 6.00 Build 0)  -->
<!DOCTYPE svg PUBLIC "-//W3C//DTD SVG 1.1//EN" "http://www.w3.org/Graphics/SVG/1.1/DTD/svg11.dtd">
<svg version="1.1" id="Layer_1" xmlns="http://www.w3.org/2000/svg" xmlns:xlink="http://www.w3.org/1999/xlink" x="0px" y="0px"
	 width="448.747px" height="616.44px" viewBox="0 0 448.747 616.44" enable-background="new 0 0 448.747 616.44"
	 xml:space="preserve">
<rect x="0.5" y="0.5" fill="#FFFFFF" stroke="#C68D06" stroke-miterlimit="10" width="447.747" height="615.44"/>
<g>
	<path fill="#C68D06" d="M340.081,575.541l1.855-1.33c1.891,2.836,4.2,3.991,7.07,3.991c3.815,0,6.161-2.101,6.161-5.286
		c0-3.815-2.24-5.705-8.331-5.705h-0.979v-2.136h1.189c5.496,0,7.561-1.68,7.561-4.865c0-2.591-1.574-4.516-5.495-4.516
		c-2.625,0-4.655,1.295-6.161,3.15l-1.715-1.436c1.855-2.24,4.516-3.92,8.016-3.92c5.461,0,7.771,3.115,7.771,6.476
		c0,3.325-1.961,5.53-5.111,6.126c3.851,0.805,5.706,3.01,5.706,6.825c0,4.235-3.325,7.456-8.646,7.456
		C345.191,580.372,342.007,578.622,340.081,575.541z"/>
	<path fill="#C68D06" d="M365.911,578.062l1.26-1.855c1.506,1.226,2.871,1.996,5.426,1.996c4.726,0,7.631-5.006,7.631-11.481
		c-1.646,1.785-4.061,3.465-7.351,3.465c-5.461,0-8.086-3.396-8.086-8.086c0-4.9,3.465-8.61,8.681-8.61
		c5.11,0,9.171,4.096,9.171,12.986c0,7.98-4.165,13.896-10.116,13.896C369.517,580.372,367.381,579.356,365.911,578.062z
		 M380.157,564.235c-0.524-6.021-3.395-8.576-6.825-8.576c-3.676,0-6.126,2.311-6.126,6.406c0,3.465,1.75,5.985,5.951,5.985
		C376.027,568.051,378.582,566.44,380.157,564.235z"/>
	<path fill="#C68D06" d="M389.36,553.979h2.556l7.735,22.612h0.07l7.771-22.612h2.416l-9.102,26.008h-2.345L389.36,553.979z"/>
</g>
<g>
	<g>
		<rect x="79.883" y="158.217" fill="#C0DDE7" width="281.739" height="7.199"/>
	</g>
	<g>
		<rect x="79.884" y="172.13" fill="#C0DDE7" width="281.738" height="7.199"/>
	</g>
	<g>
		<rect x="79.883" y="186.044" fill="#C0DDE7" width="281.739" height="7.2"/>
	</g>
	<g>
		<rect x="79.883" y="199.958" fill="#C0DDE7" width="281.739" height="7.199"/>
	</g>
	<g>
		<rect x="79.883" y="213.872" fill="#C0DDE7" width="281.739" height="7.199"/>
	</g>
	<g>
		<rect x="79.883" y="227.785" fill="#C0DDE7" width="281.739" height="7.2"/>
	</g>
	<g>
		<rect x="79.884" y="241.699" fill="#C0DDE7" width="281.738" height="7.199"/>
	</g>
	<g>
		<rect x="79.884" y="255.612" fill="#C0DDE7" width="281.738" height="7.2"/>
	</g>
	<g>
		<rect x="79.883" y="269.527" fill="#C0DDE7" width="281.739" height="7.199"/>
	</g>
	<g>
		<rect x="79.884" y="283.44" fill="#C0DDE7" width="281.738" height="7.2"/>
	</g>
	<g>
		<rect x="79.883" y="297.354" fill="#C0DDE7" width="281.739" height="7.2"/>
	</g>
	<g>
		<rect x="79.883" y="311.269" fill="#C0DDE7" width="281.739" height="7.2"/>
	</g>
	<g>
		<rect x="79.883" y="325.183" fill="#C0DDE7" width="281.739" height="7.199"/>
	</g>
	<g>
		<rect x="79.884" y="339.096" fill="#C0DDE7" width="281.738" height="7.2"/>
	</g>
	<g>
		<rect x="79.883" y="353.01" fill="#C0DDE7" width="281.739" height="7.2"/>
	</g>
	<g>
		<rect x="79.883" y="366.924" fill="#C0DDE7" width="281.739" height="7.2"/>
	</g>
	<g>
		<rect x="79.883" y="380.838" fill="#C0DDE7" width="281.739" height="7.199"/>
	</g>
	<g>
		<rect x="79.883" y="394.752" fill="#C0DDE7" width="281.739" height="7.199"/>
	</g>
	<g>
		<rect x="79.884" y="408.665" fill="#C0DDE7" width="281.738" height="7.199"/>
	</g>
	<g>
		<rect x="79.883" y="422.579" fill="#C0DDE7" width="281.739" height="7.2"/>
	</g>
	<g>
		<rect x="79.884" y="436.492" fill="#C0DDE7" width="281.738" height="7.2"/>
	</g>
	<g>
		<rect x="79.883" y="450.407" fill="#C0DDE7" width="281.739" height="7.199"/>
	</g>
	<g>
		<rect x="79.884" y="464.32" fill="#C0DDE7" width="281.738" height="7.199"/>
	</g>
	<g>
		<rect x="79.883" y="478.234" fill="#C0DDE7" width="281.739" height="7.2"/>
	</g>
	<g>
		<rect x="79.883" y="60.819" fill="#C0DDE7" width="281.739" height="7.2"/>
	</g>
	<g>
		<rect x="79.884" y="74.733" fill="#C0DDE7" width="281.738" height="7.2"/>
	</g>
	<g>
		<rect x="79.884" y="144.303" fill="#C0DDE7" width="281.738" height="7.199"/>
	</g>
	<g>
		<rect x="79.883" y="88.647" fill="#C0DDE7" width="281.739" height="7.199"/>
	</g>
	<g>
		<rect x="79.884" y="102.561" fill="#C0DDE7" width="281.738" height="7.2"/>
	</g>
	<g>
		<rect x="79.884" y="116.475" fill="#C0DDE7" width="281.738" height="7.199"/>
	</g>
	<g>
		<rect x="79.884" y="130.389" fill="#C0DDE7" width="281.738" height="7.199"/>
	</g>
	<g>
		<g>
			<g>
				<path fill="#266279" d="M67.185,273.842h6.469v3.088h-1.381v13.938h-3.729l-7.086-11.006v7.929h1.426v3.077h-6.458v-3.077h1.404
					v-10.86h-1.381v-3.088h5.144l7.042,11.152v-8.064h-1.449V273.842z"/>
			</g>
			<g>
				<g>
					<g>
						<polygon fill="#266279" points="218.161,290.642 80.091,290.642 80.091,283.442 218.161,283.442 222.31,287.042 						"/>
					</g>
					<g>
						<polygon fill="#266279" points="223.552,283.442 361.622,283.442 361.622,290.642 223.552,290.642 227.699,287.042 						"/>
					</g>
				</g>
				<g>
					<g>
						<polygon fill="#266279" points="218.161,304.556 80.091,304.556 80.091,297.356 218.161,297.356 222.31,300.956 						"/>
					</g>
					<g>
						<polygon fill="#266279" points="223.552,297.356 361.622,297.356 361.622,304.556 223.552,304.556 227.699,300.956 						"/>
					</g>
				</g>
				<g>
					<g>
						<polygon fill="#266279" points="218.161,374.124 80.091,374.124 80.091,366.925 218.161,366.925 222.31,370.524 						"/>
					</g>
					<g>
						<polygon fill="#266279" points="223.552,366.925 361.622,366.925 361.622,374.124 223.552,374.124 227.699,370.524 						"/>
					</g>
				</g>
				<g>
					<g>
						<polygon fill="#266279" points="218.161,318.469 80.091,318.469 80.091,311.27 218.161,311.27 222.31,314.869 						"/>
					</g>
					<g>
						<polygon fill="#266279" points="223.552,311.27 361.622,311.27 361.622,318.469 223.552,318.469 227.699,314.869 						"/>
					</g>
				</g>
				<g>
					<g>
						<polygon fill="#266279" points="218.161,332.384 80.091,332.384 80.091,325.185 218.161,325.185 222.31,328.783 						"/>
					</g>
					<g>
						<polygon fill="#266279" points="223.552,325.185 361.622,325.185 361.622,332.384 223.552,332.384 227.699,328.783 						"/>
					</g>
				</g>
				<g>
					<g>
						<polygon fill="#266279" points="218.161,346.297 80.091,346.297 80.091,339.097 218.161,339.097 222.31,342.696 						"/>
					</g>
					<g>
						<polygon fill="#266279" points="223.552,339.097 361.622,339.097 361.622,346.297 223.552,346.297 227.699,342.696 						"/>
					</g>
				</g>
				<g>
					<g>
						<polygon fill="#266279" points="218.161,360.211 80.091,360.211 80.091,353.011 218.161,353.011 222.31,356.61 						"/>
					</g>
					<g>
						<polygon fill="#266279" points="223.552,353.011 361.622,353.011 361.622,360.211 223.552,360.211 227.699,356.61 						"/>
					</g>
				</g>
			</g>
		</g>
		<g>
			<g>
				<path fill="#266279" d="M49.16,399.456h1.583v-10.86H49.16v-3.088h7.008l5.02,12.286l4.661-12.286h7.109v3.088h-1.583v10.86
					h1.561v3.077h-6.368v-3.077h1.168v-9.793l-5.099,12.668h-3.156L54.292,390v9.456h1.269v3.077H49.16V399.456z"/>
			</g>
			<g>
				<g>
					<g>
						<polygon fill="#266279" points="218.161,401.952 80.091,401.952 80.091,394.753 218.161,394.753 222.31,398.353 						"/>
					</g>
					<g>
						<polygon fill="#266279" points="223.552,394.753 361.622,394.753 361.622,401.952 223.552,401.952 227.699,398.353 						"/>
					</g>
				</g>
				<g>
					<g>
						<polygon fill="#266279" points="218.161,415.866 80.091,415.866 80.091,408.667 218.161,408.667 222.31,412.267 						"/>
					</g>
					<g>
						<polygon fill="#266279" points="223.552,408.667 361.622,408.667 361.622,415.866 223.552,415.866 227.699,412.267 						"/>
					</g>
				</g>
				<g>
					<g>
						<polygon fill="#266279" points="218.161,485.435 80.091,485.435 80.091,478.235 218.161,478.235 222.31,481.835 						"/>
					</g>
					<g>
						<polygon fill="#266279" points="223.552,478.235 361.622,478.235 361.622,485.435 223.552,485.435 227.699,481.835 						"/>
					</g>
				</g>
				<g>
					<g>
						<polygon fill="#266279" points="218.161,429.779 80.091,429.779 80.091,422.58 218.161,422.58 222.31,426.18 						"/>
					</g>
					<g>
						<polygon fill="#266279" points="223.552,422.58 361.622,422.58 361.622,429.779 223.552,429.779 227.699,426.18 						"/>
					</g>
				</g>
				<g>
					<g>
						<polygon fill="#266279" points="218.161,443.694 80.091,443.694 80.091,436.495 218.161,436.495 222.31,440.094 						"/>
					</g>
					<g>
						<polygon fill="#266279" points="223.552,436.495 361.622,436.495 361.622,443.694 223.552,443.694 227.699,440.094 						"/>
					</g>
				</g>
				<g>
					<g>
						<polygon fill="#266279" points="218.161,457.607 80.091,457.607 80.091,450.407 218.161,450.407 222.31,454.007 						"/>
					</g>
					<g>
						<polygon fill="#266279" points="223.552,450.407 361.622,450.407 361.622,457.607 223.552,457.607 227.699,454.007 						"/>
					</g>
				</g>
				<g>
					<g>
						<polygon fill="#266279" points="218.161,471.521 80.091,471.521 80.091,464.321 218.161,464.321 222.31,467.921 						"/>
					</g>
					<g>
						<polygon fill="#266279" points="223.552,464.321 361.622,464.321 361.622,471.521 223.552,471.521 227.699,467.921 						"/>
					</g>
				</g>
			</g>
		</g>
		<g>
			<g>
				<g>
					<g>
						<polygon fill="#266279" points="218.161,68.02 80.091,68.02 80.091,60.82 218.161,60.82 222.309,64.42 						"/>
					</g>
					<g>
						<polygon fill="#266279" points="223.552,60.82 361.622,60.82 361.622,68.02 223.552,68.02 227.7,64.42 						"/>
					</g>
				</g>
				<g>
					<g>
						<polygon fill="#266279" points="218.161,151.502 80.091,151.502 80.091,144.303 218.161,144.303 222.309,147.903 						"/>
					</g>
					<g>
						<polygon fill="#266279" points="223.552,144.303 361.622,144.303 361.622,151.502 223.552,151.502 227.7,147.903 						"/>
					</g>
				</g>
				<g>
					<g>
						<polygon fill="#266279" points="218.161,95.848 80.091,95.848 80.091,88.648 218.161,88.648 222.309,92.248 						"/>
					</g>
					<g>
						<polygon fill="#266279" points="223.552,88.648 361.622,88.648 361.622,95.848 223.552,95.848 227.7,92.248 						"/>
					</g>
				</g>
				<g>
					<g>
						<polygon fill="#266279" points="218.161,81.933 80.091,81.933 80.091,74.733 218.161,74.733 222.309,78.332 						"/>
					</g>
					<g>
						<polygon fill="#266279" points="223.552,74.733 361.622,74.733 361.622,81.933 223.552,81.933 227.7,78.332 						"/>
					</g>
				</g>
				<g>
					<g>
						<polygon fill="#266279" points="218.161,109.762 80.091,109.762 80.091,102.562 218.161,102.562 222.309,106.162 						"/>
					</g>
					<g>
						<polygon fill="#266279" points="223.552,102.562 361.622,102.562 361.622,109.762 223.552,109.762 227.7,106.162 						"/>
					</g>
				</g>
				<g>
					<g>
						<polygon fill="#266279" points="218.161,123.675 80.091,123.675 80.091,116.476 218.161,116.476 222.309,120.075 						"/>
					</g>
					<g>
						<polygon fill="#266279" points="223.552,116.476 361.622,116.476 361.622,123.675 223.552,123.675 227.7,120.075 						"/>
					</g>
				</g>
				<g>
					<g>
						<polygon fill="#266279" points="218.161,137.589 80.091,137.589 80.091,130.389 218.161,130.389 222.309,133.988 						"/>
					</g>
					<g>
						<polygon fill="#266279" points="223.552,130.389 361.622,130.389 361.622,137.589 223.552,137.589 227.7,133.988 						"/>
					</g>
				</g>
			</g>
			<g>
				<path fill="#C63706" d="M60.276,50.174h7.289v3.088h-1.797v10.86h3.706c0.097,0,0.193-0.028,0.286-0.084
					c0.094-0.057,0.176-0.13,0.247-0.22c0.071-0.09,0.129-0.187,0.174-0.291c0.045-0.105,0.067-0.206,0.067-0.304v-2.28h3.639v6.256
					H60.276v-3.077h1.763v-10.86h-1.763V50.174z"/>
			</g>
		</g>
		<g>
			<g>
				<path fill="#398EB0" d="M64.798,179.17c-0.771,0-1.509-0.104-2.212-0.314c-0.704-0.209-1.361-0.505-1.971-0.887
					c-0.61-0.382-1.165-0.841-1.662-1.376c-0.498-0.535-0.923-1.13-1.275-1.785s-0.625-1.357-0.82-2.106
					c-0.195-0.748-0.292-1.53-0.292-2.347s0.097-1.601,0.292-2.353c0.195-0.753,0.468-1.456,0.82-2.111s0.777-1.251,1.275-1.786
					c0.498-0.535,1.052-0.993,1.662-1.376c0.61-0.381,1.267-0.677,1.971-0.887s1.441-0.314,2.212-0.314s1.51,0.104,2.218,0.314
					c0.707,0.21,1.366,0.506,1.977,0.887c0.61,0.383,1.164,0.841,1.662,1.376c0.498,0.535,0.924,1.131,1.28,1.786
					c0.355,0.655,0.63,1.358,0.825,2.111c0.195,0.752,0.292,1.536,0.292,2.353c0,0.809-0.097,1.589-0.292,2.342
					c-0.195,0.752-0.47,1.456-0.825,2.111c-0.356,0.655-0.783,1.25-1.28,1.785c-0.498,0.535-1.052,0.994-1.662,1.376
					c-0.61,0.382-1.27,0.678-1.977,0.887C66.309,179.065,65.569,179.17,64.798,179.17z M64.798,175.645
					c0.651,0,1.249-0.141,1.792-0.422c0.542-0.28,1.009-0.662,1.398-1.146c0.389-0.482,0.691-1.044,0.904-1.685
					c0.214-0.64,0.32-1.319,0.32-2.038c0-0.727-0.108-1.411-0.326-2.056c-0.217-0.644-0.522-1.207-0.916-1.689
					c-0.393-0.483-0.859-0.865-1.398-1.146c-0.539-0.281-1.13-0.421-1.774-0.421s-1.235,0.14-1.774,0.421
					c-0.539,0.28-1.003,0.662-1.393,1.146c-0.389,0.482-0.694,1.046-0.916,1.689c-0.221,0.645-0.331,1.329-0.331,2.056
					c0,0.719,0.11,1.398,0.331,2.038c0.221,0.641,0.526,1.202,0.916,1.685c0.389,0.483,0.854,0.865,1.393,1.146
					C63.563,175.504,64.154,175.645,64.798,175.645z"/>
			</g>
			<g>
				<g>
					<g>
						<polygon fill="#266279" points="218.057,193.245 79.987,193.245 79.987,186.045 218.057,186.045 222.205,189.645 						"/>
					</g>
					<g>
						<polygon fill="#266279" points="223.448,186.045 361.518,186.045 361.518,193.245 223.448,193.245 227.596,189.645 						"/>
					</g>
				</g>
				<g>
					<g>
						<polygon fill="#266279" points="218.057,179.331 79.987,179.331 79.987,172.132 218.057,172.132 222.205,175.731 						"/>
					</g>
					<g>
						<polygon fill="#266279" points="223.448,172.132 361.518,172.132 361.518,179.331 223.448,179.331 227.596,175.731 						"/>
					</g>
				</g>
				<g>
					<g>
						<polygon fill="#266279" points="218.057,207.158 79.987,207.158 79.987,199.959 218.057,199.959 222.205,203.558 						"/>
					</g>
					<g>
						<polygon fill="#266279" points="223.448,199.959 361.518,199.959 361.518,207.158 223.448,207.158 227.596,203.558 						"/>
					</g>
				</g>
				<g>
					<g>
						<polygon fill="#266279" points="218.057,234.985 79.987,234.985 79.987,227.786 218.057,227.786 222.205,231.385 						"/>
					</g>
					<g>
						<polygon fill="#266279" points="223.448,227.786 361.518,227.786 361.518,234.985 223.448,234.985 227.596,231.385 						"/>
					</g>
				</g>
				<g>
					<g>
						<polygon fill="#266279" points="218.161,221.072 80.091,221.072 80.091,213.873 218.161,213.873 222.309,217.473 						"/>
					</g>
					<g>
						<polygon fill="#266279" points="223.552,213.873 361.622,213.873 361.622,221.072 223.552,221.072 227.7,217.473 						"/>
					</g>
				</g>
				<g>
					<g>
						<polygon fill="#266279" points="218.057,248.9 79.987,248.9 79.987,241.701 218.057,241.701 222.205,245.3 						"/>
					</g>
					<g>
						<polygon fill="#266279" points="223.448,241.701 361.518,241.701 361.518,248.9 223.448,248.9 227.596,245.3 						"/>
					</g>
				</g>
				<g>
					<g>
						<polygon fill="#266279" points="218.057,262.813 79.987,262.813 79.987,255.614 218.057,255.614 222.205,259.213 						"/>
					</g>
					<g>
						<polygon fill="#266279" points="223.448,255.614 361.518,255.614 361.518,262.813 223.448,262.813 227.596,259.213 						"/>
					</g>
				</g>
			</g>
		</g>
	</g>
</g>
</svg>
