<?xml version="1.0" encoding="utf-8"?>
<!-- Generator: Adobe Illustrator 16.0.4, SVG Export Plug-In . SVG Version: 6.00 Build 0)  -->
<!DOCTYPE svg PUBLIC "-//W3C//DTD SVG 1.1//EN" "http://www.w3.org/Graphics/SVG/1.1/DTD/svg11.dtd">
<svg version="1.1" id="Layer_1" xmlns="http://www.w3.org/2000/svg" xmlns:xlink="http://www.w3.org/1999/xlink" x="0px" y="0px"
	 width="448.746px" height="616.44px" viewBox="0 0 448.746 616.44" enable-background="new 0 0 448.746 616.44"
	 xml:space="preserve">
<rect x="0.5" y="0.5" fill="#FFFFFF" stroke="#C68D06" stroke-miterlimit="10" width="447.746" height="615.44"/>
<g>
	<path fill="#C68D06" d="M337.862,577.793l1.855-1.33c1.891,2.836,4.2,3.991,7.07,3.991c3.815,0,6.161-2.101,6.161-5.286
		c0-3.815-2.24-5.705-8.331-5.705h-0.979v-2.136h1.189c5.496,0,7.561-1.68,7.561-4.865c0-2.591-1.575-4.516-5.495-4.516
		c-2.625,0-4.655,1.295-6.16,3.15l-1.716-1.436c1.855-2.24,4.516-3.92,8.016-3.92c5.461,0,7.771,3.115,7.771,6.476
		c0,3.325-1.961,5.53-5.11,6.126c3.85,0.805,5.705,3.01,5.705,6.825c0,4.235-3.325,7.456-8.646,7.456
		C342.974,582.625,339.788,580.875,337.862,577.793z"/>
	<path fill="#C68D06" d="M363.692,580.314l1.26-1.855c1.506,1.226,2.871,1.996,5.426,1.996c4.726,0,7.631-5.006,7.631-11.481
		c-1.646,1.785-4.061,3.465-7.351,3.465c-5.461,0-8.086-3.396-8.086-8.086c0-4.9,3.466-8.61,8.681-8.61
		c5.11,0,9.171,4.096,9.171,12.986c0,7.98-4.165,13.896-10.116,13.896C367.298,582.625,365.162,581.609,363.692,580.314z
		 M377.938,566.488c-0.524-6.021-3.395-8.576-6.825-8.576c-3.676,0-6.126,2.311-6.126,6.406c0,3.465,1.75,5.985,5.951,5.985
		C373.809,570.303,376.363,568.693,377.938,566.488z"/>
	<path fill="#C68D06" d="M389.207,556.232h8.681c5.776,0,8.996,2.45,8.996,7c0,4.201-2.45,6.301-6.195,7.001l6.546,11.901h-2.801
		l-6.336-11.621h-6.44v11.621h-2.45V556.232z M397.713,568.308c4.271,0,6.686-1.226,6.686-4.971c0-3.57-2.38-4.831-6.721-4.831
		h-6.021v9.802H397.713z"/>
</g>
<g>
	<rect x="79.125" y="158.3" fill="#C0DDE7" width="281.738" height="7.199"/>
</g>
<g>
	<rect x="79.125" y="186.127" fill="#C0DDE7" width="281.738" height="7.2"/>
</g>
<g>
	<rect x="79.125" y="200.042" fill="#C0DDE7" width="281.738" height="7.199"/>
</g>
<g>
	<rect x="79.125" y="213.956" fill="#C0DDE7" width="281.738" height="7.199"/>
</g>
<g>
	<rect x="79.125" y="227.869" fill="#C0DDE7" width="281.738" height="7.199"/>
</g>
<g>
	<rect x="79.125" y="241.783" fill="#C0DDE7" width="281.738" height="7.199"/>
</g>
<g>
	<rect x="79.125" y="255.696" fill="#C0DDE7" width="281.738" height="7.2"/>
</g>
<g>
	<rect x="79.125" y="269.61" fill="#C0DDE7" width="281.738" height="7.199"/>
</g>
<g>
	<rect x="79.125" y="283.524" fill="#C0DDE7" width="281.738" height="7.2"/>
</g>
<g>
	<rect x="79.125" y="297.438" fill="#C0DDE7" width="281.738" height="7.199"/>
</g>
<g>
	<rect x="79.125" y="311.352" fill="#C0DDE7" width="281.738" height="7.2"/>
</g>
<g>
	<rect x="79.125" y="325.266" fill="#C0DDE7" width="281.738" height="7.199"/>
</g>
<g>
	<rect x="79.125" y="339.18" fill="#C0DDE7" width="281.738" height="7.199"/>
</g>
<g>
	<rect x="79.125" y="353.093" fill="#C0DDE7" width="281.738" height="7.201"/>
</g>
<g>
	<rect x="79.125" y="367.007" fill="#C0DDE7" width="281.738" height="7.2"/>
</g>
<g>
	<rect x="79.125" y="380.921" fill="#C0DDE7" width="281.738" height="7.2"/>
</g>
<g>
	<rect x="79.125" y="394.835" fill="#C0DDE7" width="281.738" height="7.199"/>
</g>
<g>
	<rect x="79.125" y="408.749" fill="#C0DDE7" width="281.738" height="7.199"/>
</g>
<g>
	<rect x="79.125" y="422.663" fill="#C0DDE7" width="281.738" height="7.2"/>
</g>
<g>
	<rect x="79.125" y="436.576" fill="#C0DDE7" width="281.738" height="7.2"/>
</g>
<g>
	<rect x="79.125" y="450.49" fill="#C0DDE7" width="281.738" height="7.2"/>
</g>
<g>
	<rect x="79.125" y="464.404" fill="#C0DDE7" width="281.738" height="7.199"/>
</g>
<g>
	<rect x="79.125" y="478.317" fill="#C0DDE7" width="281.738" height="7.2"/>
</g>
<g>
	<rect x="79.125" y="60.902" fill="#C0DDE7" width="281.738" height="7.201"/>
</g>
<g>
	<rect x="79.125" y="74.816" fill="#C0DDE7" width="281.738" height="7.2"/>
</g>
<g>
	<rect x="79.125" y="144.386" fill="#C0DDE7" width="281.738" height="7.2"/>
</g>
<g>
	<rect x="79.125" y="172.213" fill="#C0DDE7" width="281.738" height="7.2"/>
</g>
<g>
	<rect x="79.125" y="88.73" fill="#C0DDE7" width="281.738" height="7.199"/>
</g>
<g>
	<rect x="79.125" y="102.645" fill="#C0DDE7" width="281.738" height="7.2"/>
</g>
<g>
	<rect x="79.125" y="116.559" fill="#C0DDE7" width="281.738" height="7.199"/>
</g>
<g>
	<rect x="79.125" y="130.474" fill="#C0DDE7" width="281.738" height="7.197"/>
</g>
<g>
	<rect x="79.125" y="158.3" fill="#C0DDE7" width="281.738" height="7.2"/>
</g>
<g>
	<g>
		<g>
			<path fill="#C63706" d="M59.621,273.926h7.288v3.088h-1.797v10.86h3.706c0.098,0,0.193-0.028,0.286-0.084
				c0.094-0.057,0.177-0.13,0.247-0.22c0.071-0.09,0.129-0.187,0.174-0.291c0.045-0.105,0.068-0.206,0.068-0.304v-2.28h3.639v6.256
				H59.621v-3.077h1.763v-10.86h-1.763V273.926z"/>
		</g>
		<g>
			<g>
				<g>
					<polygon fill="#266279" points="217.402,290.725 79.334,290.725 79.334,283.525 217.402,283.525 221.551,287.125 					"/>
				</g>
				<g>
					<polygon fill="#266279" points="222.793,283.525 360.863,283.525 360.863,290.725 222.793,290.725 226.941,287.125 					"/>
				</g>
			</g>
			<g>
				<g>
					<polygon fill="#266279" points="217.402,304.639 79.334,304.639 79.334,297.439 217.402,297.439 221.551,301.039 					"/>
				</g>
				<g>
					<polygon fill="#266279" points="222.793,297.439 360.863,297.439 360.863,304.639 222.793,304.639 226.941,301.039 					"/>
				</g>
			</g>
			<g>
				<g>
					<polygon fill="#266279" points="217.402,374.207 79.334,374.207 79.334,367.008 217.402,367.008 221.551,370.607 					"/>
				</g>
				<g>
					<polygon fill="#266279" points="222.793,367.008 360.863,367.008 360.863,374.207 222.793,374.207 226.941,370.607 					"/>
				</g>
			</g>
			<g>
				<g>
					<polygon fill="#266279" points="217.402,318.552 79.334,318.552 79.334,311.353 217.402,311.353 221.551,314.952 					"/>
				</g>
				<g>
					<polygon fill="#266279" points="222.793,311.353 360.863,311.353 360.863,318.552 222.793,318.552 226.941,314.952 					"/>
				</g>
			</g>
			<g>
				<g>
					<polygon fill="#266279" points="217.402,332.467 79.334,332.467 79.334,325.268 217.402,325.268 221.551,328.866 					"/>
				</g>
				<g>
					<polygon fill="#266279" points="222.793,325.268 360.863,325.268 360.863,332.467 222.793,332.467 226.941,328.866 					"/>
				</g>
			</g>
			<g>
				<g>
					<polygon fill="#266279" points="217.402,346.38 79.334,346.38 79.334,339.18 217.402,339.18 221.551,342.779 					"/>
				</g>
				<g>
					<polygon fill="#266279" points="222.793,339.18 360.863,339.18 360.863,346.38 222.793,346.38 226.941,342.779 					"/>
				</g>
			</g>
			<g>
				<g>
					<polygon fill="#266279" points="217.402,360.294 79.334,360.294 79.334,353.094 217.402,353.094 221.551,356.693 					"/>
				</g>
				<g>
					<polygon fill="#266279" points="222.793,353.094 360.863,353.094 360.863,360.294 222.793,360.294 226.941,356.693 					"/>
				</g>
			</g>
		</g>
	</g>
	<g>
		<g>
			<g>
				<g>
					<polygon fill="#266279" points="217.402,68.103 79.334,68.103 79.334,60.904 217.402,60.904 221.551,64.504 					"/>
				</g>
				<g>
					<polygon fill="#266279" points="222.793,60.904 360.863,60.904 360.863,68.103 222.793,68.103 226.941,64.504 					"/>
				</g>
			</g>
			<g>
				<g>
					<polygon fill="#266279" points="217.402,151.585 79.334,151.585 79.334,144.387 217.402,144.387 221.551,147.986 					"/>
				</g>
				<g>
					<polygon fill="#266279" points="222.793,144.387 360.863,144.387 360.863,151.585 222.793,151.585 226.941,147.986 					"/>
				</g>
			</g>
			<g>
				<g>
					<polygon fill="#266279" points="217.402,95.931 79.334,95.931 79.334,88.731 217.402,88.731 221.551,92.331 					"/>
				</g>
				<g>
					<polygon fill="#266279" points="222.793,88.731 360.863,88.731 360.863,95.931 222.793,95.931 226.941,92.331 					"/>
				</g>
			</g>
			<g>
				<g>
					<polygon fill="#266279" points="217.402,82.016 79.334,82.016 79.334,74.816 217.402,74.816 221.551,78.415 					"/>
				</g>
				<g>
					<polygon fill="#266279" points="222.793,74.816 360.863,74.816 360.863,82.016 222.793,82.016 226.941,78.415 					"/>
				</g>
			</g>
			<g>
				<g>
					<polygon fill="#266279" points="217.402,109.845 79.334,109.845 79.334,102.646 217.402,102.646 221.551,106.245 					"/>
				</g>
				<g>
					<polygon fill="#266279" points="222.793,102.646 360.863,102.646 360.863,109.845 222.793,109.845 226.941,106.245 					"/>
				</g>
			</g>
			<g>
				<g>
					<polygon fill="#266279" points="217.402,123.758 79.334,123.758 79.334,116.559 217.402,116.559 221.551,120.158 					"/>
				</g>
				<g>
					<polygon fill="#266279" points="222.793,116.559 360.863,116.559 360.863,123.758 222.793,123.758 226.941,120.158 					"/>
				</g>
			</g>
			<g>
				<g>
					<polygon fill="#266279" points="217.402,137.672 79.334,137.672 79.334,130.473 217.402,130.473 221.551,134.071 					"/>
				</g>
				<g>
					<polygon fill="#266279" points="222.793,130.473 360.863,130.473 360.863,137.672 222.793,137.672 226.941,134.071 					"/>
				</g>
			</g>
		</g>
		<g>
			<path fill="#C63706" d="M59.518,50.258h7.288v3.088h-1.797v10.86h3.706c0.098,0,0.193-0.028,0.286-0.084
				c0.094-0.057,0.177-0.13,0.247-0.22c0.071-0.09,0.129-0.187,0.174-0.291c0.045-0.105,0.068-0.206,0.068-0.304v-2.28h3.639v6.256
				H59.518v-3.077h1.763v-10.86h-1.763V50.258z"/>
		</g>
	</g>
	<g>
		<g>
			<g>
				<g>
					<polygon fill="#266279" points="217.402,402.035 79.334,402.035 79.334,394.836 217.402,394.836 221.551,398.437 					"/>
				</g>
				<g>
					<polygon fill="#266279" points="222.793,394.836 360.863,394.836 360.863,402.035 222.793,402.035 226.941,398.437 					"/>
				</g>
			</g>
			<g>
				<g>
					<polygon fill="#266279" points="217.402,485.518 79.334,485.518 79.334,478.319 217.402,478.319 221.551,481.919 					"/>
				</g>
				<g>
					<polygon fill="#266279" points="222.793,478.319 360.863,478.319 360.863,485.518 222.793,485.518 226.941,481.919 					"/>
				</g>
			</g>
			<g>
				<g>
					<polygon fill="#266279" points="217.402,429.863 79.334,429.863 79.334,422.664 217.402,422.664 221.551,426.264 					"/>
				</g>
				<g>
					<polygon fill="#266279" points="222.793,422.664 360.863,422.664 360.863,429.863 222.793,429.863 226.941,426.264 					"/>
				</g>
			</g>
			<g>
				<g>
					<polygon fill="#266279" points="217.402,415.948 79.334,415.948 79.334,408.749 217.402,408.749 221.551,412.348 					"/>
				</g>
				<g>
					<polygon fill="#266279" points="222.793,408.749 360.863,408.749 360.863,415.948 222.793,415.948 226.941,412.348 					"/>
				</g>
			</g>
			<g>
				<g>
					<polygon fill="#266279" points="217.402,443.777 79.334,443.777 79.334,436.578 217.402,436.578 221.551,440.177 					"/>
				</g>
				<g>
					<polygon fill="#266279" points="222.793,436.578 360.863,436.578 360.863,443.777 222.793,443.777 226.941,440.177 					"/>
				</g>
			</g>
			<g>
				<g>
					<polygon fill="#266279" points="217.402,457.69 79.334,457.69 79.334,450.491 217.402,450.491 221.551,454.091 					"/>
				</g>
				<g>
					<polygon fill="#266279" points="222.793,450.491 360.863,450.491 360.863,457.69 222.793,457.69 226.941,454.091 					"/>
				</g>
			</g>
			<g>
				<g>
					<polygon fill="#266279" points="217.402,471.604 79.334,471.604 79.334,464.405 217.402,464.405 221.551,468.004 					"/>
				</g>
				<g>
					<polygon fill="#266279" points="222.793,464.405 360.863,464.405 360.863,471.604 222.793,471.604 226.941,468.004 					"/>
				</g>
			</g>
		</g>
		<g>
			<path fill="#398EB0" d="M59.518,384.19h7.288v3.088h-1.797v10.86h3.706c0.098,0,0.193-0.028,0.286-0.084
				c0.094-0.057,0.177-0.13,0.247-0.22c0.071-0.09,0.129-0.187,0.174-0.291c0.045-0.105,0.068-0.206,0.068-0.304v-2.28h3.639v6.256
				H59.518v-3.077h1.763v-10.86h-1.763V384.19z"/>
		</g>
	</g>
	<g>
		<g>
			<path fill="#398EB0" d="M57.694,161.926h6.536c0.779,0,1.525,0.102,2.24,0.303c0.715,0.203,1.382,0.487,1.999,0.854
				c0.618,0.367,1.18,0.808,1.685,1.32c0.506,0.513,0.938,1.084,1.297,1.713s0.637,1.306,0.832,2.032
				c0.194,0.727,0.291,1.482,0.291,2.269s-0.097,1.542-0.291,2.269c-0.195,0.727-0.473,1.405-0.832,2.038s-0.791,1.209-1.297,1.729
				c-0.505,0.521-1.066,0.966-1.685,1.337c-0.617,0.37-1.284,0.656-1.999,0.859c-0.715,0.201-1.461,0.303-2.24,0.303h-6.536v-3.077
				h1.358v-10.86h-1.358V161.926z M62.781,165.014v10.86h1.427c0.606,0,1.179-0.143,1.718-0.427s1.008-0.672,1.404-1.162
				s0.711-1.067,0.943-1.729c0.232-0.663,0.348-1.376,0.348-2.14c0-0.756-0.115-1.464-0.348-2.123
				c-0.232-0.658-0.547-1.231-0.943-1.718s-0.865-0.868-1.404-1.146s-1.111-0.416-1.718-0.416H62.781z"/>
		</g>
		<g>
			<g>
				<g>
					<polygon fill="#266279" points="217.299,193.327 79.229,193.327 79.229,186.129 217.299,186.129 221.447,189.728 					"/>
				</g>
				<g>
					<polygon fill="#266279" points="222.689,186.129 360.76,186.129 360.76,193.327 222.689,193.327 226.838,189.728 					"/>
				</g>
			</g>
			<g>
				<g>
					<polygon fill="#266279" points="217.299,179.414 79.229,179.414 79.229,172.215 217.299,172.215 221.447,175.814 					"/>
				</g>
				<g>
					<polygon fill="#266279" points="222.689,172.215 360.76,172.215 360.76,179.414 222.689,179.414 226.838,175.814 					"/>
				</g>
			</g>
			<g>
				<g>
					<polygon fill="#266279" points="217.299,207.241 79.229,207.241 79.229,200.042 217.299,200.042 221.447,203.642 					"/>
				</g>
				<g>
					<polygon fill="#266279" points="222.689,200.042 360.76,200.042 360.76,207.241 222.689,207.241 226.838,203.642 					"/>
				</g>
			</g>
			<g>
				<g>
					<polygon fill="#266279" points="217.299,235.068 79.229,235.068 79.229,227.869 217.299,227.869 221.447,231.468 					"/>
				</g>
				<g>
					<polygon fill="#266279" points="222.689,227.869 360.76,227.869 360.76,235.068 222.689,235.068 226.838,231.468 					"/>
				</g>
			</g>
			<g>
				<g>
					<polygon fill="#266279" points="217.402,221.155 79.334,221.155 79.334,213.956 217.402,213.956 221.551,217.556 					"/>
				</g>
				<g>
					<polygon fill="#266279" points="222.793,213.956 360.863,213.956 360.863,221.155 222.793,221.155 226.941,217.556 					"/>
				</g>
			</g>
			<g>
				<g>
					<polygon fill="#266279" points="217.299,248.983 79.229,248.983 79.229,241.785 217.299,241.785 221.447,245.384 					"/>
				</g>
				<g>
					<polygon fill="#266279" points="222.689,241.785 360.76,241.785 360.76,248.983 222.689,248.983 226.838,245.384 					"/>
				</g>
			</g>
			<g>
				<g>
					<polygon fill="#266279" points="217.299,262.896 79.229,262.896 79.229,255.697 217.299,255.697 221.447,259.297 					"/>
				</g>
				<g>
					<polygon fill="#266279" points="222.689,255.697 360.76,255.697 360.76,262.896 222.689,262.896 226.838,259.297 					"/>
				</g>
			</g>
		</g>
	</g>
</g>
</svg>
