<?xml version="1.0" encoding="utf-8"?>
<!-- Generator: Adobe Illustrator 16.0.4, SVG Export Plug-In . SVG Version: 6.00 Build 0)  -->
<!DOCTYPE svg PUBLIC "-//W3C//DTD SVG 1.1//EN" "http://www.w3.org/Graphics/SVG/1.1/DTD/svg11.dtd">
<svg version="1.1" id="Layer_1" xmlns="http://www.w3.org/2000/svg" xmlns:xlink="http://www.w3.org/1999/xlink" x="0px" y="0px"
	 width="448.746px" height="616.44px" viewBox="0 0 448.746 616.44" enable-background="new 0 0 448.746 616.44"
	 xml:space="preserve">
<rect x="0.5" y="0.5" fill="#FFFFFF" stroke="#C68D06" stroke-miterlimit="10" width="447.746" height="615.44"/>
<g>
	<path fill="#C68D06" d="M348.434,575.869h-12.461v-1.855l11.796-17.781h3.046v17.432h4.375v2.205h-4.375v6.266h-2.381V575.869z
		 M348.434,573.664v-14.526h-0.069l-9.592,14.526H348.434z"/>
	<path fill="#C68D06" d="M361.452,569.183c0-8.086,3.431-13.441,9.521-13.441s9.451,5.355,9.451,13.441s-3.36,13.441-9.451,13.441
		S361.452,577.269,361.452,569.183z M377.975,569.183c0-7.316-2.766-11.236-7.001-11.236c-4.41,0-7.036,3.92-7.036,11.236
		c0,7.315,2.766,11.271,7.036,11.271C375.349,580.455,377.975,576.499,377.975,569.183z"/>
	<path fill="#C68D06" d="M389.208,556.232h8.681c5.776,0,8.996,2.45,8.996,7c0,4.201-2.45,6.301-6.195,7.001l6.546,11.901h-2.801
		l-6.336-11.621h-6.44v11.621h-2.45V556.232z M397.714,568.308c4.271,0,6.686-1.226,6.686-4.971c0-3.57-2.38-4.831-6.721-4.831
		h-6.021v9.802H397.714z"/>
</g>
<g>
	<rect x="80.048" y="158.093" fill="#C0DDE7" width="281.739" height="7.199"/>
</g>
<g>
	<rect x="80.049" y="172.006" fill="#C0DDE7" width="281.738" height="7.199"/>
</g>
<g>
	<rect x="80.048" y="185.92" fill="#C0DDE7" width="281.739" height="7.2"/>
</g>
<g>
	<rect x="80.048" y="199.834" fill="#C0DDE7" width="281.739" height="7.199"/>
</g>
<g>
	<rect x="80.048" y="213.749" fill="#C0DDE7" width="281.739" height="7.199"/>
</g>
<g>
	<rect x="80.048" y="227.662" fill="#C0DDE7" width="281.739" height="7.2"/>
</g>
<g>
	<rect x="80.049" y="241.576" fill="#C0DDE7" width="281.738" height="7.199"/>
</g>
<g>
	<rect x="80.049" y="255.489" fill="#C0DDE7" width="281.738" height="7.2"/>
</g>
<g>
	<rect x="80.048" y="269.404" fill="#C0DDE7" width="281.739" height="7.199"/>
</g>
<g>
	<rect x="80.049" y="283.317" fill="#C0DDE7" width="281.738" height="7.2"/>
</g>
<g>
	<rect x="80.048" y="297.231" fill="#C0DDE7" width="281.739" height="7.2"/>
</g>
<g>
	<rect x="80.048" y="311.145" fill="#C0DDE7" width="281.739" height="7.2"/>
</g>
<g>
	<rect x="80.048" y="325.059" fill="#C0DDE7" width="281.739" height="7.199"/>
</g>
<g>
	<rect x="80.049" y="338.972" fill="#C0DDE7" width="281.738" height="7.2"/>
</g>
<g>
	<rect x="80.048" y="352.886" fill="#C0DDE7" width="281.739" height="7.2"/>
</g>
<g>
	<rect x="80.048" y="366.8" fill="#C0DDE7" width="281.739" height="7.2"/>
</g>
<g>
	<rect x="80.048" y="380.714" fill="#C0DDE7" width="281.739" height="7.199"/>
</g>
<g>
	<rect x="80.048" y="394.628" fill="#C0DDE7" width="281.739" height="7.199"/>
</g>
<g>
	<rect x="80.049" y="408.542" fill="#C0DDE7" width="281.738" height="7.199"/>
</g>
<g>
	<rect x="80.048" y="422.456" fill="#C0DDE7" width="281.739" height="7.2"/>
</g>
<g>
	<rect x="80.049" y="436.369" fill="#C0DDE7" width="281.738" height="7.2"/>
</g>
<g>
	<rect x="80.048" y="450.284" fill="#C0DDE7" width="281.739" height="7.199"/>
</g>
<g>
	<rect x="80.049" y="464.197" fill="#C0DDE7" width="281.738" height="7.199"/>
</g>
<g>
	<rect x="80.048" y="478.111" fill="#C0DDE7" width="281.739" height="7.2"/>
</g>
<g>
	<rect x="80.048" y="60.696" fill="#C0DDE7" width="281.739" height="7.2"/>
</g>
<g>
	<rect x="80.049" y="74.61" fill="#C0DDE7" width="281.738" height="7.2"/>
</g>
<g>
	<rect x="80.049" y="144.179" fill="#C0DDE7" width="281.738" height="7.199"/>
</g>
<g>
	<rect x="80.048" y="88.524" fill="#C0DDE7" width="281.739" height="7.199"/>
</g>
<g>
	<rect x="80.049" y="102.437" fill="#C0DDE7" width="281.738" height="7.2"/>
</g>
<g>
	<rect x="80.049" y="116.351" fill="#C0DDE7" width="281.738" height="7.199"/>
</g>
<g>
	<rect x="80.049" y="130.265" fill="#C0DDE7" width="281.738" height="7.199"/>
</g>
<g>
	<g>
		<g>
			<path fill="#266279" d="M67.676,287.667h1.695l-0.764-2.448h-5.233l-0.764,2.448h1.797v3.077h-6.458v-3.077h1.27l4.639-13.948
				h4.503l4.537,13.948h1.235v3.077h-6.457V287.667z M64.262,282.343h3.436l-1.729-5.537L64.262,282.343z"/>
		</g>
		<g>
			<g>
				<g>
					<polygon fill="#266279" points="218.326,290.518 80.256,290.518 80.256,283.319 218.326,283.319 222.475,286.918 					"/>
				</g>
				<g>
					<polygon fill="#266279" points="223.717,283.319 361.787,283.319 361.787,290.518 223.717,290.518 227.863,286.918 					"/>
				</g>
			</g>
			<g>
				<g>
					<polygon fill="#266279" points="218.326,304.432 80.256,304.432 80.256,297.233 218.326,297.233 222.475,300.833 					"/>
				</g>
				<g>
					<polygon fill="#266279" points="223.717,297.233 361.787,297.233 361.787,304.432 223.717,304.432 227.863,300.833 					"/>
				</g>
			</g>
			<g>
				<g>
					<polygon fill="#266279" points="218.326,374 80.256,374 80.256,366.801 218.326,366.801 222.475,370.401 					"/>
				</g>
				<g>
					<polygon fill="#266279" points="223.717,366.801 361.787,366.801 361.787,374 223.717,374 227.863,370.401 					"/>
				</g>
			</g>
			<g>
				<g>
					<polygon fill="#266279" points="218.326,318.345 80.256,318.345 80.256,311.146 218.326,311.146 222.475,314.746 					"/>
				</g>
				<g>
					<polygon fill="#266279" points="223.717,311.146 361.787,311.146 361.787,318.345 223.717,318.345 227.863,314.746 					"/>
				</g>
			</g>
			<g>
				<g>
					<polygon fill="#266279" points="218.326,332.26 80.256,332.26 80.256,325.061 218.326,325.061 222.475,328.66 					"/>
				</g>
				<g>
					<polygon fill="#266279" points="223.717,325.061 361.787,325.061 361.787,332.26 223.717,332.26 227.863,328.66 					"/>
				</g>
			</g>
			<g>
				<g>
					<polygon fill="#266279" points="218.326,346.173 80.256,346.173 80.256,338.973 218.326,338.973 222.475,342.573 					"/>
				</g>
				<g>
					<polygon fill="#266279" points="223.717,338.973 361.787,338.973 361.787,346.173 223.717,346.173 227.863,342.573 					"/>
				</g>
			</g>
			<g>
				<g>
					<polygon fill="#266279" points="218.326,360.087 80.256,360.087 80.256,352.887 218.326,352.887 222.475,356.487 					"/>
				</g>
				<g>
					<polygon fill="#266279" points="223.717,352.887 361.787,352.887 361.787,360.087 223.717,360.087 227.863,356.487 					"/>
				</g>
			</g>
		</g>
	</g>
	<g>
		<g>
			<path fill="#266279" d="M58.826,385.384h6.535c0.779,0,1.525,0.102,2.24,0.303c0.716,0.203,1.383,0.487,2,0.854
				c0.617,0.367,1.18,0.808,1.684,1.32c0.506,0.513,0.938,1.084,1.298,1.713s0.636,1.306,0.831,2.032s0.292,1.482,0.292,2.269
				s-0.097,1.542-0.292,2.269s-0.472,1.405-0.831,2.038s-0.792,1.209-1.298,1.729c-0.504,0.521-1.066,0.966-1.684,1.337
				c-0.617,0.37-1.284,0.656-2,0.859c-0.715,0.201-1.461,0.303-2.24,0.303h-6.535v-3.077h1.358v-10.86h-1.358V385.384z
				 M63.913,388.472v10.86h1.427c0.605,0,1.179-0.143,1.718-0.427s1.007-0.672,1.403-1.162c0.397-0.49,0.712-1.067,0.943-1.729
				c0.232-0.663,0.349-1.376,0.349-2.14c0-0.756-0.116-1.464-0.349-2.123c-0.231-0.658-0.546-1.231-0.943-1.718
				c-0.396-0.486-0.864-0.868-1.403-1.146s-1.112-0.416-1.718-0.416H63.913z"/>
		</g>
		<g>
			<g>
				<g>
					<polygon fill="#266279" points="218.326,401.829 80.256,401.829 80.256,394.629 218.326,394.629 222.475,398.229 					"/>
				</g>
				<g>
					<polygon fill="#266279" points="223.717,394.629 361.787,394.629 361.787,401.829 223.717,401.829 227.863,398.229 					"/>
				</g>
			</g>
			<g>
				<g>
					<polygon fill="#266279" points="218.326,415.743 80.256,415.743 80.256,408.543 218.326,408.543 222.475,412.143 					"/>
				</g>
				<g>
					<polygon fill="#266279" points="223.717,408.543 361.787,408.543 361.787,415.743 223.717,415.743 227.863,412.143 					"/>
				</g>
			</g>
			<g>
				<g>
					<polygon fill="#266279" points="218.326,485.311 80.256,485.311 80.256,478.112 218.326,478.112 222.475,481.711 					"/>
				</g>
				<g>
					<polygon fill="#266279" points="223.717,478.112 361.787,478.112 361.787,485.311 223.717,485.311 227.863,481.711 					"/>
				</g>
			</g>
			<g>
				<g>
					<polygon fill="#266279" points="218.326,429.656 80.256,429.656 80.256,422.457 218.326,422.457 222.475,426.056 					"/>
				</g>
				<g>
					<polygon fill="#266279" points="223.717,422.457 361.787,422.457 361.787,429.656 223.717,429.656 227.863,426.056 					"/>
				</g>
			</g>
			<g>
				<g>
					<polygon fill="#266279" points="218.326,443.571 80.256,443.571 80.256,436.372 218.326,436.372 222.475,439.97 					"/>
				</g>
				<g>
					<polygon fill="#266279" points="223.717,436.372 361.787,436.372 361.787,443.571 223.717,443.571 227.863,439.97 					"/>
				</g>
			</g>
			<g>
				<g>
					<polygon fill="#266279" points="218.326,457.484 80.256,457.484 80.256,450.284 218.326,450.284 222.475,453.883 					"/>
				</g>
				<g>
					<polygon fill="#266279" points="223.717,450.284 361.787,450.284 361.787,457.484 223.717,457.484 227.863,453.883 					"/>
				</g>
			</g>
			<g>
				<g>
					<polygon fill="#266279" points="218.326,471.398 80.256,471.398 80.256,464.198 218.326,464.198 222.475,467.797 					"/>
				</g>
				<g>
					<polygon fill="#266279" points="223.717,464.198 361.787,464.198 361.787,471.398 223.717,471.398 227.863,467.797 					"/>
				</g>
			</g>
		</g>
	</g>
	<g>
		<g>
			<g>
				<g>
					<polygon fill="#266279" points="218.326,67.896 80.256,67.896 80.256,60.696 218.326,60.696 222.474,64.297 					"/>
				</g>
				<g>
					<polygon fill="#266279" points="223.717,60.696 361.787,60.696 361.787,67.896 223.717,67.896 227.864,64.297 					"/>
				</g>
			</g>
			<g>
				<g>
					<polygon fill="#266279" points="218.326,151.378 80.256,151.378 80.256,144.18 218.326,144.18 222.474,147.779 					"/>
				</g>
				<g>
					<polygon fill="#266279" points="223.717,144.18 361.787,144.18 361.787,151.378 223.717,151.378 227.864,147.779 					"/>
				</g>
			</g>
			<g>
				<g>
					<polygon fill="#266279" points="218.326,95.724 80.256,95.724 80.256,88.525 218.326,88.525 222.474,92.124 					"/>
				</g>
				<g>
					<polygon fill="#266279" points="223.717,88.525 361.787,88.525 361.787,95.724 223.717,95.724 227.864,92.124 					"/>
				</g>
			</g>
			<g>
				<g>
					<polygon fill="#266279" points="218.326,81.809 80.256,81.809 80.256,74.61 218.326,74.61 222.474,78.208 					"/>
				</g>
				<g>
					<polygon fill="#266279" points="223.717,74.61 361.787,74.61 361.787,81.809 223.717,81.809 227.864,78.208 					"/>
				</g>
			</g>
			<g>
				<g>
					<polygon fill="#266279" points="218.326,109.638 80.256,109.638 80.256,102.439 218.326,102.439 222.474,106.038 					"/>
				</g>
				<g>
					<polygon fill="#266279" points="223.717,102.439 361.787,102.439 361.787,109.638 223.717,109.638 227.864,106.038 					"/>
				</g>
			</g>
			<g>
				<g>
					<polygon fill="#266279" points="218.326,123.551 80.256,123.551 80.256,116.352 218.326,116.352 222.474,119.951 					"/>
				</g>
				<g>
					<polygon fill="#266279" points="223.717,116.352 361.787,116.352 361.787,123.551 223.717,123.551 227.864,119.951 					"/>
				</g>
			</g>
			<g>
				<g>
					<polygon fill="#266279" points="218.326,137.465 80.256,137.465 80.256,130.266 218.326,130.266 222.474,133.865 					"/>
				</g>
				<g>
					<polygon fill="#266279" points="223.717,130.266 361.787,130.266 361.787,137.465 223.717,137.465 227.864,133.865 					"/>
				</g>
			</g>
		</g>
		<g>
			<path fill="#266279" d="M58.723,50.05h6.535c0.779,0,1.525,0.102,2.24,0.303c0.716,0.203,1.383,0.487,2,0.854
				c0.617,0.367,1.18,0.808,1.684,1.32c0.506,0.513,0.938,1.084,1.298,1.713s0.636,1.306,0.831,2.032s0.292,1.482,0.292,2.269
				s-0.097,1.542-0.292,2.269s-0.472,1.405-0.831,2.038s-0.792,1.209-1.298,1.729c-0.504,0.521-1.066,0.966-1.684,1.337
				c-0.617,0.37-1.284,0.656-2,0.859c-0.715,0.201-1.461,0.303-2.24,0.303h-6.535v-3.077h1.358v-10.86h-1.358V50.05z M63.81,53.138
				v10.86h1.427c0.605,0,1.179-0.143,1.718-0.427s1.007-0.672,1.403-1.162c0.397-0.49,0.712-1.067,0.943-1.729
				c0.232-0.663,0.349-1.376,0.349-2.14c0-0.756-0.116-1.464-0.349-2.123c-0.231-0.658-0.546-1.231-0.943-1.718
				c-0.396-0.486-0.864-0.868-1.403-1.146s-1.112-0.416-1.718-0.416H63.81z"/>
		</g>
	</g>
	<g>
		<g>
			<path fill="#266279" d="M60.336,161.718h7.289v3.088h-1.797v10.86h3.705c0.098,0,0.193-0.028,0.287-0.084
				c0.094-0.057,0.176-0.13,0.246-0.22c0.072-0.09,0.13-0.187,0.175-0.291c0.045-0.105,0.067-0.206,0.067-0.304v-2.28h3.639v6.256
				H60.336v-3.077H62.1v-10.86h-1.764V161.718z"/>
		</g>
		<g>
			<g>
				<g>
					<polygon fill="#266279" points="218.222,193.121 80.151,193.121 80.151,185.922 218.222,185.922 222.369,189.521 					"/>
				</g>
				<g>
					<polygon fill="#266279" points="223.612,185.922 361.683,185.922 361.683,193.121 223.612,193.121 227.76,189.521 					"/>
				</g>
			</g>
			<g>
				<g>
					<polygon fill="#266279" points="218.222,179.208 80.151,179.208 80.151,172.008 218.222,172.008 222.369,175.608 					"/>
				</g>
				<g>
					<polygon fill="#266279" points="223.612,172.008 361.683,172.008 361.683,179.208 223.612,179.208 227.76,175.608 					"/>
				</g>
			</g>
			<g>
				<g>
					<polygon fill="#266279" points="218.222,207.035 80.151,207.035 80.151,199.835 218.222,199.835 222.369,203.435 					"/>
				</g>
				<g>
					<polygon fill="#266279" points="223.612,199.835 361.683,199.835 361.683,207.035 223.612,207.035 227.76,203.435 					"/>
				</g>
			</g>
			<g>
				<g>
					<polygon fill="#266279" points="218.222,234.862 80.151,234.862 80.151,227.663 218.222,227.663 222.369,231.261 					"/>
				</g>
				<g>
					<polygon fill="#266279" points="223.612,227.663 361.683,227.663 361.683,234.862 223.612,234.862 227.76,231.261 					"/>
				</g>
			</g>
			<g>
				<g>
					<polygon fill="#266279" points="218.326,220.949 80.256,220.949 80.256,213.75 218.326,213.75 222.474,217.349 					"/>
				</g>
				<g>
					<polygon fill="#266279" points="223.717,213.75 361.787,213.75 361.787,220.949 223.717,220.949 227.864,217.349 					"/>
				</g>
			</g>
			<g>
				<g>
					<polygon fill="#266279" points="218.222,248.777 80.151,248.777 80.151,241.578 218.222,241.578 222.369,245.177 					"/>
				</g>
				<g>
					<polygon fill="#266279" points="223.612,241.578 361.683,241.578 361.683,248.777 223.612,248.777 227.76,245.177 					"/>
				</g>
			</g>
			<g>
				<g>
					<polygon fill="#266279" points="218.222,262.69 80.151,262.69 80.151,255.491 218.222,255.491 222.369,259.09 					"/>
				</g>
				<g>
					<polygon fill="#266279" points="223.612,255.491 361.683,255.491 361.683,262.69 223.612,262.69 227.76,259.09 					"/>
				</g>
			</g>
		</g>
	</g>
</g>
</svg>
