<?xml version="1.0" encoding="utf-8"?>
<!-- Generator: Adobe Illustrator 16.0.4, SVG Export Plug-In . SVG Version: 6.00 Build 0)  -->
<!DOCTYPE svg PUBLIC "-//W3C//DTD SVG 1.1//EN" "http://www.w3.org/Graphics/SVG/1.1/DTD/svg11.dtd">
<svg version="1.1" id="Layer_1" xmlns="http://www.w3.org/2000/svg" xmlns:xlink="http://www.w3.org/1999/xlink" x="0px" y="0px"
	 width="448.747px" height="616.44px" viewBox="0 0 448.747 616.44" enable-background="new 0 0 448.747 616.44"
	 xml:space="preserve">
<rect x="0.5" y="0.5" fill="#FFFFFF" stroke="#C68D06" stroke-miterlimit="10" width="447.747" height="615.44"/>
<g>
	<path fill="#C68D06" d="M352.055,573.614h-12.461v-1.855l11.796-17.781h3.046v17.432h4.375v2.205h-4.375v6.266h-2.381V573.614z
		 M352.055,571.409v-14.526h-0.069l-9.592,14.526H352.055z"/>
	<path fill="#C68D06" d="M365.073,566.928c0-8.086,3.431-13.441,9.521-13.441s9.451,5.355,9.451,13.441s-3.36,13.441-9.451,13.441
		S365.073,575.014,365.073,566.928z M381.596,566.928c0-7.316-2.766-11.236-7.001-11.236c-4.41,0-7.036,3.92-7.036,11.236
		c0,7.315,2.766,11.271,7.036,11.271C378.97,578.2,381.596,574.244,381.596,566.928z"/>
	<path fill="#C68D06" d="M390.763,553.977h2.556l7.735,22.612h0.07l7.771-22.612h2.416l-9.102,26.008h-2.345L390.763,553.977z"/>
</g>
<g>
	<rect x="79.919" y="152.499" fill="#C0DDE7" width="281.738" height="7.199"/>
</g>
<g>
	<rect x="79.919" y="166.412" fill="#C0DDE7" width="281.738" height="7.199"/>
</g>
<g>
	<rect x="79.919" y="180.326" fill="#C0DDE7" width="281.738" height="7.2"/>
</g>
<g>
	<rect x="79.919" y="194.24" fill="#C0DDE7" width="281.738" height="7.199"/>
</g>
<g>
	<rect x="79.919" y="208.154" fill="#C0DDE7" width="281.738" height="7.199"/>
</g>
<g>
	<rect x="79.919" y="222.068" fill="#C0DDE7" width="281.738" height="7.199"/>
</g>
<g>
	<rect x="79.919" y="235.981" fill="#C0DDE7" width="281.738" height="7.199"/>
</g>
<g>
	<rect x="79.919" y="249.895" fill="#C0DDE7" width="281.738" height="7.2"/>
</g>
<g>
	<rect x="79.919" y="263.809" fill="#C0DDE7" width="281.738" height="7.199"/>
</g>
<g>
	<rect x="79.919" y="277.723" fill="#C0DDE7" width="281.738" height="7.2"/>
</g>
<g>
	<rect x="79.919" y="291.636" fill="#C0DDE7" width="281.738" height="7.2"/>
</g>
<g>
	<rect x="79.919" y="305.55" fill="#C0DDE7" width="281.738" height="7.2"/>
</g>
<g>
	<rect x="79.919" y="319.464" fill="#C0DDE7" width="281.738" height="7.199"/>
</g>
<g>
	<rect x="79.919" y="333.378" fill="#C0DDE7" width="281.738" height="7.2"/>
</g>
<g>
	<rect x="79.919" y="347.292" fill="#C0DDE7" width="281.738" height="7.201"/>
</g>
<g>
	<rect x="79.919" y="361.206" fill="#C0DDE7" width="281.738" height="7.2"/>
</g>
<g>
	<rect x="79.919" y="375.12" fill="#C0DDE7" width="281.738" height="7.199"/>
</g>
<g>
	<rect x="79.919" y="389.034" fill="#C0DDE7" width="281.738" height="7.199"/>
</g>
<g>
	<rect x="79.919" y="402.947" fill="#C0DDE7" width="281.738" height="7.199"/>
</g>
<g>
	<rect x="79.919" y="416.861" fill="#C0DDE7" width="281.738" height="7.2"/>
</g>
<g>
	<rect x="79.919" y="430.774" fill="#C0DDE7" width="281.738" height="7.2"/>
</g>
<g>
	<rect x="79.919" y="444.689" fill="#C0DDE7" width="281.738" height="7.2"/>
</g>
<g>
	<rect x="79.919" y="458.603" fill="#C0DDE7" width="281.738" height="7.199"/>
</g>
<g>
	<rect x="79.919" y="472.516" fill="#C0DDE7" width="281.738" height="7.2"/>
</g>
<g>
	<rect x="79.919" y="55.101" fill="#C0DDE7" width="281.738" height="7.2"/>
</g>
<g>
	<rect x="79.919" y="69.015" fill="#C0DDE7" width="281.738" height="7.201"/>
</g>
<g>
	<rect x="79.919" y="138.584" fill="#C0DDE7" width="281.738" height="7.2"/>
</g>
<g>
	<rect x="79.919" y="82.929" fill="#C0DDE7" width="281.738" height="7.199"/>
</g>
<g>
	<rect x="79.919" y="96.843" fill="#C0DDE7" width="281.738" height="7.201"/>
</g>
<g>
	<rect x="79.919" y="110.757" fill="#C0DDE7" width="281.738" height="7.199"/>
</g>
<g>
	<rect x="79.919" y="124.672" fill="#C0DDE7" width="281.738" height="7.198"/>
</g>
<g>
	<path fill="#266279" d="M69.446,49.988c-0.038-0.262-0.129-0.509-0.275-0.74c-0.146-0.232-0.333-0.433-0.562-0.602
		c-0.228-0.168-0.486-0.301-0.774-0.398c-0.289-0.098-0.59-0.146-0.904-0.146c-0.285,0-0.55,0.03-0.797,0.09
		c-0.247,0.061-0.462,0.152-0.646,0.275c-0.183,0.124-0.329,0.283-0.438,0.478c-0.109,0.194-0.163,0.427-0.163,0.696
		c0,0.337,0.073,0.604,0.219,0.803c0.146,0.198,0.333,0.361,0.562,0.488c0.229,0.128,0.481,0.229,0.758,0.304
		s0.546,0.157,0.809,0.247l3.088,1.033c0.427,0.149,0.827,0.355,1.202,0.617c0.375,0.263,0.698,0.581,0.971,0.955
		c0.273,0.374,0.489,0.805,0.646,1.291c0.157,0.487,0.236,1.033,0.236,1.641c0,0.823-0.151,1.575-0.455,2.257
		c-0.303,0.682-0.728,1.266-1.274,1.752s-1.202,0.864-1.965,1.134s-1.61,0.404-2.538,0.404c-0.651,0-1.267-0.072-1.847-0.219
		c-0.581-0.146-1.11-0.357-1.589-0.635c-0.479-0.276-0.898-0.607-1.258-0.993s-0.64-0.822-0.842-1.309H60.45v-3.38h4.065v0.695
		c0,0.338,0.054,0.648,0.163,0.933c0.109,0.284,0.271,0.531,0.489,0.741s0.49,0.372,0.82,0.488s0.715,0.174,1.157,0.174
		c0.674,0,1.187-0.155,1.539-0.466s0.528-0.743,0.528-1.297c0-0.284-0.062-0.522-0.185-0.713c-0.124-0.191-0.283-0.353-0.478-0.483
		s-0.412-0.241-0.651-0.331s-0.476-0.172-0.708-0.247l-2.572-0.831c-0.487-0.149-0.957-0.359-1.409-0.629
		c-0.453-0.27-0.854-0.606-1.202-1.011c-0.348-0.404-0.625-0.878-0.831-1.421c-0.206-0.543-0.309-1.162-0.309-1.858
		c0-0.809,0.15-1.529,0.449-2.162s0.719-1.166,1.258-1.6c0.539-0.435,1.179-0.764,1.92-0.988s1.554-0.338,2.437-0.338
		c0.696,0,1.34,0.081,1.932,0.242s1.121,0.376,1.589,0.646c0.468,0.27,0.865,0.578,1.19,0.927c0.326,0.348,0.575,0.709,0.747,1.084
		h1.123v3.391h-4.065V49.988z"/>
</g>
<g>
	<g>
		<polygon fill="#266279" points="218.092,104.043 80.022,104.043 80.022,96.844 218.092,96.844 222.241,100.442 		"/>
	</g>
	<g>
		<polygon fill="#266279" points="223.483,96.844 361.553,96.844 361.553,104.043 223.483,104.043 227.631,100.442 		"/>
	</g>
</g>
<g>
	<g>
		<polygon fill="#266279" points="218.092,76.214 80.022,76.214 80.022,69.015 218.092,69.015 222.241,72.613 		"/>
	</g>
	<g>
		<polygon fill="#266279" points="223.483,69.015 361.553,69.015 361.553,76.214 223.483,76.214 227.631,72.613 		"/>
	</g>
</g>
<g>
	<g>
		<polygon fill="#266279" points="218.092,62.3 80.022,62.3 80.022,55.101 218.092,55.101 222.241,58.699 		"/>
	</g>
	<g>
		<polygon fill="#266279" points="223.483,55.101 361.553,55.101 361.553,62.3 223.483,62.3 227.631,58.699 		"/>
	</g>
</g>
<g>
	<g>
		<polygon fill="#266279" points="218.092,117.956 80.022,117.956 80.022,110.756 218.092,110.756 222.241,114.355 		"/>
	</g>
	<g>
		<polygon fill="#266279" points="223.483,110.756 361.553,110.756 361.553,117.956 223.483,117.956 227.631,114.355 		"/>
	</g>
</g>
<g>
	<g>
		<polygon fill="#266279" points="266.089,90.128 176.407,90.128 180.558,86.528 176.407,82.929 266.089,82.929 270.239,86.528 		
			"/>
	</g>
	<g>
		<polygon fill="#266279" points="169.601,90.128 79.919,90.128 79.919,82.929 169.601,82.929 173.749,86.528 		"/>
	</g>
	<g>
		<polygon fill="#266279" points="271.833,82.929 361.515,82.929 361.515,90.128 271.833,90.128 275.981,86.528 		"/>
	</g>
</g>
<g>
	<g>
		<polygon fill="#266279" points="218.425,173.948 80.355,173.948 80.355,166.749 218.425,166.749 222.574,170.347 		"/>
	</g>
	<g>
		<polygon fill="#266279" points="223.816,166.749 361.886,166.749 361.886,173.948 223.816,173.948 227.964,170.347 		"/>
	</g>
</g>
<g>
	<g>
		<polygon fill="#266279" points="218.425,159.698 80.355,159.698 80.355,152.499 218.425,152.499 222.574,156.097 		"/>
	</g>
	<g>
		<polygon fill="#266279" points="223.816,152.499 361.886,152.499 361.886,159.698 223.816,159.698 227.964,156.097 		"/>
	</g>
</g>
<g>
	<g>
		<polygon fill="#266279" points="218.425,131.871 80.355,131.871 80.355,124.672 218.425,124.672 222.574,128.27 		"/>
	</g>
	<g>
		<polygon fill="#266279" points="223.816,124.672 361.886,124.672 361.886,131.871 223.816,131.871 227.964,128.27 		"/>
	</g>
</g>
<g>
	<g>
		<polygon fill="#266279" points="218.092,187.527 80.022,187.527 80.022,180.327 218.092,180.327 222.241,183.926 		"/>
	</g>
	<g>
		<polygon fill="#266279" points="223.483,180.327 361.553,180.327 361.553,187.527 223.483,187.527 227.631,183.926 		"/>
	</g>
</g>
<g>
	<g>
		<polygon fill="#266279" points="266.089,145.785 176.407,145.785 180.558,142.185 176.407,138.585 266.089,138.585 
			270.239,142.185 		"/>
	</g>
	<g>
		<polygon fill="#266279" points="169.601,145.785 79.919,145.785 79.919,138.585 169.601,138.585 173.749,142.185 		"/>
	</g>
	<g>
		<polygon fill="#266279" points="271.833,138.585 361.515,138.585 361.515,145.785 271.833,145.785 275.981,142.185 		"/>
	</g>
</g>
<g>
	<g>
		<polygon fill="#266279" points="218.092,243.183 80.022,243.183 80.022,235.983 218.092,235.983 222.241,239.582 		"/>
	</g>
	<g>
		<polygon fill="#266279" points="223.483,235.983 361.553,235.983 361.553,243.183 223.483,243.183 227.631,239.582 		"/>
	</g>
</g>
<g>
	<g>
		<polygon fill="#266279" points="218.092,229.267 80.022,229.267 80.022,222.068 218.092,222.068 222.241,225.666 		"/>
	</g>
	<g>
		<polygon fill="#266279" points="223.483,222.068 361.553,222.068 361.553,229.267 223.483,229.267 227.631,225.666 		"/>
	</g>
</g>
<g>
	<g>
		<polygon fill="#266279" points="218.092,215.354 80.022,215.354 80.022,208.154 218.092,208.154 222.241,211.752 		"/>
	</g>
	<g>
		<polygon fill="#266279" points="223.483,208.154 361.553,208.154 361.553,215.354 223.483,215.354 227.631,211.752 		"/>
	</g>
</g>
<g>
	<g>
		<polygon fill="#266279" points="266.089,201.44 176.407,201.44 180.558,197.84 176.407,194.24 266.089,194.24 270.239,197.84 		
			"/>
	</g>
	<g>
		<polygon fill="#266279" points="169.601,201.44 79.919,201.44 79.919,194.24 169.601,194.24 173.749,197.84 		"/>
	</g>
	<g>
		<polygon fill="#266279" points="271.833,194.24 361.515,194.24 361.515,201.44 271.833,201.44 275.981,197.84 		"/>
	</g>
</g>
<g>
	<g>
		<polygon fill="#266279" points="218.092,284.922 80.022,284.922 80.022,277.723 218.092,277.723 222.241,281.321 		"/>
	</g>
	<g>
		<polygon fill="#266279" points="223.483,277.723 361.553,277.723 361.553,284.922 223.483,284.922 227.631,281.321 		"/>
	</g>
</g>
<g>
	<g>
		<polygon fill="#266279" points="218.092,271.008 80.022,271.008 80.022,263.809 218.092,263.809 222.241,267.407 		"/>
	</g>
	<g>
		<polygon fill="#266279" points="223.483,263.809 361.553,263.809 361.553,271.008 223.483,271.008 227.631,267.407 		"/>
	</g>
</g>
<g>
	<g>
		<polygon fill="#266279" points="218.092,298.836 80.022,298.836 80.022,291.636 218.092,291.636 222.241,295.236 		"/>
	</g>
	<g>
		<polygon fill="#266279" points="223.483,291.636 361.553,291.636 361.553,298.836 223.483,298.836 227.631,295.236 		"/>
	</g>
</g>
<g>
	<g>
		<polygon fill="#266279" points="266.089,257.094 176.407,257.094 180.558,253.494 176.407,249.895 266.089,249.895 
			270.239,253.494 		"/>
	</g>
	<g>
		<polygon fill="#266279" points="169.601,257.094 79.919,257.094 79.919,249.895 169.601,249.895 173.749,253.494 		"/>
	</g>
	<g>
		<polygon fill="#266279" points="271.833,249.895 361.515,249.895 361.515,257.094 271.833,257.094 275.981,253.494 		"/>
	</g>
</g>
<g>
	<g>
		<polygon fill="#266279" points="266.089,312.75 176.407,312.75 180.558,309.15 176.407,305.551 266.089,305.551 270.239,309.15 		
			"/>
	</g>
	<g>
		<polygon fill="#266279" points="169.601,312.75 79.919,312.75 79.919,305.551 169.601,305.551 173.749,309.15 		"/>
	</g>
	<g>
		<polygon fill="#266279" points="271.833,305.551 361.515,305.551 361.515,312.75 271.833,312.75 275.981,309.15 		"/>
	</g>
</g>
<g>
	<g>
		<polygon fill="#266279" points="218.092,326.664 80.022,326.664 80.022,319.464 218.092,319.464 222.241,323.062 		"/>
	</g>
	<g>
		<polygon fill="#266279" points="223.483,319.464 361.553,319.464 361.553,326.664 223.483,326.664 227.631,323.062 		"/>
	</g>
</g>
<g>
	<g>
		<polygon fill="#266279" points="218.092,340.578 80.022,340.578 80.022,333.378 218.092,333.378 222.241,336.978 		"/>
	</g>
	<g>
		<polygon fill="#266279" points="223.483,333.378 361.553,333.378 361.553,340.578 223.483,340.578 227.631,336.978 		"/>
	</g>
</g>
<g>
	<g>
		<polygon fill="#266279" points="266.089,368.405 176.407,368.405 180.558,364.805 176.407,361.206 266.089,361.206 
			270.239,364.805 		"/>
	</g>
	<g>
		<polygon fill="#266279" points="169.601,368.405 79.919,368.405 79.919,361.206 169.601,361.206 173.749,364.805 		"/>
	</g>
	<g>
		<polygon fill="#266279" points="271.833,361.206 361.515,361.206 361.515,368.405 271.833,368.405 275.981,364.805 		"/>
	</g>
</g>
<g>
	<g>
		<polygon fill="#266279" points="218.092,354.491 80.022,354.491 80.022,347.292 218.092,347.292 222.241,350.89 		"/>
	</g>
	<g>
		<polygon fill="#266279" points="223.483,347.292 361.553,347.292 361.553,354.491 223.483,354.491 227.631,350.89 		"/>
	</g>
</g>
<g>
	<g>
		<polygon fill="#266279" points="218.092,410.147 80.022,410.147 80.022,402.947 218.092,402.947 222.241,406.547 		"/>
	</g>
	<g>
		<polygon fill="#266279" points="223.483,402.947 361.553,402.947 361.553,410.147 223.483,410.147 227.631,406.547 		"/>
	</g>
</g>
<g>
	<g>
		<polygon fill="#266279" points="218.092,382.32 80.022,382.32 80.022,375.12 218.092,375.12 222.241,378.719 		"/>
	</g>
	<g>
		<polygon fill="#266279" points="223.483,375.12 361.553,375.12 361.553,382.32 223.483,382.32 227.631,378.719 		"/>
	</g>
</g>
<g>
	<g>
		<polygon fill="#266279" points="266.089,396.233 176.407,396.233 180.558,392.633 176.407,389.034 266.089,389.034 
			270.239,392.633 		"/>
	</g>
	<g>
		<polygon fill="#266279" points="169.601,396.233 79.919,396.233 79.919,389.034 169.601,389.034 173.749,392.633 		"/>
	</g>
	<g>
		<polygon fill="#266279" points="271.833,389.034 361.515,389.034 361.515,396.233 271.833,396.233 275.981,392.633 		"/>
	</g>
</g>
<g>
	<path fill="#266279" d="M70.059,115.341c-0.451-0.123-0.876-0.305-1.274-0.545s-0.747-0.537-1.046-0.893
		c-0.299-0.354-0.536-0.764-0.712-1.23c-0.176-0.465-0.264-0.988-0.264-1.568c0-0.615,0.123-1.191,0.369-1.727
		c0.246-0.537,0.595-1.004,1.046-1.402s0.996-0.712,1.635-0.94s1.351-0.343,2.136-0.343h6.012v2.417h-1.239v14.089h-2.575V109.11
		h-1.512v14.089h-2.575V115.341z"/>
</g>
<g>
	<path fill="#266279" d="M70.059,171.175c-0.451-0.123-0.876-0.305-1.274-0.545s-0.747-0.537-1.046-0.893
		c-0.299-0.354-0.536-0.764-0.712-1.23c-0.176-0.465-0.264-0.988-0.264-1.568c0-0.615,0.123-1.191,0.369-1.727
		c0.246-0.537,0.595-1.004,1.046-1.402s0.996-0.712,1.635-0.94s1.351-0.343,2.136-0.343h6.012v2.417h-1.239v14.089h-2.575v-14.089
		h-1.512v14.089h-2.575V171.175z"/>
</g>
<g>
	<path fill="#266279" d="M70.059,225.925c-0.451-0.123-0.876-0.305-1.274-0.545s-0.747-0.537-1.046-0.893
		c-0.299-0.354-0.536-0.764-0.712-1.23c-0.176-0.465-0.264-0.988-0.264-1.568c0-0.615,0.123-1.191,0.369-1.727
		c0.246-0.537,0.595-1.004,1.046-1.402s0.996-0.712,1.635-0.94s1.351-0.343,2.136-0.343h6.012v2.417h-1.239v14.089h-2.575v-14.089
		h-1.512v14.089h-2.575V225.925z"/>
</g>
<g>
	<path fill="#266279" d="M70.059,282.091c-0.451-0.123-0.876-0.305-1.274-0.545s-0.747-0.537-1.046-0.893
		c-0.299-0.354-0.536-0.764-0.712-1.23c-0.176-0.465-0.264-0.988-0.264-1.568c0-0.615,0.123-1.191,0.369-1.727
		c0.246-0.537,0.595-1.004,1.046-1.402s0.996-0.712,1.635-0.94s1.351-0.343,2.136-0.343h6.012v2.417h-1.239v14.089h-2.575V275.86
		h-1.512v14.089h-2.575V282.091z"/>
</g>
<g>
	<path fill="#266279" d="M70.059,337.842c-0.451-0.123-0.876-0.305-1.274-0.545s-0.747-0.537-1.046-0.893
		c-0.299-0.354-0.536-0.764-0.712-1.23c-0.176-0.465-0.264-0.988-0.264-1.568c0-0.615,0.123-1.191,0.369-1.727
		c0.246-0.537,0.595-1.004,1.046-1.402s0.996-0.712,1.635-0.94s1.351-0.343,2.136-0.343h6.012v2.417h-1.239V345.7h-2.575v-14.089
		h-1.512V345.7h-2.575V337.842z"/>
</g>
<g>
	<path fill="#266279" d="M70.059,393.509c-0.451-0.123-0.876-0.305-1.274-0.545s-0.747-0.537-1.046-0.893
		c-0.299-0.354-0.536-0.764-0.712-1.23c-0.176-0.465-0.264-0.988-0.264-1.568c0-0.615,0.123-1.191,0.369-1.727
		c0.246-0.537,0.595-1.004,1.046-1.402s0.996-0.712,1.635-0.94s1.351-0.343,2.136-0.343h6.012v2.417h-1.239v14.089h-2.575v-14.089
		h-1.512v14.089h-2.575V393.509z"/>
</g>
</svg>
