<?xml version="1.0" encoding="utf-8"?>
<!-- Generator: Adobe Illustrator 16.0.4, SVG Export Plug-In . SVG Version: 6.00 Build 0)  -->
<!DOCTYPE svg PUBLIC "-//W3C//DTD SVG 1.1//EN" "http://www.w3.org/Graphics/SVG/1.1/DTD/svg11.dtd">
<svg version="1.1" id="Layer_1" xmlns="http://www.w3.org/2000/svg" xmlns:xlink="http://www.w3.org/1999/xlink" x="0px" y="0px"
	 width="448.746px" height="616.439px" viewBox="0 0 448.746 616.439" enable-background="new 0 0 448.746 616.439"
	 xml:space="preserve">
<rect x="0.5" y="0.5" fill="#FFFFFF" stroke="#C68D06" stroke-miterlimit="10" width="447.746" height="615.439"/>
<g>
	<path fill="#C68D06" d="M356.169,575.868h-12.461v-1.855l11.796-17.781h3.046v17.432h4.375v2.205h-4.375v6.266h-2.381V575.868z
		 M356.169,573.663v-14.526H356.1l-9.592,14.526H356.169z"/>
	<path fill="#C68D06" d="M369.363,579.894h4.865v-20.967c-1.26,0.665-3.29,1.189-4.796,1.189v-2.205
		c1.995-0.07,3.78-0.594,4.936-1.68h2.311v23.663h4.41v2.24h-11.726V579.894z"/>
	<path fill="#C68D06" d="M389.208,556.231h8.681c5.776,0,8.996,2.45,8.996,7c0,4.201-2.45,6.301-6.195,7.001l6.546,11.901h-2.801
		l-6.336-11.621h-6.44v11.621h-2.45V556.231z M397.714,568.308c4.271,0,6.686-1.226,6.686-4.971c0-3.57-2.38-4.831-6.721-4.831
		h-6.021v9.802H397.714z"/>
</g>
<g>
	<rect x="79.987" y="171.876" fill="#C0DDE7" width="281.738" height="7.199"/>
</g>
<g>
	<rect x="79.987" y="185.79" fill="#C0DDE7" width="281.738" height="7.199"/>
</g>
<g>
	<rect x="79.987" y="199.703" fill="#C0DDE7" width="281.738" height="7.2"/>
</g>
<g>
	<rect x="79.987" y="213.618" fill="#C0DDE7" width="281.738" height="7.199"/>
</g>
<g>
	<rect x="79.987" y="227.531" fill="#C0DDE7" width="281.738" height="7.199"/>
</g>
<g>
	<rect x="79.987" y="241.445" fill="#C0DDE7" width="281.738" height="7.199"/>
</g>
<g>
	<rect x="79.987" y="255.358" fill="#C0DDE7" width="281.738" height="7.199"/>
</g>
<g>
	<rect x="79.987" y="269.272" fill="#C0DDE7" width="281.738" height="7.2"/>
</g>
<g>
	<rect x="79.987" y="283.186" fill="#C0DDE7" width="281.738" height="7.199"/>
</g>
<g>
	<rect x="79.987" y="297.1" fill="#C0DDE7" width="281.738" height="7.2"/>
</g>
<g>
	<rect x="79.987" y="311.013" fill="#C0DDE7" width="281.738" height="7.2"/>
</g>
<g>
	<rect x="79.987" y="324.927" fill="#C0DDE7" width="281.738" height="7.2"/>
</g>
<g>
	<rect x="79.987" y="338.841" fill="#C0DDE7" width="281.738" height="7.199"/>
</g>
<g>
	<rect x="79.987" y="352.754" fill="#C0DDE7" width="281.738" height="7.201"/>
</g>
<g>
	<rect x="79.987" y="366.668" fill="#C0DDE7" width="281.738" height="7.201"/>
</g>
<g>
	<rect x="79.987" y="380.583" fill="#C0DDE7" width="281.738" height="7.201"/>
</g>
<g>
	<rect x="79.987" y="394.497" fill="#C0DDE7" width="281.738" height="7.199"/>
</g>
<g>
	<rect x="79.987" y="408.41" fill="#C0DDE7" width="281.738" height="7.199"/>
</g>
<g>
	<rect x="79.987" y="422.324" fill="#C0DDE7" width="281.738" height="7.199"/>
</g>
<g>
	<rect x="79.987" y="436.238" fill="#C0DDE7" width="281.738" height="7.201"/>
</g>
<g>
	<rect x="79.987" y="450.152" fill="#C0DDE7" width="281.738" height="7.201"/>
</g>
<g>
	<rect x="79.987" y="464.065" fill="#C0DDE7" width="281.738" height="7.2"/>
</g>
<g>
	<rect x="79.987" y="477.98" fill="#C0DDE7" width="281.738" height="7.199"/>
</g>
<g>
	<rect x="79.987" y="491.894" fill="#C0DDE7" width="281.738" height="7.199"/>
</g>
<g>
	<rect x="79.987" y="74.479" fill="#C0DDE7" width="281.738" height="7.199"/>
</g>
<g>
	<rect x="79.987" y="88.393" fill="#C0DDE7" width="281.738" height="7.2"/>
</g>
<g>
	<rect x="79.987" y="157.961" fill="#C0DDE7" width="281.738" height="7.2"/>
</g>
<g>
	<rect x="79.987" y="102.306" fill="#C0DDE7" width="281.738" height="7.199"/>
</g>
<g>
	<rect x="79.987" y="116.22" fill="#C0DDE7" width="281.738" height="7.201"/>
</g>
<g>
	<rect x="79.987" y="130.134" fill="#C0DDE7" width="281.738" height="7.199"/>
</g>
<g>
	<rect x="79.987" y="144.049" fill="#C0DDE7" width="281.738" height="7.198"/>
</g>
<g>
	<path fill="#266279" d="M59.743,78.519h1.741V67.658h-1.741v-3.111l8.3,0.023c0.771,0,1.477,0.137,2.117,0.41
		c0.64,0.273,1.192,0.644,1.656,1.111c0.464,0.468,0.825,1.015,1.084,1.64c0.258,0.625,0.388,1.29,0.388,1.993
		c0,0.824-0.145,1.506-0.433,2.045c-0.288,0.539-0.698,0.973-1.229,1.303c0.561,0.359,1.005,0.802,1.33,1.33
		c0.326,0.529,0.488,1.17,0.488,1.926c0,0.771-0.133,1.479-0.398,2.123c-0.266,0.644-0.629,1.201-1.089,1.668
		c-0.461,0.467-1.005,0.831-1.634,1.089c-0.629,0.259-1.307,0.388-2.033,0.388h-8.547V78.519z M65.213,67.658v3.818h2.673
		c0.209,0,0.408-0.052,0.596-0.156c0.187-0.106,0.35-0.247,0.488-0.422c0.139-0.175,0.248-0.374,0.331-0.595
		c0.083-0.221,0.124-0.451,0.124-0.69c0-0.232-0.041-0.465-0.124-0.697c-0.083-0.231-0.192-0.441-0.331-0.629
		c-0.139-0.187-0.302-0.337-0.488-0.454c-0.188-0.117-0.387-0.175-0.596-0.175H65.213z M65.213,74.555v3.964h2.83
		c0.218,0,0.421-0.057,0.612-0.169c0.19-0.111,0.355-0.259,0.494-0.443c0.139-0.183,0.248-0.396,0.331-0.639
		s0.124-0.497,0.124-0.759c0-0.276-0.041-0.533-0.124-0.768c-0.083-0.237-0.194-0.443-0.337-0.618
		c-0.143-0.176-0.309-0.314-0.5-0.416c-0.19-0.102-0.391-0.151-0.601-0.151H65.213z"/>
</g>
<g>
	<g>
		<polygon fill="#266279" points="218.16,109.505 80.091,109.505 80.091,102.306 218.16,102.306 222.31,105.905 		"/>
	</g>
	<g>
		<polygon fill="#266279" points="223.552,102.306 361.621,102.306 361.621,109.505 223.552,109.505 227.7,105.905 		"/>
	</g>
</g>
<g>
	<g>
		<polygon fill="#266279" points="218.16,95.591 80.091,95.591 80.091,88.393 218.16,88.393 222.31,91.989 		"/>
	</g>
	<g>
		<polygon fill="#266279" points="223.552,88.393 361.621,88.393 361.621,95.591 223.552,95.591 227.7,91.989 		"/>
	</g>
</g>
<g>
	<g>
		<polygon fill="#266279" points="218.16,81.677 80.091,81.677 80.091,74.479 218.16,74.479 222.31,78.077 		"/>
	</g>
	<g>
		<polygon fill="#266279" points="223.552,74.479 361.621,74.479 361.621,81.677 223.552,81.677 227.7,78.077 		"/>
	</g>
</g>
<g>
	<g>
		<polygon fill="#266279" points="218.16,137.333 80.091,137.333 80.091,130.133 218.16,130.133 222.31,133.733 		"/>
	</g>
	<g>
		<polygon fill="#266279" points="223.552,130.133 361.621,130.133 361.621,137.333 223.552,137.333 227.7,133.733 		"/>
	</g>
</g>
<g>
	<g>
		<polygon fill="#266279" points="266.157,123.421 176.476,123.421 180.626,119.821 176.476,116.221 266.157,116.221 
			270.308,119.821 		"/>
	</g>
	<g>
		<polygon fill="#266279" points="169.669,123.421 79.987,123.421 79.987,116.221 169.669,116.221 173.817,119.821 		"/>
	</g>
	<g>
		<polygon fill="#266279" points="271.901,116.221 361.583,116.221 361.583,123.421 271.901,123.421 276.05,119.821 		"/>
	</g>
</g>
<g>
	<g>
		<polygon fill="#266279" points="218.493,193.325 80.424,193.325 80.424,186.125 218.493,186.125 222.642,189.724 		"/>
	</g>
	<g>
		<polygon fill="#266279" points="223.885,186.125 361.954,186.125 361.954,193.325 223.885,193.325 228.032,189.724 		"/>
	</g>
</g>
<g>
	<g>
		<polygon fill="#266279" points="218.493,220.817 80.424,220.817 80.424,213.618 218.493,213.618 222.642,217.215 		"/>
	</g>
	<g>
		<polygon fill="#266279" points="223.885,213.618 361.954,213.618 361.954,220.817 223.885,220.817 228.032,217.215 		"/>
	</g>
</g>
<g>
	<g>
		<polygon fill="#266279" points="218.493,179.075 80.424,179.075 80.424,171.876 218.493,171.876 222.642,175.474 		"/>
	</g>
	<g>
		<polygon fill="#266279" points="223.885,171.876 361.954,171.876 361.954,179.075 223.885,179.075 228.032,175.474 		"/>
	</g>
</g>
<g>
	<g>
		<polygon fill="#266279" points="218.493,165.161 80.424,165.161 80.424,157.961 218.493,157.961 222.642,161.561 		"/>
	</g>
	<g>
		<polygon fill="#266279" points="223.885,157.961 361.954,157.961 361.954,165.161 223.885,165.161 228.032,161.561 		"/>
	</g>
</g>
<g>
	<g>
		<polygon fill="#266279" points="218.493,151.248 80.424,151.248 80.424,144.049 218.493,144.049 222.642,147.647 		"/>
	</g>
	<g>
		<polygon fill="#266279" points="223.885,144.049 361.954,144.049 361.954,151.248 223.885,151.248 228.032,147.647 		"/>
	</g>
</g>
<g>
	<g>
		<polygon fill="#266279" points="218.16,262.561 80.091,262.561 80.091,255.361 218.16,255.361 222.31,258.959 		"/>
	</g>
	<g>
		<polygon fill="#266279" points="223.552,255.361 361.621,255.361 361.621,262.561 223.552,262.561 227.7,258.959 		"/>
	</g>
</g>
<g>
	<g>
		<polygon fill="#266279" points="218.16,248.644 80.091,248.644 80.091,241.445 218.16,241.445 222.31,245.043 		"/>
	</g>
	<g>
		<polygon fill="#266279" points="223.552,241.445 361.621,241.445 361.621,248.644 223.552,248.644 227.7,245.043 		"/>
	</g>
</g>
<g>
	<g>
		<polygon fill="#266279" points="218.16,234.73 80.091,234.73 80.091,227.532 218.16,227.532 222.31,231.129 		"/>
	</g>
	<g>
		<polygon fill="#266279" points="223.552,227.532 361.621,227.532 361.621,234.73 223.552,234.73 227.7,231.129 		"/>
	</g>
</g>
<g>
	<g>
		<polygon fill="#266279" points="266.157,206.902 176.476,206.902 180.626,203.302 176.476,199.703 266.157,199.703 
			270.308,203.302 		"/>
	</g>
	<g>
		<polygon fill="#266279" points="169.669,206.902 79.987,206.902 79.987,199.703 169.669,199.703 173.817,203.302 		"/>
	</g>
	<g>
		<polygon fill="#266279" points="271.901,199.703 361.583,199.703 361.583,206.902 271.901,206.902 276.05,203.302 		"/>
	</g>
</g>
<g>
	<g>
		<polygon fill="#266279" points="218.16,304.299 80.091,304.299 80.091,297.1 218.16,297.1 222.31,300.698 		"/>
	</g>
	<g>
		<polygon fill="#266279" points="223.552,297.1 361.621,297.1 361.621,304.299 223.552,304.299 227.7,300.698 		"/>
	</g>
</g>
<g>
	<g>
		<polygon fill="#266279" points="218.16,276.471 80.091,276.471 80.091,269.272 218.16,269.272 222.31,272.87 		"/>
	</g>
	<g>
		<polygon fill="#266279" points="223.552,269.272 361.621,269.272 361.621,276.471 223.552,276.471 227.7,272.87 		"/>
	</g>
</g>
<g>
	<g>
		<polygon fill="#266279" points="218.16,318.213 80.091,318.213 80.091,311.014 218.16,311.014 222.31,314.613 		"/>
	</g>
	<g>
		<polygon fill="#266279" points="223.552,311.014 361.621,311.014 361.621,318.213 223.552,318.213 227.7,314.613 		"/>
	</g>
</g>
<g>
	<g>
		<polygon fill="#266279" points="266.157,290.385 176.476,290.385 180.626,286.786 176.476,283.186 266.157,283.186 
			270.308,286.786 		"/>
	</g>
	<g>
		<polygon fill="#266279" points="169.669,290.385 79.987,290.385 79.987,283.186 169.669,283.186 173.817,286.786 		"/>
	</g>
	<g>
		<polygon fill="#266279" points="271.901,283.186 361.583,283.186 361.583,290.385 271.901,290.385 276.05,286.786 		"/>
	</g>
</g>
<g>
	<g>
		<polygon fill="#266279" points="218.16,346.041 80.091,346.041 80.091,338.841 218.16,338.841 222.31,342.44 		"/>
	</g>
	<g>
		<polygon fill="#266279" points="223.552,338.841 361.621,338.841 361.621,346.041 223.552,346.041 227.7,342.44 		"/>
	</g>
</g>
<g>
	<g>
		<polygon fill="#266279" points="218.16,332.126 80.091,332.126 80.091,324.927 218.16,324.927 222.31,328.525 		"/>
	</g>
	<g>
		<polygon fill="#266279" points="223.552,324.927 361.621,324.927 361.621,332.126 223.552,332.126 227.7,328.525 		"/>
	</g>
</g>
<g>
	<g>
		<polygon fill="#266279" points="218.16,359.955 80.091,359.955 80.091,352.754 218.16,352.754 222.31,356.354 		"/>
	</g>
	<g>
		<polygon fill="#266279" points="223.552,352.754 361.621,352.754 361.621,359.955 223.552,359.955 227.7,356.354 		"/>
	</g>
</g>
<g>
	<g>
		<polygon fill="#266279" points="266.157,373.868 176.476,373.868 180.626,370.268 176.476,366.668 266.157,366.668 
			270.308,370.268 		"/>
	</g>
	<g>
		<polygon fill="#266279" points="169.669,373.868 79.987,373.868 79.987,366.668 169.669,366.668 173.817,370.268 		"/>
	</g>
	<g>
		<polygon fill="#266279" points="271.901,366.668 361.583,366.668 361.583,373.868 271.901,373.868 276.05,370.268 		"/>
	</g>
</g>
<g>
	<g>
		<polygon fill="#266279" points="218.16,429.525 80.091,429.525 80.091,422.324 218.16,422.324 222.31,425.924 		"/>
	</g>
	<g>
		<polygon fill="#266279" points="223.552,422.324 361.621,422.324 361.621,429.525 223.552,429.525 227.7,425.924 		"/>
	</g>
</g>
<g>
	<g>
		<polygon fill="#266279" points="218.16,499.093 80.091,499.093 80.091,491.894 218.16,491.894 222.31,495.493 		"/>
	</g>
	<g>
		<polygon fill="#266279" points="223.552,491.894 361.621,491.894 361.621,499.093 223.552,499.093 227.7,495.493 		"/>
	</g>
</g>
<g>
	<g>
		<polygon fill="#266279" points="218.16,471.266 80.091,471.266 80.091,464.065 218.16,464.065 222.31,467.665 		"/>
	</g>
	<g>
		<polygon fill="#266279" points="223.552,464.065 361.621,464.065 361.621,471.266 223.552,471.266 227.7,467.665 		"/>
	</g>
</g>
<g>
	<g>
		<polygon fill="#266279" points="218.16,443.438 80.091,443.438 80.091,436.238 218.16,436.238 222.31,439.837 		"/>
	</g>
	<g>
		<polygon fill="#266279" points="223.552,436.238 361.621,436.238 361.621,443.438 223.552,443.438 227.7,439.837 		"/>
	</g>
</g>
<g>
	<g>
		<polygon fill="#266279" points="218.16,485.18 80.091,485.18 80.091,477.979 218.16,477.979 222.31,481.578 		"/>
	</g>
	<g>
		<polygon fill="#266279" points="223.552,477.979 361.621,477.979 361.621,485.18 223.552,485.18 227.7,481.578 		"/>
	</g>
</g>
<g>
	<g>
		<polygon fill="#266279" points="218.16,415.611 80.091,415.611 80.091,408.411 218.16,408.411 222.31,412.01 		"/>
	</g>
	<g>
		<polygon fill="#266279" points="223.552,408.411 361.621,408.411 361.621,415.611 223.552,415.611 227.7,412.01 		"/>
	</g>
</g>
<g>
	<g>
		<polygon fill="#266279" points="218.16,387.784 80.091,387.784 80.091,380.583 218.16,380.583 222.31,384.182 		"/>
	</g>
	<g>
		<polygon fill="#266279" points="223.552,380.583 361.621,380.583 361.621,387.784 223.552,387.784 227.7,384.182 		"/>
	</g>
</g>
<g>
	<g>
		<polygon fill="#266279" points="218.16,401.696 80.091,401.696 80.091,394.496 218.16,394.496 222.31,398.096 		"/>
	</g>
	<g>
		<polygon fill="#266279" points="223.552,394.496 361.621,394.496 361.621,401.696 223.552,401.696 227.7,398.096 		"/>
	</g>
</g>
<g>
	<g>
		<polygon fill="#266279" points="266.157,457.352 176.476,457.352 180.626,453.752 176.476,450.151 266.157,450.151 
			270.308,453.752 		"/>
	</g>
	<g>
		<polygon fill="#266279" points="169.669,457.352 79.987,457.352 79.987,450.151 169.669,450.151 173.817,453.752 		"/>
	</g>
	<g>
		<polygon fill="#266279" points="271.901,450.151 361.583,450.151 361.583,457.352 271.901,457.352 276.05,453.752 		"/>
	</g>
</g>
<g>
	<path fill="#266279" d="M70.127,162.219c-0.451-0.124-0.876-0.305-1.274-0.545c-0.398-0.241-0.747-0.538-1.046-0.893
		c-0.299-0.354-0.536-0.764-0.712-1.23c-0.176-0.466-0.264-0.989-0.264-1.569c0-0.615,0.123-1.191,0.369-1.727
		c0.246-0.536,0.595-1.003,1.046-1.402s0.996-0.712,1.635-0.94c0.639-0.229,1.351-0.343,2.136-0.343h6.012v2.417h-1.239v14.089
		h-2.575v-14.089h-1.512v14.089h-2.575V162.219z"/>
</g>
<g>
	<path fill="#266279" d="M70.127,245.303c-0.451-0.124-0.876-0.305-1.274-0.545c-0.398-0.241-0.747-0.538-1.046-0.893
		c-0.299-0.354-0.536-0.764-0.712-1.23c-0.176-0.466-0.264-0.988-0.264-1.569c0-0.615,0.123-1.191,0.369-1.727
		c0.246-0.537,0.595-1.004,1.046-1.402c0.451-0.398,0.996-0.712,1.635-0.94c0.639-0.229,1.351-0.343,2.136-0.343h6.012v2.417h-1.239
		v14.089h-2.575v-14.089h-1.512v14.089h-2.575V245.303z"/>
</g>
<g>
	<path fill="#266279" d="M70.127,329.551c-0.451-0.124-0.876-0.305-1.274-0.546c-0.398-0.24-0.747-0.536-1.046-0.892
		c-0.299-0.354-0.536-0.763-0.712-1.23c-0.176-0.465-0.264-0.989-0.264-1.569c0-0.615,0.123-1.191,0.369-1.727
		c0.246-0.536,0.595-1.003,1.046-1.402c0.451-0.398,0.996-0.712,1.635-0.94c0.639-0.229,1.351-0.343,2.136-0.343h6.012v2.417h-1.239
		v14.089h-2.575v-14.089h-1.512v14.089h-2.575V329.551z"/>
</g>
<g>
	<path fill="#266279" d="M70.127,412.887c-0.451-0.124-0.876-0.305-1.274-0.545c-0.398-0.24-0.747-0.537-1.046-0.892
		c-0.299-0.354-0.536-0.764-0.712-1.23c-0.176-0.466-0.264-0.989-0.264-1.568c0-0.615,0.123-1.192,0.369-1.727
		c0.246-0.537,0.595-1.004,1.046-1.402c0.451-0.398,0.996-0.711,1.635-0.94c0.639-0.229,1.351-0.343,2.136-0.343h6.012v2.417h-1.239
		v14.089h-2.575v-14.089h-1.512v14.089h-2.575V412.887z"/>
</g>
<g>
	<path fill="#266279" d="M70.127,495.553c-0.451-0.123-0.876-0.305-1.274-0.545c-0.398-0.24-0.747-0.537-1.046-0.893
		c-0.299-0.354-0.536-0.763-0.712-1.23c-0.176-0.466-0.264-0.989-0.264-1.568c0-0.615,0.123-1.192,0.369-1.727
		c0.246-0.537,0.595-1.004,1.046-1.402c0.451-0.398,0.996-0.712,1.635-0.941c0.639-0.229,1.351-0.342,2.136-0.342h6.012v2.417
		h-1.239v14.089h-2.575v-14.089h-1.512v14.089h-2.575V495.553z"/>
</g>
</svg>
