<?xml version="1.0" encoding="utf-8"?>
<!-- Generator: Adobe Illustrator 16.0.4, SVG Export Plug-In . SVG Version: 6.00 Build 0)  -->
<!DOCTYPE svg PUBLIC "-//W3C//DTD SVG 1.1//EN" "http://www.w3.org/Graphics/SVG/1.1/DTD/svg11.dtd">
<svg version="1.1" id="Layer_1" xmlns="http://www.w3.org/2000/svg" xmlns:xlink="http://www.w3.org/1999/xlink" x="0px" y="0px"
	 width="448.747px" height="616.439px" viewBox="0 0 448.747 616.439" enable-background="new 0 0 448.747 616.439"
	 xml:space="preserve">
<rect x="1" y="1" fill="#FFFFFF" stroke="#C68D06" stroke-miterlimit="10" width="447.747" height="615.439"/>
<g>
	<path fill="#C68D06" d="M357.138,574.368h-12.461v-1.855l11.796-17.781h3.046v17.432h4.375v2.205h-4.375v6.266h-2.381V574.368z
		 M357.138,572.163v-14.526h-0.069l-9.592,14.526H357.138z"/>
	<path fill="#C68D06" d="M370.332,578.394h4.865v-20.967c-1.26,0.665-3.29,1.189-4.796,1.189v-2.205
		c1.995-0.07,3.78-0.595,4.936-1.68h2.311v23.663h4.41v2.24h-11.726V578.394z"/>
	<path fill="#C68D06" d="M388.111,554.731h2.556l7.735,22.612h0.07l7.771-22.612h2.416l-9.102,26.008h-2.345L388.111,554.731z"/>
</g>
<g>
	<rect x="79.717" y="156.466" fill="#C0DDE7" width="281.738" height="7.199"/>
</g>
<g>
	<rect x="79.717" y="170.379" fill="#C0DDE7" width="281.738" height="7.2"/>
</g>
<g>
	<rect x="79.717" y="184.293" fill="#C0DDE7" width="281.738" height="7.2"/>
</g>
<g>
	<rect x="79.717" y="198.208" fill="#C0DDE7" width="281.738" height="7.199"/>
</g>
<g>
	<rect x="79.717" y="212.122" fill="#C0DDE7" width="281.738" height="7.199"/>
</g>
<g>
	<rect x="79.717" y="226.035" fill="#C0DDE7" width="281.738" height="7.199"/>
</g>
<g>
	<rect x="79.717" y="239.949" fill="#C0DDE7" width="281.738" height="7.199"/>
</g>
<g>
	<rect x="79.717" y="253.862" fill="#C0DDE7" width="281.738" height="7.2"/>
</g>
<g>
	<rect x="79.717" y="267.776" fill="#C0DDE7" width="281.738" height="7.199"/>
</g>
<g>
	<rect x="79.717" y="281.69" fill="#C0DDE7" width="281.738" height="7.2"/>
</g>
<g>
	<rect x="79.717" y="295.604" fill="#C0DDE7" width="281.738" height="7.2"/>
</g>
<g>
	<rect x="79.717" y="309.518" fill="#C0DDE7" width="281.738" height="7.2"/>
</g>
<g>
	<rect x="79.717" y="323.432" fill="#C0DDE7" width="281.738" height="7.199"/>
</g>
<g>
	<rect x="79.717" y="337.345" fill="#C0DDE7" width="281.738" height="7.2"/>
</g>
<g>
	<rect x="79.717" y="351.259" fill="#C0DDE7" width="281.738" height="7.201"/>
</g>
<g>
	<rect x="79.717" y="365.173" fill="#C0DDE7" width="281.738" height="7.2"/>
</g>
<g>
	<rect x="79.717" y="379.087" fill="#C0DDE7" width="281.738" height="7.199"/>
</g>
<g>
	<rect x="79.717" y="393.001" fill="#C0DDE7" width="281.738" height="7.199"/>
</g>
<g>
	<rect x="79.717" y="406.915" fill="#C0DDE7" width="281.738" height="7.199"/>
</g>
<g>
	<rect x="79.717" y="420.828" fill="#C0DDE7" width="281.738" height="7.2"/>
</g>
<g>
	<rect x="79.717" y="434.742" fill="#C0DDE7" width="281.738" height="7.201"/>
</g>
<g>
	<rect x="79.717" y="448.656" fill="#C0DDE7" width="281.738" height="7.2"/>
</g>
<g>
	<rect x="79.717" y="462.57" fill="#C0DDE7" width="281.738" height="7.199"/>
</g>
<g>
	<rect x="79.717" y="476.483" fill="#C0DDE7" width="281.738" height="7.201"/>
</g>
<g>
	<rect x="79.717" y="59.068" fill="#C0DDE7" width="281.738" height="7.2"/>
</g>
<g>
	<rect x="79.717" y="72.982" fill="#C0DDE7" width="281.738" height="7.201"/>
</g>
<g>
	<rect x="79.717" y="142.552" fill="#C0DDE7" width="281.738" height="7.2"/>
</g>
<g>
	<rect x="79.717" y="86.896" fill="#C0DDE7" width="281.738" height="7.199"/>
</g>
<g>
	<rect x="79.717" y="100.81" fill="#C0DDE7" width="281.738" height="7.201"/>
</g>
<g>
	<rect x="79.717" y="114.724" fill="#C0DDE7" width="281.738" height="7.199"/>
</g>
<g>
	<rect x="79.717" y="128.639" fill="#C0DDE7" width="281.738" height="7.198"/>
</g>
<g>
	<g>
		<path fill="#266279" d="M58.146,258.179h9.007c0.876,0,1.658,0.131,2.348,0.392c0.688,0.263,1.269,0.613,1.74,1.051
			s0.833,0.947,1.084,1.527c0.25,0.58,0.376,1.185,0.376,1.813c0,0.577-0.062,1.082-0.185,1.518
			c-0.125,0.434-0.305,0.819-0.539,1.156c-0.236,0.337-0.527,0.635-0.871,0.893s-0.737,0.492-1.18,0.702
			c0.383,0.195,0.719,0.493,1.012,0.893c0.291,0.4,0.512,0.919,0.662,1.556l0.572,2.213h1.404l0.022,3.312h-4.941l-0.674-4.042
			c-0.067-0.48-0.171-0.893-0.31-1.242c-0.138-0.347-0.323-0.632-0.555-0.853c-0.232-0.221-0.516-0.384-0.848-0.488
			c-0.334-0.104-0.729-0.157-1.186-0.157h-1.449v3.706h1.562v3.077h-7.053v-3.077h1.763v-10.86h-1.763V258.179z M63.637,261.266
			v4.122h2.235c0.427,0,0.811-0.039,1.151-0.118c0.34-0.078,0.633-0.202,0.875-0.37c0.244-0.169,0.432-0.38,0.562-0.635
			c0.131-0.254,0.196-0.558,0.196-0.909c0-0.659-0.235-1.172-0.708-1.539c-0.471-0.367-1.164-0.551-2.077-0.551H63.637z"/>
	</g>
	<g>
		<g>
			<g>
				<polygon fill="#266279" points="217.994,274.978 79.924,274.978 79.924,267.778 217.994,267.778 222.143,271.378 				"/>
			</g>
			<g>
				<polygon fill="#266279" points="223.385,267.778 361.455,267.778 361.455,274.978 223.385,274.978 227.533,271.378 				"/>
			</g>
		</g>
		<g>
			<g>
				<polygon fill="#266279" points="217.994,288.892 79.924,288.892 79.924,281.692 217.994,281.692 222.143,285.292 				"/>
			</g>
			<g>
				<polygon fill="#266279" points="223.385,281.692 361.455,281.692 361.455,288.892 223.385,288.892 227.533,285.292 				"/>
			</g>
		</g>
		<g>
			<g>
				<polygon fill="#266279" points="217.994,358.46 79.924,358.46 79.924,351.261 217.994,351.261 222.143,354.86 				"/>
			</g>
			<g>
				<polygon fill="#266279" points="223.385,351.261 361.455,351.261 361.455,358.46 223.385,358.46 227.533,354.86 				"/>
			</g>
		</g>
		<g>
			<g>
				<polygon fill="#266279" points="217.994,302.805 79.924,302.805 79.924,295.606 217.994,295.606 222.143,299.206 				"/>
			</g>
			<g>
				<polygon fill="#266279" points="223.385,295.606 361.455,295.606 361.455,302.805 223.385,302.805 227.533,299.206 				"/>
			</g>
		</g>
		<g>
			<g>
				<polygon fill="#266279" points="217.994,316.72 79.924,316.72 79.924,309.521 217.994,309.521 222.143,313.119 				"/>
			</g>
			<g>
				<polygon fill="#266279" points="223.385,309.521 361.455,309.521 361.455,316.72 223.385,316.72 227.533,313.119 				"/>
			</g>
		</g>
		<g>
			<g>
				<polygon fill="#266279" points="217.994,330.633 79.924,330.633 79.924,323.434 217.994,323.434 222.143,327.032 				"/>
			</g>
			<g>
				<polygon fill="#266279" points="223.385,323.434 361.455,323.434 361.455,330.633 223.385,330.633 227.533,327.032 				"/>
			</g>
		</g>
		<g>
			<g>
				<polygon fill="#266279" points="217.994,344.547 79.924,344.547 79.924,337.347 217.994,337.347 222.143,340.947 				"/>
			</g>
			<g>
				<polygon fill="#266279" points="223.385,337.347 361.455,337.347 361.455,344.547 223.385,344.547 227.533,340.947 				"/>
			</g>
		</g>
	</g>
</g>
<g>
	<g>
		<polygon fill="#266279" points="217.994,386.287 79.924,386.287 79.924,379.087 217.994,379.087 222.143,382.688 		"/>
	</g>
	<g>
		<polygon fill="#266279" points="223.385,379.087 361.455,379.087 361.455,386.287 223.385,386.287 227.533,382.688 		"/>
	</g>
</g>
<g>
	<g>
		<polygon fill="#266279" points="217.994,469.769 79.924,469.769 79.924,462.57 217.994,462.57 222.143,466.17 		"/>
	</g>
	<g>
		<polygon fill="#266279" points="223.385,462.57 361.455,462.57 361.455,469.769 223.385,469.769 227.533,466.17 		"/>
	</g>
</g>
<g>
	<g>
		<polygon fill="#266279" points="217.994,414.115 79.924,414.115 79.924,406.916 217.994,406.916 222.143,410.515 		"/>
	</g>
	<g>
		<polygon fill="#266279" points="223.385,406.916 361.455,406.916 361.455,414.115 223.385,414.115 227.533,410.515 		"/>
	</g>
</g>
<g>
	<g>
		<polygon fill="#266279" points="217.994,400.2 79.924,400.2 79.924,393 217.994,393 222.143,396.599 		"/>
	</g>
	<g>
		<polygon fill="#266279" points="223.385,393 361.455,393 361.455,400.2 223.385,400.2 227.533,396.599 		"/>
	</g>
</g>
<g>
	<g>
		<polygon fill="#266279" points="217.994,428.029 79.924,428.029 79.924,420.83 217.994,420.83 222.143,424.428 		"/>
	</g>
	<g>
		<polygon fill="#266279" points="223.385,420.83 361.455,420.83 361.455,428.029 223.385,428.029 227.533,424.428 		"/>
	</g>
</g>
<g>
	<g>
		<polygon fill="#266279" points="217.994,441.942 79.924,441.942 79.924,434.743 217.994,434.743 222.143,438.342 		"/>
	</g>
	<g>
		<polygon fill="#266279" points="223.385,434.743 361.455,434.743 361.455,441.942 223.385,441.942 227.533,438.342 		"/>
	</g>
</g>
<g>
	<g>
		<polygon fill="#266279" points="217.994,455.856 79.924,455.856 79.924,448.656 217.994,448.656 222.143,452.255 		"/>
	</g>
	<g>
		<polygon fill="#266279" points="223.385,448.656 361.455,448.656 361.455,455.856 223.385,455.856 227.533,452.255 		"/>
	</g>
</g>
<g>
	<path fill="#266279" d="M66.128,368.441h7.288v3.077h-1.797v10.871h1.797v3.078h-7.288v-3.078h1.763v-10.871h-1.763V368.441z"/>
</g>
<g>
	<g>
		<polygon fill="#266279" points="217.994,80.181 79.924,80.181 79.924,72.98 217.994,72.98 222.143,76.58 		"/>
	</g>
	<g>
		<polygon fill="#266279" points="223.385,72.98 361.455,72.98 361.455,80.181 223.385,80.181 227.533,76.58 		"/>
	</g>
</g>
<g>
	<g>
		<polygon fill="#266279" points="217.994,66.269 79.924,66.269 79.924,59.068 217.994,59.068 222.143,62.668 		"/>
	</g>
	<g>
		<polygon fill="#266279" points="223.385,59.068 361.455,59.068 361.455,66.269 223.385,66.269 227.533,62.668 		"/>
	</g>
</g>
<g>
	<g>
		<polygon fill="#266279" points="217.994,108.011 79.924,108.011 79.924,100.811 217.994,100.811 222.143,104.41 		"/>
	</g>
	<g>
		<polygon fill="#266279" points="223.385,100.811 361.455,100.811 361.455,108.011 223.385,108.011 227.533,104.41 		"/>
	</g>
</g>
<g>
	<g>
		<polygon fill="#266279" points="217.994,121.923 79.924,121.923 79.924,114.723 217.994,114.723 222.143,118.323 		"/>
	</g>
	<g>
		<polygon fill="#266279" points="223.385,114.723 361.455,114.723 361.455,121.923 223.385,121.923 227.533,118.323 		"/>
	</g>
</g>
<g>
	<g>
		<polygon fill="#266279" points="217.994,135.837 79.924,135.837 79.924,128.637 217.994,128.637 222.143,132.236 		"/>
	</g>
	<g>
		<polygon fill="#266279" points="223.385,128.637 361.455,128.637 361.455,135.837 223.385,135.837 227.533,132.236 		"/>
	</g>
</g>
<g>
	<g>
		<polygon fill="#266279" points="217.994,163.665 79.924,163.665 79.924,156.465 217.994,156.465 222.143,160.064 		"/>
	</g>
	<g>
		<polygon fill="#266279" points="223.385,156.465 361.455,156.465 361.455,163.665 223.385,163.665 227.533,160.064 		"/>
	</g>
</g>
<g>
	<g>
		<polygon fill="#266279" points="217.994,205.407 79.924,205.407 79.924,198.207 217.994,198.207 222.143,201.806 		"/>
	</g>
	<g>
		<polygon fill="#266279" points="223.385,198.207 361.455,198.207 361.455,205.407 223.385,205.407 227.533,201.806 		"/>
	</g>
</g>
<g>
	<g>
		<polygon fill="#266279" points="217.994,247.148 79.924,247.148 79.924,239.948 217.994,239.948 222.143,243.547 		"/>
	</g>
	<g>
		<polygon fill="#266279" points="223.385,239.948 361.455,239.948 361.455,247.148 223.385,247.148 227.533,243.547 		"/>
	</g>
</g>
<g>
	<g>
		<polygon fill="#266279" points="217.994,233.234 79.924,233.234 79.924,226.035 217.994,226.035 222.143,229.634 		"/>
	</g>
	<g>
		<polygon fill="#266279" points="223.385,226.035 361.455,226.035 361.455,233.234 223.385,233.234 227.533,229.634 		"/>
	</g>
</g>
<g>
	<g>
		<polygon fill="#266279" points="217.994,191.493 79.924,191.493 79.924,184.293 217.994,184.293 222.143,187.894 		"/>
	</g>
	<g>
		<polygon fill="#266279" points="223.385,184.293 361.455,184.293 361.455,191.493 223.385,191.493 227.533,187.894 		"/>
	</g>
</g>
<g>
	<g>
		<polygon fill="#266279" points="217.994,149.752 79.924,149.752 79.924,142.552 217.994,142.552 222.143,146.151 		"/>
	</g>
	<g>
		<polygon fill="#266279" points="223.385,142.552 361.455,142.552 361.455,149.752 223.385,149.752 227.533,146.151 		"/>
	</g>
</g>
<g>
	<g>
		<polygon fill="#266279" points="265.99,94.096 176.309,94.096 180.459,90.496 176.309,86.896 265.99,86.896 270.141,90.496 		"/>
	</g>
	<g>
		<polygon fill="#266279" points="169.502,94.096 79.82,94.096 79.82,86.896 169.502,86.896 173.65,90.496 		"/>
	</g>
	<g>
		<polygon fill="#266279" points="271.734,86.896 361.416,86.896 361.416,94.096 271.734,94.096 275.883,90.496 		"/>
	</g>
</g>
<g>
	<g>
		<polygon fill="#266279" points="265.99,177.579 176.309,177.579 180.459,173.979 176.309,170.379 265.99,170.379 270.141,173.979 
					"/>
	</g>
	<g>
		<polygon fill="#266279" points="169.502,177.579 79.82,177.579 79.82,170.379 169.502,170.379 173.65,173.979 		"/>
	</g>
	<g>
		<polygon fill="#266279" points="271.734,170.379 361.416,170.379 361.416,177.579 271.734,177.579 275.883,173.979 		"/>
	</g>
</g>
<g>
	<g>
		<polygon fill="#266279" points="265.99,219.321 176.309,219.321 180.459,215.721 176.309,212.122 265.99,212.122 270.141,215.721 
					"/>
	</g>
	<g>
		<polygon fill="#266279" points="169.502,219.321 79.82,219.321 79.82,212.122 169.502,212.122 173.65,215.721 		"/>
	</g>
	<g>
		<polygon fill="#266279" points="271.734,212.122 361.416,212.122 361.416,219.321 271.734,219.321 275.883,215.721 		"/>
	</g>
</g>
<g>
	<path fill="#266279" d="M69.961,132.316c-0.451-0.124-0.876-0.305-1.274-0.545c-0.398-0.241-0.747-0.537-1.046-0.894
		c-0.299-0.353-0.536-0.763-0.712-1.23c-0.176-0.464-0.264-0.988-0.264-1.568c0-0.615,0.123-1.191,0.369-1.727
		c0.246-0.537,0.595-1.004,1.046-1.402c0.451-0.399,0.996-0.712,1.635-0.94c0.639-0.229,1.351-0.343,2.136-0.343h6.012v2.417h-1.239
		v14.089h-2.575v-14.089h-1.512v14.089h-2.575V132.316z"/>
</g>
<g>
	<path fill="#266279" d="M69.961,216.566c-0.451-0.124-0.876-0.305-1.274-0.545s-0.747-0.537-1.046-0.893
		c-0.299-0.353-0.536-0.763-0.712-1.23c-0.176-0.464-0.264-0.988-0.264-1.568c0-0.615,0.123-1.191,0.369-1.726
		c0.246-0.537,0.595-1.004,1.046-1.402c0.451-0.398,0.996-0.712,1.635-0.941s1.351-0.342,2.136-0.342h6.012v2.417h-1.239v14.089
		h-2.575v-14.089h-1.512v14.089h-2.575V216.566z"/>
</g>
</svg>
