<?xml version="1.0" encoding="utf-8"?>
<!-- Generator: Adobe Illustrator 16.0.4, SVG Export Plug-In . SVG Version: 6.00 Build 0)  -->
<!DOCTYPE svg PUBLIC "-//W3C//DTD SVG 1.1//EN" "http://www.w3.org/Graphics/SVG/1.1/DTD/svg11.dtd">
<svg version="1.1" id="Layer_1" xmlns="http://www.w3.org/2000/svg" xmlns:xlink="http://www.w3.org/1999/xlink" x="0px" y="0px"
	 width="448.746px" height="616.439px" viewBox="0 0 448.746 616.439" enable-background="new 0 0 448.746 616.439"
	 xml:space="preserve">
<rect x="0.5" y="0.5" fill="#FFFFFF" stroke="#C68D06" stroke-miterlimit="10" width="447.747" height="615.439"/>
<g>
	<path fill="#C68D06" d="M351.213,576.118h-12.461v-1.855l11.796-17.781h3.046v17.432h4.375v2.205h-4.375v6.266h-2.381V576.118z
		 M351.213,573.913v-14.526h-0.069l-9.592,14.526H351.213z"/>
	<path fill="#C68D06" d="M363.986,581.823c0-3.745,1.855-7.175,8.682-11.551c3.885-2.485,5.46-4.235,5.46-7.036
		c0-3.045-1.89-5.04-5.285-5.04c-2.835,0-4.9,1.47-6.44,4.481l-1.961-1.155c1.82-3.5,4.691-5.531,8.506-5.531
		c4.691,0,7.597,2.94,7.597,7.106c0,3.535-1.716,5.775-6.687,8.925c-4.69,2.976-6.965,5.775-7.141,8.122h13.932v2.24h-16.662
		V581.823z"/>
	<path fill="#C68D06" d="M387.611,556.481h2.556l7.735,22.612h0.07l7.771-22.612h2.416l-9.102,26.008h-2.345L387.611,556.481z"/>
</g>
<g>
	<rect x="79.215" y="163.935" fill="#C0DDE7" width="281.74" height="7.199"/>
</g>
<g>
	<rect x="79.217" y="177.848" fill="#C0DDE7" width="281.738" height="7.199"/>
</g>
<g>
	<rect x="79.215" y="191.761" fill="#C0DDE7" width="281.74" height="7.2"/>
</g>
<g>
	<rect x="79.215" y="205.676" fill="#C0DDE7" width="281.74" height="7.199"/>
</g>
<g>
	<rect x="79.215" y="219.59" fill="#C0DDE7" width="281.74" height="7.199"/>
</g>
<g>
	<rect x="79.215" y="233.502" fill="#C0DDE7" width="281.74" height="7.201"/>
</g>
<g>
	<rect x="79.217" y="247.417" fill="#C0DDE7" width="281.738" height="7.199"/>
</g>
<g>
	<rect x="79.217" y="261.33" fill="#C0DDE7" width="281.738" height="7.201"/>
</g>
<g>
	<rect x="79.215" y="275.245" fill="#C0DDE7" width="281.74" height="7.199"/>
</g>
<g>
	<rect x="79.217" y="289.158" fill="#C0DDE7" width="281.738" height="7.2"/>
</g>
<g>
	<rect x="79.215" y="303.072" fill="#C0DDE7" width="281.74" height="7.2"/>
</g>
<g>
	<rect x="79.215" y="316.987" fill="#C0DDE7" width="281.74" height="7.2"/>
</g>
<g>
	<rect x="79.215" y="330.9" fill="#C0DDE7" width="281.74" height="7.199"/>
</g>
<g>
	<rect x="79.217" y="344.814" fill="#C0DDE7" width="281.738" height="7.199"/>
</g>
<g>
	<rect x="79.215" y="358.728" fill="#C0DDE7" width="281.74" height="7.2"/>
</g>
<g>
	<rect x="79.215" y="372.642" fill="#C0DDE7" width="281.74" height="7.2"/>
</g>
<g>
	<rect x="79.215" y="386.556" fill="#C0DDE7" width="281.74" height="7.199"/>
</g>
<g>
	<rect x="79.215" y="400.47" fill="#C0DDE7" width="281.74" height="7.199"/>
</g>
<g>
	<rect x="79.217" y="414.383" fill="#C0DDE7" width="281.738" height="7.199"/>
</g>
<g>
	<rect x="79.215" y="428.297" fill="#C0DDE7" width="281.74" height="7.2"/>
</g>
<g>
	<rect x="79.217" y="442.211" fill="#C0DDE7" width="281.738" height="7.2"/>
</g>
<g>
	<rect x="79.215" y="456.125" fill="#C0DDE7" width="281.74" height="7.199"/>
</g>
<g>
	<rect x="79.217" y="470.038" fill="#C0DDE7" width="281.738" height="7.199"/>
</g>
<g>
	<rect x="79.215" y="483.952" fill="#C0DDE7" width="281.74" height="7.2"/>
</g>
<g>
	<rect x="79.215" y="66.537" fill="#C0DDE7" width="281.74" height="7.2"/>
</g>
<g>
	<rect x="79.217" y="80.452" fill="#C0DDE7" width="281.738" height="7.2"/>
</g>
<g>
	<rect x="79.217" y="150.021" fill="#C0DDE7" width="281.738" height="7.199"/>
</g>
<g>
	<rect x="79.215" y="94.365" fill="#C0DDE7" width="281.74" height="7.199"/>
</g>
<g>
	<rect x="79.217" y="108.279" fill="#C0DDE7" width="281.738" height="7.2"/>
</g>
<g>
	<rect x="79.217" y="122.193" fill="#C0DDE7" width="281.738" height="7.199"/>
</g>
<g>
	<rect x="79.217" y="136.106" fill="#C0DDE7" width="281.738" height="7.199"/>
</g>
<g>
	<g>
		<g>
			<g>
				<polygon fill="#266279" points="217.391,393.755 79.32,393.755 79.32,386.556 217.391,386.556 221.537,390.155 				"/>
			</g>
			<g>
				<polygon fill="#266279" points="222.781,386.556 360.852,386.556 360.852,393.755 222.781,393.755 226.928,390.155 				"/>
			</g>
		</g>
		<g>
			<g>
				<polygon fill="#266279" points="217.391,407.668 79.32,407.668 79.32,400.47 217.391,400.47 221.537,404.069 				"/>
			</g>
			<g>
				<polygon fill="#266279" points="222.781,400.47 360.852,400.47 360.852,407.668 222.781,407.668 226.928,404.069 				"/>
			</g>
		</g>
		<g>
			<g>
				<polygon fill="#266279" points="217.391,477.237 79.32,477.237 79.32,470.038 217.391,470.038 221.537,473.638 				"/>
			</g>
			<g>
				<polygon fill="#266279" points="222.781,470.038 360.852,470.038 360.852,477.237 222.781,477.237 226.928,473.638 				"/>
			</g>
		</g>
		<g>
			<g>
				<polygon fill="#266279" points="217.391,421.582 79.32,421.582 79.32,414.383 217.391,414.383 221.537,417.982 				"/>
			</g>
			<g>
				<polygon fill="#266279" points="222.781,414.383 360.852,414.383 360.852,421.582 222.781,421.582 226.928,417.982 				"/>
			</g>
		</g>
		<g>
			<g>
				<polygon fill="#266279" points="217.391,435.496 79.32,435.496 79.32,428.297 217.391,428.297 221.537,431.896 				"/>
			</g>
			<g>
				<polygon fill="#266279" points="222.781,428.297 360.852,428.297 360.852,435.496 222.781,435.496 226.928,431.896 				"/>
			</g>
		</g>
		<g>
			<g>
				<polygon fill="#266279" points="217.391,449.41 79.32,449.41 79.32,442.209 217.391,442.209 221.537,445.809 				"/>
			</g>
			<g>
				<polygon fill="#266279" points="222.781,442.209 360.852,442.209 360.852,449.41 222.781,449.41 226.928,445.809 				"/>
			</g>
		</g>
		<g>
			<g>
				<polygon fill="#266279" points="217.391,463.323 79.32,463.323 79.32,456.123 217.391,456.123 221.537,459.723 				"/>
			</g>
			<g>
				<polygon fill="#266279" points="222.781,456.123 360.852,456.123 360.852,463.323 222.781,463.323 226.928,459.723 				"/>
			</g>
		</g>
	</g>
	<g>
		<path fill="#266279" d="M65.521,378.218h7.289v3.077h-1.797v10.872h1.797v3.078h-7.289v-3.078h1.764v-10.872h-1.764V378.218z"/>
	</g>
</g>
<g>
	<g>
		<path fill="#266279" d="M66.633,69.922h1.696l-0.764-2.448h-5.233l-0.764,2.448h1.797v3.077h-6.457v-3.077h1.269l4.638-13.948
			h4.504l4.537,13.948h1.235v3.077h-6.458V69.922z M63.219,64.599h3.438l-1.73-5.537L63.219,64.599z"/>
	</g>
	<g>
		<path fill="#266279" d="M218.727,98.395c-0.451-0.123-0.875-0.305-1.273-0.545s-0.748-0.537-1.047-0.893
			c-0.299-0.354-0.535-0.764-0.711-1.23c-0.176-0.465-0.264-0.988-0.264-1.568c0-0.615,0.123-1.191,0.369-1.727
			c0.246-0.537,0.594-1.004,1.045-1.402s0.996-0.712,1.635-0.94c0.639-0.228,1.352-0.343,2.137-0.343h6.012v2.417h-1.24v14.089
			h-2.574V92.164h-1.512v14.089h-2.576V98.395z"/>
	</g>
	<g>
		<path fill="#266279" d="M68.791,154.671c-0.451-0.123-0.875-0.305-1.273-0.544c-0.398-0.241-0.748-0.538-1.047-0.893
			c-0.299-0.354-0.535-0.764-0.711-1.231c-0.176-0.464-0.264-0.988-0.264-1.568c0-0.615,0.123-1.191,0.369-1.727
			c0.246-0.537,0.594-1.004,1.045-1.402s0.996-0.712,1.635-0.94c0.639-0.228,1.352-0.343,2.137-0.343h6.012v2.417h-1.24v14.089
			h-2.574v-14.089h-1.512v14.089h-2.576V154.671z"/>
	</g>
	<g>
		<path fill="#266279" d="M68.791,237.671c-0.451-0.123-0.875-0.305-1.273-0.544c-0.398-0.241-0.748-0.538-1.047-0.893
			c-0.299-0.354-0.535-0.764-0.711-1.231c-0.176-0.464-0.264-0.988-0.264-1.568c0-0.615,0.123-1.191,0.369-1.727
			c0.246-0.537,0.594-1.004,1.045-1.402s0.996-0.712,1.635-0.94c0.639-0.228,1.352-0.343,2.137-0.343h6.012v2.417h-1.24v14.089
			h-2.574v-14.089h-1.512v14.089h-2.576V237.671z"/>
	</g>
	<g>
		<path fill="#266279" d="M68.791,321.005c-0.451-0.123-0.875-0.305-1.273-0.544c-0.398-0.241-0.748-0.538-1.047-0.893
			c-0.299-0.354-0.535-0.764-0.711-1.231c-0.176-0.464-0.264-0.988-0.264-1.568c0-0.615,0.123-1.191,0.369-1.727
			c0.246-0.537,0.594-1.004,1.045-1.402s0.996-0.712,1.635-0.94s1.352-0.343,2.137-0.343h6.012v2.417h-1.24v14.089h-2.574v-14.089
			h-1.512v14.089h-2.576V321.005z"/>
	</g>
	<g>
		<path fill="#266279" d="M218.727,266.003c-0.451-0.123-0.875-0.304-1.273-0.544c-0.398-0.24-0.748-0.537-1.047-0.893
			c-0.299-0.354-0.535-0.764-0.711-1.231c-0.176-0.464-0.264-0.988-0.264-1.567c0-0.616,0.123-1.192,0.369-1.727
			c0.246-0.538,0.594-1.004,1.045-1.402s0.996-0.711,1.635-0.94c0.639-0.229,1.352-0.343,2.137-0.343h6.012v2.417h-1.24v14.089
			h-2.574v-14.089h-1.512v14.089h-2.576V266.003z"/>
	</g>
	<g>
		<path fill="#266279" d="M218.727,182.005c-0.451-0.123-0.875-0.305-1.273-0.544c-0.398-0.241-0.748-0.538-1.047-0.893
			c-0.299-0.354-0.535-0.764-0.711-1.231c-0.176-0.464-0.264-0.988-0.264-1.568c0-0.615,0.123-1.191,0.369-1.727
			c0.246-0.537,0.594-1.004,1.045-1.402s0.996-0.712,1.635-0.94s1.352-0.343,2.137-0.343h6.012v2.417h-1.24v14.089h-2.574v-14.089
			h-1.512v14.089h-2.576V182.005z"/>
	</g>
	<g>
		<rect x="229.027" y="66.515" fill="#266279" width="131.928" height="7.2"/>
	</g>
	<g>
		<rect x="79.217" y="66.515" fill="#266279" width="131.928" height="7.2"/>
	</g>
	<g>
		<g>
			<rect x="229.027" y="80.429" fill="#266279" width="131.928" height="7.199"/>
		</g>
		<g>
			<rect x="79.217" y="80.429" fill="#266279" width="131.928" height="7.199"/>
		</g>
	</g>
	<g>
		<g>
			<rect x="229.027" y="94.344" fill="#266279" width="131.928" height="7.2"/>
		</g>
		<g>
			<rect x="79.217" y="94.344" fill="#266279" width="131.928" height="7.2"/>
		</g>
	</g>
	<g>
		<g>
			<rect x="229.027" y="108.257" fill="#266279" width="131.928" height="7.2"/>
		</g>
		<g>
			<rect x="79.217" y="108.257" fill="#266279" width="131.928" height="7.2"/>
		</g>
	</g>
	<g>
		<g>
			<rect x="229.027" y="122.169" fill="#266279" width="131.928" height="7.201"/>
		</g>
		<g>
			<rect x="79.217" y="122.169" fill="#266279" width="131.928" height="7.201"/>
		</g>
	</g>
	<g>
		<g>
			<rect x="229.027" y="136.085" fill="#266279" width="131.928" height="7.2"/>
		</g>
		<g>
			<rect x="79.217" y="136.085" fill="#266279" width="131.928" height="7.2"/>
		</g>
	</g>
	<g>
		<g>
			<rect x="229.027" y="149.997" fill="#266279" width="131.928" height="7.2"/>
		</g>
		<g>
			<rect x="79.217" y="149.997" fill="#266279" width="131.928" height="7.2"/>
		</g>
	</g>
	<g>
		<g>
			<rect x="229.027" y="163.912" fill="#266279" width="131.928" height="7.2"/>
		</g>
		<g>
			<rect x="79.217" y="163.912" fill="#266279" width="131.928" height="7.2"/>
		</g>
	</g>
	<g>
		<g>
			<rect x="229.027" y="177.825" fill="#266279" width="131.928" height="7.2"/>
		</g>
		<g>
			<rect x="79.217" y="177.825" fill="#266279" width="131.928" height="7.2"/>
		</g>
	</g>
	<g>
		<g>
			<rect x="229.027" y="191.739" fill="#266279" width="131.928" height="7.2"/>
		</g>
		<g>
			<rect x="79.217" y="191.739" fill="#266279" width="131.928" height="7.2"/>
		</g>
	</g>
	<g>
		<g>
			<rect x="229.027" y="205.654" fill="#266279" width="131.928" height="7.201"/>
		</g>
		<g>
			<rect x="79.217" y="205.654" fill="#266279" width="131.928" height="7.201"/>
		</g>
	</g>
	<g>
		<g>
			<rect x="229.027" y="219.568" fill="#266279" width="131.928" height="7.201"/>
		</g>
		<g>
			<rect x="79.217" y="219.568" fill="#266279" width="131.928" height="7.201"/>
		</g>
	</g>
	<g>
		<g>
			<rect x="229.027" y="233.48" fill="#266279" width="131.928" height="7.201"/>
		</g>
		<g>
			<rect x="79.217" y="233.48" fill="#266279" width="131.928" height="7.201"/>
		</g>
	</g>
	<g>
		<g>
			<rect x="229.027" y="247.395" fill="#266279" width="131.928" height="7.2"/>
		</g>
		<g>
			<rect x="79.217" y="247.395" fill="#266279" width="131.928" height="7.2"/>
		</g>
	</g>
	<g>
		<g>
			<rect x="229.027" y="261.309" fill="#266279" width="131.928" height="7.2"/>
		</g>
		<g>
			<rect x="79.217" y="261.309" fill="#266279" width="131.928" height="7.2"/>
		</g>
	</g>
	<g>
		<rect x="229.027" y="275.223" fill="#266279" width="131.928" height="7.2"/>
	</g>
	<g>
		<rect x="79.217" y="275.223" fill="#266279" width="131.928" height="7.2"/>
	</g>
	<g>
		<g>
			<rect x="229.027" y="289.137" fill="#266279" width="131.928" height="7.199"/>
		</g>
		<g>
			<rect x="79.217" y="289.137" fill="#266279" width="131.928" height="7.199"/>
		</g>
	</g>
	<g>
		<rect x="79.217" y="303.072" fill="#266279" width="131.928" height="7.2"/>
	</g>
	<g>
		<rect x="79.217" y="316.964" fill="#266279" width="131.928" height="7.2"/>
	</g>
	<g>
		<rect x="79.217" y="330.877" fill="#266279" width="131.928" height="7.2"/>
	</g>
	<g>
		<rect x="79.217" y="344.792" fill="#266279" width="131.928" height="7.2"/>
	</g>
	<g>
		<rect x="79.217" y="358.705" fill="#266279" width="131.928" height="7.2"/>
	</g>
</g>
</svg>
