<?xml version="1.0" encoding="utf-8"?>
<!-- Generator: Adobe Illustrator 16.0.4, SVG Export Plug-In . SVG Version: 6.00 Build 0)  -->
<!DOCTYPE svg PUBLIC "-//W3C//DTD SVG 1.1//EN" "http://www.w3.org/Graphics/SVG/1.1/DTD/svg11.dtd">
<svg version="1.1" id="Layer_1" xmlns="http://www.w3.org/2000/svg" xmlns:xlink="http://www.w3.org/1999/xlink" x="0px" y="0px"
	 width="448.746px" height="616.439px" viewBox="0 0 448.746 616.439" enable-background="new 0 0 448.746 616.439"
	 xml:space="preserve">
<rect x="0.501" y="0.5" fill="#FFFFFF" stroke="#C68D06" stroke-miterlimit="10" width="447.746" height="615.439"/>
<g>
	<path fill="#C68D06" d="M350.995,574.868h-12.461v-1.855l11.796-17.781h3.046v17.432h4.375v2.205h-4.375v6.266h-2.381V574.868z
		 M350.995,572.663v-14.526h-0.069l-9.592,14.526H350.995z"/>
	<path fill="#C68D06" d="M363.77,580.573c0-3.745,1.854-7.175,8.681-11.551c3.885-2.485,5.46-4.235,5.46-7.036
		c0-3.045-1.89-5.04-5.285-5.04c-2.835,0-4.9,1.47-6.44,4.481l-1.961-1.155c1.82-3.5,4.691-5.531,8.507-5.531
		c4.69,0,7.596,2.94,7.596,7.106c0,3.535-1.716,5.775-6.687,8.925c-4.69,2.976-6.965,5.775-7.141,8.122h13.932v2.24H363.77V580.573z
		"/>
	<path fill="#C68D06" d="M389.459,555.231h8.681c5.776,0,8.996,2.45,8.996,7c0,4.201-2.45,6.301-6.195,7.001l6.546,11.901h-2.801
		l-6.336-11.621h-6.44v11.621h-2.45V555.231z M397.965,567.307c4.271,0,6.686-1.226,6.686-4.971c0-3.57-2.38-4.831-6.721-4.831
		h-6.021v9.802H397.965z"/>
</g>
<g>
	<rect x="80.467" y="156.966" fill="#C0DDE7" width="281.738" height="7.199"/>
</g>
<g>
	<rect x="80.467" y="184.793" fill="#C0DDE7" width="281.738" height="7.2"/>
</g>
<g>
	<rect x="80.467" y="198.708" fill="#C0DDE7" width="281.738" height="7.199"/>
</g>
<g>
	<rect x="80.467" y="212.622" fill="#C0DDE7" width="281.738" height="7.199"/>
</g>
<g>
	<rect x="80.467" y="226.535" fill="#C0DDE7" width="281.738" height="7.199"/>
</g>
<g>
	<rect x="80.467" y="240.449" fill="#C0DDE7" width="281.738" height="7.199"/>
</g>
<g>
	<rect x="80.467" y="254.362" fill="#C0DDE7" width="281.738" height="7.2"/>
</g>
<g>
	<rect x="80.467" y="268.276" fill="#C0DDE7" width="281.738" height="7.199"/>
</g>
<g>
	<rect x="80.467" y="282.19" fill="#C0DDE7" width="281.738" height="7.2"/>
</g>
<g>
	<rect x="80.467" y="296.104" fill="#C0DDE7" width="281.738" height="7.2"/>
</g>
<g>
	<rect x="80.467" y="310.018" fill="#C0DDE7" width="281.738" height="7.2"/>
</g>
<g>
	<rect x="80.467" y="323.932" fill="#C0DDE7" width="281.738" height="7.199"/>
</g>
<g>
	<rect x="80.467" y="337.845" fill="#C0DDE7" width="281.738" height="7.2"/>
</g>
<g>
	<rect x="80.467" y="351.759" fill="#C0DDE7" width="281.738" height="7.201"/>
</g>
<g>
	<rect x="80.467" y="365.673" fill="#C0DDE7" width="281.738" height="7.2"/>
</g>
<g>
	<rect x="80.467" y="379.587" fill="#C0DDE7" width="281.738" height="7.199"/>
</g>
<g>
	<rect x="80.467" y="393.501" fill="#C0DDE7" width="281.738" height="7.199"/>
</g>
<g>
	<rect x="80.467" y="407.415" fill="#C0DDE7" width="281.738" height="7.199"/>
</g>
<g>
	<rect x="80.467" y="421.328" fill="#C0DDE7" width="281.738" height="7.2"/>
</g>
<g>
	<rect x="80.467" y="435.242" fill="#C0DDE7" width="281.738" height="7.201"/>
</g>
<g>
	<rect x="80.467" y="449.156" fill="#C0DDE7" width="281.738" height="7.2"/>
</g>
<g>
	<rect x="80.467" y="463.07" fill="#C0DDE7" width="281.738" height="7.199"/>
</g>
<g>
	<rect x="80.467" y="476.983" fill="#C0DDE7" width="281.738" height="7.201"/>
</g>
<g>
	<rect x="80.467" y="59.568" fill="#C0DDE7" width="281.738" height="7.2"/>
</g>
<g>
	<rect x="80.467" y="73.482" fill="#C0DDE7" width="281.738" height="7.201"/>
</g>
<g>
	<rect x="80.467" y="143.052" fill="#C0DDE7" width="281.738" height="7.2"/>
</g>
<g>
	<rect x="80.467" y="170.879" fill="#C0DDE7" width="281.738" height="7.201"/>
</g>
<g>
	<rect x="80.467" y="87.396" fill="#C0DDE7" width="281.738" height="7.199"/>
</g>
<g>
	<rect x="80.467" y="101.31" fill="#C0DDE7" width="281.738" height="7.201"/>
</g>
<g>
	<rect x="80.467" y="115.224" fill="#C0DDE7" width="281.738" height="7.199"/>
</g>
<g>
	<rect x="80.467" y="129.139" fill="#C0DDE7" width="281.738" height="7.198"/>
</g>
<g>
	<rect x="80.467" y="156.966" fill="#C0DDE7" width="281.738" height="7.2"/>
</g>
<g>
	<g>
		<g>
			<path fill="#266279" d="M60.514,286.54h1.74v-10.86h-1.74v-3.11l8.299,0.022c0.771,0,1.477,0.137,2.117,0.411
				c0.64,0.273,1.191,0.643,1.656,1.111c0.465,0.468,0.825,1.014,1.084,1.639c0.258,0.625,0.387,1.291,0.387,1.994
				c0,0.824-0.144,1.506-0.432,2.045c-0.289,0.539-0.698,0.973-1.23,1.303c0.562,0.36,1.006,0.803,1.331,1.33
				c0.326,0.528,0.489,1.17,0.489,1.926c0,0.772-0.133,1.48-0.399,2.123c-0.266,0.644-0.629,1.2-1.089,1.668
				c-0.461,0.468-1.006,0.831-1.635,1.089c-0.629,0.259-1.307,0.388-2.032,0.388h-8.546V286.54z M65.982,275.679v3.818h2.673
				c0.21,0,0.408-0.052,0.595-0.156c0.188-0.105,0.351-0.246,0.489-0.422c0.138-0.175,0.249-0.374,0.331-0.594
				c0.082-0.221,0.123-0.452,0.123-0.69c0-0.233-0.041-0.466-0.123-0.698c-0.082-0.231-0.193-0.441-0.331-0.629
				c-0.139-0.187-0.302-0.337-0.489-0.454c-0.187-0.116-0.385-0.175-0.595-0.175H65.982z M65.982,282.576v3.964h2.83
				c0.217,0,0.421-0.055,0.612-0.169c0.19-0.111,0.355-0.26,0.494-0.443c0.138-0.184,0.249-0.396,0.331-0.64
				c0.082-0.244,0.123-0.496,0.123-0.759c0-0.277-0.041-0.533-0.123-0.769c-0.082-0.236-0.195-0.442-0.337-0.618
				c-0.142-0.175-0.309-0.314-0.5-0.415c-0.19-0.102-0.392-0.152-0.601-0.152H65.982z"/>
		</g>
		<g>
			<g>
				<g>
					<polygon fill="#266279" points="218.743,289.391 80.675,289.391 80.675,282.191 218.743,282.191 222.892,285.792 					"/>
				</g>
				<g>
					<polygon fill="#266279" points="224.134,282.191 362.204,282.191 362.204,289.391 224.134,289.391 228.282,285.792 					"/>
				</g>
			</g>
			<g>
				<g>
					<polygon fill="#266279" points="218.743,303.305 80.675,303.305 80.675,296.106 218.743,296.106 222.892,299.706 					"/>
				</g>
				<g>
					<polygon fill="#266279" points="224.134,296.106 362.204,296.106 362.204,303.305 224.134,303.305 228.282,299.706 					"/>
				</g>
			</g>
			<g>
				<g>
					<polygon fill="#266279" points="218.743,372.873 80.675,372.873 80.675,365.674 218.743,365.674 222.892,369.273 					"/>
				</g>
				<g>
					<polygon fill="#266279" points="224.134,365.674 362.204,365.674 362.204,372.873 224.134,372.873 228.282,369.273 					"/>
				</g>
			</g>
			<g>
				<g>
					<polygon fill="#266279" points="218.743,317.218 80.675,317.218 80.675,310.019 218.743,310.019 222.892,313.619 					"/>
				</g>
				<g>
					<polygon fill="#266279" points="224.134,310.019 362.204,310.019 362.204,317.218 224.134,317.218 228.282,313.619 					"/>
				</g>
			</g>
			<g>
				<g>
					<polygon fill="#266279" points="218.743,331.133 80.675,331.133 80.675,323.934 218.743,323.934 222.892,327.532 					"/>
				</g>
				<g>
					<polygon fill="#266279" points="224.134,323.934 362.204,323.934 362.204,331.133 224.134,331.133 228.282,327.532 					"/>
				</g>
			</g>
			<g>
				<g>
					<polygon fill="#266279" points="218.743,345.046 80.675,345.046 80.675,337.846 218.743,337.846 222.892,341.445 					"/>
				</g>
				<g>
					<polygon fill="#266279" points="224.134,337.846 362.204,337.846 362.204,345.046 224.134,345.046 228.282,341.445 					"/>
				</g>
			</g>
			<g>
				<g>
					<polygon fill="#266279" points="218.743,358.96 80.675,358.96 80.675,351.76 218.743,351.76 222.892,355.359 					"/>
				</g>
				<g>
					<polygon fill="#266279" points="224.134,351.76 362.204,351.76 362.204,358.96 224.134,358.96 228.282,355.359 					"/>
				</g>
			</g>
		</g>
	</g>
	<g>
		<g>
			<g>
				<g>
					<polygon fill="#266279" points="218.743,66.769 80.675,66.769 80.675,59.569 218.743,59.569 222.892,63.169 					"/>
				</g>
				<g>
					<polygon fill="#266279" points="224.134,59.569 362.204,59.569 362.204,66.769 224.134,66.769 228.282,63.169 					"/>
				</g>
			</g>
			<g>
				<g>
					<polygon fill="#266279" points="218.743,150.252 80.675,150.252 80.675,143.052 218.743,143.052 222.892,146.652 					"/>
				</g>
				<g>
					<polygon fill="#266279" points="224.134,143.052 362.204,143.052 362.204,150.252 224.134,150.252 228.282,146.652 					"/>
				</g>
			</g>
			<g>
				<g>
					<polygon fill="#266279" points="218.743,94.597 80.675,94.597 80.675,87.398 218.743,87.398 222.892,90.998 					"/>
				</g>
				<g>
					<polygon fill="#266279" points="224.134,87.398 362.204,87.398 362.204,94.597 224.134,94.597 228.282,90.998 					"/>
				</g>
			</g>
			<g>
				<g>
					<polygon fill="#266279" points="218.743,80.682 80.675,80.682 80.675,73.482 218.743,73.482 222.892,77.081 					"/>
				</g>
				<g>
					<polygon fill="#266279" points="224.134,73.482 362.204,73.482 362.204,80.682 224.134,80.682 228.282,77.081 					"/>
				</g>
			</g>
			<g>
				<g>
					<polygon fill="#266279" points="218.743,108.511 80.675,108.511 80.675,101.312 218.743,101.312 222.892,104.91 					"/>
				</g>
				<g>
					<polygon fill="#266279" points="224.134,101.312 362.204,101.312 362.204,108.511 224.134,108.511 228.282,104.91 					"/>
				</g>
			</g>
			<g>
				<g>
					<polygon fill="#266279" points="218.743,122.425 80.675,122.425 80.675,115.226 218.743,115.226 222.892,118.824 					"/>
				</g>
				<g>
					<polygon fill="#266279" points="224.134,115.226 362.204,115.226 362.204,122.425 224.134,122.425 228.282,118.824 					"/>
				</g>
			</g>
			<g>
				<g>
					<polygon fill="#266279" points="218.743,136.338 80.675,136.338 80.675,129.139 218.743,129.139 222.892,132.737 					"/>
				</g>
				<g>
					<polygon fill="#266279" points="224.134,129.139 362.204,129.139 362.204,136.338 224.134,136.338 228.282,132.737 					"/>
				</g>
			</g>
		</g>
		<g>
			<path fill="#266279" d="M67.664,48.923h6.469v3.088h-1.381v13.938h-3.729l-7.086-11.006v7.929h1.426v3.077h-6.457v-3.077h1.403
				v-10.86h-1.382v-3.088h5.145l7.041,11.152v-8.064h-1.449V48.923z"/>
		</g>
	</g>
	<g>
		<g>
			<g>
				<g>
					<polygon fill="#266279" points="218.743,400.701 80.675,400.701 80.675,393.502 218.743,393.502 222.892,397.102 					"/>
				</g>
				<g>
					<polygon fill="#266279" points="224.134,393.502 362.204,393.502 362.204,400.701 224.134,400.701 228.282,397.102 					"/>
				</g>
			</g>
			<g>
				<g>
					<polygon fill="#266279" points="218.743,484.184 80.675,484.184 80.675,476.985 218.743,476.985 222.892,480.584 					"/>
				</g>
				<g>
					<polygon fill="#266279" points="224.134,476.985 362.204,476.985 362.204,484.184 224.134,484.184 228.282,480.584 					"/>
				</g>
			</g>
			<g>
				<g>
					<polygon fill="#266279" points="218.743,428.529 80.675,428.529 80.675,421.33 218.743,421.33 222.892,424.929 					"/>
				</g>
				<g>
					<polygon fill="#266279" points="224.134,421.33 362.204,421.33 362.204,428.529 224.134,428.529 228.282,424.929 					"/>
				</g>
			</g>
			<g>
				<g>
					<polygon fill="#266279" points="218.743,414.615 80.675,414.615 80.675,407.416 218.743,407.416 222.892,411.014 					"/>
				</g>
				<g>
					<polygon fill="#266279" points="224.134,407.416 362.204,407.416 362.204,414.615 224.134,414.615 228.282,411.014 					"/>
				</g>
			</g>
			<g>
				<g>
					<polygon fill="#266279" points="218.743,442.443 80.675,442.443 80.675,435.244 218.743,435.244 222.892,438.843 					"/>
				</g>
				<g>
					<polygon fill="#266279" points="224.134,435.244 362.204,435.244 362.204,442.443 224.134,442.443 228.282,438.843 					"/>
				</g>
			</g>
			<g>
				<g>
					<polygon fill="#266279" points="218.743,456.356 80.675,456.356 80.675,449.157 218.743,449.157 222.892,452.756 					"/>
				</g>
				<g>
					<polygon fill="#266279" points="224.134,449.157 362.204,449.157 362.204,456.356 224.134,456.356 228.282,452.756 					"/>
				</g>
			</g>
			<g>
				<g>
					<polygon fill="#266279" points="218.743,470.271 80.675,470.271 80.675,463.071 218.743,463.071 222.892,466.67 					"/>
				</g>
				<g>
					<polygon fill="#266279" points="224.134,463.071 362.204,463.071 362.204,470.271 224.134,470.271 228.282,466.67 					"/>
				</g>
			</g>
		</g>
		<g>
			<path fill="#266279" d="M69.944,399.88v-2.92c-0.464,0.816-0.917,1.416-1.358,1.797c-0.442,0.382-0.941,0.688-1.5,0.921
				c-0.558,0.232-1.305,0.344-2.24,0.336c-0.465-0.008-0.928-0.062-1.393-0.163c-0.465-0.1-0.914-0.243-1.348-0.427
				s-0.859-0.404-1.274-0.662c-0.416-0.259-0.792-0.557-1.129-0.893c-0.831-0.839-1.477-1.811-1.938-2.915
				c-0.46-1.104-0.69-2.308-0.69-3.61c0-0.801,0.098-1.576,0.292-2.324c0.194-0.749,0.468-1.449,0.819-2.101
				c0.353-0.651,0.777-1.245,1.275-1.78s1.052-0.994,1.662-1.375c0.609-0.383,1.268-0.678,1.971-0.888
				c0.703-0.209,1.441-0.313,2.213-0.313c0.883,0,1.65,0.118,2.302,0.353c0.651,0.236,1.352,0.676,2.101,1.32h2.516v3.796h-3.471
				c-0.344-0.532-0.668-0.918-0.972-1.157c-0.303-0.24-0.632-0.439-0.988-0.595c-0.355-0.158-0.852-0.237-1.487-0.237
				c-0.629,0-1.213,0.144-1.752,0.427c-0.539,0.284-1.006,0.668-1.398,1.151c-0.394,0.482-0.702,1.052-0.927,1.707
				s-0.337,1.327-0.337,2.016c0,0.682,0.102,1.329,0.303,1.944c0.203,0.613,0.51,1.166,0.922,1.656
				c0.411,0.491,0.891,0.867,1.438,1.129c0.546,0.261,1.13,0.393,1.752,0.393c0.793,0,1.486-0.232,2.077-0.697
				c0.591-0.464,1.019-1.097,1.28-1.897h-3.246v-3.079h7.885v9.086H69.944z"/>
		</g>
	</g>
	<g>
		<g>
			<path fill="#266279" d="M67.077,160.591h7.288v3.088H72.85l-4.549,13.938h-4.604l-4.414-13.938h-1.64v-3.088h7.3v3.088h-1.819
				l2.965,9.658l2.954-9.658h-1.966V160.591z"/>
		</g>
		<g>
			<g>
				<g>
					<polygon fill="#266279" points="218.64,191.993 80.569,191.993 80.569,184.794 218.64,184.794 222.788,188.394 					"/>
				</g>
				<g>
					<polygon fill="#266279" points="224.03,184.794 362.101,184.794 362.101,191.993 224.03,191.993 228.179,188.394 					"/>
				</g>
			</g>
			<g>
				<g>
					<polygon fill="#266279" points="218.64,178.08 80.569,178.08 80.569,170.881 218.64,170.881 222.788,174.48 					"/>
				</g>
				<g>
					<polygon fill="#266279" points="224.03,170.881 362.101,170.881 362.101,178.08 224.03,178.08 228.179,174.48 					"/>
				</g>
			</g>
			<g>
				<g>
					<polygon fill="#266279" points="218.64,205.907 80.569,205.907 80.569,198.708 218.64,198.708 222.788,202.308 					"/>
				</g>
				<g>
					<polygon fill="#266279" points="224.03,198.708 362.101,198.708 362.101,205.907 224.03,205.907 228.179,202.308 					"/>
				</g>
			</g>
			<g>
				<g>
					<polygon fill="#266279" points="218.64,233.734 80.569,233.734 80.569,226.535 218.64,226.535 222.788,230.134 					"/>
				</g>
				<g>
					<polygon fill="#266279" points="224.03,226.535 362.101,226.535 362.101,233.734 224.03,233.734 228.179,230.134 					"/>
				</g>
			</g>
			<g>
				<g>
					<polygon fill="#266279" points="218.743,219.821 80.675,219.821 80.675,212.622 218.743,212.622 222.892,216.222 					"/>
				</g>
				<g>
					<polygon fill="#266279" points="224.134,212.622 362.204,212.622 362.204,219.821 224.134,219.821 228.282,216.222 					"/>
				</g>
			</g>
			<g>
				<g>
					<polygon fill="#266279" points="218.64,247.649 80.569,247.649 80.569,240.451 218.64,240.451 222.788,244.049 					"/>
				</g>
				<g>
					<polygon fill="#266279" points="224.03,240.451 362.101,240.451 362.101,247.649 224.03,247.649 228.179,244.049 					"/>
				</g>
			</g>
			<g>
				<g>
					<polygon fill="#266279" points="218.64,261.562 80.569,261.562 80.569,254.363 218.64,254.363 222.788,257.962 					"/>
				</g>
				<g>
					<polygon fill="#266279" points="224.03,254.363 362.101,254.363 362.101,261.562 224.03,261.562 228.179,257.962 					"/>
				</g>
			</g>
		</g>
	</g>
</g>
</svg>
