<?xml version="1.0" encoding="utf-8"?>
<!-- Generator: Adobe Illustrator 16.0.4, SVG Export Plug-In . SVG Version: 6.00 Build 0)  -->
<!DOCTYPE svg PUBLIC "-//W3C//DTD SVG 1.1//EN" "http://www.w3.org/Graphics/SVG/1.1/DTD/svg11.dtd">
<svg version="1.1" id="Layer_1" xmlns="http://www.w3.org/2000/svg" xmlns:xlink="http://www.w3.org/1999/xlink" x="0px" y="0px"
	 width="448.746px" height="616.44px" viewBox="0 0 448.746 616.44" enable-background="new 0 0 448.746 616.44"
	 xml:space="preserve">
<rect x="0.5" y="0.5" fill="#FFFFFF" stroke="#C68D06" stroke-miterlimit="10" width="447.747" height="615.44"/>
<g>
	<path fill="#C68D06" d="M352.822,574.117h-12.461v-1.855l11.796-17.781h3.046v17.432h4.375v2.205h-4.375v6.266h-2.381V574.117z
		 M352.822,571.912v-14.526h-0.069l-9.592,14.526H352.822z"/>
	<path fill="#C68D06" d="M364.966,576.042l1.855-1.33c1.891,2.836,4.2,3.991,7.07,3.991c3.815,0,6.161-2.101,6.161-5.286
		c0-3.815-2.24-5.705-8.331-5.705h-0.979v-2.136h1.189c5.496,0,7.561-1.68,7.561-4.865c0-2.591-1.574-4.516-5.495-4.516
		c-2.625,0-4.655,1.295-6.161,3.15l-1.715-1.436c1.855-2.24,4.516-3.92,8.016-3.92c5.461,0,7.771,3.115,7.771,6.476
		c0,3.325-1.961,5.53-5.111,6.126c3.851,0.805,5.706,3.01,5.706,6.825c0,4.235-3.325,7.456-8.646,7.456
		C370.076,580.873,366.892,579.123,364.966,576.042z"/>
	<path fill="#C68D06" d="M389.36,554.48h2.556l7.735,22.613h0.07l7.771-22.613h2.416l-9.102,26.008h-2.345L389.36,554.48z"/>
</g>
<g>
	<rect x="79.885" y="158.719" fill="#C0DDE7" width="281.738" height="7.199"/>
</g>
<g>
	<rect x="79.885" y="186.547" fill="#C0DDE7" width="281.738" height="7.2"/>
</g>
<g>
	<rect x="79.885" y="200.461" fill="#C0DDE7" width="281.738" height="7.199"/>
</g>
<g>
	<rect x="79.885" y="214.375" fill="#C0DDE7" width="281.738" height="7.199"/>
</g>
<g>
	<rect x="79.885" y="228.288" fill="#C0DDE7" width="281.738" height="7.199"/>
</g>
<g>
	<rect x="79.885" y="242.202" fill="#C0DDE7" width="281.738" height="7.199"/>
</g>
<g>
	<rect x="79.885" y="256.115" fill="#C0DDE7" width="281.738" height="7.201"/>
</g>
<g>
	<rect x="79.885" y="270.029" fill="#C0DDE7" width="281.738" height="7.199"/>
</g>
<g>
	<rect x="79.885" y="283.943" fill="#C0DDE7" width="281.738" height="7.2"/>
</g>
<g>
	<rect x="79.885" y="297.857" fill="#C0DDE7" width="281.738" height="7.199"/>
</g>
<g>
	<rect x="79.885" y="311.771" fill="#C0DDE7" width="281.738" height="7.2"/>
</g>
<g>
	<rect x="79.885" y="325.685" fill="#C0DDE7" width="281.738" height="7.199"/>
</g>
<g>
	<rect x="79.885" y="339.599" fill="#C0DDE7" width="281.738" height="7.199"/>
</g>
<g>
	<rect x="79.885" y="353.512" fill="#C0DDE7" width="281.738" height="7.201"/>
</g>
<g>
	<rect x="79.885" y="367.426" fill="#C0DDE7" width="281.738" height="7.2"/>
</g>
<g>
	<rect x="79.885" y="381.34" fill="#C0DDE7" width="281.738" height="7.199"/>
</g>
<g>
	<rect x="79.885" y="395.254" fill="#C0DDE7" width="281.738" height="7.199"/>
</g>
<g>
	<rect x="79.885" y="409.168" fill="#C0DDE7" width="281.738" height="7.199"/>
</g>
<g>
	<rect x="79.885" y="423.082" fill="#C0DDE7" width="281.738" height="7.2"/>
</g>
<g>
	<rect x="79.885" y="436.995" fill="#C0DDE7" width="281.738" height="7.2"/>
</g>
<g>
	<rect x="79.885" y="450.909" fill="#C0DDE7" width="281.738" height="7.2"/>
</g>
<g>
	<rect x="79.885" y="464.823" fill="#C0DDE7" width="281.738" height="7.199"/>
</g>
<g>
	<rect x="79.885" y="478.736" fill="#C0DDE7" width="281.738" height="7.2"/>
</g>
<g>
	<rect x="79.885" y="61.321" fill="#C0DDE7" width="281.738" height="7.2"/>
</g>
<g>
	<rect x="79.885" y="75.235" fill="#C0DDE7" width="281.738" height="7.2"/>
</g>
<g>
	<rect x="79.885" y="144.805" fill="#C0DDE7" width="281.738" height="7.2"/>
</g>
<g>
	<rect x="79.885" y="172.632" fill="#C0DDE7" width="281.738" height="7.2"/>
</g>
<g>
	<rect x="79.885" y="89.149" fill="#C0DDE7" width="281.738" height="7.199"/>
</g>
<g>
	<rect x="79.885" y="103.064" fill="#C0DDE7" width="281.738" height="7.2"/>
</g>
<g>
	<rect x="79.885" y="116.978" fill="#C0DDE7" width="281.738" height="7.199"/>
</g>
<g>
	<rect x="79.885" y="130.892" fill="#C0DDE7" width="281.738" height="7.198"/>
</g>
<g>
	<rect x="79.885" y="158.719" fill="#C0DDE7" width="281.738" height="7.2"/>
</g>
<g>
	<g>
		<g>
			<path fill="#266279" d="M60.381,274.345h7.288v3.088h-1.797v10.86h3.706c0.098,0,0.193-0.028,0.286-0.084
				c0.094-0.057,0.177-0.13,0.247-0.22c0.071-0.089,0.129-0.187,0.174-0.291c0.045-0.105,0.068-0.206,0.068-0.304v-2.28h3.639v6.256
				H60.381v-3.077h1.763v-10.86h-1.763V274.345z"/>
		</g>
		<g>
			<g>
				<g>
					<polygon fill="#266279" points="218.162,291.144 80.093,291.144 80.093,283.944 218.162,283.944 222.311,287.544 					"/>
				</g>
				<g>
					<polygon fill="#266279" points="223.553,283.944 361.623,283.944 361.623,291.144 223.553,291.144 227.701,287.544 					"/>
				</g>
			</g>
			<g>
				<g>
					<polygon fill="#266279" points="218.162,305.058 80.093,305.058 80.093,297.858 218.162,297.858 222.311,301.458 					"/>
				</g>
				<g>
					<polygon fill="#266279" points="223.553,297.858 361.623,297.858 361.623,305.058 223.553,305.058 227.701,301.458 					"/>
				</g>
			</g>
			<g>
				<g>
					<polygon fill="#266279" points="218.162,374.626 80.093,374.626 80.093,367.427 218.162,367.427 222.311,371.026 					"/>
				</g>
				<g>
					<polygon fill="#266279" points="223.553,367.427 361.623,367.427 361.623,374.626 223.553,374.626 227.701,371.026 					"/>
				</g>
			</g>
			<g>
				<g>
					<polygon fill="#266279" points="218.162,318.971 80.093,318.971 80.093,311.772 218.162,311.772 222.311,315.372 					"/>
				</g>
				<g>
					<polygon fill="#266279" points="223.553,311.772 361.623,311.772 361.623,318.971 223.553,318.971 227.701,315.372 					"/>
				</g>
			</g>
			<g>
				<g>
					<polygon fill="#266279" points="218.162,332.886 80.093,332.886 80.093,325.687 218.162,325.687 222.311,329.285 					"/>
				</g>
				<g>
					<polygon fill="#266279" points="223.553,325.687 361.623,325.687 361.623,332.886 223.553,332.886 227.701,329.285 					"/>
				</g>
			</g>
			<g>
				<g>
					<polygon fill="#266279" points="218.162,346.799 80.093,346.799 80.093,339.599 218.162,339.599 222.311,343.198 					"/>
				</g>
				<g>
					<polygon fill="#266279" points="223.553,339.599 361.623,339.599 361.623,346.799 223.553,346.799 227.701,343.198 					"/>
				</g>
			</g>
			<g>
				<g>
					<polygon fill="#266279" points="218.162,360.713 80.093,360.713 80.093,353.513 218.162,353.513 222.311,357.112 					"/>
				</g>
				<g>
					<polygon fill="#266279" points="223.553,353.513 361.623,353.513 361.623,360.713 223.553,360.713 227.701,357.112 					"/>
				</g>
			</g>
		</g>
	</g>
	<g>
		<g>
			<g>
				<g>
					<polygon fill="#266279" points="218.162,68.521 80.093,68.521 80.093,61.322 218.162,61.322 222.311,64.923 					"/>
				</g>
				<g>
					<polygon fill="#266279" points="223.553,61.322 361.623,61.322 361.623,68.521 223.553,68.521 227.701,64.923 					"/>
				</g>
			</g>
			<g>
				<g>
					<polygon fill="#266279" points="218.162,152.004 80.093,152.004 80.093,144.806 218.162,144.806 222.311,148.405 					"/>
				</g>
				<g>
					<polygon fill="#266279" points="223.553,144.806 361.623,144.806 361.623,152.004 223.553,152.004 227.701,148.405 					"/>
				</g>
			</g>
			<g>
				<g>
					<polygon fill="#266279" points="218.162,96.35 80.093,96.35 80.093,89.15 218.162,89.15 222.311,92.75 					"/>
				</g>
				<g>
					<polygon fill="#266279" points="223.553,89.15 361.623,89.15 361.623,96.35 223.553,96.35 227.701,92.75 					"/>
				</g>
			</g>
			<g>
				<g>
					<polygon fill="#266279" points="218.162,82.435 80.093,82.435 80.093,75.235 218.162,75.235 222.311,78.834 					"/>
				</g>
				<g>
					<polygon fill="#266279" points="223.553,75.235 361.623,75.235 361.623,82.435 223.553,82.435 227.701,78.834 					"/>
				</g>
			</g>
			<g>
				<g>
					<polygon fill="#266279" points="218.162,110.264 80.093,110.264 80.093,103.064 218.162,103.064 222.311,106.664 					"/>
				</g>
				<g>
					<polygon fill="#266279" points="223.553,103.064 361.623,103.064 361.623,110.264 223.553,110.264 227.701,106.664 					"/>
				</g>
			</g>
			<g>
				<g>
					<polygon fill="#266279" points="218.162,124.177 80.093,124.177 80.093,116.978 218.162,116.978 222.311,120.577 					"/>
				</g>
				<g>
					<polygon fill="#266279" points="223.553,116.978 361.623,116.978 361.623,124.177 223.553,124.177 227.701,120.577 					"/>
				</g>
			</g>
			<g>
				<g>
					<polygon fill="#266279" points="218.162,138.091 80.093,138.091 80.093,130.892 218.162,130.892 222.311,134.49 					"/>
				</g>
				<g>
					<polygon fill="#266279" points="223.553,130.892 361.623,130.892 361.623,138.091 223.553,138.091 227.701,134.49 					"/>
				</g>
			</g>
		</g>
		<g>
			<path fill="#266279" d="M64.904,68.005c-0.771,0-1.51-0.104-2.213-0.314c-0.703-0.209-1.361-0.505-1.971-0.887
				c-0.61-0.381-1.164-0.841-1.662-1.376s-0.923-1.129-1.275-1.785c-0.352-0.655-0.625-1.357-0.819-2.106
				c-0.194-0.748-0.292-1.53-0.292-2.347c0-0.816,0.098-1.601,0.292-2.353c0.194-0.753,0.468-1.456,0.819-2.111
				c0.353-0.655,0.777-1.25,1.275-1.786s1.052-0.993,1.662-1.376c0.609-0.381,1.268-0.677,1.971-0.887s1.441-0.314,2.213-0.314
				c0.771,0,1.51,0.104,2.218,0.314c0.707,0.21,1.366,0.506,1.977,0.887c0.61,0.383,1.164,0.841,1.662,1.376
				c0.497,0.535,0.925,1.13,1.28,1.786s0.631,1.358,0.825,2.111c0.194,0.752,0.292,1.537,0.292,2.353
				c0,0.809-0.098,1.589-0.292,2.342c-0.194,0.752-0.47,1.456-0.825,2.111c-0.355,0.656-0.783,1.25-1.28,1.785
				c-0.498,0.535-1.052,0.995-1.662,1.376c-0.61,0.382-1.27,0.678-1.977,0.887C66.414,67.9,65.675,68.005,64.904,68.005z
				 M64.904,64.48c0.65,0,1.248-0.141,1.791-0.422c0.543-0.28,1.009-0.662,1.398-1.146c0.389-0.482,0.69-1.044,0.903-1.685
				c0.214-0.639,0.32-1.319,0.32-2.038c0-0.727-0.108-1.411-0.325-2.055c-0.218-0.644-0.522-1.208-0.916-1.69
				c-0.393-0.483-0.859-0.865-1.398-1.146c-0.539-0.281-1.13-0.421-1.773-0.421c-0.645,0-1.236,0.14-1.775,0.421
				c-0.539,0.281-1.003,0.662-1.393,1.146c-0.389,0.482-0.693,1.046-0.915,1.69c-0.221,0.644-0.331,1.329-0.331,2.055
				c0,0.719,0.11,1.399,0.331,2.038c0.222,0.641,0.526,1.202,0.915,1.685c0.39,0.483,0.854,0.865,1.393,1.146
				C63.668,64.339,64.26,64.48,64.904,64.48z"/>
		</g>
	</g>
	<g>
		<g>
			<g>
				<g>
					<polygon fill="#266279" points="218.162,402.454 80.093,402.454 80.093,395.255 218.162,395.255 222.311,398.856 					"/>
				</g>
				<g>
					<polygon fill="#266279" points="223.553,395.255 361.623,395.255 361.623,402.454 223.553,402.454 227.701,398.856 					"/>
				</g>
			</g>
			<g>
				<g>
					<polygon fill="#266279" points="218.162,485.937 80.093,485.937 80.093,478.738 218.162,478.738 222.311,482.338 					"/>
				</g>
				<g>
					<polygon fill="#266279" points="223.553,478.738 361.623,478.738 361.623,485.937 223.553,485.937 227.701,482.338 					"/>
				</g>
			</g>
			<g>
				<g>
					<polygon fill="#266279" points="218.162,430.282 80.093,430.282 80.093,423.083 218.162,423.083 222.311,426.683 					"/>
				</g>
				<g>
					<polygon fill="#266279" points="223.553,423.083 361.623,423.083 361.623,430.282 223.553,430.282 227.701,426.683 					"/>
				</g>
			</g>
			<g>
				<g>
					<polygon fill="#266279" points="218.162,416.367 80.093,416.367 80.093,409.168 218.162,409.168 222.311,412.768 					"/>
				</g>
				<g>
					<polygon fill="#266279" points="223.553,409.168 361.623,409.168 361.623,416.367 223.553,416.367 227.701,412.768 					"/>
				</g>
			</g>
			<g>
				<g>
					<polygon fill="#266279" points="218.162,444.197 80.093,444.197 80.093,436.998 218.162,436.998 222.311,440.596 					"/>
				</g>
				<g>
					<polygon fill="#266279" points="223.553,436.998 361.623,436.998 361.623,444.197 223.553,444.197 227.701,440.596 					"/>
				</g>
			</g>
			<g>
				<g>
					<polygon fill="#266279" points="218.162,458.109 80.093,458.109 80.093,450.91 218.162,450.91 222.311,454.51 					"/>
				</g>
				<g>
					<polygon fill="#266279" points="223.553,450.91 361.623,450.91 361.623,458.109 223.553,458.109 227.701,454.51 					"/>
				</g>
			</g>
			<g>
				<g>
					<polygon fill="#266279" points="218.162,472.024 80.093,472.024 80.093,464.824 218.162,464.824 222.311,468.423 					"/>
				</g>
				<g>
					<polygon fill="#266279" points="223.553,464.824 361.623,464.824 361.623,472.024 223.553,472.024 227.701,468.423 					"/>
				</g>
			</g>
		</g>
		<g>
			<path fill="#266279" d="M63.174,401.769c-0.958-0.194-1.844-0.552-2.655-1.072c-0.812-0.521-1.517-1.163-2.111-1.926
				c-0.596-0.764-1.06-1.627-1.393-2.589s-0.5-1.982-0.5-3.06c0-0.816,0.097-1.601,0.292-2.353c0.195-0.753,0.468-1.456,0.82-2.111
				c0.352-0.655,0.776-1.251,1.274-1.786c0.497-0.536,1.052-0.994,1.662-1.376c0.61-0.381,1.267-0.677,1.971-0.887
				s1.441-0.314,2.212-0.314c0.771,0,1.511,0.104,2.219,0.314c0.707,0.21,1.366,0.506,1.977,0.887
				c0.609,0.383,1.164,0.841,1.662,1.376c0.498,0.535,0.924,1.13,1.28,1.786c0.355,0.655,0.63,1.358,0.825,2.111
				c0.195,0.752,0.292,1.537,0.292,2.353c0,1.093-0.173,2.125-0.517,3.099s-0.822,1.846-1.432,2.616
				c-0.61,0.771-1.335,1.416-2.174,1.932c-0.838,0.518-1.748,0.862-2.729,1.033c0.232,0.098,0.463,0.205,0.69,0.32
				c0.229,0.116,0.459,0.225,0.69,0.326c0.232,0.101,0.463,0.187,0.691,0.258s0.462,0.11,0.701,0.118c0.232,0,0.459-0.03,0.68-0.09
				s0.422-0.153,0.602-0.28c0.18-0.128,0.334-0.293,0.466-0.494c0.131-0.203,0.219-0.449,0.264-0.742l2.505,1.247
				c-0.068,0.547-0.223,1.042-0.467,1.482c-0.243,0.441-0.556,0.82-0.938,1.134c-0.382,0.314-0.816,0.558-1.303,0.73
				c-0.486,0.172-1.004,0.258-1.55,0.258c-0.442,0-0.886-0.084-1.331-0.252c-0.445-0.169-0.876-0.353-1.291-0.55
				c-0.416-0.199-0.807-0.382-1.174-0.55c-0.367-0.169-0.689-0.253-0.966-0.253c-0.12,0-0.227-0.002-0.32-0.006
				c-0.093-0.004-0.185-0.004-0.274,0s-0.189,0.016-0.298,0.034s-0.234,0.054-0.376,0.107L63.174,401.769z M64.746,398.411
				c0.652,0,1.249-0.141,1.792-0.422c0.542-0.28,1.009-0.662,1.397-1.146c0.39-0.482,0.691-1.044,0.904-1.685
				c0.214-0.64,0.32-1.319,0.32-2.038c0-0.727-0.108-1.412-0.326-2.056c-0.217-0.643-0.521-1.207-0.915-1.689
				c-0.393-0.483-0.858-0.865-1.397-1.146c-0.539-0.281-1.131-0.421-1.775-0.421c-0.644,0-1.234,0.14-1.773,0.421
				c-0.539,0.28-1.004,0.662-1.393,1.146c-0.39,0.482-0.695,1.046-0.916,1.689c-0.221,0.645-0.331,1.329-0.331,2.056
				c0,0.718,0.11,1.398,0.331,2.038c0.221,0.641,0.526,1.202,0.916,1.685c0.389,0.483,0.854,0.865,1.393,1.146
				C63.512,398.271,64.103,398.411,64.746,398.411z"/>
		</g>
	</g>
	<g>
		<g>
			<path fill="#266279" d="M63.07,179.505c-0.959-0.194-1.844-0.552-2.656-1.072s-1.517-1.162-2.111-1.926
				c-0.596-0.764-1.06-1.627-1.393-2.589c-0.334-0.962-0.5-1.982-0.5-3.061c0-0.816,0.098-1.601,0.292-2.353
				c0.194-0.753,0.468-1.456,0.819-2.111c0.353-0.656,0.777-1.251,1.275-1.786c0.498-0.536,1.052-0.994,1.662-1.376
				c0.609-0.381,1.268-0.677,1.971-0.887c0.703-0.21,1.441-0.315,2.213-0.315c0.771,0,1.51,0.105,2.218,0.315
				c0.707,0.21,1.366,0.506,1.977,0.887c0.61,0.382,1.164,0.84,1.662,1.376c0.497,0.535,0.925,1.13,1.28,1.786
				c0.355,0.655,0.631,1.358,0.825,2.111c0.194,0.752,0.292,1.537,0.292,2.353c0,1.093-0.172,2.126-0.517,3.1
				s-0.821,1.845-1.432,2.616c-0.61,0.771-1.335,1.416-2.173,1.932c-0.839,0.518-1.748,0.861-2.729,1.033
				c0.231,0.098,0.462,0.204,0.69,0.32c0.229,0.117,0.459,0.225,0.691,0.326c0.231,0.101,0.462,0.187,0.69,0.258
				c0.228,0.071,0.462,0.11,0.702,0.118c0.231,0,0.458-0.031,0.679-0.09c0.222-0.06,0.421-0.153,0.601-0.28
				c0.18-0.128,0.336-0.293,0.467-0.494c0.131-0.204,0.219-0.45,0.264-0.743l2.504,1.247c-0.066,0.547-0.223,1.041-0.466,1.482
				c-0.243,0.442-0.556,0.819-0.938,1.134s-0.815,0.559-1.303,0.73s-1.003,0.258-1.55,0.258c-0.441,0-0.885-0.084-1.331-0.252
				c-0.445-0.169-0.876-0.353-1.291-0.551c-0.416-0.198-0.808-0.381-1.174-0.55c-0.366-0.169-0.688-0.253-0.966-0.253
				c-0.119,0-0.227-0.002-0.32-0.006s-0.186-0.004-0.275,0s-0.188,0.016-0.297,0.034c-0.109,0.019-0.234,0.054-0.377,0.106
				L63.07,179.505z M64.643,176.148c0.65,0,1.248-0.141,1.791-0.422c0.543-0.28,1.009-0.662,1.398-1.146
				c0.389-0.482,0.69-1.044,0.903-1.685c0.214-0.64,0.32-1.319,0.32-2.038c0-0.727-0.108-1.411-0.325-2.056
				c-0.218-0.644-0.522-1.207-0.916-1.689c-0.393-0.483-0.859-0.865-1.398-1.146c-0.539-0.281-1.13-0.42-1.773-0.42
				c-0.645,0-1.236,0.139-1.775,0.42c-0.539,0.28-1.003,0.662-1.393,1.146c-0.389,0.482-0.693,1.046-0.915,1.689
				c-0.221,0.645-0.331,1.329-0.331,2.056c0,0.719,0.11,1.398,0.331,2.038c0.222,0.641,0.526,1.202,0.915,1.685
				c0.39,0.484,0.854,0.865,1.393,1.146C63.406,176.007,63.998,176.148,64.643,176.148z"/>
		</g>
		<g>
			<g>
				<g>
					<polygon fill="#266279" points="218.059,193.746 79.987,193.746 79.987,186.548 218.059,186.548 222.207,190.146 					"/>
				</g>
				<g>
					<polygon fill="#266279" points="223.449,186.548 361.52,186.548 361.52,193.746 223.449,193.746 227.598,190.146 					"/>
				</g>
			</g>
			<g>
				<g>
					<polygon fill="#266279" points="218.059,179.834 79.987,179.834 79.987,172.634 218.059,172.634 222.207,176.233 					"/>
				</g>
				<g>
					<polygon fill="#266279" points="223.449,172.634 361.52,172.634 361.52,179.834 223.449,179.834 227.598,176.233 					"/>
				</g>
			</g>
			<g>
				<g>
					<polygon fill="#266279" points="218.059,207.66 79.987,207.66 79.987,200.461 218.059,200.461 222.207,204.061 					"/>
				</g>
				<g>
					<polygon fill="#266279" points="223.449,200.461 361.52,200.461 361.52,207.66 223.449,207.66 227.598,204.061 					"/>
				</g>
			</g>
			<g>
				<g>
					<polygon fill="#266279" points="218.059,235.487 79.987,235.487 79.987,228.288 218.059,228.288 222.207,231.887 					"/>
				</g>
				<g>
					<polygon fill="#266279" points="223.449,228.288 361.52,228.288 361.52,235.487 223.449,235.487 227.598,231.887 					"/>
				</g>
			</g>
			<g>
				<g>
					<polygon fill="#266279" points="218.162,221.574 80.093,221.574 80.093,214.375 218.162,214.375 222.311,217.976 					"/>
				</g>
				<g>
					<polygon fill="#266279" points="223.553,214.375 361.623,214.375 361.623,221.574 223.553,221.574 227.701,217.976 					"/>
				</g>
			</g>
			<g>
				<g>
					<polygon fill="#266279" points="218.059,249.402 79.987,249.402 79.987,242.203 218.059,242.203 222.207,245.803 					"/>
				</g>
				<g>
					<polygon fill="#266279" points="223.449,242.203 361.52,242.203 361.52,249.402 223.449,249.402 227.598,245.803 					"/>
				</g>
			</g>
			<g>
				<g>
					<polygon fill="#266279" points="218.059,263.316 79.987,263.316 79.987,256.116 218.059,256.116 222.207,259.716 					"/>
				</g>
				<g>
					<polygon fill="#266279" points="223.449,256.116 361.52,256.116 361.52,263.316 223.449,263.316 227.598,259.716 					"/>
				</g>
			</g>
		</g>
	</g>
</g>
</svg>
