<?xml version="1.0" encoding="utf-8"?>
<!-- Generator: Adobe Illustrator 16.0.4, SVG Export Plug-In . SVG Version: 6.00 Build 0)  -->
<!DOCTYPE svg PUBLIC "-//W3C//DTD SVG 1.1//EN" "http://www.w3.org/Graphics/SVG/1.1/DTD/svg11.dtd">
<svg version="1.1" id="Layer_1" xmlns="http://www.w3.org/2000/svg" xmlns:xlink="http://www.w3.org/1999/xlink" x="0px" y="0px"
	 width="448.747px" height="616.439px" viewBox="0 0 448.747 616.439" enable-background="new 0 0 448.747 616.439"
	 xml:space="preserve">
<rect x="0.501" y="0.5" fill="#FFFFFF" stroke="#C68D06" stroke-miterlimit="10" width="447.747" height="615.439"/>
<g>
	<path fill="#C68D06" d="M349.603,576.118h-12.461v-1.855l11.797-17.781h3.045v17.432h4.375v2.205h-4.375v6.266h-2.381V576.118z
		 M349.603,573.913v-14.526h-0.068l-9.592,14.526H349.603z"/>
	<path fill="#C68D06" d="M361.747,578.043l1.855-1.33c1.891,2.836,4.199,3.991,7.07,3.991c3.814,0,6.16-2.101,6.16-5.286
		c0-3.816-2.24-5.706-8.33-5.706h-0.98v-2.136h1.189c5.496,0,7.561-1.679,7.561-4.866c0-2.59-1.574-4.515-5.494-4.515
		c-2.625,0-4.656,1.295-6.16,3.15l-1.717-1.435c1.855-2.241,4.516-3.92,8.016-3.92c5.461,0,7.771,3.115,7.771,6.476
		c0,3.325-1.961,5.53-5.109,6.126c3.85,0.805,5.705,3.009,5.705,6.825c0,4.235-3.326,7.456-8.646,7.456
		C366.858,582.874,363.673,581.124,361.747,578.043z"/>
	<path fill="#C68D06" d="M388.206,556.481h8.682c5.775,0,8.996,2.45,8.996,7c0,4.201-2.451,6.301-6.195,7.001l6.545,11.901h-2.801
		l-6.336-11.621h-6.439v11.621h-2.451V556.481z M396.712,568.558c4.271,0,6.686-1.226,6.686-4.971c0-3.57-2.379-4.831-6.721-4.831
		h-6.02v9.802H396.712z"/>
</g>
<g>
	<rect x="79.217" y="163.935" fill="#C0DDE7" width="281.738" height="7.199"/>
</g>
<g>
	<rect x="79.217" y="191.761" fill="#C0DDE7" width="281.738" height="7.2"/>
</g>
<g>
	<rect x="79.217" y="205.676" fill="#C0DDE7" width="281.738" height="7.199"/>
</g>
<g>
	<rect x="79.217" y="219.591" fill="#C0DDE7" width="281.738" height="7.199"/>
</g>
<g>
	<rect x="79.217" y="233.503" fill="#C0DDE7" width="281.738" height="7.2"/>
</g>
<g>
	<rect x="79.217" y="247.418" fill="#C0DDE7" width="281.738" height="7.199"/>
</g>
<g>
	<rect x="79.217" y="261.33" fill="#C0DDE7" width="281.738" height="7.201"/>
</g>
<g>
	<rect x="79.217" y="275.245" fill="#C0DDE7" width="281.738" height="7.199"/>
</g>
<g>
	<rect x="79.217" y="289.159" fill="#C0DDE7" width="281.738" height="7.2"/>
</g>
<g>
	<rect x="79.217" y="303.073" fill="#C0DDE7" width="281.738" height="7.199"/>
</g>
<g>
	<rect x="79.217" y="316.987" fill="#C0DDE7" width="281.738" height="7.2"/>
</g>
<g>
	<rect x="79.217" y="330.9" fill="#C0DDE7" width="281.738" height="7.199"/>
</g>
<g>
	<rect x="79.217" y="344.814" fill="#C0DDE7" width="281.738" height="7.199"/>
</g>
<g>
	<rect x="79.217" y="358.727" fill="#C0DDE7" width="281.738" height="7.202"/>
</g>
<g>
	<rect x="79.217" y="372.642" fill="#C0DDE7" width="281.738" height="7.2"/>
</g>
<g>
	<rect x="79.217" y="386.556" fill="#C0DDE7" width="281.738" height="7.199"/>
</g>
<g>
	<rect x="79.217" y="400.47" fill="#C0DDE7" width="281.738" height="7.199"/>
</g>
<g>
	<rect x="79.217" y="414.383" fill="#C0DDE7" width="281.738" height="7.199"/>
</g>
<g>
	<rect x="79.217" y="428.297" fill="#C0DDE7" width="281.738" height="7.2"/>
</g>
<g>
	<rect x="79.217" y="442.21" fill="#C0DDE7" width="281.738" height="7.2"/>
</g>
<g>
	<rect x="79.217" y="456.125" fill="#C0DDE7" width="281.738" height="7.2"/>
</g>
<g>
	<rect x="79.217" y="470.039" fill="#C0DDE7" width="281.738" height="7.199"/>
</g>
<g>
	<rect x="79.217" y="483.951" fill="#C0DDE7" width="281.738" height="7.201"/>
</g>
<g>
	<rect x="79.217" y="66.537" fill="#C0DDE7" width="281.738" height="7.2"/>
</g>
<g>
	<rect x="79.217" y="80.45" fill="#C0DDE7" width="281.738" height="7.201"/>
</g>
<g>
	<rect x="79.217" y="150.021" fill="#C0DDE7" width="281.738" height="7.201"/>
</g>
<g>
	<rect x="79.217" y="177.848" fill="#C0DDE7" width="281.738" height="7.2"/>
</g>
<g>
	<rect x="79.217" y="94.365" fill="#C0DDE7" width="281.738" height="7.199"/>
</g>
<g>
	<rect x="79.217" y="108.279" fill="#C0DDE7" width="281.738" height="7.201"/>
</g>
<g>
	<rect x="79.217" y="122.193" fill="#C0DDE7" width="281.738" height="7.199"/>
</g>
<g>
	<rect x="79.217" y="136.107" fill="#C0DDE7" width="281.738" height="7.198"/>
</g>
<g>
	<rect x="79.217" y="163.935" fill="#C0DDE7" width="281.738" height="7.201"/>
</g>
<g>
	<g>
		<g>
			<path fill="#266279" d="M61.688,293.509h1.764v-10.972h-2.066v2.202h-3.661v-5.178h15.487v5.178h-3.684v-2.202h-2.348v10.972
				h1.797v3.077h-7.289V293.509z"/>
		</g>
		<g>
			<g>
				<g>
					<polygon fill="#266279" points="217.494,296.359 79.426,296.359 79.426,289.16 217.494,289.16 221.643,292.76 					"/>
				</g>
				<g>
					<polygon fill="#266279" points="222.885,289.16 360.955,289.16 360.955,296.359 222.885,296.359 227.033,292.76 					"/>
				</g>
			</g>
			<g>
				<g>
					<polygon fill="#266279" points="217.494,310.273 79.426,310.273 79.426,303.074 217.494,303.074 221.643,306.674 					"/>
				</g>
				<g>
					<polygon fill="#266279" points="222.885,303.074 360.955,303.074 360.955,310.273 222.885,310.273 227.033,306.674 					"/>
				</g>
			</g>
			<g>
				<g>
					<polygon fill="#266279" points="217.494,379.842 79.426,379.842 79.426,372.643 217.494,372.643 221.643,376.242 					"/>
				</g>
				<g>
					<polygon fill="#266279" points="222.885,372.643 360.955,372.643 360.955,379.842 222.885,379.842 227.033,376.242 					"/>
				</g>
			</g>
			<g>
				<g>
					<polygon fill="#266279" points="217.494,324.187 79.426,324.187 79.426,316.987 217.494,316.987 221.643,320.586 					"/>
				</g>
				<g>
					<polygon fill="#266279" points="222.885,316.987 360.955,316.987 360.955,324.187 222.885,324.187 227.033,320.586 					"/>
				</g>
			</g>
			<g>
				<g>
					<polygon fill="#266279" points="217.494,338.102 79.426,338.102 79.426,330.903 217.494,330.903 221.643,334.501 					"/>
				</g>
				<g>
					<polygon fill="#266279" points="222.885,330.903 360.955,330.903 360.955,338.102 222.885,338.102 227.033,334.501 					"/>
				</g>
			</g>
			<g>
				<g>
					<polygon fill="#266279" points="217.494,352.015 79.426,352.015 79.426,344.814 217.494,344.814 221.643,348.414 					"/>
				</g>
				<g>
					<polygon fill="#266279" points="222.885,344.814 360.955,344.814 360.955,352.015 222.885,352.015 227.033,348.414 					"/>
				</g>
			</g>
			<g>
				<g>
					<polygon fill="#266279" points="217.494,365.929 79.426,365.929 79.426,358.729 217.494,358.729 221.643,362.328 					"/>
				</g>
				<g>
					<polygon fill="#266279" points="222.885,358.729 360.955,358.729 360.955,365.929 222.885,365.929 227.033,362.328 					"/>
				</g>
			</g>
		</g>
	</g>
	<g>
		<g>
			<g>
				<g>
					<polygon fill="#266279" points="217.494,73.737 79.426,73.737 79.426,66.538 217.494,66.538 221.643,70.138 					"/>
				</g>
				<g>
					<polygon fill="#266279" points="222.885,66.538 360.955,66.538 360.955,73.737 222.885,73.737 227.033,70.138 					"/>
				</g>
			</g>
			<g>
				<g>
					<polygon fill="#266279" points="217.494,157.22 79.426,157.22 79.426,150.021 217.494,150.021 221.643,153.621 					"/>
				</g>
				<g>
					<polygon fill="#266279" points="222.885,150.021 360.955,150.021 360.955,157.22 222.885,157.22 227.033,153.621 					"/>
				</g>
			</g>
			<g>
				<g>
					<polygon fill="#266279" points="217.494,101.565 79.426,101.565 79.426,94.366 217.494,94.366 221.643,97.965 					"/>
				</g>
				<g>
					<polygon fill="#266279" points="222.885,94.366 360.955,94.366 360.955,101.565 222.885,101.565 227.033,97.965 					"/>
				</g>
			</g>
			<g>
				<g>
					<polygon fill="#266279" points="217.494,87.65 79.426,87.65 79.426,80.452 217.494,80.452 221.643,84.05 					"/>
				</g>
				<g>
					<polygon fill="#266279" points="222.885,80.452 360.955,80.452 360.955,87.65 222.885,87.65 227.033,84.05 					"/>
				</g>
			</g>
			<g>
				<g>
					<polygon fill="#266279" points="217.494,115.479 79.426,115.479 79.426,108.28 217.494,108.28 221.643,111.878 					"/>
				</g>
				<g>
					<polygon fill="#266279" points="222.885,108.28 360.955,108.28 360.955,115.479 222.885,115.479 227.033,111.878 					"/>
				</g>
			</g>
			<g>
				<g>
					<polygon fill="#266279" points="217.494,129.393 79.426,129.393 79.426,122.193 217.494,122.193 221.643,125.792 					"/>
				</g>
				<g>
					<polygon fill="#266279" points="222.885,122.193 360.955,122.193 360.955,129.393 222.885,129.393 227.033,125.792 					"/>
				</g>
			</g>
			<g>
				<g>
					<polygon fill="#266279" points="217.494,143.307 79.426,143.307 79.426,136.106 217.494,136.106 221.643,139.706 					"/>
				</g>
				<g>
					<polygon fill="#266279" points="222.885,136.106 360.955,136.106 360.955,143.307 222.885,143.307 227.033,139.706 					"/>
				</g>
			</g>
		</g>
		<g>
			<path fill="#266279" d="M61.585,69.841h1.764V58.869h-2.066v2.202h-3.661v-5.178h15.487v5.178h-3.684v-2.202h-2.348v10.972h1.797
				v3.078h-7.289V69.841z"/>
		</g>
	</g>
	<g>
		<g>
			<g>
				<g>
					<polygon fill="#266279" points="217.494,407.669 79.426,407.669 79.426,400.47 217.494,400.47 221.643,404.071 					"/>
				</g>
				<g>
					<polygon fill="#266279" points="222.885,400.47 360.955,400.47 360.955,407.669 222.885,407.669 227.033,404.071 					"/>
				</g>
			</g>
			<g>
				<g>
					<polygon fill="#266279" points="217.494,491.152 79.426,491.152 79.426,483.954 217.494,483.954 221.643,487.553 					"/>
				</g>
				<g>
					<polygon fill="#266279" points="222.885,483.954 360.955,483.954 360.955,491.152 222.885,491.152 227.033,487.553 					"/>
				</g>
			</g>
			<g>
				<g>
					<polygon fill="#266279" points="217.494,435.498 79.426,435.498 79.426,428.299 217.494,428.299 221.643,431.898 					"/>
				</g>
				<g>
					<polygon fill="#266279" points="222.885,428.299 360.955,428.299 360.955,435.498 222.885,435.498 227.033,431.898 					"/>
				</g>
			</g>
			<g>
				<g>
					<polygon fill="#266279" points="217.494,421.583 79.426,421.583 79.426,414.384 217.494,414.384 221.643,417.982 					"/>
				</g>
				<g>
					<polygon fill="#266279" points="222.885,414.384 360.955,414.384 360.955,421.583 222.885,421.583 227.033,417.982 					"/>
				</g>
			</g>
			<g>
				<g>
					<polygon fill="#266279" points="217.494,449.412 79.426,449.412 79.426,442.213 217.494,442.213 221.643,445.812 					"/>
				</g>
				<g>
					<polygon fill="#266279" points="222.885,442.213 360.955,442.213 360.955,449.412 222.885,449.412 227.033,445.812 					"/>
				</g>
			</g>
			<g>
				<g>
					<polygon fill="#266279" points="217.494,463.325 79.426,463.325 79.426,456.126 217.494,456.126 221.643,459.725 					"/>
				</g>
				<g>
					<polygon fill="#266279" points="222.885,456.126 360.955,456.126 360.955,463.325 222.885,463.325 227.033,459.725 					"/>
				</g>
			</g>
			<g>
				<g>
					<polygon fill="#266279" points="217.494,477.239 79.426,477.239 79.426,470.04 217.494,470.04 221.643,473.639 					"/>
				</g>
				<g>
					<polygon fill="#266279" points="222.885,470.04 360.955,470.04 360.955,477.239 222.885,477.239 227.033,473.639 					"/>
				</g>
			</g>
		</g>
		<g>
			<path fill="#266279" d="M65.628,389.824h7.289v3.077H71.12v10.871h1.797v3.077h-7.289v-3.077h1.764v-10.871h-1.764V389.824z"/>
		</g>
	</g>
	<g>
		<g>
			<path fill="#266279" d="M68.59,184.585v-2.919c-0.464,0.816-0.917,1.415-1.358,1.797c-0.442,0.382-0.941,0.688-1.5,0.921
				c-0.558,0.232-1.305,0.345-2.24,0.337c-0.465-0.008-0.928-0.062-1.393-0.164c-0.465-0.101-0.914-0.243-1.348-0.427
				s-0.859-0.404-1.274-0.662c-0.416-0.259-0.792-0.557-1.129-0.893c-0.831-0.839-1.477-1.811-1.938-2.915
				c-0.46-1.104-0.69-2.307-0.69-3.61c0-0.801,0.098-1.577,0.292-2.325c0.194-0.749,0.468-1.449,0.819-2.1
				c0.353-0.652,0.777-1.246,1.275-1.781s1.052-0.994,1.662-1.375c0.609-0.383,1.268-0.678,1.971-0.888s1.441-0.314,2.213-0.314
				c0.883,0,1.65,0.118,2.302,0.354c0.651,0.236,1.352,0.676,2.101,1.319h2.516v3.797h-3.471c-0.344-0.533-0.668-0.918-0.972-1.158
				c-0.303-0.239-0.632-0.438-0.988-0.594c-0.355-0.159-0.852-0.237-1.487-0.237c-0.629,0-1.213,0.143-1.752,0.427
				c-0.539,0.284-1.006,0.668-1.398,1.151c-0.394,0.482-0.702,1.052-0.927,1.708c-0.225,0.655-0.337,1.327-0.337,2.016
				c0,0.681,0.102,1.329,0.303,1.943c0.203,0.613,0.51,1.166,0.922,1.656c0.411,0.49,0.891,0.866,1.438,1.129
				c0.546,0.262,1.13,0.393,1.752,0.393c0.793,0,1.486-0.232,2.077-0.696c0.591-0.464,1.019-1.098,1.28-1.898h-3.246V175.5h7.885
				v9.085H68.59z"/>
		</g>
		<g>
			<g>
				<g>
					<polygon fill="#266279" points="217.391,198.961 79.32,198.961 79.32,191.764 217.391,191.764 221.539,195.363 					"/>
				</g>
				<g>
					<polygon fill="#266279" points="222.781,191.764 360.852,191.764 360.852,198.961 222.781,198.961 226.93,195.363 					"/>
				</g>
			</g>
			<g>
				<g>
					<polygon fill="#266279" points="217.391,185.049 79.32,185.049 79.32,177.85 217.391,177.85 221.539,181.449 					"/>
				</g>
				<g>
					<polygon fill="#266279" points="222.781,177.85 360.852,177.85 360.852,185.049 222.781,185.049 226.93,181.449 					"/>
				</g>
			</g>
			<g>
				<g>
					<polygon fill="#266279" points="217.391,212.876 79.32,212.876 79.32,205.677 217.391,205.677 221.539,209.277 					"/>
				</g>
				<g>
					<polygon fill="#266279" points="222.781,205.677 360.852,205.677 360.852,212.876 222.781,212.876 226.93,209.277 					"/>
				</g>
			</g>
			<g>
				<g>
					<polygon fill="#266279" points="217.391,240.704 79.32,240.704 79.32,233.503 217.391,233.503 221.539,237.103 					"/>
				</g>
				<g>
					<polygon fill="#266279" points="222.781,233.503 360.852,233.503 360.852,240.704 222.781,240.704 226.93,237.103 					"/>
				</g>
			</g>
			<g>
				<g>
					<polygon fill="#266279" points="217.494,226.79 79.426,226.79 79.426,219.591 217.494,219.591 221.643,223.19 					"/>
				</g>
				<g>
					<polygon fill="#266279" points="222.885,219.591 360.955,219.591 360.955,226.79 222.885,226.79 227.033,223.19 					"/>
				</g>
			</g>
			<g>
				<g>
					<polygon fill="#266279" points="217.391,254.618 79.32,254.618 79.32,247.418 217.391,247.418 221.539,251.018 					"/>
				</g>
				<g>
					<polygon fill="#266279" points="222.781,247.418 360.852,247.418 360.852,254.618 222.781,254.618 226.93,251.018 					"/>
				</g>
			</g>
			<g>
				<g>
					<polygon fill="#266279" points="217.391,268.531 79.32,268.531 79.32,261.332 217.391,261.332 221.539,264.932 					"/>
				</g>
				<g>
					<polygon fill="#266279" points="222.781,261.332 360.852,261.332 360.852,268.531 222.781,268.531 226.93,264.932 					"/>
				</g>
			</g>
		</g>
	</g>
</g>
</svg>
