<?xml version="1.0" encoding="utf-8"?>
<!-- Generator: Adobe Illustrator 16.0.4, SVG Export Plug-In . SVG Version: 6.00 Build 0)  -->
<!DOCTYPE svg PUBLIC "-//W3C//DTD SVG 1.1//EN" "http://www.w3.org/Graphics/SVG/1.1/DTD/svg11.dtd">
<svg version="1.1" id="Layer_1" xmlns="http://www.w3.org/2000/svg" xmlns:xlink="http://www.w3.org/1999/xlink" x="0px" y="0px"
	 width="448.746px" height="616.435px" viewBox="0 0 448.746 616.435" enable-background="new 0 0 448.746 616.435"
	 xml:space="preserve">
<rect x="0.5" y="0.5" fill="#FFFFFF" stroke="#C68D06" stroke-miterlimit="10" width="447.747" height="615.435"/>
<g>
	<path fill="#C68D06" d="M351.55,576.864h-12.461v-1.855l11.796-17.781h3.046v17.432h4.375v2.205h-4.375v6.266h-2.381V576.864z
		 M351.55,574.659v-14.526h-0.069l-9.592,14.526H351.55z"/>
	<path fill="#C68D06" d="M376.26,576.864h-12.461v-1.855l11.796-17.781h3.046v17.432h4.375v2.205h-4.375v6.266h-2.381V576.864z
		 M376.26,574.659v-14.526h-0.069l-9.592,14.526H376.26z"/>
	<path fill="#C68D06" d="M388.613,557.227h2.556l7.735,22.612h0.07l7.771-22.612h2.416l-9.102,26.008h-2.345L388.613,557.227z"/>
</g>
<g>
	<rect x="80.388" y="158.966" fill="#C0DDE7" width="281.737" height="7.199"/>
</g>
<g>
	<rect x="80.388" y="186.793" fill="#C0DDE7" width="281.737" height="7.2"/>
</g>
<g>
	<rect x="80.388" y="200.708" fill="#C0DDE7" width="281.737" height="7.199"/>
</g>
<g>
	<rect x="80.388" y="214.623" fill="#C0DDE7" width="281.737" height="7.199"/>
</g>
<g>
	<rect x="80.388" y="228.536" fill="#C0DDE7" width="281.737" height="7.199"/>
</g>
<g>
	<rect x="80.388" y="242.45" fill="#C0DDE7" width="281.737" height="7.199"/>
</g>
<g>
	<rect x="80.388" y="256.363" fill="#C0DDE7" width="281.737" height="7.2"/>
</g>
<g>
	<rect x="80.388" y="270.277" fill="#C0DDE7" width="281.737" height="7.199"/>
</g>
<g>
	<rect x="80.388" y="284.191" fill="#C0DDE7" width="281.737" height="7.2"/>
</g>
<g>
	<rect x="80.388" y="298.105" fill="#C0DDE7" width="281.737" height="7.199"/>
</g>
<g>
	<rect x="80.388" y="312.018" fill="#C0DDE7" width="281.737" height="7.2"/>
</g>
<g>
	<rect x="80.388" y="325.932" fill="#C0DDE7" width="281.737" height="7.199"/>
</g>
<g>
	<rect x="80.388" y="339.846" fill="#C0DDE7" width="281.737" height="7.199"/>
</g>
<g>
	<rect x="80.388" y="353.759" fill="#C0DDE7" width="281.737" height="7.201"/>
</g>
<g>
	<rect x="80.388" y="367.673" fill="#C0DDE7" width="281.737" height="7.2"/>
</g>
<g>
	<rect x="80.388" y="381.587" fill="#C0DDE7" width="281.737" height="7.199"/>
</g>
<g>
	<rect x="80.388" y="395.501" fill="#C0DDE7" width="281.737" height="7.199"/>
</g>
<g>
	<rect x="80.388" y="409.416" fill="#C0DDE7" width="281.737" height="7.199"/>
</g>
<g>
	<rect x="80.388" y="423.329" fill="#C0DDE7" width="281.737" height="7.2"/>
</g>
<g>
	<rect x="80.388" y="437.243" fill="#C0DDE7" width="281.737" height="7.2"/>
</g>
<g>
	<rect x="80.388" y="451.157" fill="#C0DDE7" width="281.737" height="7.2"/>
</g>
<g>
	<rect x="80.388" y="465.071" fill="#C0DDE7" width="281.737" height="7.199"/>
</g>
<g>
	<rect x="80.388" y="478.984" fill="#C0DDE7" width="281.737" height="7.2"/>
</g>
<g>
	<rect x="80.388" y="61.569" fill="#C0DDE7" width="281.737" height="7.2"/>
</g>
<g>
	<rect x="80.388" y="75.483" fill="#C0DDE7" width="281.737" height="7.2"/>
</g>
<g>
	<rect x="80.388" y="145.052" fill="#C0DDE7" width="281.737" height="7.2"/>
</g>
<g>
	<rect x="80.388" y="172.88" fill="#C0DDE7" width="281.737" height="7.2"/>
</g>
<g>
	<rect x="80.388" y="89.397" fill="#C0DDE7" width="281.737" height="7.199"/>
</g>
<g>
	<rect x="80.388" y="103.311" fill="#C0DDE7" width="281.737" height="7.2"/>
</g>
<g>
	<rect x="80.388" y="117.225" fill="#C0DDE7" width="281.737" height="7.199"/>
</g>
<g>
	<rect x="80.388" y="131.14" fill="#C0DDE7" width="281.737" height="7.198"/>
</g>
<g>
	<rect x="80.388" y="158.966" fill="#C0DDE7" width="281.737" height="7.2"/>
</g>
<g>
	<g>
		<g>
			<path fill="#266279" d="M66.902,274.592h7.289v3.077h-1.797v10.871h1.797v3.077h-7.289v-3.077h1.764v-10.871h-1.764V274.592z"/>
		</g>
		<g>
			<g>
				<g>
					<polygon fill="#266279" points="218.664,291.391 80.596,291.391 80.596,284.192 218.664,284.192 222.812,287.792 					"/>
				</g>
				<g>
					<polygon fill="#266279" points="224.055,284.192 362.125,284.192 362.125,291.391 224.055,291.391 228.203,287.792 					"/>
				</g>
			</g>
			<g>
				<g>
					<polygon fill="#266279" points="218.664,305.305 80.596,305.305 80.596,298.106 218.664,298.106 222.812,301.706 					"/>
				</g>
				<g>
					<polygon fill="#266279" points="224.055,298.106 362.125,298.106 362.125,305.305 224.055,305.305 228.203,301.706 					"/>
				</g>
			</g>
			<g>
				<g>
					<polygon fill="#266279" points="218.664,374.874 80.596,374.874 80.596,367.674 218.664,367.674 222.812,371.274 					"/>
				</g>
				<g>
					<polygon fill="#266279" points="224.055,367.674 362.125,367.674 362.125,374.874 224.055,374.874 228.203,371.274 					"/>
				</g>
			</g>
			<g>
				<g>
					<polygon fill="#266279" points="218.664,319.218 80.596,319.218 80.596,312.019 218.664,312.019 222.812,315.619 					"/>
				</g>
				<g>
					<polygon fill="#266279" points="224.055,312.019 362.125,312.019 362.125,319.218 224.055,319.218 228.203,315.619 					"/>
				</g>
			</g>
			<g>
				<g>
					<polygon fill="#266279" points="218.664,333.133 80.596,333.133 80.596,325.934 218.664,325.934 222.812,329.533 					"/>
				</g>
				<g>
					<polygon fill="#266279" points="224.055,325.934 362.125,325.934 362.125,333.133 224.055,333.133 228.203,329.533 					"/>
				</g>
			</g>
			<g>
				<g>
					<polygon fill="#266279" points="218.664,347.046 80.596,347.046 80.596,339.846 218.664,339.846 222.812,343.446 					"/>
				</g>
				<g>
					<polygon fill="#266279" points="224.055,339.846 362.125,339.846 362.125,347.046 224.055,347.046 228.203,343.446 					"/>
				</g>
			</g>
			<g>
				<g>
					<polygon fill="#266279" points="218.664,360.96 80.596,360.96 80.596,353.76 218.664,353.76 222.812,357.36 					"/>
				</g>
				<g>
					<polygon fill="#266279" points="224.055,353.76 362.125,353.76 362.125,360.96 224.055,360.96 228.203,357.36 					"/>
				</g>
			</g>
		</g>
	</g>
	<g>
		<g>
			<g>
				<g>
					<polygon fill="#266279" points="218.664,68.769 80.596,68.769 80.596,61.57 218.664,61.57 222.812,65.17 					"/>
				</g>
				<g>
					<polygon fill="#266279" points="224.055,61.57 362.125,61.57 362.125,68.769 224.055,68.769 228.203,65.17 					"/>
				</g>
			</g>
			<g>
				<g>
					<polygon fill="#266279" points="218.664,152.252 80.596,152.252 80.596,145.053 218.664,145.053 222.812,148.653 					"/>
				</g>
				<g>
					<polygon fill="#266279" points="224.055,145.053 362.125,145.053 362.125,152.252 224.055,152.252 228.203,148.653 					"/>
				</g>
			</g>
			<g>
				<g>
					<polygon fill="#266279" points="218.664,96.597 80.596,96.597 80.596,89.398 218.664,89.398 222.812,92.998 					"/>
				</g>
				<g>
					<polygon fill="#266279" points="224.055,89.398 362.125,89.398 362.125,96.597 224.055,96.597 228.203,92.998 					"/>
				</g>
			</g>
			<g>
				<g>
					<polygon fill="#266279" points="218.664,82.682 80.596,82.682 80.596,75.483 218.664,75.483 222.812,79.082 					"/>
				</g>
				<g>
					<polygon fill="#266279" points="224.055,75.483 362.125,75.483 362.125,82.682 224.055,82.682 228.203,79.082 					"/>
				</g>
			</g>
			<g>
				<g>
					<polygon fill="#266279" points="218.664,110.511 80.596,110.511 80.596,103.312 218.664,103.312 222.812,106.911 					"/>
				</g>
				<g>
					<polygon fill="#266279" points="224.055,103.312 362.125,103.312 362.125,110.511 224.055,110.511 228.203,106.911 					"/>
				</g>
			</g>
			<g>
				<g>
					<polygon fill="#266279" points="218.664,124.424 80.596,124.424 80.596,117.225 218.664,117.225 222.812,120.825 					"/>
				</g>
				<g>
					<polygon fill="#266279" points="224.055,117.225 362.125,117.225 362.125,124.424 224.055,124.424 228.203,120.825 					"/>
				</g>
			</g>
			<g>
				<g>
					<polygon fill="#266279" points="218.664,138.338 80.596,138.338 80.596,131.139 218.664,131.139 222.812,134.738 					"/>
				</g>
				<g>
					<polygon fill="#266279" points="224.055,131.139 362.125,131.139 362.125,138.338 224.055,138.338 228.203,134.738 					"/>
				</g>
			</g>
		</g>
		<g>
			<path fill="#266279" d="M67.911,64.873h1.696l-0.764-2.448h-5.234l-0.764,2.448h1.797v3.077h-6.457v-3.077h1.27l4.638-13.948
				h4.503l4.537,13.948h1.236v3.077h-6.458V64.873z M64.497,59.55h3.437l-1.729-5.537L64.497,59.55z"/>
		</g>
	</g>
	<g>
		<g>
			<g>
				<g>
					<polygon fill="#266279" points="218.664,402.702 80.596,402.702 80.596,395.502 218.664,395.502 222.812,399.103 					"/>
				</g>
				<g>
					<polygon fill="#266279" points="224.055,395.502 362.125,395.502 362.125,402.702 224.055,402.702 228.203,399.103 					"/>
				</g>
			</g>
			<g>
				<g>
					<polygon fill="#266279" points="218.664,486.184 80.596,486.184 80.596,478.986 218.664,478.986 222.812,482.585 					"/>
				</g>
				<g>
					<polygon fill="#266279" points="224.055,478.986 362.125,478.986 362.125,486.184 224.055,486.184 228.203,482.585 					"/>
				</g>
			</g>
			<g>
				<g>
					<polygon fill="#266279" points="218.664,430.53 80.596,430.53 80.596,423.331 218.664,423.331 222.812,426.93 					"/>
				</g>
				<g>
					<polygon fill="#266279" points="224.055,423.331 362.125,423.331 362.125,430.53 224.055,430.53 228.203,426.93 					"/>
				</g>
			</g>
			<g>
				<g>
					<polygon fill="#266279" points="218.664,416.615 80.596,416.615 80.596,409.416 218.664,409.416 222.812,413.014 					"/>
				</g>
				<g>
					<polygon fill="#266279" points="224.055,409.416 362.125,409.416 362.125,416.615 224.055,416.615 228.203,413.014 					"/>
				</g>
			</g>
			<g>
				<g>
					<polygon fill="#266279" points="218.664,444.444 80.596,444.444 80.596,437.245 218.664,437.245 222.812,440.843 					"/>
				</g>
				<g>
					<polygon fill="#266279" points="224.055,437.245 362.125,437.245 362.125,444.444 224.055,444.444 228.203,440.843 					"/>
				</g>
			</g>
			<g>
				<g>
					<polygon fill="#266279" points="218.664,458.357 80.596,458.357 80.596,451.158 218.664,451.158 222.812,454.757 					"/>
				</g>
				<g>
					<polygon fill="#266279" points="224.055,451.158 362.125,451.158 362.125,458.357 224.055,458.357 228.203,454.757 					"/>
				</g>
			</g>
			<g>
				<g>
					<polygon fill="#266279" points="218.664,472.271 80.596,472.271 80.596,465.072 218.664,465.072 222.812,468.67 					"/>
				</g>
				<g>
					<polygon fill="#266279" points="224.055,465.072 362.125,465.072 362.125,472.271 224.055,472.271 228.203,468.67 					"/>
				</g>
			</g>
		</g>
		<g>
			<path fill="#266279" d="M66.799,384.856h7.289v3.077h-1.797v10.871h1.797v3.077h-7.289v-3.077h1.764v-10.871h-1.764V384.856z"/>
		</g>
	</g>
	<g>
		<g>
			<path fill="#266279" d="M69.491,167.77c-0.419-0.6-0.798-1.024-1.134-1.275c-0.338-0.251-0.701-0.431-1.09-0.539
				s-0.797-0.162-1.225-0.162c-0.629,0-1.213,0.14-1.752,0.421c-0.539,0.281-1.005,0.662-1.397,1.146
				c-0.394,0.482-0.702,1.044-0.927,1.684c-0.225,0.64-0.337,1.32-0.337,2.038c0,0.727,0.11,1.41,0.331,2.05
				c0.221,0.64,0.526,1.199,0.916,1.679c0.389,0.479,0.854,0.859,1.393,1.139c0.539,0.281,1.13,0.421,1.773,0.421
				c0.449,0,0.869-0.072,1.258-0.219c0.39-0.146,0.744-0.339,1.062-0.578c0.318-0.239,0.597-0.515,0.837-0.825
				c0.24-0.31,0.427-0.635,0.562-0.971l3.616,1.011c-0.232,0.733-0.572,1.413-1.021,2.038c-0.449,0.625-0.99,1.166-1.623,1.623
				s-1.344,0.817-2.134,1.078c-0.79,0.261-1.642,0.392-2.556,0.392c-0.771,0-1.508-0.104-2.212-0.314
				c-0.704-0.209-1.36-0.505-1.971-0.887c-0.61-0.382-1.165-0.842-1.662-1.381c-0.498-0.539-0.923-1.137-1.274-1.792
				c-0.353-0.655-0.625-1.358-0.82-2.111c-0.195-0.752-0.292-1.536-0.292-2.353c0-1.22,0.214-2.364,0.64-3.43
				c0.428-1.068,1.012-1.999,1.752-2.797c0.742-0.797,1.612-1.426,2.611-1.887c1-0.46,2.076-0.69,3.229-0.69
				c0.922,0,1.696,0.114,2.325,0.343c0.629,0.228,1.321,0.678,2.077,1.352h2.516v3.797H69.491z"/>
		</g>
		<g>
			<g>
				<g>
					<polygon fill="#266279" points="218.561,193.994 80.49,193.994 80.49,186.795 218.561,186.795 222.709,190.394 					"/>
				</g>
				<g>
					<polygon fill="#266279" points="223.951,186.795 362.021,186.795 362.021,193.994 223.951,193.994 228.1,190.394 					"/>
				</g>
			</g>
			<g>
				<g>
					<polygon fill="#266279" points="218.561,180.081 80.49,180.081 80.49,172.882 218.561,172.882 222.709,176.481 					"/>
				</g>
				<g>
					<polygon fill="#266279" points="223.951,172.882 362.021,172.882 362.021,180.081 223.951,180.081 228.1,176.481 					"/>
				</g>
			</g>
			<g>
				<g>
					<polygon fill="#266279" points="218.561,207.908 80.49,207.908 80.49,200.708 218.561,200.708 222.709,204.308 					"/>
				</g>
				<g>
					<polygon fill="#266279" points="223.951,200.708 362.021,200.708 362.021,207.908 223.951,207.908 228.1,204.308 					"/>
				</g>
			</g>
			<g>
				<g>
					<polygon fill="#266279" points="218.561,235.735 80.49,235.735 80.49,228.536 218.561,228.536 222.709,232.134 					"/>
				</g>
				<g>
					<polygon fill="#266279" points="223.951,228.536 362.021,228.536 362.021,235.735 223.951,235.735 228.1,232.134 					"/>
				</g>
			</g>
			<g>
				<g>
					<polygon fill="#266279" points="218.664,221.822 80.596,221.822 80.596,214.623 218.664,214.623 222.812,218.222 					"/>
				</g>
				<g>
					<polygon fill="#266279" points="224.055,214.623 362.125,214.623 362.125,221.822 224.055,221.822 228.203,218.222 					"/>
				</g>
			</g>
			<g>
				<g>
					<polygon fill="#266279" points="218.561,249.65 80.49,249.65 80.49,242.451 218.561,242.451 222.709,246.05 					"/>
				</g>
				<g>
					<polygon fill="#266279" points="223.951,242.451 362.021,242.451 362.021,249.65 223.951,249.65 228.1,246.05 					"/>
				</g>
			</g>
			<g>
				<g>
					<polygon fill="#266279" points="218.561,263.563 80.49,263.563 80.49,256.364 218.561,256.364 222.709,259.963 					"/>
				</g>
				<g>
					<polygon fill="#266279" points="223.951,256.364 362.021,256.364 362.021,263.563 223.951,263.563 228.1,259.963 					"/>
				</g>
			</g>
		</g>
	</g>
</g>
</svg>
