<?xml version="1.0" encoding="utf-8"?>
<!-- Generator: Adobe Illustrator 16.0.4, SVG Export Plug-In . SVG Version: 6.00 Build 0)  -->
<!DOCTYPE svg PUBLIC "-//W3C//DTD SVG 1.1//EN" "http://www.w3.org/Graphics/SVG/1.1/DTD/svg11.dtd">
<svg version="1.1" id="Layer_1" xmlns="http://www.w3.org/2000/svg" xmlns:xlink="http://www.w3.org/1999/xlink" x="0px" y="0px"
	 width="448.746px" height="616.441px" viewBox="0 0 448.746 616.441" enable-background="new 0 0 448.746 616.441"
	 xml:space="preserve">
<rect x="0.5" y="0.5" fill="#FFFFFF" stroke="#C68D06" stroke-miterlimit="10" width="447.746" height="615.441"/>
<g>
	<path fill="#C68D06" d="M350.079,575.867h-12.461v-1.855l11.796-17.781h3.046v17.432h4.375v2.205h-4.375v6.266h-2.381V575.867z
		 M350.079,573.662v-14.526h-0.069l-9.592,14.526H350.079z"/>
	<path fill="#C68D06" d="M374.789,575.867h-12.461v-1.855l11.796-17.781h3.046v17.432h4.375v2.205h-4.375v6.266h-2.381V575.867z
		 M374.789,573.662v-14.526h-0.069l-9.592,14.526H374.789z"/>
	<path fill="#C68D06" d="M389.208,556.23h8.681c5.776,0,8.996,2.45,8.996,7c0,4.201-2.45,6.301-6.195,7.001l6.546,11.902h-2.801
		l-6.336-11.621h-6.44v11.621h-2.45V556.23z M397.714,568.307c4.271,0,6.686-1.226,6.686-4.97c0-3.571-2.38-4.831-6.721-4.831
		h-6.021v9.802H397.714z"/>
</g>
<g>
	<rect x="80.221" y="157.967" fill="#C0DDE7" width="281.738" height="7.199"/>
</g>
<g>
	<rect x="80.221" y="185.794" fill="#C0DDE7" width="281.738" height="7.2"/>
</g>
<g>
	<rect x="80.221" y="199.709" fill="#C0DDE7" width="281.738" height="7.199"/>
</g>
<g>
	<rect x="80.221" y="213.623" fill="#C0DDE7" width="281.738" height="7.199"/>
</g>
<g>
	<rect x="80.221" y="227.536" fill="#C0DDE7" width="281.738" height="7.199"/>
</g>
<g>
	<rect x="80.221" y="241.45" fill="#C0DDE7" width="281.738" height="7.2"/>
</g>
<g>
	<rect x="80.221" y="255.363" fill="#C0DDE7" width="281.738" height="7.201"/>
</g>
<g>
	<rect x="80.221" y="269.277" fill="#C0DDE7" width="281.738" height="7.199"/>
</g>
<g>
	<rect x="80.221" y="283.191" fill="#C0DDE7" width="281.738" height="7.2"/>
</g>
<g>
	<rect x="80.221" y="297.106" fill="#C0DDE7" width="281.738" height="7.199"/>
</g>
<g>
	<rect x="80.221" y="311.019" fill="#C0DDE7" width="281.738" height="7.2"/>
</g>
<g>
	<rect x="80.221" y="324.933" fill="#C0DDE7" width="281.738" height="7.199"/>
</g>
<g>
	<rect x="80.221" y="338.846" fill="#C0DDE7" width="281.738" height="7.2"/>
</g>
<g>
	<rect x="80.221" y="352.76" fill="#C0DDE7" width="281.738" height="7.201"/>
</g>
<g>
	<rect x="80.221" y="366.674" fill="#C0DDE7" width="281.738" height="7.2"/>
</g>
<g>
	<rect x="80.221" y="380.588" fill="#C0DDE7" width="281.738" height="7.199"/>
</g>
<g>
	<rect x="80.221" y="394.502" fill="#C0DDE7" width="281.738" height="7.199"/>
</g>
<g>
	<rect x="80.221" y="408.416" fill="#C0DDE7" width="281.738" height="7.199"/>
</g>
<g>
	<rect x="80.221" y="422.329" fill="#C0DDE7" width="281.738" height="7.2"/>
</g>
<g>
	<rect x="80.221" y="436.243" fill="#C0DDE7" width="281.738" height="7.2"/>
</g>
<g>
	<rect x="80.221" y="450.157" fill="#C0DDE7" width="281.738" height="7.201"/>
</g>
<g>
	<rect x="80.221" y="464.071" fill="#C0DDE7" width="281.738" height="7.199"/>
</g>
<g>
	<rect x="80.221" y="477.984" fill="#C0DDE7" width="281.738" height="7.2"/>
</g>
<g>
	<rect x="80.221" y="60.569" fill="#C0DDE7" width="281.738" height="7.2"/>
</g>
<g>
	<rect x="80.221" y="74.483" fill="#C0DDE7" width="281.738" height="7.2"/>
</g>
<g>
	<rect x="80.221" y="144.053" fill="#C0DDE7" width="281.738" height="7.2"/>
</g>
<g>
	<rect x="80.221" y="171.881" fill="#C0DDE7" width="281.738" height="7.2"/>
</g>
<g>
	<rect x="80.221" y="88.398" fill="#C0DDE7" width="281.738" height="7.199"/>
</g>
<g>
	<rect x="80.221" y="102.312" fill="#C0DDE7" width="281.738" height="7.2"/>
</g>
<g>
	<rect x="80.221" y="116.226" fill="#C0DDE7" width="281.738" height="7.199"/>
</g>
<g>
	<rect x="80.221" y="130.141" fill="#C0DDE7" width="281.738" height="7.197"/>
</g>
<g>
	<rect x="80.221" y="157.967" fill="#C0DDE7" width="281.738" height="7.201"/>
</g>
<g>
	<g>
		<g>
			<path fill="#266279" d="M60.109,273.593h7.861c0.876,0,1.681,0.137,2.415,0.41c0.733,0.273,1.365,0.642,1.897,1.105
				c0.532,0.465,0.947,1,1.247,1.606c0.299,0.606,0.449,1.239,0.449,1.897c0,0.794-0.119,1.538-0.354,2.229
				c-0.236,0.692-0.602,1.294-1.096,1.803s-1.119,0.911-1.875,1.207c-0.757,0.296-1.651,0.445-2.685,0.445h-2.37v3.245h1.562v3.077
				h-7.053v-3.077h1.763v-10.86h-1.763V273.593z M65.601,276.681v4.571h1.539c0.854,0,1.531-0.18,2.033-0.539
				c0.501-0.359,0.752-0.929,0.752-1.707c0-0.727-0.236-1.295-0.707-1.707c-0.473-0.412-1.164-0.618-2.078-0.618H65.601z"/>
		</g>
		<g>
			<g>
				<g>
					<polygon fill="#266279" points="218.498,290.392 80.428,290.392 80.428,283.192 218.498,283.192 222.646,286.792 					"/>
				</g>
				<g>
					<polygon fill="#266279" points="223.889,283.192 361.959,283.192 361.959,290.392 223.889,290.392 228.037,286.792 					"/>
				</g>
			</g>
			<g>
				<g>
					<polygon fill="#266279" points="218.498,304.306 80.428,304.306 80.428,297.106 218.498,297.106 222.646,300.706 					"/>
				</g>
				<g>
					<polygon fill="#266279" points="223.889,297.106 361.959,297.106 361.959,304.306 223.889,304.306 228.037,300.706 					"/>
				</g>
			</g>
			<g>
				<g>
					<polygon fill="#266279" points="218.498,373.874 80.428,373.874 80.428,366.675 218.498,366.675 222.646,370.274 					"/>
				</g>
				<g>
					<polygon fill="#266279" points="223.889,366.675 361.959,366.675 361.959,373.874 223.889,373.874 228.037,370.274 					"/>
				</g>
			</g>
			<g>
				<g>
					<polygon fill="#266279" points="218.498,318.219 80.428,318.219 80.428,311.02 218.498,311.02 222.646,314.619 					"/>
				</g>
				<g>
					<polygon fill="#266279" points="223.889,311.02 361.959,311.02 361.959,318.219 223.889,318.219 228.037,314.619 					"/>
				</g>
			</g>
			<g>
				<g>
					<polygon fill="#266279" points="218.498,332.134 80.428,332.134 80.428,324.935 218.498,324.935 222.646,328.533 					"/>
				</g>
				<g>
					<polygon fill="#266279" points="223.889,324.935 361.959,324.935 361.959,332.134 223.889,332.134 228.037,328.533 					"/>
				</g>
			</g>
			<g>
				<g>
					<polygon fill="#266279" points="218.498,346.047 80.428,346.047 80.428,338.847 218.498,338.847 222.646,342.447 					"/>
				</g>
				<g>
					<polygon fill="#266279" points="223.889,338.847 361.959,338.847 361.959,346.047 223.889,346.047 228.037,342.447 					"/>
				</g>
			</g>
			<g>
				<g>
					<polygon fill="#266279" points="218.498,359.961 80.428,359.961 80.428,352.761 218.498,352.761 222.646,356.36 					"/>
				</g>
				<g>
					<polygon fill="#266279" points="223.889,352.761 361.959,352.761 361.959,359.961 223.889,359.961 228.037,356.36 					"/>
				</g>
			</g>
		</g>
	</g>
	<g>
		<g>
			<g>
				<g>
					<polygon fill="#266279" points="218.498,67.77 80.428,67.77 80.428,60.57 218.498,60.57 222.646,64.171 					"/>
				</g>
				<g>
					<polygon fill="#266279" points="223.889,60.57 361.959,60.57 361.959,67.77 223.889,67.77 228.037,64.171 					"/>
				</g>
			</g>
			<g>
				<g>
					<polygon fill="#266279" points="218.498,151.252 80.428,151.252 80.428,144.054 218.498,144.054 222.646,147.653 					"/>
				</g>
				<g>
					<polygon fill="#266279" points="223.889,144.054 361.959,144.054 361.959,151.252 223.889,151.252 228.037,147.653 					"/>
				</g>
			</g>
			<g>
				<g>
					<polygon fill="#266279" points="218.498,95.598 80.428,95.598 80.428,88.398 218.498,88.398 222.646,91.998 					"/>
				</g>
				<g>
					<polygon fill="#266279" points="223.889,88.398 361.959,88.398 361.959,95.598 223.889,95.598 228.037,91.998 					"/>
				</g>
			</g>
			<g>
				<g>
					<polygon fill="#266279" points="218.498,81.683 80.428,81.683 80.428,74.483 218.498,74.483 222.646,78.082 					"/>
				</g>
				<g>
					<polygon fill="#266279" points="223.889,74.483 361.959,74.483 361.959,81.683 223.889,81.683 228.037,78.082 					"/>
				</g>
			</g>
			<g>
				<g>
					<polygon fill="#266279" points="218.498,109.512 80.428,109.512 80.428,102.312 218.498,102.312 222.646,105.911 					"/>
				</g>
				<g>
					<polygon fill="#266279" points="223.889,102.312 361.959,102.312 361.959,109.512 223.889,109.512 228.037,105.911 					"/>
				</g>
			</g>
			<g>
				<g>
					<polygon fill="#266279" points="218.498,123.425 80.428,123.425 80.428,116.226 218.498,116.226 222.646,119.825 					"/>
				</g>
				<g>
					<polygon fill="#266279" points="223.889,116.226 361.959,116.226 361.959,123.425 223.889,123.425 228.037,119.825 					"/>
				</g>
			</g>
			<g>
				<g>
					<polygon fill="#266279" points="218.498,137.339 80.428,137.339 80.428,130.14 218.498,130.14 222.646,133.738 					"/>
				</g>
				<g>
					<polygon fill="#266279" points="223.889,130.14 361.959,130.14 361.959,137.339 223.889,137.339 228.037,133.738 					"/>
				</g>
			</g>
		</g>
		<g>
			<path fill="#266279" d="M69.934,54.72c-0.038-0.262-0.129-0.509-0.275-0.74c-0.146-0.232-0.333-0.433-0.562-0.602
				c-0.229-0.168-0.486-0.301-0.774-0.398c-0.288-0.098-0.59-0.147-0.904-0.147c-0.284,0-0.55,0.03-0.798,0.09
				c-0.246,0.061-0.462,0.152-0.646,0.275c-0.183,0.124-0.329,0.284-0.438,0.478c-0.108,0.194-0.163,0.427-0.163,0.696
				c0,0.337,0.073,0.604,0.219,0.803c0.146,0.198,0.334,0.361,0.562,0.489c0.229,0.128,0.481,0.228,0.759,0.303
				c0.276,0.075,0.546,0.157,0.809,0.247l3.088,1.034c0.427,0.149,0.827,0.355,1.201,0.617c0.375,0.263,0.699,0.581,0.972,0.955
				c0.273,0.374,0.489,0.805,0.646,1.291c0.158,0.487,0.236,1.033,0.236,1.641c0,0.823-0.151,1.575-0.455,2.257
				c-0.303,0.682-0.729,1.266-1.274,1.751c-0.546,0.486-1.202,0.864-1.966,1.134c-0.764,0.27-1.609,0.404-2.537,0.404
				c-0.652,0-1.268-0.072-1.848-0.218s-1.11-0.358-1.59-0.635c-0.479-0.276-0.898-0.607-1.258-0.993
				c-0.359-0.385-0.64-0.822-0.842-1.309h-1.156v-3.379h4.064v0.695c0,0.338,0.055,0.648,0.163,0.933s0.271,0.531,0.489,0.742
				c0.217,0.209,0.49,0.372,0.819,0.488s0.715,0.174,1.157,0.174c0.674,0,1.186-0.155,1.538-0.466s0.528-0.743,0.528-1.297
				c0-0.284-0.062-0.522-0.186-0.713c-0.124-0.191-0.283-0.353-0.478-0.483s-0.411-0.241-0.651-0.331s-0.476-0.172-0.707-0.247
				l-2.572-0.831c-0.486-0.149-0.957-0.359-1.409-0.629c-0.453-0.27-0.854-0.606-1.202-1.011c-0.348-0.404-0.625-0.878-0.831-1.421
				c-0.206-0.543-0.309-1.162-0.309-1.858c0-0.809,0.149-1.529,0.449-2.162s0.719-1.166,1.258-1.6
				c0.539-0.435,1.179-0.763,1.921-0.988c0.74-0.225,1.553-0.338,2.437-0.338c0.696,0,1.341,0.081,1.932,0.242
				c0.591,0.161,1.121,0.376,1.589,0.646c0.469,0.27,0.865,0.578,1.19,0.927c0.326,0.347,0.575,0.708,0.747,1.083h1.123v3.391
				h-4.065V54.72z"/>
		</g>
	</g>
	<g>
		<g>
			<g>
				<g>
					<polygon fill="#266279" points="218.498,401.702 80.428,401.702 80.428,394.503 218.498,394.503 222.646,398.104 					"/>
				</g>
				<g>
					<polygon fill="#266279" points="223.889,394.503 361.959,394.503 361.959,401.702 223.889,401.702 228.037,398.104 					"/>
				</g>
			</g>
			<g>
				<g>
					<polygon fill="#266279" points="218.498,485.185 80.428,485.185 80.428,477.986 218.498,477.986 222.646,481.586 					"/>
				</g>
				<g>
					<polygon fill="#266279" points="223.889,477.986 361.959,477.986 361.959,485.185 223.889,485.185 228.037,481.586 					"/>
				</g>
			</g>
			<g>
				<g>
					<polygon fill="#266279" points="218.498,429.53 80.428,429.53 80.428,422.332 218.498,422.332 222.646,425.931 					"/>
				</g>
				<g>
					<polygon fill="#266279" points="223.889,422.332 361.959,422.332 361.959,429.53 223.889,429.53 228.037,425.931 					"/>
				</g>
			</g>
			<g>
				<g>
					<polygon fill="#266279" points="218.498,415.615 80.428,415.615 80.428,408.416 218.498,408.416 222.646,412.015 					"/>
				</g>
				<g>
					<polygon fill="#266279" points="223.889,408.416 361.959,408.416 361.959,415.615 223.889,415.615 228.037,412.015 					"/>
				</g>
			</g>
			<g>
				<g>
					<polygon fill="#266279" points="218.498,443.444 80.428,443.444 80.428,436.245 218.498,436.245 222.646,439.844 					"/>
				</g>
				<g>
					<polygon fill="#266279" points="223.889,436.245 361.959,436.245 361.959,443.444 223.889,443.444 228.037,439.844 					"/>
				</g>
			</g>
			<g>
				<g>
					<polygon fill="#266279" points="218.498,457.358 80.428,457.358 80.428,450.158 218.498,450.158 222.646,453.758 					"/>
				</g>
				<g>
					<polygon fill="#266279" points="223.889,450.158 361.959,450.158 361.959,457.358 223.889,457.358 228.037,453.758 					"/>
				</g>
			</g>
			<g>
				<g>
					<polygon fill="#266279" points="218.498,471.271 80.428,471.271 80.428,464.072 218.498,464.072 222.646,467.671 					"/>
				</g>
				<g>
					<polygon fill="#266279" points="223.889,464.072 361.959,464.072 361.959,471.271 223.889,471.271 228.037,467.671 					"/>
				</g>
			</g>
		</g>
		<g>
			<path fill="#266279" d="M67.743,397.805h1.696l-0.764-2.449h-5.233l-0.764,2.449h1.797v3.077h-6.457v-3.077h1.269l4.638-13.949
				h4.504l4.537,13.949h1.235v3.077h-6.458V397.805z M64.329,392.482h3.438l-1.73-5.538L64.329,392.482z"/>
		</g>
	</g>
	<g>
		<g>
			<path fill="#266279" d="M58.79,161.593h6.535c0.779,0,1.525,0.102,2.24,0.303c0.716,0.203,1.383,0.487,2,0.854
				c0.617,0.367,1.18,0.808,1.684,1.32c0.506,0.513,0.938,1.084,1.298,1.713s0.636,1.306,0.831,2.032
				c0.195,0.727,0.292,1.482,0.292,2.269c0,0.786-0.097,1.542-0.292,2.268s-0.472,1.405-0.831,2.038s-0.792,1.209-1.298,1.729
				c-0.504,0.521-1.066,0.966-1.684,1.337c-0.617,0.37-1.284,0.656-2,0.859c-0.715,0.202-1.461,0.303-2.24,0.303H58.79v-3.077h1.358
				v-10.86H58.79V161.593z M63.877,164.681v10.86h1.427c0.605,0,1.179-0.143,1.718-0.427s1.007-0.672,1.403-1.162
				c0.397-0.49,0.712-1.067,0.943-1.729c0.232-0.663,0.349-1.376,0.349-2.139c0-0.756-0.116-1.464-0.349-2.124
				c-0.231-0.658-0.546-1.231-0.943-1.718c-0.396-0.486-0.864-0.868-1.403-1.145c-0.539-0.278-1.112-0.416-1.718-0.416H63.877z"/>
		</g>
		<g>
			<g>
				<g>
					<polygon fill="#266279" points="218.395,192.994 80.322,192.994 80.322,185.796 218.395,185.796 222.543,189.395 					"/>
				</g>
				<g>
					<polygon fill="#266279" points="223.785,185.796 361.855,185.796 361.855,192.994 223.785,192.994 227.934,189.395 					"/>
				</g>
			</g>
			<g>
				<g>
					<polygon fill="#266279" points="218.395,179.081 80.322,179.081 80.322,171.882 218.395,171.882 222.543,175.482 					"/>
				</g>
				<g>
					<polygon fill="#266279" points="223.785,171.882 361.855,171.882 361.855,179.081 223.785,179.081 227.934,175.482 					"/>
				</g>
			</g>
			<g>
				<g>
					<polygon fill="#266279" points="218.395,206.908 80.322,206.908 80.322,199.709 218.395,199.709 222.543,203.309 					"/>
				</g>
				<g>
					<polygon fill="#266279" points="223.785,199.709 361.855,199.709 361.855,206.908 223.785,206.908 227.934,203.309 					"/>
				</g>
			</g>
			<g>
				<g>
					<polygon fill="#266279" points="218.395,234.735 80.322,234.735 80.322,227.536 218.395,227.536 222.543,231.135 					"/>
				</g>
				<g>
					<polygon fill="#266279" points="223.785,227.536 361.855,227.536 361.855,234.735 223.785,234.735 227.934,231.135 					"/>
				</g>
			</g>
			<g>
				<g>
					<polygon fill="#266279" points="218.498,220.822 80.428,220.822 80.428,213.624 218.498,213.624 222.646,217.223 					"/>
				</g>
				<g>
					<polygon fill="#266279" points="223.889,213.624 361.959,213.624 361.959,220.822 223.889,220.822 228.037,217.223 					"/>
				</g>
			</g>
			<g>
				<g>
					<polygon fill="#266279" points="218.395,248.65 80.322,248.65 80.322,241.451 218.395,241.451 222.543,245.051 					"/>
				</g>
				<g>
					<polygon fill="#266279" points="223.785,241.451 361.855,241.451 361.855,248.65 223.785,248.65 227.934,245.051 					"/>
				</g>
			</g>
			<g>
				<g>
					<polygon fill="#266279" points="218.395,262.563 80.322,262.563 80.322,255.364 218.395,255.364 222.543,258.964 					"/>
				</g>
				<g>
					<polygon fill="#266279" points="223.785,255.364 361.855,255.364 361.855,262.563 223.785,262.563 227.934,258.964 					"/>
				</g>
			</g>
		</g>
	</g>
</g>
</svg>
