<?xml version="1.0" encoding="utf-8"?>
<!-- Generator: Adobe Illustrator 16.0.4, SVG Export Plug-In . SVG Version: 6.00 Build 0)  -->
<!DOCTYPE svg PUBLIC "-//W3C//DTD SVG 1.1//EN" "http://www.w3.org/Graphics/SVG/1.1/DTD/svg11.dtd">
<svg version="1.1" id="Layer_1" xmlns="http://www.w3.org/2000/svg" xmlns:xlink="http://www.w3.org/1999/xlink" x="0px" y="0px"
	 width="448.746px" height="616.435px" viewBox="0 0 448.746 616.435" enable-background="new 0 0 448.746 616.435"
	 xml:space="preserve">
<rect x="0.501" y="0.5" fill="#FFFFFF" stroke="#C68D06" stroke-miterlimit="10" width="447.746" height="615.435"/>
<g>
	<path fill="#C68D06" d="M350.652,575.864h-12.461v-1.855l11.796-17.781h3.046v17.432h4.375v2.205h-4.375v6.266h-2.381V575.864z
		 M350.652,573.659v-14.526h-0.069l-9.592,14.526H350.652z"/>
	<path fill="#C68D06" d="M363.111,577.964l1.785-1.436c1.575,2.275,3.641,3.921,6.721,3.921c4.445,0,6.476-3.291,6.476-6.791
		c0-4.2-2.485-6.44-5.916-6.44c-2.66,0-4.48,1.189-5.915,3.255l-1.855-0.7l1.016-13.546h13.686l-0.21,2.274h-11.411l-0.699,8.996
		c1.26-1.47,2.975-2.415,5.74-2.415c4.69,0,8.016,3.29,8.016,8.471s-3.396,9.066-8.891,9.066
		C367.906,582.62,364.861,580.729,363.111,577.964z"/>
	<path fill="#C68D06" d="M388.94,556.227h8.681c5.776,0,8.996,2.45,8.996,7c0,4.201-2.45,6.301-6.195,7.001l6.546,11.901h-2.801
		l-6.336-11.621h-6.44v11.621h-2.45V556.227z M397.446,568.303c4.271,0,6.686-1.226,6.686-4.971c0-3.57-2.38-4.831-6.721-4.831
		h-6.021v9.802H397.446z"/>
</g>
<g>
	<rect x="80.222" y="157.966" fill="#C0DDE7" width="281.738" height="7.199"/>
</g>
<g>
	<rect x="80.222" y="185.793" fill="#C0DDE7" width="281.738" height="7.2"/>
</g>
<g>
	<rect x="80.222" y="199.708" fill="#C0DDE7" width="281.738" height="7.199"/>
</g>
<g>
	<rect x="80.222" y="213.623" fill="#C0DDE7" width="281.738" height="7.199"/>
</g>
<g>
	<rect x="80.222" y="227.536" fill="#C0DDE7" width="281.738" height="7.199"/>
</g>
<g>
	<rect x="80.222" y="241.45" fill="#C0DDE7" width="281.738" height="7.199"/>
</g>
<g>
	<rect x="80.222" y="255.363" fill="#C0DDE7" width="281.738" height="7.2"/>
</g>
<g>
	<rect x="80.222" y="269.277" fill="#C0DDE7" width="281.738" height="7.199"/>
</g>
<g>
	<rect x="80.222" y="283.191" fill="#C0DDE7" width="281.738" height="7.2"/>
</g>
<g>
	<rect x="80.222" y="297.105" fill="#C0DDE7" width="281.738" height="7.199"/>
</g>
<g>
	<rect x="80.222" y="311.018" fill="#C0DDE7" width="281.738" height="7.2"/>
</g>
<g>
	<rect x="80.222" y="324.932" fill="#C0DDE7" width="281.738" height="7.199"/>
</g>
<g>
	<rect x="80.222" y="338.846" fill="#C0DDE7" width="281.738" height="7.199"/>
</g>
<g>
	<rect x="80.222" y="352.759" fill="#C0DDE7" width="281.738" height="7.201"/>
</g>
<g>
	<rect x="80.222" y="366.673" fill="#C0DDE7" width="281.738" height="7.2"/>
</g>
<g>
	<rect x="80.222" y="380.587" fill="#C0DDE7" width="281.738" height="7.199"/>
</g>
<g>
	<rect x="80.222" y="394.501" fill="#C0DDE7" width="281.738" height="7.199"/>
</g>
<g>
	<rect x="80.222" y="408.416" fill="#C0DDE7" width="281.738" height="7.199"/>
</g>
<g>
	<rect x="80.222" y="422.329" fill="#C0DDE7" width="281.738" height="7.2"/>
</g>
<g>
	<rect x="80.222" y="436.243" fill="#C0DDE7" width="281.738" height="7.2"/>
</g>
<g>
	<rect x="80.222" y="450.157" fill="#C0DDE7" width="281.738" height="7.2"/>
</g>
<g>
	<rect x="80.222" y="464.071" fill="#C0DDE7" width="281.738" height="7.199"/>
</g>
<g>
	<rect x="80.222" y="477.984" fill="#C0DDE7" width="281.738" height="7.2"/>
</g>
<g>
	<rect x="80.222" y="60.569" fill="#C0DDE7" width="281.738" height="7.2"/>
</g>
<g>
	<rect x="80.222" y="74.483" fill="#C0DDE7" width="281.738" height="7.2"/>
</g>
<g>
	<rect x="80.222" y="144.052" fill="#C0DDE7" width="281.738" height="7.2"/>
</g>
<g>
	<rect x="80.222" y="171.88" fill="#C0DDE7" width="281.738" height="7.2"/>
</g>
<g>
	<rect x="80.222" y="88.397" fill="#C0DDE7" width="281.738" height="7.199"/>
</g>
<g>
	<rect x="80.222" y="102.311" fill="#C0DDE7" width="281.738" height="7.2"/>
</g>
<g>
	<rect x="80.222" y="116.225" fill="#C0DDE7" width="281.738" height="7.199"/>
</g>
<g>
	<rect x="80.222" y="130.14" fill="#C0DDE7" width="281.738" height="7.198"/>
</g>
<g>
	<rect x="80.222" y="157.966" fill="#C0DDE7" width="281.738" height="7.2"/>
</g>
<g>
	<g>
		<path fill="#266279" d="M65.344,290.92c-0.771,0-1.508-0.104-2.212-0.314c-0.704-0.209-1.36-0.505-1.971-0.887
			s-1.165-0.841-1.662-1.376c-0.498-0.535-0.923-1.13-1.274-1.785c-0.353-0.655-0.625-1.357-0.82-2.106
			c-0.195-0.748-0.292-1.53-0.292-2.347s0.097-1.601,0.292-2.353c0.195-0.753,0.468-1.456,0.82-2.111
			c0.352-0.655,0.776-1.251,1.274-1.786c0.497-0.535,1.052-0.993,1.662-1.376c0.61-0.381,1.267-0.677,1.971-0.887
			s1.441-0.314,2.212-0.314c0.771,0,1.511,0.104,2.219,0.314c0.707,0.21,1.366,0.506,1.977,0.887
			c0.609,0.383,1.164,0.841,1.662,1.376s0.924,1.131,1.28,1.786c0.355,0.655,0.63,1.358,0.825,2.111
			c0.195,0.752,0.292,1.536,0.292,2.353c0,0.809-0.097,1.589-0.292,2.342c-0.195,0.752-0.47,1.456-0.825,2.111
			c-0.356,0.655-0.782,1.25-1.28,1.785s-1.053,0.994-1.662,1.376c-0.61,0.382-1.27,0.678-1.977,0.887
			C66.854,290.816,66.115,290.92,65.344,290.92z M65.344,287.395c0.652,0,1.249-0.141,1.792-0.422
			c0.542-0.28,1.009-0.662,1.397-1.146c0.39-0.482,0.691-1.044,0.904-1.685c0.214-0.64,0.32-1.319,0.32-2.038
			c0-0.727-0.108-1.411-0.326-2.056c-0.217-0.644-0.521-1.207-0.915-1.689c-0.393-0.483-0.858-0.865-1.397-1.146
			c-0.539-0.281-1.131-0.421-1.775-0.421c-0.644,0-1.234,0.14-1.773,0.421c-0.539,0.28-1.004,0.662-1.393,1.146
			c-0.39,0.482-0.695,1.046-0.916,1.689c-0.221,0.645-0.331,1.329-0.331,2.056c0,0.719,0.11,1.398,0.331,2.038
			c0.221,0.641,0.526,1.202,0.916,1.685c0.389,0.483,0.854,0.865,1.393,1.146C64.109,287.254,64.7,287.395,65.344,287.395z"/>
	</g>
	<g>
		<g>
			<g>
				<polygon fill="#266279" points="218.499,290.391 80.43,290.391 80.43,283.192 218.499,283.192 222.647,286.792 				"/>
			</g>
			<g>
				<polygon fill="#266279" points="223.89,283.192 361.96,283.192 361.96,290.391 223.89,290.391 228.038,286.792 				"/>
			</g>
		</g>
		<g>
			<g>
				<polygon fill="#266279" points="218.499,304.305 80.43,304.305 80.43,297.106 218.499,297.106 222.647,300.706 				"/>
			</g>
			<g>
				<polygon fill="#266279" points="223.89,297.106 361.96,297.106 361.96,304.305 223.89,304.305 228.038,300.706 				"/>
			</g>
		</g>
		<g>
			<g>
				<polygon fill="#266279" points="218.499,373.874 80.43,373.874 80.43,366.674 218.499,366.674 222.647,370.274 				"/>
			</g>
			<g>
				<polygon fill="#266279" points="223.89,366.674 361.96,366.674 361.96,373.874 223.89,373.874 228.038,370.274 				"/>
			</g>
		</g>
		<g>
			<g>
				<polygon fill="#266279" points="218.499,318.218 80.43,318.218 80.43,311.019 218.499,311.019 222.647,314.619 				"/>
			</g>
			<g>
				<polygon fill="#266279" points="223.89,311.019 361.96,311.019 361.96,318.218 223.89,318.218 228.038,314.619 				"/>
			</g>
		</g>
		<g>
			<g>
				<polygon fill="#266279" points="218.499,332.133 80.43,332.133 80.43,324.934 218.499,324.934 222.647,328.533 				"/>
			</g>
			<g>
				<polygon fill="#266279" points="223.89,324.934 361.96,324.934 361.96,332.133 223.89,332.133 228.038,328.533 				"/>
			</g>
		</g>
		<g>
			<g>
				<polygon fill="#266279" points="218.499,346.046 80.43,346.046 80.43,338.846 218.499,338.846 222.647,342.446 				"/>
			</g>
			<g>
				<polygon fill="#266279" points="223.89,338.846 361.96,338.846 361.96,346.046 223.89,346.046 228.038,342.446 				"/>
			</g>
		</g>
		<g>
			<g>
				<polygon fill="#266279" points="218.499,359.96 80.43,359.96 80.43,352.76 218.499,352.76 222.647,356.36 				"/>
			</g>
			<g>
				<polygon fill="#266279" points="223.89,352.76 361.96,352.76 361.96,359.96 223.89,359.96 228.038,356.36 				"/>
			</g>
		</g>
	</g>
</g>
<g>
	<g>
		<g>
			<g>
				<polygon fill="#266279" points="218.499,67.769 80.43,67.769 80.43,60.57 218.499,60.57 222.647,64.17 				"/>
			</g>
			<g>
				<polygon fill="#266279" points="223.89,60.57 361.96,60.57 361.96,67.769 223.89,67.769 228.038,64.17 				"/>
			</g>
		</g>
		<g>
			<g>
				<polygon fill="#266279" points="218.499,151.252 80.43,151.252 80.43,144.053 218.499,144.053 222.647,147.653 				"/>
			</g>
			<g>
				<polygon fill="#266279" points="223.89,144.053 361.96,144.053 361.96,151.252 223.89,151.252 228.038,147.653 				"/>
			</g>
		</g>
		<g>
			<g>
				<polygon fill="#266279" points="218.499,95.597 80.43,95.597 80.43,88.398 218.499,88.398 222.647,91.998 				"/>
			</g>
			<g>
				<polygon fill="#266279" points="223.89,88.398 361.96,88.398 361.96,95.597 223.89,95.597 228.038,91.998 				"/>
			</g>
		</g>
		<g>
			<g>
				<polygon fill="#266279" points="218.499,81.682 80.43,81.682 80.43,74.483 218.499,74.483 222.647,78.082 				"/>
			</g>
			<g>
				<polygon fill="#266279" points="223.89,74.483 361.96,74.483 361.96,81.682 223.89,81.682 228.038,78.082 				"/>
			</g>
		</g>
		<g>
			<g>
				<polygon fill="#266279" points="218.499,109.511 80.43,109.511 80.43,102.312 218.499,102.312 222.647,105.911 				"/>
			</g>
			<g>
				<polygon fill="#266279" points="223.89,102.312 361.96,102.312 361.96,109.511 223.89,109.511 228.038,105.911 				"/>
			</g>
		</g>
		<g>
			<g>
				<polygon fill="#266279" points="218.499,123.424 80.43,123.424 80.43,116.225 218.499,116.225 222.647,119.825 				"/>
			</g>
			<g>
				<polygon fill="#266279" points="223.89,116.225 361.96,116.225 361.96,123.424 223.89,123.424 228.038,119.825 				"/>
			</g>
		</g>
		<g>
			<g>
				<polygon fill="#266279" points="218.499,137.338 80.43,137.338 80.43,130.139 218.499,130.139 222.647,133.738 				"/>
			</g>
			<g>
				<polygon fill="#266279" points="223.89,130.139 361.96,130.139 361.96,137.338 223.89,137.338 228.038,133.738 				"/>
			</g>
		</g>
	</g>
	<g>
		<path fill="#266279" d="M66.937,49.924h7.288v3.088h-1.516L68.16,66.95h-4.604l-4.414-13.937h-1.64v-3.088h7.3v3.088h-1.819
			l2.965,9.658l2.954-9.658h-1.966V49.924z"/>
	</g>
</g>
<g>
	<g>
		<g>
			<g>
				<polygon fill="#266279" points="218.499,401.702 80.43,401.702 80.43,394.502 218.499,394.502 222.647,398.103 				"/>
			</g>
			<g>
				<polygon fill="#266279" points="223.89,394.502 361.96,394.502 361.96,401.702 223.89,401.702 228.038,398.103 				"/>
			</g>
		</g>
		<g>
			<g>
				<polygon fill="#266279" points="218.499,485.184 80.43,485.184 80.43,477.986 218.499,477.986 222.647,481.585 				"/>
			</g>
			<g>
				<polygon fill="#266279" points="223.89,477.986 361.96,477.986 361.96,485.184 223.89,485.184 228.038,481.585 				"/>
			</g>
		</g>
		<g>
			<g>
				<polygon fill="#266279" points="218.499,429.53 80.43,429.53 80.43,422.331 218.499,422.331 222.647,425.93 				"/>
			</g>
			<g>
				<polygon fill="#266279" points="223.89,422.331 361.96,422.331 361.96,429.53 223.89,429.53 228.038,425.93 				"/>
			</g>
		</g>
		<g>
			<g>
				<polygon fill="#266279" points="218.499,415.615 80.43,415.615 80.43,408.416 218.499,408.416 222.647,412.014 				"/>
			</g>
			<g>
				<polygon fill="#266279" points="223.89,408.416 361.96,408.416 361.96,415.615 223.89,415.615 228.038,412.014 				"/>
			</g>
		</g>
		<g>
			<g>
				<polygon fill="#266279" points="218.499,443.444 80.43,443.444 80.43,436.245 218.499,436.245 222.647,439.843 				"/>
			</g>
			<g>
				<polygon fill="#266279" points="223.89,436.245 361.96,436.245 361.96,443.444 223.89,443.444 228.038,439.843 				"/>
			</g>
		</g>
		<g>
			<g>
				<polygon fill="#266279" points="218.499,457.357 80.43,457.357 80.43,450.158 218.499,450.158 222.647,453.757 				"/>
			</g>
			<g>
				<polygon fill="#266279" points="223.89,450.158 361.96,450.158 361.96,457.357 223.89,457.357 228.038,453.757 				"/>
			</g>
		</g>
		<g>
			<g>
				<polygon fill="#266279" points="218.499,471.271 80.43,471.271 80.43,464.072 218.499,464.072 222.647,467.67 				"/>
			</g>
			<g>
				<polygon fill="#266279" points="223.89,464.072 361.96,464.072 361.96,471.271 223.89,471.271 228.038,467.67 				"/>
			</g>
		</g>
	</g>
	<g>
		<path fill="#266279" d="M60.613,383.856h7.289v3.088h-1.797v10.86h3.706c0.097,0,0.192-0.028,0.286-0.084
			c0.094-0.057,0.176-0.13,0.247-0.22s0.13-0.187,0.175-0.291c0.045-0.105,0.066-0.206,0.066-0.304v-2.28h3.639v6.256H60.613v-3.077
			h1.764v-10.86h-1.764V383.856z"/>
	</g>
</g>
<g>
	<g>
		<path fill="#266279" d="M63.406,178.752c-0.958-0.194-1.844-0.552-2.655-1.072c-0.812-0.521-1.517-1.162-2.111-1.926
			c-0.596-0.764-1.06-1.627-1.393-2.589c-0.333-0.962-0.5-1.982-0.5-3.06c0-0.816,0.097-1.601,0.292-2.353
			c0.195-0.753,0.468-1.456,0.82-2.111c0.352-0.655,0.776-1.251,1.274-1.786c0.497-0.535,1.052-0.993,1.662-1.376
			c0.61-0.381,1.267-0.677,1.971-0.887c0.704-0.21,1.441-0.314,2.212-0.314c0.771,0,1.511,0.104,2.219,0.314
			c0.707,0.21,1.366,0.506,1.977,0.887c0.609,0.383,1.164,0.841,1.662,1.376s0.924,1.131,1.28,1.786
			c0.355,0.655,0.63,1.358,0.825,2.111c0.195,0.752,0.292,1.536,0.292,2.353c0,1.092-0.173,2.126-0.517,3.1
			s-0.822,1.845-1.432,2.616c-0.61,0.771-1.335,1.416-2.174,1.932c-0.838,0.518-1.748,0.862-2.729,1.033
			c0.232,0.098,0.463,0.204,0.69,0.32c0.229,0.116,0.459,0.225,0.69,0.326c0.232,0.101,0.463,0.187,0.691,0.258
			c0.229,0.071,0.462,0.11,0.701,0.118c0.232,0,0.459-0.03,0.68-0.09c0.221-0.06,0.422-0.154,0.602-0.281
			c0.18-0.128,0.334-0.293,0.466-0.494c0.131-0.203,0.219-0.449,0.264-0.742l2.505,1.247c-0.068,0.547-0.223,1.041-0.467,1.482
			c-0.243,0.442-0.556,0.819-0.938,1.134c-0.382,0.315-0.816,0.559-1.303,0.731c-0.486,0.172-1.004,0.258-1.55,0.258
			c-0.442,0-0.886-0.084-1.331-0.252c-0.445-0.169-0.876-0.353-1.291-0.551c-0.416-0.198-0.807-0.381-1.174-0.55
			c-0.367-0.169-0.689-0.253-0.966-0.253c-0.12,0-0.227-0.002-0.32-0.006c-0.093-0.004-0.185-0.004-0.274,0
			c-0.09,0.004-0.189,0.015-0.298,0.034s-0.234,0.054-0.376,0.106L63.406,178.752z M64.979,175.395c0.652,0,1.249-0.141,1.792-0.422
			c0.542-0.28,1.009-0.662,1.397-1.146c0.39-0.482,0.691-1.044,0.904-1.684c0.214-0.64,0.32-1.319,0.32-2.038
			c0-0.727-0.108-1.411-0.326-2.056c-0.217-0.644-0.521-1.207-0.915-1.689c-0.393-0.484-0.858-0.865-1.397-1.146
			c-0.539-0.281-1.131-0.421-1.775-0.421c-0.644,0-1.234,0.14-1.773,0.421c-0.539,0.281-1.004,0.662-1.393,1.146
			c-0.39,0.482-0.695,1.046-0.916,1.689c-0.221,0.645-0.331,1.329-0.331,2.056c0,0.719,0.11,1.398,0.331,2.038
			c0.221,0.641,0.526,1.202,0.916,1.684c0.389,0.484,0.854,0.865,1.393,1.146C63.744,175.254,64.335,175.395,64.979,175.395z"/>
	</g>
	<g>
		<g>
			<g>
				<polygon fill="#266279" points="218.396,192.994 80.324,192.994 80.324,185.795 218.396,185.795 222.544,189.394 				"/>
			</g>
			<g>
				<polygon fill="#266279" points="223.786,185.795 361.856,185.795 361.856,192.994 223.786,192.994 227.935,189.394 				"/>
			</g>
		</g>
		<g>
			<g>
				<polygon fill="#266279" points="218.396,179.081 80.324,179.081 80.324,171.882 218.396,171.882 222.544,175.481 				"/>
			</g>
			<g>
				<polygon fill="#266279" points="223.786,171.882 361.856,171.882 361.856,179.081 223.786,179.081 227.935,175.481 				"/>
			</g>
		</g>
		<g>
			<g>
				<polygon fill="#266279" points="218.396,206.908 80.324,206.908 80.324,199.708 218.396,199.708 222.544,203.308 				"/>
			</g>
			<g>
				<polygon fill="#266279" points="223.786,199.708 361.856,199.708 361.856,206.908 223.786,206.908 227.935,203.308 				"/>
			</g>
		</g>
		<g>
			<g>
				<polygon fill="#266279" points="218.396,234.735 80.324,234.735 80.324,227.536 218.396,227.536 222.544,231.134 				"/>
			</g>
			<g>
				<polygon fill="#266279" points="223.786,227.536 361.856,227.536 361.856,234.735 223.786,234.735 227.935,231.134 				"/>
			</g>
		</g>
		<g>
			<g>
				<polygon fill="#266279" points="218.499,220.822 80.43,220.822 80.43,213.623 218.499,213.623 222.647,217.222 				"/>
			</g>
			<g>
				<polygon fill="#266279" points="223.89,213.623 361.96,213.623 361.96,220.822 223.89,220.822 228.038,217.222 				"/>
			</g>
		</g>
		<g>
			<g>
				<polygon fill="#266279" points="218.396,248.65 80.324,248.65 80.324,241.451 218.396,241.451 222.544,245.05 				"/>
			</g>
			<g>
				<polygon fill="#266279" points="223.786,241.451 361.856,241.451 361.856,248.65 223.786,248.65 227.935,245.05 				"/>
			</g>
		</g>
		<g>
			<g>
				<polygon fill="#266279" points="218.396,262.563 80.324,262.563 80.324,255.364 218.396,255.364 222.544,258.963 				"/>
			</g>
			<g>
				<polygon fill="#266279" points="223.786,255.364 361.856,255.364 361.856,262.563 223.786,262.563 227.935,258.963 				"/>
			</g>
		</g>
	</g>
</g>
</svg>
