<?xml version="1.0" encoding="utf-8"?>
<!-- Generator: Adobe Illustrator 16.0.4, SVG Export Plug-In . SVG Version: 6.00 Build 0)  -->
<!DOCTYPE svg PUBLIC "-//W3C//DTD SVG 1.1//EN" "http://www.w3.org/Graphics/SVG/1.1/DTD/svg11.dtd">
<svg version="1.1" id="Layer_1" xmlns="http://www.w3.org/2000/svg" xmlns:xlink="http://www.w3.org/1999/xlink" x="0px" y="0px"
	 width="448.745px" height="616.44px" viewBox="0 0 448.745 616.44" enable-background="new 0 0 448.745 616.44"
	 xml:space="preserve">
<rect x="0.5" y="0.5" fill="#FFFFFF" stroke="#C68D06" stroke-miterlimit="10" width="447.745" height="615.44"/>
<g>
	<path fill="#C68D06" d="M353.721,573.535H341.26v-1.855l11.796-17.781h3.046v17.432h4.375v2.205h-4.375v6.266h-2.381V573.535z
		 M353.721,571.33v-14.526h-0.069l-9.592,14.526H353.721z"/>
	<path fill="#C68D06" d="M366.18,575.636l1.785-1.436c1.575,2.275,3.641,3.921,6.721,3.921c4.445,0,6.476-3.291,6.476-6.791
		c0-4.2-2.485-6.44-5.916-6.44c-2.66,0-4.48,1.189-5.915,3.255l-1.855-0.7l1.016-13.546h13.687l-0.211,2.274h-11.411l-0.7,8.996
		c1.261-1.47,2.976-2.415,5.741-2.415c4.69,0,8.016,3.29,8.016,8.471s-3.396,9.066-8.891,9.066
		C370.976,580.291,367.93,578.4,366.18,575.636z"/>
	<path fill="#C68D06" d="M389.943,553.898h2.556l7.735,22.612h0.07l7.771-22.612h2.416l-9.102,26.008h-2.345L389.943,553.898z"/>
</g>
<g>
	<g>
		<rect x="81.55" y="158.134" fill="#C0DDE7" width="281.738" height="7.199"/>
	</g>
	<g>
		<rect x="81.55" y="185.961" fill="#C0DDE7" width="281.738" height="7.2"/>
	</g>
	<g>
		<rect x="81.55" y="199.876" fill="#C0DDE7" width="281.738" height="7.199"/>
	</g>
	<g>
		<rect x="81.55" y="213.79" fill="#C0DDE7" width="281.738" height="7.199"/>
	</g>
	<g>
		<rect x="81.55" y="227.703" fill="#C0DDE7" width="281.738" height="7.199"/>
	</g>
	<g>
		<rect x="81.55" y="241.617" fill="#C0DDE7" width="281.738" height="7.199"/>
	</g>
	<g>
		<rect x="81.55" y="255.53" fill="#C0DDE7" width="281.738" height="7.2"/>
	</g>
	<g>
		<rect x="81.55" y="269.444" fill="#C0DDE7" width="281.738" height="7.199"/>
	</g>
	<g>
		<rect x="81.55" y="283.358" fill="#C0DDE7" width="281.738" height="7.2"/>
	</g>
	<g>
		<rect x="81.55" y="297.272" fill="#C0DDE7" width="281.738" height="7.199"/>
	</g>
	<g>
		<rect x="81.55" y="311.186" fill="#C0DDE7" width="281.738" height="7.2"/>
	</g>
	<g>
		<rect x="81.55" y="325.1" fill="#C0DDE7" width="281.738" height="7.199"/>
	</g>
	<g>
		<rect x="81.55" y="339.014" fill="#C0DDE7" width="281.738" height="7.199"/>
	</g>
	<g>
		<rect x="81.55" y="352.927" fill="#C0DDE7" width="281.738" height="7.201"/>
	</g>
	<g>
		<rect x="81.55" y="366.841" fill="#C0DDE7" width="281.738" height="7.2"/>
	</g>
	<g>
		<rect x="81.55" y="380.755" fill="#C0DDE7" width="281.738" height="7.199"/>
	</g>
	<g>
		<rect x="81.55" y="394.669" fill="#C0DDE7" width="281.738" height="7.199"/>
	</g>
	<g>
		<rect x="81.55" y="408.583" fill="#C0DDE7" width="281.738" height="7.199"/>
	</g>
	<g>
		<rect x="81.55" y="422.496" fill="#C0DDE7" width="281.738" height="7.2"/>
	</g>
	<g>
		<rect x="81.55" y="436.41" fill="#C0DDE7" width="281.738" height="7.2"/>
	</g>
	<g>
		<rect x="81.55" y="450.324" fill="#C0DDE7" width="281.738" height="7.2"/>
	</g>
	<g>
		<rect x="81.55" y="464.238" fill="#C0DDE7" width="281.738" height="7.199"/>
	</g>
	<g>
		<rect x="81.55" y="478.151" fill="#C0DDE7" width="281.738" height="7.2"/>
	</g>
	<g>
		<rect x="81.55" y="60.736" fill="#C0DDE7" width="281.738" height="7.2"/>
	</g>
	<g>
		<rect x="81.55" y="74.65" fill="#C0DDE7" width="281.738" height="7.2"/>
	</g>
	<g>
		<rect x="81.55" y="144.22" fill="#C0DDE7" width="281.738" height="7.2"/>
	</g>
	<g>
		<rect x="81.55" y="172.047" fill="#C0DDE7" width="281.738" height="7.2"/>
	</g>
	<g>
		<rect x="81.55" y="88.564" fill="#C0DDE7" width="281.738" height="7.199"/>
	</g>
	<g>
		<rect x="81.55" y="102.479" fill="#C0DDE7" width="281.738" height="7.2"/>
	</g>
	<g>
		<rect x="81.55" y="116.393" fill="#C0DDE7" width="281.738" height="7.199"/>
	</g>
	<g>
		<rect x="81.55" y="130.308" fill="#C0DDE7" width="281.738" height="7.197"/>
	</g>
	<g>
		<rect x="81.55" y="158.134" fill="#C0DDE7" width="281.738" height="7.2"/>
	</g>
	<g>
		<g>
			<g>
				<polygon fill="#266279" points="219.826,67.937 81.757,67.937 81.757,60.737 219.826,60.737 223.975,64.338 				"/>
			</g>
			<g>
				<polygon fill="#266279" points="225.217,60.737 363.288,60.737 363.288,67.937 225.217,67.937 229.365,64.338 				"/>
			</g>
		</g>
		<g>
			<g>
				<polygon fill="#266279" points="219.826,151.419 81.757,151.419 81.757,144.221 219.826,144.221 223.975,147.82 				"/>
			</g>
			<g>
				<polygon fill="#266279" points="225.217,144.221 363.288,144.221 363.288,151.419 225.217,151.419 229.365,147.82 				"/>
			</g>
		</g>
		<g>
			<g>
				<polygon fill="#266279" points="219.826,95.765 81.757,95.765 81.757,88.565 219.826,88.565 223.975,92.165 				"/>
			</g>
			<g>
				<polygon fill="#266279" points="225.217,88.565 363.288,88.565 363.288,95.765 225.217,95.765 229.365,92.165 				"/>
			</g>
		</g>
		<g>
			<g>
				<polygon fill="#266279" points="219.826,81.85 81.757,81.85 81.757,74.65 219.826,74.65 223.975,78.249 				"/>
			</g>
			<g>
				<polygon fill="#266279" points="225.217,74.65 363.288,74.65 363.288,81.85 225.217,81.85 229.365,78.249 				"/>
			</g>
		</g>
		<g>
			<g>
				<polygon fill="#266279" points="219.826,109.679 81.757,109.679 81.757,102.479 219.826,102.479 223.975,106.078 				"/>
			</g>
			<g>
				<polygon fill="#266279" points="225.217,102.479 363.288,102.479 363.288,109.679 225.217,109.679 229.365,106.078 				"/>
			</g>
		</g>
		<g>
			<g>
				<polygon fill="#266279" points="219.826,123.592 81.757,123.592 81.757,116.393 219.826,116.393 223.975,119.992 				"/>
			</g>
			<g>
				<polygon fill="#266279" points="225.217,116.393 363.288,116.393 363.288,123.592 225.217,123.592 229.365,119.992 				"/>
			</g>
		</g>
		<g>
			<g>
				<polygon fill="#266279" points="219.826,137.506 81.757,137.506 81.757,130.307 219.826,130.307 223.975,133.905 				"/>
			</g>
			<g>
				<polygon fill="#266279" points="225.217,130.307 363.288,130.307 363.288,137.506 225.217,137.506 229.365,133.905 				"/>
			</g>
		</g>
	</g>
	<g>
		<path fill="#266279" d="M69.073,64.04h1.695l-0.764-2.448h-5.233l-0.764,2.448h1.797v3.077h-6.458V64.04h1.27l4.639-13.948h4.503
			l4.537,13.948h1.235v3.077h-6.457V64.04z M65.659,58.717h3.436l-1.729-5.537L65.659,58.717z"/>
	</g>
	<g>
		<path fill="#266279" d="M68.64,161.506h6.469v3.088h-1.381v13.938h-3.729l-7.086-11.006v7.929h1.426v3.077h-6.457v-3.077h1.403
			v-10.86h-1.382v-3.088h5.145l7.041,11.152v-8.064H68.64V161.506z"/>
	</g>
	<g>
		<path fill="#266279" d="M221.06,189.594c-0.451-0.123-0.876-0.305-1.274-0.545s-0.747-0.537-1.046-0.893
			c-0.299-0.354-0.536-0.764-0.712-1.23c-0.176-0.465-0.264-0.988-0.264-1.568c0-0.615,0.123-1.191,0.369-1.727
			c0.246-0.537,0.595-1.004,1.046-1.402s0.996-0.712,1.635-0.94s1.351-0.343,2.136-0.343h6.012v2.417h-1.239v14.089h-2.575v-14.089
			h-1.512v14.089h-2.575V189.594z"/>
	</g>
	<g>
		<path fill="#266279" d="M71.124,260.203c-0.451-0.123-0.876-0.305-1.274-0.545s-0.747-0.537-1.046-0.893
			c-0.299-0.354-0.536-0.764-0.712-1.23c-0.176-0.465-0.264-0.988-0.264-1.568c0-0.615,0.123-1.191,0.369-1.727
			c0.246-0.537,0.595-1.004,1.046-1.402s0.996-0.712,1.635-0.94s1.351-0.343,2.136-0.343h6.012v2.417h-1.239v14.089h-2.575v-14.089
			h-1.512v14.089h-2.575V260.203z"/>
	</g>
	<g>
		<path fill="#266279" d="M71.124,343.203c-0.451-0.123-0.876-0.305-1.274-0.545s-0.747-0.537-1.046-0.893
			c-0.299-0.354-0.536-0.764-0.712-1.23c-0.176-0.465-0.264-0.988-0.264-1.568c0-0.615,0.123-1.191,0.369-1.727
			c0.246-0.537,0.595-1.004,1.046-1.402s0.996-0.712,1.635-0.94s1.351-0.343,2.136-0.343h6.012v2.417h-1.239v14.089h-2.575v-14.089
			h-1.512v14.089h-2.575V343.203z"/>
	</g>
	<g>
		<path fill="#266279" d="M71.124,426.537c-0.451-0.123-0.876-0.305-1.274-0.545s-0.747-0.537-1.046-0.893
			c-0.299-0.354-0.536-0.764-0.712-1.23c-0.176-0.465-0.264-0.988-0.264-1.568c0-0.615,0.123-1.191,0.369-1.727
			c0.246-0.537,0.595-1.004,1.046-1.402s0.996-0.712,1.635-0.94s1.351-0.343,2.136-0.343h6.012v2.417h-1.239v14.089h-2.575v-14.089
			h-1.512v14.089h-2.575V426.537z"/>
	</g>
	<g>
		<path fill="#266279" d="M221.06,357.203c-0.451-0.123-0.876-0.305-1.274-0.545s-0.747-0.537-1.046-0.893
			c-0.299-0.354-0.536-0.764-0.712-1.23c-0.176-0.465-0.264-0.988-0.264-1.568c0-0.615,0.123-1.191,0.369-1.727
			c0.246-0.537,0.595-1.004,1.046-1.402s0.996-0.712,1.635-0.94s1.351-0.343,2.136-0.343h6.012v2.417h-1.239v14.089h-2.575v-14.089
			h-1.512v14.089h-2.575V357.203z"/>
	</g>
	<g>
		<path fill="#266279" d="M221.06,273.87c-0.451-0.123-0.876-0.305-1.274-0.545s-0.747-0.537-1.046-0.893
			c-0.299-0.354-0.536-0.764-0.712-1.23c-0.176-0.465-0.264-0.988-0.264-1.568c0-0.615,0.123-1.191,0.369-1.727
			c0.246-0.537,0.595-1.004,1.046-1.402s0.996-0.712,1.635-0.94s1.351-0.343,2.136-0.343h6.012v2.417h-1.239v14.089h-2.575v-14.089
			h-1.512v14.089h-2.575V273.87z"/>
	</g>
	<g>
		<rect x="231.36" y="172.047" fill="#266279" width="131.928" height="7.2"/>
	</g>
	<g>
		<rect x="81.55" y="172.047" fill="#266279" width="131.928" height="7.2"/>
	</g>
	<g>
		<g>
			<rect x="231.36" y="185.961" fill="#266279" width="131.928" height="7.2"/>
		</g>
		<g>
			<rect x="81.55" y="185.961" fill="#266279" width="131.928" height="7.2"/>
		</g>
	</g>
	<g>
		<g>
			<rect x="231.36" y="199.875" fill="#266279" width="131.928" height="7.2"/>
		</g>
		<g>
			<rect x="81.55" y="199.875" fill="#266279" width="131.928" height="7.2"/>
		</g>
	</g>
	<g>
		<g>
			<rect x="231.36" y="213.789" fill="#266279" width="131.928" height="7.2"/>
		</g>
		<g>
			<rect x="81.55" y="213.789" fill="#266279" width="131.928" height="7.2"/>
		</g>
	</g>
	<g>
		<g>
			<rect x="231.36" y="227.702" fill="#266279" width="131.928" height="7.2"/>
		</g>
		<g>
			<rect x="81.55" y="227.702" fill="#266279" width="131.928" height="7.2"/>
		</g>
	</g>
	<g>
		<g>
			<rect x="231.36" y="241.616" fill="#266279" width="131.928" height="7.2"/>
		</g>
		<g>
			<rect x="81.55" y="241.616" fill="#266279" width="131.928" height="7.2"/>
		</g>
	</g>
	<g>
		<g>
			<rect x="231.36" y="255.529" fill="#266279" width="131.928" height="7.2"/>
		</g>
		<g>
			<rect x="81.55" y="255.529" fill="#266279" width="131.928" height="7.2"/>
		</g>
	</g>
	<g>
		<g>
			<rect x="231.36" y="269.444" fill="#266279" width="131.928" height="7.2"/>
		</g>
		<g>
			<rect x="81.55" y="269.444" fill="#266279" width="131.928" height="7.2"/>
		</g>
	</g>
	<g>
		<g>
			<rect x="231.36" y="283.357" fill="#266279" width="131.928" height="7.2"/>
		</g>
		<g>
			<rect x="81.55" y="283.357" fill="#266279" width="131.928" height="7.2"/>
		</g>
	</g>
	<g>
		<g>
			<rect x="231.36" y="297.271" fill="#266279" width="131.928" height="7.2"/>
		</g>
		<g>
			<rect x="81.55" y="297.271" fill="#266279" width="131.928" height="7.2"/>
		</g>
	</g>
	<g>
		<g>
			<rect x="231.36" y="311.186" fill="#266279" width="131.928" height="7.2"/>
		</g>
		<g>
			<rect x="81.55" y="311.186" fill="#266279" width="131.928" height="7.2"/>
		</g>
	</g>
	<g>
		<g>
			<rect x="231.36" y="325.1" fill="#266279" width="131.928" height="7.2"/>
		</g>
		<g>
			<rect x="81.55" y="325.1" fill="#266279" width="131.928" height="7.2"/>
		</g>
	</g>
	<g>
		<g>
			<rect x="231.36" y="339.013" fill="#266279" width="131.928" height="7.2"/>
		</g>
		<g>
			<rect x="81.55" y="339.013" fill="#266279" width="131.928" height="7.2"/>
		</g>
	</g>
	<g>
		<g>
			<rect x="231.36" y="352.927" fill="#266279" width="131.928" height="7.2"/>
		</g>
		<g>
			<rect x="81.55" y="352.927" fill="#266279" width="131.928" height="7.2"/>
		</g>
	</g>
	<g>
		<g>
			<rect x="231.36" y="366.841" fill="#266279" width="131.928" height="7.2"/>
		</g>
		<g>
			<rect x="81.55" y="366.841" fill="#266279" width="131.928" height="7.2"/>
		</g>
	</g>
	<g>
		<rect x="231.36" y="380.755" fill="#266279" width="131.928" height="7.2"/>
	</g>
	<g>
		<rect x="81.55" y="380.755" fill="#266279" width="131.928" height="7.2"/>
	</g>
	<g>
		<rect x="81.55" y="394.669" fill="#266279" width="131.928" height="7.2"/>
	</g>
	<g>
		<rect x="81.55" y="408.604" fill="#266279" width="131.928" height="7.2"/>
	</g>
	<g>
		<rect x="81.55" y="422.496" fill="#266279" width="131.928" height="7.2"/>
	</g>
	<g>
		<rect x="81.55" y="436.409" fill="#266279" width="131.928" height="7.2"/>
	</g>
	<g>
		<rect x="81.55" y="450.324" fill="#266279" width="131.928" height="7.2"/>
	</g>
	<g>
		<rect x="81.55" y="464.237" fill="#266279" width="131.928" height="7.2"/>
	</g>
	<g>
		<rect x="81.55" y="478.151" fill="#266279" width="131.928" height="7.2"/>
	</g>
</g>
</svg>
