<?xml version="1.0" encoding="utf-8"?>
<!-- Generator: Adobe Illustrator 16.0.4, SVG Export Plug-In . SVG Version: 6.00 Build 0)  -->
<!DOCTYPE svg PUBLIC "-//W3C//DTD SVG 1.1//EN" "http://www.w3.org/Graphics/SVG/1.1/DTD/svg11.dtd">
<svg version="1.1" id="Layer_1" xmlns="http://www.w3.org/2000/svg" xmlns:xlink="http://www.w3.org/1999/xlink" x="0px" y="0px"
	 width="448.746px" height="616.44px" viewBox="0 0 448.746 616.44" enable-background="new 0 0 448.746 616.44"
	 xml:space="preserve">
<rect x="0.5" y="0.5" fill="#FFFFFF" stroke="#C68D06" stroke-miterlimit="10" width="447.745" height="615.44"/>
<g>
	<path fill="#C68D06" d="M351.372,573.869h-12.461v-1.855l11.796-17.781h3.046v17.432h4.375v2.205h-4.375v6.266h-2.381V573.869z
		 M351.372,571.664v-14.526h-0.069l-9.592,14.526H351.372z"/>
	<path fill="#C68D06" d="M364.391,567.638c0-7.981,4.201-13.896,10.151-13.896c2.87,0,4.796,0.875,6.195,1.96l-1.295,1.891
		c-1.33-1.051-2.625-1.681-4.971-1.681c-4.726,0-7.631,5.041-7.665,11.481c1.645-1.785,4.095-3.466,7.386-3.466
		c5.46,0,8.086,3.396,8.086,8.086c0,4.9-3.466,8.611-8.682,8.611C368.486,580.625,364.391,576.529,364.391,567.638z
		 M379.862,572.048c0-3.465-1.75-5.985-5.95-5.985c-2.87,0-5.426,1.61-7.001,3.815c0.525,6.021,3.36,8.61,6.791,8.61
		C377.412,578.489,379.862,576.144,379.862,572.048z"/>
	<path fill="#C68D06" d="M388.61,554.232h2.556l7.735,22.612h0.07l7.771-22.612h2.416l-9.102,26.008h-2.345L388.61,554.232z"/>
</g>
<g>
	<rect x="79.375" y="158.217" fill="#C0DDE7" width="281.738" height="7.199"/>
</g>
<g>
	<rect x="79.375" y="186.044" fill="#C0DDE7" width="281.738" height="7.201"/>
</g>
<g>
	<rect x="79.375" y="199.959" fill="#C0DDE7" width="281.738" height="7.199"/>
</g>
<g>
	<rect x="79.375" y="213.873" fill="#C0DDE7" width="281.738" height="7.199"/>
</g>
<g>
	<rect x="79.375" y="227.787" fill="#C0DDE7" width="281.738" height="7.199"/>
</g>
<g>
	<rect x="79.375" y="241.7" fill="#C0DDE7" width="281.738" height="7.199"/>
</g>
<g>
	<rect x="79.375" y="255.613" fill="#C0DDE7" width="281.738" height="7.2"/>
</g>
<g>
	<rect x="79.375" y="269.528" fill="#C0DDE7" width="281.738" height="7.199"/>
</g>
<g>
	<rect x="79.375" y="283.441" fill="#C0DDE7" width="281.738" height="7.2"/>
</g>
<g>
	<rect x="79.375" y="297.355" fill="#C0DDE7" width="281.738" height="7.199"/>
</g>
<g>
	<rect x="79.375" y="311.269" fill="#C0DDE7" width="281.738" height="7.2"/>
</g>
<g>
	<rect x="79.375" y="325.183" fill="#C0DDE7" width="281.738" height="7.199"/>
</g>
<g>
	<rect x="79.375" y="339.097" fill="#C0DDE7" width="281.738" height="7.199"/>
</g>
<g>
	<rect x="79.375" y="353.01" fill="#C0DDE7" width="281.738" height="7.201"/>
</g>
<g>
	<rect x="79.375" y="366.924" fill="#C0DDE7" width="281.738" height="7.2"/>
</g>
<g>
	<rect x="79.375" y="380.838" fill="#C0DDE7" width="281.738" height="7.199"/>
</g>
<g>
	<rect x="79.375" y="394.752" fill="#C0DDE7" width="281.738" height="7.199"/>
</g>
<g>
	<rect x="79.375" y="408.666" fill="#C0DDE7" width="281.738" height="7.199"/>
</g>
<g>
	<rect x="79.375" y="422.579" fill="#C0DDE7" width="281.738" height="7.2"/>
</g>
<g>
	<rect x="79.375" y="436.493" fill="#C0DDE7" width="281.738" height="7.2"/>
</g>
<g>
	<rect x="79.375" y="450.407" fill="#C0DDE7" width="281.738" height="7.2"/>
</g>
<g>
	<rect x="79.375" y="464.321" fill="#C0DDE7" width="281.738" height="7.199"/>
</g>
<g>
	<rect x="79.375" y="478.234" fill="#C0DDE7" width="281.738" height="7.2"/>
</g>
<g>
	<rect x="79.375" y="60.82" fill="#C0DDE7" width="281.738" height="7.2"/>
</g>
<g>
	<rect x="79.375" y="74.733" fill="#C0DDE7" width="281.738" height="7.2"/>
</g>
<g>
	<rect x="79.375" y="144.303" fill="#C0DDE7" width="281.738" height="7.201"/>
</g>
<g>
	<rect x="79.375" y="172.13" fill="#C0DDE7" width="281.738" height="7.2"/>
</g>
<g>
	<rect x="79.375" y="88.647" fill="#C0DDE7" width="281.738" height="7.199"/>
</g>
<g>
	<rect x="79.375" y="102.562" fill="#C0DDE7" width="281.738" height="7.201"/>
</g>
<g>
	<rect x="79.375" y="116.476" fill="#C0DDE7" width="281.738" height="7.199"/>
</g>
<g>
	<rect x="79.375" y="130.391" fill="#C0DDE7" width="281.738" height="7.197"/>
</g>
<g>
	<rect x="79.375" y="158.217" fill="#C0DDE7" width="281.738" height="7.2"/>
</g>
<g>
	<path fill="#266279" d="M48.652,287.791h1.583v-10.86h-1.583v-3.088h7.008l5.02,12.286l4.66-12.286h7.109v3.088h-1.584v10.86h1.562
		v3.077h-6.368v-3.077h1.168v-9.793l-5.098,12.668h-3.156l-5.188-12.331v9.456h1.269v3.077h-6.4V287.791z"/>
</g>
<g>
	<g>
		<g>
			<polygon fill="#266279" points="217.652,290.642 79.584,290.642 79.584,283.442 217.652,283.442 221.801,287.042 			"/>
		</g>
		<g>
			<polygon fill="#266279" points="223.043,283.442 361.113,283.442 361.113,290.642 223.043,290.642 227.191,287.042 			"/>
		</g>
	</g>
	<g>
		<g>
			<polygon fill="#266279" points="217.652,304.556 79.584,304.556 79.584,297.356 217.652,297.356 221.801,300.956 			"/>
		</g>
		<g>
			<polygon fill="#266279" points="223.043,297.356 361.113,297.356 361.113,304.556 223.043,304.556 227.191,300.956 			"/>
		</g>
	</g>
	<g>
		<g>
			<polygon fill="#266279" points="217.652,374.124 79.584,374.124 79.584,366.925 217.652,366.925 221.801,370.524 			"/>
		</g>
		<g>
			<polygon fill="#266279" points="223.043,366.925 361.113,366.925 361.113,374.124 223.043,374.124 227.191,370.524 			"/>
		</g>
	</g>
	<g>
		<g>
			<polygon fill="#266279" points="217.652,318.469 79.584,318.469 79.584,311.27 217.652,311.27 221.801,314.869 			"/>
		</g>
		<g>
			<polygon fill="#266279" points="223.043,311.27 361.113,311.27 361.113,318.469 223.043,318.469 227.191,314.869 			"/>
		</g>
	</g>
	<g>
		<g>
			<polygon fill="#266279" points="217.652,332.384 79.584,332.384 79.584,325.185 217.652,325.185 221.801,328.783 			"/>
		</g>
		<g>
			<polygon fill="#266279" points="223.043,325.185 361.113,325.185 361.113,332.384 223.043,332.384 227.191,328.783 			"/>
		</g>
	</g>
	<g>
		<g>
			<polygon fill="#266279" points="217.652,346.297 79.584,346.297 79.584,339.097 217.652,339.097 221.801,342.696 			"/>
		</g>
		<g>
			<polygon fill="#266279" points="223.043,339.097 361.113,339.097 361.113,346.297 223.043,346.297 227.191,342.696 			"/>
		</g>
	</g>
	<g>
		<g>
			<polygon fill="#266279" points="217.652,360.211 79.584,360.211 79.584,353.011 217.652,353.011 221.801,356.61 			"/>
		</g>
		<g>
			<polygon fill="#266279" points="223.043,353.011 361.113,353.011 361.113,360.211 223.043,360.211 227.191,356.61 			"/>
		</g>
	</g>
</g>
<g>
	<g>
		<g>
			<g>
				<polygon fill="#266279" points="217.652,68.02 79.584,68.02 79.584,60.82 217.652,60.82 221.801,64.421 				"/>
			</g>
			<g>
				<polygon fill="#266279" points="223.043,60.82 361.113,60.82 361.113,68.02 223.043,68.02 227.191,64.421 				"/>
			</g>
		</g>
		<g>
			<g>
				<polygon fill="#266279" points="217.652,151.502 79.584,151.502 79.584,144.304 217.652,144.304 221.801,147.904 				"/>
			</g>
			<g>
				<polygon fill="#266279" points="223.043,144.304 361.113,144.304 361.113,151.502 223.043,151.502 227.191,147.904 				"/>
			</g>
		</g>
		<g>
			<g>
				<polygon fill="#266279" points="217.652,95.848 79.584,95.848 79.584,88.648 217.652,88.648 221.801,92.248 				"/>
			</g>
			<g>
				<polygon fill="#266279" points="223.043,88.648 361.113,88.648 361.113,95.848 223.043,95.848 227.191,92.248 				"/>
			</g>
		</g>
		<g>
			<g>
				<polygon fill="#266279" points="217.652,81.933 79.584,81.933 79.584,74.733 217.652,74.733 221.801,78.332 				"/>
			</g>
			<g>
				<polygon fill="#266279" points="223.043,74.733 361.113,74.733 361.113,81.933 223.043,81.933 227.191,78.332 				"/>
			</g>
		</g>
		<g>
			<g>
				<polygon fill="#266279" points="217.652,109.762 79.584,109.762 79.584,102.562 217.652,102.562 221.801,106.161 				"/>
			</g>
			<g>
				<polygon fill="#266279" points="223.043,102.562 361.113,102.562 361.113,109.762 223.043,109.762 227.191,106.161 				"/>
			</g>
		</g>
		<g>
			<g>
				<polygon fill="#266279" points="217.652,123.675 79.584,123.675 79.584,116.476 217.652,116.476 221.801,120.075 				"/>
			</g>
			<g>
				<polygon fill="#266279" points="223.043,116.476 361.113,116.476 361.113,123.675 223.043,123.675 227.191,120.075 				"/>
			</g>
		</g>
		<g>
			<g>
				<polygon fill="#266279" points="217.652,137.589 79.584,137.589 79.584,130.39 217.652,130.39 221.801,133.988 				"/>
			</g>
			<g>
				<polygon fill="#266279" points="223.043,130.39 361.113,130.39 361.113,137.589 223.043,137.589 227.191,133.988 				"/>
			</g>
		</g>
	</g>
	<g>
		<path fill="#266279" d="M65.787,50.174h7.289v3.077h-1.797v10.871h1.797V67.2h-7.289v-3.077h1.764V53.251h-1.764V50.174z"/>
	</g>
</g>
<g>
	<g>
		<g>
			<polygon fill="#266279" points="217.652,401.952 79.584,401.952 79.584,394.753 217.652,394.753 221.801,398.354 			"/>
		</g>
		<g>
			<polygon fill="#266279" points="223.043,394.753 361.113,394.753 361.113,401.952 223.043,401.952 227.191,398.354 			"/>
		</g>
	</g>
	<g>
		<g>
			<polygon fill="#266279" points="217.652,485.435 79.584,485.435 79.584,478.236 217.652,478.236 221.801,481.836 			"/>
		</g>
		<g>
			<polygon fill="#266279" points="223.043,478.236 361.113,478.236 361.113,485.435 223.043,485.435 227.191,481.836 			"/>
		</g>
	</g>
	<g>
		<g>
			<polygon fill="#266279" points="217.652,429.78 79.584,429.78 79.584,422.581 217.652,422.581 221.801,426.181 			"/>
		</g>
		<g>
			<polygon fill="#266279" points="223.043,422.581 361.113,422.581 361.113,429.78 223.043,429.78 227.191,426.181 			"/>
		</g>
	</g>
	<g>
		<g>
			<polygon fill="#266279" points="217.652,415.865 79.584,415.865 79.584,408.666 217.652,408.666 221.801,412.265 			"/>
		</g>
		<g>
			<polygon fill="#266279" points="223.043,408.666 361.113,408.666 361.113,415.865 223.043,415.865 227.191,412.265 			"/>
		</g>
	</g>
	<g>
		<g>
			<polygon fill="#266279" points="217.652,443.694 79.584,443.694 79.584,436.495 217.652,436.495 221.801,440.094 			"/>
		</g>
		<g>
			<polygon fill="#266279" points="223.043,436.495 361.113,436.495 361.113,443.694 223.043,443.694 227.191,440.094 			"/>
		</g>
	</g>
	<g>
		<g>
			<polygon fill="#266279" points="217.652,457.607 79.584,457.607 79.584,450.408 217.652,450.408 221.801,454.008 			"/>
		</g>
		<g>
			<polygon fill="#266279" points="223.043,450.408 361.113,450.408 361.113,457.607 223.043,457.607 227.191,454.008 			"/>
		</g>
	</g>
	<g>
		<g>
			<polygon fill="#266279" points="217.652,471.521 79.584,471.521 79.584,464.322 217.652,464.322 221.801,467.921 			"/>
		</g>
		<g>
			<polygon fill="#266279" points="223.043,464.322 361.113,464.322 361.113,471.521 223.043,471.521 227.191,467.921 			"/>
		</g>
	</g>
</g>
<g>
	<path fill="#266279" d="M60.441,384.106h13.174v5.807h-3.65v-2.393h-4.031v3.582h3.492v3.269h-3.492v3.684h1.797v3.077h-7.289
		v-3.077h1.764V387.52h-1.764V384.106z"/>
</g>
<g>
	<path fill="#266279" d="M59.663,161.842h7.288v3.088h-1.797v10.86h3.707c0.097,0,0.192-0.028,0.285-0.084
		c0.094-0.057,0.177-0.13,0.248-0.22c0.07-0.09,0.129-0.187,0.174-0.291c0.045-0.105,0.067-0.206,0.067-0.304v-2.28h3.639v6.256
		H59.663v-3.077h1.763v-10.86h-1.763V161.842z"/>
</g>
<g>
	<g>
		<g>
			<polygon fill="#266279" points="217.549,193.245 79.479,193.245 79.479,186.046 217.549,186.046 221.697,189.645 			"/>
		</g>
		<g>
			<polygon fill="#266279" points="222.939,186.046 361.01,186.046 361.01,193.245 222.939,193.245 227.088,189.645 			"/>
		</g>
	</g>
	<g>
		<g>
			<polygon fill="#266279" points="217.549,179.331 79.479,179.331 79.479,172.132 217.549,172.132 221.697,175.731 			"/>
		</g>
		<g>
			<polygon fill="#266279" points="222.939,172.132 361.01,172.132 361.01,179.331 222.939,179.331 227.088,175.731 			"/>
		</g>
	</g>
	<g>
		<g>
			<polygon fill="#266279" points="217.549,207.158 79.479,207.158 79.479,199.959 217.549,199.959 221.697,203.559 			"/>
		</g>
		<g>
			<polygon fill="#266279" points="222.939,199.959 361.01,199.959 361.01,207.158 222.939,207.158 227.088,203.559 			"/>
		</g>
	</g>
	<g>
		<g>
			<polygon fill="#266279" points="217.549,234.986 79.479,234.986 79.479,227.787 217.549,227.787 221.697,231.385 			"/>
		</g>
		<g>
			<polygon fill="#266279" points="222.939,227.787 361.01,227.787 361.01,234.986 222.939,234.986 227.088,231.385 			"/>
		</g>
	</g>
	<g>
		<g>
			<polygon fill="#266279" points="217.652,221.072 79.584,221.072 79.584,213.873 217.652,213.873 221.801,217.473 			"/>
		</g>
		<g>
			<polygon fill="#266279" points="223.043,213.873 361.113,213.873 361.113,221.072 223.043,221.072 227.191,217.473 			"/>
		</g>
	</g>
	<g>
		<g>
			<polygon fill="#266279" points="217.549,248.9 79.479,248.9 79.479,241.701 217.549,241.701 221.697,245.301 			"/>
		</g>
		<g>
			<polygon fill="#266279" points="222.939,241.701 361.01,241.701 361.01,248.9 222.939,248.9 227.088,245.301 			"/>
		</g>
	</g>
	<g>
		<g>
			<polygon fill="#266279" points="217.549,262.813 79.479,262.813 79.479,255.614 217.549,255.614 221.697,259.214 			"/>
		</g>
		<g>
			<polygon fill="#266279" points="222.939,255.614 361.01,255.614 361.01,262.813 222.939,262.813 227.088,259.214 			"/>
		</g>
	</g>
</g>
</svg>
