<?xml version="1.0" encoding="utf-8"?>
<!-- Generator: Adobe Illustrator 16.0.4, SVG Export Plug-In . SVG Version: 6.00 Build 0)  -->
<!DOCTYPE svg PUBLIC "-//W3C//DTD SVG 1.1//EN" "http://www.w3.org/Graphics/SVG/1.1/DTD/svg11.dtd">
<svg version="1.1" id="Layer_1" xmlns="http://www.w3.org/2000/svg" xmlns:xlink="http://www.w3.org/1999/xlink" x="0px" y="0px"
	 width="448.746px" height="616.44px" viewBox="0 0 448.746 616.44" enable-background="new 0 0 448.746 616.44"
	 xml:space="preserve">
<rect x="0.501" y="0.5" fill="#FFFFFF" stroke="#C68D06" stroke-miterlimit="10" width="447.746" height="615.44"/>
<g>
	<path fill="#C68D06" d="M349.904,575.869h-12.461v-1.855l11.796-17.781h3.046v17.432h4.375v2.205h-4.375v6.266h-2.381V575.869z
		 M349.904,573.664v-14.526h-0.069l-9.592,14.526H349.904z"/>
	<path fill="#C68D06" d="M362.923,569.638c0-7.981,4.201-13.896,10.151-13.896c2.87,0,4.796,0.875,6.195,1.96l-1.295,1.891
		c-1.33-1.051-2.625-1.681-4.971-1.681c-4.725,0-7.631,5.041-7.665,11.481c1.645-1.785,4.095-3.466,7.386-3.466
		c5.46,0,8.086,3.396,8.086,8.086c0,4.9-3.466,8.611-8.682,8.611C367.019,582.625,362.923,578.529,362.923,569.638z
		 M378.395,574.048c0-3.465-1.75-5.985-5.95-5.985c-2.87,0-5.426,1.61-7.001,3.815c0.525,6.021,3.36,8.61,6.791,8.61
		C375.944,580.489,378.395,578.144,378.395,574.048z"/>
	<path fill="#C68D06" d="M389.208,556.232h8.681c5.776,0,8.996,2.45,8.996,7c0,4.201-2.45,6.301-6.195,7.001l6.546,11.901h-2.801
		l-6.336-11.621h-6.44v11.621h-2.45V556.232z M397.714,568.308c4.271,0,6.686-1.226,6.686-4.971c0-3.57-2.38-4.831-6.721-4.831
		h-6.021v9.802H397.714z"/>
</g>
<g>
	<rect x="80.213" y="158.301" fill="#C0DDE7" width="281.738" height="7.199"/>
</g>
<g>
	<rect x="80.213" y="186.128" fill="#C0DDE7" width="281.738" height="7.2"/>
</g>
<g>
	<rect x="80.213" y="200.043" fill="#C0DDE7" width="281.738" height="7.199"/>
</g>
<g>
	<rect x="80.213" y="213.958" fill="#C0DDE7" width="281.738" height="7.199"/>
</g>
<g>
	<rect x="80.213" y="227.871" fill="#C0DDE7" width="281.738" height="7.199"/>
</g>
<g>
	<rect x="80.213" y="241.785" fill="#C0DDE7" width="281.738" height="7.199"/>
</g>
<g>
	<rect x="80.213" y="255.698" fill="#C0DDE7" width="281.738" height="7.2"/>
</g>
<g>
	<rect x="80.213" y="269.612" fill="#C0DDE7" width="281.738" height="7.199"/>
</g>
<g>
	<rect x="80.213" y="283.526" fill="#C0DDE7" width="281.738" height="7.2"/>
</g>
<g>
	<rect x="80.213" y="297.44" fill="#C0DDE7" width="281.738" height="7.199"/>
</g>
<g>
	<rect x="80.213" y="311.353" fill="#C0DDE7" width="281.738" height="7.2"/>
</g>
<g>
	<rect x="80.213" y="325.267" fill="#C0DDE7" width="281.738" height="7.199"/>
</g>
<g>
	<rect x="80.213" y="339.181" fill="#C0DDE7" width="281.738" height="7.199"/>
</g>
<g>
	<rect x="80.213" y="353.094" fill="#C0DDE7" width="281.738" height="7.201"/>
</g>
<g>
	<rect x="80.213" y="367.008" fill="#C0DDE7" width="281.738" height="7.2"/>
</g>
<g>
	<rect x="80.213" y="380.922" fill="#C0DDE7" width="281.738" height="7.199"/>
</g>
<g>
	<rect x="80.213" y="394.836" fill="#C0DDE7" width="281.738" height="7.199"/>
</g>
<g>
	<rect x="80.213" y="408.75" fill="#C0DDE7" width="281.738" height="7.199"/>
</g>
<g>
	<rect x="80.213" y="422.664" fill="#C0DDE7" width="281.738" height="7.2"/>
</g>
<g>
	<rect x="80.213" y="436.578" fill="#C0DDE7" width="281.738" height="7.2"/>
</g>
<g>
	<rect x="80.213" y="450.492" fill="#C0DDE7" width="281.738" height="7.2"/>
</g>
<g>
	<rect x="80.213" y="464.406" fill="#C0DDE7" width="281.738" height="7.199"/>
</g>
<g>
	<rect x="80.213" y="478.319" fill="#C0DDE7" width="281.738" height="7.2"/>
</g>
<g>
	<rect x="80.213" y="60.904" fill="#C0DDE7" width="281.738" height="7.2"/>
</g>
<g>
	<rect x="80.213" y="74.818" fill="#C0DDE7" width="281.738" height="7.2"/>
</g>
<g>
	<rect x="80.213" y="144.387" fill="#C0DDE7" width="281.738" height="7.2"/>
</g>
<g>
	<rect x="80.213" y="172.214" fill="#C0DDE7" width="281.738" height="7.2"/>
</g>
<g>
	<rect x="80.213" y="88.732" fill="#C0DDE7" width="281.738" height="7.199"/>
</g>
<g>
	<rect x="80.213" y="102.646" fill="#C0DDE7" width="281.738" height="7.2"/>
</g>
<g>
	<rect x="80.213" y="116.56" fill="#C0DDE7" width="281.738" height="7.199"/>
</g>
<g>
	<rect x="80.213" y="130.475" fill="#C0DDE7" width="281.738" height="7.197"/>
</g>
<g>
	<rect x="80.213" y="158.301" fill="#C0DDE7" width="281.738" height="7.2"/>
</g>
<g>
	<g>
		<g>
			<polygon fill="#266279" points="218.49,68.104 80.42,68.104 80.42,60.905 218.49,60.905 222.639,64.505 			"/>
		</g>
		<g>
			<polygon fill="#266279" points="223.881,60.905 361.951,60.905 361.951,68.104 223.881,68.104 228.029,64.505 			"/>
		</g>
	</g>
	<g>
		<g>
			<polygon fill="#266279" points="218.49,151.586 80.42,151.586 80.42,144.388 218.49,144.388 222.639,147.988 			"/>
		</g>
		<g>
			<polygon fill="#266279" points="223.881,144.388 361.951,144.388 361.951,151.586 223.881,151.586 228.029,147.988 			"/>
		</g>
	</g>
	<g>
		<g>
			<polygon fill="#266279" points="218.49,95.932 80.42,95.932 80.42,88.733 218.49,88.733 222.639,92.333 			"/>
		</g>
		<g>
			<polygon fill="#266279" points="223.881,88.733 361.951,88.733 361.951,95.932 223.881,95.932 228.029,92.333 			"/>
		</g>
	</g>
	<g>
		<g>
			<polygon fill="#266279" points="218.49,82.017 80.42,82.017 80.42,74.818 218.49,74.818 222.639,78.417 			"/>
		</g>
		<g>
			<polygon fill="#266279" points="223.881,74.818 361.951,74.818 361.951,82.017 223.881,82.017 228.029,78.417 			"/>
		</g>
	</g>
	<g>
		<g>
			<polygon fill="#266279" points="218.49,109.846 80.42,109.846 80.42,102.647 218.49,102.647 222.639,106.246 			"/>
		</g>
		<g>
			<polygon fill="#266279" points="223.881,102.647 361.951,102.647 361.951,109.846 223.881,109.846 228.029,106.246 			"/>
		</g>
	</g>
	<g>
		<g>
			<polygon fill="#266279" points="218.49,123.759 80.42,123.759 80.42,116.56 218.49,116.56 222.639,120.16 			"/>
		</g>
		<g>
			<polygon fill="#266279" points="223.881,116.56 361.951,116.56 361.951,123.759 223.881,123.759 228.029,120.16 			"/>
		</g>
	</g>
	<g>
		<g>
			<polygon fill="#266279" points="218.49,137.673 80.42,137.673 80.42,130.474 218.49,130.474 222.639,134.073 			"/>
		</g>
		<g>
			<polygon fill="#266279" points="223.881,130.474 361.951,130.474 361.951,137.673 223.881,137.673 228.029,134.073 			"/>
		</g>
	</g>
</g>
<g>
	<path fill="#266279" d="M58.539,50.259h9.006c0.877,0,1.658,0.131,2.348,0.393c0.689,0.263,1.27,0.612,1.74,1.051
		c0.473,0.438,0.834,0.947,1.084,1.527c0.251,0.58,0.377,1.185,0.377,1.813c0,0.576-0.062,1.082-0.186,1.517
		c-0.124,0.434-0.304,0.819-0.539,1.156c-0.236,0.337-0.526,0.635-0.871,0.893c-0.344,0.259-0.736,0.492-1.179,0.702
		c0.382,0.194,0.719,0.492,1.011,0.893s0.513,0.919,0.662,1.556l0.573,2.213h1.403l0.023,3.312h-4.941l-0.674-4.043
		c-0.068-0.479-0.171-0.893-0.31-1.241c-0.138-0.348-0.323-0.633-0.556-0.854s-0.515-0.384-0.848-0.488
		c-0.334-0.104-0.729-0.157-1.186-0.157H64.03v3.706h1.562v3.077h-7.053v-3.077h1.763v-10.86h-1.763V50.259z M64.03,53.347v4.122
		h2.235c0.426,0,0.811-0.039,1.15-0.118c0.341-0.078,0.633-0.202,0.876-0.37c0.243-0.169,0.431-0.38,0.562-0.635
		s0.197-0.558,0.197-0.909c0-0.659-0.236-1.172-0.708-1.539s-1.164-0.551-2.077-0.551H64.03z"/>
</g>
<g>
	<g>
		<path fill="#266279" d="M60.498,175.587h7.289v3.088H65.99v10.86h3.705c0.098,0,0.193-0.028,0.287-0.084
			c0.094-0.057,0.176-0.13,0.246-0.22c0.072-0.09,0.13-0.187,0.175-0.291c0.045-0.105,0.067-0.206,0.067-0.304v-2.28h3.639v6.256
			H60.498v-3.077h1.764v-10.86h-1.764V175.587z"/>
	</g>
	<g>
		<path fill="#266279" d="M219.723,218.008c-0.451-0.123-0.875-0.305-1.273-0.545s-0.748-0.537-1.047-0.893
			c-0.299-0.354-0.535-0.764-0.711-1.23c-0.176-0.465-0.264-0.988-0.264-1.568c0-0.615,0.123-1.191,0.369-1.727
			c0.246-0.537,0.594-1.004,1.045-1.402s0.996-0.712,1.635-0.94s1.352-0.343,2.137-0.343h6.012v2.417h-1.24v14.089h-2.574v-14.089
			h-1.512v14.089h-2.576V218.008z"/>
	</g>
	<g>
		<path fill="#266279" d="M69.787,274.285c-0.451-0.123-0.875-0.305-1.273-0.545s-0.748-0.537-1.047-0.893
			c-0.299-0.354-0.535-0.764-0.711-1.23c-0.176-0.465-0.264-0.988-0.264-1.568c0-0.615,0.123-1.191,0.369-1.727
			c0.246-0.537,0.594-1.004,1.045-1.402s0.996-0.712,1.635-0.94s1.352-0.343,2.137-0.343h6.012v2.417h-1.24v14.089h-2.574v-14.089
			h-1.512v14.089h-2.576V274.285z"/>
	</g>
	<g>
		<path fill="#266279" d="M69.787,357.285c-0.451-0.123-0.875-0.305-1.273-0.545s-0.748-0.537-1.047-0.893
			c-0.299-0.354-0.535-0.764-0.711-1.23c-0.176-0.465-0.264-0.988-0.264-1.568c0-0.615,0.123-1.191,0.369-1.727
			c0.246-0.537,0.594-1.004,1.045-1.402s0.996-0.712,1.635-0.94s1.352-0.343,2.137-0.343h6.012v2.417h-1.24v14.089h-2.574v-14.089
			h-1.512v14.089h-2.576V357.285z"/>
	</g>
	<g>
		<path fill="#266279" d="M69.787,440.619c-0.451-0.123-0.875-0.305-1.273-0.545s-0.748-0.537-1.047-0.893
			c-0.299-0.354-0.535-0.764-0.711-1.23c-0.176-0.465-0.264-0.988-0.264-1.568c0-0.615,0.123-1.191,0.369-1.727
			c0.246-0.537,0.594-1.004,1.045-1.402s0.996-0.712,1.635-0.94s1.352-0.343,2.137-0.343h6.012v2.417h-1.24v14.089h-2.574v-14.089
			h-1.512v14.089h-2.576V440.619z"/>
	</g>
	<g>
		<path fill="#266279" d="M219.723,384.618c-0.451-0.123-0.875-0.305-1.273-0.545s-0.748-0.537-1.047-0.893
			c-0.299-0.354-0.535-0.764-0.711-1.23c-0.176-0.465-0.264-0.988-0.264-1.568c0-0.615,0.123-1.191,0.369-1.727
			c0.246-0.537,0.594-1.004,1.045-1.402s0.996-0.712,1.635-0.94s1.352-0.343,2.137-0.343h6.012v2.417h-1.24v14.089h-2.574v-14.089
			h-1.512v14.089h-2.576V384.618z"/>
	</g>
	<g>
		<path fill="#266279" d="M219.723,301.286c-0.451-0.123-0.875-0.305-1.273-0.545s-0.748-0.537-1.047-0.893
			c-0.299-0.354-0.535-0.764-0.711-1.23c-0.176-0.465-0.264-0.988-0.264-1.568c0-0.615,0.123-1.191,0.369-1.727
			c0.246-0.537,0.594-1.004,1.045-1.402s0.996-0.712,1.635-0.94s1.352-0.343,2.137-0.343h6.012v2.417h-1.24v14.089h-2.574v-14.089
			h-1.512v14.089h-2.576V301.286z"/>
	</g>
	<g>
		<rect x="230.023" y="186.128" fill="#266279" width="131.928" height="7.2"/>
	</g>
	<g>
		<rect x="80.213" y="186.128" fill="#266279" width="131.928" height="7.2"/>
	</g>
	<g>
		<g>
			<rect x="230.023" y="200.042" fill="#266279" width="131.928" height="7.2"/>
		</g>
		<g>
			<rect x="80.213" y="200.042" fill="#266279" width="131.928" height="7.2"/>
		</g>
	</g>
	<g>
		<g>
			<rect x="230.023" y="213.957" fill="#266279" width="131.928" height="7.2"/>
		</g>
		<g>
			<rect x="80.213" y="213.957" fill="#266279" width="131.928" height="7.2"/>
		</g>
	</g>
	<g>
		<g>
			<rect x="230.023" y="227.871" fill="#266279" width="131.928" height="7.2"/>
		</g>
		<g>
			<rect x="80.213" y="227.871" fill="#266279" width="131.928" height="7.2"/>
		</g>
	</g>
	<g>
		<g>
			<rect x="230.023" y="241.784" fill="#266279" width="131.928" height="7.2"/>
		</g>
		<g>
			<rect x="80.213" y="241.784" fill="#266279" width="131.928" height="7.2"/>
		</g>
	</g>
	<g>
		<g>
			<rect x="230.023" y="255.698" fill="#266279" width="131.928" height="7.2"/>
		</g>
		<g>
			<rect x="80.213" y="255.698" fill="#266279" width="131.928" height="7.2"/>
		</g>
	</g>
	<g>
		<g>
			<rect x="230.023" y="269.611" fill="#266279" width="131.928" height="7.2"/>
		</g>
		<g>
			<rect x="80.213" y="269.611" fill="#266279" width="131.928" height="7.2"/>
		</g>
	</g>
	<g>
		<g>
			<rect x="230.023" y="283.526" fill="#266279" width="131.928" height="7.2"/>
		</g>
		<g>
			<rect x="80.213" y="283.526" fill="#266279" width="131.928" height="7.2"/>
		</g>
	</g>
	<g>
		<g>
			<rect x="230.023" y="297.439" fill="#266279" width="131.928" height="7.2"/>
		</g>
		<g>
			<rect x="80.213" y="297.439" fill="#266279" width="131.928" height="7.2"/>
		</g>
	</g>
	<g>
		<g>
			<rect x="230.023" y="311.353" fill="#266279" width="131.928" height="7.2"/>
		</g>
		<g>
			<rect x="80.213" y="311.353" fill="#266279" width="131.928" height="7.2"/>
		</g>
	</g>
	<g>
		<g>
			<rect x="230.023" y="325.267" fill="#266279" width="131.928" height="7.2"/>
		</g>
		<g>
			<rect x="80.213" y="325.267" fill="#266279" width="131.928" height="7.2"/>
		</g>
	</g>
	<g>
		<g>
			<rect x="230.023" y="339.181" fill="#266279" width="131.928" height="7.2"/>
		</g>
		<g>
			<rect x="80.213" y="339.181" fill="#266279" width="131.928" height="7.2"/>
		</g>
	</g>
	<g>
		<g>
			<rect x="230.023" y="353.094" fill="#266279" width="131.928" height="7.2"/>
		</g>
		<g>
			<rect x="80.213" y="353.094" fill="#266279" width="131.928" height="7.2"/>
		</g>
	</g>
	<g>
		<g>
			<rect x="230.023" y="367.008" fill="#266279" width="131.928" height="7.2"/>
		</g>
		<g>
			<rect x="80.213" y="367.008" fill="#266279" width="131.928" height="7.2"/>
		</g>
	</g>
	<g>
		<g>
			<rect x="230.023" y="380.922" fill="#266279" width="131.928" height="7.2"/>
		</g>
		<g>
			<rect x="80.213" y="380.922" fill="#266279" width="131.928" height="7.2"/>
		</g>
	</g>
	<g>
		<rect x="230.023" y="394.836" fill="#266279" width="131.928" height="7.2"/>
	</g>
	<g>
		<rect x="80.213" y="394.836" fill="#266279" width="131.928" height="7.2"/>
	</g>
	<g>
		<g>
			<rect x="230.023" y="408.75" fill="#266279" width="131.928" height="7.2"/>
		</g>
		<g>
			<rect x="80.213" y="408.75" fill="#266279" width="131.928" height="7.2"/>
		</g>
	</g>
	<g>
		<rect x="80.213" y="422.686" fill="#266279" width="131.928" height="7.2"/>
	</g>
	<g>
		<rect x="80.213" y="436.578" fill="#266279" width="131.928" height="7.2"/>
	</g>
	<g>
		<rect x="80.213" y="450.491" fill="#266279" width="131.928" height="7.2"/>
	</g>
	<g>
		<rect x="80.213" y="464.406" fill="#266279" width="131.928" height="7.2"/>
	</g>
	<g>
		<rect x="80.213" y="478.319" fill="#266279" width="131.928" height="7.2"/>
	</g>
</g>
</svg>
