<?xml version="1.0" encoding="utf-8"?>
<!-- Generator: Adobe Illustrator 16.0.4, SVG Export Plug-In . SVG Version: 6.00 Build 0)  -->
<!DOCTYPE svg PUBLIC "-//W3C//DTD SVG 1.1//EN" "http://www.w3.org/Graphics/SVG/1.1/DTD/svg11.dtd">
<svg version="1.1" id="Layer_1" xmlns="http://www.w3.org/2000/svg" xmlns:xlink="http://www.w3.org/1999/xlink" x="0px" y="0px"
	 width="448.746px" height="616.44px" viewBox="0 0 448.746 616.44" enable-background="new 0 0 448.746 616.44"
	 xml:space="preserve">
<rect x="0.501" y="0.5" fill="#FFFFFF" stroke="#C68D06" stroke-miterlimit="10" width="447.746" height="615.44"/>
<g>
	<path fill="#C68D06" d="M353.265,575.869h-12.461v-1.855l11.796-17.781h3.046v17.432h4.375v2.205h-4.375v6.266h-2.381V575.869z
		 M353.265,573.664v-14.526h-0.069l-9.592,14.526H353.265z"/>
	<path fill="#C68D06" d="M378.256,558.506h-13.337v-2.274h15.927v2.135l-10.956,23.768h-2.556L378.256,558.506z"/>
	<path fill="#C68D06" d="M389.209,556.232h8.681c5.776,0,8.996,2.45,8.996,7c0,4.201-2.45,6.301-6.195,7.001l6.546,11.901h-2.801
		l-6.336-11.621h-6.44v11.621h-2.45V556.232z M397.715,568.308c4.271,0,6.686-1.226,6.686-4.971c0-3.57-2.38-4.831-6.721-4.831
		h-6.021v9.802H397.715z"/>
</g>
<g>
	<rect x="79.126" y="158.3" fill="#C0DDE7" width="281.738" height="7.199"/>
</g>
<g>
	<rect x="79.126" y="186.127" fill="#C0DDE7" width="281.738" height="7.2"/>
</g>
<g>
	<rect x="79.126" y="200.042" fill="#C0DDE7" width="281.738" height="7.199"/>
</g>
<g>
	<rect x="79.126" y="213.956" fill="#C0DDE7" width="281.738" height="7.199"/>
</g>
<g>
	<rect x="79.126" y="227.869" fill="#C0DDE7" width="281.738" height="7.199"/>
</g>
<g>
	<rect x="79.126" y="241.783" fill="#C0DDE7" width="281.738" height="7.199"/>
</g>
<g>
	<rect x="79.126" y="255.696" fill="#C0DDE7" width="281.738" height="7.2"/>
</g>
<g>
	<rect x="79.126" y="269.61" fill="#C0DDE7" width="281.738" height="7.199"/>
</g>
<g>
	<rect x="79.126" y="283.524" fill="#C0DDE7" width="281.738" height="7.2"/>
</g>
<g>
	<rect x="79.126" y="297.438" fill="#C0DDE7" width="281.738" height="7.199"/>
</g>
<g>
	<rect x="79.126" y="311.352" fill="#C0DDE7" width="281.738" height="7.2"/>
</g>
<g>
	<rect x="79.126" y="325.266" fill="#C0DDE7" width="281.738" height="7.199"/>
</g>
<g>
	<rect x="79.126" y="339.18" fill="#C0DDE7" width="281.738" height="7.199"/>
</g>
<g>
	<rect x="79.126" y="353.093" fill="#C0DDE7" width="281.738" height="7.201"/>
</g>
<g>
	<rect x="79.126" y="367.007" fill="#C0DDE7" width="281.738" height="7.2"/>
</g>
<g>
	<rect x="79.126" y="380.921" fill="#C0DDE7" width="281.738" height="7.2"/>
</g>
<g>
	<rect x="79.126" y="394.835" fill="#C0DDE7" width="281.738" height="7.199"/>
</g>
<g>
	<rect x="79.126" y="408.749" fill="#C0DDE7" width="281.738" height="7.199"/>
</g>
<g>
	<rect x="79.126" y="422.663" fill="#C0DDE7" width="281.738" height="7.2"/>
</g>
<g>
	<rect x="79.126" y="436.576" fill="#C0DDE7" width="281.738" height="7.2"/>
</g>
<g>
	<rect x="79.126" y="450.49" fill="#C0DDE7" width="281.738" height="7.2"/>
</g>
<g>
	<rect x="79.126" y="464.404" fill="#C0DDE7" width="281.738" height="7.199"/>
</g>
<g>
	<rect x="79.126" y="478.317" fill="#C0DDE7" width="281.738" height="7.2"/>
</g>
<g>
	<rect x="79.126" y="60.902" fill="#C0DDE7" width="281.738" height="7.201"/>
</g>
<g>
	<rect x="79.126" y="74.816" fill="#C0DDE7" width="281.738" height="7.2"/>
</g>
<g>
	<rect x="79.126" y="144.386" fill="#C0DDE7" width="281.738" height="7.2"/>
</g>
<g>
	<rect x="79.126" y="172.213" fill="#C0DDE7" width="281.738" height="7.2"/>
</g>
<g>
	<rect x="79.126" y="88.73" fill="#C0DDE7" width="281.738" height="7.199"/>
</g>
<g>
	<rect x="79.126" y="102.645" fill="#C0DDE7" width="281.738" height="7.2"/>
</g>
<g>
	<rect x="79.126" y="116.559" fill="#C0DDE7" width="281.738" height="7.199"/>
</g>
<g>
	<rect x="79.126" y="130.474" fill="#C0DDE7" width="281.738" height="7.197"/>
</g>
<g>
	<rect x="79.126" y="158.3" fill="#C0DDE7" width="281.738" height="7.2"/>
</g>
<g>
	<g>
		<g>
			<path fill="#266279" d="M59.621,273.926h7.289v3.088h-1.797v10.86h3.706c0.097,0,0.192-0.028,0.286-0.084
				c0.094-0.057,0.176-0.13,0.247-0.22s0.13-0.187,0.175-0.291c0.045-0.105,0.066-0.206,0.066-0.304v-2.28h3.639v6.256H59.621
				v-3.077h1.764v-10.86h-1.764V273.926z"/>
		</g>
		<g>
			<g>
				<g>
					<polygon fill="#266279" points="217.403,290.725 79.335,290.725 79.335,283.525 217.403,283.525 221.552,287.125 					"/>
				</g>
				<g>
					<polygon fill="#266279" points="222.794,283.525 360.864,283.525 360.864,290.725 222.794,290.725 226.942,287.125 					"/>
				</g>
			</g>
			<g>
				<g>
					<polygon fill="#266279" points="217.403,304.639 79.335,304.639 79.335,297.439 217.403,297.439 221.552,301.039 					"/>
				</g>
				<g>
					<polygon fill="#266279" points="222.794,297.439 360.864,297.439 360.864,304.639 222.794,304.639 226.942,301.039 					"/>
				</g>
			</g>
			<g>
				<g>
					<polygon fill="#266279" points="217.403,374.207 79.335,374.207 79.335,367.008 217.403,367.008 221.552,370.607 					"/>
				</g>
				<g>
					<polygon fill="#266279" points="222.794,367.008 360.864,367.008 360.864,374.207 222.794,374.207 226.942,370.607 					"/>
				</g>
			</g>
			<g>
				<g>
					<polygon fill="#266279" points="217.403,318.552 79.335,318.552 79.335,311.353 217.403,311.353 221.552,314.952 					"/>
				</g>
				<g>
					<polygon fill="#266279" points="222.794,311.353 360.864,311.353 360.864,318.552 222.794,318.552 226.942,314.952 					"/>
				</g>
			</g>
			<g>
				<g>
					<polygon fill="#266279" points="217.403,332.467 79.335,332.467 79.335,325.268 217.403,325.268 221.552,328.866 					"/>
				</g>
				<g>
					<polygon fill="#266279" points="222.794,325.268 360.864,325.268 360.864,332.467 222.794,332.467 226.942,328.866 					"/>
				</g>
			</g>
			<g>
				<g>
					<polygon fill="#266279" points="217.403,346.38 79.335,346.38 79.335,339.18 217.403,339.18 221.552,342.779 					"/>
				</g>
				<g>
					<polygon fill="#266279" points="222.794,339.18 360.864,339.18 360.864,346.38 222.794,346.38 226.942,342.779 					"/>
				</g>
			</g>
			<g>
				<g>
					<polygon fill="#266279" points="217.403,360.294 79.335,360.294 79.335,353.094 217.403,353.094 221.552,356.693 					"/>
				</g>
				<g>
					<polygon fill="#266279" points="222.794,353.094 360.864,353.094 360.864,360.294 222.794,360.294 226.942,356.693 					"/>
				</g>
			</g>
		</g>
	</g>
	<g>
		<g>
			<g>
				<g>
					<polygon fill="#266279" points="217.403,68.103 79.335,68.103 79.335,60.904 217.403,60.904 221.552,64.504 					"/>
				</g>
				<g>
					<polygon fill="#266279" points="222.794,60.904 360.864,60.904 360.864,68.103 222.794,68.103 226.942,64.504 					"/>
				</g>
			</g>
			<g>
				<g>
					<polygon fill="#266279" points="217.403,151.585 79.335,151.585 79.335,144.387 217.403,144.387 221.552,147.986 					"/>
				</g>
				<g>
					<polygon fill="#266279" points="222.794,144.387 360.864,144.387 360.864,151.585 222.794,151.585 226.942,147.986 					"/>
				</g>
			</g>
			<g>
				<g>
					<polygon fill="#266279" points="217.403,95.931 79.335,95.931 79.335,88.731 217.403,88.731 221.552,92.331 					"/>
				</g>
				<g>
					<polygon fill="#266279" points="222.794,88.731 360.864,88.731 360.864,95.931 222.794,95.931 226.942,92.331 					"/>
				</g>
			</g>
			<g>
				<g>
					<polygon fill="#266279" points="217.403,82.016 79.335,82.016 79.335,74.816 217.403,74.816 221.552,78.415 					"/>
				</g>
				<g>
					<polygon fill="#266279" points="222.794,74.816 360.864,74.816 360.864,82.016 222.794,82.016 226.942,78.415 					"/>
				</g>
			</g>
			<g>
				<g>
					<polygon fill="#266279" points="217.403,109.845 79.335,109.845 79.335,102.646 217.403,102.646 221.552,106.245 					"/>
				</g>
				<g>
					<polygon fill="#266279" points="222.794,102.646 360.864,102.646 360.864,109.845 222.794,109.845 226.942,106.245 					"/>
				</g>
			</g>
			<g>
				<g>
					<polygon fill="#266279" points="217.403,123.758 79.335,123.758 79.335,116.559 217.403,116.559 221.552,120.158 					"/>
				</g>
				<g>
					<polygon fill="#266279" points="222.794,116.559 360.864,116.559 360.864,123.758 222.794,123.758 226.942,120.158 					"/>
				</g>
			</g>
			<g>
				<g>
					<polygon fill="#266279" points="217.403,137.672 79.335,137.672 79.335,130.473 217.403,130.473 221.552,134.071 					"/>
				</g>
				<g>
					<polygon fill="#266279" points="222.794,130.473 360.864,130.473 360.864,137.672 222.794,137.672 226.942,134.071 					"/>
				</g>
			</g>
		</g>
		<g>
			<path fill="#266279" d="M65.537,50.258h7.289v3.077h-1.797v10.871h1.797v3.077h-7.289v-3.077h1.764V53.335h-1.764V50.258z"/>
		</g>
	</g>
	<g>
		<g>
			<g>
				<g>
					<polygon fill="#266279" points="217.403,402.035 79.335,402.035 79.335,394.836 217.403,394.836 221.552,398.437 					"/>
				</g>
				<g>
					<polygon fill="#266279" points="222.794,394.836 360.864,394.836 360.864,402.035 222.794,402.035 226.942,398.437 					"/>
				</g>
			</g>
			<g>
				<g>
					<polygon fill="#266279" points="217.403,485.518 79.335,485.518 79.335,478.319 217.403,478.319 221.552,481.919 					"/>
				</g>
				<g>
					<polygon fill="#266279" points="222.794,478.319 360.864,478.319 360.864,485.518 222.794,485.518 226.942,481.919 					"/>
				</g>
			</g>
			<g>
				<g>
					<polygon fill="#266279" points="217.403,429.863 79.335,429.863 79.335,422.664 217.403,422.664 221.552,426.264 					"/>
				</g>
				<g>
					<polygon fill="#266279" points="222.794,422.664 360.864,422.664 360.864,429.863 222.794,429.863 226.942,426.264 					"/>
				</g>
			</g>
			<g>
				<g>
					<polygon fill="#266279" points="217.403,415.948 79.335,415.948 79.335,408.749 217.403,408.749 221.552,412.348 					"/>
				</g>
				<g>
					<polygon fill="#266279" points="222.794,408.749 360.864,408.749 360.864,415.948 222.794,415.948 226.942,412.348 					"/>
				</g>
			</g>
			<g>
				<g>
					<polygon fill="#266279" points="217.403,443.777 79.335,443.777 79.335,436.578 217.403,436.578 221.552,440.177 					"/>
				</g>
				<g>
					<polygon fill="#266279" points="222.794,436.578 360.864,436.578 360.864,443.777 222.794,443.777 226.942,440.177 					"/>
				</g>
			</g>
			<g>
				<g>
					<polygon fill="#266279" points="217.403,457.69 79.335,457.69 79.335,450.491 217.403,450.491 221.552,454.091 					"/>
				</g>
				<g>
					<polygon fill="#266279" points="222.794,450.491 360.864,450.491 360.864,457.69 222.794,457.69 226.942,454.091 					"/>
				</g>
			</g>
			<g>
				<g>
					<polygon fill="#266279" points="217.403,471.604 79.335,471.604 79.335,464.405 217.403,464.405 221.552,468.004 					"/>
				</g>
				<g>
					<polygon fill="#266279" points="222.794,464.405 360.864,464.405 360.864,471.604 222.794,471.604 226.942,468.004 					"/>
				</g>
			</g>
		</g>
		<g>
			<path fill="#266279" d="M58.912,384.19h7.861c0.875,0,1.68,0.137,2.414,0.41s1.366,0.642,1.898,1.105
				c0.531,0.465,0.947,1,1.246,1.606s0.449,1.239,0.449,1.897c0,0.794-0.118,1.537-0.354,2.229
				c-0.236,0.692-0.602,1.294-1.096,1.803s-1.119,0.911-1.875,1.207s-1.65,0.444-2.684,0.444h-2.37v3.245h1.562v3.077h-7.053v-3.077
				h1.763v-10.86h-1.763V384.19z M64.403,387.278v4.571h1.538c0.854,0,1.531-0.18,2.033-0.539s0.752-0.929,0.752-1.707
				c0-0.727-0.235-1.295-0.707-1.707s-1.164-0.618-2.078-0.618H64.403z"/>
		</g>
	</g>
	<g>
		<g>
			<path fill="#266279" d="M57.695,161.926h6.536c0.778,0,1.525,0.102,2.24,0.303c0.716,0.203,1.382,0.487,1.999,0.854
				c0.618,0.367,1.18,0.808,1.685,1.32c0.506,0.513,0.938,1.084,1.298,1.713s0.636,1.306,0.83,2.032
				c0.195,0.727,0.293,1.482,0.293,2.269s-0.098,1.542-0.293,2.269c-0.194,0.727-0.471,1.405-0.83,2.038s-0.792,1.209-1.298,1.729
				c-0.505,0.521-1.066,0.966-1.685,1.337c-0.617,0.37-1.283,0.656-1.999,0.859c-0.715,0.201-1.462,0.303-2.24,0.303h-6.536v-3.077
				h1.359v-10.86h-1.359V161.926z M62.783,165.014v10.86h1.426c0.606,0,1.18-0.143,1.719-0.427s1.006-0.672,1.403-1.162
				s0.712-1.067,0.943-1.729c0.231-0.663,0.349-1.376,0.349-2.14c0-0.756-0.117-1.464-0.349-2.123
				c-0.231-0.658-0.546-1.231-0.943-1.718s-0.864-0.868-1.403-1.146s-1.112-0.416-1.719-0.416H62.783z"/>
		</g>
		<g>
			<g>
				<g>
					<polygon fill="#266279" points="217.3,193.327 79.229,193.327 79.229,186.129 217.3,186.129 221.448,189.728 					"/>
				</g>
				<g>
					<polygon fill="#266279" points="222.69,186.129 360.761,186.129 360.761,193.327 222.69,193.327 226.839,189.728 					"/>
				</g>
			</g>
			<g>
				<g>
					<polygon fill="#266279" points="217.3,179.414 79.229,179.414 79.229,172.215 217.3,172.215 221.448,175.814 					"/>
				</g>
				<g>
					<polygon fill="#266279" points="222.69,172.215 360.761,172.215 360.761,179.414 222.69,179.414 226.839,175.814 					"/>
				</g>
			</g>
			<g>
				<g>
					<polygon fill="#266279" points="217.3,207.241 79.229,207.241 79.229,200.042 217.3,200.042 221.448,203.642 					"/>
				</g>
				<g>
					<polygon fill="#266279" points="222.69,200.042 360.761,200.042 360.761,207.241 222.69,207.241 226.839,203.642 					"/>
				</g>
			</g>
			<g>
				<g>
					<polygon fill="#266279" points="217.3,235.068 79.229,235.068 79.229,227.869 217.3,227.869 221.448,231.468 					"/>
				</g>
				<g>
					<polygon fill="#266279" points="222.69,227.869 360.761,227.869 360.761,235.068 222.69,235.068 226.839,231.468 					"/>
				</g>
			</g>
			<g>
				<g>
					<polygon fill="#266279" points="217.403,221.155 79.335,221.155 79.335,213.956 217.403,213.956 221.552,217.556 					"/>
				</g>
				<g>
					<polygon fill="#266279" points="222.794,213.956 360.864,213.956 360.864,221.155 222.794,221.155 226.942,217.556 					"/>
				</g>
			</g>
			<g>
				<g>
					<polygon fill="#266279" points="217.3,248.983 79.229,248.983 79.229,241.785 217.3,241.785 221.448,245.384 					"/>
				</g>
				<g>
					<polygon fill="#266279" points="222.69,241.785 360.761,241.785 360.761,248.983 222.69,248.983 226.839,245.384 					"/>
				</g>
			</g>
			<g>
				<g>
					<polygon fill="#266279" points="217.3,262.896 79.229,262.896 79.229,255.697 217.3,255.697 221.448,259.297 					"/>
				</g>
				<g>
					<polygon fill="#266279" points="222.69,255.697 360.761,255.697 360.761,262.896 222.69,262.896 226.839,259.297 					"/>
				</g>
			</g>
		</g>
	</g>
</g>
</svg>
