<?xml version="1.0" encoding="utf-8"?>
<!-- Generator: Adobe Illustrator 16.0.4, SVG Export Plug-In . SVG Version: 6.00 Build 0)  -->
<!DOCTYPE svg PUBLIC "-//W3C//DTD SVG 1.1//EN" "http://www.w3.org/Graphics/SVG/1.1/DTD/svg11.dtd">
<svg version="1.1" id="Layer_1" xmlns="http://www.w3.org/2000/svg" xmlns:xlink="http://www.w3.org/1999/xlink" x="0px" y="0px"
	 width="448.746px" height="616.44px" viewBox="0 0 448.746 616.44" enable-background="new 0 0 448.746 616.44"
	 xml:space="preserve">
<rect x="0.5" y="0.5" fill="#FFFFFF" stroke="#C68D06" stroke-miterlimit="10" width="447.747" height="615.44"/>
<g>
	<path fill="#C68D06" d="M355.482,573.616h-12.461v-1.855l11.796-17.781h3.046v17.432h4.375v2.205h-4.375v6.266h-2.381V573.616z
		 M355.482,571.411v-14.526h-0.069l-9.592,14.526H355.482z"/>
	<path fill="#C68D06" d="M380.474,556.254h-13.337v-2.274h15.927v2.135l-10.956,23.768h-2.556L380.474,556.254z"/>
	<path fill="#C68D06" d="M389.361,553.979h2.556l7.735,22.612h0.07l7.771-22.612h2.416l-9.102,26.008h-2.345L389.361,553.979z"/>
</g>
<g>
	<g>
		<rect x="79.883" y="158.217" fill="#C0DDE7" width="281.739" height="7.199"/>
	</g>
	<g>
		<rect x="79.884" y="172.13" fill="#C0DDE7" width="281.738" height="7.199"/>
	</g>
	<g>
		<rect x="79.883" y="186.044" fill="#C0DDE7" width="281.739" height="7.2"/>
	</g>
	<g>
		<rect x="79.883" y="199.958" fill="#C0DDE7" width="281.739" height="7.199"/>
	</g>
	<g>
		<rect x="79.883" y="213.872" fill="#C0DDE7" width="281.739" height="7.199"/>
	</g>
	<g>
		<rect x="79.883" y="227.785" fill="#C0DDE7" width="281.739" height="7.2"/>
	</g>
	<g>
		<rect x="79.884" y="241.699" fill="#C0DDE7" width="281.738" height="7.199"/>
	</g>
	<g>
		<rect x="79.884" y="255.612" fill="#C0DDE7" width="281.738" height="7.2"/>
	</g>
	<g>
		<rect x="79.883" y="269.527" fill="#C0DDE7" width="281.739" height="7.199"/>
	</g>
	<g>
		<rect x="79.884" y="283.44" fill="#C0DDE7" width="281.738" height="7.2"/>
	</g>
	<g>
		<rect x="79.883" y="297.354" fill="#C0DDE7" width="281.739" height="7.2"/>
	</g>
	<g>
		<rect x="79.883" y="311.269" fill="#C0DDE7" width="281.739" height="7.2"/>
	</g>
	<g>
		<rect x="79.883" y="325.183" fill="#C0DDE7" width="281.739" height="7.199"/>
	</g>
	<g>
		<rect x="79.884" y="339.096" fill="#C0DDE7" width="281.738" height="7.2"/>
	</g>
	<g>
		<rect x="79.883" y="353.01" fill="#C0DDE7" width="281.739" height="7.2"/>
	</g>
	<g>
		<rect x="79.883" y="366.924" fill="#C0DDE7" width="281.739" height="7.2"/>
	</g>
	<g>
		<rect x="79.883" y="380.838" fill="#C0DDE7" width="281.739" height="7.199"/>
	</g>
	<g>
		<rect x="79.883" y="394.752" fill="#C0DDE7" width="281.739" height="7.199"/>
	</g>
	<g>
		<rect x="79.884" y="408.665" fill="#C0DDE7" width="281.738" height="7.199"/>
	</g>
	<g>
		<rect x="79.883" y="422.579" fill="#C0DDE7" width="281.739" height="7.2"/>
	</g>
	<g>
		<rect x="79.884" y="436.492" fill="#C0DDE7" width="281.738" height="7.2"/>
	</g>
	<g>
		<rect x="79.883" y="450.407" fill="#C0DDE7" width="281.739" height="7.199"/>
	</g>
	<g>
		<rect x="79.884" y="464.32" fill="#C0DDE7" width="281.738" height="7.199"/>
	</g>
	<g>
		<rect x="79.883" y="478.234" fill="#C0DDE7" width="281.739" height="7.2"/>
	</g>
	<g>
		<rect x="79.883" y="60.819" fill="#C0DDE7" width="281.739" height="7.2"/>
	</g>
	<g>
		<rect x="79.884" y="74.733" fill="#C0DDE7" width="281.738" height="7.2"/>
	</g>
	<g>
		<rect x="79.884" y="144.303" fill="#C0DDE7" width="281.738" height="7.199"/>
	</g>
	<g>
		<rect x="79.883" y="88.647" fill="#C0DDE7" width="281.739" height="7.199"/>
	</g>
	<g>
		<rect x="79.884" y="102.561" fill="#C0DDE7" width="281.738" height="7.2"/>
	</g>
	<g>
		<rect x="79.884" y="116.475" fill="#C0DDE7" width="281.738" height="7.199"/>
	</g>
	<g>
		<rect x="79.884" y="130.389" fill="#C0DDE7" width="281.738" height="7.199"/>
	</g>
	<g>
		<g>
			<g>
				<path fill="#266279" d="M69.701,278.637c-0.038-0.262-0.129-0.509-0.275-0.74c-0.146-0.232-0.334-0.433-0.562-0.602
					c-0.228-0.168-0.486-0.301-0.773-0.398c-0.289-0.098-0.59-0.146-0.904-0.146c-0.285,0-0.551,0.03-0.798,0.09
					c-0.247,0.061-0.462,0.152-0.646,0.275c-0.184,0.124-0.33,0.283-0.438,0.478c-0.109,0.194-0.164,0.427-0.164,0.696
					c0,0.337,0.074,0.604,0.219,0.803c0.146,0.198,0.334,0.361,0.562,0.488c0.229,0.128,0.48,0.229,0.758,0.304
					s0.547,0.157,0.809,0.247l3.088,1.033c0.428,0.149,0.828,0.355,1.202,0.617c0.374,0.263,0.698,0.581,0.972,0.955
					s0.488,0.805,0.646,1.291c0.157,0.487,0.235,1.033,0.235,1.641c0,0.823-0.15,1.575-0.455,2.257
					c-0.303,0.682-0.728,1.266-1.273,1.752c-0.547,0.486-1.202,0.864-1.966,1.134s-1.61,0.404-2.538,0.404
					c-0.651,0-1.268-0.072-1.848-0.219c-0.58-0.146-1.109-0.357-1.589-0.635c-0.479-0.276-0.898-0.607-1.258-0.993
					s-0.64-0.822-0.843-1.309h-1.156v-3.38h4.065v0.695c0,0.338,0.054,0.648,0.163,0.933c0.108,0.284,0.271,0.531,0.488,0.741
					s0.49,0.372,0.82,0.488c0.329,0.116,0.715,0.174,1.156,0.174c0.674,0,1.187-0.155,1.539-0.466
					c0.352-0.311,0.527-0.743,0.527-1.297c0-0.284-0.062-0.522-0.186-0.713c-0.123-0.191-0.282-0.353-0.477-0.483
					c-0.195-0.131-0.412-0.241-0.652-0.331c-0.239-0.09-0.475-0.172-0.707-0.247l-2.572-0.831c-0.486-0.149-0.956-0.359-1.408-0.629
					c-0.453-0.27-0.854-0.606-1.203-1.011c-0.348-0.404-0.625-0.878-0.83-1.421c-0.206-0.543-0.309-1.162-0.309-1.858
					c0-0.809,0.149-1.529,0.449-2.162c0.299-0.633,0.719-1.166,1.258-1.6c0.539-0.435,1.179-0.764,1.92-0.988
					s1.554-0.338,2.438-0.338c0.695,0,1.34,0.081,1.932,0.242c0.591,0.161,1.121,0.376,1.588,0.646
					c0.469,0.27,0.865,0.578,1.191,0.927c0.326,0.348,0.574,0.709,0.746,1.084h1.123v3.391h-4.064V278.637z"/>
			</g>
			<g>
				<g>
					<g>
						<polygon fill="#266279" points="218.161,290.642 80.091,290.642 80.091,283.442 218.161,283.442 222.31,287.042 						"/>
					</g>
					<g>
						<polygon fill="#266279" points="223.552,283.442 361.622,283.442 361.622,290.642 223.552,290.642 227.699,287.042 						"/>
					</g>
				</g>
				<g>
					<g>
						<polygon fill="#266279" points="218.161,304.556 80.091,304.556 80.091,297.356 218.161,297.356 222.31,300.956 						"/>
					</g>
					<g>
						<polygon fill="#266279" points="223.552,297.356 361.622,297.356 361.622,304.556 223.552,304.556 227.699,300.956 						"/>
					</g>
				</g>
				<g>
					<g>
						<polygon fill="#266279" points="218.161,374.124 80.091,374.124 80.091,366.925 218.161,366.925 222.31,370.524 						"/>
					</g>
					<g>
						<polygon fill="#266279" points="223.552,366.925 361.622,366.925 361.622,374.124 223.552,374.124 227.699,370.524 						"/>
					</g>
				</g>
				<g>
					<g>
						<polygon fill="#266279" points="218.161,318.469 80.091,318.469 80.091,311.27 218.161,311.27 222.31,314.869 						"/>
					</g>
					<g>
						<polygon fill="#266279" points="223.552,311.27 361.622,311.27 361.622,318.469 223.552,318.469 227.699,314.869 						"/>
					</g>
				</g>
				<g>
					<g>
						<polygon fill="#266279" points="218.161,332.384 80.091,332.384 80.091,325.185 218.161,325.185 222.31,328.783 						"/>
					</g>
					<g>
						<polygon fill="#266279" points="223.552,325.185 361.622,325.185 361.622,332.384 223.552,332.384 227.699,328.783 						"/>
					</g>
				</g>
				<g>
					<g>
						<polygon fill="#266279" points="218.161,346.297 80.091,346.297 80.091,339.097 218.161,339.097 222.31,342.696 						"/>
					</g>
					<g>
						<polygon fill="#266279" points="223.552,339.097 361.622,339.097 361.622,346.297 223.552,346.297 227.699,342.696 						"/>
					</g>
				</g>
				<g>
					<g>
						<polygon fill="#266279" points="218.161,360.211 80.091,360.211 80.091,353.011 218.161,353.011 222.31,356.61 						"/>
					</g>
					<g>
						<polygon fill="#266279" points="223.552,353.011 361.622,353.011 361.622,360.211 223.552,360.211 227.699,356.61 						"/>
					</g>
				</g>
			</g>
		</g>
		<g>
			<g>
				<path fill="#266279" d="M65.006,402.836c-0.771,0-1.508-0.104-2.212-0.314c-0.704-0.209-1.36-0.505-1.971-0.887
					s-1.165-0.841-1.662-1.376c-0.498-0.535-0.923-1.13-1.274-1.785c-0.353-0.655-0.625-1.357-0.82-2.106
					c-0.195-0.748-0.292-1.53-0.292-2.347s0.097-1.601,0.292-2.353c0.195-0.753,0.468-1.456,0.82-2.111
					c0.352-0.655,0.776-1.251,1.274-1.786c0.497-0.535,1.052-0.993,1.662-1.376c0.61-0.381,1.267-0.677,1.971-0.887
					s1.441-0.314,2.212-0.314c0.771,0,1.511,0.104,2.219,0.314c0.707,0.21,1.366,0.506,1.977,0.887
					c0.609,0.383,1.164,0.841,1.662,1.376s0.924,1.131,1.28,1.786c0.355,0.655,0.63,1.358,0.825,2.111
					c0.195,0.752,0.292,1.536,0.292,2.353c0,0.809-0.097,1.589-0.292,2.342c-0.195,0.752-0.47,1.456-0.825,2.111
					c-0.356,0.655-0.782,1.25-1.28,1.785s-1.053,0.994-1.662,1.376c-0.61,0.382-1.27,0.678-1.977,0.887
					C66.517,402.731,65.777,402.836,65.006,402.836z M65.006,399.311c0.652,0,1.249-0.141,1.792-0.422
					c0.542-0.28,1.009-0.662,1.397-1.146c0.39-0.482,0.691-1.044,0.904-1.685c0.214-0.64,0.32-1.319,0.32-2.038
					c0-0.727-0.108-1.411-0.326-2.056c-0.217-0.644-0.521-1.207-0.915-1.689c-0.393-0.483-0.858-0.865-1.397-1.146
					c-0.539-0.281-1.131-0.421-1.775-0.421c-0.644,0-1.234,0.14-1.773,0.421c-0.539,0.28-1.004,0.662-1.393,1.146
					c-0.39,0.482-0.695,1.046-0.916,1.689c-0.221,0.645-0.331,1.329-0.331,2.056c0,0.719,0.11,1.398,0.331,2.038
					c0.221,0.641,0.526,1.202,0.916,1.685c0.389,0.483,0.854,0.865,1.393,1.146C63.771,399.17,64.362,399.311,65.006,399.311z"/>
			</g>
			<g>
				<g>
					<g>
						<polygon fill="#266279" points="218.161,401.952 80.091,401.952 80.091,394.753 218.161,394.753 222.31,398.353 						"/>
					</g>
					<g>
						<polygon fill="#266279" points="223.552,394.753 361.622,394.753 361.622,401.952 223.552,401.952 227.699,398.353 						"/>
					</g>
				</g>
				<g>
					<g>
						<polygon fill="#266279" points="218.161,415.866 80.091,415.866 80.091,408.667 218.161,408.667 222.31,412.267 						"/>
					</g>
					<g>
						<polygon fill="#266279" points="223.552,408.667 361.622,408.667 361.622,415.866 223.552,415.866 227.699,412.267 						"/>
					</g>
				</g>
				<g>
					<g>
						<polygon fill="#266279" points="218.161,485.435 80.091,485.435 80.091,478.235 218.161,478.235 222.31,481.835 						"/>
					</g>
					<g>
						<polygon fill="#266279" points="223.552,478.235 361.622,478.235 361.622,485.435 223.552,485.435 227.699,481.835 						"/>
					</g>
				</g>
				<g>
					<g>
						<polygon fill="#266279" points="218.161,429.779 80.091,429.779 80.091,422.58 218.161,422.58 222.31,426.18 						"/>
					</g>
					<g>
						<polygon fill="#266279" points="223.552,422.58 361.622,422.58 361.622,429.779 223.552,429.779 227.699,426.18 						"/>
					</g>
				</g>
				<g>
					<g>
						<polygon fill="#266279" points="218.161,443.694 80.091,443.694 80.091,436.495 218.161,436.495 222.31,440.094 						"/>
					</g>
					<g>
						<polygon fill="#266279" points="223.552,436.495 361.622,436.495 361.622,443.694 223.552,443.694 227.699,440.094 						"/>
					</g>
				</g>
				<g>
					<g>
						<polygon fill="#266279" points="218.161,457.607 80.091,457.607 80.091,450.407 218.161,450.407 222.31,454.007 						"/>
					</g>
					<g>
						<polygon fill="#266279" points="223.552,450.407 361.622,450.407 361.622,457.607 223.552,457.607 227.699,454.007 						"/>
					</g>
				</g>
				<g>
					<g>
						<polygon fill="#266279" points="218.161,471.521 80.091,471.521 80.091,464.321 218.161,464.321 222.31,467.921 						"/>
					</g>
					<g>
						<polygon fill="#266279" points="223.552,464.321 361.622,464.321 361.622,471.521 223.552,471.521 227.699,467.921 						"/>
					</g>
				</g>
			</g>
		</g>
		<g>
			<g>
				<g>
					<g>
						<polygon fill="#266279" points="218.161,68.02 80.091,68.02 80.091,60.82 218.161,60.82 222.309,64.42 						"/>
					</g>
					<g>
						<polygon fill="#266279" points="223.552,60.82 361.622,60.82 361.622,68.02 223.552,68.02 227.699,64.42 						"/>
					</g>
				</g>
				<g>
					<g>
						<polygon fill="#266279" points="218.161,151.502 80.091,151.502 80.091,144.303 218.161,144.303 222.309,147.903 						"/>
					</g>
					<g>
						<polygon fill="#266279" points="223.552,144.303 361.622,144.303 361.622,151.502 223.552,151.502 227.699,147.903 						"/>
					</g>
				</g>
				<g>
					<g>
						<polygon fill="#266279" points="218.161,95.848 80.091,95.848 80.091,88.648 218.161,88.648 222.309,92.248 						"/>
					</g>
					<g>
						<polygon fill="#266279" points="223.552,88.648 361.622,88.648 361.622,95.848 223.552,95.848 227.699,92.248 						"/>
					</g>
				</g>
				<g>
					<g>
						<polygon fill="#266279" points="218.161,81.933 80.091,81.933 80.091,74.733 218.161,74.733 222.309,78.332 						"/>
					</g>
					<g>
						<polygon fill="#266279" points="223.552,74.733 361.622,74.733 361.622,81.933 223.552,81.933 227.699,78.332 						"/>
					</g>
				</g>
				<g>
					<g>
						<polygon fill="#266279" points="218.161,109.762 80.091,109.762 80.091,102.562 218.161,102.562 222.309,106.162 						"/>
					</g>
					<g>
						<polygon fill="#266279" points="223.552,102.562 361.622,102.562 361.622,109.762 223.552,109.762 227.699,106.162 						"/>
					</g>
				</g>
				<g>
					<g>
						<polygon fill="#266279" points="218.161,123.675 80.091,123.675 80.091,116.476 218.161,116.476 222.309,120.075 						"/>
					</g>
					<g>
						<polygon fill="#266279" points="223.552,116.476 361.622,116.476 361.622,123.675 223.552,123.675 227.699,120.075 						"/>
					</g>
				</g>
				<g>
					<g>
						<polygon fill="#266279" points="218.161,137.589 80.091,137.589 80.091,130.389 218.161,130.389 222.309,133.988 						"/>
					</g>
					<g>
						<polygon fill="#266279" points="223.552,130.389 361.622,130.389 361.622,137.589 223.552,137.589 227.699,133.988 						"/>
					</g>
				</g>
			</g>
			<g>
				<path fill="#266279" d="M69.092,55.352c-0.42-0.6-0.797-1.024-1.135-1.275c-0.336-0.251-0.699-0.431-1.089-0.539
					s-0.798-0.162-1.224-0.162c-0.629,0-1.213,0.14-1.752,0.421c-0.539,0.28-1.006,0.662-1.398,1.146
					c-0.394,0.482-0.702,1.044-0.927,1.685c-0.225,0.64-0.337,1.319-0.337,2.038c0,0.727,0.11,1.409,0.331,2.05
					c0.222,0.64,0.526,1.199,0.915,1.679c0.39,0.479,0.854,0.859,1.393,1.14c0.539,0.281,1.131,0.421,1.775,0.421
					c0.449,0,0.868-0.072,1.258-0.219c0.389-0.146,0.742-0.339,1.061-0.578s0.598-0.515,0.837-0.825s0.427-0.635,0.562-0.972
					l3.616,1.011c-0.231,0.733-0.573,1.413-1.022,2.038s-0.99,1.166-1.622,1.623c-0.633,0.457-1.345,0.816-2.134,1.078
					c-0.79,0.262-1.642,0.393-2.555,0.393c-0.771,0-1.51-0.104-2.213-0.314c-0.703-0.209-1.361-0.505-1.971-0.887
					c-0.61-0.382-1.164-0.842-1.662-1.381s-0.923-1.137-1.275-1.792c-0.352-0.655-0.625-1.358-0.819-2.111
					c-0.194-0.752-0.292-1.536-0.292-2.353c0-1.221,0.213-2.364,0.641-3.431c0.426-1.067,1.01-1.999,1.752-2.797
					c0.74-0.797,1.611-1.426,2.61-1.887c1-0.46,2.076-0.69,3.229-0.69c0.92,0,1.695,0.114,2.324,0.343s1.321,0.679,2.078,1.353
					h2.516v3.797H69.092z"/>
			</g>
		</g>
		<g>
			<g>
				<path fill="#266279" d="M63.068,179.002c-0.958-0.194-1.844-0.552-2.655-1.072c-0.812-0.521-1.517-1.162-2.111-1.926
					c-0.596-0.764-1.06-1.627-1.393-2.589s-0.5-1.982-0.5-3.061c0-0.816,0.097-1.601,0.292-2.353
					c0.195-0.753,0.468-1.456,0.82-2.111c0.352-0.655,0.776-1.251,1.274-1.786c0.497-0.535,1.052-0.993,1.662-1.376
					c0.61-0.381,1.267-0.677,1.971-0.887s1.441-0.314,2.212-0.314c0.771,0,1.511,0.104,2.219,0.314
					c0.707,0.21,1.366,0.506,1.977,0.887c0.609,0.383,1.164,0.841,1.662,1.376s0.924,1.131,1.28,1.786
					c0.355,0.655,0.63,1.358,0.825,2.111c0.195,0.752,0.292,1.536,0.292,2.353c0,1.093-0.173,2.126-0.517,3.1
					s-0.822,1.846-1.432,2.616c-0.61,0.771-1.335,1.416-2.174,1.932c-0.838,0.518-1.748,0.861-2.729,1.033
					c0.232,0.098,0.463,0.204,0.69,0.32c0.229,0.116,0.459,0.225,0.69,0.326c0.232,0.101,0.463,0.187,0.691,0.258
					s0.462,0.11,0.701,0.118c0.232,0,0.459-0.03,0.68-0.09s0.422-0.153,0.602-0.28c0.18-0.128,0.334-0.293,0.466-0.494
					c0.131-0.203,0.219-0.449,0.264-0.742l2.505,1.247c-0.068,0.547-0.223,1.041-0.467,1.482c-0.243,0.441-0.556,0.819-0.938,1.134
					s-0.816,0.559-1.303,0.73s-1.004,0.258-1.55,0.258c-0.442,0-0.886-0.084-1.331-0.252c-0.445-0.169-0.876-0.353-1.291-0.551
					c-0.416-0.198-0.807-0.382-1.174-0.55c-0.367-0.169-0.689-0.253-0.966-0.253c-0.12,0-0.227-0.002-0.32-0.006
					c-0.093-0.004-0.185-0.004-0.274,0s-0.189,0.016-0.298,0.034s-0.234,0.054-0.376,0.106L63.068,179.002z M64.641,175.645
					c0.652,0,1.249-0.141,1.792-0.422c0.542-0.28,1.009-0.662,1.397-1.146c0.39-0.482,0.691-1.044,0.904-1.685
					c0.214-0.64,0.32-1.319,0.32-2.038c0-0.727-0.108-1.411-0.326-2.056c-0.217-0.644-0.521-1.207-0.915-1.689
					c-0.393-0.483-0.858-0.865-1.397-1.146c-0.539-0.281-1.131-0.421-1.775-0.421c-0.644,0-1.234,0.14-1.773,0.421
					c-0.539,0.28-1.004,0.662-1.393,1.146c-0.39,0.482-0.695,1.046-0.916,1.689c-0.221,0.645-0.331,1.329-0.331,2.056
					c0,0.719,0.11,1.398,0.331,2.038c0.221,0.641,0.526,1.202,0.916,1.685c0.389,0.483,0.854,0.865,1.393,1.146
					C63.406,175.504,63.997,175.645,64.641,175.645z"/>
			</g>
			<g>
				<g>
					<g>
						<polygon fill="#266279" points="218.057,193.245 79.986,193.245 79.986,186.045 218.057,186.045 222.205,189.645 						"/>
					</g>
					<g>
						<polygon fill="#266279" points="223.447,186.045 361.518,186.045 361.518,193.245 223.447,193.245 227.596,189.645 						"/>
					</g>
				</g>
				<g>
					<g>
						<polygon fill="#266279" points="218.057,179.331 79.986,179.331 79.986,172.132 218.057,172.132 222.205,175.731 						"/>
					</g>
					<g>
						<polygon fill="#266279" points="223.447,172.132 361.518,172.132 361.518,179.331 223.447,179.331 227.596,175.731 						"/>
					</g>
				</g>
				<g>
					<g>
						<polygon fill="#266279" points="218.057,207.158 79.986,207.158 79.986,199.959 218.057,199.959 222.205,203.558 						"/>
					</g>
					<g>
						<polygon fill="#266279" points="223.447,199.959 361.518,199.959 361.518,207.158 223.447,207.158 227.596,203.558 						"/>
					</g>
				</g>
				<g>
					<g>
						<polygon fill="#266279" points="218.057,234.985 79.986,234.985 79.986,227.786 218.057,227.786 222.205,231.385 						"/>
					</g>
					<g>
						<polygon fill="#266279" points="223.447,227.786 361.518,227.786 361.518,234.985 223.447,234.985 227.596,231.385 						"/>
					</g>
				</g>
				<g>
					<g>
						<polygon fill="#266279" points="218.161,221.072 80.091,221.072 80.091,213.873 218.161,213.873 222.309,217.473 						"/>
					</g>
					<g>
						<polygon fill="#266279" points="223.552,213.873 361.622,213.873 361.622,221.072 223.552,221.072 227.699,217.473 						"/>
					</g>
				</g>
				<g>
					<g>
						<polygon fill="#266279" points="218.057,248.9 79.986,248.9 79.986,241.701 218.057,241.701 222.205,245.3 						"/>
					</g>
					<g>
						<polygon fill="#266279" points="223.447,241.701 361.518,241.701 361.518,248.9 223.447,248.9 227.596,245.3 						"/>
					</g>
				</g>
				<g>
					<g>
						<polygon fill="#266279" points="218.057,262.813 79.986,262.813 79.986,255.614 218.057,255.614 222.205,259.213 						"/>
					</g>
					<g>
						<polygon fill="#266279" points="223.447,255.614 361.518,255.614 361.518,262.813 223.447,262.813 227.596,259.213 						"/>
					</g>
				</g>
			</g>
		</g>
	</g>
</g>
</svg>
