<?xml version="1.0" encoding="utf-8"?>
<!-- Generator: Adobe Illustrator 16.0.4, SVG Export Plug-In . SVG Version: 6.00 Build 0)  -->
<!DOCTYPE svg PUBLIC "-//W3C//DTD SVG 1.1//EN" "http://www.w3.org/Graphics/SVG/1.1/DTD/svg11.dtd">
<svg version="1.1" id="Layer_1" xmlns="http://www.w3.org/2000/svg" xmlns:xlink="http://www.w3.org/1999/xlink" x="0px" y="0px"
	 width="448.746px" height="616.44px" viewBox="0 0 448.746 616.44" enable-background="new 0 0 448.746 616.44"
	 xml:space="preserve">
<rect x="0.501" y="0.5" fill="#FFFFFF" stroke="#C68D06" stroke-miterlimit="10" width="447.746" height="615.44"/>
<g>
	<path fill="#C68D06" d="M350.01,575.869h-12.461v-1.855l11.796-17.781h3.046v17.432h4.375v2.205h-4.375v6.266h-2.381V575.869z
		 M350.01,573.664v-14.526h-0.069l-9.592,14.526H350.01z"/>
	<path fill="#C68D06" d="M362.539,575.869c0-3.641,2.59-5.636,6.86-7.491c-3.535-1.575-5.671-3.255-5.671-6.405
		c0-3.186,2.976-6.266,8.051-6.266c5.181,0,8.017,3.08,8.017,6.266c0,3.08-2.065,4.69-5.741,6.336
		c4.411,1.925,6.931,3.78,6.931,7.561c0,3.676-3.395,6.791-9.206,6.791C365.935,582.66,362.539,579.614,362.539,575.869z
		 M378.535,575.729c0-2.905-2.45-4.516-6.896-6.371c-4.585,2.03-6.65,3.605-6.65,6.371c0,2.835,2.835,4.83,6.79,4.83
		C375.7,580.559,378.535,578.668,378.535,575.729z M377.381,562.078c0-2.065-1.716-4.271-5.602-4.271c-3.71,0-5.635,2.1-5.635,4.165
		c0,2.45,1.785,3.676,5.74,5.391C375.771,565.682,377.381,564.493,377.381,562.078z"/>
	<path fill="#C68D06" d="M389.209,556.232h8.681c5.776,0,8.996,2.45,8.996,7c0,4.201-2.45,6.301-6.195,7.001l6.546,11.901h-2.801
		l-6.336-11.621h-6.44v11.621h-2.45V556.232z M397.715,568.308c4.271,0,6.686-1.226,6.686-4.971c0-3.57-2.38-4.831-6.721-4.831
		h-6.021v9.802H397.715z"/>
</g>
<g>
	<rect x="80.049" y="158.093" fill="#C0DDE7" width="281.739" height="7.199"/>
</g>
<g>
	<rect x="80.05" y="172.006" fill="#C0DDE7" width="281.738" height="7.199"/>
</g>
<g>
	<rect x="80.049" y="185.92" fill="#C0DDE7" width="281.739" height="7.2"/>
</g>
<g>
	<rect x="80.049" y="199.834" fill="#C0DDE7" width="281.739" height="7.199"/>
</g>
<g>
	<rect x="80.049" y="213.749" fill="#C0DDE7" width="281.739" height="7.199"/>
</g>
<g>
	<rect x="80.049" y="227.662" fill="#C0DDE7" width="281.739" height="7.2"/>
</g>
<g>
	<rect x="80.05" y="241.576" fill="#C0DDE7" width="281.738" height="7.199"/>
</g>
<g>
	<rect x="80.05" y="255.489" fill="#C0DDE7" width="281.738" height="7.2"/>
</g>
<g>
	<rect x="80.049" y="269.404" fill="#C0DDE7" width="281.739" height="7.199"/>
</g>
<g>
	<rect x="80.05" y="283.317" fill="#C0DDE7" width="281.738" height="7.2"/>
</g>
<g>
	<rect x="80.049" y="297.231" fill="#C0DDE7" width="281.739" height="7.2"/>
</g>
<g>
	<rect x="80.049" y="311.145" fill="#C0DDE7" width="281.739" height="7.2"/>
</g>
<g>
	<rect x="80.049" y="325.059" fill="#C0DDE7" width="281.739" height="7.199"/>
</g>
<g>
	<rect x="80.05" y="338.972" fill="#C0DDE7" width="281.738" height="7.2"/>
</g>
<g>
	<rect x="80.049" y="352.886" fill="#C0DDE7" width="281.739" height="7.2"/>
</g>
<g>
	<rect x="80.049" y="366.8" fill="#C0DDE7" width="281.739" height="7.2"/>
</g>
<g>
	<rect x="80.049" y="380.714" fill="#C0DDE7" width="281.739" height="7.199"/>
</g>
<g>
	<rect x="80.049" y="394.628" fill="#C0DDE7" width="281.739" height="7.199"/>
</g>
<g>
	<rect x="80.05" y="408.542" fill="#C0DDE7" width="281.738" height="7.199"/>
</g>
<g>
	<rect x="80.049" y="422.456" fill="#C0DDE7" width="281.739" height="7.2"/>
</g>
<g>
	<rect x="80.05" y="436.369" fill="#C0DDE7" width="281.738" height="7.2"/>
</g>
<g>
	<rect x="80.049" y="450.284" fill="#C0DDE7" width="281.739" height="7.199"/>
</g>
<g>
	<rect x="80.05" y="464.197" fill="#C0DDE7" width="281.738" height="7.199"/>
</g>
<g>
	<rect x="80.049" y="478.111" fill="#C0DDE7" width="281.739" height="7.2"/>
</g>
<g>
	<rect x="80.049" y="60.696" fill="#C0DDE7" width="281.739" height="7.2"/>
</g>
<g>
	<rect x="80.05" y="74.61" fill="#C0DDE7" width="281.738" height="7.2"/>
</g>
<g>
	<rect x="80.05" y="144.179" fill="#C0DDE7" width="281.738" height="7.199"/>
</g>
<g>
	<rect x="80.049" y="88.524" fill="#C0DDE7" width="281.739" height="7.199"/>
</g>
<g>
	<rect x="80.05" y="102.437" fill="#C0DDE7" width="281.738" height="7.2"/>
</g>
<g>
	<rect x="80.05" y="116.351" fill="#C0DDE7" width="281.738" height="7.199"/>
</g>
<g>
	<rect x="80.05" y="130.265" fill="#C0DDE7" width="281.738" height="7.199"/>
</g>
<g>
	<g>
		<g>
			<path fill="#266279" d="M66.564,273.718h7.289v3.077h-1.797v10.871h1.797v3.077h-7.289v-3.077h1.764v-10.871h-1.764V273.718z"/>
		</g>
		<g>
			<g>
				<g>
					<polygon fill="#266279" points="218.327,290.518 80.257,290.518 80.257,283.319 218.327,283.319 222.476,286.918 					"/>
				</g>
				<g>
					<polygon fill="#266279" points="223.718,283.319 361.788,283.319 361.788,290.518 223.718,290.518 227.864,286.918 					"/>
				</g>
			</g>
			<g>
				<g>
					<polygon fill="#266279" points="218.327,304.432 80.257,304.432 80.257,297.233 218.327,297.233 222.476,300.833 					"/>
				</g>
				<g>
					<polygon fill="#266279" points="223.718,297.233 361.788,297.233 361.788,304.432 223.718,304.432 227.864,300.833 					"/>
				</g>
			</g>
			<g>
				<g>
					<polygon fill="#266279" points="218.327,374 80.257,374 80.257,366.801 218.327,366.801 222.476,370.401 					"/>
				</g>
				<g>
					<polygon fill="#266279" points="223.718,366.801 361.788,366.801 361.788,374 223.718,374 227.864,370.401 					"/>
				</g>
			</g>
			<g>
				<g>
					<polygon fill="#266279" points="218.327,318.345 80.257,318.345 80.257,311.146 218.327,311.146 222.476,314.746 					"/>
				</g>
				<g>
					<polygon fill="#266279" points="223.718,311.146 361.788,311.146 361.788,318.345 223.718,318.345 227.864,314.746 					"/>
				</g>
			</g>
			<g>
				<g>
					<polygon fill="#266279" points="218.327,332.26 80.257,332.26 80.257,325.061 218.327,325.061 222.476,328.66 					"/>
				</g>
				<g>
					<polygon fill="#266279" points="223.718,325.061 361.788,325.061 361.788,332.26 223.718,332.26 227.864,328.66 					"/>
				</g>
			</g>
			<g>
				<g>
					<polygon fill="#266279" points="218.327,346.173 80.257,346.173 80.257,338.973 218.327,338.973 222.476,342.573 					"/>
				</g>
				<g>
					<polygon fill="#266279" points="223.718,338.973 361.788,338.973 361.788,346.173 223.718,346.173 227.864,342.573 					"/>
				</g>
			</g>
			<g>
				<g>
					<polygon fill="#266279" points="218.327,360.087 80.257,360.087 80.257,352.887 218.327,352.887 222.476,356.487 					"/>
				</g>
				<g>
					<polygon fill="#266279" points="223.718,352.887 361.788,352.887 361.788,360.087 223.718,360.087 227.864,356.487 					"/>
				</g>
			</g>
		</g>
	</g>
	<g>
		<g>
			<path fill="#266279" d="M60.545,385.384h7.289v3.088h-1.797v10.86h3.705c0.098,0,0.193-0.028,0.287-0.084
				c0.094-0.057,0.176-0.13,0.246-0.22c0.072-0.09,0.13-0.187,0.175-0.291c0.045-0.105,0.067-0.206,0.067-0.304v-2.28h3.639v6.256
				H60.545v-3.077h1.764v-10.86h-1.764V385.384z"/>
		</g>
		<g>
			<g>
				<g>
					<polygon fill="#266279" points="218.327,401.829 80.257,401.829 80.257,394.629 218.327,394.629 222.476,398.229 					"/>
				</g>
				<g>
					<polygon fill="#266279" points="223.718,394.629 361.788,394.629 361.788,401.829 223.718,401.829 227.864,398.229 					"/>
				</g>
			</g>
			<g>
				<g>
					<polygon fill="#266279" points="218.327,415.743 80.257,415.743 80.257,408.543 218.327,408.543 222.476,412.143 					"/>
				</g>
				<g>
					<polygon fill="#266279" points="223.718,408.543 361.788,408.543 361.788,415.743 223.718,415.743 227.864,412.143 					"/>
				</g>
			</g>
			<g>
				<g>
					<polygon fill="#266279" points="218.327,485.311 80.257,485.311 80.257,478.112 218.327,478.112 222.476,481.711 					"/>
				</g>
				<g>
					<polygon fill="#266279" points="223.718,478.112 361.788,478.112 361.788,485.311 223.718,485.311 227.864,481.711 					"/>
				</g>
			</g>
			<g>
				<g>
					<polygon fill="#266279" points="218.327,429.656 80.257,429.656 80.257,422.457 218.327,422.457 222.476,426.056 					"/>
				</g>
				<g>
					<polygon fill="#266279" points="223.718,422.457 361.788,422.457 361.788,429.656 223.718,429.656 227.864,426.056 					"/>
				</g>
			</g>
			<g>
				<g>
					<polygon fill="#266279" points="218.327,443.571 80.257,443.571 80.257,436.372 218.327,436.372 222.476,439.97 					"/>
				</g>
				<g>
					<polygon fill="#266279" points="223.718,436.372 361.788,436.372 361.788,443.571 223.718,443.571 227.864,439.97 					"/>
				</g>
			</g>
			<g>
				<g>
					<polygon fill="#266279" points="218.327,457.484 80.257,457.484 80.257,450.284 218.327,450.284 222.476,453.883 					"/>
				</g>
				<g>
					<polygon fill="#266279" points="223.718,450.284 361.788,450.284 361.788,457.484 223.718,457.484 227.864,453.883 					"/>
				</g>
			</g>
			<g>
				<g>
					<polygon fill="#266279" points="218.327,471.398 80.257,471.398 80.257,464.198 218.327,464.198 222.476,467.797 					"/>
				</g>
				<g>
					<polygon fill="#266279" points="223.718,464.198 361.788,464.198 361.788,471.398 223.718,471.398 227.864,467.797 					"/>
				</g>
			</g>
		</g>
	</g>
	<g>
		<g>
			<g>
				<g>
					<polygon fill="#266279" points="218.327,67.896 80.257,67.896 80.257,60.696 218.327,60.696 222.475,64.297 					"/>
				</g>
				<g>
					<polygon fill="#266279" points="223.718,60.696 361.788,60.696 361.788,67.896 223.718,67.896 227.865,64.297 					"/>
				</g>
			</g>
			<g>
				<g>
					<polygon fill="#266279" points="218.327,151.378 80.257,151.378 80.257,144.18 218.327,144.18 222.475,147.779 					"/>
				</g>
				<g>
					<polygon fill="#266279" points="223.718,144.18 361.788,144.18 361.788,151.378 223.718,151.378 227.865,147.779 					"/>
				</g>
			</g>
			<g>
				<g>
					<polygon fill="#266279" points="218.327,95.724 80.257,95.724 80.257,88.525 218.327,88.525 222.475,92.124 					"/>
				</g>
				<g>
					<polygon fill="#266279" points="223.718,88.525 361.788,88.525 361.788,95.724 223.718,95.724 227.865,92.124 					"/>
				</g>
			</g>
			<g>
				<g>
					<polygon fill="#266279" points="218.327,81.809 80.257,81.809 80.257,74.61 218.327,74.61 222.475,78.208 					"/>
				</g>
				<g>
					<polygon fill="#266279" points="223.718,74.61 361.788,74.61 361.788,81.809 223.718,81.809 227.865,78.208 					"/>
				</g>
			</g>
			<g>
				<g>
					<polygon fill="#266279" points="218.327,109.638 80.257,109.638 80.257,102.439 218.327,102.439 222.475,106.038 					"/>
				</g>
				<g>
					<polygon fill="#266279" points="223.718,102.439 361.788,102.439 361.788,109.638 223.718,109.638 227.865,106.038 					"/>
				</g>
			</g>
			<g>
				<g>
					<polygon fill="#266279" points="218.327,123.551 80.257,123.551 80.257,116.352 218.327,116.352 222.475,119.951 					"/>
				</g>
				<g>
					<polygon fill="#266279" points="223.718,116.352 361.788,116.352 361.788,123.551 223.718,123.551 227.865,119.951 					"/>
				</g>
			</g>
			<g>
				<g>
					<polygon fill="#266279" points="218.327,137.465 80.257,137.465 80.257,130.266 218.327,130.266 222.475,133.865 					"/>
				</g>
				<g>
					<polygon fill="#266279" points="223.718,130.266 361.788,130.266 361.788,137.465 223.718,137.465 227.865,133.865 					"/>
				</g>
			</g>
		</g>
		<g>
			<path fill="#266279" d="M66.461,50.05h7.289v3.077h-1.797v10.871h1.797v3.077h-7.289v-3.077h1.764V53.127h-1.764V50.05z"/>
		</g>
	</g>
	<g>
		<g>
			<path fill="#266279" d="M64.964,179.046c-0.771,0-1.509-0.104-2.212-0.314c-0.704-0.209-1.361-0.505-1.971-0.887
				c-0.611-0.382-1.165-0.841-1.662-1.376c-0.498-0.535-0.924-1.13-1.275-1.785s-0.625-1.357-0.82-2.106
				c-0.194-0.748-0.291-1.53-0.291-2.347s0.097-1.601,0.291-2.353c0.195-0.753,0.469-1.456,0.82-2.111s0.777-1.251,1.275-1.786
				c0.497-0.535,1.051-0.993,1.662-1.376c0.609-0.381,1.267-0.677,1.971-0.887c0.703-0.21,1.441-0.314,2.212-0.314
				s1.511,0.104,2.218,0.314s1.367,0.506,1.977,0.887c0.61,0.383,1.164,0.841,1.662,1.376s0.925,1.131,1.281,1.786
				c0.355,0.655,0.63,1.358,0.824,2.111c0.195,0.752,0.293,1.536,0.293,2.353c0,0.809-0.098,1.589-0.293,2.342
				c-0.194,0.752-0.469,1.456-0.824,2.111c-0.356,0.655-0.783,1.25-1.281,1.785s-1.052,0.994-1.662,1.376
				c-0.609,0.382-1.27,0.678-1.977,0.887C66.475,178.942,65.734,179.046,64.964,179.046z M64.964,175.521
				c0.651,0,1.249-0.141,1.792-0.422c0.542-0.28,1.008-0.662,1.397-1.146c0.39-0.482,0.69-1.044,0.903-1.685
				c0.215-0.64,0.32-1.319,0.32-2.038c0-0.727-0.107-1.411-0.325-2.056c-0.218-0.644-0.522-1.207-0.915-1.689
				c-0.393-0.483-0.859-0.865-1.398-1.146c-0.539-0.281-1.131-0.421-1.774-0.421s-1.235,0.14-1.774,0.421
				c-0.539,0.28-1.004,0.662-1.393,1.146c-0.389,0.482-0.694,1.046-0.916,1.689c-0.221,0.645-0.33,1.329-0.33,2.056
				c0,0.719,0.109,1.398,0.33,2.038c0.222,0.641,0.527,1.202,0.916,1.685c0.389,0.483,0.854,0.865,1.393,1.146
				C63.729,175.38,64.32,175.521,64.964,175.521z"/>
		</g>
		<g>
			<g>
				<g>
					<polygon fill="#266279" points="218.223,193.121 80.152,193.121 80.152,185.922 218.223,185.922 222.37,189.521 					"/>
				</g>
				<g>
					<polygon fill="#266279" points="223.613,185.922 361.684,185.922 361.684,193.121 223.613,193.121 227.761,189.521 					"/>
				</g>
			</g>
			<g>
				<g>
					<polygon fill="#266279" points="218.223,179.208 80.152,179.208 80.152,172.008 218.223,172.008 222.37,175.608 					"/>
				</g>
				<g>
					<polygon fill="#266279" points="223.613,172.008 361.684,172.008 361.684,179.208 223.613,179.208 227.761,175.608 					"/>
				</g>
			</g>
			<g>
				<g>
					<polygon fill="#266279" points="218.223,207.035 80.152,207.035 80.152,199.835 218.223,199.835 222.37,203.435 					"/>
				</g>
				<g>
					<polygon fill="#266279" points="223.613,199.835 361.684,199.835 361.684,207.035 223.613,207.035 227.761,203.435 					"/>
				</g>
			</g>
			<g>
				<g>
					<polygon fill="#266279" points="218.223,234.862 80.152,234.862 80.152,227.663 218.223,227.663 222.37,231.261 					"/>
				</g>
				<g>
					<polygon fill="#266279" points="223.613,227.663 361.684,227.663 361.684,234.862 223.613,234.862 227.761,231.261 					"/>
				</g>
			</g>
			<g>
				<g>
					<polygon fill="#266279" points="218.327,220.949 80.257,220.949 80.257,213.75 218.327,213.75 222.475,217.349 					"/>
				</g>
				<g>
					<polygon fill="#266279" points="223.718,213.75 361.788,213.75 361.788,220.949 223.718,220.949 227.865,217.349 					"/>
				</g>
			</g>
			<g>
				<g>
					<polygon fill="#266279" points="218.223,248.777 80.152,248.777 80.152,241.578 218.223,241.578 222.37,245.177 					"/>
				</g>
				<g>
					<polygon fill="#266279" points="223.613,241.578 361.684,241.578 361.684,248.777 223.613,248.777 227.761,245.177 					"/>
				</g>
			</g>
			<g>
				<g>
					<polygon fill="#266279" points="218.223,262.69 80.152,262.69 80.152,255.491 218.223,255.491 222.37,259.09 					"/>
				</g>
				<g>
					<polygon fill="#266279" points="223.613,255.491 361.684,255.491 361.684,262.69 223.613,262.69 227.761,259.09 					"/>
				</g>
			</g>
		</g>
	</g>
</g>
</svg>
