<?xml version="1.0" encoding="utf-8"?>
<!-- Generator: Adobe Illustrator 16.0.4, SVG Export Plug-In . SVG Version: 6.00 Build 0)  -->
<!DOCTYPE svg PUBLIC "-//W3C//DTD SVG 1.1//EN" "http://www.w3.org/Graphics/SVG/1.1/DTD/svg11.dtd">
<svg version="1.1" id="Layer_1" xmlns="http://www.w3.org/2000/svg" xmlns:xlink="http://www.w3.org/1999/xlink" x="0px" y="0px"
	 width="448.746px" height="616.44px" viewBox="0 0 448.746 616.44" enable-background="new 0 0 448.746 616.44"
	 xml:space="preserve">
<rect x="0.5" y="0.5" fill="#FFFFFF" stroke="#C68D06" stroke-miterlimit="10" width="447.747" height="615.44"/>
<g>
	<path fill="#C68D06" d="M353.63,573.614h-12.461v-1.855l11.796-17.781h3.046v17.432h4.375v2.205h-4.375v6.266h-2.381V573.614z
		 M353.63,571.409v-14.526h-0.069l-9.592,14.526H353.63z"/>
	<path fill="#C68D06" d="M366.158,573.614c0-3.641,2.59-5.636,6.86-7.491c-3.535-1.575-5.671-3.255-5.671-6.405
		c0-3.186,2.976-6.266,8.051-6.266c5.181,0,8.017,3.08,8.017,6.266c0,3.08-2.065,4.69-5.741,6.336
		c4.411,1.925,6.931,3.78,6.931,7.561c0,3.676-3.395,6.791-9.206,6.791C369.554,580.405,366.158,577.359,366.158,573.614z
		 M382.154,573.474c0-2.905-2.45-4.516-6.896-6.371c-4.585,2.03-6.65,3.605-6.65,6.371c0,2.835,2.835,4.83,6.79,4.83
		C379.319,578.304,382.154,576.414,382.154,573.474z M381,559.823c0-2.065-1.716-4.271-5.602-4.271c-3.71,0-5.635,2.1-5.635,4.165
		c0,2.45,1.785,3.676,5.74,5.391C379.39,563.427,381,562.238,381,559.823z"/>
	<path fill="#C68D06" d="M390.763,553.977h2.556l7.735,22.612h0.07l7.771-22.612h2.416l-9.102,26.008h-2.345L390.763,553.977z"/>
</g>
<g>
	<g>
		<rect x="80.146" y="152.499" fill="#C0DDE7" width="281.739" height="7.199"/>
	</g>
	<g>
		<rect x="80.147" y="166.412" fill="#C0DDE7" width="281.738" height="7.199"/>
	</g>
	<g>
		<rect x="80.146" y="180.326" fill="#C0DDE7" width="281.739" height="7.2"/>
	</g>
	<g>
		<rect x="80.146" y="194.24" fill="#C0DDE7" width="281.739" height="7.199"/>
	</g>
	<g>
		<rect x="80.146" y="208.154" fill="#C0DDE7" width="281.739" height="7.199"/>
	</g>
	<g>
		<rect x="80.146" y="222.067" fill="#C0DDE7" width="281.739" height="7.2"/>
	</g>
	<g>
		<rect x="80.147" y="235.981" fill="#C0DDE7" width="281.738" height="7.199"/>
	</g>
	<g>
		<rect x="80.147" y="249.894" fill="#C0DDE7" width="281.738" height="7.2"/>
	</g>
	<g>
		<rect x="80.146" y="263.809" fill="#C0DDE7" width="281.739" height="7.199"/>
	</g>
	<g>
		<rect x="80.147" y="277.722" fill="#C0DDE7" width="281.738" height="7.2"/>
	</g>
	<g>
		<rect x="80.146" y="291.636" fill="#C0DDE7" width="281.739" height="7.2"/>
	</g>
	<g>
		<rect x="80.146" y="305.55" fill="#C0DDE7" width="281.739" height="7.2"/>
	</g>
	<g>
		<rect x="80.146" y="319.464" fill="#C0DDE7" width="281.739" height="7.199"/>
	</g>
	<g>
		<rect x="80.147" y="333.377" fill="#C0DDE7" width="281.738" height="7.2"/>
	</g>
	<g>
		<rect x="80.146" y="347.292" fill="#C0DDE7" width="281.739" height="7.2"/>
	</g>
	<g>
		<rect x="80.146" y="361.206" fill="#C0DDE7" width="281.739" height="7.2"/>
	</g>
	<g>
		<rect x="80.146" y="375.12" fill="#C0DDE7" width="281.739" height="7.199"/>
	</g>
	<g>
		<rect x="80.146" y="389.034" fill="#C0DDE7" width="281.739" height="7.199"/>
	</g>
	<g>
		<rect x="80.147" y="402.947" fill="#C0DDE7" width="281.738" height="7.199"/>
	</g>
	<g>
		<rect x="80.146" y="416.861" fill="#C0DDE7" width="281.739" height="7.2"/>
	</g>
	<g>
		<rect x="80.147" y="430.774" fill="#C0DDE7" width="281.738" height="7.2"/>
	</g>
	<g>
		<rect x="80.146" y="444.689" fill="#C0DDE7" width="281.739" height="7.199"/>
	</g>
	<g>
		<rect x="80.147" y="458.602" fill="#C0DDE7" width="281.738" height="7.199"/>
	</g>
	<g>
		<rect x="80.146" y="472.516" fill="#C0DDE7" width="281.739" height="7.2"/>
	</g>
	<g>
		<rect x="80.146" y="55.101" fill="#C0DDE7" width="281.739" height="7.2"/>
	</g>
	<g>
		<rect x="80.147" y="69.015" fill="#C0DDE7" width="281.738" height="7.2"/>
	</g>
	<g>
		<rect x="80.147" y="138.584" fill="#C0DDE7" width="281.738" height="7.199"/>
	</g>
	<g>
		<rect x="80.146" y="82.929" fill="#C0DDE7" width="281.739" height="7.199"/>
	</g>
	<g>
		<rect x="80.147" y="96.842" fill="#C0DDE7" width="281.738" height="7.2"/>
	</g>
	<g>
		<rect x="80.147" y="110.756" fill="#C0DDE7" width="281.738" height="7.199"/>
	</g>
	<g>
		<rect x="80.147" y="124.67" fill="#C0DDE7" width="281.738" height="7.199"/>
	</g>
	<g>
		<g>
			<g>
				<path fill="#266279" d="M66.966,268.124h7.288v3.088h-1.516l-4.549,13.938h-4.604l-4.414-13.938h-1.64v-3.088h7.3v3.088h-1.819
					l2.965,9.658l2.954-9.658h-1.966V268.124z"/>
			</g>
			<g>
				<g>
					<g>
						<polygon fill="#266279" points="218.425,284.923 80.354,284.923 80.354,277.724 218.425,277.724 222.573,281.324 						"/>
					</g>
					<g>
						<polygon fill="#266279" points="223.815,277.724 361.886,277.724 361.886,284.923 223.815,284.923 227.963,281.324 						"/>
					</g>
				</g>
				<g>
					<g>
						<polygon fill="#266279" points="218.425,298.837 80.354,298.837 80.354,291.638 218.425,291.638 222.573,295.238 						"/>
					</g>
					<g>
						<polygon fill="#266279" points="223.815,291.638 361.886,291.638 361.886,298.837 223.815,298.837 227.963,295.238 						"/>
					</g>
				</g>
				<g>
					<g>
						<polygon fill="#266279" points="218.425,368.406 80.354,368.406 80.354,361.207 218.425,361.207 222.573,364.806 						"/>
					</g>
					<g>
						<polygon fill="#266279" points="223.815,361.207 361.886,361.207 361.886,368.406 223.815,368.406 227.963,364.806 						"/>
					</g>
				</g>
				<g>
					<g>
						<polygon fill="#266279" points="218.425,312.75 80.354,312.75 80.354,305.551 218.425,305.551 222.573,309.151 						"/>
					</g>
					<g>
						<polygon fill="#266279" points="223.815,305.551 361.886,305.551 361.886,312.75 223.815,312.75 227.963,309.151 						"/>
					</g>
				</g>
				<g>
					<g>
						<polygon fill="#266279" points="218.425,326.666 80.354,326.666 80.354,319.466 218.425,319.466 222.573,323.065 						"/>
					</g>
					<g>
						<polygon fill="#266279" points="223.815,319.466 361.886,319.466 361.886,326.666 223.815,326.666 227.963,323.065 						"/>
					</g>
				</g>
				<g>
					<g>
						<polygon fill="#266279" points="218.425,340.579 80.354,340.579 80.354,333.378 218.425,333.378 222.573,336.978 						"/>
					</g>
					<g>
						<polygon fill="#266279" points="223.815,333.378 361.886,333.378 361.886,340.579 223.815,340.579 227.963,336.978 						"/>
					</g>
				</g>
				<g>
					<g>
						<polygon fill="#266279" points="218.425,354.493 80.354,354.493 80.354,347.292 218.425,347.292 222.573,350.892 						"/>
					</g>
					<g>
						<polygon fill="#266279" points="223.815,347.292 361.886,347.292 361.886,354.493 223.815,354.493 227.963,350.892 						"/>
					</g>
				</g>
			</g>
		</g>
		<g>
			<g>
				<path fill="#266279" d="M69.459,384.967c-0.42-0.6-0.797-1.024-1.135-1.275c-0.336-0.251-0.699-0.431-1.089-0.539
					s-0.798-0.162-1.224-0.162c-0.629,0-1.213,0.14-1.752,0.421c-0.539,0.28-1.006,0.662-1.398,1.146
					c-0.394,0.482-0.702,1.044-0.927,1.685c-0.225,0.64-0.337,1.319-0.337,2.038c0,0.727,0.11,1.409,0.331,2.05
					c0.222,0.64,0.526,1.199,0.915,1.679c0.39,0.479,0.854,0.859,1.393,1.14c0.539,0.281,1.131,0.421,1.775,0.421
					c0.449,0,0.868-0.072,1.258-0.219c0.389-0.146,0.742-0.339,1.061-0.578s0.598-0.515,0.837-0.825s0.427-0.635,0.562-0.972
					l3.616,1.011c-0.231,0.733-0.573,1.413-1.022,2.038s-0.99,1.166-1.622,1.623c-0.633,0.457-1.345,0.816-2.134,1.078
					c-0.79,0.262-1.642,0.393-2.555,0.393c-0.771,0-1.51-0.104-2.213-0.314c-0.703-0.209-1.361-0.505-1.971-0.887
					c-0.61-0.382-1.164-0.842-1.662-1.381s-0.923-1.137-1.275-1.792c-0.352-0.655-0.625-1.358-0.819-2.111
					c-0.194-0.752-0.292-1.536-0.292-2.353c0-1.221,0.213-2.364,0.641-3.431c0.426-1.067,1.01-1.999,1.752-2.797
					c0.74-0.797,1.611-1.426,2.61-1.887c1-0.46,2.076-0.69,3.229-0.69c0.92,0,1.695,0.114,2.324,0.343s1.321,0.679,2.078,1.353
					h2.516v3.797H69.459z"/>
			</g>
			<g>
				<g>
					<g>
						<polygon fill="#266279" points="218.425,396.234 80.354,396.234 80.354,389.035 218.425,389.035 222.573,392.634 						"/>
					</g>
					<g>
						<polygon fill="#266279" points="223.815,389.035 361.886,389.035 361.886,396.234 223.815,396.234 227.963,392.634 						"/>
					</g>
				</g>
				<g>
					<g>
						<polygon fill="#266279" points="218.425,410.148 80.354,410.148 80.354,402.949 218.425,402.949 222.573,406.548 						"/>
					</g>
					<g>
						<polygon fill="#266279" points="223.815,402.949 361.886,402.949 361.886,410.148 223.815,410.148 227.963,406.548 						"/>
					</g>
				</g>
				<g>
					<g>
						<polygon fill="#266279" points="218.425,479.716 80.354,479.716 80.354,472.517 218.425,472.517 222.573,476.117 						"/>
					</g>
					<g>
						<polygon fill="#266279" points="223.815,472.517 361.886,472.517 361.886,479.716 223.815,479.716 227.963,476.117 						"/>
					</g>
				</g>
				<g>
					<g>
						<polygon fill="#266279" points="218.425,424.061 80.354,424.061 80.354,416.862 218.425,416.862 222.573,420.461 						"/>
					</g>
					<g>
						<polygon fill="#266279" points="223.815,416.862 361.886,416.862 361.886,424.061 223.815,424.061 227.963,420.461 						"/>
					</g>
				</g>
				<g>
					<g>
						<polygon fill="#266279" points="218.425,437.976 80.354,437.976 80.354,430.777 218.425,430.777 222.573,434.375 						"/>
					</g>
					<g>
						<polygon fill="#266279" points="223.815,430.777 361.886,430.777 361.886,437.976 223.815,437.976 227.963,434.375 						"/>
					</g>
				</g>
				<g>
					<g>
						<polygon fill="#266279" points="218.425,451.889 80.354,451.889 80.354,444.689 218.425,444.689 222.573,448.289 						"/>
					</g>
					<g>
						<polygon fill="#266279" points="223.815,444.689 361.886,444.689 361.886,451.889 223.815,451.889 227.963,448.289 						"/>
					</g>
				</g>
				<g>
					<g>
						<polygon fill="#266279" points="218.425,465.803 80.354,465.803 80.354,458.603 218.425,458.603 222.573,462.203 						"/>
					</g>
					<g>
						<polygon fill="#266279" points="223.815,458.603 361.886,458.603 361.886,465.803 223.815,465.803 227.963,462.203 						"/>
					</g>
				</g>
			</g>
		</g>
		<g>
			<g>
				<g>
					<g>
						<polygon fill="#266279" points="218.425,62.301 80.354,62.301 80.354,55.102 218.425,55.102 222.572,58.702 						"/>
					</g>
					<g>
						<polygon fill="#266279" points="223.815,55.102 361.886,55.102 361.886,62.301 223.815,62.301 227.963,58.702 						"/>
					</g>
				</g>
				<g>
					<g>
						<polygon fill="#266279" points="218.425,145.784 80.354,145.784 80.354,138.585 218.425,138.585 222.572,142.185 						"/>
					</g>
					<g>
						<polygon fill="#266279" points="223.815,138.585 361.886,138.585 361.886,145.784 223.815,145.784 227.963,142.185 						"/>
					</g>
				</g>
				<g>
					<g>
						<polygon fill="#266279" points="218.425,90.129 80.354,90.129 80.354,82.93 218.425,82.93 222.572,86.529 						"/>
					</g>
					<g>
						<polygon fill="#266279" points="223.815,82.93 361.886,82.93 361.886,90.129 223.815,90.129 227.963,86.529 						"/>
					</g>
				</g>
				<g>
					<g>
						<polygon fill="#266279" points="218.425,76.214 80.354,76.214 80.354,69.015 218.425,69.015 222.572,72.614 						"/>
					</g>
					<g>
						<polygon fill="#266279" points="223.815,69.015 361.886,69.015 361.886,76.214 223.815,76.214 227.963,72.614 						"/>
					</g>
				</g>
				<g>
					<g>
						<polygon fill="#266279" points="218.425,104.043 80.354,104.043 80.354,96.844 218.425,96.844 222.572,100.443 						"/>
					</g>
					<g>
						<polygon fill="#266279" points="223.815,96.844 361.886,96.844 361.886,104.043 223.815,104.043 227.963,100.443 						"/>
					</g>
				</g>
				<g>
					<g>
						<polygon fill="#266279" points="218.425,117.957 80.354,117.957 80.354,110.757 218.425,110.757 222.572,114.356 						"/>
					</g>
					<g>
						<polygon fill="#266279" points="223.815,110.757 361.886,110.757 361.886,117.957 223.815,117.957 227.963,114.356 						"/>
					</g>
				</g>
				<g>
					<g>
						<polygon fill="#266279" points="218.425,131.871 80.354,131.871 80.354,124.671 218.425,124.671 222.572,128.27 						"/>
					</g>
					<g>
						<polygon fill="#266279" points="223.815,124.671 361.886,124.671 361.886,131.871 223.815,131.871 227.963,128.27 						"/>
					</g>
				</g>
			</g>
			<g>
				<path fill="#266279" d="M61.213,44.456h13.174v5.807h-3.65V47.87h-4.031v3.582h3.492v3.269h-3.492v3.684h1.797v3.077h-7.289
					v-3.077h1.764V47.87h-1.764V44.456z"/>
			</g>
		</g>
		<g>
			<g>
				<path fill="#266279" d="M66.455,156.124h7.288v3.077h-1.797v10.871h1.797v3.077h-7.288v-3.077h1.763v-10.871h-1.763V156.124z"/>
			</g>
			<g>
				<g>
					<g>
						<polygon fill="#266279" points="218.32,187.526 80.25,187.526 80.25,180.327 218.32,180.327 222.469,183.926 						"/>
					</g>
					<g>
						<polygon fill="#266279" points="223.711,180.327 361.781,180.327 361.781,187.526 223.711,187.526 227.859,183.926 						"/>
					</g>
				</g>
				<g>
					<g>
						<polygon fill="#266279" points="218.32,173.613 80.25,173.613 80.25,166.414 218.32,166.414 222.469,170.013 						"/>
					</g>
					<g>
						<polygon fill="#266279" points="223.711,166.414 361.781,166.414 361.781,173.613 223.711,173.613 227.859,170.013 						"/>
					</g>
				</g>
				<g>
					<g>
						<polygon fill="#266279" points="218.32,201.44 80.25,201.44 80.25,194.241 218.32,194.241 222.469,197.84 						"/>
					</g>
					<g>
						<polygon fill="#266279" points="223.711,194.241 361.781,194.241 361.781,201.44 223.711,201.44 227.859,197.84 						"/>
					</g>
				</g>
				<g>
					<g>
						<polygon fill="#266279" points="218.32,229.267 80.25,229.267 80.25,222.068 218.32,222.068 222.469,225.667 						"/>
					</g>
					<g>
						<polygon fill="#266279" points="223.711,222.068 361.781,222.068 361.781,229.267 223.711,229.267 227.859,225.667 						"/>
					</g>
				</g>
				<g>
					<g>
						<polygon fill="#266279" points="218.425,215.354 80.354,215.354 80.354,208.155 218.425,208.155 222.572,211.754 						"/>
					</g>
					<g>
						<polygon fill="#266279" points="223.815,208.155 361.886,208.155 361.886,215.354 223.815,215.354 227.963,211.754 						"/>
					</g>
				</g>
				<g>
					<g>
						<polygon fill="#266279" points="218.32,243.182 80.25,243.182 80.25,235.983 218.32,235.983 222.469,239.582 						"/>
					</g>
					<g>
						<polygon fill="#266279" points="223.711,235.983 361.781,235.983 361.781,243.182 223.711,243.182 227.859,239.582 						"/>
					</g>
				</g>
				<g>
					<g>
						<polygon fill="#266279" points="218.32,257.095 80.25,257.095 80.25,249.896 218.32,249.896 222.469,253.495 						"/>
					</g>
					<g>
						<polygon fill="#266279" points="223.711,249.896 361.781,249.896 361.781,257.095 223.711,257.095 227.859,253.495 						"/>
					</g>
				</g>
			</g>
		</g>
	</g>
</g>
</svg>
