<?xml version="1.0" encoding="utf-8"?>
<!-- Generator: Adobe Illustrator 16.0.4, SVG Export Plug-In . SVG Version: 6.00 Build 0)  -->
<!DOCTYPE svg PUBLIC "-//W3C//DTD SVG 1.1//EN" "http://www.w3.org/Graphics/SVG/1.1/DTD/svg11.dtd">
<svg version="1.1" id="Layer_1" xmlns="http://www.w3.org/2000/svg" xmlns:xlink="http://www.w3.org/1999/xlink" x="0px" y="0px"
	 width="448.747px" height="616.44px" viewBox="0 0 448.747 616.44" enable-background="new 0 0 448.747 616.44"
	 xml:space="preserve">
<rect x="0.5" y="0.5" fill="#FFFFFF" stroke="#C68D06" stroke-miterlimit="10" width="447.747" height="615.44"/>
<g>
	<path fill="#C68D06" d="M349.939,575.868h-12.461v-1.855l11.796-17.781h3.046v17.432h4.375v2.205h-4.375v6.266h-2.381V575.868z
		 M349.939,573.663v-14.526h-0.069l-9.592,14.526H349.939z"/>
	<path fill="#C68D06" d="M363.693,580.313l1.26-1.855c1.506,1.226,2.871,1.996,5.426,1.996c4.726,0,7.631-5.006,7.631-11.481
		c-1.646,1.785-4.061,3.465-7.351,3.465c-5.461,0-8.086-3.396-8.086-8.086c0-4.9,3.466-8.61,8.681-8.61
		c5.11,0,9.171,4.096,9.171,12.986c0,7.98-4.165,13.896-10.116,13.896C367.298,582.624,365.163,581.608,363.693,580.313z
		 M377.939,566.487c-0.524-6.021-3.395-8.576-6.825-8.576c-3.676,0-6.126,2.311-6.126,6.406c0,3.465,1.75,5.985,5.951,5.985
		C373.809,570.303,376.364,568.692,377.939,566.487z"/>
	<path fill="#C68D06" d="M389.208,556.231h8.681c5.776,0,8.996,2.45,8.996,7c0,4.201-2.45,6.301-6.195,7.001l6.546,11.901h-2.801
		l-6.336-11.621h-6.44v11.621h-2.45V556.231z M397.713,568.308c4.271,0,6.686-1.226,6.686-4.971c0-3.57-2.38-4.831-6.721-4.831
		h-6.021v9.802H397.713z"/>
</g>
<g>
	<g>
		<rect x="80.216" y="177.511" fill="#C0DDE7" width="281.738" height="7.199"/>
	</g>
	<g>
		<rect x="80.216" y="205.338" fill="#C0DDE7" width="281.738" height="7.2"/>
	</g>
	<g>
		<rect x="80.216" y="219.253" fill="#C0DDE7" width="281.738" height="7.199"/>
	</g>
	<g>
		<rect x="80.216" y="233.167" fill="#C0DDE7" width="281.738" height="7.199"/>
	</g>
	<g>
		<rect x="80.216" y="247.08" fill="#C0DDE7" width="281.738" height="7.199"/>
	</g>
	<g>
		<rect x="80.216" y="260.993" fill="#C0DDE7" width="281.738" height="7.199"/>
	</g>
	<g>
		<rect x="80.216" y="274.907" fill="#C0DDE7" width="281.738" height="7.199"/>
	</g>
	<g>
		<rect x="80.216" y="288.821" fill="#C0DDE7" width="281.738" height="7.199"/>
	</g>
	<g>
		<rect x="80.216" y="302.735" fill="#C0DDE7" width="281.738" height="7.199"/>
	</g>
	<g>
		<rect x="80.216" y="316.649" fill="#C0DDE7" width="281.738" height="7.199"/>
	</g>
	<g>
		<rect x="80.216" y="330.562" fill="#C0DDE7" width="281.738" height="7.2"/>
	</g>
	<g>
		<rect x="80.216" y="344.477" fill="#C0DDE7" width="281.738" height="7.199"/>
	</g>
	<g>
		<rect x="80.216" y="358.39" fill="#C0DDE7" width="281.738" height="7.2"/>
	</g>
	<g>
		<rect x="80.216" y="372.304" fill="#C0DDE7" width="281.738" height="7.201"/>
	</g>
	<g>
		<rect x="80.216" y="386.218" fill="#C0DDE7" width="281.738" height="7.2"/>
	</g>
	<g>
		<rect x="80.216" y="400.132" fill="#C0DDE7" width="281.738" height="7.199"/>
	</g>
	<g>
		<rect x="80.216" y="414.046" fill="#C0DDE7" width="281.738" height="7.199"/>
	</g>
	<g>
		<rect x="80.216" y="427.96" fill="#C0DDE7" width="281.738" height="7.199"/>
	</g>
	<g>
		<rect x="80.216" y="441.873" fill="#C0DDE7" width="281.738" height="7.2"/>
	</g>
	<g>
		<rect x="80.216" y="455.786" fill="#C0DDE7" width="281.738" height="7.201"/>
	</g>
	<g>
		<rect x="80.216" y="469.701" fill="#C0DDE7" width="281.738" height="7.2"/>
	</g>
	<g>
		<rect x="80.216" y="483.614" fill="#C0DDE7" width="281.738" height="7.199"/>
	</g>
	<g>
		<rect x="80.216" y="497.528" fill="#C0DDE7" width="281.738" height="7.2"/>
	</g>
	<g>
		<rect x="80.216" y="80.113" fill="#C0DDE7" width="281.738" height="7.2"/>
	</g>
	<g>
		<rect x="80.216" y="94.026" fill="#C0DDE7" width="281.738" height="7.201"/>
	</g>
	<g>
		<rect x="80.216" y="163.597" fill="#C0DDE7" width="281.738" height="7.2"/>
	</g>
	<g>
		<rect x="80.216" y="191.424" fill="#C0DDE7" width="281.738" height="7.2"/>
	</g>
	<g>
		<rect x="80.216" y="107.941" fill="#C0DDE7" width="281.738" height="7.199"/>
	</g>
	<g>
		<rect x="80.216" y="121.854" fill="#C0DDE7" width="281.738" height="7.201"/>
	</g>
	<g>
		<rect x="80.216" y="135.769" fill="#C0DDE7" width="281.738" height="7.199"/>
	</g>
	<g>
		<rect x="80.216" y="149.685" fill="#C0DDE7" width="281.738" height="7.197"/>
	</g>
	<g>
		<rect x="80.216" y="177.511" fill="#C0DDE7" width="281.738" height="7.199"/>
	</g>
	<g>
		<g>
			<g>
				<path fill="#266279" d="M69.528,298.314c-0.419-0.6-0.797-1.024-1.134-1.275s-0.7-0.431-1.089-0.539s-0.797-0.162-1.224-0.162
					c-0.629,0-1.213,0.14-1.752,0.421c-0.539,0.28-1.005,0.662-1.398,1.146c-0.394,0.482-0.702,1.044-0.927,1.685
					c-0.225,0.64-0.337,1.319-0.337,2.038c0,0.727,0.11,1.409,0.331,2.05c0.221,0.64,0.526,1.199,0.916,1.679
					s0.854,0.859,1.393,1.14c0.539,0.281,1.13,0.421,1.774,0.421c0.449,0,0.869-0.072,1.258-0.219
					c0.389-0.146,0.743-0.339,1.061-0.578c0.318-0.239,0.597-0.515,0.837-0.825s0.427-0.635,0.562-0.972l3.616,1.011
					c-0.232,0.733-0.573,1.413-1.022,2.038s-0.99,1.166-1.623,1.623c-0.633,0.457-1.344,0.816-2.134,1.078
					c-0.79,0.262-1.642,0.393-2.555,0.393c-0.771,0-1.509-0.104-2.212-0.314c-0.704-0.209-1.361-0.505-1.971-0.887
					c-0.61-0.382-1.165-0.842-1.662-1.381c-0.498-0.539-0.923-1.137-1.275-1.792s-0.625-1.358-0.82-2.111
					c-0.195-0.752-0.292-1.536-0.292-2.353c0-1.221,0.213-2.364,0.64-3.431c0.427-1.067,1.011-1.999,1.752-2.797
					c0.741-0.797,1.612-1.426,2.611-1.887c1-0.46,2.076-0.69,3.229-0.69c0.921,0,1.696,0.114,2.325,0.343s1.321,0.679,2.078,1.353
					h2.516v3.797H69.528z"/>
			</g>
			<g>
				<g>
					<g>
						<polygon fill="#266279" points="218.493,309.936 80.424,309.936 80.424,302.736 218.493,302.736 222.641,306.336 						"/>
					</g>
					<g>
						<polygon fill="#266279" points="223.883,302.736 361.954,302.736 361.954,309.936 223.883,309.936 228.032,306.336 						"/>
					</g>
				</g>
				<g>
					<g>
						<polygon fill="#266279" points="218.493,323.85 80.424,323.85 80.424,316.65 218.493,316.65 222.641,320.25 						"/>
					</g>
					<g>
						<polygon fill="#266279" points="223.883,316.65 361.954,316.65 361.954,323.85 223.883,323.85 228.032,320.25 						"/>
					</g>
				</g>
				<g>
					<g>
						<polygon fill="#266279" points="218.493,393.418 80.424,393.418 80.424,386.219 218.493,386.219 222.641,389.818 						"/>
					</g>
					<g>
						<polygon fill="#266279" points="223.883,386.219 361.954,386.219 361.954,393.418 223.883,393.418 228.032,389.818 						"/>
					</g>
				</g>
				<g>
					<g>
						<polygon fill="#266279" points="218.493,337.763 80.424,337.763 80.424,330.563 218.493,330.563 222.641,334.163 						"/>
					</g>
					<g>
						<polygon fill="#266279" points="223.883,330.563 361.954,330.563 361.954,337.763 223.883,337.763 228.032,334.163 						"/>
					</g>
				</g>
				<g>
					<g>
						<polygon fill="#266279" points="218.493,351.678 80.424,351.678 80.424,344.479 218.493,344.479 222.641,348.077 						"/>
					</g>
					<g>
						<polygon fill="#266279" points="223.883,344.479 361.954,344.479 361.954,351.678 223.883,351.678 228.032,348.077 						"/>
					</g>
				</g>
				<g>
					<g>
						<polygon fill="#266279" points="218.493,365.591 80.424,365.591 80.424,358.391 218.493,358.391 222.641,361.99 						"/>
					</g>
					<g>
						<polygon fill="#266279" points="223.883,358.391 361.954,358.391 361.954,365.591 223.883,365.591 228.032,361.99 						"/>
					</g>
				</g>
				<g>
					<g>
						<polygon fill="#266279" points="218.493,379.505 80.424,379.505 80.424,372.305 218.493,372.305 222.641,375.904 						"/>
					</g>
					<g>
						<polygon fill="#266279" points="223.883,372.305 361.954,372.305 361.954,379.505 223.883,379.505 228.032,375.904 						"/>
					</g>
				</g>
			</g>
		</g>
		<g>
			<g>
				<g>
					<g>
						<polygon fill="#266279" points="218.493,87.313 80.424,87.313 80.424,80.114 218.493,80.114 222.641,83.714 						"/>
					</g>
					<g>
						<polygon fill="#266279" points="223.883,80.114 361.954,80.114 361.954,87.313 223.883,87.313 228.032,83.714 						"/>
					</g>
				</g>
				<g>
					<g>
						<polygon fill="#266279" points="218.493,170.796 80.424,170.796 80.424,163.597 218.493,163.597 222.641,167.196 						"/>
					</g>
					<g>
						<polygon fill="#266279" points="223.883,163.597 361.954,163.597 361.954,170.796 223.883,170.796 228.032,167.196 						"/>
					</g>
				</g>
				<g>
					<g>
						<polygon fill="#266279" points="218.493,115.142 80.424,115.142 80.424,107.942 218.493,107.942 222.641,111.542 						"/>
					</g>
					<g>
						<polygon fill="#266279" points="223.883,107.942 361.954,107.942 361.954,115.142 223.883,115.142 228.032,111.542 						"/>
					</g>
				</g>
				<g>
					<g>
						<polygon fill="#266279" points="218.493,101.227 80.424,101.227 80.424,94.027 218.493,94.027 222.641,97.626 						"/>
					</g>
					<g>
						<polygon fill="#266279" points="223.883,94.027 361.954,94.027 361.954,101.227 223.883,101.227 228.032,97.626 						"/>
					</g>
				</g>
				<g>
					<g>
						<polygon fill="#266279" points="218.493,129.056 80.424,129.056 80.424,121.856 218.493,121.856 222.641,125.455 						"/>
					</g>
					<g>
						<polygon fill="#266279" points="223.883,121.856 361.954,121.856 361.954,129.056 223.883,129.056 228.032,125.455 						"/>
					</g>
				</g>
				<g>
					<g>
						<polygon fill="#266279" points="218.493,142.969 80.424,142.969 80.424,135.77 218.493,135.77 222.641,139.368 						"/>
					</g>
					<g>
						<polygon fill="#266279" points="223.883,135.77 361.954,135.77 361.954,142.969 223.883,142.969 228.032,139.368 						"/>
					</g>
				</g>
				<g>
					<g>
						<polygon fill="#266279" points="218.493,156.883 80.424,156.883 80.424,149.683 218.493,149.683 222.641,153.282 						"/>
					</g>
					<g>
						<polygon fill="#266279" points="223.883,149.683 361.954,149.683 361.954,156.883 223.883,156.883 228.032,153.282 						"/>
					</g>
				</g>
			</g>
			<g>
				<path fill="#266279" d="M66.628,69.469h7.289v3.077H72.12v10.871h1.797v3.077h-7.289v-3.077h1.763V72.546h-1.763V69.469z"/>
			</g>
		</g>
		<g>
			<g>
				<g>
					<g>
						<polygon fill="#266279" points="218.493,421.246 80.424,421.246 80.424,414.046 218.493,414.046 222.641,417.647 						"/>
					</g>
					<g>
						<polygon fill="#266279" points="223.883,414.046 361.954,414.046 361.954,421.246 223.883,421.246 228.032,417.647 						"/>
					</g>
				</g>
				<g>
					<g>
						<polygon fill="#266279" points="218.493,504.729 80.424,504.729 80.424,497.53 218.493,497.53 222.641,501.13 						"/>
					</g>
					<g>
						<polygon fill="#266279" points="223.883,497.53 361.954,497.53 361.954,504.729 223.883,504.729 228.032,501.13 						"/>
					</g>
				</g>
				<g>
					<g>
						<polygon fill="#266279" points="218.493,449.074 80.424,449.074 80.424,441.875 218.493,441.875 222.641,445.474 						"/>
					</g>
					<g>
						<polygon fill="#266279" points="223.883,441.875 361.954,441.875 361.954,449.074 223.883,449.074 228.032,445.474 						"/>
					</g>
				</g>
				<g>
					<g>
						<polygon fill="#266279" points="218.493,435.159 80.424,435.159 80.424,427.96 218.493,427.96 222.641,431.559 						"/>
					</g>
					<g>
						<polygon fill="#266279" points="223.883,427.96 361.954,427.96 361.954,435.159 223.883,435.159 228.032,431.559 						"/>
					</g>
				</g>
				<g>
					<g>
						<polygon fill="#266279" points="218.493,462.988 80.424,462.988 80.424,455.789 218.493,455.789 222.641,459.388 						"/>
					</g>
					<g>
						<polygon fill="#266279" points="223.883,455.789 361.954,455.789 361.954,462.988 223.883,462.988 228.032,459.388 						"/>
					</g>
				</g>
				<g>
					<g>
						<polygon fill="#266279" points="218.493,476.901 80.424,476.901 80.424,469.702 218.493,469.702 222.641,473.302 						"/>
					</g>
					<g>
						<polygon fill="#266279" points="223.883,469.702 361.954,469.702 361.954,476.901 223.883,476.901 228.032,473.302 						"/>
					</g>
				</g>
				<g>
					<g>
						<polygon fill="#266279" points="218.493,490.815 80.424,490.815 80.424,483.616 218.493,483.616 222.641,487.215 						"/>
					</g>
					<g>
						<polygon fill="#266279" points="223.883,483.616 361.954,483.616 361.954,490.815 223.883,490.815 228.032,487.215 						"/>
					</g>
				</g>
			</g>
			<g>
				<path fill="#266279" d="M67.74,417.349h1.696l-0.764-2.448h-5.233l-0.764,2.448h1.797v3.077h-6.458v-3.077h1.269l4.638-13.948
					h4.503l4.537,13.948h1.235v3.077H67.74V417.349z M64.326,412.025h3.437l-1.729-5.537L64.326,412.025z"/>
			</g>
		</g>
		<g>
			<g>
				<path fill="#266279" d="M63.401,198.297c-0.958-0.194-1.844-0.552-2.656-1.072c-0.812-0.521-1.517-1.162-2.111-1.926
					c-0.596-0.764-1.06-1.627-1.393-2.589c-0.333-0.962-0.5-1.982-0.5-3.061c0-0.816,0.097-1.601,0.292-2.353
					c0.195-0.753,0.468-1.456,0.82-2.111s0.777-1.251,1.275-1.786c0.498-0.535,1.052-0.993,1.662-1.376
					c0.61-0.381,1.267-0.677,1.971-0.887s1.441-0.314,2.212-0.314s1.51,0.104,2.218,0.314c0.707,0.21,1.366,0.506,1.977,0.887
					c0.61,0.383,1.164,0.841,1.662,1.376c0.498,0.535,0.924,1.131,1.28,1.786c0.355,0.655,0.63,1.358,0.825,2.111
					c0.195,0.752,0.292,1.536,0.292,2.353c0,1.093-0.172,2.126-0.517,3.1s-0.822,1.846-1.432,2.616
					c-0.61,0.771-1.335,1.416-2.173,1.932c-0.838,0.518-1.748,0.861-2.729,1.033c0.232,0.098,0.462,0.204,0.69,0.32
					c0.229,0.116,0.459,0.225,0.691,0.326c0.232,0.101,0.462,0.187,0.691,0.258c0.228,0.071,0.462,0.11,0.702,0.118
					c0.232,0,0.458-0.03,0.679-0.09c0.221-0.06,0.421-0.153,0.601-0.28c0.18-0.128,0.335-0.293,0.466-0.494
					c0.131-0.203,0.219-0.449,0.264-0.742l2.504,1.247c-0.067,0.547-0.223,1.041-0.466,1.482c-0.243,0.441-0.556,0.819-0.938,1.134
					s-0.816,0.559-1.303,0.73s-1.003,0.258-1.55,0.258c-0.442,0-0.885-0.084-1.331-0.252c-0.445-0.169-0.876-0.353-1.291-0.551
					c-0.416-0.198-0.807-0.382-1.174-0.55c-0.367-0.169-0.689-0.253-0.966-0.253c-0.12,0-0.227-0.002-0.32-0.006
					c-0.093-0.004-0.185-0.004-0.275,0s-0.189,0.016-0.297,0.034c-0.109,0.019-0.234,0.054-0.376,0.106L63.401,198.297z
					 M64.974,194.939c0.651,0,1.249-0.141,1.792-0.422c0.542-0.28,1.009-0.662,1.398-1.146c0.389-0.482,0.691-1.044,0.904-1.685
					c0.214-0.64,0.32-1.319,0.32-2.038c0-0.727-0.108-1.411-0.326-2.056c-0.217-0.644-0.522-1.207-0.916-1.689
					c-0.393-0.483-0.859-0.865-1.398-1.146c-0.539-0.281-1.13-0.421-1.774-0.421s-1.235,0.14-1.774,0.421
					c-0.539,0.28-1.003,0.662-1.393,1.146c-0.389,0.482-0.694,1.046-0.916,1.689c-0.221,0.645-0.331,1.329-0.331,2.056
					c0,0.719,0.11,1.398,0.331,2.038c0.221,0.641,0.526,1.202,0.916,1.685c0.389,0.483,0.854,0.865,1.393,1.146
					C63.738,194.799,64.33,194.939,64.974,194.939z"/>
			</g>
			<g>
				<g>
					<g>
						<polygon fill="#266279" points="218.389,212.538 80.319,212.538 80.319,205.339 218.389,205.339 222.538,208.938 						"/>
					</g>
					<g>
						<polygon fill="#266279" points="223.78,205.339 361.85,205.339 361.85,212.538 223.78,212.538 227.928,208.938 						"/>
					</g>
				</g>
				<g>
					<g>
						<polygon fill="#266279" points="218.389,198.625 80.319,198.625 80.319,191.426 218.389,191.426 222.538,195.025 						"/>
					</g>
					<g>
						<polygon fill="#266279" points="223.78,191.426 361.85,191.426 361.85,198.625 223.78,198.625 227.928,195.025 						"/>
					</g>
				</g>
				<g>
					<g>
						<polygon fill="#266279" points="218.389,226.452 80.319,226.452 80.319,219.253 218.389,219.253 222.538,222.853 						"/>
					</g>
					<g>
						<polygon fill="#266279" points="223.78,219.253 361.85,219.253 361.85,226.452 223.78,226.452 227.928,222.853 						"/>
					</g>
				</g>
				<g>
					<g>
						<polygon fill="#266279" points="218.389,254.279 80.319,254.279 80.319,247.08 218.389,247.08 222.538,250.679 						"/>
					</g>
					<g>
						<polygon fill="#266279" points="223.78,247.08 361.85,247.08 361.85,254.279 223.78,254.279 227.928,250.679 						"/>
					</g>
				</g>
				<g>
					<g>
						<polygon fill="#266279" points="218.493,240.366 80.424,240.366 80.424,233.167 218.493,233.167 222.641,236.767 						"/>
					</g>
					<g>
						<polygon fill="#266279" points="223.883,233.167 361.954,233.167 361.954,240.366 223.883,240.366 228.032,236.767 						"/>
					</g>
				</g>
				<g>
					<g>
						<polygon fill="#266279" points="218.389,268.194 80.319,268.194 80.319,260.995 218.389,260.995 222.538,264.595 						"/>
					</g>
					<g>
						<polygon fill="#266279" points="223.78,260.995 361.85,260.995 361.85,268.194 223.78,268.194 227.928,264.595 						"/>
					</g>
				</g>
				<g>
					<g>
						<polygon fill="#266279" points="218.389,282.107 80.319,282.107 80.319,274.908 218.389,274.908 222.538,278.507 						"/>
					</g>
					<g>
						<polygon fill="#266279" points="223.78,274.908 361.85,274.908 361.85,282.107 223.78,282.107 227.928,278.507 						"/>
					</g>
				</g>
			</g>
		</g>
	</g>
</g>
</svg>
