<?xml version="1.0" encoding="utf-8"?>
<!-- Generator: Adobe Illustrator 16.0.4, SVG Export Plug-In . SVG Version: 6.00 Build 0)  -->
<!DOCTYPE svg PUBLIC "-//W3C//DTD SVG 1.1//EN" "http://www.w3.org/Graphics/SVG/1.1/DTD/svg11.dtd">
<svg version="1.1" id="Layer_1" xmlns="http://www.w3.org/2000/svg" xmlns:xlink="http://www.w3.org/1999/xlink" x="0px" y="0px"
	 width="448.747px" height="616.439px" viewBox="0 0 448.747 616.439" enable-background="new 0 0 448.747 616.439"
	 xml:space="preserve">
<rect x="0.5" y="0.5" fill="#FFFFFF" stroke="#C68D06" stroke-miterlimit="10" width="447.747" height="615.439"/>
<g>
	<path fill="#C68D06" d="M350.907,574.367h-12.461v-1.855l11.796-17.781h3.046v17.432h4.375v2.205h-4.375v6.266h-2.381V574.367z
		 M350.907,572.162v-14.526h-0.069l-9.592,14.526H350.907z"/>
	<path fill="#C68D06" d="M364.661,578.812l1.26-1.855c1.506,1.226,2.871,1.996,5.426,1.996c4.726,0,7.631-5.006,7.631-11.481
		c-1.646,1.785-4.061,3.465-7.351,3.465c-5.461,0-8.086-3.396-8.086-8.086c0-4.9,3.465-8.61,8.681-8.61
		c5.11,0,9.171,4.096,9.171,12.986c0,7.98-4.165,13.896-10.116,13.896C368.267,581.123,366.131,580.107,364.661,578.812z
		 M378.907,564.986c-0.524-6.021-3.395-8.576-6.825-8.576c-3.676,0-6.126,2.311-6.126,6.406c0,3.465,1.75,5.985,5.951,5.985
		C374.777,568.802,377.332,567.191,378.907,564.986z"/>
	<path fill="#C68D06" d="M388.11,554.73h2.556l7.735,22.612h0.07l7.771-22.612h2.416l-9.102,26.008h-2.345L388.11,554.73z"/>
</g>
<g>
	<rect x="79.717" y="156.465" fill="#C0DDE7" width="281.738" height="7.199"/>
</g>
<g>
	<rect x="79.717" y="170.379" fill="#C0DDE7" width="281.738" height="7.199"/>
</g>
<g>
	<rect x="79.717" y="184.293" fill="#C0DDE7" width="281.738" height="7.199"/>
</g>
<g>
	<rect x="79.717" y="198.207" fill="#C0DDE7" width="281.738" height="7.199"/>
</g>
<g>
	<rect x="79.717" y="212.121" fill="#C0DDE7" width="281.738" height="7.199"/>
</g>
<g>
	<rect x="79.717" y="226.035" fill="#C0DDE7" width="281.738" height="7.199"/>
</g>
<g>
	<rect x="79.717" y="239.948" fill="#C0DDE7" width="281.738" height="7.199"/>
</g>
<g>
	<rect x="79.717" y="253.861" fill="#C0DDE7" width="281.738" height="7.2"/>
</g>
<g>
	<rect x="79.717" y="267.775" fill="#C0DDE7" width="281.738" height="7.199"/>
</g>
<g>
	<rect x="79.717" y="281.689" fill="#C0DDE7" width="281.738" height="7.2"/>
</g>
<g>
	<rect x="79.717" y="295.604" fill="#C0DDE7" width="281.738" height="7.199"/>
</g>
<g>
	<rect x="79.717" y="309.518" fill="#C0DDE7" width="281.738" height="7.199"/>
</g>
<g>
	<rect x="79.717" y="323.432" fill="#C0DDE7" width="281.738" height="7.199"/>
</g>
<g>
	<rect x="79.717" y="337.345" fill="#C0DDE7" width="281.738" height="7.2"/>
</g>
<g>
	<rect x="79.717" y="351.258" fill="#C0DDE7" width="281.738" height="7.201"/>
</g>
<g>
	<rect x="79.717" y="365.172" fill="#C0DDE7" width="281.738" height="7.201"/>
</g>
<g>
	<rect x="79.717" y="379.086" fill="#C0DDE7" width="281.738" height="7.199"/>
</g>
<g>
	<rect x="79.717" y="393" fill="#C0DDE7" width="281.738" height="7.199"/>
</g>
<g>
	<rect x="79.717" y="406.914" fill="#C0DDE7" width="281.738" height="7.199"/>
</g>
<g>
	<rect x="79.717" y="420.828" fill="#C0DDE7" width="281.738" height="7.199"/>
</g>
<g>
	<rect x="79.717" y="434.741" fill="#C0DDE7" width="281.738" height="7.2"/>
</g>
<g>
	<rect x="79.717" y="448.656" fill="#C0DDE7" width="281.738" height="7.199"/>
</g>
<g>
	<rect x="79.717" y="462.569" fill="#C0DDE7" width="281.738" height="7.199"/>
</g>
<g>
	<rect x="79.717" y="476.482" fill="#C0DDE7" width="281.738" height="7.201"/>
</g>
<g>
	<rect x="79.717" y="59.068" fill="#C0DDE7" width="281.738" height="7.199"/>
</g>
<g>
	<rect x="79.717" y="72.981" fill="#C0DDE7" width="281.738" height="7.2"/>
</g>
<g>
	<rect x="79.717" y="142.551" fill="#C0DDE7" width="281.738" height="7.201"/>
</g>
<g>
	<rect x="79.717" y="86.896" fill="#C0DDE7" width="281.738" height="7.199"/>
</g>
<g>
	<rect x="79.717" y="100.81" fill="#C0DDE7" width="281.738" height="7.2"/>
</g>
<g>
	<rect x="79.717" y="114.724" fill="#C0DDE7" width="281.738" height="7.199"/>
</g>
<g>
	<rect x="79.717" y="128.639" fill="#C0DDE7" width="281.738" height="7.197"/>
</g>
</svg>
