<?xml version="1.0" encoding="utf-8"?>
<!-- Generator: Adobe Illustrator 16.0.4, SVG Export Plug-In . SVG Version: 6.00 Build 0)  -->
<!DOCTYPE svg PUBLIC "-//W3C//DTD SVG 1.1//EN" "http://www.w3.org/Graphics/SVG/1.1/DTD/svg11.dtd">
<svg version="1.1" id="Layer_1" xmlns="http://www.w3.org/2000/svg" xmlns:xlink="http://www.w3.org/1999/xlink" x="0px" y="0px"
	 width="448.747px" height="616.44px" viewBox="0 0 448.747 616.44" enable-background="new 0 0 448.747 616.44"
	 xml:space="preserve">
<rect x="0.5" y="0.5" fill="#FFFFFF" stroke="#C68D06" stroke-miterlimit="10" width="447.747" height="615.44"/>
<g>
	<path fill="#C68D06" d="M337.491,578.219l1.785-1.436c1.575,2.275,3.641,3.921,6.721,3.921c4.445,0,6.476-3.291,6.476-6.791
		c0-4.2-2.485-6.44-5.916-6.44c-2.66,0-4.48,1.189-5.915,3.255l-1.855-0.7l1.016-13.546h13.687l-0.211,2.274h-11.411l-0.7,8.996
		c1.261-1.47,2.976-2.415,5.741-2.415c4.69,0,8.016,3.29,8.016,8.471s-3.396,9.066-8.891,9.066
		C342.287,582.874,339.241,580.983,337.491,578.219z"/>
	<path fill="#C68D06" d="M361.92,569.433c0-8.086,3.431-13.441,9.521-13.441s9.451,5.355,9.451,13.441s-3.36,13.441-9.451,13.441
		S361.92,577.519,361.92,569.433z M378.442,569.433c0-7.316-2.766-11.236-7.001-11.236c-4.41,0-7.036,3.92-7.036,11.236
		c0,7.315,2.766,11.271,7.036,11.271C375.816,580.704,378.442,576.748,378.442,569.433z"/>
	<path fill="#C68D06" d="M387.61,556.481h2.556l7.735,22.612h0.07l7.771-22.612h2.416l-9.102,26.008h-2.345L387.61,556.481z"/>
</g>
<g>
	<rect x="79.215" y="163.935" fill="#C0DDE7" width="281.74" height="7.199"/>
</g>
<g>
	<rect x="79.217" y="177.848" fill="#C0DDE7" width="281.738" height="7.199"/>
</g>
<g>
	<rect x="79.215" y="191.762" fill="#C0DDE7" width="281.74" height="7.2"/>
</g>
<g>
	<rect x="79.215" y="205.676" fill="#C0DDE7" width="281.74" height="7.199"/>
</g>
<g>
	<rect x="79.215" y="219.59" fill="#C0DDE7" width="281.74" height="7.199"/>
</g>
<g>
	<rect x="79.215" y="233.503" fill="#C0DDE7" width="281.74" height="7.2"/>
</g>
<g>
	<rect x="79.217" y="247.417" fill="#C0DDE7" width="281.738" height="7.199"/>
</g>
<g>
	<rect x="79.217" y="261.33" fill="#C0DDE7" width="281.738" height="7.2"/>
</g>
<g>
	<rect x="79.215" y="275.245" fill="#C0DDE7" width="281.74" height="7.199"/>
</g>
<g>
	<rect x="79.217" y="289.158" fill="#C0DDE7" width="281.738" height="7.2"/>
</g>
<g>
	<rect x="79.215" y="303.072" fill="#C0DDE7" width="281.74" height="7.2"/>
</g>
<g>
	<rect x="79.215" y="316.986" fill="#C0DDE7" width="281.74" height="7.2"/>
</g>
<g>
	<rect x="79.215" y="330.9" fill="#C0DDE7" width="281.74" height="7.199"/>
</g>
<g>
	<rect x="79.217" y="344.813" fill="#C0DDE7" width="281.738" height="7.2"/>
</g>
<g>
	<rect x="79.215" y="358.728" fill="#C0DDE7" width="281.74" height="7.2"/>
</g>
<g>
	<rect x="79.215" y="372.642" fill="#C0DDE7" width="281.74" height="7.2"/>
</g>
<g>
	<rect x="79.215" y="386.556" fill="#C0DDE7" width="281.74" height="7.199"/>
</g>
<g>
	<rect x="79.215" y="400.47" fill="#C0DDE7" width="281.74" height="7.199"/>
</g>
<g>
	<rect x="79.217" y="414.383" fill="#C0DDE7" width="281.738" height="7.199"/>
</g>
<g>
	<rect x="79.215" y="428.297" fill="#C0DDE7" width="281.74" height="7.2"/>
</g>
<g>
	<rect x="79.217" y="442.21" fill="#C0DDE7" width="281.738" height="7.2"/>
</g>
<g>
	<rect x="79.215" y="456.125" fill="#C0DDE7" width="281.74" height="7.199"/>
</g>
<g>
	<rect x="79.217" y="470.038" fill="#C0DDE7" width="281.738" height="7.199"/>
</g>
<g>
	<rect x="79.215" y="483.952" fill="#C0DDE7" width="281.74" height="7.2"/>
</g>
<g>
	<rect x="79.215" y="66.537" fill="#C0DDE7" width="281.74" height="7.2"/>
</g>
<g>
	<rect x="79.217" y="80.451" fill="#C0DDE7" width="281.738" height="7.2"/>
</g>
<g>
	<rect x="79.217" y="150.021" fill="#C0DDE7" width="281.738" height="7.199"/>
</g>
<g>
	<rect x="79.215" y="94.365" fill="#C0DDE7" width="281.74" height="7.199"/>
</g>
<g>
	<rect x="79.217" y="108.278" fill="#C0DDE7" width="281.738" height="7.2"/>
</g>
<g>
	<rect x="79.217" y="122.192" fill="#C0DDE7" width="281.738" height="7.199"/>
</g>
<g>
	<rect x="79.217" y="136.106" fill="#C0DDE7" width="281.738" height="7.199"/>
</g>
</svg>
