<?xml version="1.0" encoding="utf-8"?>
<!-- Generator: Adobe Illustrator 16.0.4, SVG Export Plug-In . SVG Version: 6.00 Build 0)  -->
<!DOCTYPE svg PUBLIC "-//W3C//DTD SVG 1.1//EN" "http://www.w3.org/Graphics/SVG/1.1/DTD/svg11.dtd">
<svg version="1.1" id="Layer_1" xmlns="http://www.w3.org/2000/svg" xmlns:xlink="http://www.w3.org/1999/xlink" x="0px" y="0px"
	 width="448.746px" height="616.439px" viewBox="0 0 448.746 616.439" enable-background="new 0 0 448.746 616.439"
	 xml:space="preserve">
<rect x="0.5" y="0.5" fill="#FFFFFF" stroke="#C68D06" stroke-miterlimit="10" width="447.747" height="615.439"/>
<g>
	<path fill="#C68D06" d="M337.273,576.968l1.785-1.436c1.575,2.275,3.641,3.921,6.721,3.921c4.445,0,6.476-3.291,6.476-6.791
		c0-4.2-2.485-6.44-5.916-6.44c-2.66,0-4.48,1.189-5.915,3.255l-1.855-0.7l1.016-13.546h13.686l-0.21,2.274h-11.411l-0.699,8.996
		c1.26-1.47,2.975-2.415,5.74-2.415c4.69,0,8.016,3.29,8.016,8.471s-3.396,9.066-8.891,9.066
		C342.068,581.623,339.023,579.732,337.273,576.968z"/>
	<path fill="#C68D06" d="M361.702,568.182c0-8.086,3.431-13.441,9.521-13.441s9.451,5.355,9.451,13.441s-3.36,13.441-9.451,13.441
		S361.702,576.268,361.702,568.182z M378.224,568.182c0-7.316-2.766-11.236-7.001-11.236c-4.41,0-7.036,3.92-7.036,11.236
		c0,7.315,2.766,11.271,7.036,11.271C375.598,579.453,378.224,575.497,378.224,568.182z"/>
	<path fill="#C68D06" d="M389.458,555.23h8.681c5.776,0,8.996,2.45,8.996,7c0,4.201-2.45,6.301-6.195,7.001l6.546,11.901h-2.801
		l-6.336-11.621h-6.44v11.621h-2.45V555.23z M397.963,567.307c4.271,0,6.686-1.226,6.686-4.971c0-3.57-2.38-4.831-6.721-4.831
		h-6.021v9.802H397.963z"/>
</g>
<g>
	<rect x="80.466" y="156.965" fill="#C0DDE7" width="281.738" height="7.199"/>
</g>
<g>
	<rect x="80.466" y="184.793" fill="#C0DDE7" width="281.738" height="7.199"/>
</g>
<g>
	<rect x="80.466" y="198.707" fill="#C0DDE7" width="281.738" height="7.199"/>
</g>
<g>
	<rect x="80.466" y="212.621" fill="#C0DDE7" width="281.738" height="7.199"/>
</g>
<g>
	<rect x="80.466" y="226.535" fill="#C0DDE7" width="281.738" height="7.199"/>
</g>
<g>
	<rect x="80.466" y="240.448" fill="#C0DDE7" width="281.738" height="7.199"/>
</g>
<g>
	<rect x="80.466" y="254.361" fill="#C0DDE7" width="281.738" height="7.2"/>
</g>
<g>
	<rect x="80.466" y="268.275" fill="#C0DDE7" width="281.738" height="7.199"/>
</g>
<g>
	<rect x="80.466" y="282.189" fill="#C0DDE7" width="281.738" height="7.2"/>
</g>
<g>
	<rect x="80.466" y="296.104" fill="#C0DDE7" width="281.738" height="7.199"/>
</g>
<g>
	<rect x="80.466" y="310.018" fill="#C0DDE7" width="281.738" height="7.199"/>
</g>
<g>
	<rect x="80.466" y="323.932" fill="#C0DDE7" width="281.738" height="7.199"/>
</g>
<g>
	<rect x="80.466" y="337.845" fill="#C0DDE7" width="281.738" height="7.2"/>
</g>
<g>
	<rect x="80.466" y="351.758" fill="#C0DDE7" width="281.738" height="7.201"/>
</g>
<g>
	<rect x="80.466" y="365.672" fill="#C0DDE7" width="281.738" height="7.201"/>
</g>
<g>
	<rect x="80.466" y="379.586" fill="#C0DDE7" width="281.738" height="7.199"/>
</g>
<g>
	<rect x="80.466" y="393.5" fill="#C0DDE7" width="281.738" height="7.199"/>
</g>
<g>
	<rect x="80.466" y="407.414" fill="#C0DDE7" width="281.738" height="7.199"/>
</g>
<g>
	<rect x="80.466" y="421.328" fill="#C0DDE7" width="281.738" height="7.199"/>
</g>
<g>
	<rect x="80.466" y="435.241" fill="#C0DDE7" width="281.738" height="7.2"/>
</g>
<g>
	<rect x="80.466" y="449.156" fill="#C0DDE7" width="281.738" height="7.199"/>
</g>
<g>
	<rect x="80.466" y="463.069" fill="#C0DDE7" width="281.738" height="7.199"/>
</g>
<g>
	<rect x="80.466" y="476.982" fill="#C0DDE7" width="281.738" height="7.201"/>
</g>
<g>
	<rect x="80.466" y="59.568" fill="#C0DDE7" width="281.738" height="7.199"/>
</g>
<g>
	<rect x="80.466" y="73.481" fill="#C0DDE7" width="281.738" height="7.2"/>
</g>
<g>
	<rect x="80.466" y="143.051" fill="#C0DDE7" width="281.738" height="7.201"/>
</g>
<g>
	<rect x="80.466" y="170.879" fill="#C0DDE7" width="281.738" height="7.199"/>
</g>
<g>
	<rect x="80.466" y="87.396" fill="#C0DDE7" width="281.738" height="7.199"/>
</g>
<g>
	<rect x="80.466" y="101.31" fill="#C0DDE7" width="281.738" height="7.2"/>
</g>
<g>
	<rect x="80.466" y="115.224" fill="#C0DDE7" width="281.738" height="7.199"/>
</g>
<g>
	<rect x="80.466" y="129.139" fill="#C0DDE7" width="281.738" height="7.197"/>
</g>
<g>
	<rect x="80.466" y="156.965" fill="#C0DDE7" width="281.738" height="7.2"/>
</g>
</svg>
