<?xml version="1.0" encoding="utf-8"?>
<!-- Generator: Adobe Illustrator 16.0.4, SVG Export Plug-In . SVG Version: 6.00 Build 0)  -->
<!DOCTYPE svg PUBLIC "-//W3C//DTD SVG 1.1//EN" "http://www.w3.org/Graphics/SVG/1.1/DTD/svg11.dtd">
<svg version="1.1" id="Layer_1" xmlns="http://www.w3.org/2000/svg" xmlns:xlink="http://www.w3.org/1999/xlink" x="0px" y="0px"
	 width="448.747px" height="616.44px" viewBox="0 0 448.747 616.44" enable-background="new 0 0 448.747 616.44"
	 xml:space="preserve">
<rect x="0.5" y="0.5" fill="#FFFFFF" stroke="#C68D06" stroke-miterlimit="10" width="447.747" height="615.44"/>
<g>
	<path fill="#C68D06" d="M343.757,578.219l1.785-1.436c1.575,2.275,3.641,3.921,6.721,3.921c4.445,0,6.476-3.291,6.476-6.791
		c0-4.2-2.485-6.44-5.916-6.44c-2.66,0-4.48,1.189-5.915,3.255l-1.855-0.7l1.016-13.546h13.687l-0.211,2.274h-11.411l-0.7,8.996
		c1.261-1.47,2.976-2.415,5.741-2.415c4.69,0,8.016,3.29,8.016,8.471s-3.396,9.066-8.891,9.066
		C348.553,582.874,345.507,580.983,343.757,578.219z"/>
	<path fill="#C68D06" d="M368.362,580.144h4.865v-20.967c-1.26,0.665-3.29,1.189-4.796,1.189v-2.205
		c1.995-0.07,3.78-0.595,4.936-1.68h2.311v23.662h4.41v2.24h-11.726V580.144z"/>
	<path fill="#C68D06" d="M388.207,556.481h8.681c5.776,0,8.996,2.45,8.996,7c0,4.201-2.45,6.301-6.195,7.001l6.546,11.901h-2.801
		l-6.336-11.621h-6.44v11.621h-2.45V556.481z M396.712,568.558c4.271,0,6.686-1.226,6.686-4.971c0-3.57-2.38-4.831-6.721-4.831
		h-6.021v9.802H396.712z"/>
</g>
<g>
	<rect x="79.216" y="163.935" fill="#C0DDE7" width="281.738" height="7.199"/>
</g>
<g>
	<rect x="79.216" y="191.762" fill="#C0DDE7" width="281.738" height="7.2"/>
</g>
<g>
	<rect x="79.216" y="205.677" fill="#C0DDE7" width="281.738" height="7.199"/>
</g>
<g>
	<rect x="79.216" y="219.591" fill="#C0DDE7" width="281.738" height="7.199"/>
</g>
<g>
	<rect x="79.216" y="233.504" fill="#C0DDE7" width="281.738" height="7.199"/>
</g>
<g>
	<rect x="79.216" y="247.417" fill="#C0DDE7" width="281.738" height="7.199"/>
</g>
<g>
	<rect x="79.216" y="261.331" fill="#C0DDE7" width="281.738" height="7.199"/>
</g>
<g>
	<rect x="79.216" y="275.245" fill="#C0DDE7" width="281.738" height="7.199"/>
</g>
<g>
	<rect x="79.216" y="289.159" fill="#C0DDE7" width="281.738" height="7.199"/>
</g>
<g>
	<rect x="79.216" y="303.073" fill="#C0DDE7" width="281.738" height="7.199"/>
</g>
<g>
	<rect x="79.216" y="316.986" fill="#C0DDE7" width="281.738" height="7.2"/>
</g>
<g>
	<rect x="79.216" y="330.9" fill="#C0DDE7" width="281.738" height="7.199"/>
</g>
<g>
	<rect x="79.216" y="344.813" fill="#C0DDE7" width="281.738" height="7.2"/>
</g>
<g>
	<rect x="79.216" y="358.728" fill="#C0DDE7" width="281.738" height="7.201"/>
</g>
<g>
	<rect x="79.216" y="372.642" fill="#C0DDE7" width="281.738" height="7.2"/>
</g>
<g>
	<rect x="79.216" y="386.556" fill="#C0DDE7" width="281.738" height="7.199"/>
</g>
<g>
	<rect x="79.216" y="400.47" fill="#C0DDE7" width="281.738" height="7.199"/>
</g>
<g>
	<rect x="79.216" y="414.384" fill="#C0DDE7" width="281.738" height="7.199"/>
</g>
<g>
	<rect x="79.216" y="428.297" fill="#C0DDE7" width="281.738" height="7.2"/>
</g>
<g>
	<rect x="79.216" y="442.21" fill="#C0DDE7" width="281.738" height="7.201"/>
</g>
<g>
	<rect x="79.216" y="456.125" fill="#C0DDE7" width="281.738" height="7.2"/>
</g>
<g>
	<rect x="79.216" y="470.038" fill="#C0DDE7" width="281.738" height="7.199"/>
</g>
<g>
	<rect x="79.216" y="483.952" fill="#C0DDE7" width="281.738" height="7.2"/>
</g>
<g>
	<rect x="79.216" y="66.537" fill="#C0DDE7" width="281.738" height="7.2"/>
</g>
<g>
	<rect x="79.216" y="80.45" fill="#C0DDE7" width="281.738" height="7.201"/>
</g>
<g>
	<rect x="79.216" y="150.021" fill="#C0DDE7" width="281.738" height="7.2"/>
</g>
<g>
	<rect x="79.216" y="177.848" fill="#C0DDE7" width="281.738" height="7.2"/>
</g>
<g>
	<rect x="79.216" y="94.365" fill="#C0DDE7" width="281.738" height="7.199"/>
</g>
<g>
	<rect x="79.216" y="108.278" fill="#C0DDE7" width="281.738" height="7.201"/>
</g>
<g>
	<rect x="79.216" y="122.192" fill="#C0DDE7" width="281.738" height="7.199"/>
</g>
<g>
	<rect x="79.216" y="136.108" fill="#C0DDE7" width="281.738" height="7.197"/>
</g>
<g>
	<rect x="79.216" y="163.935" fill="#C0DDE7" width="281.738" height="7.199"/>
</g>
</svg>
