<?xml version="1.0" encoding="utf-8"?>
<!-- Generator: Adobe Illustrator 16.0.4, SVG Export Plug-In . SVG Version: 6.00 Build 0)  -->
<!DOCTYPE svg PUBLIC "-//W3C//DTD SVG 1.1//EN" "http://www.w3.org/Graphics/SVG/1.1/DTD/svg11.dtd">
<svg version="1.1" id="Layer_1" xmlns="http://www.w3.org/2000/svg" xmlns:xlink="http://www.w3.org/1999/xlink" x="0px" y="0px"
	 width="448.747px" height="616.44px" viewBox="0 0 448.747 616.44" enable-background="new 0 0 448.747 616.44"
	 xml:space="preserve">
<rect x="0.5" y="0.5" fill="#FFFFFF" stroke="#C68D06" stroke-miterlimit="10" width="447.747" height="615.44"/>
<g>
	<path fill="#C68D06" d="M346.977,576.218l1.785-1.436c1.575,2.275,3.641,3.921,6.721,3.921c4.445,0,6.476-3.291,6.476-6.791
		c0-4.2-2.485-6.44-5.916-6.44c-2.66,0-4.48,1.189-5.915,3.255l-1.855-0.7l1.016-13.546h13.686l-0.21,2.274h-11.411l-0.699,8.996
		c1.26-1.47,2.975-2.415,5.74-2.415c4.69,0,8.016,3.29,8.016,8.471s-3.396,9.066-8.891,9.066
		C351.771,580.873,348.727,578.982,346.977,576.218z"/>
	<path fill="#C68D06" d="M371.581,578.143h4.865v-20.967c-1.26,0.665-3.29,1.189-4.796,1.189v-2.205
		c1.995-0.07,3.78-0.595,4.936-1.68h2.311v23.662h4.41v2.24h-11.726V578.143z"/>
	<path fill="#C68D06" d="M389.36,554.48h2.556l7.735,22.612h0.07l7.771-22.612h2.416l-9.102,26.008h-2.345L389.36,554.48z"/>
</g>
<g>
	<rect x="79.885" y="158.719" fill="#C0DDE7" width="281.738" height="7.199"/>
</g>
<g>
	<rect x="79.885" y="186.546" fill="#C0DDE7" width="281.738" height="7.2"/>
</g>
<g>
	<rect x="79.885" y="200.461" fill="#C0DDE7" width="281.738" height="7.199"/>
</g>
<g>
	<rect x="79.885" y="214.375" fill="#C0DDE7" width="281.738" height="7.199"/>
</g>
<g>
	<rect x="79.885" y="228.288" fill="#C0DDE7" width="281.738" height="7.199"/>
</g>
<g>
	<rect x="79.885" y="242.202" fill="#C0DDE7" width="281.738" height="7.199"/>
</g>
<g>
	<rect x="79.885" y="256.115" fill="#C0DDE7" width="281.738" height="7.2"/>
</g>
<g>
	<rect x="79.885" y="270.029" fill="#C0DDE7" width="281.738" height="7.199"/>
</g>
<g>
	<rect x="79.885" y="283.943" fill="#C0DDE7" width="281.738" height="7.2"/>
</g>
<g>
	<rect x="79.885" y="297.857" fill="#C0DDE7" width="281.738" height="7.199"/>
</g>
<g>
	<rect x="79.885" y="311.771" fill="#C0DDE7" width="281.738" height="7.2"/>
</g>
<g>
	<rect x="79.885" y="325.685" fill="#C0DDE7" width="281.738" height="7.199"/>
</g>
<g>
	<rect x="79.885" y="339.599" fill="#C0DDE7" width="281.738" height="7.199"/>
</g>
<g>
	<rect x="79.885" y="353.512" fill="#C0DDE7" width="281.738" height="7.201"/>
</g>
<g>
	<rect x="79.885" y="367.426" fill="#C0DDE7" width="281.738" height="7.2"/>
</g>
<g>
	<rect x="79.885" y="381.34" fill="#C0DDE7" width="281.738" height="7.199"/>
</g>
<g>
	<rect x="79.885" y="395.254" fill="#C0DDE7" width="281.738" height="7.199"/>
</g>
<g>
	<rect x="79.885" y="409.168" fill="#C0DDE7" width="281.738" height="7.199"/>
</g>
<g>
	<rect x="79.885" y="423.081" fill="#C0DDE7" width="281.738" height="7.2"/>
</g>
<g>
	<rect x="79.885" y="436.995" fill="#C0DDE7" width="281.738" height="7.2"/>
</g>
<g>
	<rect x="79.885" y="450.909" fill="#C0DDE7" width="281.738" height="7.2"/>
</g>
<g>
	<rect x="79.885" y="464.823" fill="#C0DDE7" width="281.738" height="7.199"/>
</g>
<g>
	<rect x="79.885" y="478.736" fill="#C0DDE7" width="281.738" height="7.2"/>
</g>
<g>
	<rect x="79.885" y="61.321" fill="#C0DDE7" width="281.738" height="7.2"/>
</g>
<g>
	<rect x="79.885" y="75.235" fill="#C0DDE7" width="281.738" height="7.2"/>
</g>
<g>
	<rect x="79.885" y="144.805" fill="#C0DDE7" width="281.738" height="7.2"/>
</g>
<g>
	<rect x="79.885" y="172.632" fill="#C0DDE7" width="281.738" height="7.2"/>
</g>
<g>
	<rect x="79.885" y="89.149" fill="#C0DDE7" width="281.738" height="7.199"/>
</g>
<g>
	<rect x="79.885" y="103.063" fill="#C0DDE7" width="281.738" height="7.2"/>
</g>
<g>
	<rect x="79.885" y="116.978" fill="#C0DDE7" width="281.738" height="7.199"/>
</g>
<g>
	<rect x="79.885" y="130.893" fill="#C0DDE7" width="281.738" height="7.197"/>
</g>
<g>
	<rect x="79.885" y="158.719" fill="#C0DDE7" width="281.738" height="7.2"/>
</g>
</svg>
