<?xml version="1.0" encoding="utf-8"?>
<!-- Generator: Adobe Illustrator 16.0.4, SVG Export Plug-In . SVG Version: 6.00 Build 0)  -->
<!DOCTYPE svg PUBLIC "-//W3C//DTD SVG 1.1//EN" "http://www.w3.org/Graphics/SVG/1.1/DTD/svg11.dtd">
<svg version="1.1" id="Layer_1" xmlns="http://www.w3.org/2000/svg" xmlns:xlink="http://www.w3.org/1999/xlink" x="0px" y="0px"
	 width="448.746px" height="616.439px" viewBox="0 0 448.746 616.439" enable-background="new 0 0 448.746 616.439"
	 xml:space="preserve">
<rect x="0.5" y="0.5" fill="#FFFFFF" stroke="#C68D06" stroke-miterlimit="10" width="447.746" height="615.439"/>
<g>
	<path fill="#C68D06" d="M339.194,577.968l1.785-1.436c1.575,2.275,3.641,3.921,6.721,3.921c4.445,0,6.476-3.291,6.476-6.791
		c0-4.2-2.485-6.44-5.916-6.44c-2.66,0-4.48,1.189-5.915,3.255l-1.855-0.7l1.016-13.546h13.687l-0.211,2.274h-11.411l-0.7,8.996
		c1.261-1.47,2.976-2.415,5.741-2.415c4.69,0,8.016,3.29,8.016,8.471s-3.396,9.066-8.891,9.066
		C343.99,582.623,340.944,580.732,339.194,577.968z"/>
	<path fill="#C68D06" d="M362.748,577.792l1.855-1.33c1.891,2.836,4.2,3.991,7.07,3.991c3.815,0,6.161-2.101,6.161-5.286
		c0-3.815-2.24-5.705-8.331-5.705h-0.979v-2.136h1.189c5.496,0,7.561-1.68,7.561-4.865c0-2.591-1.575-4.516-5.495-4.516
		c-2.625,0-4.655,1.295-6.16,3.15l-1.716-1.436c1.855-2.24,4.516-3.92,8.016-3.92c5.461,0,7.771,3.115,7.771,6.476
		c0,3.325-1.961,5.53-5.11,6.126c3.85,0.805,5.705,3.01,5.705,6.825c0,4.235-3.325,7.456-8.646,7.456
		C367.859,582.623,364.673,580.873,362.748,577.792z"/>
	<path fill="#C68D06" d="M389.208,556.23h8.681c5.776,0,8.996,2.45,8.996,7c0,4.201-2.45,6.301-6.195,7.001l6.546,11.901h-2.801
		l-6.336-11.621h-6.44v11.621h-2.45V556.23z M397.713,568.307c4.271,0,6.686-1.226,6.686-4.971c0-3.57-2.38-4.831-6.721-4.831
		h-6.021v9.802H397.713z"/>
</g>
<g>
	<g>
		<rect x="80.217" y="171.874" fill="#C0DDE7" width="281.738" height="7.199"/>
	</g>
	<g>
		<rect x="80.217" y="185.788" fill="#C0DDE7" width="281.738" height="7.199"/>
	</g>
	<g>
		<rect x="80.217" y="199.702" fill="#C0DDE7" width="281.738" height="7.199"/>
	</g>
	<g>
		<rect x="80.217" y="213.616" fill="#C0DDE7" width="281.738" height="7.199"/>
	</g>
	<g>
		<rect x="80.217" y="227.53" fill="#C0DDE7" width="281.738" height="7.199"/>
	</g>
	<g>
		<rect x="80.217" y="241.442" fill="#C0DDE7" width="281.738" height="7.201"/>
	</g>
	<g>
		<rect x="80.217" y="255.358" fill="#C0DDE7" width="281.738" height="7.199"/>
	</g>
	<g>
		<rect x="80.217" y="269.271" fill="#C0DDE7" width="281.738" height="7.201"/>
	</g>
	<g>
		<rect x="80.217" y="283.185" fill="#C0DDE7" width="281.738" height="7.199"/>
	</g>
	<g>
		<rect x="80.217" y="297.099" fill="#C0DDE7" width="281.738" height="7.201"/>
	</g>
	<g>
		<rect x="80.217" y="311.013" fill="#C0DDE7" width="281.738" height="7.2"/>
	</g>
	<g>
		<rect x="80.217" y="324.927" fill="#C0DDE7" width="281.738" height="7.199"/>
	</g>
	<g>
		<rect x="80.217" y="338.841" fill="#C0DDE7" width="281.738" height="7.199"/>
	</g>
	<g>
		<rect x="80.217" y="352.755" fill="#C0DDE7" width="281.738" height="7.199"/>
	</g>
	<g>
		<rect x="80.217" y="366.667" fill="#C0DDE7" width="281.738" height="7.201"/>
	</g>
	<g>
		<rect x="80.217" y="380.581" fill="#C0DDE7" width="281.738" height="7.201"/>
	</g>
	<g>
		<rect x="80.217" y="394.496" fill="#C0DDE7" width="281.738" height="7.198"/>
	</g>
	<g>
		<rect x="80.217" y="408.409" fill="#C0DDE7" width="281.738" height="7.199"/>
	</g>
	<g>
		<rect x="80.217" y="422.323" fill="#C0DDE7" width="281.738" height="7.199"/>
	</g>
	<g>
		<rect x="80.217" y="436.237" fill="#C0DDE7" width="281.738" height="7.199"/>
	</g>
	<g>
		<rect x="80.217" y="450.151" fill="#C0DDE7" width="281.738" height="7.199"/>
	</g>
	<g>
		<rect x="80.217" y="464.065" fill="#C0DDE7" width="281.738" height="7.199"/>
	</g>
	<g>
		<rect x="80.217" y="477.979" fill="#C0DDE7" width="281.738" height="7.199"/>
	</g>
	<g>
		<rect x="80.217" y="491.892" fill="#C0DDE7" width="281.738" height="7.201"/>
	</g>
	<g>
		<rect x="80.217" y="74.478" fill="#C0DDE7" width="281.738" height="7.199"/>
	</g>
	<g>
		<rect x="80.217" y="88.392" fill="#C0DDE7" width="281.738" height="7.199"/>
	</g>
	<g>
		<rect x="80.217" y="157.96" fill="#C0DDE7" width="281.738" height="7.199"/>
	</g>
	<g>
		<rect x="80.217" y="102.306" fill="#C0DDE7" width="281.738" height="7.199"/>
	</g>
	<g>
		<rect x="80.217" y="116.22" fill="#C0DDE7" width="281.738" height="7.199"/>
	</g>
	<g>
		<rect x="80.217" y="130.134" fill="#C0DDE7" width="281.738" height="7.199"/>
	</g>
	<g>
		<rect x="80.217" y="144.048" fill="#C0DDE7" width="281.738" height="7.199"/>
	</g>
	<g>
		<g>
			<polygon fill="#7C5904" points="218.495,304.3 80.424,304.3 80.424,297.101 218.495,297.101 222.643,300.7 			"/>
		</g>
		<g>
			<polygon fill="#7C5904" points="223.885,297.101 361.956,297.101 361.956,304.3 223.885,304.3 228.033,300.7 			"/>
		</g>
	</g>
	<g>
		<g>
			<polygon fill="#7C5904" points="218.495,290.384 80.424,290.384 80.424,283.185 218.495,283.185 222.643,286.784 			"/>
		</g>
		<g>
			<polygon fill="#7C5904" points="223.885,283.185 361.956,283.185 361.956,290.384 223.885,290.384 228.033,286.784 			"/>
		</g>
	</g>
	<g>
		<g>
			<polygon fill="#7C5904" points="218.495,318.214 80.424,318.214 80.424,311.015 218.495,311.015 222.643,314.614 			"/>
		</g>
		<g>
			<polygon fill="#7C5904" points="223.885,311.015 361.956,311.015 361.956,318.214 223.885,318.214 228.033,314.614 			"/>
		</g>
	</g>
	<g>
		<g>
			<polygon fill="#7C5904" points="218.495,387.782 80.424,387.782 80.424,380.583 218.495,380.583 222.643,384.183 			"/>
		</g>
		<g>
			<polygon fill="#7C5904" points="223.885,380.583 361.956,380.583 361.956,387.782 223.885,387.782 228.033,384.183 			"/>
		</g>
	</g>
	<g>
		<g>
			<polygon fill="#7C5904" points="218.495,401.694 80.424,401.694 80.424,394.496 218.495,394.496 222.643,398.095 			"/>
		</g>
		<g>
			<polygon fill="#7C5904" points="223.885,394.496 361.956,394.496 361.956,401.694 223.885,401.694 228.033,398.095 			"/>
		</g>
	</g>
	<g>
		<g>
			<polygon fill="#7C5904" points="218.495,332.126 80.424,332.126 80.424,324.927 218.495,324.927 222.643,328.526 			"/>
		</g>
		<g>
			<polygon fill="#7C5904" points="223.885,324.927 361.956,324.927 361.956,332.126 223.885,332.126 228.033,328.526 			"/>
		</g>
	</g>
	<g>
		<g>
			<polygon fill="#7C5904" points="218.495,359.954 80.424,359.954 80.424,352.755 218.495,352.755 222.643,356.354 			"/>
		</g>
		<g>
			<polygon fill="#7C5904" points="223.885,352.755 361.956,352.755 361.956,359.954 223.885,359.954 228.033,356.354 			"/>
		</g>
	</g>
	<g>
		<g>
			<polygon fill="#7C5904" points="218.495,346.04 80.424,346.04 80.424,338.841 218.495,338.841 222.643,342.44 			"/>
		</g>
		<g>
			<polygon fill="#7C5904" points="223.885,338.841 361.956,338.841 361.956,346.04 223.885,346.04 228.033,342.44 			"/>
		</g>
	</g>
	<g>
		<g>
			<polygon fill="#7C5904" points="218.495,373.868 80.424,373.868 80.424,366.669 218.495,366.669 222.643,370.269 			"/>
		</g>
		<g>
			<polygon fill="#7C5904" points="223.885,366.669 361.956,366.669 361.956,373.868 223.885,373.868 228.033,370.269 			"/>
		</g>
	</g>
	<g>
		<path fill="#C63706" d="M66.732,64.167h7.289v3.077h-1.797v10.871h1.797v3.077h-7.289v-3.077h1.763V67.244h-1.763V64.167z"/>
	</g>
	<g>
		<g>
			<polygon fill="#7C5904" points="218.495,415.61 80.424,415.61 80.424,408.411 218.495,408.411 222.643,412.011 			"/>
		</g>
		<g>
			<polygon fill="#7C5904" points="223.885,408.411 361.956,408.411 361.956,415.61 223.885,415.61 228.033,412.011 			"/>
		</g>
	</g>
	<g>
		<g>
			<polygon fill="#7C5904" points="218.495,429.524 80.424,429.524 80.424,422.325 218.495,422.325 222.643,425.925 			"/>
		</g>
		<g>
			<polygon fill="#7C5904" points="223.885,422.325 361.956,422.325 361.956,429.524 223.885,429.524 228.033,425.925 			"/>
		</g>
	</g>
	<g>
		<g>
			<polygon fill="#7C5904" points="218.495,443.437 80.424,443.437 80.424,436.237 218.495,436.237 222.643,439.837 			"/>
		</g>
		<g>
			<polygon fill="#7C5904" points="223.885,436.237 361.956,436.237 361.956,443.437 223.885,443.437 228.033,439.837 			"/>
		</g>
	</g>
	<g>
		<g>
			<polygon fill="#7C5904" points="218.495,457.353 80.424,457.353 80.424,450.153 218.495,450.153 222.643,453.751 			"/>
		</g>
		<g>
			<polygon fill="#7C5904" points="223.885,450.153 361.956,450.153 361.956,457.353 223.885,457.353 228.033,453.751 			"/>
		</g>
	</g>
	<g>
		<g>
			<polygon fill="#7C5904" points="218.495,471.266 80.424,471.266 80.424,464.065 218.495,464.065 222.643,467.665 			"/>
		</g>
		<g>
			<polygon fill="#7C5904" points="223.885,464.065 361.956,464.065 361.956,471.266 223.885,471.266 228.033,467.665 			"/>
		</g>
	</g>
	<g>
		<g>
			<polygon fill="#7C5904" points="218.495,485.179 80.424,485.179 80.424,477.979 218.495,477.979 222.643,481.579 			"/>
		</g>
		<g>
			<polygon fill="#7C5904" points="223.885,477.979 361.956,477.979 361.956,485.179 223.885,485.179 228.033,481.579 			"/>
		</g>
	</g>
	<g>
		<g>
			<polygon fill="#7C5904" points="218.495,165.159 80.424,165.159 80.424,157.961 218.495,157.961 222.643,161.561 			"/>
		</g>
		<g>
			<polygon fill="#7C5904" points="223.885,157.961 361.956,157.961 361.956,165.159 223.885,165.159 228.033,161.561 			"/>
		</g>
	</g>
	<g>
		<g>
			<polygon fill="#7C5904" points="218.495,179.073 80.424,179.073 80.424,171.875 218.495,171.875 222.643,175.475 			"/>
		</g>
		<g>
			<polygon fill="#7C5904" points="223.885,171.875 361.956,171.875 361.956,179.073 223.885,179.073 228.033,175.475 			"/>
		</g>
	</g>
	<g>
		<g>
			<polygon fill="#7C5904" points="218.495,109.505 80.424,109.505 80.424,102.306 218.495,102.306 222.643,105.905 			"/>
		</g>
		<g>
			<polygon fill="#7C5904" points="223.885,102.306 361.956,102.306 361.956,109.505 223.885,109.505 228.033,105.905 			"/>
		</g>
	</g>
	<g>
		<g>
			<polygon fill="#7C5904" points="218.495,95.591 80.424,95.591 80.424,88.392 218.495,88.392 222.643,91.989 			"/>
		</g>
		<g>
			<polygon fill="#7C5904" points="223.885,88.392 361.956,88.392 361.956,95.591 223.885,95.591 228.033,91.989 			"/>
		</g>
	</g>
	<g>
		<g>
			<polygon fill="#7C5904" points="218.495,81.677 80.424,81.677 80.424,74.478 218.495,74.478 222.643,78.075 			"/>
		</g>
		<g>
			<polygon fill="#7C5904" points="223.885,74.478 361.956,74.478 361.956,81.677 223.885,81.677 228.033,78.075 			"/>
		</g>
	</g>
	<g>
		<g>
			<polygon fill="#7C5904" points="218.495,123.419 80.424,123.419 80.424,116.22 218.495,116.22 222.643,119.819 			"/>
		</g>
		<g>
			<polygon fill="#7C5904" points="223.885,116.22 361.956,116.22 361.956,123.419 223.885,123.419 228.033,119.819 			"/>
		</g>
	</g>
	<g>
		<g>
			<polygon fill="#7C5904" points="218.495,137.333 80.424,137.333 80.424,130.134 218.495,130.134 222.643,133.732 			"/>
		</g>
		<g>
			<polygon fill="#7C5904" points="223.885,130.134 361.956,130.134 361.956,137.333 223.885,137.333 228.033,133.732 			"/>
		</g>
	</g>
	<g>
		<g>
			<polygon fill="#7C5904" points="218.495,151.247 80.424,151.247 80.424,144.047 218.495,144.047 222.643,147.646 			"/>
		</g>
		<g>
			<polygon fill="#7C5904" points="223.885,144.047 361.956,144.047 361.956,151.247 223.885,151.247 228.033,147.646 			"/>
		</g>
	</g>
	<g>
		<g>
			<polygon fill="#7C5904" points="218.391,206.902 80.32,206.902 80.32,199.703 218.391,199.703 222.539,203.302 			"/>
		</g>
		<g>
			<polygon fill="#7C5904" points="223.781,199.703 361.852,199.703 361.852,206.902 223.781,206.902 227.929,203.302 			"/>
		</g>
	</g>
	<g>
		<g>
			<polygon fill="#7C5904" points="218.391,192.989 80.32,192.989 80.32,185.79 218.391,185.79 222.539,189.39 			"/>
		</g>
		<g>
			<polygon fill="#7C5904" points="223.781,185.79 361.852,185.79 361.852,192.989 223.781,192.989 227.929,189.39 			"/>
		</g>
	</g>
	<g>
		<g>
			<polygon fill="#7C5904" points="218.391,220.815 80.32,220.815 80.32,213.616 218.391,213.616 222.539,217.216 			"/>
		</g>
		<g>
			<polygon fill="#7C5904" points="223.781,213.616 361.852,213.616 361.852,220.815 223.781,220.815 227.929,217.216 			"/>
		</g>
	</g>
	<g>
		<g>
			<polygon fill="#7C5904" points="218.391,248.644 80.32,248.644 80.32,241.444 218.391,241.444 222.539,245.042 			"/>
		</g>
		<g>
			<polygon fill="#7C5904" points="223.781,241.444 361.852,241.444 361.852,248.644 223.781,248.644 227.929,245.042 			"/>
		</g>
	</g>
	<g>
		<g>
			<polygon fill="#7C5904" points="218.495,234.729 80.424,234.729 80.424,227.531 218.495,227.531 222.643,231.13 			"/>
		</g>
		<g>
			<polygon fill="#7C5904" points="223.885,227.531 361.956,227.531 361.956,234.729 223.885,234.729 228.033,231.13 			"/>
		</g>
	</g>
	<g>
		<g>
			<polygon fill="#7C5904" points="218.391,262.558 80.32,262.558 80.32,255.358 218.391,255.358 222.539,258.958 			"/>
		</g>
		<g>
			<polygon fill="#7C5904" points="223.781,255.358 361.852,255.358 361.852,262.558 223.781,262.558 227.929,258.958 			"/>
		</g>
	</g>
	<g>
		<g>
			<polygon fill="#7C5904" points="218.391,276.472 80.32,276.472 80.32,269.272 218.391,269.272 222.539,272.871 			"/>
		</g>
		<g>
			<polygon fill="#7C5904" points="223.781,269.272 361.852,269.272 361.852,276.472 223.781,276.472 227.929,272.871 			"/>
		</g>
	</g>
	<g>
		<path fill="#398EB0" d="M69.354,203.663c-0.451-0.123-0.876-0.305-1.274-0.545s-0.747-0.537-1.046-0.893
			c-0.299-0.354-0.536-0.764-0.712-1.23c-0.176-0.465-0.264-0.988-0.264-1.568c0-0.615,0.123-1.191,0.369-1.727
			c0.246-0.537,0.595-1.004,1.046-1.402s0.996-0.712,1.635-0.94s1.351-0.343,2.136-0.343h6.012v2.417h-1.239v14.089h-2.575v-14.089
			h-1.512v14.089h-2.575V203.663z"/>
	</g>
	<g>
		<path fill="#C63706" d="M69.354,328.163c-0.451-0.123-0.876-0.305-1.274-0.545s-0.747-0.537-1.046-0.893
			c-0.299-0.354-0.536-0.764-0.712-1.23c-0.176-0.465-0.264-0.988-0.264-1.568c0-0.615,0.123-1.191,0.369-1.727
			c0.246-0.537,0.595-1.004,1.046-1.402s0.996-0.712,1.635-0.94s1.351-0.343,2.136-0.343h6.012v2.417h-1.239v14.089h-2.575v-14.089
			h-1.512v14.089h-2.575V328.163z"/>
	</g>
	<g>
		<path fill="#398EB0" d="M69.354,453.413c-0.451-0.123-0.876-0.305-1.274-0.545s-0.747-0.537-1.046-0.893
			c-0.299-0.354-0.536-0.764-0.712-1.23c-0.176-0.465-0.264-0.988-0.264-1.568c0-0.615,0.123-1.191,0.369-1.727
			c0.246-0.537,0.595-1.004,1.046-1.402s0.996-0.712,1.635-0.94s1.351-0.343,2.136-0.343h6.012v2.417h-1.239v14.089h-2.575v-14.089
			h-1.512v14.089h-2.575V453.413z"/>
	</g>
	<g>
		<g>
			<polygon fill="#7C5904" points="218.494,499.093 80.424,499.093 80.424,491.894 218.494,491.894 222.643,495.493 			"/>
		</g>
		<g>
			<polygon fill="#7C5904" points="223.885,491.894 228.032,495.493 223.885,499.093 357.807,499.093 361.956,495.493 
				357.807,491.894 			"/>
		</g>
	</g>
</g>
</svg>
