<?xml version="1.0" encoding="utf-8"?>
<!-- Generator: Adobe Illustrator 16.0.4, SVG Export Plug-In . SVG Version: 6.00 Build 0)  -->
<!DOCTYPE svg PUBLIC "-//W3C//DTD SVG 1.1//EN" "http://www.w3.org/Graphics/SVG/1.1/DTD/svg11.dtd">
<svg version="1.1" id="Layer_1" xmlns="http://www.w3.org/2000/svg" xmlns:xlink="http://www.w3.org/1999/xlink" x="0px" y="0px"
	 width="448.747px" height="616.439px" viewBox="0 0 448.747 616.439" enable-background="new 0 0 448.747 616.439"
	 xml:space="preserve">
<rect x="0.5" y="0.5" fill="#FFFFFF" stroke="#C68D06" stroke-miterlimit="10" width="447.747" height="615.439"/>
<g>
	<path fill="#C68D06" d="M340.662,577.968l1.785-1.436c1.575,2.275,3.641,3.921,6.721,3.921c4.445,0,6.476-3.291,6.476-6.791
		c0-4.2-2.485-6.44-5.916-6.44c-2.66,0-4.48,1.189-5.915,3.255l-1.855-0.7l1.016-13.546h13.686l-0.21,2.274h-11.411l-0.699,8.996
		c1.26-1.47,2.975-2.415,5.74-2.415c4.69,0,8.016,3.29,8.016,8.471s-3.396,9.066-8.891,9.066
		C345.457,582.623,342.412,580.732,340.662,577.968z"/>
	<path fill="#C68D06" d="M364.216,577.792l1.855-1.33c1.891,2.836,4.2,3.991,7.07,3.991c3.815,0,6.161-2.101,6.161-5.286
		c0-3.815-2.24-5.705-8.331-5.705h-0.979v-2.136h1.189c5.496,0,7.561-1.68,7.561-4.865c0-2.591-1.574-4.516-5.495-4.516
		c-2.625,0-4.655,1.295-6.161,3.15l-1.715-1.436c1.855-2.24,4.516-3.92,8.016-3.92c5.461,0,7.771,3.115,7.771,6.476
		c0,3.325-1.961,5.53-5.111,6.126c3.851,0.805,5.706,3.01,5.706,6.825c0,4.235-3.325,7.456-8.646,7.456
		C369.326,582.623,366.142,580.873,364.216,577.792z"/>
	<path fill="#C68D06" d="M388.61,556.23h2.556l7.735,22.612h0.07l7.771-22.612h2.416l-9.102,26.008h-2.345L388.61,556.23z"/>
</g>
<g>
	<g>
		<rect x="80.216" y="157.966" fill="#C0DDE7" width="281.738" height="7.199"/>
	</g>
	<g>
		<rect x="80.216" y="171.879" fill="#C0DDE7" width="281.738" height="7.199"/>
	</g>
	<g>
		<rect x="80.216" y="185.793" fill="#C0DDE7" width="281.738" height="7.2"/>
	</g>
	<g>
		<rect x="80.216" y="199.707" fill="#C0DDE7" width="281.738" height="7.199"/>
	</g>
	<g>
		<rect x="80.216" y="213.621" fill="#C0DDE7" width="281.738" height="7.199"/>
	</g>
	<g>
		<rect x="80.216" y="227.535" fill="#C0DDE7" width="281.738" height="7.199"/>
	</g>
	<g>
		<rect x="80.216" y="241.449" fill="#C0DDE7" width="281.738" height="7.199"/>
	</g>
	<g>
		<rect x="80.216" y="255.361" fill="#C0DDE7" width="281.738" height="7.201"/>
	</g>
	<g>
		<rect x="80.216" y="269.276" fill="#C0DDE7" width="281.738" height="7.199"/>
	</g>
	<g>
		<rect x="80.216" y="283.189" fill="#C0DDE7" width="281.738" height="7.201"/>
	</g>
	<g>
		<rect x="80.216" y="297.104" fill="#C0DDE7" width="281.738" height="7.2"/>
	</g>
	<g>
		<rect x="80.216" y="311.018" fill="#C0DDE7" width="281.738" height="7.2"/>
	</g>
	<g>
		<rect x="80.216" y="324.932" fill="#C0DDE7" width="281.738" height="7.199"/>
	</g>
	<g>
		<rect x="80.216" y="338.846" fill="#C0DDE7" width="281.738" height="7.199"/>
	</g>
	<g>
		<rect x="80.216" y="352.759" fill="#C0DDE7" width="281.738" height="7.201"/>
	</g>
	<g>
		<rect x="80.216" y="366.673" fill="#C0DDE7" width="281.738" height="7.2"/>
	</g>
	<g>
		<rect x="80.216" y="380.587" fill="#C0DDE7" width="281.738" height="7.199"/>
	</g>
	<g>
		<rect x="80.216" y="394.501" fill="#C0DDE7" width="281.738" height="7.199"/>
	</g>
	<g>
		<rect x="80.216" y="408.414" fill="#C0DDE7" width="281.738" height="7.199"/>
	</g>
	<g>
		<rect x="80.216" y="422.328" fill="#C0DDE7" width="281.738" height="7.2"/>
	</g>
	<g>
		<rect x="80.216" y="436.242" fill="#C0DDE7" width="281.738" height="7.2"/>
	</g>
	<g>
		<rect x="80.216" y="450.156" fill="#C0DDE7" width="281.738" height="7.199"/>
	</g>
	<g>
		<rect x="80.216" y="464.07" fill="#C0DDE7" width="281.738" height="7.199"/>
	</g>
	<g>
		<rect x="80.216" y="477.982" fill="#C0DDE7" width="281.738" height="7.201"/>
	</g>
	<g>
		<rect x="80.216" y="60.568" fill="#C0DDE7" width="281.738" height="7.2"/>
	</g>
	<g>
		<rect x="80.216" y="74.482" fill="#C0DDE7" width="281.738" height="7.2"/>
	</g>
	<g>
		<rect x="80.216" y="144.052" fill="#C0DDE7" width="281.738" height="7.2"/>
	</g>
	<g>
		<rect x="80.216" y="88.396" fill="#C0DDE7" width="281.738" height="7.199"/>
	</g>
	<g>
		<rect x="80.216" y="102.311" fill="#C0DDE7" width="281.738" height="7.2"/>
	</g>
	<g>
		<rect x="80.216" y="116.225" fill="#C0DDE7" width="281.738" height="7.199"/>
	</g>
	<g>
		<rect x="80.216" y="130.139" fill="#C0DDE7" width="281.738" height="7.198"/>
	</g>
	<g>
		<g>
			<polygon fill="#7C5904" points="218.39,81.683 80.32,81.683 80.32,74.482 218.39,74.482 222.539,78.084 			"/>
		</g>
		<g>
			<polygon fill="#7C5904" points="223.781,74.482 361.851,74.482 361.851,81.683 223.781,81.683 227.929,78.084 			"/>
		</g>
	</g>
	<g>
		<g>
			<polygon fill="#7C5904" points="218.39,95.596 80.32,95.596 80.32,88.396 218.39,88.396 222.539,91.997 			"/>
		</g>
		<g>
			<polygon fill="#7C5904" points="223.781,88.396 361.851,88.396 361.851,95.596 223.781,95.596 227.929,91.997 			"/>
		</g>
	</g>
	<g>
		<g>
			<polygon fill="#7C5904" points="218.39,109.511 80.32,109.511 80.32,102.311 218.39,102.311 222.539,105.91 			"/>
		</g>
		<g>
			<polygon fill="#7C5904" points="223.781,102.311 361.851,102.311 361.851,109.511 223.781,109.511 227.929,105.91 			"/>
		</g>
	</g>
	<g>
		<g>
			<polygon fill="#7C5904" points="218.39,137.337 80.32,137.337 80.32,130.137 218.39,130.137 222.539,133.736 			"/>
		</g>
		<g>
			<polygon fill="#7C5904" points="223.781,130.137 361.851,130.137 361.851,137.337 223.781,137.337 227.929,133.736 			"/>
		</g>
	</g>
	<g>
		<g>
			<polygon fill="#7C5904" points="218.39,123.425 80.32,123.425 80.32,116.225 218.39,116.225 222.539,119.824 			"/>
		</g>
		<g>
			<polygon fill="#7C5904" points="223.781,116.225 361.851,116.225 361.851,123.425 223.781,123.425 227.929,119.824 			"/>
		</g>
	</g>
	<g>
		<g>
			<polygon fill="#7C5904" points="218.39,179.078 80.32,179.078 80.32,171.879 218.39,171.879 222.539,175.48 			"/>
		</g>
		<g>
			<polygon fill="#7C5904" points="223.781,171.879 361.851,171.879 361.851,179.078 223.781,179.078 227.929,175.48 			"/>
		</g>
	</g>
	<g>
		<g>
			<polygon fill="#7C5904" points="218.39,165.166 80.32,165.166 80.32,157.966 218.39,157.966 222.539,161.566 			"/>
		</g>
		<g>
			<polygon fill="#7C5904" points="223.781,157.966 361.851,157.966 361.851,165.166 223.781,165.166 227.929,161.566 			"/>
		</g>
	</g>
	<g>
		<g>
			<polygon fill="#7C5904" points="218.39,151.252 80.32,151.252 80.32,144.052 218.39,144.052 222.539,147.652 			"/>
		</g>
		<g>
			<polygon fill="#7C5904" points="223.781,144.052 361.851,144.052 361.851,151.252 223.781,151.252 227.929,147.652 			"/>
		</g>
	</g>
	<g>
		<g>
			<polygon fill="#7C5904" points="218.39,192.992 80.32,192.992 80.32,185.793 218.39,185.793 222.539,189.394 			"/>
		</g>
		<g>
			<polygon fill="#7C5904" points="223.781,185.793 361.851,185.793 361.851,192.992 223.781,192.992 227.929,189.394 			"/>
		</g>
	</g>
	<g>
		<g>
			<polygon fill="#7C5904" points="218.39,262.561 80.32,262.561 80.32,255.361 218.39,255.361 222.539,258.961 			"/>
		</g>
		<g>
			<polygon fill="#7C5904" points="223.781,255.361 361.851,255.361 361.851,262.561 223.781,262.561 227.929,258.961 			"/>
		</g>
	</g>
	<g>
		<g>
			<polygon fill="#7C5904" points="218.39,276.476 80.32,276.476 80.32,269.276 218.39,269.276 222.539,272.876 			"/>
		</g>
		<g>
			<polygon fill="#7C5904" points="223.781,269.276 361.851,269.276 361.851,276.476 223.781,276.476 227.929,272.876 			"/>
		</g>
	</g>
	<g>
		<g>
			<polygon fill="#7C5904" points="218.39,220.82 80.32,220.82 80.32,213.621 218.39,213.621 222.539,217.22 			"/>
		</g>
		<g>
			<polygon fill="#7C5904" points="223.781,213.621 361.851,213.621 361.851,220.82 223.781,220.82 227.929,217.22 			"/>
		</g>
	</g>
	<g>
		<g>
			<polygon fill="#7C5904" points="218.39,206.906 80.32,206.906 80.32,199.707 218.39,199.707 222.539,203.306 			"/>
		</g>
		<g>
			<polygon fill="#7C5904" points="223.781,199.707 361.851,199.707 361.851,206.906 223.781,206.906 227.929,203.306 			"/>
		</g>
	</g>
	<g>
		<g>
			<polygon fill="#7C5904" points="218.39,248.648 80.32,248.648 80.32,241.449 218.39,241.449 222.539,245.049 			"/>
		</g>
		<g>
			<polygon fill="#7C5904" points="223.781,241.449 361.851,241.449 361.851,248.648 223.781,248.648 227.929,245.049 			"/>
		</g>
	</g>
	<g>
		<g>
			<polygon fill="#7C5904" points="218.39,234.735 80.32,234.735 80.32,227.535 218.39,227.535 222.539,231.135 			"/>
		</g>
		<g>
			<polygon fill="#7C5904" points="223.781,227.535 361.851,227.535 361.851,234.735 223.781,234.735 227.929,231.135 			"/>
		</g>
	</g>
	<g>
		<g>
			<polygon fill="#7C5904" points="218.39,290.542 80.32,290.542 80.32,283.343 218.39,283.343 222.539,286.942 			"/>
		</g>
		<g>
			<polygon fill="#7C5904" points="223.781,283.343 361.852,283.343 361.852,290.542 223.781,290.542 227.929,286.942 			"/>
		</g>
	</g>
	<g>
		<g>
			<polygon fill="#7C5904" points="218.39,304.477 80.32,304.477 80.32,297.277 218.39,297.277 222.539,300.877 			"/>
		</g>
		<g>
			<polygon fill="#7C5904" points="223.781,297.277 361.851,297.277 361.851,304.477 223.781,304.477 227.929,300.877 			"/>
		</g>
	</g>
	<g>
		<g>
			<polygon fill="#7C5904" points="218.39,332.344 80.32,332.344 80.32,325.145 218.39,325.145 222.539,328.744 			"/>
		</g>
		<g>
			<polygon fill="#7C5904" points="223.781,325.145 361.851,325.145 361.851,332.344 223.781,332.344 227.929,328.744 			"/>
		</g>
	</g>
	<g>
		<g>
			<polygon fill="#7C5904" points="218.39,318.217 80.32,318.217 80.32,311.018 218.39,311.018 222.539,314.617 			"/>
		</g>
		<g>
			<polygon fill="#7C5904" points="223.781,311.018 361.851,311.018 361.851,318.217 223.781,318.217 227.929,314.617 			"/>
		</g>
	</g>
	<g>
		<g>
			<polygon fill="#7C5904" points="218.39,346.044 80.32,346.044 80.32,338.846 218.39,338.846 222.539,342.444 			"/>
		</g>
		<g>
			<polygon fill="#7C5904" points="223.781,338.846 361.851,338.846 361.851,346.044 223.781,346.044 227.929,342.444 			"/>
		</g>
	</g>
	<g>
		<g>
			<polygon fill="#7C5904" points="218.39,360.213 80.32,360.213 80.32,353.014 218.39,353.014 222.539,356.613 			"/>
		</g>
		<g>
			<polygon fill="#7C5904" points="223.781,353.014 361.851,353.014 361.851,360.213 223.781,360.213 227.929,356.613 			"/>
		</g>
	</g>
	<g>
		<g>
			<polygon fill="#7C5904" points="218.39,373.873 80.32,373.873 80.32,366.674 218.39,366.674 222.539,370.273 			"/>
		</g>
		<g>
			<polygon fill="#7C5904" points="223.781,366.674 361.851,366.674 361.851,373.873 223.781,373.873 227.929,370.273 			"/>
		</g>
	</g>
	<g>
		<g>
			<polygon fill="#7C5904" points="218.39,401.542 80.32,401.542 80.32,394.343 218.39,394.343 222.539,397.942 			"/>
		</g>
		<g>
			<polygon fill="#7C5904" points="223.781,394.343 361.852,394.343 361.852,401.542 223.781,401.542 227.929,397.942 			"/>
		</g>
	</g>
	<g>
		<g>
			<polygon fill="#7C5904" points="218.39,387.786 80.32,387.786 80.32,380.587 218.39,380.587 222.539,384.187 			"/>
		</g>
		<g>
			<polygon fill="#7C5904" points="223.781,380.587 361.852,380.587 361.852,387.786 223.781,387.786 227.929,384.187 			"/>
		</g>
	</g>
	<g>
		<g>
			<polygon fill="#7C5904" points="218.39,415.477 80.32,415.477 80.32,408.277 218.39,408.277 222.539,411.877 			"/>
		</g>
		<g>
			<polygon fill="#7C5904" points="223.781,408.277 361.851,408.277 361.851,415.477 223.781,415.477 227.929,411.877 			"/>
		</g>
	</g>
	<g>
		<g>
			<polygon fill="#7C5904" points="218.39,429.41 80.32,429.41 80.32,422.211 218.39,422.211 222.539,425.811 			"/>
		</g>
		<g>
			<polygon fill="#7C5904" points="223.781,422.211 361.851,422.211 361.851,429.41 223.781,429.41 227.929,425.811 			"/>
		</g>
	</g>
	<g>
		<g>
			<polygon fill="#7C5904" points="218.39,443.441 80.32,443.441 80.32,436.242 218.39,436.242 222.539,439.843 			"/>
		</g>
		<g>
			<polygon fill="#7C5904" points="223.781,436.242 361.851,436.242 361.851,443.441 223.781,443.441 227.929,439.843 			"/>
		</g>
	</g>
	<g>
		<g>
			<polygon fill="#7C5904" points="218.39,457.355 80.32,457.355 80.32,450.156 218.39,450.156 222.539,453.756 			"/>
		</g>
		<g>
			<polygon fill="#7C5904" points="223.781,450.156 361.851,450.156 361.851,457.355 223.781,457.355 227.929,453.756 			"/>
		</g>
	</g>
	<g>
		<g>
			<polygon fill="#7C5904" points="218.39,471.213 80.32,471.213 80.32,464.014 218.39,464.014 222.539,467.613 			"/>
		</g>
		<g>
			<polygon fill="#7C5904" points="223.781,464.014 361.851,464.014 361.851,471.213 223.781,471.213 227.929,467.613 			"/>
		</g>
	</g>
	<g>
		<path fill="#C63706" d="M66.703,134.402c-0.451-0.123-0.876-0.305-1.274-0.545s-0.747-0.537-1.046-0.893
			c-0.299-0.354-0.536-0.764-0.712-1.23c-0.176-0.465-0.264-0.988-0.264-1.568c0-0.615,0.123-1.191,0.369-1.727
			c0.246-0.537,0.595-1.004,1.046-1.402s0.996-0.712,1.635-0.941c0.639-0.229,1.351-0.343,2.136-0.343h6.012v2.417h-1.239v14.09
			H70.79v-14.09h-1.512v14.09h-2.575V134.402z"/>
	</g>
	<g>
		<path fill="#398EB0" d="M66.703,259.267c-0.451-0.123-0.876-0.305-1.274-0.545c-0.398-0.241-0.747-0.536-1.046-0.892
			c-0.299-0.354-0.536-0.766-0.712-1.231c-0.176-0.465-0.264-0.988-0.264-1.567c0-0.615,0.123-1.192,0.369-1.728
			c0.246-0.537,0.595-1.003,1.046-1.402c0.451-0.398,0.996-0.712,1.635-0.94s1.351-0.342,2.136-0.342h6.012v2.416h-1.239v14.089
			H70.79v-14.089h-1.512v14.089h-2.575V259.267z"/>
	</g>
	<g>
		<path fill="#C63706" d="M66.703,384.6c-0.451-0.123-0.876-0.305-1.274-0.545s-0.747-0.537-1.046-0.893
			c-0.299-0.353-0.536-0.764-0.712-1.23c-0.176-0.465-0.264-0.987-0.264-1.567c0-0.616,0.123-1.192,0.369-1.728
			c0.246-0.537,0.595-1.004,1.046-1.402s0.996-0.711,1.635-0.94c0.639-0.228,1.351-0.343,2.136-0.343h6.012v2.418h-1.239v14.088
			H70.79v-14.088h-1.512v14.088h-2.575V384.6z"/>
	</g>
	<g>
		<g>
			<polygon fill="#7C5904" points="223.677,60.568 361.748,60.568 361.748,67.768 223.677,67.768 227.825,64.168 			"/>
		</g>
		<g>
			<polygon fill="#7C5904" points="222.435,64.168 218.287,60.568 218.287,60.568 218.287,60.568 80.216,60.568 84.365,64.168 
				80.216,67.768 218.287,67.768 218.287,67.768 218.287,67.767 			"/>
		</g>
	</g>
	<g>
		<g>
			<polygon fill="#7C5904" points="218.287,485.184 80.216,485.184 80.216,477.984 218.287,477.984 222.435,481.584 			"/>
		</g>
		<g>
			<polygon fill="#7C5904" points="223.677,477.984 227.825,481.584 223.677,485.184 357.6,485.184 361.748,481.584 357.6,477.984 
							"/>
		</g>
	</g>
</g>
</svg>
