<?xml version="1.0" encoding="utf-8"?>
<!-- Generator: Adobe Illustrator 16.0.4, SVG Export Plug-In . SVG Version: 6.00 Build 0)  -->
<!DOCTYPE svg PUBLIC "-//W3C//DTD SVG 1.1//EN" "http://www.w3.org/Graphics/SVG/1.1/DTD/svg11.dtd">
<svg version="1.1" id="Layer_1" xmlns="http://www.w3.org/2000/svg" xmlns:xlink="http://www.w3.org/1999/xlink" x="0px" y="0px"
	 width="448.746px" height="616.439px" viewBox="0 0 448.746 616.439" enable-background="new 0 0 448.746 616.439"
	 xml:space="preserve">
<rect x="0.5" y="0.5" fill="#FFFFFF" stroke="#C68D06" stroke-miterlimit="10" width="447.746" height="615.439"/>
<g>
	<path fill="#C68D06" d="M338.918,576.968l1.785-1.436c1.575,2.275,3.641,3.921,6.721,3.921c4.445,0,6.476-3.291,6.476-6.791
		c0-4.2-2.485-6.44-5.916-6.44c-2.66,0-4.48,1.189-5.915,3.255l-1.855-0.7l1.016-13.546h13.687l-0.211,2.274h-11.411l-0.7,8.996
		c1.261-1.47,2.976-2.415,5.741-2.415c4.69,0,8.016,3.29,8.016,8.471s-3.396,9.066-8.891,9.066
		C343.714,581.623,340.668,579.732,338.918,576.968z"/>
	<path fill="#C68D06" d="M375.039,574.867h-12.461v-1.855l11.796-17.781h3.046v17.432h4.375v2.205h-4.375v6.266h-2.381V574.867z
		 M375.039,572.662v-14.526h-0.069l-9.592,14.526H375.039z"/>
	<path fill="#C68D06" d="M389.458,555.23h8.681c5.776,0,8.996,2.45,8.996,7c0,4.201-2.45,6.301-6.195,7.001l6.546,11.901h-2.801
		l-6.336-11.621h-6.44v11.621h-2.45V555.23z M397.963,567.307c4.271,0,6.686-1.226,6.686-4.971c0-3.57-2.38-4.831-6.721-4.831
		h-6.021v9.802H397.963z"/>
</g>
<g>
	<rect x="80.466" y="156.966" fill="#C0DDE7" width="281.738" height="7.199"/>
</g>
<g>
	<rect x="80.466" y="184.793" fill="#C0DDE7" width="281.738" height="7.2"/>
</g>
<g>
	<rect x="80.466" y="198.707" fill="#C0DDE7" width="281.738" height="7.199"/>
</g>
<g>
	<rect x="80.466" y="212.621" fill="#C0DDE7" width="281.738" height="7.199"/>
</g>
<g>
	<rect x="80.466" y="226.535" fill="#C0DDE7" width="281.738" height="7.199"/>
</g>
<g>
	<rect x="80.466" y="240.449" fill="#C0DDE7" width="281.738" height="7.199"/>
</g>
<g>
	<rect x="80.466" y="254.361" fill="#C0DDE7" width="281.738" height="7.201"/>
</g>
<g>
	<rect x="80.466" y="268.276" fill="#C0DDE7" width="281.738" height="7.199"/>
</g>
<g>
	<rect x="80.466" y="282.189" fill="#C0DDE7" width="281.738" height="7.201"/>
</g>
<g>
	<rect x="80.466" y="296.104" fill="#C0DDE7" width="281.738" height="7.2"/>
</g>
<g>
	<rect x="80.466" y="310.018" fill="#C0DDE7" width="281.738" height="7.2"/>
</g>
<g>
	<rect x="80.466" y="323.932" fill="#C0DDE7" width="281.738" height="7.199"/>
</g>
<g>
	<rect x="80.466" y="337.846" fill="#C0DDE7" width="281.738" height="7.199"/>
</g>
<g>
	<rect x="80.466" y="351.759" fill="#C0DDE7" width="281.738" height="7.201"/>
</g>
<g>
	<rect x="80.466" y="365.673" fill="#C0DDE7" width="281.738" height="7.2"/>
</g>
<g>
	<rect x="80.466" y="379.587" fill="#C0DDE7" width="281.738" height="7.199"/>
</g>
<g>
	<rect x="80.466" y="393.501" fill="#C0DDE7" width="281.738" height="7.199"/>
</g>
<g>
	<rect x="80.466" y="407.414" fill="#C0DDE7" width="281.738" height="7.199"/>
</g>
<g>
	<rect x="80.466" y="421.328" fill="#C0DDE7" width="281.738" height="7.2"/>
</g>
<g>
	<rect x="80.466" y="435.242" fill="#C0DDE7" width="281.738" height="7.2"/>
</g>
<g>
	<rect x="80.466" y="449.156" fill="#C0DDE7" width="281.738" height="7.199"/>
</g>
<g>
	<rect x="80.466" y="463.07" fill="#C0DDE7" width="281.738" height="7.199"/>
</g>
<g>
	<rect x="80.466" y="476.982" fill="#C0DDE7" width="281.738" height="7.201"/>
</g>
<g>
	<rect x="80.466" y="59.568" fill="#C0DDE7" width="281.738" height="7.2"/>
</g>
<g>
	<rect x="80.466" y="73.482" fill="#C0DDE7" width="281.738" height="7.2"/>
</g>
<g>
	<rect x="80.466" y="143.052" fill="#C0DDE7" width="281.738" height="7.2"/>
</g>
<g>
	<rect x="80.466" y="170.879" fill="#C0DDE7" width="281.738" height="7.201"/>
</g>
<g>
	<rect x="80.466" y="87.396" fill="#C0DDE7" width="281.738" height="7.199"/>
</g>
<g>
	<rect x="80.466" y="101.311" fill="#C0DDE7" width="281.738" height="7.2"/>
</g>
<g>
	<rect x="80.466" y="115.225" fill="#C0DDE7" width="281.738" height="7.199"/>
</g>
<g>
	<rect x="80.466" y="129.139" fill="#C0DDE7" width="281.738" height="7.198"/>
</g>
<g>
	<g>
		<polygon fill="#7C5904" points="218.64,80.683 80.57,80.683 80.57,73.482 218.64,73.482 222.789,77.084 		"/>
	</g>
	<g>
		<polygon fill="#7C5904" points="224.03,73.482 362.101,73.482 362.101,80.683 224.03,80.683 228.179,77.084 		"/>
	</g>
</g>
<g>
	<g>
		<polygon fill="#7C5904" points="218.64,66.768 80.57,66.768 80.57,59.568 218.64,59.568 222.789,63.169 		"/>
	</g>
	<g>
		<polygon fill="#7C5904" points="224.03,59.568 362.101,59.568 362.101,66.768 224.03,66.768 228.179,63.169 		"/>
	</g>
</g>
<g>
	<g>
		<polygon fill="#7C5904" points="218.64,94.596 80.57,94.596 80.57,87.396 218.64,87.396 222.789,90.996 		"/>
	</g>
	<g>
		<polygon fill="#7C5904" points="224.03,87.396 362.101,87.396 362.101,94.596 224.03,94.596 228.179,90.996 		"/>
	</g>
</g>
<g>
	<g>
		<polygon fill="#7C5904" points="218.64,108.511 80.57,108.511 80.57,101.312 218.64,101.312 222.789,104.91 		"/>
	</g>
	<g>
		<polygon fill="#7C5904" points="224.03,101.312 362.101,101.312 362.101,108.511 224.03,108.511 228.179,104.91 		"/>
	</g>
</g>
<g>
	<g>
		<polygon fill="#7C5904" points="218.64,122.424 80.57,122.424 80.57,115.223 218.64,115.223 222.789,118.822 		"/>
	</g>
	<g>
		<polygon fill="#7C5904" points="224.03,115.223 362.101,115.223 362.101,122.424 224.03,122.424 228.179,118.822 		"/>
	</g>
</g>
<g>
	<g>
		<polygon fill="#7C5904" points="218.64,136.337 80.57,136.337 80.57,129.137 218.64,129.137 222.789,132.736 		"/>
	</g>
	<g>
		<polygon fill="#7C5904" points="224.03,129.137 362.101,129.137 362.101,136.337 224.03,136.337 228.179,132.736 		"/>
	</g>
</g>
<g>
	<path fill="#398EB0" d="M67.803,175.117h1.696l-0.764-2.448h-5.233l-0.764,2.448h1.797v3.077h-6.458v-3.077h1.269l4.638-13.948
		h4.503l4.537,13.948h1.235v3.077h-6.458V175.117z M64.389,169.794h3.437l-1.729-5.537L64.389,169.794z"/>
</g>
<g>
	<rect x="80.466" y="156.966" fill="#C0DDE7" width="281.738" height="7.2"/>
</g>
<g>
	<g>
		<polygon fill="#7C5904" points="218.64,178.08 80.57,178.08 80.57,170.881 218.64,170.881 222.789,174.48 		"/>
	</g>
	<g>
		<polygon fill="#7C5904" points="224.03,170.881 362.101,170.881 362.101,178.08 224.03,178.08 228.179,174.48 		"/>
	</g>
</g>
<g>
	<g>
		<polygon fill="#7C5904" points="218.64,247.648 80.57,247.648 80.57,240.449 218.64,240.449 222.789,244.049 		"/>
	</g>
	<g>
		<polygon fill="#7C5904" points="224.03,240.449 362.101,240.449 362.101,247.648 224.03,247.648 228.179,244.049 		"/>
	</g>
</g>
<g>
	<g>
		<polygon fill="#7C5904" points="218.64,261.562 80.57,261.562 80.57,254.363 218.64,254.363 222.789,257.963 		"/>
	</g>
	<g>
		<polygon fill="#7C5904" points="224.03,254.363 362.101,254.363 362.101,261.562 224.03,261.562 228.179,257.963 		"/>
	</g>
</g>
<g>
	<g>
		<polygon fill="#7C5904" points="218.64,191.994 80.57,191.994 80.57,184.794 218.64,184.794 222.789,188.394 		"/>
	</g>
	<g>
		<polygon fill="#7C5904" points="224.03,184.794 362.101,184.794 362.101,191.994 224.03,191.994 228.179,188.394 		"/>
	</g>
</g>
<g>
	<g>
		<polygon fill="#7C5904" points="218.64,205.908 80.57,205.908 80.57,198.709 218.64,198.709 222.789,202.307 		"/>
	</g>
	<g>
		<polygon fill="#7C5904" points="224.03,198.709 362.101,198.709 362.101,205.908 224.03,205.908 228.179,202.307 		"/>
	</g>
</g>
<g>
	<g>
		<polygon fill="#7C5904" points="218.64,219.821 80.57,219.821 80.57,212.622 218.64,212.622 222.789,216.221 		"/>
	</g>
	<g>
		<polygon fill="#7C5904" points="224.03,212.622 362.101,212.622 362.101,219.821 224.03,219.821 228.179,216.221 		"/>
	</g>
</g>
<g>
	<g>
		<polygon fill="#7C5904" points="218.64,233.736 80.57,233.736 80.57,226.535 218.64,226.535 222.789,230.135 		"/>
	</g>
	<g>
		<polygon fill="#7C5904" points="224.03,226.535 362.101,226.535 362.101,233.736 224.03,233.736 228.179,230.135 		"/>
	</g>
</g>
<g>
	<g>
		<g>
			<polygon fill="#7C5904" points="218.64,414.479 80.57,414.479 80.57,407.279 218.64,407.279 222.789,410.877 			"/>
		</g>
		<g>
			<polygon fill="#7C5904" points="224.03,407.279 362.101,407.279 362.101,414.479 224.03,414.479 228.179,410.877 			"/>
		</g>
	</g>
	<g>
		<g>
			<polygon fill="#7C5904" points="218.64,400.701 80.57,400.701 80.57,393.502 218.64,393.502 222.789,397.102 			"/>
		</g>
		<g>
			<polygon fill="#7C5904" points="224.03,393.502 362.101,393.502 362.101,400.701 224.03,400.701 228.179,397.102 			"/>
		</g>
	</g>
	<g>
		<g>
			<polygon fill="#7C5904" points="218.64,428.412 80.57,428.412 80.57,421.213 218.64,421.213 222.789,424.812 			"/>
		</g>
		<g>
			<polygon fill="#7C5904" points="224.03,421.213 362.101,421.213 362.101,428.412 224.03,428.412 228.179,424.812 			"/>
		</g>
	</g>
	<g>
		<g>
			<polygon fill="#7C5904" points="218.64,442.346 80.57,442.346 80.57,435.146 218.64,435.146 222.789,438.744 			"/>
		</g>
		<g>
			<polygon fill="#7C5904" points="224.03,435.146 362.101,435.146 362.101,442.346 224.03,442.346 228.179,438.744 			"/>
		</g>
	</g>
	<g>
		<g>
			<polygon fill="#7C5904" points="218.64,456.279 80.57,456.279 80.57,449.08 218.64,449.08 222.789,452.68 			"/>
		</g>
		<g>
			<polygon fill="#7C5904" points="224.03,449.08 362.101,449.08 362.101,456.279 224.03,456.279 228.179,452.68 			"/>
		</g>
	</g>
	<g>
		<g>
			<polygon fill="#7C5904" points="218.64,470.215 80.57,470.215 80.57,463.014 218.64,463.014 222.789,466.613 			"/>
		</g>
		<g>
			<polygon fill="#7C5904" points="224.03,463.014 362.101,463.014 362.101,470.215 224.03,470.215 228.179,466.613 			"/>
		</g>
	</g>
	<g>
		<g>
			<polygon fill="#7C5904" points="218.64,484.184 80.57,484.184 80.57,476.984 218.64,476.984 222.789,480.584 			"/>
		</g>
		<g>
			<polygon fill="#7C5904" points="224.03,476.984 362.101,476.984 362.101,484.184 224.03,484.184 228.179,480.584 			"/>
		</g>
	</g>
	<g>
		<path fill="#398EB0" d="M65.299,401.318c-0.771,0-1.509-0.104-2.212-0.314c-0.704-0.209-1.361-0.505-1.971-0.887
			c-0.61-0.382-1.165-0.841-1.662-1.376c-0.498-0.535-0.923-1.13-1.275-1.785s-0.625-1.357-0.82-2.106
			c-0.195-0.748-0.292-1.53-0.292-2.347s0.097-1.601,0.292-2.353c0.195-0.753,0.468-1.456,0.82-2.111s0.777-1.251,1.275-1.786
			c0.498-0.535,1.052-0.993,1.662-1.376c0.61-0.381,1.267-0.677,1.971-0.887s1.441-0.314,2.212-0.314s1.51,0.104,2.218,0.314
			c0.707,0.21,1.366,0.506,1.977,0.887c0.61,0.383,1.164,0.841,1.662,1.376c0.498,0.535,0.924,1.131,1.28,1.786
			c0.355,0.655,0.63,1.358,0.825,2.111c0.195,0.752,0.292,1.536,0.292,2.353c0,0.809-0.097,1.589-0.292,2.342
			c-0.195,0.752-0.47,1.456-0.825,2.111c-0.356,0.655-0.783,1.25-1.28,1.785c-0.498,0.535-1.052,0.994-1.662,1.376
			c-0.61,0.382-1.27,0.678-1.977,0.887C66.809,401.214,66.07,401.318,65.299,401.318z M65.299,397.793
			c0.651,0,1.249-0.141,1.792-0.422c0.542-0.28,1.009-0.662,1.398-1.146c0.389-0.482,0.691-1.044,0.904-1.685
			c0.214-0.64,0.32-1.319,0.32-2.038c0-0.727-0.108-1.411-0.326-2.056c-0.217-0.644-0.522-1.207-0.916-1.689
			c-0.393-0.483-0.859-0.865-1.398-1.146c-0.539-0.281-1.13-0.421-1.774-0.421s-1.235,0.14-1.774,0.421
			c-0.539,0.28-1.003,0.662-1.393,1.146c-0.389,0.482-0.694,1.046-0.916,1.689c-0.221,0.645-0.331,1.329-0.331,2.056
			c0,0.719,0.11,1.398,0.331,2.038c0.221,0.641,0.526,1.202,0.916,1.685c0.389,0.483,0.854,0.865,1.393,1.146
			C64.063,397.652,64.655,397.793,65.299,397.793z"/>
	</g>
</g>
<g>
	<g>
		<g>
			<polygon fill="#7C5904" points="218.64,303.203 80.57,303.203 80.57,296.004 218.64,296.004 222.789,299.604 			"/>
		</g>
		<g>
			<polygon fill="#7C5904" points="224.03,296.004 362.101,296.004 362.101,303.203 224.03,303.203 228.179,299.604 			"/>
		</g>
	</g>
	<g>
		<g>
			<polygon fill="#7C5904" points="218.64,289.117 80.57,289.117 80.57,281.918 218.64,281.918 222.789,285.518 			"/>
		</g>
		<g>
			<polygon fill="#7C5904" points="224.03,281.918 362.101,281.918 362.101,289.117 224.03,289.117 228.179,285.518 			"/>
		</g>
	</g>
	<g>
		<g>
			<polygon fill="#7C5904" points="218.64,372.873 80.57,372.873 80.57,365.676 218.64,365.676 222.789,369.273 			"/>
		</g>
		<g>
			<polygon fill="#7C5904" points="224.03,365.676 362.101,365.676 362.101,372.873 224.03,372.873 228.179,369.273 			"/>
		</g>
	</g>
	<g>
		<g>
			<polygon fill="#7C5904" points="218.64,317.139 80.57,317.139 80.57,309.938 218.64,309.938 222.789,313.539 			"/>
		</g>
		<g>
			<polygon fill="#7C5904" points="224.03,309.938 362.101,309.938 362.101,317.139 224.03,317.139 228.179,313.539 			"/>
		</g>
	</g>
	<g>
		<g>
			<polygon fill="#7C5904" points="218.64,331.072 80.57,331.072 80.57,323.873 218.64,323.873 222.789,327.471 			"/>
		</g>
		<g>
			<polygon fill="#7C5904" points="224.03,323.873 362.101,323.873 362.101,331.072 224.03,331.072 228.179,327.471 			"/>
		</g>
	</g>
	<g>
		<g>
			<polygon fill="#7C5904" points="218.64,345.006 80.57,345.006 80.57,337.807 218.64,337.807 222.789,341.406 			"/>
		</g>
		<g>
			<polygon fill="#7C5904" points="224.03,337.807 362.101,337.807 362.101,345.006 224.03,345.006 228.179,341.406 			"/>
		</g>
	</g>
	<g>
		<g>
			<polygon fill="#7C5904" points="218.64,358.941 80.57,358.941 80.57,351.74 218.64,351.74 222.789,355.34 			"/>
		</g>
		<g>
			<polygon fill="#7C5904" points="224.03,351.74 362.101,351.74 362.101,358.941 224.03,358.941 228.179,355.34 			"/>
		</g>
	</g>
	<g>
		<path fill="#C63706" d="M69.993,276.763c-0.038-0.262-0.129-0.509-0.275-0.74c-0.146-0.232-0.333-0.433-0.562-0.602
			c-0.228-0.168-0.486-0.301-0.774-0.398c-0.289-0.098-0.59-0.146-0.904-0.146c-0.285,0-0.55,0.03-0.797,0.09
			c-0.247,0.061-0.462,0.152-0.646,0.275c-0.183,0.124-0.329,0.283-0.438,0.478c-0.109,0.194-0.163,0.427-0.163,0.696
			c0,0.337,0.073,0.604,0.219,0.803c0.146,0.198,0.333,0.361,0.562,0.488c0.229,0.128,0.481,0.229,0.758,0.304
			s0.546,0.157,0.809,0.247l3.088,1.033c0.427,0.149,0.827,0.355,1.202,0.617c0.375,0.263,0.698,0.581,0.971,0.955
			c0.273,0.374,0.489,0.805,0.646,1.291c0.157,0.487,0.236,1.033,0.236,1.641c0,0.823-0.151,1.575-0.455,2.257
			c-0.303,0.682-0.728,1.266-1.274,1.752s-1.202,0.864-1.965,1.134s-1.61,0.404-2.538,0.404c-0.651,0-1.267-0.072-1.847-0.219
			c-0.581-0.146-1.11-0.357-1.589-0.635c-0.479-0.276-0.898-0.607-1.258-0.993s-0.64-0.822-0.842-1.309h-1.157v-3.38h4.065v0.695
			c0,0.338,0.054,0.648,0.163,0.933c0.109,0.284,0.271,0.531,0.489,0.741s0.49,0.372,0.82,0.488s0.715,0.174,1.157,0.174
			c0.674,0,1.187-0.155,1.539-0.466s0.528-0.743,0.528-1.297c0-0.284-0.062-0.522-0.185-0.713c-0.124-0.191-0.283-0.353-0.478-0.483
			s-0.412-0.241-0.651-0.331s-0.476-0.172-0.708-0.247l-2.572-0.831c-0.487-0.149-0.957-0.359-1.409-0.629
			c-0.453-0.27-0.854-0.606-1.202-1.011c-0.348-0.404-0.625-0.878-0.831-1.421c-0.206-0.543-0.309-1.162-0.309-1.858
			c0-0.809,0.15-1.529,0.449-2.162s0.719-1.166,1.258-1.6c0.539-0.435,1.179-0.764,1.92-0.988s1.554-0.338,2.437-0.338
			c0.696,0,1.34,0.081,1.932,0.242s1.121,0.376,1.589,0.646c0.468,0.27,0.865,0.578,1.19,0.927c0.326,0.348,0.575,0.709,0.747,1.084
			h1.123v3.391h-4.065V276.763z"/>
	</g>
</g>
<g>
	<path fill="#398EB0" d="M69.604,77.163c-0.451-0.123-0.876-0.305-1.274-0.545s-0.747-0.537-1.046-0.893
		c-0.299-0.354-0.536-0.764-0.712-1.23c-0.176-0.465-0.264-0.988-0.264-1.568c0-0.615,0.123-1.191,0.369-1.727
		c0.246-0.537,0.595-1.004,1.046-1.402s0.996-0.712,1.635-0.94s1.351-0.343,2.136-0.343h6.012v2.417h-1.239v14.089h-2.575V70.932
		h-1.512v14.089h-2.575V77.163z"/>
</g>
</svg>
