<?xml version="1.0" encoding="utf-8"?>
<!-- Generator: Adobe Illustrator 16.0.4, SVG Export Plug-In . SVG Version: 6.00 Build 0)  -->
<!DOCTYPE svg PUBLIC "-//W3C//DTD SVG 1.1//EN" "http://www.w3.org/Graphics/SVG/1.1/DTD/svg11.dtd">
<svg version="1.1" id="Layer_1" xmlns="http://www.w3.org/2000/svg" xmlns:xlink="http://www.w3.org/1999/xlink" x="0px" y="0px"
	 width="448.747px" height="616.439px" viewBox="0 0 448.747 616.439" enable-background="new 0 0 448.747 616.439"
	 xml:space="preserve">
<rect x="0.5" y="0.5" fill="#FFFFFF" stroke="#C68D06" stroke-miterlimit="10" width="447.747" height="615.439"/>
<g>
	<path fill="#C68D06" d="M339.137,578.218l1.785-1.436c1.575,2.275,3.641,3.921,6.721,3.921c4.445,0,6.476-3.291,6.476-6.791
		c0-4.2-2.485-6.44-5.916-6.44c-2.66,0-4.48,1.189-5.915,3.255l-1.855-0.7l1.016-13.546h13.686l-0.21,2.274h-11.411l-0.699,8.996
		c1.26-1.47,2.975-2.415,5.74-2.415c4.69,0,8.016,3.29,8.016,8.471s-3.396,9.066-8.891,9.066
		C343.932,582.873,340.887,580.982,339.137,578.218z"/>
	<path fill="#C68D06" d="M375.257,576.117h-12.461v-1.855l11.796-17.781h3.046v17.432h4.375v2.205h-4.375v6.266h-2.381V576.117z
		 M375.257,573.912v-14.526h-0.069l-9.592,14.526H375.257z"/>
	<path fill="#C68D06" d="M387.61,556.48h2.556l7.735,22.612h0.07l7.771-22.612h2.416l-9.102,26.008h-2.345L387.61,556.48z"/>
</g>
<g>
	<rect x="79.217" y="158.216" fill="#C0DDE7" width="281.738" height="7.199"/>
</g>
<g>
	<rect x="79.217" y="172.129" fill="#C0DDE7" width="281.738" height="7.199"/>
</g>
<g>
	<rect x="79.217" y="186.043" fill="#C0DDE7" width="281.738" height="7.2"/>
</g>
<g>
	<rect x="79.217" y="199.957" fill="#C0DDE7" width="281.738" height="7.199"/>
</g>
<g>
	<rect x="79.217" y="213.871" fill="#C0DDE7" width="281.738" height="7.199"/>
</g>
<g>
	<rect x="79.217" y="227.785" fill="#C0DDE7" width="281.738" height="7.199"/>
</g>
<g>
	<rect x="79.217" y="241.699" fill="#C0DDE7" width="281.738" height="7.199"/>
</g>
<g>
	<rect x="79.217" y="255.611" fill="#C0DDE7" width="281.738" height="7.201"/>
</g>
<g>
	<rect x="79.217" y="269.526" fill="#C0DDE7" width="281.738" height="7.199"/>
</g>
<g>
	<rect x="79.217" y="283.439" fill="#C0DDE7" width="281.738" height="7.201"/>
</g>
<g>
	<rect x="79.217" y="297.354" fill="#C0DDE7" width="281.738" height="7.2"/>
</g>
<g>
	<rect x="79.217" y="311.268" fill="#C0DDE7" width="281.738" height="7.2"/>
</g>
<g>
	<rect x="79.217" y="325.182" fill="#C0DDE7" width="281.738" height="7.199"/>
</g>
<g>
	<rect x="79.217" y="339.096" fill="#C0DDE7" width="281.738" height="7.199"/>
</g>
<g>
	<rect x="79.217" y="353.009" fill="#C0DDE7" width="281.738" height="7.201"/>
</g>
<g>
	<rect x="79.217" y="366.923" fill="#C0DDE7" width="281.738" height="7.2"/>
</g>
<g>
	<rect x="79.217" y="380.837" fill="#C0DDE7" width="281.738" height="7.199"/>
</g>
<g>
	<rect x="79.217" y="394.751" fill="#C0DDE7" width="281.738" height="7.199"/>
</g>
<g>
	<rect x="79.217" y="408.664" fill="#C0DDE7" width="281.738" height="7.199"/>
</g>
<g>
	<rect x="79.217" y="422.578" fill="#C0DDE7" width="281.738" height="7.2"/>
</g>
<g>
	<rect x="79.217" y="436.492" fill="#C0DDE7" width="281.738" height="7.199"/>
</g>
<g>
	<rect x="79.217" y="450.406" fill="#C0DDE7" width="281.738" height="7.199"/>
</g>
<g>
	<rect x="79.217" y="464.32" fill="#C0DDE7" width="281.738" height="7.199"/>
</g>
<g>
	<rect x="79.217" y="478.233" fill="#C0DDE7" width="281.738" height="7.2"/>
</g>
<g>
	<rect x="79.217" y="60.818" fill="#C0DDE7" width="281.738" height="7.2"/>
</g>
<g>
	<rect x="79.217" y="74.732" fill="#C0DDE7" width="281.738" height="7.2"/>
</g>
<g>
	<rect x="79.217" y="144.302" fill="#C0DDE7" width="281.738" height="7.2"/>
</g>
<g>
	<rect x="79.217" y="88.646" fill="#C0DDE7" width="281.738" height="7.199"/>
</g>
<g>
	<rect x="79.217" y="102.561" fill="#C0DDE7" width="281.738" height="7.2"/>
</g>
<g>
	<rect x="79.217" y="116.475" fill="#C0DDE7" width="281.738" height="7.199"/>
</g>
<g>
	<rect x="79.217" y="130.389" fill="#C0DDE7" width="281.738" height="7.198"/>
</g>
<g>
	<path fill="#C63706" d="M68.238,56.088c-0.419-0.6-0.797-1.025-1.134-1.275c-0.337-0.252-0.7-0.432-1.089-0.539
		c-0.389-0.109-0.797-0.162-1.224-0.162c-0.629,0-1.213,0.139-1.752,0.42s-1.005,0.662-1.398,1.146
		c-0.394,0.482-0.702,1.043-0.927,1.684s-0.337,1.32-0.337,2.039c0,0.727,0.11,1.408,0.331,2.049
		c0.221,0.641,0.526,1.199,0.916,1.68c0.389,0.479,0.854,0.859,1.393,1.139c0.539,0.281,1.13,0.422,1.774,0.422
		c0.449,0,0.869-0.072,1.258-0.219s0.743-0.34,1.061-0.578c0.318-0.24,0.597-0.516,0.837-0.826s0.427-0.635,0.562-0.971l3.616,1.01
		c-0.232,0.734-0.573,1.414-1.022,2.039s-0.99,1.166-1.623,1.623c-0.633,0.457-1.344,0.816-2.134,1.078
		c-0.79,0.262-1.642,0.393-2.555,0.393c-0.771,0-1.509-0.105-2.212-0.314s-1.361-0.506-1.971-0.887
		c-0.61-0.383-1.165-0.842-1.662-1.381c-0.498-0.539-0.923-1.137-1.275-1.793c-0.352-0.654-0.625-1.357-0.82-2.111
		C56.656,61,56.559,60.217,56.559,59.4c0-1.221,0.213-2.365,0.64-3.432s1.011-1.998,1.752-2.797
		c0.741-0.797,1.612-1.426,2.611-1.887c1-0.459,2.076-0.689,3.229-0.689c0.921,0,1.696,0.113,2.325,0.342s1.321,0.68,2.078,1.354
		h2.516v3.797H68.238z"/>
</g>
<g>
	<g>
		<polygon fill="#7C5904" points="217.39,109.761 79.32,109.761 79.32,102.562 217.39,102.562 221.539,106.16 		"/>
	</g>
	<g>
		<polygon fill="#7C5904" points="222.781,102.562 360.851,102.562 360.851,109.761 222.781,109.761 226.929,106.16 		"/>
	</g>
</g>
<g>
	<g>
		<polygon fill="#7C5904" points="217.39,68.018 79.32,68.018 79.32,60.818 217.39,60.818 221.539,64.417 		"/>
	</g>
	<g>
		<polygon fill="#7C5904" points="222.781,60.818 360.851,60.818 360.851,68.018 222.781,68.018 226.929,64.417 		"/>
	</g>
</g>
<g>
	<g>
		<polygon fill="#7C5904" points="217.39,123.674 79.32,123.674 79.32,116.473 217.39,116.473 221.539,120.072 		"/>
	</g>
	<g>
		<polygon fill="#7C5904" points="222.781,116.473 360.851,116.473 360.851,123.674 222.781,123.674 226.929,120.072 		"/>
	</g>
</g>
<g>
	<g>
		<polygon fill="#7C5904" points="217.39,81.933 79.32,81.933 79.32,74.731 217.39,74.731 221.539,78.331 		"/>
	</g>
	<g>
		<polygon fill="#7C5904" points="222.781,74.731 360.851,74.731 360.851,81.933 222.781,81.933 226.929,78.331 		"/>
	</g>
</g>
<g>
	<g>
		<polygon fill="#7C5904" points="265.387,95.846 175.705,95.846 179.855,92.246 175.705,88.646 265.387,88.646 269.537,92.246 		
			"/>
	</g>
	<g>
		<polygon fill="#7C5904" points="168.898,95.846 79.217,95.846 79.217,88.646 168.898,88.646 173.047,92.246 		"/>
	</g>
	<g>
		<polygon fill="#7C5904" points="271.13,88.646 360.812,88.646 360.812,95.846 271.13,95.846 275.279,92.246 		"/>
	</g>
</g>
<g>
	<g>
		<g>
			<polygon fill="#7C5904" points="217.39,137.587 79.32,137.587 79.32,130.388 217.39,130.388 221.539,133.986 			"/>
		</g>
		<g>
			<polygon fill="#7C5904" points="222.781,130.388 360.851,130.388 360.851,137.587 222.781,137.587 226.929,133.986 			"/>
		</g>
	</g>
	<g>
		<g>
			<polygon fill="#7C5904" points="217.39,151.502 79.32,151.502 79.32,144.301 217.39,144.301 221.539,147.9 			"/>
		</g>
		<g>
			<polygon fill="#7C5904" points="222.781,144.301 360.851,144.301 360.851,151.502 222.781,151.502 226.929,147.9 			"/>
		</g>
	</g>
	<g>
		<g>
			<polygon fill="#7C5904" points="217.39,179.332 79.32,179.332 79.32,172.133 217.39,172.133 221.539,175.73 			"/>
		</g>
		<g>
			<polygon fill="#7C5904" points="222.781,172.133 360.851,172.133 360.851,179.332 222.781,179.332 226.929,175.73 			"/>
		</g>
	</g>
	<g>
		<g>
			<polygon fill="#7C5904" points="217.39,193.244 79.32,193.244 79.32,186.044 217.39,186.044 221.539,189.644 			"/>
		</g>
		<g>
			<polygon fill="#7C5904" points="222.781,186.044 360.851,186.044 360.851,193.244 222.781,193.244 226.929,189.644 			"/>
		</g>
	</g>
	<g>
		<g>
			<polygon fill="#7C5904" points="265.387,165.416 175.705,165.416 179.855,161.816 175.705,158.217 265.387,158.217 
				269.537,161.816 			"/>
		</g>
		<g>
			<polygon fill="#7C5904" points="168.898,165.416 79.217,165.416 79.217,158.217 168.898,158.217 173.047,161.816 			"/>
		</g>
		<g>
			<polygon fill="#7C5904" points="271.13,158.217 360.812,158.217 360.812,165.416 271.13,165.416 275.279,161.816 			"/>
		</g>
	</g>
	<g>
		<path fill="#398EB0" d="M69.356,134.727c-0.451-0.123-0.876-0.305-1.274-0.545s-0.747-0.537-1.046-0.893
			c-0.299-0.354-0.536-0.764-0.712-1.23c-0.176-0.465-0.264-0.988-0.264-1.568c0-0.615,0.123-1.191,0.369-1.727
			c0.246-0.537,0.595-1.004,1.046-1.402s0.996-0.713,1.635-0.941s1.351-0.342,2.136-0.342h6.012v2.416h-1.239v14.09h-2.575v-14.09
			h-1.512v14.09h-2.575V134.727z"/>
	</g>
</g>
<g>
	<g>
		<g>
			<polygon fill="#7C5904" points="217.39,207.154 79.32,207.154 79.32,199.955 217.39,199.955 221.539,203.555 			"/>
		</g>
		<g>
			<polygon fill="#7C5904" points="222.781,199.955 360.851,199.955 360.851,207.154 222.781,207.154 226.929,203.555 			"/>
		</g>
	</g>
	<g>
		<g>
			<polygon fill="#7C5904" points="217.39,221.07 79.32,221.07 79.32,213.869 217.39,213.869 221.539,217.469 			"/>
		</g>
		<g>
			<polygon fill="#7C5904" points="222.781,213.869 360.851,213.869 360.851,221.07 222.781,221.07 226.929,217.469 			"/>
		</g>
	</g>
	<g>
		<g>
			<polygon fill="#7C5904" points="217.39,248.9 79.32,248.9 79.32,241.701 217.39,241.701 221.539,245.299 			"/>
		</g>
		<g>
			<polygon fill="#7C5904" points="222.781,241.701 360.851,241.701 360.851,248.9 222.781,248.9 226.929,245.299 			"/>
		</g>
	</g>
	<g>
		<g>
			<polygon fill="#7C5904" points="217.39,262.812 79.32,262.812 79.32,255.611 217.39,255.611 221.539,259.211 			"/>
		</g>
		<g>
			<polygon fill="#7C5904" points="222.781,255.611 360.851,255.611 360.851,262.812 222.781,262.812 226.929,259.211 			"/>
		</g>
	</g>
	<g>
		<g>
			<polygon fill="#7C5904" points="265.387,234.984 175.705,234.984 179.855,231.385 175.705,227.785 265.387,227.785 
				269.537,231.385 			"/>
		</g>
		<g>
			<polygon fill="#7C5904" points="168.898,234.984 79.217,234.984 79.217,227.785 168.898,227.785 173.047,231.385 			"/>
		</g>
		<g>
			<polygon fill="#7C5904" points="271.13,227.785 360.812,227.785 360.812,234.984 271.13,234.984 275.279,231.385 			"/>
		</g>
	</g>
	<g>
		<path fill="#C63706" d="M69.356,204.294c-0.451-0.123-0.876-0.305-1.274-0.545s-0.747-0.537-1.046-0.893
			c-0.299-0.354-0.536-0.764-0.712-1.23c-0.176-0.465-0.264-0.988-0.264-1.568c0-0.615,0.123-1.191,0.369-1.727
			c0.246-0.537,0.595-1.004,1.046-1.402s0.996-0.712,1.635-0.94s1.351-0.343,2.136-0.343h6.012v2.417h-1.239v14.089h-2.575v-14.089
			h-1.512v14.089h-2.575V204.294z"/>
	</g>
</g>
<g>
	<g>
		<g>
			<polygon fill="#7C5904" points="217.39,276.723 79.32,276.723 79.32,269.523 217.39,269.523 221.539,273.123 			"/>
		</g>
		<g>
			<polygon fill="#7C5904" points="222.781,269.523 360.851,269.523 360.851,276.723 222.781,276.723 226.929,273.123 			"/>
		</g>
	</g>
	<g>
		<g>
			<polygon fill="#7C5904" points="217.39,290.639 79.32,290.639 79.32,283.438 217.39,283.438 221.539,287.037 			"/>
		</g>
		<g>
			<polygon fill="#7C5904" points="222.781,283.438 360.851,283.438 360.851,290.639 222.781,290.639 226.929,287.037 			"/>
		</g>
	</g>
	<g>
		<g>
			<polygon fill="#7C5904" points="217.39,318.469 79.32,318.469 79.32,311.27 217.39,311.27 221.539,314.867 			"/>
		</g>
		<g>
			<polygon fill="#7C5904" points="222.781,311.27 360.851,311.27 360.851,318.469 222.781,318.469 226.929,314.867 			"/>
		</g>
	</g>
	<g>
		<g>
			<polygon fill="#7C5904" points="217.39,332.381 79.32,332.381 79.32,325.18 217.39,325.18 221.539,328.779 			"/>
		</g>
		<g>
			<polygon fill="#7C5904" points="222.781,325.18 360.851,325.18 360.851,332.381 222.781,332.381 226.929,328.779 			"/>
		</g>
	</g>
	<g>
		<g>
			<polygon fill="#7C5904" points="265.387,304.553 175.705,304.553 179.855,300.953 175.705,297.354 265.387,297.354 
				269.537,300.953 			"/>
		</g>
		<g>
			<polygon fill="#7C5904" points="168.898,304.553 79.217,304.553 79.217,297.354 168.898,297.354 173.047,300.953 			"/>
		</g>
		<g>
			<polygon fill="#7C5904" points="271.13,297.354 360.812,297.354 360.812,304.553 271.13,304.553 275.279,300.953 			"/>
		</g>
	</g>
	<g>
		<path fill="#398EB0" d="M69.356,273.862c-0.451-0.123-0.876-0.305-1.274-0.545s-0.747-0.537-1.046-0.893
			c-0.299-0.354-0.536-0.764-0.712-1.23c-0.176-0.465-0.264-0.988-0.264-1.568c0-0.615,0.123-1.191,0.369-1.727
			c0.246-0.537,0.595-1.004,1.046-1.402s0.996-0.712,1.635-0.94s1.351-0.343,2.136-0.343h6.012v2.417h-1.239v14.089h-2.575v-14.089
			h-1.512v14.089h-2.575V273.862z"/>
	</g>
</g>
<g>
	<g>
		<g>
			<polygon fill="#7C5904" points="217.39,346.292 79.32,346.292 79.32,339.093 217.39,339.093 221.539,342.692 			"/>
		</g>
		<g>
			<polygon fill="#7C5904" points="222.781,339.093 360.851,339.093 360.851,346.292 222.781,346.292 226.929,342.692 			"/>
		</g>
	</g>
	<g>
		<g>
			<polygon fill="#7C5904" points="217.39,360.208 79.32,360.208 79.32,353.007 217.39,353.007 221.539,356.606 			"/>
		</g>
		<g>
			<polygon fill="#7C5904" points="222.781,353.007 360.851,353.007 360.851,360.208 222.781,360.208 226.929,356.606 			"/>
		</g>
	</g>
	<g>
		<g>
			<polygon fill="#7C5904" points="217.39,388.038 79.32,388.038 79.32,380.839 217.39,380.839 221.539,384.437 			"/>
		</g>
		<g>
			<polygon fill="#7C5904" points="222.781,380.839 360.851,380.839 360.851,388.038 222.781,388.038 226.929,384.437 			"/>
		</g>
	</g>
	<g>
		<g>
			<polygon fill="#7C5904" points="217.39,401.95 79.32,401.95 79.32,394.749 217.39,394.749 221.539,398.349 			"/>
		</g>
		<g>
			<polygon fill="#7C5904" points="222.781,394.749 360.851,394.749 360.851,401.95 222.781,401.95 226.929,398.349 			"/>
		</g>
	</g>
	<g>
		<g>
			<polygon fill="#7C5904" points="265.387,374.122 175.705,374.122 179.855,370.522 175.705,366.923 265.387,366.923 
				269.537,370.522 			"/>
		</g>
		<g>
			<polygon fill="#7C5904" points="168.898,374.122 79.217,374.122 79.217,366.923 168.898,366.923 173.047,370.522 			"/>
		</g>
		<g>
			<polygon fill="#7C5904" points="271.13,366.923 360.812,366.923 360.812,374.122 271.13,374.122 275.279,370.522 			"/>
		</g>
	</g>
	<g>
		<path fill="#C63706" d="M69.356,343.432c-0.451-0.123-0.876-0.305-1.274-0.545s-0.747-0.537-1.046-0.893
			c-0.299-0.354-0.536-0.764-0.712-1.23c-0.176-0.465-0.264-0.988-0.264-1.568c0-0.615,0.123-1.191,0.369-1.727
			c0.246-0.537,0.595-1.004,1.046-1.402s0.996-0.712,1.635-0.94s1.351-0.343,2.136-0.343h6.012v2.417h-1.239v14.089h-2.575V337.2
			h-1.512v14.089h-2.575V343.432z"/>
	</g>
</g>
<g>
	<g>
		<polygon fill="#7C5904" points="217.39,415.861 79.32,415.861 79.32,408.662 217.39,408.662 221.539,412.262 		"/>
	</g>
	<g>
		<polygon fill="#7C5904" points="222.781,408.662 360.851,408.662 360.851,415.861 222.781,415.861 226.929,412.262 		"/>
	</g>
</g>
<g>
	<g>
		<polygon fill="#7C5904" points="217.39,429.777 79.32,429.777 79.32,422.576 217.39,422.576 221.539,426.176 		"/>
	</g>
	<g>
		<polygon fill="#7C5904" points="222.781,422.576 360.851,422.576 360.851,429.777 222.781,429.777 226.929,426.176 		"/>
	</g>
</g>
<g>
	<g>
		<polygon fill="#7C5904" points="217.39,457.607 79.32,457.607 79.32,450.408 217.39,450.408 221.539,454.006 		"/>
	</g>
	<g>
		<polygon fill="#7C5904" points="222.781,450.408 360.851,450.408 360.851,457.607 222.781,457.607 226.929,454.006 		"/>
	</g>
</g>
<g>
	<g>
		<polygon fill="#7C5904" points="217.39,471.52 79.32,471.52 79.32,464.318 217.39,464.318 221.539,467.918 		"/>
	</g>
	<g>
		<polygon fill="#7C5904" points="222.781,464.318 360.851,464.318 360.851,471.52 222.781,471.52 226.929,467.918 		"/>
	</g>
</g>
<g>
	<g>
		<polygon fill="#7C5904" points="217.39,485.434 79.32,485.434 79.32,478.232 217.39,478.232 221.539,481.832 		"/>
	</g>
	<g>
		<polygon fill="#7C5904" points="222.781,478.232 360.851,478.232 360.851,485.434 222.781,485.434 226.929,481.832 		"/>
	</g>
</g>
<g>
	<g>
		<polygon fill="#7C5904" points="265.387,443.691 175.705,443.691 179.855,440.092 175.705,436.492 265.387,436.492 
			269.537,440.092 		"/>
	</g>
	<g>
		<polygon fill="#7C5904" points="168.898,443.691 79.217,443.691 79.217,436.492 168.898,436.492 173.047,440.092 		"/>
	</g>
	<g>
		<polygon fill="#7C5904" points="271.13,436.492 360.812,436.492 360.812,443.691 271.13,443.691 275.279,440.092 		"/>
	</g>
</g>
<g>
	<path fill="#398EB0" d="M69.356,413c-0.451-0.123-0.876-0.305-1.274-0.545s-0.747-0.537-1.046-0.893
		c-0.299-0.354-0.536-0.764-0.712-1.23c-0.176-0.465-0.264-0.988-0.264-1.568c0-0.615,0.123-1.191,0.369-1.727
		c0.246-0.537,0.595-1.004,1.046-1.402s0.996-0.711,1.635-0.939s1.351-0.344,2.136-0.344h6.012v2.418h-1.239v14.088h-2.575V406.77
		h-1.512v14.088h-2.575V413z"/>
</g>
<g>
	<path fill="#C63706" d="M69.356,482.5c-0.451-0.123-0.876-0.305-1.274-0.545s-0.747-0.537-1.046-0.893
		c-0.299-0.354-0.536-0.764-0.712-1.23c-0.176-0.465-0.264-0.988-0.264-1.568c0-0.615,0.123-1.191,0.369-1.727
		c0.246-0.537,0.595-1.004,1.046-1.402s0.996-0.711,1.635-0.939s1.351-0.344,2.136-0.344h6.012v2.418h-1.239v14.088h-2.575V476.27
		h-1.512v14.088h-2.575V482.5z"/>
</g>
</svg>
