<?xml version="1.0" encoding="utf-8"?>
<!-- Generator: Adobe Illustrator 16.0.4, SVG Export Plug-In . SVG Version: 6.00 Build 0)  -->
<!DOCTYPE svg PUBLIC "-//W3C//DTD SVG 1.1//EN" "http://www.w3.org/Graphics/SVG/1.1/DTD/svg11.dtd">
<svg version="1.1" id="Layer_1" xmlns="http://www.w3.org/2000/svg" xmlns:xlink="http://www.w3.org/1999/xlink" x="0px" y="0px"
	 width="448.747px" height="616.441px" viewBox="0 0 448.747 616.441" enable-background="new 0 0 448.747 616.441"
	 xml:space="preserve">
<rect x="0.5" y="0.5" fill="#FFFFFF" stroke="#C68D06" stroke-miterlimit="10" width="447.747" height="615.441"/>
<g>
	<path fill="#C68D06" d="M341.727,576.219l1.785-1.436c1.575,2.275,3.641,3.92,6.721,3.92c4.445,0,6.476-3.291,6.476-6.791
		c0-4.199-2.485-6.439-5.916-6.439c-2.66,0-4.48,1.189-5.915,3.254l-1.855-0.699l1.016-13.547h13.686l-0.21,2.275h-11.411
		l-0.699,8.996c1.26-1.471,2.975-2.416,5.74-2.416c4.69,0,8.016,3.291,8.016,8.471c0,5.182-3.396,9.066-8.891,9.066
		C346.521,580.873,343.477,578.982,341.727,576.219z"/>
	<path fill="#C68D06" d="M365.596,576.219l1.785-1.436c1.575,2.275,3.641,3.92,6.721,3.92c4.445,0,6.476-3.291,6.476-6.791
		c0-4.199-2.485-6.439-5.916-6.439c-2.66,0-4.48,1.189-5.915,3.254l-1.855-0.699l1.016-13.547h13.686l-0.21,2.275h-11.411
		l-0.699,8.996c1.26-1.471,2.975-2.416,5.74-2.416c4.69,0,8.016,3.291,8.016,8.471c0,5.182-3.396,9.066-8.891,9.066
		C370.391,580.873,367.346,578.982,365.596,576.219z"/>
	<path fill="#C68D06" d="M389.359,554.48h2.556l7.735,22.613h0.07l7.771-22.613h2.416l-9.102,26.008h-2.345L389.359,554.48z"/>
</g>
<g>
	<rect x="79.884" y="158.719" fill="#C0DDE7" width="281.739" height="7.199"/>
</g>
<g>
	<rect x="79.884" y="172.633" fill="#C0DDE7" width="281.738" height="7.199"/>
</g>
<g>
	<rect x="79.875" y="186.547" fill="#C0DDE7" width="281.739" height="7.199"/>
</g>
<g>
	<rect x="79.884" y="200.461" fill="#C0DDE7" width="281.739" height="7.199"/>
</g>
<g>
	<rect x="79.884" y="214.375" fill="#C0DDE7" width="281.739" height="7.199"/>
</g>
<g>
	<rect x="79.884" y="228.287" fill="#C0DDE7" width="281.739" height="7.201"/>
</g>
<g>
	<rect x="79.884" y="242.203" fill="#C0DDE7" width="281.738" height="7.199"/>
</g>
<g>
	<rect x="79.884" y="256.115" fill="#C0DDE7" width="281.738" height="7.201"/>
</g>
<g>
	<rect x="79.884" y="270.029" fill="#C0DDE7" width="281.739" height="7.199"/>
</g>
<g>
	<rect x="79.884" y="283.943" fill="#C0DDE7" width="281.738" height="7.201"/>
</g>
<g>
	<rect x="79.884" y="297.857" fill="#C0DDE7" width="281.739" height="7.201"/>
</g>
<g>
	<rect x="79.884" y="311.771" fill="#C0DDE7" width="281.739" height="7.199"/>
</g>
<g>
	<rect x="79.884" y="325.686" fill="#C0DDE7" width="281.739" height="7.199"/>
</g>
<g>
	<rect x="79.884" y="339.6" fill="#C0DDE7" width="281.738" height="7.199"/>
</g>
<g>
	<rect x="79.884" y="353.512" fill="#C0DDE7" width="281.739" height="7.201"/>
</g>
<g>
	<rect x="79.884" y="367.426" fill="#C0DDE7" width="281.739" height="7.201"/>
</g>
<g>
	<rect x="79.884" y="381.342" fill="#C0DDE7" width="281.739" height="7.197"/>
</g>
<g>
	<rect x="79.884" y="395.254" fill="#C0DDE7" width="281.739" height="7.199"/>
</g>
<g>
	<rect x="79.884" y="409.168" fill="#C0DDE7" width="281.738" height="7.199"/>
</g>
<g>
	<rect x="79.884" y="423.082" fill="#C0DDE7" width="281.739" height="7.199"/>
</g>
<g>
	<rect x="79.884" y="436.996" fill="#C0DDE7" width="281.738" height="7.199"/>
</g>
<g>
	<rect x="79.884" y="450.91" fill="#C0DDE7" width="281.739" height="7.199"/>
</g>
<g>
	<rect x="79.884" y="464.824" fill="#C0DDE7" width="281.738" height="7.199"/>
</g>
<g>
	<rect x="79.884" y="478.736" fill="#C0DDE7" width="281.739" height="7.201"/>
</g>
<g>
	<rect x="79.884" y="61.322" fill="#C0DDE7" width="281.739" height="7.199"/>
</g>
<g>
	<rect x="79.884" y="75.236" fill="#C0DDE7" width="281.738" height="7.199"/>
</g>
<g>
	<rect x="79.884" y="144.806" fill="#C0DDE7" width="281.738" height="7.198"/>
</g>
<g>
	<rect x="79.884" y="89.15" fill="#C0DDE7" width="281.739" height="7.199"/>
</g>
<g>
	<rect x="79.884" y="103.064" fill="#C0DDE7" width="281.738" height="7.199"/>
</g>
<g>
	<rect x="79.884" y="116.979" fill="#C0DDE7" width="281.738" height="7.199"/>
</g>
<g>
	<rect x="79.884" y="130.893" fill="#C0DDE7" width="281.738" height="7.199"/>
</g>
<g>
	<g>
		<polygon fill="#7C5904" points="218.058,152.004 79.987,152.004 79.987,144.806 218.058,144.806 222.206,148.405 		"/>
	</g>
	<g>
		<polygon fill="#7C5904" points="223.448,144.806 361.519,144.806 361.519,152.004 223.448,152.004 227.596,148.405 		"/>
	</g>
</g>
<g>
	<g>
		<polygon fill="#7C5904" points="218.058,165.918 79.987,165.918 79.987,158.72 218.058,158.72 222.206,162.319 		"/>
	</g>
	<g>
		<polygon fill="#7C5904" points="223.448,158.72 361.519,158.72 361.519,165.918 223.448,165.918 227.596,162.319 		"/>
	</g>
</g>
<g>
	<g>
		<polygon fill="#7C5904" points="218.058,96.35 79.987,96.35 79.987,89.15 218.058,89.15 222.206,92.75 		"/>
	</g>
	<g>
		<polygon fill="#7C5904" points="223.448,89.15 361.519,89.15 361.519,96.35 223.448,96.35 227.596,92.75 		"/>
	</g>
</g>
<g>
	<g>
		<polygon fill="#7C5904" points="218.058,82.436 79.987,82.436 79.987,75.236 218.058,75.236 222.206,78.834 		"/>
	</g>
	<g>
		<polygon fill="#7C5904" points="223.448,75.236 361.519,75.236 361.519,82.436 223.448,82.436 227.596,78.834 		"/>
	</g>
</g>
<g>
	<g>
		<polygon fill="#7C5904" points="218.058,110.264 79.987,110.264 79.987,103.064 218.058,103.064 222.206,106.664 		"/>
	</g>
	<g>
		<polygon fill="#7C5904" points="223.448,103.064 361.519,103.064 361.519,110.264 223.448,110.264 227.596,106.664 		"/>
	</g>
</g>
<g>
	<g>
		<polygon fill="#7C5904" points="218.058,124.178 79.987,124.178 79.987,116.979 218.058,116.979 222.206,120.577 		"/>
	</g>
	<g>
		<polygon fill="#7C5904" points="223.448,116.979 361.519,116.979 361.519,124.178 223.448,124.178 227.596,120.577 		"/>
	</g>
</g>
<g>
	<g>
		<polygon fill="#7C5904" points="218.058,138.092 79.987,138.092 79.987,130.892 218.058,130.892 222.206,134.49 		"/>
	</g>
	<g>
		<polygon fill="#7C5904" points="223.448,130.892 361.519,130.892 361.519,138.092 223.448,138.092 227.596,134.49 		"/>
	</g>
</g>
<g>
	<g>
		<polygon fill="#7C5904" points="218.058,193.746 79.987,193.746 79.987,186.547 218.058,186.547 222.206,190.146 		"/>
	</g>
	<g>
		<polygon fill="#7C5904" points="223.448,186.547 361.519,186.547 361.519,193.746 223.448,193.746 227.596,190.146 		"/>
	</g>
</g>
<g>
	<g>
		<polygon fill="#7C5904" points="218.058,207.66 79.987,207.66 79.987,200.461 218.058,200.461 222.206,204.06 		"/>
	</g>
	<g>
		<polygon fill="#7C5904" points="223.448,200.461 361.519,200.461 361.519,207.66 223.448,207.66 227.596,204.06 		"/>
	</g>
</g>
<g>
	<g>
		<polygon fill="#7C5904" points="218.058,235.486 79.987,235.486 79.987,228.287 218.058,228.287 222.206,231.887 		"/>
	</g>
	<g>
		<polygon fill="#7C5904" points="223.448,228.287 361.519,228.287 361.519,235.486 223.448,235.486 227.596,231.887 		"/>
	</g>
</g>
<g>
	<g>
		<polygon fill="#7C5904" points="218.162,221.574 80.091,221.574 80.091,214.375 218.162,214.375 222.31,217.975 		"/>
	</g>
	<g>
		<polygon fill="#7C5904" points="223.552,214.375 361.623,214.375 361.623,221.574 223.552,221.574 227.7,217.975 		"/>
	</g>
</g>
<g>
	<g>
		<polygon fill="#7C5904" points="218.058,249.402 79.987,249.402 79.987,242.203 218.058,242.203 222.206,245.802 		"/>
	</g>
	<g>
		<polygon fill="#7C5904" points="223.448,242.203 361.519,242.203 361.519,249.402 223.448,249.402 227.596,245.802 		"/>
	</g>
</g>
<g>
	<g>
		<polygon fill="#7C5904" points="218.058,263.314 79.987,263.314 79.987,256.115 218.058,256.115 222.206,259.715 		"/>
	</g>
	<g>
		<polygon fill="#7C5904" points="223.448,256.115 361.519,256.115 361.519,263.314 223.448,263.314 227.596,259.715 		"/>
	</g>
</g>
<g>
	<g>
		<polygon fill="#7C5904" points="217.954,277.229 79.884,277.229 79.884,270.029 217.954,270.029 222.103,273.629 		"/>
	</g>
	<g>
		<polygon fill="#7C5904" points="223.345,270.029 361.415,270.029 361.415,277.229 223.345,277.229 227.492,273.629 		"/>
	</g>
</g>
<g>
	<g>
		<polygon fill="#7C5904" points="217.954,305.057 79.884,305.057 79.884,297.857 217.954,297.857 222.103,301.458 		"/>
	</g>
	<g>
		<polygon fill="#7C5904" points="223.345,297.857 361.415,297.857 361.415,305.057 223.345,305.057 227.492,301.458 		"/>
	</g>
</g>
<g>
	<g>
		<polygon fill="#7C5904" points="217.954,374.627 79.884,374.627 79.884,367.426 217.954,367.426 222.103,371.025 		"/>
	</g>
	<g>
		<polygon fill="#7C5904" points="223.345,367.426 361.415,367.426 361.415,374.627 223.345,374.627 227.492,371.025 		"/>
	</g>
</g>
<g>
	<g>
		<polygon fill="#7C5904" points="217.954,388.539 79.884,388.539 79.884,381.34 217.954,381.34 222.103,384.939 		"/>
	</g>
	<g>
		<polygon fill="#7C5904" points="223.345,381.34 361.415,381.34 361.415,388.539 223.345,388.539 227.492,384.939 		"/>
	</g>
</g>
<g>
	<g>
		<polygon fill="#7C5904" points="217.954,318.971 79.884,318.971 79.884,311.771 217.954,311.771 222.103,315.371 		"/>
	</g>
	<g>
		<polygon fill="#7C5904" points="223.345,311.771 361.415,311.771 361.415,318.971 223.345,318.971 227.492,315.371 		"/>
	</g>
</g>
<g>
	<g>
		<polygon fill="#7C5904" points="217.954,332.885 79.884,332.885 79.884,325.686 217.954,325.686 222.103,329.285 		"/>
	</g>
	<g>
		<polygon fill="#7C5904" points="223.345,325.686 361.415,325.686 361.415,332.885 223.345,332.885 227.492,329.285 		"/>
	</g>
</g>
<g>
	<g>
		<polygon fill="#7C5904" points="217.954,346.799 79.884,346.799 79.884,339.598 217.954,339.598 222.103,343.197 		"/>
	</g>
	<g>
		<polygon fill="#7C5904" points="223.345,339.598 361.415,339.598 361.415,346.799 223.345,346.799 227.492,343.197 		"/>
	</g>
</g>
<g>
	<g>
		<polygon fill="#7C5904" points="217.954,360.713 79.884,360.713 79.884,353.512 217.954,353.512 222.103,357.111 		"/>
	</g>
	<g>
		<polygon fill="#7C5904" points="223.345,353.512 361.415,353.512 361.415,360.713 223.345,360.713 227.492,357.111 		"/>
	</g>
</g>
<g>
	<g>
		<polygon fill="#7C5904" points="217.954,416.369 79.884,416.369 79.884,409.17 217.954,409.17 222.103,412.77 		"/>
	</g>
	<g>
		<polygon fill="#7C5904" points="223.345,409.17 361.415,409.17 361.415,416.369 223.345,416.369 227.492,412.77 		"/>
	</g>
</g>
<g>
	<g>
		<polygon fill="#7C5904" points="217.954,430.281 79.884,430.281 79.884,423.082 217.954,423.082 222.103,426.682 		"/>
	</g>
	<g>
		<polygon fill="#7C5904" points="223.345,423.082 361.415,423.082 361.415,430.281 223.345,430.281 227.492,426.682 		"/>
	</g>
</g>
<g>
	<g>
		<polygon fill="#7C5904" points="217.954,444.197 79.884,444.197 79.884,436.998 217.954,436.998 222.103,440.596 		"/>
	</g>
	<g>
		<polygon fill="#7C5904" points="223.345,436.998 361.415,436.998 361.415,444.197 223.345,444.197 227.492,440.596 		"/>
	</g>
</g>
<g>
	<g>
		<polygon fill="#7C5904" points="217.954,458.109 79.884,458.109 79.884,450.91 217.954,450.91 222.103,454.51 		"/>
	</g>
	<g>
		<polygon fill="#7C5904" points="223.345,450.91 361.415,450.91 361.415,458.109 223.345,458.109 227.492,454.51 		"/>
	</g>
</g>
<g>
	<g>
		<polygon fill="#7C5904" points="217.954,472.024 79.884,472.024 79.884,464.824 217.954,464.824 222.103,468.424 		"/>
	</g>
	<g>
		<polygon fill="#7C5904" points="223.345,464.824 361.415,464.824 361.415,472.024 223.345,472.024 227.492,468.424 		"/>
	</g>
</g>
<g>
	<path fill="#C63706" d="M70.495,79.838c-0.451-0.123-0.876-0.305-1.274-0.545s-0.747-0.537-1.046-0.893
		c-0.299-0.354-0.536-0.764-0.712-1.23c-0.176-0.465-0.264-0.988-0.264-1.568c0-0.615,0.123-1.191,0.369-1.727
		c0.246-0.537,0.595-1.004,1.046-1.402s0.996-0.711,1.635-0.939s1.351-0.344,2.136-0.344h6.012v2.418h-1.239v14.088h-2.575V73.607
		H73.07v14.088h-2.575V79.838z"/>
</g>
<g>
	<path fill="#398EB0" d="M70.495,190.881c-0.451-0.123-0.876-0.305-1.274-0.545s-0.747-0.537-1.046-0.893
		c-0.299-0.354-0.536-0.764-0.712-1.23c-0.176-0.465-0.264-0.988-0.264-1.568c0-0.615,0.123-1.191,0.369-1.727
		c0.246-0.537,0.595-1.004,1.046-1.402s0.996-0.713,1.635-0.941s1.351-0.342,2.136-0.342h6.012v2.416h-1.239v14.09h-2.575v-14.09
		H73.07v14.09h-2.575V190.881z"/>
</g>
<g>
	<path fill="#C63706" d="M70.495,301.547c-0.451-0.123-0.876-0.305-1.274-0.545s-0.747-0.537-1.046-0.893
		c-0.299-0.354-0.536-0.764-0.712-1.23c-0.176-0.465-0.264-0.988-0.264-1.568c0-0.615,0.123-1.191,0.369-1.727
		c0.246-0.537,0.595-1.004,1.046-1.402s0.996-0.713,1.635-0.941s1.351-0.342,2.136-0.342h6.012v2.416h-1.239v14.09h-2.575v-14.09
		H73.07v14.09h-2.575V301.547z"/>
</g>
<g>
	<path fill="#398EB0" d="M70.495,413.383c-0.451-0.123-0.876-0.305-1.274-0.545s-0.747-0.537-1.046-0.893
		c-0.299-0.354-0.536-0.764-0.712-1.23c-0.176-0.465-0.264-0.988-0.264-1.568c0-0.615,0.123-1.191,0.369-1.727
		c0.246-0.537,0.595-1.004,1.046-1.402s0.996-0.713,1.635-0.941s1.351-0.342,2.136-0.342h6.012v2.416h-1.239v14.09h-2.575v-14.09
		H73.07v14.09h-2.575V413.383z"/>
</g>
<g>
	<g>
		<polygon fill="#7C5904" points="223.345,61.322 361.416,61.322 361.416,68.521 223.345,68.521 227.492,64.922 		"/>
	</g>
	<g>
		<polygon fill="#7C5904" points="222.103,64.922 217.955,61.322 217.955,61.322 217.954,61.322 79.884,61.322 84.032,64.922 
			79.884,68.521 217.954,68.521 217.955,68.521 217.955,68.52 		"/>
	</g>
</g>
<g>
	<g>
		<polygon fill="#7C5904" points="217.954,485.936 79.884,485.936 79.884,478.736 217.954,478.736 222.103,482.336 		"/>
	</g>
	<g>
		<polygon fill="#7C5904" points="223.345,478.736 227.492,482.336 223.345,485.936 357.267,485.936 361.416,482.336 
			357.267,478.736 		"/>
	</g>
</g>
<g>
	<rect x="79.884" y="172.633" fill="#7C5904" width="142.488" height="7.199"/>
</g>
<g>
	<rect x="79.884" y="283.945" fill="#7C5904" width="142.488" height="7.199"/>
</g>
<g>
	<rect x="79.884" y="395.254" fill="#7C5904" width="142.488" height="7.199"/>
</g>
</svg>
