<?xml version="1.0" encoding="utf-8"?>
<!-- Generator: Adobe Illustrator 16.0.4, SVG Export Plug-In . SVG Version: 6.00 Build 0)  -->
<!DOCTYPE svg PUBLIC "-//W3C//DTD SVG 1.1//EN" "http://www.w3.org/Graphics/SVG/1.1/DTD/svg11.dtd">
<svg version="1.1" id="Layer_1" xmlns="http://www.w3.org/2000/svg" xmlns:xlink="http://www.w3.org/1999/xlink" x="0px" y="0px"
	 width="448.746px" height="616.439px" viewBox="0 0 448.746 616.439" enable-background="new 0 0 448.746 616.439"
	 xml:space="preserve">
<rect x="0.5" y="0.5" fill="#FFFFFF" stroke="#C68D06" stroke-miterlimit="10" width="447.746" height="615.439"/>
<g>
	<path fill="#C68D06" d="M339.508,577.968l1.785-1.436c1.575,2.275,3.641,3.921,6.721,3.921c4.445,0,6.476-3.291,6.476-6.791
		c0-4.2-2.485-6.44-5.916-6.44c-2.66,0-4.48,1.189-5.915,3.255l-1.855-0.7l1.016-13.546h13.687l-0.211,2.274h-11.411l-0.7,8.996
		c1.261-1.47,2.976-2.415,5.741-2.415c4.69,0,8.016,3.29,8.016,8.471s-3.396,9.066-8.891,9.066
		C344.304,582.623,341.258,580.732,339.508,577.968z"/>
	<path fill="#C68D06" d="M363.377,577.968l1.785-1.436c1.575,2.275,3.641,3.921,6.721,3.921c4.445,0,6.476-3.291,6.476-6.791
		c0-4.2-2.485-6.44-5.916-6.44c-2.66,0-4.48,1.189-5.915,3.255l-1.855-0.7l1.016-13.546h13.687l-0.211,2.274h-11.411l-0.7,8.996
		c1.261-1.47,2.976-2.415,5.741-2.415c4.69,0,8.016,3.29,8.016,8.471s-3.396,9.066-8.891,9.066
		C368.173,582.623,365.127,580.732,363.377,577.968z"/>
	<path fill="#C68D06" d="M389.207,556.23h8.681c5.776,0,8.996,2.45,8.996,7c0,4.201-2.45,6.301-6.195,7.001l6.546,11.901h-2.801
		l-6.336-11.621h-6.44v11.621h-2.45V556.23z M397.712,568.307c4.271,0,6.686-1.226,6.686-4.971c0-3.57-2.38-4.831-6.721-4.831
		h-6.021v9.802H397.712z"/>
</g>
<g>
	<rect x="81.217" y="157.966" fill="#C0DDE7" width="281.738" height="7.199"/>
</g>
<g>
	<rect x="80.217" y="171.879" fill="#C0DDE7" width="281.738" height="7.199"/>
</g>
<g>
	<rect x="80.217" y="185.793" fill="#C0DDE7" width="281.738" height="7.2"/>
</g>
<g>
	<rect x="80.217" y="199.707" fill="#C0DDE7" width="281.738" height="7.199"/>
</g>
<g>
	<rect x="80.217" y="213.621" fill="#C0DDE7" width="281.738" height="7.199"/>
</g>
<g>
	<rect x="80.217" y="227.535" fill="#C0DDE7" width="281.738" height="7.199"/>
</g>
<g>
	<rect x="80.217" y="241.449" fill="#C0DDE7" width="281.738" height="7.199"/>
</g>
<g>
	<rect x="80.217" y="255.361" fill="#C0DDE7" width="281.738" height="7.201"/>
</g>
<g>
	<rect x="80.217" y="269.276" fill="#C0DDE7" width="281.738" height="7.199"/>
</g>
<g>
	<rect x="80.217" y="283.189" fill="#C0DDE7" width="281.738" height="7.201"/>
</g>
<g>
	<rect x="80.217" y="297.104" fill="#C0DDE7" width="281.738" height="7.2"/>
</g>
<g>
	<rect x="80.217" y="311.018" fill="#C0DDE7" width="281.738" height="7.2"/>
</g>
<g>
	<rect x="80.217" y="324.932" fill="#C0DDE7" width="281.738" height="7.199"/>
</g>
<g>
	<rect x="80.217" y="338.846" fill="#C0DDE7" width="281.738" height="7.199"/>
</g>
<g>
	<rect x="80.217" y="352.759" fill="#C0DDE7" width="281.738" height="7.201"/>
</g>
<g>
	<rect x="80.217" y="366.673" fill="#C0DDE7" width="281.738" height="7.2"/>
</g>
<g>
	<rect x="80.217" y="380.587" fill="#C0DDE7" width="281.738" height="7.199"/>
</g>
<g>
	<rect x="80.217" y="394.501" fill="#C0DDE7" width="281.738" height="7.199"/>
</g>
<g>
	<rect x="80.217" y="408.414" fill="#C0DDE7" width="281.738" height="7.199"/>
</g>
<g>
	<rect x="80.217" y="422.328" fill="#C0DDE7" width="281.738" height="7.2"/>
</g>
<g>
	<rect x="80.217" y="436.242" fill="#C0DDE7" width="281.738" height="7.199"/>
</g>
<g>
	<rect x="80.217" y="450.156" fill="#C0DDE7" width="281.738" height="7.199"/>
</g>
<g>
	<rect x="80.217" y="464.07" fill="#C0DDE7" width="281.738" height="7.199"/>
</g>
<g>
	<rect x="80.217" y="477.983" fill="#C0DDE7" width="281.738" height="7.2"/>
</g>
<g>
	<rect x="80.217" y="60.568" fill="#C0DDE7" width="281.738" height="7.2"/>
</g>
<g>
	<rect x="80.217" y="74.482" fill="#C0DDE7" width="281.738" height="7.2"/>
</g>
<g>
	<rect x="80.217" y="144.052" fill="#C0DDE7" width="281.738" height="7.2"/>
</g>
<g>
	<rect x="80.217" y="88.396" fill="#C0DDE7" width="281.738" height="7.199"/>
</g>
<g>
	<rect x="80.217" y="102.311" fill="#C0DDE7" width="281.738" height="7.2"/>
</g>
<g>
	<rect x="80.217" y="116.225" fill="#C0DDE7" width="281.738" height="7.199"/>
</g>
<g>
	<rect x="80.217" y="130.139" fill="#C0DDE7" width="281.738" height="7.198"/>
</g>
<g>
	<path fill="#C63706" d="M67.553,287.273h1.696l-0.764-2.447h-5.233l-0.764,2.447h1.797v3.078h-6.458v-3.078h1.269l4.638-13.947
		h4.503l4.537,13.947h1.235v3.078h-6.458V287.273z M64.139,281.951h3.437l-1.729-5.537L64.139,281.951z"/>
</g>
<g>
	<path fill="#398EB0" d="M58.355,161.992h9.007c0.876,0,1.658,0.131,2.347,0.393c0.689,0.264,1.269,0.613,1.741,1.051
		s0.833,0.947,1.083,1.527c0.251,0.58,0.376,1.186,0.376,1.814c0,0.576-0.062,1.082-0.185,1.516
		c-0.124,0.434-0.304,0.82-0.539,1.156c-0.236,0.338-0.526,0.635-0.871,0.893c-0.344,0.26-0.737,0.492-1.179,0.703
		c0.382,0.193,0.719,0.492,1.011,0.893s0.513,0.918,0.663,1.555l0.573,2.213h1.404l0.022,3.312h-4.941l-0.674-4.043
		c-0.067-0.479-0.17-0.893-0.309-1.24c-0.138-0.348-0.324-0.633-0.556-0.854s-0.515-0.385-0.848-0.488
		c-0.333-0.105-0.729-0.158-1.185-0.158h-1.449v3.707h1.561v3.076h-7.053v-3.076h1.763V165.08h-1.763V161.992z M63.847,165.08v4.123
		h2.235c0.427,0,0.811-0.039,1.151-0.119c0.341-0.078,0.633-0.201,0.876-0.369c0.244-0.17,0.431-0.381,0.562-0.635
		c0.131-0.256,0.197-0.559,0.197-0.91c0-0.658-0.236-1.172-0.708-1.539s-1.164-0.551-2.078-0.551H63.847z"/>
</g>
<g>
	<g>
		<polygon fill="#7C5904" points="218.39,109.511 80.32,109.511 80.32,102.312 218.39,102.312 222.539,105.91 		"/>
	</g>
	<g>
		<polygon fill="#7C5904" points="223.781,102.312 361.851,102.312 361.851,109.511 223.781,109.511 227.929,105.91 		"/>
	</g>
</g>
<g>
	<g>
		<polygon fill="#7C5904" points="218.39,95.596 80.32,95.596 80.32,88.396 218.39,88.396 222.539,91.995 		"/>
	</g>
	<g>
		<polygon fill="#7C5904" points="223.781,88.396 361.851,88.396 361.851,95.596 223.781,95.596 227.929,91.995 		"/>
	</g>
</g>
<g>
	<g>
		<polygon fill="#7C5904" points="218.39,123.424 80.32,123.424 80.32,116.223 218.39,116.223 222.539,119.822 		"/>
	</g>
	<g>
		<polygon fill="#7C5904" points="223.781,116.223 361.851,116.223 361.851,123.424 223.781,123.424 227.929,119.822 		"/>
	</g>
</g>
<g>
	<g>
		<polygon fill="#7C5904" points="266.387,81.682 176.705,81.682 180.855,78.082 176.705,74.482 266.387,74.482 270.537,78.082 		
			"/>
	</g>
	<g>
		<polygon fill="#7C5904" points="169.898,81.682 80.217,81.682 80.217,74.482 169.898,74.482 174.047,78.082 		"/>
	</g>
	<g>
		<polygon fill="#7C5904" points="272.13,74.482 361.812,74.482 361.812,81.682 272.13,81.682 276.279,78.082 		"/>
	</g>
</g>
<g>
	<g>
		<polygon fill="#7C5904" points="218.39,179.082 80.32,179.082 80.32,171.883 218.39,171.883 222.539,175.48 		"/>
	</g>
	<g>
		<polygon fill="#7C5904" points="223.781,171.883 361.851,171.883 361.851,179.082 223.781,179.082 227.929,175.48 		"/>
	</g>
</g>
<g>
	<g>
		<polygon fill="#7C5904" points="218.39,137.339 80.32,137.339 80.32,130.14 218.39,130.14 222.539,133.737 		"/>
	</g>
	<g>
		<polygon fill="#7C5904" points="223.781,130.14 361.851,130.14 361.851,137.339 223.781,137.339 227.929,133.737 		"/>
	</g>
</g>
<g>
	<g>
		<polygon fill="#7C5904" points="218.39,192.994 80.32,192.994 80.32,185.794 218.39,185.794 222.539,189.394 		"/>
	</g>
	<g>
		<polygon fill="#7C5904" points="223.781,185.794 361.851,185.794 361.851,192.994 223.781,192.994 227.929,189.394 		"/>
	</g>
</g>
<g>
	<g>
		<polygon fill="#7C5904" points="218.39,220.82 80.32,220.82 80.32,213.62 218.39,213.62 222.539,217.22 		"/>
	</g>
	<g>
		<polygon fill="#7C5904" points="223.781,213.62 361.851,213.62 361.851,220.82 223.781,220.82 227.929,217.22 		"/>
	</g>
</g>
<g>
	<g>
		<polygon fill="#7C5904" points="218.39,248.648 80.32,248.648 80.32,241.447 218.39,241.447 222.539,245.047 		"/>
	</g>
	<g>
		<polygon fill="#7C5904" points="223.781,241.447 361.851,241.447 361.851,248.648 223.781,248.648 227.929,245.047 		"/>
	</g>
</g>
<g>
	<g>
		<polygon fill="#7C5904" points="218.39,206.906 80.32,206.906 80.32,199.707 218.39,199.707 222.539,203.307 		"/>
	</g>
	<g>
		<polygon fill="#7C5904" points="223.781,199.707 361.851,199.707 361.851,206.906 223.781,206.906 227.929,203.307 		"/>
	</g>
</g>
<g>
	<g>
		<polygon fill="#7C5904" points="218.39,234.734 80.32,234.734 80.32,227.535 218.39,227.535 222.539,231.135 		"/>
	</g>
	<g>
		<polygon fill="#7C5904" points="223.781,227.535 361.851,227.535 361.851,234.734 223.781,234.734 227.929,231.135 		"/>
	</g>
</g>
<g>
	<g>
		<polygon fill="#7C5904" points="218.39,262.562 80.32,262.562 80.32,255.363 218.39,255.363 222.539,258.963 		"/>
	</g>
	<g>
		<polygon fill="#7C5904" points="223.781,255.363 361.851,255.363 361.851,262.562 223.781,262.562 227.929,258.963 		"/>
	</g>
</g>
<g>
	<g>
		<polygon fill="#7C5904" points="218.39,457.357 80.32,457.357 80.32,450.158 218.39,450.158 222.539,453.756 		"/>
	</g>
	<g>
		<polygon fill="#7C5904" points="223.781,450.158 361.851,450.158 361.851,457.357 223.781,457.357 227.929,453.756 		"/>
	</g>
</g>
<g>
	<g>
		<polygon fill="#7C5904" points="218.39,415.613 80.32,415.613 80.32,408.414 218.39,408.414 222.539,412.012 		"/>
	</g>
	<g>
		<polygon fill="#7C5904" points="223.781,408.414 361.851,408.414 361.851,415.613 223.781,415.613 227.929,412.012 		"/>
	</g>
</g>
<g>
	<g>
		<polygon fill="#7C5904" points="218.39,443.441 80.32,443.441 80.32,436.242 218.39,436.242 222.539,439.84 		"/>
	</g>
	<g>
		<polygon fill="#7C5904" points="223.781,436.242 361.851,436.242 361.851,443.441 223.781,443.441 227.929,439.84 		"/>
	</g>
</g>
<g>
	<g>
		<polygon fill="#7C5904" points="218.39,429.527 80.32,429.527 80.32,422.328 218.39,422.328 222.539,425.926 		"/>
	</g>
	<g>
		<polygon fill="#7C5904" points="223.781,422.328 361.851,422.328 361.851,429.527 223.781,429.527 227.929,425.926 		"/>
	</g>
</g>
<g>
	<g>
		<polygon fill="#7C5904" points="218.39,401.699 80.32,401.699 80.32,394.5 218.39,394.5 222.539,398.098 		"/>
	</g>
	<g>
		<polygon fill="#7C5904" points="223.781,394.5 361.851,394.5 361.851,401.699 223.781,401.699 227.929,398.098 		"/>
	</g>
</g>
<g>
	<g>
		<polygon fill="#7C5904" points="218.39,304.303 80.32,304.303 80.32,297.104 218.39,297.104 222.539,300.701 		"/>
	</g>
	<g>
		<polygon fill="#7C5904" points="223.781,297.104 361.851,297.104 361.851,304.303 223.781,304.303 227.929,300.701 		"/>
	</g>
</g>
<g>
	<g>
		<polygon fill="#7C5904" points="218.39,332.131 80.32,332.131 80.32,324.932 218.39,324.932 222.539,328.529 		"/>
	</g>
	<g>
		<polygon fill="#7C5904" points="223.781,324.932 361.851,324.932 361.851,332.131 223.781,332.131 227.929,328.529 		"/>
	</g>
</g>
<g>
	<g>
		<polygon fill="#7C5904" points="218.39,373.873 80.32,373.873 80.32,366.674 218.39,366.674 222.539,370.271 		"/>
	</g>
	<g>
		<polygon fill="#7C5904" points="223.781,366.674 361.851,366.674 361.851,373.873 223.781,373.873 227.929,370.271 		"/>
	</g>
</g>
<g>
	<g>
		<polygon fill="#7C5904" points="218.39,359.96 80.32,359.96 80.32,352.761 218.39,352.761 222.539,356.358 		"/>
	</g>
	<g>
		<polygon fill="#7C5904" points="223.781,352.761 361.851,352.761 361.851,359.96 223.781,359.96 227.929,356.358 		"/>
	</g>
</g>
<g>
	<g>
		<polygon fill="#7C5904" points="218.39,346.045 80.32,346.045 80.32,338.846 218.39,338.846 222.539,342.443 		"/>
	</g>
	<g>
		<polygon fill="#7C5904" points="223.781,338.846 361.851,338.846 361.851,346.045 223.781,346.045 227.929,342.443 		"/>
	</g>
</g>
<g>
	<g>
		<polygon fill="#7C5904" points="218.39,318.218 80.32,318.218 80.32,311.019 218.39,311.019 222.539,314.616 		"/>
	</g>
	<g>
		<polygon fill="#7C5904" points="223.781,311.019 361.851,311.019 361.851,318.218 223.781,318.218 227.929,314.616 		"/>
	</g>
</g>
<g>
	<g>
		<polygon fill="#7C5904" points="218.39,290.389 80.32,290.389 80.32,283.189 218.39,283.189 222.539,286.787 		"/>
	</g>
	<g>
		<polygon fill="#7C5904" points="223.781,283.189 361.851,283.189 361.851,290.389 223.781,290.389 227.929,286.787 		"/>
	</g>
</g>
<g>
	<g>
		<polygon fill="#7C5904" points="218.39,471.27 80.32,471.27 80.32,464.069 218.39,464.069 222.539,467.669 		"/>
	</g>
	<g>
		<polygon fill="#7C5904" points="223.781,464.069 361.851,464.069 361.851,471.27 223.781,471.27 227.929,467.669 		"/>
	</g>
</g>
<g>
	<path fill="#C63706" d="M70.357,120.477c-0.451-0.123-0.876-0.305-1.274-0.545s-0.747-0.537-1.046-0.893
		c-0.299-0.354-0.536-0.764-0.712-1.23c-0.176-0.465-0.264-0.988-0.264-1.568c0-0.615,0.123-1.191,0.369-1.727
		c0.246-0.537,0.595-1.004,1.046-1.402s0.996-0.713,1.635-0.941s1.351-0.342,2.136-0.342h6.012v2.416h-1.239v14.09h-2.575v-14.09
		h-1.512v14.09h-2.575V120.477z"/>
</g>
<g>
	<path fill="#398EB0" d="M70.357,398.727c-0.451-0.123-0.876-0.305-1.274-0.545s-0.747-0.537-1.046-0.893
		c-0.299-0.354-0.536-0.764-0.712-1.23c-0.176-0.465-0.264-0.988-0.264-1.568c0-0.615,0.123-1.191,0.369-1.727
		c0.246-0.537,0.595-1.004,1.046-1.402s0.996-0.713,1.635-0.941s1.351-0.342,2.136-0.342h6.012v2.416h-1.239v14.09h-2.575v-14.09
		h-1.512v14.09h-2.575V398.727z"/>
</g>
<g>
	<rect x="80.217" y="144.052" fill="#7C5904" width="142.488" height="7.199"/>
</g>
<g>
	<rect x="80.217" y="380.587" fill="#7C5904" width="142.488" height="7.199"/>
</g>
<g>
	<g>
		<polygon fill="#7C5904" points="218.493,485.184 80.423,485.184 80.423,477.984 218.493,477.984 222.642,481.584 		"/>
	</g>
	<g>
		<polygon fill="#7C5904" points="223.884,477.984 228.031,481.584 223.884,485.184 357.806,485.184 361.955,481.584 
			357.806,477.984 		"/>
	</g>
</g>
<g>
	<g>
		<polygon fill="#7C5904" points="223.678,60.569 361.749,60.569 361.749,67.769 223.678,67.769 227.825,64.169 		"/>
	</g>
	<g>
		<polygon fill="#7C5904" points="222.436,64.169 218.288,60.569 218.288,60.569 218.287,60.569 80.217,60.569 84.365,64.169 
			80.217,67.769 218.287,67.769 218.288,67.769 218.288,67.768 		"/>
	</g>
</g>
</svg>
