<?xml version="1.0" encoding="utf-8"?>
<!-- Generator: Adobe Illustrator 16.0.4, SVG Export Plug-In . SVG Version: 6.00 Build 0)  -->
<!DOCTYPE svg PUBLIC "-//W3C//DTD SVG 1.1//EN" "http://www.w3.org/Graphics/SVG/1.1/DTD/svg11.dtd">
<svg version="1.1" id="Layer_1" xmlns="http://www.w3.org/2000/svg" xmlns:xlink="http://www.w3.org/1999/xlink" x="0px" y="0px"
	 width="448.746px" height="616.436px" viewBox="0 0 448.746 616.436" enable-background="new 0 0 448.746 616.436"
	 xml:space="preserve">
<rect x="0.5" y="0.5" fill="#FFFFFF" stroke="#C68D06" stroke-miterlimit="10" width="447.746" height="615.436"/>
<g>
	<path fill="#C68D06" d="M339.963,578.965l1.785-1.436c1.575,2.275,3.641,3.92,6.721,3.92c4.445,0,6.476-3.291,6.476-6.791
		c0-4.199-2.485-6.439-5.916-6.439c-2.66,0-4.48,1.189-5.915,3.254l-1.855-0.699l1.016-13.547h13.687l-0.211,2.275h-11.411
		l-0.7,8.996c1.261-1.471,2.976-2.416,5.741-2.416c4.69,0,8.016,3.291,8.016,8.471c0,5.182-3.396,9.066-8.891,9.066
		C344.759,583.619,341.713,581.729,339.963,578.965z"/>
	<path fill="#C68D06" d="M364.392,570.633c0-7.98,4.201-13.896,10.151-13.896c2.87,0,4.796,0.875,6.195,1.961l-1.295,1.891
		c-1.33-1.051-2.625-1.682-4.971-1.682c-4.726,0-7.631,5.041-7.665,11.482c1.645-1.785,4.095-3.467,7.386-3.467
		c5.46,0,8.086,3.396,8.086,8.086c0,4.9-3.466,8.611-8.682,8.611C368.488,583.619,364.392,579.523,364.392,570.633z
		 M379.864,575.043c0-3.465-1.75-5.984-5.95-5.984c-2.87,0-5.426,1.609-7.001,3.814c0.525,6.021,3.36,8.611,6.791,8.611
		C377.414,581.484,379.864,579.139,379.864,575.043z"/>
	<path fill="#C68D06" d="M388.612,557.227h2.556l7.735,22.613h0.07l7.771-22.613h2.416l-9.102,26.008h-2.345L388.612,557.227z"/>
</g>
<g>
	<g>
		<rect x="80.386" y="158.967" fill="#C0DDE7" width="281.739" height="7.199"/>
	</g>
	<g>
		<rect x="80.387" y="172.879" fill="#C0DDE7" width="281.738" height="7.199"/>
	</g>
	<g>
		<rect x="80.386" y="186.793" fill="#C0DDE7" width="281.739" height="7.201"/>
	</g>
	<g>
		<rect x="80.386" y="200.707" fill="#C0DDE7" width="281.739" height="7.199"/>
	</g>
	<g>
		<rect x="80.386" y="214.621" fill="#C0DDE7" width="281.739" height="7.199"/>
	</g>
	<g>
		<rect x="80.386" y="228.535" fill="#C0DDE7" width="281.739" height="7.199"/>
	</g>
	<g>
		<rect x="80.387" y="242.449" fill="#C0DDE7" width="281.738" height="7.199"/>
	</g>
	<g>
		<rect x="80.387" y="256.361" fill="#C0DDE7" width="281.738" height="7.201"/>
	</g>
	<g>
		<rect x="80.386" y="270.277" fill="#C0DDE7" width="281.739" height="7.199"/>
	</g>
	<g>
		<rect x="80.387" y="284.189" fill="#C0DDE7" width="281.738" height="7.201"/>
	</g>
	<g>
		<rect x="80.386" y="298.104" fill="#C0DDE7" width="281.739" height="7.201"/>
	</g>
	<g>
		<rect x="80.386" y="312.018" fill="#C0DDE7" width="281.739" height="7.201"/>
	</g>
	<g>
		<rect x="80.386" y="325.932" fill="#C0DDE7" width="281.739" height="7.199"/>
	</g>
	<g>
		<rect x="80.387" y="339.846" fill="#C0DDE7" width="281.738" height="7.199"/>
	</g>
	<g>
		<rect x="80.386" y="353.76" fill="#C0DDE7" width="281.739" height="7.199"/>
	</g>
	<g>
		<rect x="80.386" y="367.674" fill="#C0DDE7" width="281.739" height="7.199"/>
	</g>
	<g>
		<rect x="80.386" y="381.588" fill="#C0DDE7" width="281.739" height="7.199"/>
	</g>
	<g>
		<rect x="80.386" y="395.502" fill="#C0DDE7" width="281.739" height="7.199"/>
	</g>
	<g>
		<rect x="80.387" y="409.414" fill="#C0DDE7" width="281.738" height="7.199"/>
	</g>
	<g>
		<rect x="80.386" y="423.328" fill="#C0DDE7" width="281.739" height="7.201"/>
	</g>
	<g>
		<rect x="80.387" y="437.242" fill="#C0DDE7" width="281.738" height="7.199"/>
	</g>
	<g>
		<rect x="80.386" y="451.156" fill="#C0DDE7" width="281.739" height="7.199"/>
	</g>
	<g>
		<rect x="80.387" y="465.07" fill="#C0DDE7" width="281.738" height="7.199"/>
	</g>
	<g>
		<rect x="80.386" y="478.984" fill="#C0DDE7" width="281.739" height="7.199"/>
	</g>
	<g>
		<rect x="80.386" y="61.568" fill="#C0DDE7" width="281.739" height="7.201"/>
	</g>
	<g>
		<rect x="80.387" y="75.482" fill="#C0DDE7" width="281.738" height="7.201"/>
	</g>
	<g>
		<rect x="80.387" y="145.053" fill="#C0DDE7" width="281.738" height="7.199"/>
	</g>
	<g>
		<rect x="80.386" y="89.396" fill="#C0DDE7" width="281.739" height="7.199"/>
	</g>
	<g>
		<rect x="80.387" y="103.311" fill="#C0DDE7" width="281.738" height="7.199"/>
	</g>
	<g>
		<rect x="80.387" y="117.225" fill="#C0DDE7" width="281.738" height="7.199"/>
	</g>
	<g>
		<rect x="80.387" y="131.139" fill="#C0DDE7" width="281.738" height="7.199"/>
	</g>
	<g>
		<g>
			<g>
				<path fill="#C63706" d="M65.508,291.92c-0.771,0-1.509-0.105-2.212-0.314s-1.361-0.506-1.971-0.887
					c-0.61-0.383-1.165-0.842-1.662-1.377c-0.498-0.535-0.923-1.129-1.275-1.785c-0.352-0.654-0.625-1.357-0.82-2.105
					s-0.292-1.531-0.292-2.348s0.097-1.6,0.292-2.352c0.195-0.754,0.468-1.457,0.82-2.111c0.352-0.656,0.777-1.252,1.275-1.787
					c0.498-0.535,1.052-0.992,1.662-1.375c0.61-0.381,1.267-0.678,1.971-0.887c0.704-0.211,1.441-0.314,2.212-0.314
					s1.51,0.104,2.218,0.314c0.707,0.209,1.366,0.506,1.977,0.887c0.61,0.383,1.164,0.84,1.662,1.375
					c0.498,0.535,0.924,1.131,1.28,1.787c0.355,0.654,0.63,1.357,0.825,2.111c0.195,0.752,0.292,1.535,0.292,2.352
					c0,0.809-0.097,1.59-0.292,2.342s-0.47,1.457-0.825,2.111c-0.356,0.656-0.783,1.25-1.28,1.785
					c-0.498,0.535-1.052,0.994-1.662,1.377c-0.61,0.381-1.27,0.678-1.977,0.887C67.018,291.814,66.279,291.92,65.508,291.92z
					 M65.508,288.395c0.651,0,1.249-0.141,1.792-0.422c0.542-0.281,1.009-0.662,1.398-1.146c0.389-0.482,0.691-1.043,0.904-1.684
					c0.214-0.641,0.32-1.32,0.32-2.039c0-0.727-0.108-1.41-0.326-2.055s-0.522-1.207-0.916-1.689
					c-0.393-0.484-0.859-0.865-1.398-1.146s-1.13-0.42-1.774-0.42s-1.235,0.139-1.774,0.42s-1.003,0.662-1.393,1.146
					c-0.389,0.482-0.694,1.045-0.916,1.689c-0.221,0.645-0.331,1.328-0.331,2.055c0,0.719,0.11,1.398,0.331,2.039
					c0.221,0.641,0.526,1.201,0.916,1.684c0.389,0.484,0.854,0.865,1.393,1.146S64.864,288.395,65.508,288.395z"/>
			</g>
			<g>
				<g>
					<g>
						<polygon fill="#7C5904" points="218.664,291.391 80.594,291.391 80.594,284.191 218.664,284.191 222.812,287.791 						"/>
					</g>
					<g>
						<polygon fill="#7C5904" points="224.055,284.191 362.125,284.191 362.125,291.391 224.055,291.391 228.202,287.791 						"/>
					</g>
				</g>
				<g>
					<g>
						<polygon fill="#7C5904" points="218.664,305.305 80.594,305.305 80.594,298.105 218.664,298.105 222.812,301.705 						"/>
					</g>
					<g>
						<polygon fill="#7C5904" points="224.055,298.105 362.125,298.105 362.125,305.305 224.055,305.305 228.202,301.705 						"/>
					</g>
				</g>
				<g>
					<g>
						<polygon fill="#7C5904" points="218.664,374.873 80.594,374.873 80.594,367.674 218.664,367.674 222.812,371.273 						"/>
					</g>
					<g>
						<polygon fill="#7C5904" points="224.055,367.674 362.125,367.674 362.125,374.873 224.055,374.873 228.202,371.273 						"/>
					</g>
				</g>
				<g>
					<g>
						<polygon fill="#7C5904" points="218.664,319.219 80.594,319.219 80.594,312.02 218.664,312.02 222.812,315.619 						"/>
					</g>
					<g>
						<polygon fill="#7C5904" points="224.055,312.02 362.125,312.02 362.125,319.219 224.055,319.219 228.202,315.619 						"/>
					</g>
				</g>
				<g>
					<g>
						<polygon fill="#7C5904" points="218.664,333.133 80.594,333.133 80.594,325.934 218.664,325.934 222.812,329.533 						"/>
					</g>
					<g>
						<polygon fill="#7C5904" points="224.055,325.934 362.125,325.934 362.125,333.133 224.055,333.133 228.202,329.533 						"/>
					</g>
				</g>
				<g>
					<g>
						<polygon fill="#7C5904" points="218.664,347.047 80.594,347.047 80.594,339.846 218.664,339.846 222.812,343.445 						"/>
					</g>
					<g>
						<polygon fill="#7C5904" points="224.055,339.846 362.125,339.846 362.125,347.047 224.055,347.047 228.202,343.445 						"/>
					</g>
				</g>
				<g>
					<g>
						<polygon fill="#7C5904" points="218.664,360.961 80.594,360.961 80.594,353.76 218.664,353.76 222.812,357.359 						"/>
					</g>
					<g>
						<polygon fill="#7C5904" points="224.055,353.76 362.125,353.76 362.125,360.961 224.055,360.961 228.202,357.359 						"/>
					</g>
				</g>
			</g>
		</g>
		<g>
			<g>
				<path fill="#398EB0" d="M60.274,386.258h7.861c0.876,0,1.681,0.137,2.415,0.41s1.366,0.641,1.898,1.105s0.947,1,1.247,1.605
					c0.299,0.607,0.449,1.24,0.449,1.898c0,0.793-0.118,1.537-0.354,2.229c-0.236,0.693-0.601,1.295-1.095,1.803
					c-0.494,0.51-1.119,0.912-1.875,1.207c-0.756,0.297-1.651,0.445-2.684,0.445h-2.37v3.244h1.561v3.078h-7.053v-3.078h1.763
					v-10.859h-1.763V386.258z M65.766,389.346v4.57h1.539c0.854,0,1.531-0.18,2.033-0.539s0.752-0.928,0.752-1.707
					c0-0.727-0.236-1.295-0.708-1.707s-1.164-0.617-2.078-0.617H65.766z"/>
			</g>
			<g>
				<g>
					<g>
						<polygon fill="#7C5904" points="218.664,402.701 80.594,402.701 80.594,395.502 218.664,395.502 222.812,399.102 						"/>
					</g>
					<g>
						<polygon fill="#7C5904" points="224.055,395.502 362.125,395.502 362.125,402.701 224.055,402.701 228.202,399.102 						"/>
					</g>
				</g>
				<g>
					<g>
						<polygon fill="#7C5904" points="218.664,416.615 80.594,416.615 80.594,409.416 218.664,409.416 222.812,413.016 						"/>
					</g>
					<g>
						<polygon fill="#7C5904" points="224.055,409.416 362.125,409.416 362.125,416.615 224.055,416.615 228.202,413.016 						"/>
					</g>
				</g>
				<g>
					<g>
						<polygon fill="#7C5904" points="218.664,486.184 80.594,486.184 80.594,478.984 218.664,478.984 222.812,482.584 						"/>
					</g>
					<g>
						<polygon fill="#7C5904" points="224.055,478.984 362.125,478.984 362.125,486.184 224.055,486.184 228.202,482.584 						"/>
					</g>
				</g>
				<g>
					<g>
						<polygon fill="#7C5904" points="218.664,430.529 80.594,430.529 80.594,423.33 218.664,423.33 222.812,426.93 						"/>
					</g>
					<g>
						<polygon fill="#7C5904" points="224.055,423.33 362.125,423.33 362.125,430.529 224.055,430.529 228.202,426.93 						"/>
					</g>
				</g>
				<g>
					<g>
						<polygon fill="#7C5904" points="218.664,444.443 80.594,444.443 80.594,437.244 218.664,437.244 222.812,440.844 						"/>
					</g>
					<g>
						<polygon fill="#7C5904" points="224.055,437.244 362.125,437.244 362.125,444.443 224.055,444.443 228.202,440.844 						"/>
					</g>
				</g>
				<g>
					<g>
						<polygon fill="#7C5904" points="218.664,458.357 80.594,458.357 80.594,451.156 218.664,451.156 222.812,454.756 						"/>
					</g>
					<g>
						<polygon fill="#7C5904" points="224.055,451.156 362.125,451.156 362.125,458.357 224.055,458.357 228.202,454.756 						"/>
					</g>
				</g>
				<g>
					<g>
						<polygon fill="#7C5904" points="218.664,472.271 80.594,472.271 80.594,465.07 218.664,465.07 222.812,468.67 						"/>
					</g>
					<g>
						<polygon fill="#7C5904" points="224.055,465.07 362.125,465.07 362.125,472.271 224.055,472.271 228.202,468.67 						"/>
					</g>
				</g>
			</g>
		</g>
		<g>
			<g>
				<g>
					<g>
						<polygon fill="#7C5904" points="218.664,68.77 80.594,68.77 80.594,61.568 218.664,61.568 222.812,65.17 						"/>
					</g>
					<g>
						<polygon fill="#7C5904" points="224.055,61.568 362.125,61.568 362.125,68.77 224.055,68.77 228.202,65.17 						"/>
					</g>
				</g>
				<g>
					<g>
						<polygon fill="#7C5904" points="218.664,152.252 80.594,152.252 80.594,145.053 218.664,145.053 222.812,148.652 						"/>
					</g>
					<g>
						<polygon fill="#7C5904" points="224.055,145.053 362.125,145.053 362.125,152.252 224.055,152.252 228.202,148.652 						"/>
					</g>
				</g>
				<g>
					<g>
						<polygon fill="#7C5904" points="218.664,96.598 80.594,96.598 80.594,89.398 218.664,89.398 222.812,92.996 						"/>
					</g>
					<g>
						<polygon fill="#7C5904" points="224.055,89.398 362.125,89.398 362.125,96.598 224.055,96.598 228.202,92.996 						"/>
					</g>
				</g>
				<g>
					<g>
						<polygon fill="#7C5904" points="218.664,82.682 80.594,82.682 80.594,75.482 218.664,75.482 222.812,79.082 						"/>
					</g>
					<g>
						<polygon fill="#7C5904" points="224.055,75.482 362.125,75.482 362.125,82.682 224.055,82.682 228.202,79.082 						"/>
					</g>
				</g>
				<g>
					<g>
						<polygon fill="#7C5904" points="218.664,110.512 80.594,110.512 80.594,103.312 218.664,103.312 222.812,106.91 						"/>
					</g>
					<g>
						<polygon fill="#7C5904" points="224.055,103.312 362.125,103.312 362.125,110.512 224.055,110.512 228.202,106.91 						"/>
					</g>
				</g>
				<g>
					<g>
						<polygon fill="#7C5904" points="218.664,124.424 80.594,124.424 80.594,117.225 218.664,117.225 222.812,120.824 						"/>
					</g>
					<g>
						<polygon fill="#7C5904" points="224.055,117.225 362.125,117.225 362.125,124.424 224.055,124.424 228.202,120.824 						"/>
					</g>
				</g>
				<g>
					<g>
						<polygon fill="#7C5904" points="218.664,138.338 80.594,138.338 80.594,131.139 218.664,131.139 222.812,134.738 						"/>
					</g>
					<g>
						<polygon fill="#7C5904" points="224.055,131.139 362.125,131.139 362.125,138.338 224.055,138.338 228.202,134.738 						"/>
					</g>
				</g>
			</g>
			<g>
				<path fill="#C63706" d="M69.593,56.102c-0.419-0.6-0.797-1.025-1.134-1.275c-0.337-0.252-0.7-0.432-1.089-0.539
					c-0.389-0.109-0.797-0.162-1.224-0.162c-0.629,0-1.213,0.139-1.752,0.42s-1.005,0.662-1.398,1.146
					c-0.394,0.482-0.702,1.043-0.927,1.684s-0.337,1.32-0.337,2.039c0,0.727,0.11,1.408,0.331,2.049
					c0.221,0.641,0.526,1.199,0.916,1.68c0.389,0.479,0.854,0.859,1.393,1.139c0.539,0.281,1.13,0.422,1.774,0.422
					c0.449,0,0.869-0.072,1.258-0.219s0.743-0.34,1.061-0.578c0.318-0.24,0.597-0.516,0.837-0.826s0.427-0.635,0.562-0.971
					l3.616,1.01c-0.232,0.734-0.573,1.414-1.022,2.039s-0.99,1.166-1.623,1.623c-0.633,0.457-1.344,0.816-2.134,1.078
					c-0.79,0.262-1.642,0.393-2.555,0.393c-0.771,0-1.509-0.105-2.212-0.314s-1.361-0.506-1.971-0.887
					c-0.61-0.383-1.165-0.842-1.662-1.381c-0.498-0.539-0.923-1.137-1.275-1.793c-0.352-0.654-0.625-1.357-0.82-2.111
					c-0.195-0.752-0.292-1.535-0.292-2.352c0-1.221,0.213-2.365,0.64-3.432s1.011-1.998,1.752-2.797
					c0.741-0.797,1.612-1.426,2.611-1.887c1-0.459,2.076-0.689,3.229-0.689c0.921,0,1.696,0.113,2.325,0.342s1.321,0.68,2.078,1.354
					h2.516v3.797H69.593z"/>
			</g>
		</g>
		<g>
			<g>
				<path fill="#398EB0" d="M58.954,162.592h6.536c0.779,0,1.525,0.102,2.24,0.303c0.715,0.203,1.382,0.486,1.999,0.854
					c0.618,0.367,1.18,0.807,1.685,1.32c0.506,0.512,0.938,1.084,1.297,1.713s0.636,1.305,0.831,2.031s0.292,1.482,0.292,2.27
					c0,0.785-0.097,1.541-0.292,2.268s-0.472,1.406-0.831,2.039s-0.792,1.209-1.297,1.729c-0.505,0.521-1.066,0.967-1.685,1.338
					c-0.617,0.369-1.284,0.656-1.999,0.859c-0.715,0.201-1.461,0.303-2.24,0.303h-6.536v-3.078h1.359V165.68h-1.359V162.592z
					 M64.041,165.68v10.859h1.426c0.606,0,1.179-0.143,1.718-0.426c0.539-0.285,1.007-0.672,1.404-1.162s0.711-1.068,0.943-1.73
					s0.348-1.375,0.348-2.139c0-0.756-0.116-1.465-0.348-2.123s-0.546-1.232-0.943-1.719s-0.865-0.867-1.404-1.145
					s-1.112-0.416-1.718-0.416H64.041z"/>
			</g>
			<g>
				<g>
					<g>
						<polygon fill="#7C5904" points="218.56,193.994 80.49,193.994 80.49,186.795 218.56,186.795 222.708,190.395 						"/>
					</g>
					<g>
						<polygon fill="#7C5904" points="223.951,186.795 362.021,186.795 362.021,193.994 223.951,193.994 228.098,190.395 						"/>
					</g>
				</g>
				<g>
					<g>
						<polygon fill="#7C5904" points="218.56,180.08 80.49,180.08 80.49,172.881 218.56,172.881 222.708,176.48 						"/>
					</g>
					<g>
						<polygon fill="#7C5904" points="223.951,172.881 362.021,172.881 362.021,180.08 223.951,180.08 228.098,176.48 						"/>
					</g>
				</g>
				<g>
					<g>
						<polygon fill="#7C5904" points="218.56,207.908 80.49,207.908 80.49,200.709 218.56,200.709 222.708,204.307 						"/>
					</g>
					<g>
						<polygon fill="#7C5904" points="223.951,200.709 362.021,200.709 362.021,207.908 223.951,207.908 228.098,204.307 						"/>
					</g>
				</g>
				<g>
					<g>
						<polygon fill="#7C5904" points="218.56,235.734 80.49,235.734 80.49,228.535 218.56,228.535 222.708,232.135 						"/>
					</g>
					<g>
						<polygon fill="#7C5904" points="223.951,228.535 362.021,228.535 362.021,235.734 223.951,235.734 228.098,232.135 						"/>
					</g>
				</g>
				<g>
					<g>
						<polygon fill="#7C5904" points="218.664,221.822 80.594,221.822 80.594,214.623 218.664,214.623 222.812,218.223 						"/>
					</g>
					<g>
						<polygon fill="#7C5904" points="224.055,214.623 362.125,214.623 362.125,221.822 224.055,221.822 228.202,218.223 						"/>
					</g>
				</g>
				<g>
					<g>
						<polygon fill="#7C5904" points="218.56,249.65 80.49,249.65 80.49,242.451 218.56,242.451 222.708,246.049 						"/>
					</g>
					<g>
						<polygon fill="#7C5904" points="223.951,242.451 362.021,242.451 362.021,249.65 223.951,249.65 228.098,246.049 						"/>
					</g>
				</g>
				<g>
					<g>
						<polygon fill="#7C5904" points="218.56,263.562 80.49,263.562 80.49,256.363 218.56,256.363 222.708,259.963 						"/>
					</g>
					<g>
						<polygon fill="#7C5904" points="223.951,256.363 362.021,256.363 362.021,263.562 223.951,263.562 228.098,259.963 						"/>
					</g>
				</g>
			</g>
		</g>
	</g>
</g>
</svg>
