<?xml version="1.0" encoding="utf-8"?>
<!-- Generator: Adobe Illustrator 16.0.4, SVG Export Plug-In . SVG Version: 6.00 Build 0)  -->
<!DOCTYPE svg PUBLIC "-//W3C//DTD SVG 1.1//EN" "http://www.w3.org/Graphics/SVG/1.1/DTD/svg11.dtd">
<svg version="1.1" id="Layer_1" xmlns="http://www.w3.org/2000/svg" xmlns:xlink="http://www.w3.org/1999/xlink" x="0px" y="0px"
	 width="448.746px" height="616.436px" viewBox="0 0 448.746 616.436" enable-background="new 0 0 448.746 616.436"
	 xml:space="preserve">
<rect x="0.5" y="0.5" fill="#FFFFFF" stroke="#C68D06" stroke-miterlimit="10" width="447.746" height="615.436"/>
<g>
	<path fill="#C68D06" d="M341.34,577.965l1.785-1.436c1.575,2.275,3.641,3.92,6.721,3.92c4.445,0,6.476-3.291,6.476-6.791
		c0-4.199-2.485-6.439-5.916-6.439c-2.66,0-4.48,1.189-5.915,3.254l-1.855-0.699l1.016-13.547h13.687l-0.211,2.275h-11.411
		l-0.7,8.996c1.261-1.471,2.976-2.416,5.741-2.416c4.69,0,8.016,3.291,8.016,8.471c0,5.182-3.396,9.066-8.891,9.066
		C346.136,582.619,343.09,580.729,341.34,577.965z"/>
	<path fill="#C68D06" d="M377.987,558.502H364.65v-2.275h15.927v2.135l-10.956,23.768h-2.556L377.987,558.502z"/>
	<path fill="#C68D06" d="M388.94,556.227h8.681c5.776,0,8.996,2.451,8.996,7c0,4.201-2.45,6.301-6.195,7.002l6.546,11.9h-2.801
		l-6.336-11.621h-6.44v11.621h-2.45V556.227z M397.446,568.303c4.271,0,6.686-1.225,6.686-4.971c0-3.57-2.38-4.83-6.721-4.83h-6.021
		v9.801H397.446z"/>
</g>
<g>
	<g>
		<rect x="80.22" y="157.967" fill="#C0DDE7" width="281.739" height="7.199"/>
	</g>
	<g>
		<rect x="80.221" y="171.879" fill="#C0DDE7" width="281.738" height="7.199"/>
	</g>
	<g>
		<rect x="80.22" y="185.793" fill="#C0DDE7" width="281.739" height="7.201"/>
	</g>
	<g>
		<rect x="80.22" y="199.707" fill="#C0DDE7" width="281.739" height="7.199"/>
	</g>
	<g>
		<rect x="80.22" y="213.621" fill="#C0DDE7" width="281.739" height="7.199"/>
	</g>
	<g>
		<rect x="80.22" y="227.535" fill="#C0DDE7" width="281.739" height="7.199"/>
	</g>
	<g>
		<rect x="80.221" y="241.449" fill="#C0DDE7" width="281.738" height="7.199"/>
	</g>
	<g>
		<rect x="80.221" y="255.361" fill="#C0DDE7" width="281.738" height="7.201"/>
	</g>
	<g>
		<rect x="80.22" y="269.277" fill="#C0DDE7" width="281.739" height="7.199"/>
	</g>
	<g>
		<rect x="80.221" y="283.189" fill="#C0DDE7" width="281.738" height="7.201"/>
	</g>
	<g>
		<rect x="80.22" y="297.104" fill="#C0DDE7" width="281.739" height="7.201"/>
	</g>
	<g>
		<rect x="80.22" y="311.018" fill="#C0DDE7" width="281.739" height="7.201"/>
	</g>
	<g>
		<rect x="80.22" y="324.932" fill="#C0DDE7" width="281.739" height="7.199"/>
	</g>
	<g>
		<rect x="80.221" y="338.846" fill="#C0DDE7" width="281.738" height="7.199"/>
	</g>
	<g>
		<rect x="80.22" y="352.76" fill="#C0DDE7" width="281.739" height="7.199"/>
	</g>
	<g>
		<rect x="80.22" y="366.674" fill="#C0DDE7" width="281.739" height="7.199"/>
	</g>
	<g>
		<rect x="80.22" y="380.588" fill="#C0DDE7" width="281.739" height="7.199"/>
	</g>
	<g>
		<rect x="80.22" y="394.502" fill="#C0DDE7" width="281.739" height="7.199"/>
	</g>
	<g>
		<rect x="80.221" y="408.414" fill="#C0DDE7" width="281.738" height="7.199"/>
	</g>
	<g>
		<rect x="80.22" y="422.328" fill="#C0DDE7" width="281.739" height="7.201"/>
	</g>
	<g>
		<rect x="80.221" y="436.242" fill="#C0DDE7" width="281.738" height="7.199"/>
	</g>
	<g>
		<rect x="80.22" y="450.156" fill="#C0DDE7" width="281.739" height="7.199"/>
	</g>
	<g>
		<rect x="80.221" y="464.07" fill="#C0DDE7" width="281.738" height="7.199"/>
	</g>
	<g>
		<rect x="80.22" y="477.984" fill="#C0DDE7" width="281.739" height="7.199"/>
	</g>
	<g>
		<rect x="80.22" y="60.568" fill="#C0DDE7" width="281.739" height="7.201"/>
	</g>
	<g>
		<rect x="80.221" y="74.482" fill="#C0DDE7" width="281.738" height="7.201"/>
	</g>
	<g>
		<rect x="80.221" y="144.053" fill="#C0DDE7" width="281.738" height="7.199"/>
	</g>
	<g>
		<rect x="80.22" y="88.396" fill="#C0DDE7" width="281.739" height="7.199"/>
	</g>
	<g>
		<rect x="80.221" y="102.311" fill="#C0DDE7" width="281.738" height="7.199"/>
	</g>
	<g>
		<rect x="80.221" y="116.225" fill="#C0DDE7" width="281.738" height="7.199"/>
	</g>
	<g>
		<rect x="80.221" y="130.139" fill="#C0DDE7" width="281.738" height="7.199"/>
	</g>
	<g>
		<g>
			<g>
				<path fill="#C63706" d="M70.036,278.387c-0.038-0.262-0.129-0.509-0.275-0.74c-0.146-0.232-0.333-0.433-0.562-0.602
					c-0.228-0.168-0.486-0.301-0.774-0.398c-0.289-0.098-0.59-0.146-0.904-0.146c-0.285,0-0.55,0.03-0.797,0.09
					c-0.247,0.061-0.462,0.152-0.646,0.275c-0.183,0.124-0.329,0.283-0.438,0.478c-0.109,0.194-0.163,0.427-0.163,0.696
					c0,0.337,0.073,0.604,0.219,0.803c0.146,0.198,0.333,0.361,0.562,0.488c0.229,0.128,0.481,0.229,0.758,0.304
					s0.546,0.157,0.809,0.247l3.088,1.033c0.427,0.149,0.827,0.355,1.202,0.617c0.375,0.263,0.698,0.581,0.971,0.955
					c0.273,0.374,0.489,0.805,0.646,1.291c0.157,0.487,0.236,1.033,0.236,1.641c0,0.823-0.151,1.575-0.455,2.257
					c-0.303,0.682-0.728,1.266-1.274,1.752s-1.202,0.864-1.965,1.134s-1.61,0.404-2.538,0.404c-0.651,0-1.267-0.072-1.847-0.219
					c-0.581-0.146-1.11-0.357-1.589-0.635c-0.479-0.276-0.898-0.607-1.258-0.993s-0.64-0.822-0.842-1.309h-1.157v-3.38h4.065v0.695
					c0,0.338,0.054,0.648,0.163,0.933c0.109,0.284,0.271,0.531,0.489,0.741s0.49,0.372,0.82,0.488s0.715,0.174,1.157,0.174
					c0.674,0,1.187-0.155,1.539-0.466s0.528-0.743,0.528-1.297c0-0.284-0.062-0.522-0.185-0.713
					c-0.124-0.191-0.283-0.353-0.478-0.483s-0.412-0.241-0.651-0.331s-0.476-0.172-0.708-0.247l-2.572-0.831
					c-0.487-0.149-0.957-0.359-1.409-0.629c-0.453-0.27-0.854-0.606-1.202-1.011c-0.348-0.404-0.625-0.878-0.831-1.421
					c-0.206-0.543-0.309-1.162-0.309-1.858c0-0.809,0.15-1.529,0.449-2.162s0.719-1.166,1.258-1.6
					c0.539-0.435,1.179-0.764,1.92-0.988s1.554-0.338,2.437-0.338c0.696,0,1.34,0.081,1.932,0.242s1.121,0.376,1.589,0.646
					c0.468,0.27,0.865,0.578,1.19,0.927c0.326,0.348,0.575,0.709,0.747,1.084h1.123v3.391h-4.065V278.387z"/>
			</g>
			<g>
				<g>
					<g>
						<polygon fill="#7C5904" points="218.498,290.391 80.428,290.391 80.428,283.191 218.498,283.191 222.646,286.791 						"/>
					</g>
					<g>
						<polygon fill="#7C5904" points="223.889,283.191 361.959,283.191 361.959,290.391 223.889,290.391 228.036,286.791 						"/>
					</g>
				</g>
				<g>
					<g>
						<polygon fill="#7C5904" points="218.498,304.305 80.428,304.305 80.428,297.105 218.498,297.105 222.646,300.705 						"/>
					</g>
					<g>
						<polygon fill="#7C5904" points="223.889,297.105 361.959,297.105 361.959,304.305 223.889,304.305 228.036,300.705 						"/>
					</g>
				</g>
				<g>
					<g>
						<polygon fill="#7C5904" points="218.498,373.873 80.428,373.873 80.428,366.674 218.498,366.674 222.646,370.273 						"/>
					</g>
					<g>
						<polygon fill="#7C5904" points="223.889,366.674 361.959,366.674 361.959,373.873 223.889,373.873 228.036,370.273 						"/>
					</g>
				</g>
				<g>
					<g>
						<polygon fill="#7C5904" points="218.498,318.219 80.428,318.219 80.428,311.02 218.498,311.02 222.646,314.619 						"/>
					</g>
					<g>
						<polygon fill="#7C5904" points="223.889,311.02 361.959,311.02 361.959,318.219 223.889,318.219 228.036,314.619 						"/>
					</g>
				</g>
				<g>
					<g>
						<polygon fill="#7C5904" points="218.498,332.133 80.428,332.133 80.428,324.934 218.498,324.934 222.646,328.533 						"/>
					</g>
					<g>
						<polygon fill="#7C5904" points="223.889,324.934 361.959,324.934 361.959,332.133 223.889,332.133 228.036,328.533 						"/>
					</g>
				</g>
				<g>
					<g>
						<polygon fill="#7C5904" points="218.498,346.047 80.428,346.047 80.428,338.846 218.498,338.846 222.646,342.445 						"/>
					</g>
					<g>
						<polygon fill="#7C5904" points="223.889,338.846 361.959,338.846 361.959,346.047 223.889,346.047 228.036,342.445 						"/>
					</g>
				</g>
				<g>
					<g>
						<polygon fill="#7C5904" points="218.498,359.961 80.428,359.961 80.428,352.76 218.498,352.76 222.646,356.359 						"/>
					</g>
					<g>
						<polygon fill="#7C5904" points="223.889,352.76 361.959,352.76 361.959,359.961 223.889,359.961 228.036,356.359 						"/>
					</g>
				</g>
			</g>
		</g>
		<g>
			<g>
				<path fill="#398EB0" d="M49.496,399.206h1.583v-10.86h-1.583v-3.088h7.008l5.02,12.286l4.661-12.286h7.109v3.088h-1.583v10.86
					h1.561v3.077h-6.368v-3.077h1.168v-9.793l-5.099,12.668h-3.156l-5.188-12.331v9.456h1.269v3.077h-6.401V399.206z"/>
			</g>
			<g>
				<g>
					<g>
						<polygon fill="#7C5904" points="218.498,401.701 80.428,401.701 80.428,394.502 218.498,394.502 222.646,398.102 						"/>
					</g>
					<g>
						<polygon fill="#7C5904" points="223.889,394.502 361.959,394.502 361.959,401.701 223.889,401.701 228.036,398.102 						"/>
					</g>
				</g>
				<g>
					<g>
						<polygon fill="#7C5904" points="218.498,415.615 80.428,415.615 80.428,408.416 218.498,408.416 222.646,412.016 						"/>
					</g>
					<g>
						<polygon fill="#7C5904" points="223.889,408.416 361.959,408.416 361.959,415.615 223.889,415.615 228.036,412.016 						"/>
					</g>
				</g>
				<g>
					<g>
						<polygon fill="#7C5904" points="218.498,485.184 80.428,485.184 80.428,477.984 218.498,477.984 222.646,481.584 						"/>
					</g>
					<g>
						<polygon fill="#7C5904" points="223.889,477.984 361.959,477.984 361.959,485.184 223.889,485.184 228.036,481.584 						"/>
					</g>
				</g>
				<g>
					<g>
						<polygon fill="#7C5904" points="218.498,429.529 80.428,429.529 80.428,422.33 218.498,422.33 222.646,425.93 						"/>
					</g>
					<g>
						<polygon fill="#7C5904" points="223.889,422.33 361.959,422.33 361.959,429.529 223.889,429.529 228.036,425.93 						"/>
					</g>
				</g>
				<g>
					<g>
						<polygon fill="#7C5904" points="218.498,443.443 80.428,443.443 80.428,436.244 218.498,436.244 222.646,439.844 						"/>
					</g>
					<g>
						<polygon fill="#7C5904" points="223.889,436.244 361.959,436.244 361.959,443.443 223.889,443.443 228.036,439.844 						"/>
					</g>
				</g>
				<g>
					<g>
						<polygon fill="#7C5904" points="218.498,457.357 80.428,457.357 80.428,450.156 218.498,450.156 222.646,453.756 						"/>
					</g>
					<g>
						<polygon fill="#7C5904" points="223.889,450.156 361.959,450.156 361.959,457.357 223.889,457.357 228.036,453.756 						"/>
					</g>
				</g>
				<g>
					<g>
						<polygon fill="#7C5904" points="218.498,471.271 80.428,471.271 80.428,464.07 218.498,464.07 222.646,467.67 						"/>
					</g>
					<g>
						<polygon fill="#7C5904" points="223.889,464.07 361.959,464.07 361.959,471.271 223.889,471.271 228.036,467.67 						"/>
					</g>
				</g>
			</g>
		</g>
		<g>
			<g>
				<g>
					<g>
						<polygon fill="#7C5904" points="218.498,67.77 80.428,67.77 80.428,60.568 218.498,60.568 222.646,64.17 						"/>
					</g>
					<g>
						<polygon fill="#7C5904" points="223.889,60.568 361.959,60.568 361.959,67.77 223.889,67.77 228.036,64.17 						"/>
					</g>
				</g>
				<g>
					<g>
						<polygon fill="#7C5904" points="218.498,151.252 80.428,151.252 80.428,144.053 218.498,144.053 222.646,147.652 						"/>
					</g>
					<g>
						<polygon fill="#7C5904" points="223.889,144.053 361.959,144.053 361.959,151.252 223.889,151.252 228.036,147.652 						"/>
					</g>
				</g>
				<g>
					<g>
						<polygon fill="#7C5904" points="218.498,95.598 80.428,95.598 80.428,88.398 218.498,88.398 222.646,91.996 						"/>
					</g>
					<g>
						<polygon fill="#7C5904" points="223.889,88.398 361.959,88.398 361.959,95.598 223.889,95.598 228.036,91.996 						"/>
					</g>
				</g>
				<g>
					<g>
						<polygon fill="#7C5904" points="218.498,81.682 80.428,81.682 80.428,74.482 218.498,74.482 222.646,78.082 						"/>
					</g>
					<g>
						<polygon fill="#7C5904" points="223.889,74.482 361.959,74.482 361.959,81.682 223.889,81.682 228.036,78.082 						"/>
					</g>
				</g>
				<g>
					<g>
						<polygon fill="#7C5904" points="218.498,109.512 80.428,109.512 80.428,102.312 218.498,102.312 222.646,105.91 						"/>
					</g>
					<g>
						<polygon fill="#7C5904" points="223.889,102.312 361.959,102.312 361.959,109.512 223.889,109.512 228.036,105.91 						"/>
					</g>
				</g>
				<g>
					<g>
						<polygon fill="#7C5904" points="218.498,123.424 80.428,123.424 80.428,116.225 218.498,116.225 222.646,119.824 						"/>
					</g>
					<g>
						<polygon fill="#7C5904" points="223.889,116.225 361.959,116.225 361.959,123.424 223.889,123.424 228.036,119.824 						"/>
					</g>
				</g>
				<g>
					<g>
						<polygon fill="#7C5904" points="218.498,137.338 80.428,137.338 80.428,130.139 218.498,130.139 222.646,133.738 						"/>
					</g>
					<g>
						<polygon fill="#7C5904" points="223.889,130.139 361.959,130.139 361.959,137.338 223.889,137.338 228.036,133.738 						"/>
					</g>
				</g>
			</g>
			<g>
				<path fill="#C63706" d="M69.933,54.719c-0.038-0.262-0.129-0.509-0.275-0.74c-0.146-0.232-0.333-0.433-0.562-0.602
					c-0.228-0.168-0.486-0.301-0.774-0.398c-0.289-0.098-0.59-0.146-0.904-0.146c-0.285,0-0.55,0.03-0.797,0.09
					c-0.247,0.061-0.462,0.152-0.646,0.275c-0.183,0.124-0.329,0.283-0.438,0.478c-0.109,0.194-0.163,0.427-0.163,0.696
					c0,0.337,0.073,0.604,0.219,0.803c0.146,0.198,0.333,0.361,0.562,0.488c0.229,0.128,0.481,0.229,0.758,0.304
					s0.546,0.157,0.809,0.247l3.088,1.033c0.427,0.149,0.827,0.355,1.202,0.617c0.375,0.263,0.698,0.581,0.971,0.955
					c0.273,0.374,0.489,0.805,0.646,1.291c0.157,0.487,0.236,1.033,0.236,1.641c0,0.823-0.151,1.575-0.455,2.257
					c-0.303,0.682-0.728,1.266-1.274,1.752s-1.202,0.864-1.965,1.134s-1.61,0.404-2.538,0.404c-0.651,0-1.267-0.072-1.847-0.219
					c-0.581-0.146-1.11-0.357-1.589-0.635c-0.479-0.276-0.898-0.607-1.258-0.993s-0.64-0.822-0.842-1.309h-1.157v-3.38h4.065v0.695
					c0,0.338,0.054,0.648,0.163,0.933c0.109,0.284,0.271,0.531,0.489,0.741s0.49,0.372,0.82,0.488s0.715,0.174,1.157,0.174
					c0.674,0,1.187-0.155,1.539-0.466s0.528-0.743,0.528-1.297c0-0.284-0.062-0.522-0.185-0.713
					c-0.124-0.191-0.283-0.353-0.478-0.483s-0.412-0.241-0.651-0.331s-0.476-0.172-0.708-0.247l-2.572-0.831
					c-0.487-0.149-0.957-0.359-1.409-0.629c-0.453-0.27-0.854-0.606-1.202-1.011c-0.348-0.404-0.625-0.878-0.831-1.421
					c-0.206-0.543-0.309-1.162-0.309-1.858c0-0.809,0.15-1.529,0.449-2.162s0.719-1.166,1.258-1.6
					c0.539-0.435,1.179-0.764,1.92-0.988s1.554-0.338,2.437-0.338c0.696,0,1.34,0.081,1.932,0.242s1.121,0.376,1.589,0.646
					c0.468,0.27,0.865,0.578,1.19,0.927c0.326,0.348,0.575,0.709,0.747,1.084h1.123v3.391h-4.065V54.719z"/>
			</g>
		</g>
		<g>
			<g>
				<path fill="#398EB0" d="M67.312,161.592h6.469v3.088h-1.381v13.938H68.67l-7.086-11.006v7.929h1.426v3.077h-6.458v-3.077h1.404
					v-10.86h-1.381v-3.088h5.144l7.042,11.152v-8.064h-1.449V161.592z"/>
			</g>
			<g>
				<g>
					<g>
						<polygon fill="#7C5904" points="218.394,192.994 80.324,192.994 80.324,185.795 218.394,185.795 222.542,189.395 						"/>
					</g>
					<g>
						<polygon fill="#7C5904" points="223.785,185.795 361.855,185.795 361.855,192.994 223.785,192.994 227.932,189.395 						"/>
					</g>
				</g>
				<g>
					<g>
						<polygon fill="#7C5904" points="218.394,179.08 80.324,179.08 80.324,171.881 218.394,171.881 222.542,175.48 						"/>
					</g>
					<g>
						<polygon fill="#7C5904" points="223.785,171.881 361.855,171.881 361.855,179.08 223.785,179.08 227.932,175.48 						"/>
					</g>
				</g>
				<g>
					<g>
						<polygon fill="#7C5904" points="218.394,206.908 80.324,206.908 80.324,199.709 218.394,199.709 222.542,203.307 						"/>
					</g>
					<g>
						<polygon fill="#7C5904" points="223.785,199.709 361.855,199.709 361.855,206.908 223.785,206.908 227.932,203.307 						"/>
					</g>
				</g>
				<g>
					<g>
						<polygon fill="#7C5904" points="218.394,234.734 80.324,234.734 80.324,227.535 218.394,227.535 222.542,231.135 						"/>
					</g>
					<g>
						<polygon fill="#7C5904" points="223.785,227.535 361.855,227.535 361.855,234.734 223.785,234.734 227.932,231.135 						"/>
					</g>
				</g>
				<g>
					<g>
						<polygon fill="#7C5904" points="218.498,220.822 80.428,220.822 80.428,213.623 218.498,213.623 222.646,217.223 						"/>
					</g>
					<g>
						<polygon fill="#7C5904" points="223.889,213.623 361.959,213.623 361.959,220.822 223.889,220.822 228.036,217.223 						"/>
					</g>
				</g>
				<g>
					<g>
						<polygon fill="#7C5904" points="218.394,248.65 80.324,248.65 80.324,241.451 218.394,241.451 222.542,245.049 						"/>
					</g>
					<g>
						<polygon fill="#7C5904" points="223.785,241.451 361.855,241.451 361.855,248.65 223.785,248.65 227.932,245.049 						"/>
					</g>
				</g>
				<g>
					<g>
						<polygon fill="#7C5904" points="218.394,262.562 80.324,262.562 80.324,255.363 218.394,255.363 222.542,258.963 						"/>
					</g>
					<g>
						<polygon fill="#7C5904" points="223.785,255.363 361.855,255.363 361.855,262.562 223.785,262.562 227.932,258.963 						"/>
					</g>
				</g>
			</g>
		</g>
	</g>
</g>
</svg>
