<?xml version="1.0" encoding="utf-8"?>
<!-- Generator: Adobe Illustrator 16.0.4, SVG Export Plug-In . SVG Version: 6.00 Build 0)  -->
<!DOCTYPE svg PUBLIC "-//W3C//DTD SVG 1.1//EN" "http://www.w3.org/Graphics/SVG/1.1/DTD/svg11.dtd">
<svg version="1.1" id="Layer_1" xmlns="http://www.w3.org/2000/svg" xmlns:xlink="http://www.w3.org/1999/xlink" x="0px" y="0px"
	 width="448.746px" height="616.44px" viewBox="0 0 448.746 616.44" enable-background="new 0 0 448.746 616.44"
	 xml:space="preserve">
<rect x="0.5" y="0.5" fill="#FFFFFF" stroke="#C68D06" stroke-miterlimit="10" width="447.746" height="615.44"/>
<g>
	<path fill="#C68D06" d="M343.076,575.97l1.785-1.436c1.575,2.275,3.641,3.92,6.721,3.92c4.445,0,6.476-3.291,6.476-6.791
		c0-4.199-2.485-6.439-5.916-6.439c-2.66,0-4.48,1.189-5.915,3.254l-1.855-0.699l1.016-13.547h13.686l-0.21,2.275h-11.411
		l-0.699,8.996c1.26-1.471,2.975-2.416,5.74-2.416c4.69,0,8.016,3.291,8.016,8.471c0,5.182-3.396,9.066-8.891,9.066
		C347.871,580.624,344.826,578.733,343.076,575.97z"/>
	<path fill="#C68D06" d="M379.723,556.507h-13.337v-2.275h15.927v2.135l-10.956,23.768h-2.556L379.723,556.507z"/>
	<path fill="#C68D06" d="M388.61,554.231h2.556l7.735,22.613h0.07l7.771-22.613h2.416l-9.102,26.008h-2.345L388.61,554.231z"/>
</g>
<g>
	<g>
		<rect x="80.215" y="158.468" fill="#C0DDE7" width="281.739" height="7.199"/>
	</g>
	<g>
		<rect x="80.216" y="172.38" fill="#C0DDE7" width="281.738" height="7.199"/>
	</g>
	<g>
		<rect x="80.215" y="186.294" fill="#C0DDE7" width="281.739" height="7.201"/>
	</g>
	<g>
		<rect x="80.215" y="200.208" fill="#C0DDE7" width="281.739" height="7.199"/>
	</g>
	<g>
		<rect x="80.215" y="214.122" fill="#C0DDE7" width="281.739" height="7.199"/>
	</g>
	<g>
		<rect x="80.215" y="228.036" fill="#C0DDE7" width="281.739" height="7.199"/>
	</g>
	<g>
		<rect x="80.216" y="241.95" fill="#C0DDE7" width="281.738" height="7.199"/>
	</g>
	<g>
		<rect x="80.216" y="255.862" fill="#C0DDE7" width="281.738" height="7.201"/>
	</g>
	<g>
		<rect x="80.215" y="269.778" fill="#C0DDE7" width="281.739" height="7.199"/>
	</g>
	<g>
		<rect x="80.216" y="283.69" fill="#C0DDE7" width="281.738" height="7.201"/>
	</g>
	<g>
		<rect x="80.215" y="297.604" fill="#C0DDE7" width="281.739" height="7.201"/>
	</g>
	<g>
		<rect x="80.215" y="311.519" fill="#C0DDE7" width="281.739" height="7.201"/>
	</g>
	<g>
		<rect x="80.215" y="325.433" fill="#C0DDE7" width="281.739" height="7.199"/>
	</g>
	<g>
		<rect x="80.216" y="339.347" fill="#C0DDE7" width="281.738" height="7.199"/>
	</g>
	<g>
		<rect x="80.215" y="353.261" fill="#C0DDE7" width="281.739" height="7.199"/>
	</g>
	<g>
		<rect x="80.215" y="367.175" fill="#C0DDE7" width="281.739" height="7.199"/>
	</g>
	<g>
		<rect x="80.215" y="381.089" fill="#C0DDE7" width="281.739" height="7.199"/>
	</g>
	<g>
		<rect x="80.215" y="395.003" fill="#C0DDE7" width="281.739" height="7.199"/>
	</g>
	<g>
		<rect x="80.216" y="408.915" fill="#C0DDE7" width="281.738" height="7.199"/>
	</g>
	<g>
		<rect x="80.215" y="422.829" fill="#C0DDE7" width="281.739" height="7.201"/>
	</g>
	<g>
		<rect x="80.216" y="436.743" fill="#C0DDE7" width="281.738" height="7.199"/>
	</g>
	<g>
		<rect x="80.215" y="450.657" fill="#C0DDE7" width="281.739" height="7.199"/>
	</g>
	<g>
		<rect x="80.216" y="464.571" fill="#C0DDE7" width="281.738" height="7.199"/>
	</g>
	<g>
		<rect x="80.215" y="478.485" fill="#C0DDE7" width="281.739" height="7.199"/>
	</g>
	<g>
		<rect x="80.215" y="61.069" fill="#C0DDE7" width="281.739" height="7.201"/>
	</g>
	<g>
		<rect x="80.216" y="74.983" fill="#C0DDE7" width="281.738" height="7.201"/>
	</g>
	<g>
		<rect x="80.216" y="144.554" fill="#C0DDE7" width="281.738" height="7.199"/>
	</g>
	<g>
		<rect x="80.215" y="88.897" fill="#C0DDE7" width="281.739" height="7.199"/>
	</g>
	<g>
		<rect x="80.216" y="102.812" fill="#C0DDE7" width="281.738" height="7.199"/>
	</g>
	<g>
		<rect x="80.216" y="116.726" fill="#C0DDE7" width="281.738" height="7.199"/>
	</g>
	<g>
		<rect x="80.216" y="130.64" fill="#C0DDE7" width="281.738" height="7.199"/>
	</g>
	<g>
		<g>
			<g>
				<path fill="#C63706" d="M58.991,274.093h6.536c0.779,0,1.525,0.102,2.24,0.303c0.715,0.203,1.382,0.487,1.999,0.854
					c0.618,0.367,1.18,0.808,1.685,1.32c0.506,0.513,0.938,1.084,1.297,1.713s0.636,1.306,0.831,2.032s0.292,1.482,0.292,2.269
					s-0.097,1.542-0.292,2.269s-0.472,1.405-0.831,2.038s-0.792,1.209-1.297,1.729c-0.505,0.521-1.066,0.966-1.685,1.337
					c-0.617,0.37-1.284,0.656-1.999,0.859c-0.715,0.201-1.461,0.303-2.24,0.303h-6.536v-3.077h1.359v-10.86h-1.359V274.093z
					 M64.079,277.181v10.86h1.426c0.606,0,1.179-0.143,1.718-0.427s1.007-0.672,1.404-1.162s0.711-1.067,0.943-1.729
					c0.232-0.663,0.348-1.376,0.348-2.14c0-0.756-0.116-1.464-0.348-2.123c-0.232-0.658-0.546-1.231-0.943-1.718
					s-0.865-0.868-1.404-1.146s-1.112-0.416-1.718-0.416H64.079z"/>
			</g>
			<g>
				<g>
					<g>
						<polygon fill="#7C5904" points="218.494,290.892 80.423,290.892 80.423,283.692 218.494,283.692 222.642,287.292 						"/>
					</g>
					<g>
						<polygon fill="#7C5904" points="223.884,283.692 361.955,283.692 361.955,290.892 223.884,290.892 228.032,287.292 						"/>
					</g>
				</g>
				<g>
					<g>
						<polygon fill="#7C5904" points="218.494,304.806 80.423,304.806 80.423,297.606 218.494,297.606 222.642,301.206 						"/>
					</g>
					<g>
						<polygon fill="#7C5904" points="223.884,297.606 361.955,297.606 361.955,304.806 223.884,304.806 228.032,301.206 						"/>
					</g>
				</g>
				<g>
					<g>
						<polygon fill="#7C5904" points="218.494,374.374 80.423,374.374 80.423,367.175 218.494,367.175 222.642,370.774 						"/>
					</g>
					<g>
						<polygon fill="#7C5904" points="223.884,367.175 361.955,367.175 361.955,374.374 223.884,374.374 228.032,370.774 						"/>
					</g>
				</g>
				<g>
					<g>
						<polygon fill="#7C5904" points="218.494,318.72 80.423,318.72 80.423,311.521 218.494,311.521 222.642,315.12 						"/>
					</g>
					<g>
						<polygon fill="#7C5904" points="223.884,311.521 361.955,311.521 361.955,318.72 223.884,318.72 228.032,315.12 						"/>
					</g>
				</g>
				<g>
					<g>
						<polygon fill="#7C5904" points="218.494,332.634 80.423,332.634 80.423,325.435 218.494,325.435 222.642,329.034 						"/>
					</g>
					<g>
						<polygon fill="#7C5904" points="223.884,325.435 361.955,325.435 361.955,332.634 223.884,332.634 228.032,329.034 						"/>
					</g>
				</g>
				<g>
					<g>
						<polygon fill="#7C5904" points="218.494,346.548 80.423,346.548 80.423,339.347 218.494,339.347 222.642,342.946 						"/>
					</g>
					<g>
						<polygon fill="#7C5904" points="223.884,339.347 361.955,339.347 361.955,346.548 223.884,346.548 228.032,342.946 						"/>
					</g>
				</g>
				<g>
					<g>
						<polygon fill="#7C5904" points="218.494,360.462 80.423,360.462 80.423,353.261 218.494,353.261 222.642,356.86 						"/>
					</g>
					<g>
						<polygon fill="#7C5904" points="223.884,353.261 361.955,353.261 361.955,360.462 223.884,360.462 228.032,356.86 						"/>
					</g>
				</g>
			</g>
		</g>
		<g>
			<g>
				<path fill="#398EB0" d="M70.031,390.554c-0.038-0.262-0.129-0.509-0.275-0.74c-0.146-0.232-0.333-0.433-0.562-0.602
					c-0.228-0.168-0.486-0.301-0.774-0.398c-0.289-0.098-0.59-0.146-0.904-0.146c-0.285,0-0.55,0.03-0.797,0.09
					c-0.247,0.061-0.462,0.152-0.646,0.275c-0.183,0.124-0.329,0.283-0.438,0.478c-0.109,0.194-0.163,0.427-0.163,0.696
					c0,0.337,0.073,0.604,0.219,0.803c0.146,0.198,0.333,0.361,0.562,0.488c0.229,0.128,0.481,0.229,0.758,0.304
					s0.546,0.157,0.809,0.247l3.088,1.033c0.427,0.149,0.827,0.355,1.202,0.617c0.375,0.263,0.698,0.581,0.971,0.955
					c0.273,0.374,0.489,0.805,0.646,1.291c0.157,0.487,0.236,1.033,0.236,1.641c0,0.823-0.151,1.575-0.455,2.257
					c-0.303,0.682-0.728,1.266-1.274,1.752s-1.202,0.864-1.965,1.134s-1.61,0.404-2.538,0.404c-0.651,0-1.267-0.072-1.847-0.219
					c-0.581-0.146-1.11-0.357-1.589-0.635c-0.479-0.276-0.898-0.607-1.258-0.993s-0.64-0.822-0.842-1.309h-1.157v-3.38h4.065v0.695
					c0,0.338,0.054,0.648,0.163,0.933c0.109,0.284,0.271,0.531,0.489,0.741s0.49,0.372,0.82,0.488s0.715,0.174,1.157,0.174
					c0.674,0,1.187-0.155,1.539-0.466s0.528-0.743,0.528-1.297c0-0.284-0.062-0.522-0.185-0.713
					c-0.124-0.191-0.283-0.353-0.478-0.483s-0.412-0.241-0.651-0.331s-0.476-0.172-0.708-0.247l-2.572-0.831
					c-0.487-0.149-0.957-0.359-1.409-0.629c-0.453-0.27-0.854-0.606-1.202-1.011c-0.348-0.404-0.625-0.878-0.831-1.421
					c-0.206-0.543-0.309-1.162-0.309-1.858c0-0.809,0.15-1.529,0.449-2.162s0.719-1.166,1.258-1.6
					c0.539-0.435,1.179-0.764,1.92-0.988s1.554-0.338,2.437-0.338c0.696,0,1.34,0.081,1.932,0.242s1.121,0.376,1.589,0.646
					c0.468,0.27,0.865,0.578,1.19,0.927c0.326,0.348,0.575,0.709,0.747,1.084h1.123v3.391h-4.065V390.554z"/>
			</g>
			<g>
				<g>
					<g>
						<polygon fill="#7C5904" points="218.494,402.202 80.423,402.202 80.423,395.003 218.494,395.003 222.642,398.603 						"/>
					</g>
					<g>
						<polygon fill="#7C5904" points="223.884,395.003 361.955,395.003 361.955,402.202 223.884,402.202 228.032,398.603 						"/>
					</g>
				</g>
				<g>
					<g>
						<polygon fill="#7C5904" points="218.494,416.116 80.423,416.116 80.423,408.917 218.494,408.917 222.642,412.517 						"/>
					</g>
					<g>
						<polygon fill="#7C5904" points="223.884,408.917 361.955,408.917 361.955,416.116 223.884,416.116 228.032,412.517 						"/>
					</g>
				</g>
				<g>
					<g>
						<polygon fill="#7C5904" points="218.494,485.685 80.423,485.685 80.423,478.485 218.494,478.485 222.642,482.085 						"/>
					</g>
					<g>
						<polygon fill="#7C5904" points="223.884,478.485 361.955,478.485 361.955,485.685 223.884,485.685 228.032,482.085 						"/>
					</g>
				</g>
				<g>
					<g>
						<polygon fill="#7C5904" points="218.494,430.03 80.423,430.03 80.423,422.831 218.494,422.831 222.642,426.431 						"/>
					</g>
					<g>
						<polygon fill="#7C5904" points="223.884,422.831 361.955,422.831 361.955,430.03 223.884,430.03 228.032,426.431 						"/>
					</g>
				</g>
				<g>
					<g>
						<polygon fill="#7C5904" points="218.494,443.944 80.423,443.944 80.423,436.745 218.494,436.745 222.642,440.345 						"/>
					</g>
					<g>
						<polygon fill="#7C5904" points="223.884,436.745 361.955,436.745 361.955,443.944 223.884,443.944 228.032,440.345 						"/>
					</g>
				</g>
				<g>
					<g>
						<polygon fill="#7C5904" points="218.494,457.858 80.423,457.858 80.423,450.657 218.494,450.657 222.642,454.257 						"/>
					</g>
					<g>
						<polygon fill="#7C5904" points="223.884,450.657 361.955,450.657 361.955,457.858 223.884,457.858 228.032,454.257 						"/>
					</g>
				</g>
				<g>
					<g>
						<polygon fill="#7C5904" points="218.494,471.772 80.423,471.772 80.423,464.571 218.494,464.571 222.642,468.171 						"/>
					</g>
					<g>
						<polygon fill="#7C5904" points="223.884,464.571 361.955,464.571 361.955,471.772 223.884,471.772 228.032,468.171 						"/>
					</g>
				</g>
			</g>
		</g>
		<g>
			<g>
				<g>
					<g>
						<polygon fill="#7C5904" points="218.494,68.271 80.423,68.271 80.423,61.069 218.494,61.069 222.641,64.671 						"/>
					</g>
					<g>
						<polygon fill="#7C5904" points="223.884,61.069 361.955,61.069 361.955,68.271 223.884,68.271 228.032,64.671 						"/>
					</g>
				</g>
				<g>
					<g>
						<polygon fill="#7C5904" points="218.494,151.753 80.423,151.753 80.423,144.554 218.494,144.554 222.641,148.153 						"/>
					</g>
					<g>
						<polygon fill="#7C5904" points="223.884,144.554 361.955,144.554 361.955,151.753 223.884,151.753 228.032,148.153 						"/>
					</g>
				</g>
				<g>
					<g>
						<polygon fill="#7C5904" points="218.494,96.099 80.423,96.099 80.423,88.899 218.494,88.899 222.641,92.497 						"/>
					</g>
					<g>
						<polygon fill="#7C5904" points="223.884,88.899 361.955,88.899 361.955,96.099 223.884,96.099 228.032,92.497 						"/>
					</g>
				</g>
				<g>
					<g>
						<polygon fill="#7C5904" points="218.494,82.183 80.423,82.183 80.423,74.983 218.494,74.983 222.641,78.583 						"/>
					</g>
					<g>
						<polygon fill="#7C5904" points="223.884,74.983 361.955,74.983 361.955,82.183 223.884,82.183 228.032,78.583 						"/>
					</g>
				</g>
				<g>
					<g>
						<polygon fill="#7C5904" points="218.494,110.013 80.423,110.013 80.423,102.813 218.494,102.813 222.641,106.411 						"/>
					</g>
					<g>
						<polygon fill="#7C5904" points="223.884,102.813 361.955,102.813 361.955,110.013 223.884,110.013 228.032,106.411 						"/>
					</g>
				</g>
				<g>
					<g>
						<polygon fill="#7C5904" points="218.494,123.925 80.423,123.925 80.423,116.726 218.494,116.726 222.641,120.325 						"/>
					</g>
					<g>
						<polygon fill="#7C5904" points="223.884,116.726 361.955,116.726 361.955,123.925 223.884,123.925 228.032,120.325 						"/>
					</g>
				</g>
				<g>
					<g>
						<polygon fill="#7C5904" points="218.494,137.839 80.423,137.839 80.423,130.64 218.494,130.64 222.641,134.239 						"/>
					</g>
					<g>
						<polygon fill="#7C5904" points="223.884,130.64 361.955,130.64 361.955,137.839 223.884,137.839 228.032,134.239 						"/>
					</g>
				</g>
			</g>
			<g>
				<path fill="#C63706" d="M63.503,67.585c-0.958-0.194-1.844-0.552-2.656-1.072c-0.812-0.521-1.517-1.162-2.111-1.926
					c-0.596-0.764-1.06-1.627-1.393-2.589c-0.333-0.962-0.5-1.982-0.5-3.061c0-0.816,0.097-1.601,0.292-2.353
					c0.195-0.753,0.468-1.456,0.82-2.111s0.777-1.251,1.275-1.786c0.498-0.535,1.052-0.993,1.662-1.376
					c0.61-0.381,1.267-0.677,1.971-0.887s1.441-0.314,2.212-0.314s1.51,0.104,2.218,0.314c0.707,0.21,1.366,0.506,1.977,0.887
					c0.61,0.383,1.164,0.841,1.662,1.376c0.498,0.535,0.924,1.131,1.28,1.786c0.355,0.655,0.63,1.358,0.825,2.111
					c0.195,0.752,0.292,1.536,0.292,2.353c0,1.093-0.172,2.126-0.517,3.1s-0.822,1.846-1.432,2.616
					c-0.61,0.771-1.335,1.416-2.173,1.932c-0.838,0.518-1.748,0.861-2.729,1.033c0.232,0.098,0.462,0.204,0.69,0.32
					c0.229,0.116,0.459,0.225,0.691,0.326c0.232,0.101,0.462,0.187,0.691,0.258c0.228,0.071,0.462,0.11,0.702,0.118
					c0.232,0,0.458-0.03,0.679-0.09c0.221-0.06,0.421-0.153,0.601-0.28c0.18-0.128,0.335-0.293,0.466-0.494
					c0.131-0.203,0.219-0.449,0.264-0.742l2.504,1.247c-0.067,0.547-0.223,1.041-0.466,1.482c-0.243,0.441-0.556,0.819-0.938,1.134
					s-0.816,0.559-1.303,0.73s-1.003,0.258-1.55,0.258c-0.442,0-0.885-0.084-1.331-0.252c-0.445-0.169-0.876-0.353-1.291-0.551
					c-0.416-0.198-0.807-0.382-1.174-0.55c-0.367-0.169-0.689-0.253-0.966-0.253c-0.12,0-0.227-0.002-0.32-0.006
					c-0.093-0.004-0.185-0.004-0.275,0s-0.189,0.016-0.297,0.034c-0.109,0.019-0.234,0.054-0.376,0.106L63.503,67.585z
					 M65.076,64.228c0.651,0,1.249-0.141,1.792-0.422c0.542-0.28,1.009-0.662,1.398-1.146c0.389-0.482,0.691-1.044,0.904-1.685
					c0.214-0.64,0.32-1.319,0.32-2.038c0-0.727-0.108-1.411-0.326-2.056c-0.217-0.644-0.522-1.207-0.916-1.689
					c-0.393-0.483-0.859-0.865-1.398-1.146c-0.539-0.281-1.13-0.421-1.774-0.421s-1.235,0.14-1.774,0.421
					c-0.539,0.28-1.003,0.662-1.393,1.146c-0.389,0.482-0.694,1.046-0.916,1.689c-0.221,0.645-0.331,1.329-0.331,2.056
					c0,0.719,0.11,1.398,0.331,2.038c0.221,0.641,0.526,1.202,0.916,1.685c0.389,0.483,0.854,0.865,1.393,1.146
					C63.84,64.087,64.432,64.228,65.076,64.228z"/>
			</g>
		</g>
		<g>
			<g>
				<path fill="#398EB0" d="M67.634,176.041h1.696l-0.764-2.448h-5.233l-0.764,2.448h1.797v3.077h-6.458v-3.077h1.269l4.638-13.948
					h4.503l4.537,13.948h1.235v3.077h-6.458V176.041z M64.22,170.718h3.437l-1.729-5.537L64.22,170.718z"/>
			</g>
			<g>
				<g>
					<g>
						<polygon fill="#7C5904" points="218.389,193.495 80.319,193.495 80.319,186.296 218.389,186.296 222.538,189.896 						"/>
					</g>
					<g>
						<polygon fill="#7C5904" points="223.78,186.296 361.85,186.296 361.85,193.495 223.78,193.495 227.928,189.896 						"/>
					</g>
				</g>
				<g>
					<g>
						<polygon fill="#7C5904" points="218.389,179.581 80.319,179.581 80.319,172.382 218.389,172.382 222.538,175.981 						"/>
					</g>
					<g>
						<polygon fill="#7C5904" points="223.78,172.382 361.85,172.382 361.85,179.581 223.78,179.581 227.928,175.981 						"/>
					</g>
				</g>
				<g>
					<g>
						<polygon fill="#7C5904" points="218.389,207.409 80.319,207.409 80.319,200.21 218.389,200.21 222.538,203.808 						"/>
					</g>
					<g>
						<polygon fill="#7C5904" points="223.78,200.21 361.85,200.21 361.85,207.409 223.78,207.409 227.928,203.808 						"/>
					</g>
				</g>
				<g>
					<g>
						<polygon fill="#7C5904" points="218.389,235.235 80.319,235.235 80.319,228.036 218.389,228.036 222.538,231.636 						"/>
					</g>
					<g>
						<polygon fill="#7C5904" points="223.78,228.036 361.85,228.036 361.85,235.235 223.78,235.235 227.928,231.636 						"/>
					</g>
				</g>
				<g>
					<g>
						<polygon fill="#7C5904" points="218.494,221.323 80.423,221.323 80.423,214.124 218.494,214.124 222.641,217.724 						"/>
					</g>
					<g>
						<polygon fill="#7C5904" points="223.884,214.124 361.955,214.124 361.955,221.323 223.884,221.323 228.032,217.724 						"/>
					</g>
				</g>
				<g>
					<g>
						<polygon fill="#7C5904" points="218.389,249.151 80.319,249.151 80.319,241.952 218.389,241.952 222.538,245.55 						"/>
					</g>
					<g>
						<polygon fill="#7C5904" points="223.78,241.952 361.85,241.952 361.85,249.151 223.78,249.151 227.928,245.55 						"/>
					</g>
				</g>
				<g>
					<g>
						<polygon fill="#7C5904" points="218.389,263.063 80.319,263.063 80.319,255.864 218.389,255.864 222.538,259.464 						"/>
					</g>
					<g>
						<polygon fill="#7C5904" points="223.78,255.864 361.85,255.864 361.85,263.063 223.78,263.063 227.928,259.464 						"/>
					</g>
				</g>
			</g>
		</g>
	</g>
</g>
</svg>
