<?xml version="1.0" encoding="utf-8"?>
<!-- Generator: Adobe Illustrator 16.0.4, SVG Export Plug-In . SVG Version: 6.00 Build 0)  -->
<!DOCTYPE svg PUBLIC "-//W3C//DTD SVG 1.1//EN" "http://www.w3.org/Graphics/SVG/1.1/DTD/svg11.dtd">
<svg version="1.1" id="Layer_1" xmlns="http://www.w3.org/2000/svg" xmlns:xlink="http://www.w3.org/1999/xlink" x="0px" y="0px"
	 width="448.746px" height="616.44px" viewBox="0 0 448.746 616.44" enable-background="new 0 0 448.746 616.44"
	 xml:space="preserve">
<rect x="0.5" y="0.5" fill="#FFFFFF" stroke="#C68D06" stroke-miterlimit="10" width="447.746" height="615.44"/>
<g>
	<path fill="#C68D06" d="M340.102,575.97l1.785-1.436c1.575,2.275,3.641,3.92,6.721,3.92c4.445,0,6.476-3.291,6.476-6.791
		c0-4.199-2.485-6.439-5.916-6.439c-2.66,0-4.48,1.189-5.915,3.254l-1.855-0.699l1.016-13.547h13.686l-0.21,2.275h-11.411
		l-0.699,8.996c1.26-1.471,2.975-2.416,5.74-2.416c4.69,0,8.016,3.291,8.016,8.471c0,5.182-3.396,9.066-8.891,9.066
		C344.896,580.624,341.852,578.733,340.102,575.97z"/>
	<path fill="#C68D06" d="M364.006,573.868c0-3.641,2.59-5.635,6.86-7.49c-3.535-1.576-5.671-3.256-5.671-6.406
		c0-3.186,2.976-6.266,8.051-6.266c5.181,0,8.017,3.08,8.017,6.266c0,3.08-2.065,4.691-5.741,6.336
		c4.411,1.926,6.931,3.781,6.931,7.561c0,3.676-3.395,6.791-9.206,6.791C367.401,580.659,364.006,577.614,364.006,573.868z
		 M380.002,573.729c0-2.906-2.45-4.516-6.896-6.371c-4.585,2.029-6.65,3.605-6.65,6.371c0,2.834,2.835,4.83,6.79,4.83
		C377.167,578.56,380.002,576.669,380.002,573.729z M378.848,560.077c0-2.064-1.716-4.27-5.602-4.27c-3.71,0-5.635,2.1-5.635,4.164
		c0,2.451,1.785,3.676,5.74,5.391C377.237,563.683,378.848,562.493,378.848,560.077z"/>
	<path fill="#C68D06" d="M388.61,554.231h2.556l7.735,22.613h0.07l7.771-22.613h2.416l-9.102,26.008h-2.345L388.61,554.231z"/>
</g>
<g>
	<g>
		<rect x="79.375" y="158.218" fill="#C0DDE7" width="281.739" height="7.199"/>
	</g>
	<g>
		<rect x="79.375" y="172.13" fill="#C0DDE7" width="281.738" height="7.199"/>
	</g>
	<g>
		<rect x="79.375" y="186.044" fill="#C0DDE7" width="281.739" height="7.201"/>
	</g>
	<g>
		<rect x="79.375" y="199.958" fill="#C0DDE7" width="281.739" height="7.199"/>
	</g>
	<g>
		<rect x="79.375" y="213.872" fill="#C0DDE7" width="281.739" height="7.199"/>
	</g>
	<g>
		<rect x="79.375" y="227.786" fill="#C0DDE7" width="281.739" height="7.199"/>
	</g>
	<g>
		<rect x="79.375" y="241.7" fill="#C0DDE7" width="281.738" height="7.199"/>
	</g>
	<g>
		<rect x="79.375" y="255.612" fill="#C0DDE7" width="281.738" height="7.201"/>
	</g>
	<g>
		<rect x="79.375" y="269.528" fill="#C0DDE7" width="281.739" height="7.199"/>
	</g>
	<g>
		<rect x="79.375" y="283.44" fill="#C0DDE7" width="281.738" height="7.201"/>
	</g>
	<g>
		<rect x="79.375" y="297.354" fill="#C0DDE7" width="281.739" height="7.201"/>
	</g>
	<g>
		<rect x="79.375" y="311.269" fill="#C0DDE7" width="281.739" height="7.201"/>
	</g>
	<g>
		<rect x="79.375" y="325.183" fill="#C0DDE7" width="281.739" height="7.199"/>
	</g>
	<g>
		<rect x="79.375" y="339.097" fill="#C0DDE7" width="281.738" height="7.199"/>
	</g>
	<g>
		<rect x="79.375" y="353.011" fill="#C0DDE7" width="281.739" height="7.199"/>
	</g>
	<g>
		<rect x="79.375" y="366.925" fill="#C0DDE7" width="281.739" height="7.199"/>
	</g>
	<g>
		<rect x="79.375" y="380.839" fill="#C0DDE7" width="281.739" height="7.199"/>
	</g>
	<g>
		<rect x="79.375" y="394.753" fill="#C0DDE7" width="281.739" height="7.199"/>
	</g>
	<g>
		<rect x="79.375" y="408.665" fill="#C0DDE7" width="281.738" height="7.199"/>
	</g>
	<g>
		<rect x="79.375" y="422.579" fill="#C0DDE7" width="281.739" height="7.201"/>
	</g>
	<g>
		<rect x="79.375" y="436.493" fill="#C0DDE7" width="281.738" height="7.199"/>
	</g>
	<g>
		<rect x="79.375" y="450.407" fill="#C0DDE7" width="281.739" height="7.199"/>
	</g>
	<g>
		<rect x="79.375" y="464.321" fill="#C0DDE7" width="281.738" height="7.199"/>
	</g>
	<g>
		<rect x="79.375" y="478.235" fill="#C0DDE7" width="281.739" height="7.199"/>
	</g>
	<g>
		<rect x="79.375" y="60.819" fill="#C0DDE7" width="281.739" height="7.201"/>
	</g>
	<g>
		<rect x="79.375" y="74.733" fill="#C0DDE7" width="281.738" height="7.201"/>
	</g>
	<g>
		<rect x="79.375" y="144.304" fill="#C0DDE7" width="281.738" height="7.199"/>
	</g>
	<g>
		<rect x="79.375" y="88.647" fill="#C0DDE7" width="281.739" height="7.199"/>
	</g>
	<g>
		<rect x="79.375" y="102.562" fill="#C0DDE7" width="281.738" height="7.199"/>
	</g>
	<g>
		<rect x="79.375" y="116.476" fill="#C0DDE7" width="281.738" height="7.199"/>
	</g>
	<g>
		<rect x="79.375" y="130.39" fill="#C0DDE7" width="281.738" height="7.199"/>
	</g>
	<g>
		<g>
			<g>
				<path fill="#C63706" d="M62.767,291.003c-0.958-0.194-1.844-0.552-2.656-1.072c-0.812-0.521-1.517-1.162-2.111-1.926
					c-0.596-0.764-1.06-1.627-1.393-2.589c-0.333-0.962-0.5-1.982-0.5-3.061c0-0.816,0.097-1.601,0.292-2.353
					c0.195-0.753,0.468-1.456,0.82-2.111s0.777-1.251,1.275-1.786c0.498-0.535,1.052-0.993,1.662-1.376
					c0.61-0.381,1.267-0.677,1.971-0.887s1.441-0.314,2.212-0.314s1.51,0.104,2.218,0.314c0.707,0.21,1.366,0.506,1.977,0.887
					c0.61,0.383,1.164,0.841,1.662,1.376c0.498,0.535,0.924,1.131,1.28,1.786c0.355,0.655,0.63,1.358,0.825,2.111
					c0.195,0.752,0.292,1.536,0.292,2.353c0,1.093-0.172,2.126-0.517,3.1s-0.822,1.846-1.432,2.616
					c-0.61,0.771-1.335,1.416-2.173,1.932c-0.838,0.518-1.748,0.861-2.729,1.033c0.232,0.098,0.462,0.204,0.69,0.32
					c0.229,0.116,0.459,0.225,0.691,0.326c0.232,0.101,0.462,0.187,0.691,0.258c0.228,0.071,0.462,0.11,0.702,0.118
					c0.232,0,0.458-0.03,0.679-0.09c0.221-0.06,0.421-0.153,0.601-0.28c0.18-0.128,0.335-0.293,0.466-0.494
					c0.131-0.203,0.219-0.449,0.264-0.742l2.504,1.247c-0.067,0.547-0.223,1.041-0.466,1.482c-0.243,0.441-0.556,0.819-0.938,1.134
					s-0.816,0.559-1.303,0.73s-1.003,0.258-1.55,0.258c-0.442,0-0.885-0.084-1.331-0.252c-0.445-0.169-0.876-0.353-1.291-0.551
					c-0.416-0.198-0.807-0.382-1.174-0.55c-0.367-0.169-0.689-0.253-0.966-0.253c-0.12,0-0.227-0.002-0.32-0.006
					c-0.093-0.004-0.185-0.004-0.275,0s-0.189,0.016-0.297,0.034c-0.109,0.019-0.234,0.054-0.376,0.106L62.767,291.003z
					 M64.339,287.646c0.651,0,1.249-0.141,1.792-0.422c0.542-0.28,1.009-0.662,1.398-1.146c0.389-0.482,0.691-1.044,0.904-1.685
					c0.214-0.64,0.32-1.319,0.32-2.038c0-0.727-0.108-1.411-0.326-2.056c-0.217-0.644-0.522-1.207-0.916-1.689
					c-0.393-0.483-0.859-0.865-1.398-1.146c-0.539-0.281-1.13-0.421-1.774-0.421s-1.235,0.14-1.774,0.421
					c-0.539,0.28-1.003,0.662-1.393,1.146c-0.389,0.482-0.694,1.046-0.916,1.689c-0.221,0.645-0.331,1.329-0.331,2.056
					c0,0.719,0.11,1.398,0.331,2.038c0.221,0.641,0.526,1.202,0.916,1.685c0.389,0.483,0.854,0.865,1.393,1.146
					C63.104,287.505,63.695,287.646,64.339,287.646z"/>
			</g>
			<g>
				<g>
					<g>
						<polygon fill="#7C5904" points="217.653,290.642 79.583,290.642 79.583,283.442 217.653,283.442 221.801,287.042 						"/>
					</g>
					<g>
						<polygon fill="#7C5904" points="223.043,283.442 361.114,283.442 361.114,290.642 223.043,290.642 227.191,287.042 						"/>
					</g>
				</g>
				<g>
					<g>
						<polygon fill="#7C5904" points="217.653,304.556 79.583,304.556 79.583,297.356 217.653,297.356 221.801,300.956 						"/>
					</g>
					<g>
						<polygon fill="#7C5904" points="223.043,297.356 361.114,297.356 361.114,304.556 223.043,304.556 227.191,300.956 						"/>
					</g>
				</g>
				<g>
					<g>
						<polygon fill="#7C5904" points="217.653,374.124 79.583,374.124 79.583,366.925 217.653,366.925 221.801,370.524 						"/>
					</g>
					<g>
						<polygon fill="#7C5904" points="223.043,366.925 361.114,366.925 361.114,374.124 223.043,374.124 227.191,370.524 						"/>
					</g>
				</g>
				<g>
					<g>
						<polygon fill="#7C5904" points="217.653,318.47 79.583,318.47 79.583,311.271 217.653,311.271 221.801,314.87 						"/>
					</g>
					<g>
						<polygon fill="#7C5904" points="223.043,311.271 361.114,311.271 361.114,318.47 223.043,318.47 227.191,314.87 						"/>
					</g>
				</g>
				<g>
					<g>
						<polygon fill="#7C5904" points="217.653,332.384 79.583,332.384 79.583,325.185 217.653,325.185 221.801,328.784 						"/>
					</g>
					<g>
						<polygon fill="#7C5904" points="223.043,325.185 361.114,325.185 361.114,332.384 223.043,332.384 227.191,328.784 						"/>
					</g>
				</g>
				<g>
					<g>
						<polygon fill="#7C5904" points="217.653,346.298 79.583,346.298 79.583,339.097 217.653,339.097 221.801,342.696 						"/>
					</g>
					<g>
						<polygon fill="#7C5904" points="223.043,339.097 361.114,339.097 361.114,346.298 223.043,346.298 227.191,342.696 						"/>
					</g>
				</g>
				<g>
					<g>
						<polygon fill="#7C5904" points="217.653,360.212 79.583,360.212 79.583,353.011 217.653,353.011 221.801,356.61 						"/>
					</g>
					<g>
						<polygon fill="#7C5904" points="223.043,353.011 361.114,353.011 361.114,360.212 223.043,360.212 227.191,356.61 						"/>
					</g>
				</g>
			</g>
		</g>
		<g>
			<g>
				<path fill="#398EB0" d="M68.955,402.534v-2.92c-0.464,0.816-0.917,1.415-1.359,1.797s-0.941,0.688-1.5,0.921
					c-0.558,0.232-1.304,0.345-2.24,0.337c-0.464-0.008-0.928-0.062-1.393-0.163c-0.464-0.101-0.914-0.243-1.348-0.427
					s-0.859-0.404-1.274-0.662c-0.416-0.259-0.792-0.557-1.129-0.893c-0.831-0.839-1.477-1.811-1.938-2.915
					c-0.46-1.104-0.69-2.308-0.69-3.61c0-0.801,0.097-1.576,0.292-2.324c0.195-0.749,0.468-1.449,0.82-2.101s0.777-1.245,1.275-1.78
					c0.498-0.535,1.052-0.994,1.662-1.375c0.61-0.383,1.267-0.678,1.971-0.888s1.441-0.314,2.212-0.314
					c0.883,0,1.651,0.118,2.302,0.354c0.651,0.236,1.352,0.676,2.1,1.319h2.516v3.797h-3.47c-0.344-0.532-0.668-0.918-0.972-1.157
					c-0.303-0.239-0.632-0.438-0.988-0.595c-0.355-0.158-0.852-0.236-1.488-0.236c-0.629,0-1.213,0.143-1.752,0.427
					s-1.005,0.668-1.398,1.151c-0.394,0.482-0.702,1.052-0.927,1.707s-0.337,1.327-0.337,2.016c0,0.682,0.101,1.329,0.303,1.943
					c0.202,0.613,0.509,1.166,0.921,1.656s0.891,0.866,1.438,1.129c0.546,0.262,1.13,0.393,1.752,0.393
					c0.793,0,1.486-0.232,2.078-0.696s1.018-1.097,1.28-1.897h-3.246v-3.078h7.884v9.086H68.955z"/>
			</g>
			<g>
				<g>
					<g>
						<polygon fill="#7C5904" points="217.653,401.952 79.583,401.952 79.583,394.753 217.653,394.753 221.801,398.353 						"/>
					</g>
					<g>
						<polygon fill="#7C5904" points="223.043,394.753 361.114,394.753 361.114,401.952 223.043,401.952 227.191,398.353 						"/>
					</g>
				</g>
				<g>
					<g>
						<polygon fill="#7C5904" points="217.653,415.866 79.583,415.866 79.583,408.667 217.653,408.667 221.801,412.267 						"/>
					</g>
					<g>
						<polygon fill="#7C5904" points="223.043,408.667 361.114,408.667 361.114,415.866 223.043,415.866 227.191,412.267 						"/>
					</g>
				</g>
				<g>
					<g>
						<polygon fill="#7C5904" points="217.653,485.435 79.583,485.435 79.583,478.235 217.653,478.235 221.801,481.835 						"/>
					</g>
					<g>
						<polygon fill="#7C5904" points="223.043,478.235 361.114,478.235 361.114,485.435 223.043,485.435 227.191,481.835 						"/>
					</g>
				</g>
				<g>
					<g>
						<polygon fill="#7C5904" points="217.653,429.78 79.583,429.78 79.583,422.581 217.653,422.581 221.801,426.181 						"/>
					</g>
					<g>
						<polygon fill="#7C5904" points="223.043,422.581 361.114,422.581 361.114,429.78 223.043,429.78 227.191,426.181 						"/>
					</g>
				</g>
				<g>
					<g>
						<polygon fill="#7C5904" points="217.653,443.694 79.583,443.694 79.583,436.495 217.653,436.495 221.801,440.095 						"/>
					</g>
					<g>
						<polygon fill="#7C5904" points="223.043,436.495 361.114,436.495 361.114,443.694 223.043,443.694 227.191,440.095 						"/>
					</g>
				</g>
				<g>
					<g>
						<polygon fill="#7C5904" points="217.653,457.608 79.583,457.608 79.583,450.407 217.653,450.407 221.801,454.007 						"/>
					</g>
					<g>
						<polygon fill="#7C5904" points="223.043,450.407 361.114,450.407 361.114,457.608 223.043,457.608 227.191,454.007 						"/>
					</g>
				</g>
				<g>
					<g>
						<polygon fill="#7C5904" points="217.653,471.522 79.583,471.522 79.583,464.321 217.653,464.321 221.801,467.921 						"/>
					</g>
					<g>
						<polygon fill="#7C5904" points="223.043,464.321 361.114,464.321 361.114,471.522 223.043,471.522 227.191,467.921 						"/>
					</g>
				</g>
			</g>
		</g>
		<g>
			<g>
				<g>
					<g>
						<polygon fill="#7C5904" points="217.653,68.021 79.583,68.021 79.583,60.819 217.653,60.819 221.8,64.421 						"/>
					</g>
					<g>
						<polygon fill="#7C5904" points="223.043,60.819 361.114,60.819 361.114,68.021 223.043,68.021 227.191,64.421 						"/>
					</g>
				</g>
				<g>
					<g>
						<polygon fill="#7C5904" points="217.653,151.503 79.583,151.503 79.583,144.304 217.653,144.304 221.8,147.903 						"/>
					</g>
					<g>
						<polygon fill="#7C5904" points="223.043,144.304 361.114,144.304 361.114,151.503 223.043,151.503 227.191,147.903 						"/>
					</g>
				</g>
				<g>
					<g>
						<polygon fill="#7C5904" points="217.653,95.849 79.583,95.849 79.583,88.649 217.653,88.649 221.8,92.247 						"/>
					</g>
					<g>
						<polygon fill="#7C5904" points="223.043,88.649 361.114,88.649 361.114,95.849 223.043,95.849 227.191,92.247 						"/>
					</g>
				</g>
				<g>
					<g>
						<polygon fill="#7C5904" points="217.653,81.933 79.583,81.933 79.583,74.733 217.653,74.733 221.8,78.333 						"/>
					</g>
					<g>
						<polygon fill="#7C5904" points="223.043,74.733 361.114,74.733 361.114,81.933 223.043,81.933 227.191,78.333 						"/>
					</g>
				</g>
				<g>
					<g>
						<polygon fill="#7C5904" points="217.653,109.763 79.583,109.763 79.583,102.563 217.653,102.563 221.8,106.161 						"/>
					</g>
					<g>
						<polygon fill="#7C5904" points="223.043,102.563 361.114,102.563 361.114,109.763 223.043,109.763 227.191,106.161 						"/>
					</g>
				</g>
				<g>
					<g>
						<polygon fill="#7C5904" points="217.653,123.675 79.583,123.675 79.583,116.476 217.653,116.476 221.8,120.075 						"/>
					</g>
					<g>
						<polygon fill="#7C5904" points="223.043,116.476 361.114,116.476 361.114,123.675 223.043,123.675 227.191,120.075 						"/>
					</g>
				</g>
				<g>
					<g>
						<polygon fill="#7C5904" points="217.653,137.589 79.583,137.589 79.583,130.39 217.653,130.39 221.8,133.989 						"/>
					</g>
					<g>
						<polygon fill="#7C5904" points="223.043,130.39 361.114,130.39 361.114,137.589 223.043,137.589 227.191,133.989 						"/>
					</g>
				</g>
			</g>
			<g>
				<path fill="#C63706" d="M59.766,50.175h7.289v3.088h-1.797v10.86h3.706c0.097,0,0.193-0.028,0.286-0.084
					c0.094-0.057,0.176-0.13,0.247-0.22c0.071-0.09,0.129-0.187,0.174-0.291c0.045-0.105,0.067-0.206,0.067-0.304v-2.28h3.639V67.2
					H59.766v-3.077h1.763v-10.86h-1.763V50.175z"/>
			</g>
		</g>
		<g>
			<g>
				<path fill="#398EB0" d="M68.477,167.021c-0.419-0.6-0.797-1.024-1.134-1.275s-0.7-0.431-1.089-0.539s-0.797-0.162-1.224-0.162
					c-0.629,0-1.213,0.14-1.752,0.421c-0.539,0.28-1.005,0.662-1.398,1.146c-0.394,0.482-0.702,1.044-0.927,1.685
					c-0.225,0.64-0.337,1.319-0.337,2.038c0,0.727,0.11,1.409,0.331,2.05c0.221,0.64,0.526,1.199,0.916,1.679
					s0.854,0.859,1.393,1.14c0.539,0.281,1.13,0.421,1.774,0.421c0.449,0,0.869-0.072,1.258-0.219
					c0.389-0.146,0.743-0.339,1.061-0.578c0.318-0.239,0.597-0.515,0.837-0.825s0.427-0.635,0.562-0.972l3.616,1.011
					c-0.232,0.733-0.573,1.413-1.022,2.038s-0.99,1.166-1.623,1.623c-0.633,0.457-1.344,0.816-2.134,1.078
					c-0.79,0.262-1.642,0.393-2.555,0.393c-0.771,0-1.509-0.104-2.212-0.314c-0.704-0.209-1.361-0.505-1.971-0.887
					c-0.61-0.382-1.165-0.842-1.662-1.381c-0.498-0.539-0.923-1.137-1.275-1.792s-0.625-1.358-0.82-2.111
					c-0.195-0.752-0.292-1.536-0.292-2.353c0-1.221,0.213-2.364,0.64-3.431c0.427-1.067,1.011-1.999,1.752-2.797
					c0.741-0.797,1.612-1.426,2.611-1.887c1-0.46,2.076-0.69,3.229-0.69c0.921,0,1.696,0.114,2.325,0.343s1.321,0.679,2.078,1.353
					h2.516v3.797H68.477z"/>
			</g>
			<g>
				<g>
					<g>
						<polygon fill="#7C5904" points="217.548,193.245 79.478,193.245 79.478,186.046 217.548,186.046 221.697,189.646 						"/>
					</g>
					<g>
						<polygon fill="#7C5904" points="222.939,186.046 361.009,186.046 361.009,193.245 222.939,193.245 227.087,189.646 						"/>
					</g>
				</g>
				<g>
					<g>
						<polygon fill="#7C5904" points="217.548,179.331 79.478,179.331 79.478,172.132 217.548,172.132 221.697,175.731 						"/>
					</g>
					<g>
						<polygon fill="#7C5904" points="222.939,172.132 361.009,172.132 361.009,179.331 222.939,179.331 227.087,175.731 						"/>
					</g>
				</g>
				<g>
					<g>
						<polygon fill="#7C5904" points="217.548,207.159 79.478,207.159 79.478,199.96 217.548,199.96 221.697,203.558 						"/>
					</g>
					<g>
						<polygon fill="#7C5904" points="222.939,199.96 361.009,199.96 361.009,207.159 222.939,207.159 227.087,203.558 						"/>
					</g>
				</g>
				<g>
					<g>
						<polygon fill="#7C5904" points="217.548,234.985 79.478,234.985 79.478,227.786 217.548,227.786 221.697,231.386 						"/>
					</g>
					<g>
						<polygon fill="#7C5904" points="222.939,227.786 361.009,227.786 361.009,234.985 222.939,234.985 227.087,231.386 						"/>
					</g>
				</g>
				<g>
					<g>
						<polygon fill="#7C5904" points="217.653,221.073 79.583,221.073 79.583,213.874 217.653,213.874 221.8,217.474 						"/>
					</g>
					<g>
						<polygon fill="#7C5904" points="223.043,213.874 361.114,213.874 361.114,221.073 223.043,221.073 227.191,217.474 						"/>
					</g>
				</g>
				<g>
					<g>
						<polygon fill="#7C5904" points="217.548,248.901 79.478,248.901 79.478,241.702 217.548,241.702 221.697,245.3 						"/>
					</g>
					<g>
						<polygon fill="#7C5904" points="222.939,241.702 361.009,241.702 361.009,248.901 222.939,248.901 227.087,245.3 						"/>
					</g>
				</g>
				<g>
					<g>
						<polygon fill="#7C5904" points="217.548,262.813 79.478,262.813 79.478,255.614 217.548,255.614 221.697,259.214 						"/>
					</g>
					<g>
						<polygon fill="#7C5904" points="222.939,255.614 361.009,255.614 361.009,262.813 222.939,262.813 227.087,259.214 						"/>
					</g>
				</g>
			</g>
		</g>
	</g>
</g>
</svg>
