<?xml version="1.0" encoding="utf-8"?>
<!-- Generator: Adobe Illustrator 16.0.4, SVG Export Plug-In . SVG Version: 6.00 Build 0)  -->
<!DOCTYPE svg PUBLIC "-//W3C//DTD SVG 1.1//EN" "http://www.w3.org/Graphics/SVG/1.1/DTD/svg11.dtd">
<svg version="1.1" id="Layer_1" xmlns="http://www.w3.org/2000/svg" xmlns:xlink="http://www.w3.org/1999/xlink" x="0px" y="0px"
	 width="448.746px" height="616.44px" viewBox="0 0 448.746 616.44" enable-background="new 0 0 448.746 616.44"
	 xml:space="preserve">
<rect x="0.5" y="0.5" fill="#FFFFFF" stroke="#C68D06" stroke-miterlimit="10" width="447.746" height="615.44"/>
<g>
	<path fill="#C68D06" d="M338.633,577.97l1.785-1.436c1.575,2.275,3.641,3.92,6.721,3.92c4.445,0,6.476-3.291,6.476-6.791
		c0-4.199-2.485-6.439-5.916-6.439c-2.66,0-4.48,1.189-5.915,3.254l-1.855-0.699l1.016-13.547h13.687l-0.211,2.275h-11.411
		l-0.7,8.996c1.261-1.471,2.976-2.416,5.741-2.416c4.69,0,8.016,3.291,8.016,8.471c0,5.182-3.396,9.066-8.891,9.066
		C343.429,582.624,340.383,580.733,338.633,577.97z"/>
	<path fill="#C68D06" d="M362.538,575.868c0-3.641,2.59-5.635,6.86-7.49c-3.535-1.576-5.671-3.256-5.671-6.406
		c0-3.186,2.976-6.266,8.052-6.266c5.18,0,8.016,3.08,8.016,6.266c0,3.08-2.065,4.691-5.741,6.336
		c4.411,1.926,6.931,3.781,6.931,7.561c0,3.676-3.395,6.791-9.205,6.791C365.933,582.659,362.538,579.614,362.538,575.868z
		 M378.534,575.729c0-2.906-2.45-4.516-6.896-6.371c-4.585,2.029-6.65,3.605-6.65,6.371c0,2.834,2.835,4.83,6.791,4.83
		C375.699,580.56,378.534,578.669,378.534,575.729z M377.378,562.077c0-2.064-1.715-4.27-5.6-4.27c-3.711,0-5.636,2.1-5.636,4.164
		c0,2.451,1.785,3.676,5.74,5.391C375.769,565.683,377.378,564.493,377.378,562.077z"/>
	<path fill="#C68D06" d="M389.208,556.231h8.681c5.776,0,8.996,2.451,8.996,7c0,4.201-2.45,6.301-6.195,7.002l6.546,11.9h-2.801
		l-6.336-11.621h-6.44v11.621h-2.45V556.231z M397.713,568.308c4.271,0,6.686-1.225,6.686-4.971c0-3.57-2.38-4.83-6.721-4.83h-6.021
		v9.801H397.713z"/>
</g>
<g>
	<rect x="80.212" y="158.3" fill="#C0DDE7" width="281.739" height="7.199"/>
</g>
<g>
	<rect x="80.212" y="172.214" fill="#C0DDE7" width="281.739" height="7.199"/>
</g>
<g>
	<rect x="80.212" y="186.128" fill="#C0DDE7" width="281.739" height="7.201"/>
</g>
<g>
	<rect x="80.212" y="200.042" fill="#C0DDE7" width="281.739" height="7.199"/>
</g>
<g>
	<rect x="80.212" y="213.955" fill="#C0DDE7" width="281.739" height="7.2"/>
</g>
<g>
	<rect x="80.212" y="227.868" fill="#C0DDE7" width="281.739" height="7.201"/>
</g>
<g>
	<rect x="80.212" y="241.783" fill="#C0DDE7" width="281.739" height="7.199"/>
</g>
<g>
	<rect x="80.212" y="255.696" fill="#C0DDE7" width="281.739" height="7.2"/>
</g>
<g>
	<rect x="80.212" y="269.612" fill="#C0DDE7" width="281.739" height="7.199"/>
</g>
<g>
	<rect x="80.212" y="283.524" fill="#C0DDE7" width="281.739" height="7.2"/>
</g>
<g>
	<rect x="80.212" y="297.438" fill="#C0DDE7" width="281.739" height="7.199"/>
</g>
<g>
	<rect x="80.212" y="311.353" fill="#C0DDE7" width="281.739" height="7.199"/>
</g>
<g>
	<rect x="80.212" y="325.267" fill="#C0DDE7" width="281.739" height="7.199"/>
</g>
<g>
	<rect x="80.212" y="339.18" fill="#C0DDE7" width="281.739" height="7.2"/>
</g>
<g>
	<rect x="80.212" y="353.095" fill="#C0DDE7" width="281.739" height="7.199"/>
</g>
<g>
	<rect x="80.212" y="367.007" fill="#C0DDE7" width="281.739" height="7.201"/>
</g>
<g>
	<rect x="80.212" y="380.921" fill="#C0DDE7" width="281.739" height="7.199"/>
</g>
<g>
	<rect x="80.212" y="394.835" fill="#C0DDE7" width="281.739" height="7.199"/>
</g>
<g>
	<rect x="80.212" y="408.749" fill="#C0DDE7" width="281.739" height="7.199"/>
</g>
<g>
	<rect x="80.212" y="422.663" fill="#C0DDE7" width="281.739" height="7.199"/>
</g>
<g>
	<rect x="80.212" y="436.577" fill="#C0DDE7" width="281.739" height="7.199"/>
</g>
<g>
	<rect x="80.212" y="450.491" fill="#C0DDE7" width="281.739" height="7.199"/>
</g>
<g>
	<rect x="80.212" y="464.404" fill="#C0DDE7" width="281.739" height="7.199"/>
</g>
<g>
	<rect x="80.212" y="478.317" fill="#C0DDE7" width="281.739" height="7.201"/>
</g>
<g>
	<rect x="80.212" y="60.903" fill="#C0DDE7" width="281.739" height="7.199"/>
</g>
<g>
	<rect x="80.212" y="74.817" fill="#C0DDE7" width="281.739" height="7.199"/>
</g>
<g>
	<rect x="80.212" y="144.386" fill="#C0DDE7" width="281.739" height="7.199"/>
</g>
<g>
	<rect x="80.212" y="88.731" fill="#C0DDE7" width="281.739" height="7.199"/>
</g>
<g>
	<rect x="80.212" y="102.646" fill="#C0DDE7" width="281.739" height="7.199"/>
</g>
<g>
	<rect x="80.212" y="116.56" fill="#C0DDE7" width="281.739" height="7.198"/>
</g>
<g>
	<rect x="80.212" y="130.473" fill="#C0DDE7" width="281.739" height="7.2"/>
</g>
<g>
	<g>
		<path fill="#C63706" d="M70.029,278.722c-0.038-0.262-0.129-0.51-0.275-0.74c-0.146-0.232-0.333-0.434-0.562-0.602
			c-0.228-0.168-0.486-0.301-0.774-0.398c-0.289-0.098-0.59-0.146-0.904-0.146c-0.285,0-0.55,0.029-0.797,0.09
			s-0.462,0.152-0.646,0.275c-0.183,0.123-0.329,0.283-0.438,0.477c-0.109,0.195-0.163,0.428-0.163,0.697
			c0,0.336,0.073,0.604,0.219,0.803c0.146,0.197,0.333,0.361,0.562,0.488c0.229,0.127,0.481,0.229,0.758,0.303
			c0.277,0.076,0.546,0.158,0.809,0.248l3.088,1.033c0.427,0.148,0.827,0.355,1.202,0.617s0.698,0.58,0.971,0.955
			c0.273,0.373,0.489,0.805,0.646,1.291s0.236,1.033,0.236,1.641c0,0.822-0.151,1.574-0.455,2.256
			c-0.303,0.682-0.728,1.266-1.274,1.752s-1.202,0.865-1.965,1.135s-1.61,0.404-2.538,0.404c-0.651,0-1.267-0.072-1.847-0.219
			c-0.581-0.146-1.11-0.357-1.589-0.635s-0.898-0.607-1.258-0.994c-0.359-0.385-0.64-0.822-0.842-1.309h-1.157v-3.379h4.065v0.695
			c0,0.338,0.054,0.648,0.163,0.932c0.109,0.285,0.271,0.531,0.489,0.742c0.217,0.209,0.49,0.371,0.82,0.488
			c0.33,0.115,0.715,0.174,1.157,0.174c0.674,0,1.187-0.156,1.539-0.467s0.528-0.742,0.528-1.297c0-0.283-0.062-0.521-0.185-0.713
			c-0.124-0.191-0.283-0.352-0.478-0.482s-0.412-0.242-0.651-0.332s-0.476-0.172-0.708-0.246l-2.572-0.832
			c-0.487-0.148-0.957-0.359-1.409-0.629c-0.453-0.27-0.854-0.605-1.202-1.01c-0.348-0.404-0.625-0.879-0.831-1.422
			c-0.206-0.543-0.309-1.162-0.309-1.857c0-0.809,0.15-1.529,0.449-2.162s0.719-1.166,1.258-1.6c0.539-0.436,1.179-0.764,1.92-0.988
			s1.554-0.338,2.437-0.338c0.696,0,1.34,0.08,1.932,0.242c0.591,0.16,1.121,0.375,1.589,0.645c0.468,0.27,0.865,0.578,1.19,0.928
			c0.326,0.348,0.575,0.709,0.747,1.084h1.123v3.391h-4.065V278.722z"/>
	</g>
	<g>
		<g>
			<g>
				<polygon fill="#7C5904" points="218.49,290.726 80.419,290.726 80.419,283.526 218.49,283.526 222.639,287.126 				"/>
			</g>
			<g>
				<polygon fill="#7C5904" points="223.881,283.526 361.951,283.526 361.951,290.726 223.881,290.726 228.028,287.126 				"/>
			</g>
		</g>
		<g>
			<g>
				<polygon fill="#7C5904" points="218.49,304.64 80.419,304.64 80.419,297.44 218.49,297.44 222.639,301.04 				"/>
			</g>
			<g>
				<polygon fill="#7C5904" points="223.881,297.44 361.951,297.44 361.951,304.64 223.881,304.64 228.028,301.04 				"/>
			</g>
		</g>
		<g>
			<g>
				<polygon fill="#7C5904" points="218.49,374.208 80.419,374.208 80.419,367.009 218.49,367.009 222.639,370.608 				"/>
			</g>
			<g>
				<polygon fill="#7C5904" points="223.881,367.009 361.951,367.009 361.951,374.208 223.881,374.208 228.028,370.608 				"/>
			</g>
		</g>
		<g>
			<g>
				<polygon fill="#7C5904" points="218.49,318.554 80.419,318.554 80.419,311.354 218.49,311.354 222.639,314.954 				"/>
			</g>
			<g>
				<polygon fill="#7C5904" points="223.881,311.354 361.951,311.354 361.951,318.554 223.881,318.554 228.028,314.954 				"/>
			</g>
		</g>
		<g>
			<g>
				<polygon fill="#7C5904" points="218.49,332.468 80.419,332.468 80.419,325.269 218.49,325.269 222.639,328.868 				"/>
			</g>
			<g>
				<polygon fill="#7C5904" points="223.881,325.269 361.951,325.269 361.951,332.468 223.881,332.468 228.028,328.868 				"/>
			</g>
		</g>
		<g>
			<g>
				<polygon fill="#7C5904" points="218.49,346.382 80.419,346.382 80.419,339.181 218.49,339.181 222.639,342.78 				"/>
			</g>
			<g>
				<polygon fill="#7C5904" points="223.881,339.181 361.951,339.181 361.951,346.382 223.881,346.382 228.028,342.78 				"/>
			</g>
		</g>
		<g>
			<g>
				<polygon fill="#7C5904" points="218.49,360.296 80.419,360.296 80.419,353.095 218.49,353.095 222.639,356.694 				"/>
			</g>
			<g>
				<polygon fill="#7C5904" points="223.881,353.095 361.951,353.095 361.951,360.296 223.881,360.296 228.028,356.694 				"/>
			</g>
		</g>
	</g>
</g>
<g>
	<g>
		<g>
			<g>
				<polygon fill="#7C5904" points="218.49,68.104 80.419,68.104 80.419,60.904 218.49,60.904 222.638,64.505 				"/>
			</g>
			<g>
				<polygon fill="#7C5904" points="223.881,60.904 361.951,60.904 361.951,68.104 223.881,68.104 228.029,64.505 				"/>
			</g>
		</g>
		<g>
			<g>
				<polygon fill="#7C5904" points="218.49,151.587 80.419,151.587 80.419,144.388 218.49,144.388 222.638,147.987 				"/>
			</g>
			<g>
				<polygon fill="#7C5904" points="223.881,144.388 361.951,144.388 361.951,151.587 223.881,151.587 228.029,147.987 				"/>
			</g>
		</g>
		<g>
			<g>
				<polygon fill="#7C5904" points="218.49,95.933 80.419,95.933 80.419,88.733 218.49,88.733 222.638,92.332 				"/>
			</g>
			<g>
				<polygon fill="#7C5904" points="223.881,88.733 361.951,88.733 361.951,95.933 223.881,95.933 228.029,92.332 				"/>
			</g>
		</g>
		<g>
			<g>
				<polygon fill="#7C5904" points="218.49,82.017 80.419,82.017 80.419,74.817 218.49,74.817 222.638,78.417 				"/>
			</g>
			<g>
				<polygon fill="#7C5904" points="223.881,74.817 361.951,74.817 361.951,82.017 223.881,82.017 228.029,78.417 				"/>
			</g>
		</g>
		<g>
			<g>
				<polygon fill="#7C5904" points="218.49,109.847 80.419,109.847 80.419,102.647 218.49,102.647 222.638,106.245 				"/>
			</g>
			<g>
				<polygon fill="#7C5904" points="223.881,102.647 361.951,102.647 361.951,109.847 223.881,109.847 228.029,106.245 				"/>
			</g>
		</g>
		<g>
			<g>
				<polygon fill="#7C5904" points="218.49,123.759 80.419,123.759 80.419,116.56 218.49,116.56 222.638,120.159 				"/>
			</g>
			<g>
				<polygon fill="#7C5904" points="223.881,116.56 361.951,116.56 361.951,123.759 223.881,123.759 228.029,120.159 				"/>
			</g>
		</g>
		<g>
			<g>
				<polygon fill="#7C5904" points="218.49,137.673 80.419,137.673 80.419,130.474 218.49,130.474 222.638,134.073 				"/>
			</g>
			<g>
				<polygon fill="#7C5904" points="223.881,130.474 361.951,130.474 361.951,137.673 223.881,137.673 228.029,134.073 				"/>
			</g>
		</g>
	</g>
	<g>
		<path fill="#C63706" d="M67.41,50.259h6.469v3.088h-1.381v13.938h-3.729l-7.086-11.006v7.928h1.426v3.078h-6.458v-3.078h1.404
			V53.347h-1.381v-3.088h5.144l7.042,11.152v-8.064H67.41V50.259z"/>
	</g>
</g>
<g>
	<g>
		<g>
			<g>
				<polygon fill="#7C5904" points="218.49,402.036 80.419,402.036 80.419,394.837 218.49,394.837 222.638,398.438 				"/>
			</g>
			<g>
				<polygon fill="#7C5904" points="223.881,394.837 361.951,394.837 361.951,402.036 223.881,402.036 228.029,398.438 				"/>
			</g>
		</g>
		<g>
			<g>
				<polygon fill="#7C5904" points="218.49,485.519 80.419,485.519 80.419,478.32 218.49,478.32 222.638,481.92 				"/>
			</g>
			<g>
				<polygon fill="#7C5904" points="223.881,478.32 361.951,478.32 361.951,485.519 223.881,485.519 228.029,481.92 				"/>
			</g>
		</g>
		<g>
			<g>
				<polygon fill="#7C5904" points="218.49,429.864 80.419,429.864 80.419,422.665 218.49,422.665 222.638,426.265 				"/>
			</g>
			<g>
				<polygon fill="#7C5904" points="223.881,422.665 361.951,422.665 361.951,429.864 223.881,429.864 228.029,426.265 				"/>
			</g>
		</g>
		<g>
			<g>
				<polygon fill="#7C5904" points="218.49,415.95 80.419,415.95 80.419,408.751 218.49,408.751 222.638,412.349 				"/>
			</g>
			<g>
				<polygon fill="#7C5904" points="223.881,408.751 361.951,408.751 361.951,415.95 223.881,415.95 228.029,412.349 				"/>
			</g>
		</g>
		<g>
			<g>
				<polygon fill="#7C5904" points="218.49,443.778 80.419,443.778 80.419,436.579 218.49,436.579 222.638,440.179 				"/>
			</g>
			<g>
				<polygon fill="#7C5904" points="223.881,436.579 361.951,436.579 361.951,443.778 223.881,443.778 228.029,440.179 				"/>
			</g>
		</g>
		<g>
			<g>
				<polygon fill="#7C5904" points="218.49,457.692 80.419,457.692 80.419,450.493 218.49,450.493 222.638,454.093 				"/>
			</g>
			<g>
				<polygon fill="#7C5904" points="223.881,450.493 361.951,450.493 361.951,457.692 223.881,457.692 228.029,454.093 				"/>
			</g>
		</g>
		<g>
			<g>
				<polygon fill="#7C5904" points="218.49,471.606 80.419,471.606 80.419,464.406 218.49,464.406 222.638,468.005 				"/>
			</g>
			<g>
				<polygon fill="#7C5904" points="223.881,464.406 361.951,464.406 361.951,471.606 223.881,471.606 228.029,468.005 				"/>
			</g>
		</g>
	</g>
	<g>
		<path fill="#398EB0" d="M66.624,384.19h7.289v3.078h-1.797v10.871h1.797v3.076h-7.289v-3.076h1.763v-10.871h-1.763V384.19z"/>
	</g>
</g>
<g>
	<g>
		<path fill="#398EB0" d="M69.821,166.722c-0.038-0.262-0.129-0.51-0.275-0.74c-0.146-0.232-0.333-0.434-0.562-0.602
			c-0.228-0.168-0.486-0.301-0.774-0.398c-0.289-0.098-0.59-0.146-0.904-0.146c-0.285,0-0.55,0.029-0.797,0.09
			s-0.462,0.152-0.646,0.275c-0.183,0.123-0.329,0.283-0.438,0.477c-0.109,0.195-0.163,0.428-0.163,0.697
			c0,0.336,0.073,0.604,0.219,0.803c0.146,0.197,0.333,0.361,0.562,0.488c0.229,0.127,0.481,0.229,0.758,0.303
			c0.277,0.076,0.546,0.158,0.809,0.248l3.088,1.033c0.427,0.148,0.827,0.355,1.202,0.617s0.698,0.58,0.971,0.955
			c0.273,0.373,0.489,0.805,0.646,1.291s0.236,1.033,0.236,1.641c0,0.822-0.151,1.574-0.455,2.256
			c-0.303,0.682-0.728,1.266-1.274,1.752s-1.202,0.865-1.965,1.135s-1.61,0.404-2.538,0.404c-0.651,0-1.267-0.072-1.847-0.219
			c-0.581-0.146-1.11-0.357-1.589-0.635s-0.898-0.607-1.258-0.994c-0.359-0.385-0.64-0.822-0.842-1.309h-1.157v-3.379h4.065v0.695
			c0,0.338,0.054,0.648,0.163,0.932c0.109,0.285,0.271,0.531,0.489,0.742c0.217,0.209,0.49,0.371,0.82,0.488
			c0.33,0.115,0.715,0.174,1.157,0.174c0.674,0,1.187-0.156,1.539-0.467s0.528-0.742,0.528-1.297c0-0.283-0.062-0.521-0.185-0.713
			c-0.124-0.191-0.283-0.352-0.478-0.482s-0.412-0.242-0.651-0.332s-0.476-0.172-0.708-0.246l-2.572-0.832
			c-0.487-0.148-0.957-0.359-1.409-0.629c-0.453-0.27-0.854-0.605-1.202-1.01c-0.348-0.404-0.625-0.879-0.831-1.422
			c-0.206-0.543-0.309-1.162-0.309-1.857c0-0.809,0.15-1.529,0.449-2.162s0.719-1.166,1.258-1.6c0.539-0.436,1.179-0.764,1.92-0.988
			s1.554-0.338,2.437-0.338c0.696,0,1.34,0.08,1.932,0.242c0.591,0.16,1.121,0.375,1.589,0.645c0.468,0.27,0.865,0.578,1.19,0.928
			c0.326,0.348,0.575,0.709,0.747,1.084h1.123v3.391h-4.065V166.722z"/>
	</g>
	<g>
		<g>
			<g>
				<polygon fill="#7C5904" points="218.386,193.329 80.315,193.329 80.315,186.13 218.386,186.13 222.534,189.729 				"/>
			</g>
			<g>
				<polygon fill="#7C5904" points="223.777,186.13 361.847,186.13 361.847,193.329 223.777,193.329 227.925,189.729 				"/>
			</g>
		</g>
		<g>
			<g>
				<polygon fill="#7C5904" points="218.386,179.415 80.315,179.415 80.315,172.216 218.386,172.216 222.534,175.815 				"/>
			</g>
			<g>
				<polygon fill="#7C5904" points="223.777,172.216 361.847,172.216 361.847,179.415 223.777,179.415 227.925,175.815 				"/>
			</g>
		</g>
		<g>
			<g>
				<polygon fill="#7C5904" points="218.386,207.243 80.315,207.243 80.315,200.044 218.386,200.044 222.534,203.644 				"/>
			</g>
			<g>
				<polygon fill="#7C5904" points="223.777,200.044 361.847,200.044 361.847,207.243 223.777,207.243 227.925,203.644 				"/>
			</g>
		</g>
		<g>
			<g>
				<polygon fill="#7C5904" points="218.386,235.069 80.315,235.069 80.315,227.87 218.386,227.87 222.534,231.47 				"/>
			</g>
			<g>
				<polygon fill="#7C5904" points="223.777,227.87 361.847,227.87 361.847,235.069 223.777,235.069 227.925,231.47 				"/>
			</g>
		</g>
		<g>
			<g>
				<polygon fill="#7C5904" points="218.49,221.157 80.419,221.157 80.419,213.958 218.49,213.958 222.638,217.558 				"/>
			</g>
			<g>
				<polygon fill="#7C5904" points="223.881,213.958 361.951,213.958 361.951,221.157 223.881,221.157 228.029,217.558 				"/>
			</g>
		</g>
		<g>
			<g>
				<polygon fill="#7C5904" points="218.386,248.985 80.315,248.985 80.315,241.786 218.386,241.786 222.534,245.385 				"/>
			</g>
			<g>
				<polygon fill="#7C5904" points="223.777,241.786 361.847,241.786 361.847,248.985 223.777,248.985 227.925,245.385 				"/>
			</g>
		</g>
		<g>
			<g>
				<polygon fill="#7C5904" points="218.386,262.897 80.315,262.897 80.315,255.698 218.386,255.698 222.534,259.298 				"/>
			</g>
			<g>
				<polygon fill="#7C5904" points="223.777,255.698 361.847,255.698 361.847,262.897 223.777,262.897 227.925,259.298 				"/>
			</g>
		</g>
	</g>
</g>
</svg>
