<?xml version="1.0" encoding="utf-8"?>
<!-- Generator: Adobe Illustrator 16.0.4, SVG Export Plug-In . SVG Version: 6.00 Build 0)  -->
<!DOCTYPE svg PUBLIC "-//W3C//DTD SVG 1.1//EN" "http://www.w3.org/Graphics/SVG/1.1/DTD/svg11.dtd">
<svg version="1.1" id="Layer_1" xmlns="http://www.w3.org/2000/svg" xmlns:xlink="http://www.w3.org/1999/xlink" x="0px" y="0px"
	 width="448.747px" height="616.439px" viewBox="0 0 448.747 616.439" enable-background="new 0 0 448.747 616.439"
	 xml:space="preserve">
<rect x="0.5" y="0.5" fill="#FFFFFF" stroke="#C68D06" stroke-miterlimit="10" width="447.747" height="615.439"/>
<g>
	<path fill="#C68D06" d="M341.062,575.717l1.785-1.436c1.575,2.275,3.641,3.92,6.721,3.92c4.445,0,6.476-3.291,6.476-6.791
		c0-4.199-2.485-6.439-5.916-6.439c-2.66,0-4.48,1.189-5.915,3.254l-1.855-0.699l1.016-13.547h13.687l-0.211,2.275h-11.411
		l-0.7,8.996c1.261-1.471,2.976-2.416,5.741-2.416c4.69,0,8.016,3.291,8.016,8.471c0,5.182-3.396,9.066-8.891,9.066
		C345.857,580.371,342.812,578.48,341.062,575.717z"/>
	<path fill="#C68D06" d="M365.911,578.061l1.26-1.855c1.506,1.227,2.871,1.996,5.426,1.996c4.726,0,7.631-5.006,7.631-11.48
		c-1.646,1.785-4.061,3.465-7.351,3.465c-5.461,0-8.086-3.396-8.086-8.086c0-4.9,3.465-8.611,8.681-8.611
		c5.11,0,9.171,4.096,9.171,12.986c0,7.98-4.165,13.896-10.116,13.896C369.517,580.371,367.381,579.355,365.911,578.061z
		 M380.157,564.234c-0.524-6.02-3.395-8.576-6.825-8.576c-3.676,0-6.126,2.311-6.126,6.406c0,3.465,1.75,5.986,5.951,5.986
		C376.027,568.051,378.582,566.439,380.157,564.234z"/>
	<path fill="#C68D06" d="M389.36,553.979h2.556l7.735,22.613h0.07l7.771-22.613h2.416l-9.102,26.008h-2.345L389.36,553.979z"/>
</g>
<g>
	<g>
		<rect x="79.883" y="158.217" fill="#C0DDE7" width="281.738" height="7.199"/>
	</g>
	<g>
		<rect x="79.884" y="172.129" fill="#C0DDE7" width="281.738" height="7.199"/>
	</g>
	<g>
		<rect x="79.883" y="186.043" fill="#C0DDE7" width="281.738" height="7.201"/>
	</g>
	<g>
		<rect x="79.883" y="199.957" fill="#C0DDE7" width="281.738" height="7.199"/>
	</g>
	<g>
		<rect x="79.883" y="213.871" fill="#C0DDE7" width="281.738" height="7.199"/>
	</g>
	<g>
		<rect x="79.883" y="227.785" fill="#C0DDE7" width="281.738" height="7.199"/>
	</g>
	<g>
		<rect x="79.884" y="241.699" fill="#C0DDE7" width="281.738" height="7.199"/>
	</g>
	<g>
		<rect x="79.884" y="255.611" fill="#C0DDE7" width="281.738" height="7.201"/>
	</g>
	<g>
		<rect x="79.883" y="269.527" fill="#C0DDE7" width="281.738" height="7.199"/>
	</g>
	<g>
		<rect x="79.884" y="283.439" fill="#C0DDE7" width="281.738" height="7.201"/>
	</g>
	<g>
		<rect x="79.883" y="297.354" fill="#C0DDE7" width="281.738" height="7.201"/>
	</g>
	<g>
		<rect x="79.883" y="311.268" fill="#C0DDE7" width="281.738" height="7.201"/>
	</g>
	<g>
		<rect x="79.883" y="325.182" fill="#C0DDE7" width="281.738" height="7.199"/>
	</g>
	<g>
		<rect x="79.884" y="339.096" fill="#C0DDE7" width="281.738" height="7.199"/>
	</g>
	<g>
		<rect x="79.883" y="353.01" fill="#C0DDE7" width="281.738" height="7.199"/>
	</g>
	<g>
		<rect x="79.883" y="366.924" fill="#C0DDE7" width="281.738" height="7.199"/>
	</g>
	<g>
		<rect x="79.883" y="380.838" fill="#C0DDE7" width="281.738" height="7.199"/>
	</g>
	<g>
		<rect x="79.883" y="394.752" fill="#C0DDE7" width="281.738" height="7.199"/>
	</g>
	<g>
		<rect x="79.884" y="408.664" fill="#C0DDE7" width="281.738" height="7.199"/>
	</g>
	<g>
		<rect x="79.883" y="422.578" fill="#C0DDE7" width="281.738" height="7.201"/>
	</g>
	<g>
		<rect x="79.884" y="436.492" fill="#C0DDE7" width="281.738" height="7.199"/>
	</g>
	<g>
		<rect x="79.883" y="450.406" fill="#C0DDE7" width="281.738" height="7.199"/>
	</g>
	<g>
		<rect x="79.884" y="464.32" fill="#C0DDE7" width="281.738" height="7.199"/>
	</g>
	<g>
		<rect x="79.883" y="478.234" fill="#C0DDE7" width="281.738" height="7.199"/>
	</g>
	<g>
		<rect x="79.883" y="60.818" fill="#C0DDE7" width="281.738" height="7.201"/>
	</g>
	<g>
		<rect x="79.884" y="74.732" fill="#C0DDE7" width="281.738" height="7.201"/>
	</g>
	<g>
		<rect x="79.884" y="144.303" fill="#C0DDE7" width="281.738" height="7.199"/>
	</g>
	<g>
		<rect x="79.883" y="88.646" fill="#C0DDE7" width="281.738" height="7.199"/>
	</g>
	<g>
		<rect x="79.884" y="102.561" fill="#C0DDE7" width="281.738" height="7.199"/>
	</g>
	<g>
		<rect x="79.884" y="116.475" fill="#C0DDE7" width="281.738" height="7.199"/>
	</g>
	<g>
		<rect x="79.884" y="130.389" fill="#C0DDE7" width="281.738" height="7.199"/>
	</g>
	<g>
		<g>
			<g>
				<path fill="#C63706" d="M65.006,291.17c-0.771,0-1.509-0.105-2.212-0.314s-1.361-0.506-1.971-0.887
					c-0.61-0.383-1.165-0.842-1.662-1.377c-0.498-0.535-0.923-1.129-1.275-1.785c-0.352-0.654-0.625-1.357-0.82-2.105
					s-0.292-1.531-0.292-2.348s0.097-1.6,0.292-2.352c0.195-0.754,0.468-1.457,0.82-2.111c0.352-0.656,0.777-1.252,1.275-1.787
					c0.498-0.535,1.052-0.992,1.662-1.375c0.61-0.381,1.267-0.678,1.971-0.887c0.704-0.211,1.441-0.314,2.212-0.314
					s1.51,0.104,2.218,0.314c0.707,0.209,1.366,0.506,1.977,0.887c0.61,0.383,1.164,0.84,1.662,1.375
					c0.498,0.535,0.924,1.131,1.28,1.787c0.355,0.654,0.63,1.357,0.825,2.111c0.195,0.752,0.292,1.535,0.292,2.352
					c0,0.809-0.097,1.59-0.292,2.342s-0.47,1.457-0.825,2.111c-0.356,0.656-0.783,1.25-1.28,1.785
					c-0.498,0.535-1.052,0.994-1.662,1.377c-0.61,0.381-1.27,0.678-1.977,0.887C66.517,291.064,65.777,291.17,65.006,291.17z
					 M65.006,287.645c0.651,0,1.249-0.141,1.792-0.422c0.542-0.281,1.009-0.662,1.398-1.146c0.389-0.482,0.691-1.043,0.904-1.684
					c0.214-0.641,0.32-1.32,0.32-2.039c0-0.727-0.108-1.41-0.326-2.055s-0.522-1.207-0.916-1.689
					c-0.393-0.484-0.859-0.865-1.398-1.146s-1.13-0.42-1.774-0.42s-1.235,0.139-1.774,0.42s-1.003,0.662-1.393,1.146
					c-0.389,0.482-0.694,1.045-0.916,1.689c-0.221,0.645-0.331,1.328-0.331,2.055c0,0.719,0.11,1.398,0.331,2.039
					c0.221,0.641,0.526,1.201,0.916,1.684c0.389,0.484,0.854,0.865,1.393,1.146S64.362,287.645,65.006,287.645z"/>
			</g>
			<g>
				<g>
					<g>
						<polygon fill="#7C5904" points="218.161,290.641 80.091,290.641 80.091,283.441 218.161,283.441 222.31,287.041 						"/>
					</g>
					<g>
						<polygon fill="#7C5904" points="223.552,283.441 361.622,283.441 361.622,290.641 223.552,290.641 227.699,287.041 						"/>
					</g>
				</g>
				<g>
					<g>
						<polygon fill="#7C5904" points="218.161,304.555 80.091,304.555 80.091,297.355 218.161,297.355 222.31,300.955 						"/>
					</g>
					<g>
						<polygon fill="#7C5904" points="223.552,297.355 361.622,297.355 361.622,304.555 223.552,304.555 227.699,300.955 						"/>
					</g>
				</g>
				<g>
					<g>
						<polygon fill="#7C5904" points="218.161,374.123 80.091,374.123 80.091,366.924 218.161,366.924 222.31,370.523 						"/>
					</g>
					<g>
						<polygon fill="#7C5904" points="223.552,366.924 361.622,366.924 361.622,374.123 223.552,374.123 227.699,370.523 						"/>
					</g>
				</g>
				<g>
					<g>
						<polygon fill="#7C5904" points="218.161,318.469 80.091,318.469 80.091,311.27 218.161,311.27 222.31,314.869 						"/>
					</g>
					<g>
						<polygon fill="#7C5904" points="223.552,311.27 361.622,311.27 361.622,318.469 223.552,318.469 227.699,314.869 						"/>
					</g>
				</g>
				<g>
					<g>
						<polygon fill="#7C5904" points="218.161,332.383 80.091,332.383 80.091,325.184 218.161,325.184 222.31,328.783 						"/>
					</g>
					<g>
						<polygon fill="#7C5904" points="223.552,325.184 361.622,325.184 361.622,332.383 223.552,332.383 227.699,328.783 						"/>
					</g>
				</g>
				<g>
					<g>
						<polygon fill="#7C5904" points="218.161,346.297 80.091,346.297 80.091,339.096 218.161,339.096 222.31,342.695 						"/>
					</g>
					<g>
						<polygon fill="#7C5904" points="223.552,339.096 361.622,339.096 361.622,346.297 223.552,346.297 227.699,342.695 						"/>
					</g>
				</g>
				<g>
					<g>
						<polygon fill="#7C5904" points="218.161,360.211 80.091,360.211 80.091,353.01 218.161,353.01 222.31,356.609 						"/>
					</g>
					<g>
						<polygon fill="#7C5904" points="223.552,353.01 361.622,353.01 361.622,360.211 223.552,360.211 227.699,356.609 						"/>
					</g>
				</g>
			</g>
		</g>
		<g>
			<g>
				<path fill="#398EB0" d="M63.277,402.668c-0.958-0.195-1.844-0.553-2.656-1.072c-0.812-0.521-1.517-1.162-2.111-1.926
					c-0.596-0.764-1.06-1.627-1.393-2.59c-0.333-0.961-0.5-1.982-0.5-3.061c0-0.816,0.097-1.6,0.292-2.352
					c0.195-0.754,0.468-1.457,0.82-2.111c0.352-0.656,0.777-1.252,1.275-1.787c0.498-0.535,1.052-0.992,1.662-1.375
					c0.61-0.381,1.267-0.678,1.971-0.887c0.704-0.211,1.441-0.314,2.212-0.314s1.51,0.104,2.218,0.314
					c0.707,0.209,1.366,0.506,1.977,0.887c0.61,0.383,1.164,0.84,1.662,1.375c0.498,0.535,0.924,1.131,1.28,1.787
					c0.355,0.654,0.63,1.357,0.825,2.111c0.195,0.752,0.292,1.535,0.292,2.352c0,1.094-0.172,2.127-0.517,3.1
					c-0.344,0.975-0.822,1.846-1.432,2.617c-0.61,0.771-1.335,1.416-2.173,1.932c-0.838,0.518-1.748,0.861-2.729,1.033
					c0.232,0.098,0.462,0.203,0.69,0.32c0.229,0.115,0.459,0.225,0.691,0.326c0.232,0.1,0.462,0.186,0.691,0.258
					c0.228,0.07,0.462,0.109,0.702,0.117c0.232,0,0.458-0.029,0.679-0.09c0.221-0.059,0.421-0.152,0.601-0.279
					c0.18-0.129,0.335-0.293,0.466-0.494c0.131-0.203,0.219-0.449,0.264-0.742l2.504,1.246c-0.067,0.547-0.223,1.041-0.466,1.482
					c-0.243,0.441-0.556,0.82-0.938,1.135s-0.816,0.559-1.303,0.73s-1.003,0.258-1.55,0.258c-0.442,0-0.885-0.084-1.331-0.252
					c-0.445-0.17-0.876-0.354-1.291-0.551c-0.416-0.199-0.807-0.383-1.174-0.551s-0.689-0.252-0.966-0.252
					c-0.12,0-0.227-0.002-0.32-0.006c-0.093-0.004-0.185-0.004-0.275,0s-0.189,0.016-0.297,0.033
					c-0.109,0.02-0.234,0.055-0.376,0.107L63.277,402.668z M64.849,399.311c0.651,0,1.249-0.141,1.792-0.422
					c0.542-0.281,1.009-0.662,1.398-1.146c0.389-0.482,0.691-1.043,0.904-1.684c0.214-0.641,0.32-1.32,0.32-2.039
					c0-0.727-0.108-1.41-0.326-2.055s-0.522-1.207-0.916-1.689c-0.393-0.484-0.859-0.865-1.398-1.146s-1.13-0.42-1.774-0.42
					s-1.235,0.139-1.774,0.42s-1.003,0.662-1.393,1.146c-0.389,0.482-0.694,1.045-0.916,1.689c-0.221,0.645-0.331,1.328-0.331,2.055
					c0,0.719,0.11,1.398,0.331,2.039c0.221,0.641,0.526,1.201,0.916,1.684c0.389,0.484,0.854,0.865,1.393,1.146
					S64.205,399.311,64.849,399.311z"/>
			</g>
			<g>
				<g>
					<g>
						<polygon fill="#7C5904" points="218.161,401.951 80.091,401.951 80.091,394.752 218.161,394.752 222.31,398.352 						"/>
					</g>
					<g>
						<polygon fill="#7C5904" points="223.552,394.752 361.622,394.752 361.622,401.951 223.552,401.951 227.699,398.352 						"/>
					</g>
				</g>
				<g>
					<g>
						<polygon fill="#7C5904" points="218.161,415.865 80.091,415.865 80.091,408.666 218.161,408.666 222.31,412.266 						"/>
					</g>
					<g>
						<polygon fill="#7C5904" points="223.552,408.666 361.622,408.666 361.622,415.865 223.552,415.865 227.699,412.266 						"/>
					</g>
				</g>
				<g>
					<g>
						<polygon fill="#7C5904" points="218.161,485.434 80.091,485.434 80.091,478.234 218.161,478.234 222.31,481.834 						"/>
					</g>
					<g>
						<polygon fill="#7C5904" points="223.552,478.234 361.622,478.234 361.622,485.434 223.552,485.434 227.699,481.834 						"/>
					</g>
				</g>
				<g>
					<g>
						<polygon fill="#7C5904" points="218.161,429.779 80.091,429.779 80.091,422.58 218.161,422.58 222.31,426.18 						"/>
					</g>
					<g>
						<polygon fill="#7C5904" points="223.552,422.58 361.622,422.58 361.622,429.779 223.552,429.779 227.699,426.18 						"/>
					</g>
				</g>
				<g>
					<g>
						<polygon fill="#7C5904" points="218.161,443.693 80.091,443.693 80.091,436.494 218.161,436.494 222.31,440.094 						"/>
					</g>
					<g>
						<polygon fill="#7C5904" points="223.552,436.494 361.622,436.494 361.622,443.693 223.552,443.693 227.699,440.094 						"/>
					</g>
				</g>
				<g>
					<g>
						<polygon fill="#7C5904" points="218.161,457.607 80.091,457.607 80.091,450.406 218.161,450.406 222.31,454.006 						"/>
					</g>
					<g>
						<polygon fill="#7C5904" points="223.552,450.406 361.622,450.406 361.622,457.607 223.552,457.607 227.699,454.006 						"/>
					</g>
				</g>
				<g>
					<g>
						<polygon fill="#7C5904" points="218.161,471.521 80.091,471.521 80.091,464.32 218.161,464.32 222.31,467.92 						"/>
					</g>
					<g>
						<polygon fill="#7C5904" points="223.552,464.32 361.622,464.32 361.622,471.521 223.552,471.521 227.699,467.92 						"/>
					</g>
				</g>
			</g>
		</g>
		<g>
			<g>
				<g>
					<g>
						<polygon fill="#7C5904" points="218.161,68.02 80.091,68.02 80.091,60.819 218.161,60.819 222.309,64.42 						"/>
					</g>
					<g>
						<polygon fill="#7C5904" points="223.552,60.819 361.622,60.819 361.622,68.02 223.552,68.02 227.7,64.42 						"/>
					</g>
				</g>
				<g>
					<g>
						<polygon fill="#7C5904" points="218.161,151.502 80.091,151.502 80.091,144.303 218.161,144.303 222.309,147.902 						"/>
					</g>
					<g>
						<polygon fill="#7C5904" points="223.552,144.303 361.622,144.303 361.622,151.502 223.552,151.502 227.7,147.902 						"/>
					</g>
				</g>
				<g>
					<g>
						<polygon fill="#7C5904" points="218.161,95.848 80.091,95.848 80.091,88.648 218.161,88.648 222.309,92.247 						"/>
					</g>
					<g>
						<polygon fill="#7C5904" points="223.552,88.648 361.622,88.648 361.622,95.848 223.552,95.848 227.7,92.247 						"/>
					</g>
				</g>
				<g>
					<g>
						<polygon fill="#7C5904" points="218.161,81.932 80.091,81.932 80.091,74.732 218.161,74.732 222.309,78.332 						"/>
					</g>
					<g>
						<polygon fill="#7C5904" points="223.552,74.732 361.622,74.732 361.622,81.932 223.552,81.932 227.7,78.332 						"/>
					</g>
				</g>
				<g>
					<g>
						<polygon fill="#7C5904" points="218.161,109.762 80.091,109.762 80.091,102.562 218.161,102.562 222.309,106.161 						"/>
					</g>
					<g>
						<polygon fill="#7C5904" points="223.552,102.562 361.622,102.562 361.622,109.762 223.552,109.762 227.7,106.161 						"/>
					</g>
				</g>
				<g>
					<g>
						<polygon fill="#7C5904" points="218.161,123.674 80.091,123.674 80.091,116.475 218.161,116.475 222.309,120.074 						"/>
					</g>
					<g>
						<polygon fill="#7C5904" points="223.552,116.475 361.622,116.475 361.622,123.674 223.552,123.674 227.7,120.074 						"/>
					</g>
				</g>
				<g>
					<g>
						<polygon fill="#7C5904" points="218.161,137.588 80.091,137.588 80.091,130.389 218.161,130.389 222.309,133.988 						"/>
					</g>
					<g>
						<polygon fill="#7C5904" points="223.552,130.389 361.622,130.389 361.622,137.588 223.552,137.588 227.7,133.988 						"/>
					</g>
				</g>
			</g>
			<g>
				<path fill="#C63706" d="M58.558,50.174h6.536c0.779,0,1.525,0.102,2.24,0.303c0.715,0.203,1.382,0.486,1.999,0.854
					c0.618,0.367,1.18,0.807,1.685,1.32c0.506,0.512,0.938,1.084,1.297,1.713s0.636,1.305,0.831,2.031s0.292,1.482,0.292,2.27
					c0,0.785-0.097,1.541-0.292,2.268s-0.472,1.406-0.831,2.039s-0.792,1.209-1.297,1.729c-0.505,0.521-1.066,0.967-1.685,1.338
					c-0.617,0.369-1.284,0.656-1.999,0.859c-0.715,0.201-1.461,0.303-2.24,0.303h-6.536v-3.078h1.359V53.262h-1.359V50.174z
					 M63.645,53.262v10.859h1.426c0.606,0,1.179-0.143,1.718-0.426c0.539-0.285,1.007-0.672,1.404-1.162s0.711-1.068,0.943-1.73
					s0.348-1.375,0.348-2.139c0-0.756-0.116-1.465-0.348-2.123s-0.546-1.232-0.943-1.719s-0.865-0.867-1.404-1.145
					s-1.112-0.416-1.718-0.416H63.645z"/>
			</g>
		</g>
		<g>
			<g>
				<path fill="#398EB0" d="M63.069,179.002c-0.958-0.195-1.844-0.553-2.656-1.072c-0.812-0.521-1.517-1.162-2.111-1.926
					c-0.596-0.764-1.06-1.627-1.393-2.59c-0.333-0.961-0.5-1.982-0.5-3.061c0-0.816,0.097-1.6,0.292-2.352
					c0.195-0.754,0.468-1.457,0.82-2.111c0.352-0.656,0.777-1.252,1.275-1.787c0.498-0.535,1.052-0.992,1.662-1.375
					c0.61-0.381,1.267-0.678,1.971-0.887c0.704-0.211,1.441-0.314,2.212-0.314s1.51,0.104,2.218,0.314
					c0.707,0.209,1.366,0.506,1.977,0.887c0.61,0.383,1.164,0.84,1.662,1.375c0.498,0.535,0.924,1.131,1.28,1.787
					c0.355,0.654,0.63,1.357,0.825,2.111c0.195,0.752,0.292,1.535,0.292,2.352c0,1.094-0.172,2.127-0.517,3.1
					c-0.344,0.975-0.822,1.846-1.432,2.617c-0.61,0.771-1.335,1.416-2.173,1.932c-0.838,0.518-1.748,0.861-2.729,1.033
					c0.232,0.098,0.462,0.203,0.69,0.32c0.229,0.115,0.459,0.225,0.691,0.326c0.232,0.1,0.462,0.186,0.691,0.258
					c0.228,0.07,0.462,0.109,0.702,0.117c0.232,0,0.458-0.029,0.679-0.09c0.221-0.059,0.421-0.152,0.601-0.279
					c0.18-0.129,0.335-0.293,0.466-0.494c0.131-0.203,0.219-0.449,0.264-0.742l2.504,1.246c-0.067,0.547-0.223,1.041-0.466,1.482
					c-0.243,0.441-0.556,0.82-0.938,1.135s-0.816,0.559-1.303,0.73s-1.003,0.258-1.55,0.258c-0.442,0-0.885-0.084-1.331-0.252
					c-0.445-0.17-0.876-0.354-1.291-0.551c-0.416-0.199-0.807-0.383-1.174-0.551s-0.689-0.252-0.966-0.252
					c-0.12,0-0.227-0.002-0.32-0.006c-0.093-0.004-0.185-0.004-0.275,0s-0.189,0.016-0.297,0.033
					c-0.109,0.02-0.234,0.055-0.376,0.107L63.069,179.002z M64.641,175.645c0.651,0,1.249-0.141,1.792-0.422
					c0.542-0.281,1.009-0.662,1.398-1.146c0.389-0.482,0.691-1.043,0.904-1.684c0.214-0.641,0.32-1.32,0.32-2.039
					c0-0.727-0.108-1.41-0.326-2.055s-0.522-1.207-0.916-1.689c-0.393-0.484-0.859-0.865-1.398-1.146s-1.13-0.42-1.774-0.42
					s-1.235,0.139-1.774,0.42s-1.003,0.662-1.393,1.146c-0.389,0.482-0.694,1.045-0.916,1.689c-0.221,0.645-0.331,1.328-0.331,2.055
					c0,0.719,0.11,1.398,0.331,2.039c0.221,0.641,0.526,1.201,0.916,1.684c0.389,0.484,0.854,0.865,1.393,1.146
					S63.997,175.645,64.641,175.645z"/>
			</g>
			<g>
				<g>
					<g>
						<polygon fill="#7C5904" points="218.057,193.244 79.987,193.244 79.987,186.045 218.057,186.045 222.205,189.645 						"/>
					</g>
					<g>
						<polygon fill="#7C5904" points="223.448,186.045 361.518,186.045 361.518,193.244 223.448,193.244 227.596,189.645 						"/>
					</g>
				</g>
				<g>
					<g>
						<polygon fill="#7C5904" points="218.057,179.33 79.987,179.33 79.987,172.131 218.057,172.131 222.205,175.73 						"/>
					</g>
					<g>
						<polygon fill="#7C5904" points="223.448,172.131 361.518,172.131 361.518,179.33 223.448,179.33 227.596,175.73 						"/>
					</g>
				</g>
				<g>
					<g>
						<polygon fill="#7C5904" points="218.057,207.158 79.987,207.158 79.987,199.959 218.057,199.959 222.205,203.558 						"/>
					</g>
					<g>
						<polygon fill="#7C5904" points="223.448,199.959 361.518,199.959 361.518,207.158 223.448,207.158 227.596,203.558 						"/>
					</g>
				</g>
				<g>
					<g>
						<polygon fill="#7C5904" points="218.057,234.984 79.987,234.984 79.987,227.785 218.057,227.785 222.205,231.385 						"/>
					</g>
					<g>
						<polygon fill="#7C5904" points="223.448,227.785 361.518,227.785 361.518,234.984 223.448,234.984 227.596,231.385 						"/>
					</g>
				</g>
				<g>
					<g>
						<polygon fill="#7C5904" points="218.161,221.072 80.091,221.072 80.091,213.873 218.161,213.873 222.309,217.473 						"/>
					</g>
					<g>
						<polygon fill="#7C5904" points="223.552,213.873 361.622,213.873 361.622,221.072 223.552,221.072 227.7,217.473 						"/>
					</g>
				</g>
				<g>
					<g>
						<polygon fill="#7C5904" points="218.057,248.9 79.987,248.9 79.987,241.701 218.057,241.701 222.205,245.3 						"/>
					</g>
					<g>
						<polygon fill="#7C5904" points="223.448,241.701 361.518,241.701 361.518,248.9 223.448,248.9 227.596,245.3 						"/>
					</g>
				</g>
				<g>
					<g>
						<polygon fill="#7C5904" points="218.057,262.812 79.987,262.812 79.987,255.613 218.057,255.613 222.205,259.213 						"/>
					</g>
					<g>
						<polygon fill="#7C5904" points="223.448,255.613 361.518,255.613 361.518,262.812 223.448,262.812 227.596,259.213 						"/>
					</g>
				</g>
			</g>
		</g>
	</g>
</g>
</svg>
