<?xml version="1.0" encoding="utf-8"?>
<!-- Generator: Adobe Illustrator 16.0.4, SVG Export Plug-In . SVG Version: 6.00 Build 0)  -->
<!DOCTYPE svg PUBLIC "-//W3C//DTD SVG 1.1//EN" "http://www.w3.org/Graphics/SVG/1.1/DTD/svg11.dtd">
<svg version="1.1" id="Layer_1" xmlns="http://www.w3.org/2000/svg" xmlns:xlink="http://www.w3.org/1999/xlink" x="0px" y="0px"
	 width="448.746px" height="616.44px" viewBox="0 0 448.746 616.44" enable-background="new 0 0 448.746 616.44"
	 xml:space="preserve">
<rect x="0.5" y="0.5" fill="#FFFFFF" stroke="#C68D06" stroke-miterlimit="10" width="447.746" height="615.44"/>
<g>
	<path fill="#C68D06" d="M338.843,577.97l1.785-1.436c1.575,2.275,3.641,3.92,6.721,3.92c4.445,0,6.476-3.291,6.476-6.791
		c0-4.199-2.485-6.439-5.916-6.439c-2.66,0-4.48,1.189-5.915,3.254l-1.855-0.699l1.016-13.547h13.686l-0.21,2.275h-11.411
		l-0.699,8.996c1.26-1.471,2.975-2.416,5.74-2.416c4.69,0,8.016,3.291,8.016,8.471c0,5.182-3.396,9.066-8.891,9.066
		C343.638,582.624,340.593,580.733,338.843,577.97z"/>
	<path fill="#C68D06" d="M363.693,580.313l1.26-1.855c1.506,1.227,2.871,1.996,5.426,1.996c4.726,0,7.631-5.006,7.631-11.48
		c-1.646,1.785-4.061,3.465-7.351,3.465c-5.461,0-8.086-3.396-8.086-8.086c0-4.9,3.466-8.611,8.681-8.611
		c5.11,0,9.171,4.096,9.171,12.986c0,7.98-4.165,13.896-10.116,13.896C367.298,582.624,365.163,581.608,363.693,580.313z
		 M377.939,566.487c-0.524-6.02-3.395-8.576-6.825-8.576c-3.676,0-6.126,2.311-6.126,6.406c0,3.465,1.75,5.986,5.951,5.986
		C373.809,570.304,376.364,568.692,377.939,566.487z"/>
	<path fill="#C68D06" d="M389.208,556.231h8.681c5.776,0,8.996,2.451,8.996,7c0,4.201-2.45,6.301-6.195,7.002l6.546,11.9h-2.801
		l-6.336-11.621h-6.44v11.621h-2.45V556.231z M397.713,568.308c4.271,0,6.686-1.225,6.686-4.971c0-3.57-2.38-4.83-6.721-4.83h-6.021
		v9.801H397.713z"/>
</g>
<g>
	<g>
		<rect x="79.124" y="158.301" fill="#C0DDE7" width="281.739" height="7.199"/>
	</g>
	<g>
		<rect x="79.125" y="172.214" fill="#C0DDE7" width="281.738" height="7.198"/>
	</g>
	<g>
		<rect x="79.124" y="186.127" fill="#C0DDE7" width="281.739" height="7.201"/>
	</g>
	<g>
		<rect x="79.124" y="200.041" fill="#C0DDE7" width="281.739" height="7.199"/>
	</g>
	<g>
		<rect x="79.124" y="213.955" fill="#C0DDE7" width="281.739" height="7.199"/>
	</g>
	<g>
		<rect x="79.124" y="227.869" fill="#C0DDE7" width="281.739" height="7.199"/>
	</g>
	<g>
		<rect x="79.125" y="241.783" fill="#C0DDE7" width="281.738" height="7.199"/>
	</g>
	<g>
		<rect x="79.125" y="255.695" fill="#C0DDE7" width="281.738" height="7.201"/>
	</g>
	<g>
		<rect x="79.124" y="269.611" fill="#C0DDE7" width="281.739" height="7.199"/>
	</g>
	<g>
		<rect x="79.125" y="283.523" fill="#C0DDE7" width="281.738" height="7.201"/>
	</g>
	<g>
		<rect x="79.124" y="297.438" fill="#C0DDE7" width="281.739" height="7.201"/>
	</g>
	<g>
		<rect x="79.124" y="311.352" fill="#C0DDE7" width="281.739" height="7.201"/>
	</g>
	<g>
		<rect x="79.124" y="325.266" fill="#C0DDE7" width="281.739" height="7.199"/>
	</g>
	<g>
		<rect x="79.125" y="339.18" fill="#C0DDE7" width="281.738" height="7.2"/>
	</g>
	<g>
		<rect x="79.124" y="353.094" fill="#C0DDE7" width="281.739" height="7.199"/>
	</g>
	<g>
		<rect x="79.124" y="367.008" fill="#C0DDE7" width="281.739" height="7.199"/>
	</g>
	<g>
		<rect x="79.124" y="380.923" fill="#C0DDE7" width="281.739" height="7.198"/>
	</g>
	<g>
		<rect x="79.124" y="394.836" fill="#C0DDE7" width="281.739" height="7.199"/>
	</g>
	<g>
		<rect x="79.125" y="408.748" fill="#C0DDE7" width="281.738" height="7.199"/>
	</g>
	<g>
		<rect x="79.124" y="422.662" fill="#C0DDE7" width="281.739" height="7.201"/>
	</g>
	<g>
		<rect x="79.125" y="436.576" fill="#C0DDE7" width="281.738" height="7.199"/>
	</g>
	<g>
		<rect x="79.124" y="450.49" fill="#C0DDE7" width="281.739" height="7.199"/>
	</g>
	<g>
		<rect x="79.125" y="464.404" fill="#C0DDE7" width="281.738" height="7.199"/>
	</g>
	<g>
		<rect x="79.124" y="478.318" fill="#C0DDE7" width="281.739" height="7.199"/>
	</g>
	<g>
		<rect x="79.124" y="60.902" fill="#C0DDE7" width="281.739" height="7.201"/>
	</g>
	<g>
		<rect x="79.125" y="74.816" fill="#C0DDE7" width="281.738" height="7.201"/>
	</g>
	<g>
		<rect x="79.125" y="144.387" fill="#C0DDE7" width="281.738" height="7.199"/>
	</g>
	<g>
		<rect x="79.124" y="88.73" fill="#C0DDE7" width="281.739" height="7.199"/>
	</g>
	<g>
		<rect x="79.125" y="102.645" fill="#C0DDE7" width="281.738" height="7.199"/>
	</g>
	<g>
		<rect x="79.125" y="116.559" fill="#C0DDE7" width="281.738" height="7.199"/>
	</g>
	<g>
		<rect x="79.125" y="130.473" fill="#C0DDE7" width="281.738" height="7.2"/>
	</g>
	<g>
		<g>
			<g>
				<path fill="#C63706" d="M68.94,278.721c-0.038-0.262-0.129-0.509-0.275-0.74c-0.146-0.232-0.333-0.433-0.562-0.602
					c-0.228-0.168-0.486-0.301-0.774-0.398c-0.289-0.098-0.59-0.146-0.904-0.146c-0.285,0-0.55,0.03-0.797,0.09
					c-0.247,0.061-0.462,0.152-0.646,0.275c-0.183,0.124-0.329,0.283-0.438,0.478c-0.109,0.194-0.163,0.427-0.163,0.696
					c0,0.337,0.073,0.604,0.219,0.803c0.146,0.198,0.333,0.361,0.562,0.488c0.229,0.128,0.481,0.229,0.758,0.304
					s0.546,0.157,0.809,0.247l3.088,1.033c0.427,0.149,0.827,0.355,1.202,0.617c0.375,0.263,0.698,0.581,0.971,0.955
					c0.273,0.374,0.489,0.805,0.646,1.291c0.157,0.487,0.236,1.033,0.236,1.641c0,0.823-0.151,1.575-0.455,2.257
					c-0.303,0.682-0.728,1.266-1.274,1.752s-1.202,0.864-1.965,1.134s-1.61,0.404-2.538,0.404c-0.651,0-1.267-0.072-1.847-0.219
					c-0.581-0.146-1.11-0.357-1.589-0.635c-0.479-0.276-0.898-0.607-1.258-0.993s-0.64-0.822-0.842-1.309h-1.157v-3.38h4.065v0.695
					c0,0.338,0.054,0.648,0.163,0.933c0.109,0.284,0.271,0.531,0.489,0.741s0.49,0.372,0.82,0.488s0.715,0.174,1.157,0.174
					c0.674,0,1.187-0.155,1.539-0.466s0.528-0.743,0.528-1.297c0-0.284-0.062-0.522-0.185-0.713
					c-0.124-0.191-0.283-0.353-0.478-0.483s-0.412-0.241-0.651-0.331s-0.476-0.172-0.708-0.247l-2.572-0.831
					c-0.487-0.149-0.957-0.359-1.409-0.629c-0.453-0.27-0.854-0.606-1.202-1.011c-0.348-0.404-0.625-0.878-0.831-1.421
					c-0.206-0.543-0.309-1.162-0.309-1.858c0-0.809,0.15-1.529,0.449-2.162s0.719-1.166,1.258-1.6
					c0.539-0.435,1.179-0.764,1.92-0.988s1.554-0.338,2.437-0.338c0.696,0,1.34,0.081,1.932,0.242s1.121,0.376,1.589,0.646
					c0.468,0.27,0.865,0.578,1.19,0.927c0.326,0.348,0.575,0.709,0.747,1.084h1.123v3.391H68.94V278.721z"/>
			</g>
			<g>
				<g>
					<g>
						<polygon fill="#7C5904" points="217.402,290.725 79.332,290.725 79.332,283.525 217.402,283.525 221.551,287.125 						"/>
					</g>
					<g>
						<polygon fill="#7C5904" points="222.793,283.525 360.863,283.525 360.863,290.725 222.793,290.725 226.94,287.125 						"/>
					</g>
				</g>
				<g>
					<g>
						<polygon fill="#7C5904" points="217.402,304.639 79.332,304.639 79.332,297.439 217.402,297.439 221.551,301.039 						"/>
					</g>
					<g>
						<polygon fill="#7C5904" points="222.793,297.439 360.863,297.439 360.863,304.639 222.793,304.639 226.94,301.039 						"/>
					</g>
				</g>
				<g>
					<g>
						<polygon fill="#7C5904" points="217.402,374.207 79.332,374.207 79.332,367.008 217.402,367.008 221.551,370.607 						"/>
					</g>
					<g>
						<polygon fill="#7C5904" points="222.793,367.008 360.863,367.008 360.863,374.207 222.793,374.207 226.94,370.607 						"/>
					</g>
				</g>
				<g>
					<g>
						<polygon fill="#7C5904" points="217.402,318.553 79.332,318.553 79.332,311.354 217.402,311.354 221.551,314.953 						"/>
					</g>
					<g>
						<polygon fill="#7C5904" points="222.793,311.354 360.863,311.354 360.863,318.553 222.793,318.553 226.94,314.953 						"/>
					</g>
				</g>
				<g>
					<g>
						<polygon fill="#7C5904" points="217.402,332.467 79.332,332.467 79.332,325.268 217.402,325.268 221.551,328.867 						"/>
					</g>
					<g>
						<polygon fill="#7C5904" points="222.793,325.268 360.863,325.268 360.863,332.467 222.793,332.467 226.94,328.867 						"/>
					</g>
				</g>
				<g>
					<g>
						<polygon fill="#7C5904" points="217.402,346.381 79.332,346.381 79.332,339.18 217.402,339.18 221.551,342.779 						"/>
					</g>
					<g>
						<polygon fill="#7C5904" points="222.793,339.18 360.863,339.18 360.863,346.381 222.793,346.381 226.94,342.779 						"/>
					</g>
				</g>
				<g>
					<g>
						<polygon fill="#7C5904" points="217.402,360.296 79.332,360.296 79.332,353.094 217.402,353.094 221.551,356.693 						"/>
					</g>
					<g>
						<polygon fill="#7C5904" points="222.793,353.094 360.863,353.094 360.863,360.296 222.793,360.296 226.94,356.693 						"/>
					</g>
				</g>
			</g>
		</g>
		<g>
			<g>
				<path fill="#398EB0" d="M65.639,385.592h7.289v3.077H71.13v10.871h1.797v3.077h-7.289v-3.077h1.763v-10.871h-1.763V385.592z"/>
			</g>
			<g>
				<g>
					<g>
						<polygon fill="#7C5904" points="217.402,402.035 79.332,402.035 79.332,394.836 217.402,394.836 221.551,398.436 						"/>
					</g>
					<g>
						<polygon fill="#7C5904" points="222.793,394.836 360.863,394.836 360.863,402.035 222.793,402.035 226.94,398.436 						"/>
					</g>
				</g>
				<g>
					<g>
						<polygon fill="#7C5904" points="217.402,415.949 79.332,415.949 79.332,408.75 217.402,408.75 221.551,412.35 						"/>
					</g>
					<g>
						<polygon fill="#7C5904" points="222.793,408.75 360.863,408.75 360.863,415.949 222.793,415.949 226.94,412.35 						"/>
					</g>
				</g>
				<g>
					<g>
						<polygon fill="#7C5904" points="217.402,485.518 79.332,485.518 79.332,478.318 217.402,478.318 221.551,481.918 						"/>
					</g>
					<g>
						<polygon fill="#7C5904" points="222.793,478.318 360.863,478.318 360.863,485.518 222.793,485.518 226.94,481.918 						"/>
					</g>
				</g>
				<g>
					<g>
						<polygon fill="#7C5904" points="217.402,429.863 79.332,429.863 79.332,422.664 217.402,422.664 221.551,426.264 						"/>
					</g>
					<g>
						<polygon fill="#7C5904" points="222.793,422.664 360.863,422.664 360.863,429.863 222.793,429.863 226.94,426.264 						"/>
					</g>
				</g>
				<g>
					<g>
						<polygon fill="#7C5904" points="217.402,443.777 79.332,443.777 79.332,436.578 217.402,436.578 221.551,440.178 						"/>
					</g>
					<g>
						<polygon fill="#7C5904" points="222.793,436.578 360.863,436.578 360.863,443.777 222.793,443.777 226.94,440.178 						"/>
					</g>
				</g>
				<g>
					<g>
						<polygon fill="#7C5904" points="217.402,457.691 79.332,457.691 79.332,450.49 217.402,450.49 221.551,454.09 						"/>
					</g>
					<g>
						<polygon fill="#7C5904" points="222.793,450.49 360.863,450.49 360.863,457.691 222.793,457.691 226.94,454.09 						"/>
					</g>
				</g>
				<g>
					<g>
						<polygon fill="#7C5904" points="217.402,471.605 79.332,471.605 79.332,464.404 217.402,464.404 221.551,468.005 						"/>
					</g>
					<g>
						<polygon fill="#7C5904" points="222.793,464.404 360.863,464.404 360.863,471.605 222.793,471.605 226.94,468.005 						"/>
					</g>
				</g>
			</g>
		</g>
		<g>
			<g>
				<g>
					<g>
						<polygon fill="#7C5904" points="217.402,68.104 79.332,68.104 79.332,60.902 217.402,60.902 221.55,64.505 						"/>
					</g>
					<g>
						<polygon fill="#7C5904" points="222.793,60.902 360.863,60.902 360.863,68.104 222.793,68.104 226.94,64.505 						"/>
					</g>
				</g>
				<g>
					<g>
						<polygon fill="#7C5904" points="217.402,151.586 79.332,151.586 79.332,144.387 217.402,144.387 221.55,147.986 						"/>
					</g>
					<g>
						<polygon fill="#7C5904" points="222.793,144.387 360.863,144.387 360.863,151.586 222.793,151.586 226.94,147.986 						"/>
					</g>
				</g>
				<g>
					<g>
						<polygon fill="#7C5904" points="217.402,95.932 79.332,95.932 79.332,88.732 217.402,88.732 221.55,92.33 						"/>
					</g>
					<g>
						<polygon fill="#7C5904" points="222.793,88.732 360.863,88.732 360.863,95.932 222.793,95.932 226.94,92.33 						"/>
					</g>
				</g>
				<g>
					<g>
						<polygon fill="#7C5904" points="217.402,82.016 79.332,82.016 79.332,74.816 217.402,74.816 221.55,78.416 						"/>
					</g>
					<g>
						<polygon fill="#7C5904" points="222.793,74.816 360.863,74.816 360.863,82.016 222.793,82.016 226.94,78.416 						"/>
					</g>
				</g>
				<g>
					<g>
						<polygon fill="#7C5904" points="217.402,109.846 79.332,109.846 79.332,102.646 217.402,102.646 221.55,106.244 						"/>
					</g>
					<g>
						<polygon fill="#7C5904" points="222.793,102.646 360.863,102.646 360.863,109.846 222.793,109.846 226.94,106.244 						"/>
					</g>
				</g>
				<g>
					<g>
						<polygon fill="#7C5904" points="217.402,123.758 79.332,123.758 79.332,116.559 217.402,116.559 221.55,120.158 						"/>
					</g>
					<g>
						<polygon fill="#7C5904" points="222.793,116.559 360.863,116.559 360.863,123.758 222.793,123.758 226.94,120.158 						"/>
					</g>
				</g>
				<g>
					<g>
						<polygon fill="#7C5904" points="217.402,137.673 79.332,137.673 79.332,130.473 217.402,130.473 221.55,134.072 						"/>
					</g>
					<g>
						<polygon fill="#7C5904" points="222.793,130.473 360.863,130.473 360.863,137.673 222.793,137.673 226.94,134.072 						"/>
					</g>
				</g>
			</g>
			<g>
				<path fill="#C63706" d="M68.837,55.053c-0.038-0.262-0.129-0.509-0.275-0.74C68.416,54.08,68.229,53.88,68,53.711
					c-0.228-0.168-0.486-0.301-0.774-0.398c-0.289-0.098-0.59-0.146-0.904-0.146c-0.285,0-0.55,0.03-0.797,0.09
					c-0.247,0.061-0.462,0.152-0.646,0.275c-0.183,0.124-0.329,0.283-0.438,0.478c-0.109,0.194-0.163,0.427-0.163,0.696
					c0,0.337,0.073,0.604,0.219,0.803c0.146,0.198,0.333,0.361,0.562,0.488c0.229,0.128,0.481,0.229,0.758,0.304
					s0.546,0.157,0.809,0.247l3.088,1.033c0.427,0.149,0.827,0.355,1.202,0.617c0.375,0.263,0.698,0.581,0.971,0.955
					c0.273,0.374,0.489,0.805,0.646,1.291c0.157,0.487,0.236,1.033,0.236,1.641c0,0.823-0.151,1.575-0.455,2.257
					c-0.303,0.682-0.728,1.266-1.274,1.752s-1.202,0.864-1.965,1.134s-1.61,0.404-2.538,0.404c-0.651,0-1.267-0.072-1.847-0.219
					c-0.581-0.146-1.11-0.357-1.589-0.635c-0.479-0.276-0.898-0.607-1.258-0.993s-0.64-0.822-0.842-1.309h-1.157v-3.38h4.065v0.695
					c0,0.338,0.054,0.648,0.163,0.933c0.109,0.284,0.271,0.531,0.489,0.741s0.49,0.372,0.82,0.488s0.715,0.174,1.157,0.174
					c0.674,0,1.187-0.155,1.539-0.466s0.528-0.743,0.528-1.297c0-0.284-0.062-0.522-0.185-0.713
					c-0.124-0.191-0.283-0.353-0.478-0.483s-0.412-0.241-0.651-0.331s-0.476-0.172-0.708-0.247l-2.572-0.831
					c-0.487-0.149-0.957-0.359-1.409-0.629c-0.453-0.27-0.854-0.606-1.202-1.011c-0.348-0.404-0.625-0.878-0.831-1.421
					c-0.206-0.543-0.309-1.162-0.309-1.858c0-0.809,0.15-1.529,0.449-2.162s0.719-1.166,1.258-1.6
					c0.539-0.435,1.179-0.764,1.92-0.988s1.554-0.338,2.437-0.338c0.696,0,1.34,0.081,1.932,0.242s1.121,0.376,1.589,0.646
					c0.468,0.27,0.865,0.578,1.19,0.927c0.326,0.348,0.575,0.709,0.747,1.084h1.123v3.391h-4.065V55.053z"/>
			</g>
		</g>
		<g>
			<g>
				<path fill="#398EB0" d="M68.731,166.721c-0.038-0.262-0.129-0.509-0.275-0.74c-0.146-0.232-0.333-0.433-0.562-0.602
					c-0.228-0.168-0.486-0.301-0.774-0.398c-0.289-0.098-0.59-0.146-0.904-0.146c-0.285,0-0.55,0.03-0.797,0.09
					c-0.247,0.061-0.462,0.152-0.646,0.275c-0.183,0.124-0.329,0.283-0.438,0.478c-0.109,0.194-0.163,0.427-0.163,0.696
					c0,0.337,0.073,0.604,0.219,0.803c0.146,0.198,0.333,0.361,0.562,0.488c0.229,0.128,0.481,0.229,0.758,0.304
					s0.546,0.157,0.809,0.247l3.088,1.033c0.427,0.149,0.827,0.355,1.202,0.617c0.375,0.263,0.698,0.581,0.971,0.955
					c0.273,0.374,0.489,0.805,0.646,1.291c0.157,0.487,0.236,1.033,0.236,1.641c0,0.823-0.151,1.575-0.455,2.257
					c-0.303,0.682-0.728,1.266-1.274,1.752s-1.202,0.864-1.965,1.134s-1.61,0.404-2.538,0.404c-0.651,0-1.267-0.072-1.847-0.219
					c-0.581-0.146-1.11-0.357-1.589-0.635c-0.479-0.276-0.898-0.607-1.258-0.993s-0.64-0.822-0.842-1.309h-1.157v-3.38h4.065v0.695
					c0,0.338,0.054,0.648,0.163,0.933c0.109,0.284,0.271,0.531,0.489,0.741s0.49,0.372,0.82,0.488s0.715,0.174,1.157,0.174
					c0.674,0,1.187-0.155,1.539-0.466s0.528-0.743,0.528-1.297c0-0.284-0.062-0.522-0.185-0.713
					c-0.124-0.191-0.283-0.353-0.478-0.483s-0.412-0.241-0.651-0.331s-0.476-0.172-0.708-0.247l-2.572-0.831
					c-0.487-0.149-0.957-0.359-1.409-0.629c-0.453-0.27-0.854-0.606-1.202-1.011c-0.348-0.404-0.625-0.878-0.831-1.421
					c-0.206-0.543-0.309-1.162-0.309-1.858c0-0.809,0.15-1.529,0.449-2.162s0.719-1.166,1.258-1.6
					c0.539-0.435,1.179-0.764,1.92-0.988s1.554-0.338,2.437-0.338c0.696,0,1.34,0.081,1.932,0.242s1.121,0.376,1.589,0.646
					c0.468,0.27,0.865,0.578,1.19,0.927c0.326,0.348,0.575,0.709,0.747,1.084h1.123v3.391h-4.065V166.721z"/>
			</g>
			<g>
				<g>
					<g>
						<polygon fill="#7C5904" points="217.298,193.328 79.228,193.328 79.228,186.13 217.298,186.13 221.446,189.729 						"/>
					</g>
					<g>
						<polygon fill="#7C5904" points="222.688,186.13 360.759,186.13 360.759,193.328 222.688,193.328 226.836,189.729 						"/>
					</g>
				</g>
				<g>
					<g>
						<polygon fill="#7C5904" points="217.298,179.414 79.228,179.414 79.228,172.215 217.298,172.215 221.446,175.814 						"/>
					</g>
					<g>
						<polygon fill="#7C5904" points="222.688,172.215 360.759,172.215 360.759,179.414 222.688,179.414 226.836,175.814 						"/>
					</g>
				</g>
				<g>
					<g>
						<polygon fill="#7C5904" points="217.298,207.242 79.228,207.242 79.228,200.043 217.298,200.043 221.446,203.641 						"/>
					</g>
					<g>
						<polygon fill="#7C5904" points="222.688,200.043 360.759,200.043 360.759,207.242 222.688,207.242 226.836,203.641 						"/>
					</g>
				</g>
				<g>
					<g>
						<polygon fill="#7C5904" points="217.298,235.068 79.228,235.068 79.228,227.869 217.298,227.869 221.446,231.469 						"/>
					</g>
					<g>
						<polygon fill="#7C5904" points="222.688,227.869 360.759,227.869 360.759,235.068 222.688,235.068 226.836,231.469 						"/>
					</g>
				</g>
				<g>
					<g>
						<polygon fill="#7C5904" points="217.402,221.156 79.332,221.156 79.332,213.957 217.402,213.957 221.55,217.557 						"/>
					</g>
					<g>
						<polygon fill="#7C5904" points="222.793,213.957 360.863,213.957 360.863,221.156 222.793,221.156 226.94,217.557 						"/>
					</g>
				</g>
				<g>
					<g>
						<polygon fill="#7C5904" points="217.298,248.984 79.228,248.984 79.228,241.785 217.298,241.785 221.446,245.383 						"/>
					</g>
					<g>
						<polygon fill="#7C5904" points="222.688,241.785 360.759,241.785 360.759,248.984 222.688,248.984 226.836,245.383 						"/>
					</g>
				</g>
				<g>
					<g>
						<polygon fill="#7C5904" points="217.298,262.896 79.228,262.896 79.228,255.697 217.298,255.697 221.446,259.298 						"/>
					</g>
					<g>
						<polygon fill="#7C5904" points="222.688,255.697 360.759,255.697 360.759,262.896 222.688,262.896 226.836,259.298 						"/>
					</g>
				</g>
			</g>
		</g>
	</g>
</g>
</svg>
