<?xml version="1.0" encoding="utf-8"?>
<!-- Generator: Adobe Illustrator 16.0.4, SVG Export Plug-In . SVG Version: 6.00 Build 0)  -->
<!DOCTYPE svg PUBLIC "-//W3C//DTD SVG 1.1//EN" "http://www.w3.org/Graphics/SVG/1.1/DTD/svg11.dtd">
<svg version="1.1" id="Layer_1" xmlns="http://www.w3.org/2000/svg" xmlns:xlink="http://www.w3.org/1999/xlink" x="0px" y="0px"
	 width="448.746px" height="616.44px" viewBox="0 0 448.746 616.44" enable-background="new 0 0 448.746 616.44"
	 xml:space="preserve">
<rect x="0.5" y="0.5" fill="#FFFFFF" stroke="#C68D06" stroke-miterlimit="10" width="447.746" height="615.44"/>
<g>
	<path fill="#C68D06" d="M336.567,569.638c0-7.98,4.201-13.896,10.151-13.896c2.87,0,4.796,0.875,6.195,1.961l-1.295,1.891
		c-1.33-1.051-2.625-1.682-4.971-1.682c-4.725,0-7.631,5.041-7.665,11.482c1.645-1.785,4.095-3.467,7.386-3.467
		c5.46,0,8.086,3.396,8.086,8.086c0,4.9-3.466,8.611-8.682,8.611C340.663,582.624,336.567,578.528,336.567,569.638z
		 M352.039,574.048c0-3.465-1.75-5.984-5.95-5.984c-2.87,0-5.426,1.609-7.001,3.814c0.525,6.021,3.36,8.611,6.791,8.611
		C349.588,580.489,352.039,578.144,352.039,574.048z"/>
	<path fill="#C68D06" d="M361.452,569.183c0-8.086,3.431-13.441,9.521-13.441s9.451,5.355,9.451,13.441s-3.36,13.441-9.451,13.441
		S361.452,577.269,361.452,569.183z M377.974,569.183c0-7.316-2.766-11.236-7.001-11.236c-4.41,0-7.036,3.92-7.036,11.236
		s2.766,11.271,7.036,11.271C375.348,580.454,377.974,576.499,377.974,569.183z"/>
	<path fill="#C68D06" d="M389.208,556.231h8.681c5.776,0,8.996,2.451,8.996,7c0,4.201-2.45,6.301-6.195,7.002l6.546,11.9h-2.801
		l-6.336-11.621h-6.44v11.621h-2.45V556.231z M397.713,568.308c4.271,0,6.686-1.225,6.686-4.971c0-3.57-2.38-4.83-6.721-4.83h-6.021
		v9.801H397.713z"/>
</g>
<g>
	<g>
		<rect x="80.049" y="158.094" fill="#C0DDE7" width="281.739" height="7.199"/>
	</g>
	<g>
		<rect x="80.049" y="172.007" fill="#C0DDE7" width="281.738" height="7.198"/>
	</g>
	<g>
		<rect x="80.049" y="185.92" fill="#C0DDE7" width="281.739" height="7.201"/>
	</g>
	<g>
		<rect x="80.049" y="199.834" fill="#C0DDE7" width="281.739" height="7.199"/>
	</g>
	<g>
		<rect x="80.049" y="213.748" fill="#C0DDE7" width="281.739" height="7.199"/>
	</g>
	<g>
		<rect x="80.049" y="227.662" fill="#C0DDE7" width="281.739" height="7.199"/>
	</g>
	<g>
		<rect x="80.049" y="241.576" fill="#C0DDE7" width="281.738" height="7.199"/>
	</g>
	<g>
		<rect x="80.049" y="255.488" fill="#C0DDE7" width="281.738" height="7.201"/>
	</g>
	<g>
		<rect x="80.049" y="269.404" fill="#C0DDE7" width="281.739" height="7.199"/>
	</g>
	<g>
		<rect x="80.049" y="283.316" fill="#C0DDE7" width="281.738" height="7.201"/>
	</g>
	<g>
		<rect x="80.049" y="297.23" fill="#C0DDE7" width="281.739" height="7.201"/>
	</g>
	<g>
		<rect x="80.049" y="311.145" fill="#C0DDE7" width="281.739" height="7.201"/>
	</g>
	<g>
		<rect x="80.049" y="325.059" fill="#C0DDE7" width="281.739" height="7.199"/>
	</g>
	<g>
		<rect x="80.049" y="338.973" fill="#C0DDE7" width="281.738" height="7.2"/>
	</g>
	<g>
		<rect x="80.049" y="352.887" fill="#C0DDE7" width="281.739" height="7.199"/>
	</g>
	<g>
		<rect x="80.049" y="366.801" fill="#C0DDE7" width="281.739" height="7.199"/>
	</g>
	<g>
		<rect x="80.049" y="380.716" fill="#C0DDE7" width="281.739" height="7.198"/>
	</g>
	<g>
		<rect x="80.049" y="394.629" fill="#C0DDE7" width="281.739" height="7.199"/>
	</g>
	<g>
		<rect x="80.049" y="408.541" fill="#C0DDE7" width="281.738" height="7.199"/>
	</g>
	<g>
		<rect x="80.049" y="422.455" fill="#C0DDE7" width="281.739" height="7.201"/>
	</g>
	<g>
		<rect x="80.049" y="436.369" fill="#C0DDE7" width="281.738" height="7.199"/>
	</g>
	<g>
		<rect x="80.049" y="450.283" fill="#C0DDE7" width="281.739" height="7.199"/>
	</g>
	<g>
		<rect x="80.049" y="464.197" fill="#C0DDE7" width="281.738" height="7.199"/>
	</g>
	<g>
		<rect x="80.049" y="478.111" fill="#C0DDE7" width="281.739" height="7.199"/>
	</g>
	<g>
		<rect x="80.049" y="60.695" fill="#C0DDE7" width="281.739" height="7.201"/>
	</g>
	<g>
		<rect x="80.049" y="74.609" fill="#C0DDE7" width="281.738" height="7.201"/>
	</g>
	<g>
		<rect x="80.049" y="144.18" fill="#C0DDE7" width="281.738" height="7.199"/>
	</g>
	<g>
		<rect x="80.049" y="88.523" fill="#C0DDE7" width="281.739" height="7.199"/>
	</g>
	<g>
		<rect x="80.049" y="102.438" fill="#C0DDE7" width="281.738" height="7.199"/>
	</g>
	<g>
		<rect x="80.049" y="116.352" fill="#C0DDE7" width="281.738" height="7.199"/>
	</g>
	<g>
		<rect x="80.049" y="130.266" fill="#C0DDE7" width="281.738" height="7.2"/>
	</g>
	<g>
		<g>
			<g>
				<path fill="#C63706" d="M67.676,287.667h1.696l-0.764-2.449h-5.233l-0.764,2.449h1.797v3.076h-6.458v-3.076h1.269l4.638-13.949
					h4.503l4.537,13.949h1.235v3.076h-6.458V287.667z M64.262,282.343h3.437l-1.729-5.537L64.262,282.343z"/>
			</g>
			<g>
				<g>
					<g>
						<polygon fill="#7C5904" points="218.327,290.518 80.256,290.518 80.256,283.318 218.327,283.318 222.475,286.918 						"/>
					</g>
					<g>
						<polygon fill="#7C5904" points="223.717,283.318 361.788,283.318 361.788,290.518 223.717,290.518 227.865,286.918 						"/>
					</g>
				</g>
				<g>
					<g>
						<polygon fill="#7C5904" points="218.327,304.432 80.256,304.432 80.256,297.232 218.327,297.232 222.475,300.832 						"/>
					</g>
					<g>
						<polygon fill="#7C5904" points="223.717,297.232 361.788,297.232 361.788,304.432 223.717,304.432 227.865,300.832 						"/>
					</g>
				</g>
				<g>
					<g>
						<polygon fill="#7C5904" points="218.327,374 80.256,374 80.256,366.801 218.327,366.801 222.475,370.4 						"/>
					</g>
					<g>
						<polygon fill="#7C5904" points="223.717,366.801 361.788,366.801 361.788,374 223.717,374 227.865,370.4 						"/>
					</g>
				</g>
				<g>
					<g>
						<polygon fill="#7C5904" points="218.327,318.346 80.256,318.346 80.256,311.146 218.327,311.146 222.475,314.746 						"/>
					</g>
					<g>
						<polygon fill="#7C5904" points="223.717,311.146 361.788,311.146 361.788,318.346 223.717,318.346 227.865,314.746 						"/>
					</g>
				</g>
				<g>
					<g>
						<polygon fill="#7C5904" points="218.327,332.26 80.256,332.26 80.256,325.061 218.327,325.061 222.475,328.66 						"/>
					</g>
					<g>
						<polygon fill="#7C5904" points="223.717,325.061 361.788,325.061 361.788,332.26 223.717,332.26 227.865,328.66 						"/>
					</g>
				</g>
				<g>
					<g>
						<polygon fill="#7C5904" points="218.327,346.175 80.256,346.175 80.256,338.973 218.327,338.973 222.475,342.572 						"/>
					</g>
					<g>
						<polygon fill="#7C5904" points="223.717,338.973 361.788,338.973 361.788,346.175 223.717,346.175 227.865,342.572 						"/>
					</g>
				</g>
				<g>
					<g>
						<polygon fill="#7C5904" points="218.327,360.088 80.256,360.088 80.256,352.887 218.327,352.887 222.475,356.486 						"/>
					</g>
					<g>
						<polygon fill="#7C5904" points="223.717,352.887 361.788,352.887 361.788,360.088 223.717,360.088 227.865,356.486 						"/>
					</g>
				</g>
			</g>
		</g>
		<g>
			<g>
				<path fill="#398EB0" d="M49.326,399.333h1.583v-10.861h-1.583v-3.088h7.008l5.02,12.287l4.661-12.287h7.109v3.088H71.54v10.861
					h1.561v3.076h-6.368v-3.076h1.168v-9.793l-5.099,12.668h-3.156l-5.188-12.332v9.457h1.269v3.076h-6.401V399.333z"/>
			</g>
			<g>
				<g>
					<g>
						<polygon fill="#7C5904" points="218.327,401.828 80.256,401.828 80.256,394.629 218.327,394.629 222.475,398.229 						"/>
					</g>
					<g>
						<polygon fill="#7C5904" points="223.717,394.629 361.788,394.629 361.788,401.828 223.717,401.828 227.865,398.229 						"/>
					</g>
				</g>
				<g>
					<g>
						<polygon fill="#7C5904" points="218.327,415.742 80.256,415.742 80.256,408.543 218.327,408.543 222.475,412.143 						"/>
					</g>
					<g>
						<polygon fill="#7C5904" points="223.717,408.543 361.788,408.543 361.788,415.742 223.717,415.742 227.865,412.143 						"/>
					</g>
				</g>
				<g>
					<g>
						<polygon fill="#7C5904" points="218.327,485.311 80.256,485.311 80.256,478.111 218.327,478.111 222.475,481.711 						"/>
					</g>
					<g>
						<polygon fill="#7C5904" points="223.717,478.111 361.788,478.111 361.788,485.311 223.717,485.311 227.865,481.711 						"/>
					</g>
				</g>
				<g>
					<g>
						<polygon fill="#7C5904" points="218.327,429.656 80.256,429.656 80.256,422.457 218.327,422.457 222.475,426.057 						"/>
					</g>
					<g>
						<polygon fill="#7C5904" points="223.717,422.457 361.788,422.457 361.788,429.656 223.717,429.656 227.865,426.057 						"/>
					</g>
				</g>
				<g>
					<g>
						<polygon fill="#7C5904" points="218.327,443.57 80.256,443.57 80.256,436.371 218.327,436.371 222.475,439.971 						"/>
					</g>
					<g>
						<polygon fill="#7C5904" points="223.717,436.371 361.788,436.371 361.788,443.57 223.717,443.57 227.865,439.971 						"/>
					</g>
				</g>
				<g>
					<g>
						<polygon fill="#7C5904" points="218.327,457.484 80.256,457.484 80.256,450.283 218.327,450.283 222.475,453.884 						"/>
					</g>
					<g>
						<polygon fill="#7C5904" points="223.717,450.283 361.788,450.283 361.788,457.484 223.717,457.484 227.865,453.884 						"/>
					</g>
				</g>
				<g>
					<g>
						<polygon fill="#7C5904" points="218.327,471.398 80.256,471.398 80.256,464.197 218.327,464.197 222.475,467.798 						"/>
					</g>
					<g>
						<polygon fill="#7C5904" points="223.717,464.197 361.788,464.197 361.788,471.398 223.717,471.398 227.865,467.798 						"/>
					</g>
				</g>
			</g>
		</g>
		<g>
			<g>
				<g>
					<g>
						<polygon fill="#7C5904" points="218.327,67.896 80.256,67.896 80.256,60.696 218.327,60.696 222.475,64.298 						"/>
					</g>
					<g>
						<polygon fill="#7C5904" points="223.717,60.696 361.788,60.696 361.788,67.896 223.717,67.896 227.865,64.298 						"/>
					</g>
				</g>
				<g>
					<g>
						<polygon fill="#7C5904" points="218.327,151.379 80.256,151.379 80.256,144.18 218.327,144.18 222.475,147.779 						"/>
					</g>
					<g>
						<polygon fill="#7C5904" points="223.717,144.18 361.788,144.18 361.788,151.379 223.717,151.379 227.865,147.779 						"/>
					</g>
				</g>
				<g>
					<g>
						<polygon fill="#7C5904" points="218.327,95.725 80.256,95.725 80.256,88.525 218.327,88.525 222.475,92.124 						"/>
					</g>
					<g>
						<polygon fill="#7C5904" points="223.717,88.525 361.788,88.525 361.788,95.725 223.717,95.725 227.865,92.124 						"/>
					</g>
				</g>
				<g>
					<g>
						<polygon fill="#7C5904" points="218.327,81.809 80.256,81.809 80.256,74.609 218.327,74.609 222.475,78.209 						"/>
					</g>
					<g>
						<polygon fill="#7C5904" points="223.717,74.609 361.788,74.609 361.788,81.809 223.717,81.809 227.865,78.209 						"/>
					</g>
				</g>
				<g>
					<g>
						<polygon fill="#7C5904" points="218.327,109.639 80.256,109.639 80.256,102.439 218.327,102.439 222.475,106.038 						"/>
					</g>
					<g>
						<polygon fill="#7C5904" points="223.717,102.439 361.788,102.439 361.788,109.639 223.717,109.639 227.865,106.038 						"/>
					</g>
				</g>
				<g>
					<g>
						<polygon fill="#7C5904" points="218.327,123.551 80.256,123.551 80.256,116.352 218.327,116.352 222.475,119.951 						"/>
					</g>
					<g>
						<polygon fill="#7C5904" points="223.717,116.352 361.788,116.352 361.788,123.551 223.717,123.551 227.865,119.951 						"/>
					</g>
				</g>
				<g>
					<g>
						<polygon fill="#7C5904" points="218.327,137.466 80.256,137.466 80.256,130.266 218.327,130.266 222.475,133.865 						"/>
					</g>
					<g>
						<polygon fill="#7C5904" points="223.717,130.266 361.788,130.266 361.788,137.466 223.717,137.466 227.865,133.865 						"/>
					</g>
				</g>
			</g>
			<g>
				<path fill="#C63706" d="M66.764,50.05h7.289v3.088h-1.516l-4.548,13.938h-4.604L58.97,53.138h-1.64V50.05h7.3v3.088h-1.819
					l2.965,9.658l2.954-9.658h-1.965V50.05z"/>
			</g>
		</g>
		<g>
			<g>
				<path fill="#398EB0" d="M60.337,161.718h7.289v3.088h-1.797v10.861h3.706c0.097,0,0.193-0.029,0.286-0.084
					c0.094-0.057,0.176-0.131,0.247-0.221c0.071-0.09,0.129-0.186,0.174-0.291s0.067-0.205,0.067-0.303v-2.281h3.639v6.256H60.337
					v-3.076H62.1v-10.861h-1.763V161.718z"/>
			</g>
			<g>
				<g>
					<g>
						<polygon fill="#7C5904" points="218.223,193.121 80.152,193.121 80.152,185.923 218.223,185.923 222.371,189.521 						"/>
					</g>
					<g>
						<polygon fill="#7C5904" points="223.613,185.923 361.684,185.923 361.684,193.121 223.613,193.121 227.761,189.521 						"/>
					</g>
				</g>
				<g>
					<g>
						<polygon fill="#7C5904" points="218.223,179.207 80.152,179.207 80.152,172.008 218.223,172.008 222.371,175.607 						"/>
					</g>
					<g>
						<polygon fill="#7C5904" points="223.613,172.008 361.684,172.008 361.684,179.207 223.613,179.207 227.761,175.607 						"/>
					</g>
				</g>
				<g>
					<g>
						<polygon fill="#7C5904" points="218.223,207.035 80.152,207.035 80.152,199.836 218.223,199.836 222.371,203.435 						"/>
					</g>
					<g>
						<polygon fill="#7C5904" points="223.613,199.836 361.684,199.836 361.684,207.035 223.613,207.035 227.761,203.435 						"/>
					</g>
				</g>
				<g>
					<g>
						<polygon fill="#7C5904" points="218.223,234.861 80.152,234.861 80.152,227.662 218.223,227.662 222.371,231.262 						"/>
					</g>
					<g>
						<polygon fill="#7C5904" points="223.613,227.662 361.684,227.662 361.684,234.861 223.613,234.861 227.761,231.262 						"/>
					</g>
				</g>
				<g>
					<g>
						<polygon fill="#7C5904" points="218.327,220.949 80.256,220.949 80.256,213.75 218.327,213.75 222.475,217.35 						"/>
					</g>
					<g>
						<polygon fill="#7C5904" points="223.717,213.75 361.788,213.75 361.788,220.949 223.717,220.949 227.865,217.35 						"/>
					</g>
				</g>
				<g>
					<g>
						<polygon fill="#7C5904" points="218.223,248.777 80.152,248.777 80.152,241.578 218.223,241.578 222.371,245.177 						"/>
					</g>
					<g>
						<polygon fill="#7C5904" points="223.613,241.578 361.684,241.578 361.684,248.777 223.613,248.777 227.761,245.177 						"/>
					</g>
				</g>
				<g>
					<g>
						<polygon fill="#7C5904" points="218.223,262.689 80.152,262.689 80.152,255.49 218.223,255.49 222.371,259.091 						"/>
					</g>
					<g>
						<polygon fill="#7C5904" points="223.613,255.49 361.684,255.49 361.684,262.689 223.613,262.689 227.761,259.091 						"/>
					</g>
				</g>
			</g>
		</g>
	</g>
</g>
</svg>
