<?xml version="1.0" encoding="utf-8"?>
<!-- Generator: Adobe Illustrator 16.0.4, SVG Export Plug-In . SVG Version: 6.00 Build 0)  -->
<!DOCTYPE svg PUBLIC "-//W3C//DTD SVG 1.1//EN" "http://www.w3.org/Graphics/SVG/1.1/DTD/svg11.dtd">
<svg version="1.1" id="Layer_1" xmlns="http://www.w3.org/2000/svg" xmlns:xlink="http://www.w3.org/1999/xlink" x="0px" y="0px"
	 width="448.747px" height="616.44px" viewBox="0 0 448.747 616.44" enable-background="new 0 0 448.747 616.44"
	 xml:space="preserve">
<rect x="0.5" y="0.5" fill="#FFFFFF" stroke="#C68D06" stroke-miterlimit="10" width="447.747" height="615.44"/>
<g>
	<path fill="#C68D06" d="M340.188,567.383c0-7.98,4.201-13.896,10.151-13.896c2.87,0,4.796,0.875,6.195,1.961l-1.295,1.891
		c-1.33-1.051-2.625-1.682-4.971-1.682c-4.726,0-7.631,5.041-7.665,11.482c1.645-1.785,4.095-3.467,7.386-3.467
		c5.46,0,8.086,3.396,8.086,8.086c0,4.9-3.466,8.611-8.682,8.611C344.283,580.369,340.188,576.273,340.188,567.383z
		 M355.659,571.793c0-3.465-1.75-5.984-5.95-5.984c-2.87,0-5.426,1.609-7.001,3.814c0.525,6.021,3.36,8.611,6.791,8.611
		C353.209,578.234,355.659,575.889,355.659,571.793z"/>
	<path fill="#C68D06" d="M365.072,566.928c0-8.086,3.431-13.441,9.521-13.441s9.451,5.355,9.451,13.441s-3.36,13.441-9.451,13.441
		S365.072,575.014,365.072,566.928z M381.595,566.928c0-7.316-2.766-11.236-7.001-11.236c-4.41,0-7.036,3.92-7.036,11.236
		s2.766,11.271,7.036,11.271C378.969,578.199,381.595,574.244,381.595,566.928z"/>
	<path fill="#C68D06" d="M390.762,553.977h2.556l7.735,22.613h0.07l7.771-22.613h2.416l-9.102,26.008h-2.345L390.762,553.977z"/>
</g>
<g>
	<g>
		<rect x="79.883" y="158.217" fill="#C0DDE7" width="281.738" height="7.199"/>
	</g>
	<g>
		<rect x="79.884" y="172.129" fill="#C0DDE7" width="281.738" height="7.199"/>
	</g>
	<g>
		<rect x="79.883" y="186.043" fill="#C0DDE7" width="281.738" height="7.201"/>
	</g>
	<g>
		<rect x="79.883" y="199.957" fill="#C0DDE7" width="281.738" height="7.199"/>
	</g>
	<g>
		<rect x="79.883" y="213.871" fill="#C0DDE7" width="281.738" height="7.199"/>
	</g>
	<g>
		<rect x="79.883" y="227.785" fill="#C0DDE7" width="281.738" height="7.199"/>
	</g>
	<g>
		<rect x="79.884" y="241.699" fill="#C0DDE7" width="281.738" height="7.199"/>
	</g>
	<g>
		<rect x="79.884" y="255.611" fill="#C0DDE7" width="281.738" height="7.201"/>
	</g>
	<g>
		<rect x="79.883" y="269.527" fill="#C0DDE7" width="281.738" height="7.199"/>
	</g>
	<g>
		<rect x="79.884" y="283.439" fill="#C0DDE7" width="281.738" height="7.201"/>
	</g>
	<g>
		<rect x="79.883" y="297.354" fill="#C0DDE7" width="281.738" height="7.201"/>
	</g>
	<g>
		<rect x="79.883" y="311.268" fill="#C0DDE7" width="281.738" height="7.201"/>
	</g>
	<g>
		<rect x="79.883" y="325.182" fill="#C0DDE7" width="281.738" height="7.199"/>
	</g>
	<g>
		<rect x="79.884" y="339.096" fill="#C0DDE7" width="281.738" height="7.199"/>
	</g>
	<g>
		<rect x="79.883" y="353.01" fill="#C0DDE7" width="281.738" height="7.199"/>
	</g>
	<g>
		<rect x="79.883" y="366.924" fill="#C0DDE7" width="281.738" height="7.199"/>
	</g>
	<g>
		<rect x="79.883" y="380.838" fill="#C0DDE7" width="281.738" height="7.199"/>
	</g>
	<g>
		<rect x="79.883" y="394.752" fill="#C0DDE7" width="281.738" height="7.199"/>
	</g>
	<g>
		<rect x="79.884" y="408.664" fill="#C0DDE7" width="281.738" height="7.199"/>
	</g>
	<g>
		<rect x="79.883" y="422.578" fill="#C0DDE7" width="281.738" height="7.201"/>
	</g>
	<g>
		<rect x="79.884" y="436.492" fill="#C0DDE7" width="281.738" height="7.199"/>
	</g>
	<g>
		<rect x="79.883" y="450.406" fill="#C0DDE7" width="281.738" height="7.199"/>
	</g>
	<g>
		<rect x="79.884" y="464.32" fill="#C0DDE7" width="281.738" height="7.199"/>
	</g>
	<g>
		<rect x="79.883" y="478.234" fill="#C0DDE7" width="281.738" height="7.199"/>
	</g>
	<g>
		<rect x="79.883" y="60.818" fill="#C0DDE7" width="281.738" height="7.201"/>
	</g>
	<g>
		<rect x="79.884" y="74.732" fill="#C0DDE7" width="281.738" height="7.201"/>
	</g>
	<g>
		<rect x="79.884" y="144.303" fill="#C0DDE7" width="281.738" height="7.199"/>
	</g>
	<g>
		<rect x="79.883" y="88.646" fill="#C0DDE7" width="281.738" height="7.199"/>
	</g>
	<g>
		<rect x="79.884" y="102.561" fill="#C0DDE7" width="281.738" height="7.199"/>
	</g>
	<g>
		<rect x="79.884" y="116.475" fill="#C0DDE7" width="281.738" height="7.199"/>
	</g>
	<g>
		<rect x="79.884" y="130.389" fill="#C0DDE7" width="281.738" height="7.199"/>
	</g>
	<g>
		<g>
			<g>
				<path fill="#C63706" d="M66.399,273.842h7.289v3.077h-1.797v10.871h1.797v3.077h-7.289v-3.077h1.763v-10.871h-1.763V273.842z"/>
			</g>
			<g>
				<g>
					<g>
						<polygon fill="#7C5904" points="218.161,290.641 80.091,290.641 80.091,283.441 218.161,283.441 222.31,287.041 						"/>
					</g>
					<g>
						<polygon fill="#7C5904" points="223.552,283.441 361.622,283.441 361.622,290.641 223.552,290.641 227.699,287.041 						"/>
					</g>
				</g>
				<g>
					<g>
						<polygon fill="#7C5904" points="218.161,304.555 80.091,304.555 80.091,297.355 218.161,297.355 222.31,300.955 						"/>
					</g>
					<g>
						<polygon fill="#7C5904" points="223.552,297.355 361.622,297.355 361.622,304.555 223.552,304.555 227.699,300.955 						"/>
					</g>
				</g>
				<g>
					<g>
						<polygon fill="#7C5904" points="218.161,374.123 80.091,374.123 80.091,366.924 218.161,366.924 222.31,370.523 						"/>
					</g>
					<g>
						<polygon fill="#7C5904" points="223.552,366.924 361.622,366.924 361.622,374.123 223.552,374.123 227.699,370.523 						"/>
					</g>
				</g>
				<g>
					<g>
						<polygon fill="#7C5904" points="218.161,318.469 80.091,318.469 80.091,311.27 218.161,311.27 222.31,314.869 						"/>
					</g>
					<g>
						<polygon fill="#7C5904" points="223.552,311.27 361.622,311.27 361.622,318.469 223.552,318.469 227.699,314.869 						"/>
					</g>
				</g>
				<g>
					<g>
						<polygon fill="#7C5904" points="218.161,332.383 80.091,332.383 80.091,325.184 218.161,325.184 222.31,328.783 						"/>
					</g>
					<g>
						<polygon fill="#7C5904" points="223.552,325.184 361.622,325.184 361.622,332.383 223.552,332.383 227.699,328.783 						"/>
					</g>
				</g>
				<g>
					<g>
						<polygon fill="#7C5904" points="218.161,346.297 80.091,346.297 80.091,339.096 218.161,339.096 222.31,342.695 						"/>
					</g>
					<g>
						<polygon fill="#7C5904" points="223.552,339.096 361.622,339.096 361.622,346.297 223.552,346.297 227.699,342.695 						"/>
					</g>
				</g>
				<g>
					<g>
						<polygon fill="#7C5904" points="218.161,360.211 80.091,360.211 80.091,353.01 218.161,353.01 222.31,356.609 						"/>
					</g>
					<g>
						<polygon fill="#7C5904" points="223.552,353.01 361.622,353.01 361.622,360.211 223.552,360.211 227.699,356.609 						"/>
					</g>
				</g>
			</g>
		</g>
		<g>
			<g>
				<path fill="#398EB0" d="M63.277,402.668c-0.958-0.194-1.844-0.552-2.656-1.072c-0.812-0.521-1.517-1.162-2.111-1.926
					c-0.596-0.764-1.06-1.627-1.393-2.589c-0.333-0.962-0.5-1.982-0.5-3.061c0-0.816,0.097-1.601,0.292-2.353
					c0.195-0.753,0.468-1.456,0.82-2.111s0.777-1.251,1.275-1.786c0.498-0.535,1.052-0.993,1.662-1.376
					c0.61-0.381,1.267-0.677,1.971-0.887s1.441-0.314,2.212-0.314s1.51,0.104,2.218,0.314c0.707,0.21,1.366,0.506,1.977,0.887
					c0.61,0.383,1.164,0.841,1.662,1.376c0.498,0.535,0.924,1.131,1.28,1.786c0.355,0.655,0.63,1.358,0.825,2.111
					c0.195,0.752,0.292,1.536,0.292,2.353c0,1.093-0.172,2.126-0.517,3.1s-0.822,1.846-1.432,2.616
					c-0.61,0.771-1.335,1.416-2.173,1.932c-0.838,0.518-1.748,0.861-2.729,1.033c0.232,0.098,0.462,0.204,0.69,0.32
					c0.229,0.116,0.459,0.225,0.691,0.326c0.232,0.101,0.462,0.187,0.691,0.258c0.228,0.071,0.462,0.11,0.702,0.118
					c0.232,0,0.458-0.03,0.679-0.09c0.221-0.06,0.421-0.153,0.601-0.28c0.18-0.128,0.335-0.293,0.466-0.494
					c0.131-0.203,0.219-0.449,0.264-0.742l2.504,1.247c-0.067,0.547-0.223,1.041-0.466,1.482c-0.243,0.441-0.556,0.819-0.938,1.134
					s-0.816,0.559-1.303,0.73s-1.003,0.258-1.55,0.258c-0.442,0-0.885-0.084-1.331-0.252c-0.445-0.169-0.876-0.353-1.291-0.551
					c-0.416-0.198-0.807-0.382-1.174-0.55c-0.367-0.169-0.689-0.253-0.966-0.253c-0.12,0-0.227-0.002-0.32-0.006
					c-0.093-0.004-0.185-0.004-0.275,0s-0.189,0.016-0.297,0.034c-0.109,0.019-0.234,0.054-0.376,0.106L63.277,402.668z
					 M64.849,399.311c0.651,0,1.249-0.141,1.792-0.422c0.542-0.28,1.009-0.662,1.398-1.146c0.389-0.482,0.691-1.044,0.904-1.685
					c0.214-0.64,0.32-1.319,0.32-2.038c0-0.727-0.108-1.411-0.326-2.056c-0.217-0.644-0.522-1.207-0.916-1.689
					c-0.393-0.483-0.859-0.865-1.398-1.146c-0.539-0.281-1.13-0.421-1.774-0.421s-1.235,0.14-1.774,0.421
					c-0.539,0.28-1.003,0.662-1.393,1.146c-0.389,0.482-0.694,1.046-0.916,1.689c-0.221,0.645-0.331,1.329-0.331,2.056
					c0,0.719,0.11,1.398,0.331,2.038c0.221,0.641,0.526,1.202,0.916,1.685c0.389,0.483,0.854,0.865,1.393,1.146
					C63.614,399.17,64.205,399.311,64.849,399.311z"/>
			</g>
			<g>
				<g>
					<g>
						<polygon fill="#7C5904" points="218.161,401.951 80.091,401.951 80.091,394.752 218.161,394.752 222.31,398.352 						"/>
					</g>
					<g>
						<polygon fill="#7C5904" points="223.552,394.752 361.622,394.752 361.622,401.951 223.552,401.951 227.699,398.352 						"/>
					</g>
				</g>
				<g>
					<g>
						<polygon fill="#7C5904" points="218.161,415.865 80.091,415.865 80.091,408.666 218.161,408.666 222.31,412.266 						"/>
					</g>
					<g>
						<polygon fill="#7C5904" points="223.552,408.666 361.622,408.666 361.622,415.865 223.552,415.865 227.699,412.266 						"/>
					</g>
				</g>
				<g>
					<g>
						<polygon fill="#7C5904" points="218.161,485.434 80.091,485.434 80.091,478.234 218.161,478.234 222.31,481.834 						"/>
					</g>
					<g>
						<polygon fill="#7C5904" points="223.552,478.234 361.622,478.234 361.622,485.434 223.552,485.434 227.699,481.834 						"/>
					</g>
				</g>
				<g>
					<g>
						<polygon fill="#7C5904" points="218.161,429.779 80.091,429.779 80.091,422.58 218.161,422.58 222.31,426.18 						"/>
					</g>
					<g>
						<polygon fill="#7C5904" points="223.552,422.58 361.622,422.58 361.622,429.779 223.552,429.779 227.699,426.18 						"/>
					</g>
				</g>
				<g>
					<g>
						<polygon fill="#7C5904" points="218.161,443.693 80.091,443.693 80.091,436.494 218.161,436.494 222.31,440.094 						"/>
					</g>
					<g>
						<polygon fill="#7C5904" points="223.552,436.494 361.622,436.494 361.622,443.693 223.552,443.693 227.699,440.094 						"/>
					</g>
				</g>
				<g>
					<g>
						<polygon fill="#7C5904" points="218.161,457.607 80.091,457.607 80.091,450.406 218.161,450.406 222.31,454.006 						"/>
					</g>
					<g>
						<polygon fill="#7C5904" points="223.552,450.406 361.622,450.406 361.622,457.607 223.552,457.607 227.699,454.006 						"/>
					</g>
				</g>
				<g>
					<g>
						<polygon fill="#7C5904" points="218.161,471.521 80.091,471.521 80.091,464.32 218.161,464.32 222.31,467.92 						"/>
					</g>
					<g>
						<polygon fill="#7C5904" points="223.552,464.32 361.622,464.32 361.622,471.521 223.552,471.521 227.699,467.92 						"/>
					</g>
				</g>
			</g>
		</g>
		<g>
			<g>
				<g>
					<g>
						<polygon fill="#7C5904" points="218.161,68.02 80.091,68.02 80.091,60.82 218.161,60.82 222.309,64.42 						"/>
					</g>
					<g>
						<polygon fill="#7C5904" points="223.552,60.82 361.622,60.82 361.622,68.02 223.552,68.02 227.7,64.42 						"/>
					</g>
				</g>
				<g>
					<g>
						<polygon fill="#7C5904" points="218.161,151.502 80.091,151.502 80.091,144.303 218.161,144.303 222.309,147.902 						"/>
					</g>
					<g>
						<polygon fill="#7C5904" points="223.552,144.303 361.622,144.303 361.622,151.502 223.552,151.502 227.7,147.902 						"/>
					</g>
				</g>
				<g>
					<g>
						<polygon fill="#7C5904" points="218.161,95.848 80.091,95.848 80.091,88.648 218.161,88.648 222.309,92.248 						"/>
					</g>
					<g>
						<polygon fill="#7C5904" points="223.552,88.648 361.622,88.648 361.622,95.848 223.552,95.848 227.7,92.248 						"/>
					</g>
				</g>
				<g>
					<g>
						<polygon fill="#7C5904" points="218.161,81.932 80.091,81.932 80.091,74.732 218.161,74.732 222.309,78.332 						"/>
					</g>
					<g>
						<polygon fill="#7C5904" points="223.552,74.732 361.622,74.732 361.622,81.932 223.552,81.932 227.7,78.332 						"/>
					</g>
				</g>
				<g>
					<g>
						<polygon fill="#7C5904" points="218.161,109.762 80.091,109.762 80.091,102.562 218.161,102.562 222.309,106.162 						"/>
					</g>
					<g>
						<polygon fill="#7C5904" points="223.552,102.562 361.622,102.562 361.622,109.762 223.552,109.762 227.7,106.162 						"/>
					</g>
				</g>
				<g>
					<g>
						<polygon fill="#7C5904" points="218.161,123.674 80.091,123.674 80.091,116.475 218.161,116.475 222.309,120.074 						"/>
					</g>
					<g>
						<polygon fill="#7C5904" points="223.552,116.475 361.622,116.475 361.622,123.674 223.552,123.674 227.7,120.074 						"/>
					</g>
				</g>
				<g>
					<g>
						<polygon fill="#7C5904" points="218.161,137.588 80.091,137.588 80.091,130.389 218.161,130.389 222.309,133.988 						"/>
					</g>
					<g>
						<polygon fill="#7C5904" points="223.552,130.389 361.622,130.389 361.622,137.588 223.552,137.588 227.7,133.988 						"/>
					</g>
				</g>
			</g>
			<g>
				<path fill="#C63706" d="M67.407,64.122h1.696l-0.764-2.448h-5.233l-0.764,2.448h1.797v3.077h-6.458v-3.077h1.269l4.638-13.948
					h4.503l4.537,13.948h1.235v3.077h-6.458V64.122z M63.993,58.799h3.437L65.7,53.262L63.993,58.799z"/>
			</g>
		</g>
		<g>
			<g>
				<path fill="#398EB0" d="M63.069,179.002c-0.958-0.194-1.844-0.552-2.656-1.072c-0.812-0.521-1.517-1.162-2.111-1.926
					c-0.596-0.764-1.06-1.627-1.393-2.589c-0.333-0.962-0.5-1.982-0.5-3.061c0-0.816,0.097-1.601,0.292-2.353
					c0.195-0.753,0.468-1.456,0.82-2.111s0.777-1.251,1.275-1.786c0.498-0.535,1.052-0.993,1.662-1.376
					c0.61-0.381,1.267-0.677,1.971-0.887s1.441-0.314,2.212-0.314s1.51,0.104,2.218,0.314c0.707,0.21,1.366,0.506,1.977,0.887
					c0.61,0.383,1.164,0.841,1.662,1.376c0.498,0.535,0.924,1.131,1.28,1.786c0.355,0.655,0.63,1.358,0.825,2.111
					c0.195,0.752,0.292,1.536,0.292,2.353c0,1.093-0.172,2.126-0.517,3.1s-0.822,1.846-1.432,2.616
					c-0.61,0.771-1.335,1.416-2.173,1.932c-0.838,0.518-1.748,0.861-2.729,1.033c0.232,0.098,0.462,0.204,0.69,0.32
					c0.229,0.116,0.459,0.225,0.691,0.326c0.232,0.101,0.462,0.187,0.691,0.258c0.228,0.071,0.462,0.11,0.702,0.118
					c0.232,0,0.458-0.03,0.679-0.09c0.221-0.06,0.421-0.153,0.601-0.28c0.18-0.128,0.335-0.293,0.466-0.494
					c0.131-0.203,0.219-0.449,0.264-0.742l2.504,1.247c-0.067,0.547-0.223,1.041-0.466,1.482c-0.243,0.441-0.556,0.819-0.938,1.134
					s-0.816,0.559-1.303,0.73s-1.003,0.258-1.55,0.258c-0.442,0-0.885-0.084-1.331-0.252c-0.445-0.169-0.876-0.353-1.291-0.551
					c-0.416-0.198-0.807-0.382-1.174-0.55c-0.367-0.169-0.689-0.253-0.966-0.253c-0.12,0-0.227-0.002-0.32-0.006
					c-0.093-0.004-0.185-0.004-0.275,0s-0.189,0.016-0.297,0.034c-0.109,0.019-0.234,0.054-0.376,0.106L63.069,179.002z
					 M64.641,175.645c0.651,0,1.249-0.141,1.792-0.422c0.542-0.28,1.009-0.662,1.398-1.146c0.389-0.482,0.691-1.044,0.904-1.685
					c0.214-0.64,0.32-1.319,0.32-2.038c0-0.727-0.108-1.411-0.326-2.056c-0.217-0.644-0.522-1.207-0.916-1.689
					c-0.393-0.483-0.859-0.865-1.398-1.146c-0.539-0.281-1.13-0.421-1.774-0.421s-1.235,0.14-1.774,0.421
					c-0.539,0.28-1.003,0.662-1.393,1.146c-0.389,0.482-0.694,1.046-0.916,1.689c-0.221,0.645-0.331,1.329-0.331,2.056
					c0,0.719,0.11,1.398,0.331,2.038c0.221,0.641,0.526,1.202,0.916,1.685c0.389,0.483,0.854,0.865,1.393,1.146
					C63.406,175.504,63.997,175.645,64.641,175.645z"/>
			</g>
			<g>
				<g>
					<g>
						<polygon fill="#7C5904" points="218.057,193.244 79.987,193.244 79.987,186.045 218.057,186.045 222.205,189.645 						"/>
					</g>
					<g>
						<polygon fill="#7C5904" points="223.448,186.045 361.518,186.045 361.518,193.244 223.448,193.244 227.596,189.645 						"/>
					</g>
				</g>
				<g>
					<g>
						<polygon fill="#7C5904" points="218.057,179.33 79.987,179.33 79.987,172.131 218.057,172.131 222.205,175.73 						"/>
					</g>
					<g>
						<polygon fill="#7C5904" points="223.448,172.131 361.518,172.131 361.518,179.33 223.448,179.33 227.596,175.73 						"/>
					</g>
				</g>
				<g>
					<g>
						<polygon fill="#7C5904" points="218.057,207.158 79.987,207.158 79.987,199.959 218.057,199.959 222.205,203.559 						"/>
					</g>
					<g>
						<polygon fill="#7C5904" points="223.448,199.959 361.518,199.959 361.518,207.158 223.448,207.158 227.596,203.559 						"/>
					</g>
				</g>
				<g>
					<g>
						<polygon fill="#7C5904" points="218.057,234.984 79.987,234.984 79.987,227.785 218.057,227.785 222.205,231.385 						"/>
					</g>
					<g>
						<polygon fill="#7C5904" points="223.448,227.785 361.518,227.785 361.518,234.984 223.448,234.984 227.596,231.385 						"/>
					</g>
				</g>
				<g>
					<g>
						<polygon fill="#7C5904" points="218.161,221.072 80.091,221.072 80.091,213.873 218.161,213.873 222.309,217.473 						"/>
					</g>
					<g>
						<polygon fill="#7C5904" points="223.552,213.873 361.622,213.873 361.622,221.072 223.552,221.072 227.7,217.473 						"/>
					</g>
				</g>
				<g>
					<g>
						<polygon fill="#7C5904" points="218.057,248.9 79.987,248.9 79.987,241.701 218.057,241.701 222.205,245.301 						"/>
					</g>
					<g>
						<polygon fill="#7C5904" points="223.448,241.701 361.518,241.701 361.518,248.9 223.448,248.9 227.596,245.301 						"/>
					</g>
				</g>
				<g>
					<g>
						<polygon fill="#7C5904" points="218.057,262.812 79.987,262.812 79.987,255.613 218.057,255.613 222.205,259.213 						"/>
					</g>
					<g>
						<polygon fill="#7C5904" points="223.448,255.613 361.518,255.613 361.518,262.812 223.448,262.812 227.596,259.213 						"/>
					</g>
				</g>
			</g>
		</g>
	</g>
</g>
</svg>
