<?xml version="1.0" encoding="utf-8"?>
<!-- Generator: Adobe Illustrator 16.0.4, SVG Export Plug-In . SVG Version: 6.00 Build 0)  -->
<!DOCTYPE svg PUBLIC "-//W3C//DTD SVG 1.1//EN" "http://www.w3.org/Graphics/SVG/1.1/DTD/svg11.dtd">
<svg version="1.1" id="Layer_1" xmlns="http://www.w3.org/2000/svg" xmlns:xlink="http://www.w3.org/1999/xlink" x="0px" y="0px"
	 width="448.747px" height="616.439px" viewBox="0 0 448.747 616.439" enable-background="new 0 0 448.747 616.439"
	 xml:space="preserve">
<rect x="0.5" y="0.5" fill="#FFFFFF" stroke="#C68D06" stroke-miterlimit="10" width="447.747" height="615.439"/>
<g>
	<path fill="#C68D06" d="M345.77,569.637c0-7.981,4.201-13.896,10.151-13.896c2.87,0,4.796,0.875,6.195,1.96l-1.295,1.891
		c-1.33-1.051-2.625-1.681-4.971-1.681c-4.725,0-7.631,5.041-7.665,11.481c1.645-1.785,4.095-3.466,7.386-3.466
		c5.46,0,8.086,3.396,8.086,8.086c0,4.9-3.466,8.611-8.682,8.611C349.866,582.623,345.77,578.527,345.77,569.637z M361.242,574.047
		c0-3.465-1.75-5.985-5.95-5.985c-2.87,0-5.426,1.61-7.001,3.815c0.525,6.021,3.36,8.61,6.791,8.61
		C358.792,580.487,361.242,578.143,361.242,574.047z"/>
	<path fill="#C68D06" d="M370.831,579.893h4.865v-20.967c-1.26,0.665-3.29,1.189-4.796,1.189v-2.205
		c1.995-0.07,3.78-0.595,4.936-1.68h2.311v23.662h4.41v2.24h-11.726V579.893z"/>
	<path fill="#C68D06" d="M388.61,556.23h2.556l7.735,22.612h0.07l7.771-22.612h2.416l-9.102,26.008h-2.345L388.61,556.23z"/>
</g>
<g>
	<g>
		<rect x="80.216" y="157.967" fill="#C0DDE7" width="281.739" height="7.199"/>
	</g>
	<g>
		<rect x="80.216" y="171.879" fill="#C0DDE7" width="281.738" height="7.199"/>
	</g>
	<g>
		<rect x="80.216" y="185.793" fill="#C0DDE7" width="281.739" height="7.201"/>
	</g>
	<g>
		<rect x="80.216" y="199.707" fill="#C0DDE7" width="281.739" height="7.199"/>
	</g>
	<g>
		<rect x="80.216" y="213.621" fill="#C0DDE7" width="281.739" height="7.199"/>
	</g>
	<g>
		<rect x="80.216" y="227.535" fill="#C0DDE7" width="281.739" height="7.199"/>
	</g>
	<g>
		<rect x="80.216" y="241.449" fill="#C0DDE7" width="281.738" height="7.199"/>
	</g>
	<g>
		<rect x="80.216" y="255.361" fill="#C0DDE7" width="281.738" height="7.201"/>
	</g>
	<g>
		<rect x="80.216" y="269.277" fill="#C0DDE7" width="281.739" height="7.199"/>
	</g>
	<g>
		<rect x="80.216" y="283.189" fill="#C0DDE7" width="281.738" height="7.201"/>
	</g>
	<g>
		<rect x="80.216" y="297.104" fill="#C0DDE7" width="281.739" height="7.201"/>
	</g>
	<g>
		<rect x="80.216" y="311.018" fill="#C0DDE7" width="281.739" height="7.201"/>
	</g>
	<g>
		<rect x="80.216" y="324.932" fill="#C0DDE7" width="281.739" height="7.199"/>
	</g>
	<g>
		<rect x="80.216" y="338.846" fill="#C0DDE7" width="281.738" height="7.199"/>
	</g>
	<g>
		<rect x="80.216" y="352.76" fill="#C0DDE7" width="281.739" height="7.199"/>
	</g>
	<g>
		<rect x="80.216" y="366.674" fill="#C0DDE7" width="281.739" height="7.199"/>
	</g>
	<g>
		<rect x="80.216" y="380.588" fill="#C0DDE7" width="281.739" height="7.199"/>
	</g>
	<g>
		<rect x="80.216" y="394.502" fill="#C0DDE7" width="281.739" height="7.199"/>
	</g>
	<g>
		<rect x="80.216" y="408.414" fill="#C0DDE7" width="281.738" height="7.199"/>
	</g>
	<g>
		<rect x="80.216" y="422.328" fill="#C0DDE7" width="281.739" height="7.201"/>
	</g>
	<g>
		<rect x="80.216" y="436.242" fill="#C0DDE7" width="281.738" height="7.199"/>
	</g>
	<g>
		<rect x="80.216" y="450.156" fill="#C0DDE7" width="281.739" height="7.199"/>
	</g>
	<g>
		<rect x="80.216" y="464.07" fill="#C0DDE7" width="281.738" height="7.199"/>
	</g>
	<g>
		<rect x="80.216" y="477.984" fill="#C0DDE7" width="281.739" height="7.199"/>
	</g>
	<g>
		<rect x="80.216" y="60.568" fill="#C0DDE7" width="281.739" height="7.201"/>
	</g>
	<g>
		<rect x="80.216" y="74.482" fill="#C0DDE7" width="281.738" height="7.201"/>
	</g>
	<g>
		<rect x="80.216" y="144.053" fill="#C0DDE7" width="281.738" height="7.199"/>
	</g>
	<g>
		<rect x="80.216" y="88.396" fill="#C0DDE7" width="281.739" height="7.199"/>
	</g>
	<g>
		<rect x="80.216" y="102.311" fill="#C0DDE7" width="281.738" height="7.199"/>
	</g>
	<g>
		<rect x="80.216" y="116.225" fill="#C0DDE7" width="281.738" height="7.199"/>
	</g>
	<g>
		<rect x="80.216" y="130.139" fill="#C0DDE7" width="281.738" height="7.199"/>
	</g>
	<g>
		<g>
			<g>
				<path fill="#C63706" d="M62.688,287.54h1.763v-10.972h-2.066v2.201h-3.661v-5.178H74.21v5.178h-3.684v-2.201h-2.347v10.972
					h1.797v3.077h-7.289V287.54z"/>
			</g>
			<g>
				<g>
					<g>
						<polygon fill="#7C5904" points="218.494,290.391 80.423,290.391 80.423,283.191 218.494,283.191 222.642,286.791 						"/>
					</g>
					<g>
						<polygon fill="#7C5904" points="223.884,283.191 361.955,283.191 361.955,290.391 223.884,290.391 228.032,286.791 						"/>
					</g>
				</g>
				<g>
					<g>
						<polygon fill="#7C5904" points="218.494,304.305 80.423,304.305 80.423,297.105 218.494,297.105 222.642,300.705 						"/>
					</g>
					<g>
						<polygon fill="#7C5904" points="223.884,297.105 361.955,297.105 361.955,304.305 223.884,304.305 228.032,300.705 						"/>
					</g>
				</g>
				<g>
					<g>
						<polygon fill="#7C5904" points="218.494,373.873 80.423,373.873 80.423,366.674 218.494,366.674 222.642,370.273 						"/>
					</g>
					<g>
						<polygon fill="#7C5904" points="223.884,366.674 361.955,366.674 361.955,373.873 223.884,373.873 228.032,370.273 						"/>
					</g>
				</g>
				<g>
					<g>
						<polygon fill="#7C5904" points="218.494,318.219 80.423,318.219 80.423,311.02 218.494,311.02 222.642,314.619 						"/>
					</g>
					<g>
						<polygon fill="#7C5904" points="223.884,311.02 361.955,311.02 361.955,318.219 223.884,318.219 228.032,314.619 						"/>
					</g>
				</g>
				<g>
					<g>
						<polygon fill="#7C5904" points="218.494,332.133 80.423,332.133 80.423,324.934 218.494,324.934 222.642,328.533 						"/>
					</g>
					<g>
						<polygon fill="#7C5904" points="223.884,324.934 361.955,324.934 361.955,332.133 223.884,332.133 228.032,328.533 						"/>
					</g>
				</g>
				<g>
					<g>
						<polygon fill="#7C5904" points="218.494,346.047 80.423,346.047 80.423,338.846 218.494,338.846 222.642,342.445 						"/>
					</g>
					<g>
						<polygon fill="#7C5904" points="223.884,338.846 361.955,338.846 361.955,346.047 223.884,346.047 228.032,342.445 						"/>
					</g>
				</g>
				<g>
					<g>
						<polygon fill="#7C5904" points="218.494,359.961 80.423,359.961 80.423,352.76 218.494,352.76 222.642,356.359 						"/>
					</g>
					<g>
						<polygon fill="#7C5904" points="223.884,352.76 361.955,352.76 361.955,359.961 223.884,359.961 228.032,356.359 						"/>
					</g>
				</g>
			</g>
		</g>
		<g>
			<g>
				<path fill="#398EB0" d="M62.688,399.206h1.763v-10.972h-2.066v2.201h-3.661v-5.178H74.21v5.178h-3.684v-2.201h-2.347v10.972
					h1.797v3.077h-7.289V399.206z"/>
			</g>
			<g>
				<g>
					<g>
						<polygon fill="#7C5904" points="218.494,401.701 80.423,401.701 80.423,394.502 218.494,394.502 222.642,398.102 						"/>
					</g>
					<g>
						<polygon fill="#7C5904" points="223.884,394.502 361.955,394.502 361.955,401.701 223.884,401.701 228.032,398.102 						"/>
					</g>
				</g>
				<g>
					<g>
						<polygon fill="#7C5904" points="218.494,415.615 80.423,415.615 80.423,408.416 218.494,408.416 222.642,412.016 						"/>
					</g>
					<g>
						<polygon fill="#7C5904" points="223.884,408.416 361.955,408.416 361.955,415.615 223.884,415.615 228.032,412.016 						"/>
					</g>
				</g>
				<g>
					<g>
						<polygon fill="#7C5904" points="218.494,485.184 80.423,485.184 80.423,477.984 218.494,477.984 222.642,481.584 						"/>
					</g>
					<g>
						<polygon fill="#7C5904" points="223.884,477.984 361.955,477.984 361.955,485.184 223.884,485.184 228.032,481.584 						"/>
					</g>
				</g>
				<g>
					<g>
						<polygon fill="#7C5904" points="218.494,429.529 80.423,429.529 80.423,422.33 218.494,422.33 222.642,425.93 						"/>
					</g>
					<g>
						<polygon fill="#7C5904" points="223.884,422.33 361.955,422.33 361.955,429.529 223.884,429.529 228.032,425.93 						"/>
					</g>
				</g>
				<g>
					<g>
						<polygon fill="#7C5904" points="218.494,443.443 80.423,443.443 80.423,436.244 218.494,436.244 222.642,439.844 						"/>
					</g>
					<g>
						<polygon fill="#7C5904" points="223.884,436.244 361.955,436.244 361.955,443.443 223.884,443.443 228.032,439.844 						"/>
					</g>
				</g>
				<g>
					<g>
						<polygon fill="#7C5904" points="218.494,457.357 80.423,457.357 80.423,450.156 218.494,450.156 222.642,453.756 						"/>
					</g>
					<g>
						<polygon fill="#7C5904" points="223.884,450.156 361.955,450.156 361.955,457.357 223.884,457.357 228.032,453.756 						"/>
					</g>
				</g>
				<g>
					<g>
						<polygon fill="#7C5904" points="218.494,471.271 80.423,471.271 80.423,464.07 218.494,464.07 222.642,467.67 						"/>
					</g>
					<g>
						<polygon fill="#7C5904" points="223.884,464.07 361.955,464.07 361.955,471.271 223.884,471.271 228.032,467.67 						"/>
					</g>
				</g>
			</g>
		</g>
		<g>
			<g>
				<g>
					<g>
						<polygon fill="#7C5904" points="218.494,67.77 80.423,67.77 80.423,60.568 218.494,60.568 222.642,64.17 						"/>
					</g>
					<g>
						<polygon fill="#7C5904" points="223.884,60.568 361.955,60.568 361.955,67.77 223.884,67.77 228.032,64.17 						"/>
					</g>
				</g>
				<g>
					<g>
						<polygon fill="#7C5904" points="218.494,151.252 80.423,151.252 80.423,144.053 218.494,144.053 222.642,147.652 						"/>
					</g>
					<g>
						<polygon fill="#7C5904" points="223.884,144.053 361.955,144.053 361.955,151.252 223.884,151.252 228.032,147.652 						"/>
					</g>
				</g>
				<g>
					<g>
						<polygon fill="#7C5904" points="218.494,95.598 80.423,95.598 80.423,88.398 218.494,88.398 222.642,91.996 						"/>
					</g>
					<g>
						<polygon fill="#7C5904" points="223.884,88.398 361.955,88.398 361.955,95.598 223.884,95.598 228.032,91.996 						"/>
					</g>
				</g>
				<g>
					<g>
						<polygon fill="#7C5904" points="218.494,81.682 80.423,81.682 80.423,74.482 218.494,74.482 222.642,78.082 						"/>
					</g>
					<g>
						<polygon fill="#7C5904" points="223.884,74.482 361.955,74.482 361.955,81.682 223.884,81.682 228.032,78.082 						"/>
					</g>
				</g>
				<g>
					<g>
						<polygon fill="#7C5904" points="218.494,109.512 80.423,109.512 80.423,102.312 218.494,102.312 222.642,105.91 						"/>
					</g>
					<g>
						<polygon fill="#7C5904" points="223.884,102.312 361.955,102.312 361.955,109.512 223.884,109.512 228.032,105.91 						"/>
					</g>
				</g>
				<g>
					<g>
						<polygon fill="#7C5904" points="218.494,123.424 80.423,123.424 80.423,116.225 218.494,116.225 222.642,119.824 						"/>
					</g>
					<g>
						<polygon fill="#7C5904" points="223.884,116.225 361.955,116.225 361.955,123.424 223.884,123.424 228.032,119.824 						"/>
					</g>
				</g>
				<g>
					<g>
						<polygon fill="#7C5904" points="218.494,137.338 80.423,137.338 80.423,130.139 218.494,130.139 222.642,133.738 						"/>
					</g>
					<g>
						<polygon fill="#7C5904" points="223.884,130.139 361.955,130.139 361.955,137.338 223.884,137.338 228.032,133.738 						"/>
					</g>
				</g>
			</g>
			<g>
				<path fill="#C63706" d="M60.001,49.924h7.861c0.876,0,1.681,0.137,2.415,0.41s1.366,0.642,1.898,1.105
					c0.532,0.465,0.947,1,1.247,1.606s0.449,1.239,0.449,1.897c0,0.794-0.118,1.537-0.354,2.229
					c-0.236,0.692-0.601,1.294-1.095,1.803s-1.119,0.911-1.875,1.207s-1.651,0.444-2.684,0.444h-2.37v3.245h1.561v3.077h-7.053
					v-3.077h1.763v-10.86h-1.763V49.924z M65.493,53.012v4.571h1.539c0.854,0,1.531-0.18,2.033-0.539s0.752-0.929,0.752-1.707
					c0-0.727-0.236-1.295-0.708-1.707s-1.164-0.618-2.078-0.618H65.493z"/>
			</g>
		</g>
		<g>
			<g>
				<path fill="#398EB0" d="M49.284,175.54h1.583v-10.86h-1.583v-3.088h7.008l5.02,12.286l4.661-12.286h7.109v3.088h-1.583v10.86
					h1.561v3.077h-6.368v-3.077h1.168v-9.793l-5.099,12.668h-3.156l-5.188-12.331v9.456h1.269v3.077h-6.401V175.54z"/>
			</g>
			<g>
				<g>
					<g>
						<polygon fill="#7C5904" points="218.39,192.994 80.319,192.994 80.319,185.795 218.39,185.795 222.538,189.395 						"/>
					</g>
					<g>
						<polygon fill="#7C5904" points="223.78,185.795 361.851,185.795 361.851,192.994 223.78,192.994 227.928,189.395 						"/>
					</g>
				</g>
				<g>
					<g>
						<polygon fill="#7C5904" points="218.39,179.08 80.319,179.08 80.319,171.881 218.39,171.881 222.538,175.48 						"/>
					</g>
					<g>
						<polygon fill="#7C5904" points="223.78,171.881 361.851,171.881 361.851,179.08 223.78,179.08 227.928,175.48 						"/>
					</g>
				</g>
				<g>
					<g>
						<polygon fill="#7C5904" points="218.39,206.908 80.319,206.908 80.319,199.709 218.39,199.709 222.538,203.307 						"/>
					</g>
					<g>
						<polygon fill="#7C5904" points="223.78,199.709 361.851,199.709 361.851,206.908 223.78,206.908 227.928,203.307 						"/>
					</g>
				</g>
				<g>
					<g>
						<polygon fill="#7C5904" points="218.39,234.734 80.319,234.734 80.319,227.535 218.39,227.535 222.538,231.135 						"/>
					</g>
					<g>
						<polygon fill="#7C5904" points="223.78,227.535 361.851,227.535 361.851,234.734 223.78,234.734 227.928,231.135 						"/>
					</g>
				</g>
				<g>
					<g>
						<polygon fill="#7C5904" points="218.494,220.822 80.423,220.822 80.423,213.623 218.494,213.623 222.642,217.223 						"/>
					</g>
					<g>
						<polygon fill="#7C5904" points="223.884,213.623 361.955,213.623 361.955,220.822 223.884,220.822 228.032,217.223 						"/>
					</g>
				</g>
				<g>
					<g>
						<polygon fill="#7C5904" points="218.39,248.65 80.319,248.65 80.319,241.451 218.39,241.451 222.538,245.049 						"/>
					</g>
					<g>
						<polygon fill="#7C5904" points="223.78,241.451 361.851,241.451 361.851,248.65 223.78,248.65 227.928,245.049 						"/>
					</g>
				</g>
				<g>
					<g>
						<polygon fill="#7C5904" points="218.39,262.562 80.319,262.562 80.319,255.363 218.39,255.363 222.538,258.963 						"/>
					</g>
					<g>
						<polygon fill="#7C5904" points="223.78,255.363 361.851,255.363 361.851,262.562 223.78,262.562 227.928,258.963 						"/>
					</g>
				</g>
			</g>
		</g>
	</g>
</g>
</svg>
