<?xml version="1.0" encoding="utf-8"?>
<!-- Generator: Adobe Illustrator 16.0.4, SVG Export Plug-In . SVG Version: 6.00 Build 0)  -->
<!DOCTYPE svg PUBLIC "-//W3C//DTD SVG 1.1//EN" "http://www.w3.org/Graphics/SVG/1.1/DTD/svg11.dtd">
<svg version="1.1" id="Layer_1" xmlns="http://www.w3.org/2000/svg" xmlns:xlink="http://www.w3.org/1999/xlink" x="0px" y="0px"
	 width="448.746px" height="616.439px" viewBox="0 0 448.746 616.439" enable-background="new 0 0 448.746 616.439"
	 xml:space="preserve">
<rect x="0.5" y="0.5" fill="#FFFFFF" stroke="#C68D06" stroke-miterlimit="10" width="447.746" height="615.439"/>
<g>
	<path fill="#C68D06" d="M344.302,569.637c0-7.981,4.201-13.896,10.151-13.896c2.87,0,4.796,0.875,6.195,1.96l-1.295,1.891
		c-1.33-1.051-2.625-1.681-4.971-1.681c-4.726,0-7.631,5.041-7.665,11.481c1.645-1.785,4.095-3.466,7.386-3.466
		c5.46,0,8.086,3.396,8.086,8.086c0,4.9-3.466,8.611-8.682,8.611C348.397,582.623,344.302,578.527,344.302,569.637z
		 M359.773,574.047c0-3.465-1.75-5.985-5.95-5.985c-2.87,0-5.426,1.61-7.001,3.815c0.525,6.021,3.36,8.61,6.791,8.61
		C357.323,580.487,359.773,578.143,359.773,574.047z"/>
	<path fill="#C68D06" d="M369.362,579.893h4.865v-20.967c-1.26,0.665-3.29,1.189-4.796,1.189v-2.205
		c1.995-0.07,3.78-0.595,4.936-1.68h2.311v23.662h4.41v2.24h-11.726V579.893z"/>
	<path fill="#C68D06" d="M389.207,556.23h8.681c5.776,0,8.996,2.45,8.996,7c0,4.201-2.45,6.301-6.195,7.001l6.546,11.901h-2.801
		l-6.336-11.621h-6.44v11.621h-2.45V556.23z M397.713,568.307c4.271,0,6.686-1.226,6.686-4.971c0-3.57-2.38-4.831-6.721-4.831
		h-6.021v9.802H397.713z"/>
</g>
<g>
	<g>
		<rect x="80.217" y="171.876" fill="#C0DDE7" width="281.739" height="7.199"/>
	</g>
	<g>
		<rect x="80.217" y="185.788" fill="#C0DDE7" width="281.738" height="7.199"/>
	</g>
	<g>
		<rect x="80.217" y="199.702" fill="#C0DDE7" width="281.739" height="7.201"/>
	</g>
	<g>
		<rect x="80.217" y="213.616" fill="#C0DDE7" width="281.739" height="7.199"/>
	</g>
	<g>
		<rect x="80.217" y="227.53" fill="#C0DDE7" width="281.739" height="7.199"/>
	</g>
	<g>
		<rect x="80.217" y="241.444" fill="#C0DDE7" width="281.739" height="7.199"/>
	</g>
	<g>
		<rect x="80.217" y="255.358" fill="#C0DDE7" width="281.738" height="7.199"/>
	</g>
	<g>
		<rect x="80.217" y="269.271" fill="#C0DDE7" width="281.738" height="7.201"/>
	</g>
	<g>
		<rect x="80.217" y="283.187" fill="#C0DDE7" width="281.739" height="7.199"/>
	</g>
	<g>
		<rect x="80.217" y="297.099" fill="#C0DDE7" width="281.738" height="7.201"/>
	</g>
	<g>
		<rect x="80.217" y="311.013" fill="#C0DDE7" width="281.739" height="7.201"/>
	</g>
	<g>
		<rect x="80.217" y="324.927" fill="#C0DDE7" width="281.739" height="7.201"/>
	</g>
	<g>
		<rect x="80.217" y="338.841" fill="#C0DDE7" width="281.739" height="7.199"/>
	</g>
	<g>
		<rect x="80.217" y="352.755" fill="#C0DDE7" width="281.738" height="7.199"/>
	</g>
	<g>
		<rect x="80.217" y="366.669" fill="#C0DDE7" width="281.739" height="7.199"/>
	</g>
	<g>
		<rect x="80.217" y="380.583" fill="#C0DDE7" width="281.739" height="7.199"/>
	</g>
	<g>
		<rect x="80.217" y="394.497" fill="#C0DDE7" width="281.739" height="7.199"/>
	</g>
	<g>
		<rect x="80.217" y="408.411" fill="#C0DDE7" width="281.739" height="7.199"/>
	</g>
	<g>
		<rect x="80.217" y="422.323" fill="#C0DDE7" width="281.738" height="7.199"/>
	</g>
	<g>
		<rect x="80.217" y="436.237" fill="#C0DDE7" width="281.739" height="7.201"/>
	</g>
	<g>
		<rect x="80.217" y="450.151" fill="#C0DDE7" width="281.738" height="7.199"/>
	</g>
	<g>
		<rect x="80.217" y="464.065" fill="#C0DDE7" width="281.739" height="7.199"/>
	</g>
	<g>
		<rect x="80.217" y="477.979" fill="#C0DDE7" width="281.738" height="7.199"/>
	</g>
	<g>
		<rect x="80.217" y="491.894" fill="#C0DDE7" width="281.739" height="7.199"/>
	</g>
	<g>
		<rect x="80.217" y="74.478" fill="#C0DDE7" width="281.739" height="7.201"/>
	</g>
	<g>
		<rect x="80.217" y="88.392" fill="#C0DDE7" width="281.738" height="7.201"/>
	</g>
	<g>
		<rect x="80.217" y="157.962" fill="#C0DDE7" width="281.738" height="7.199"/>
	</g>
	<g>
		<rect x="80.217" y="102.306" fill="#C0DDE7" width="281.739" height="7.199"/>
	</g>
	<g>
		<rect x="80.217" y="116.22" fill="#C0DDE7" width="281.738" height="7.199"/>
	</g>
	<g>
		<rect x="80.217" y="130.134" fill="#C0DDE7" width="281.738" height="7.199"/>
	</g>
	<g>
		<rect x="80.217" y="144.048" fill="#C0DDE7" width="281.738" height="7.199"/>
	</g>
	<g>
		<g>
			<g>
				<path fill="#C63706" d="M63.609,304.661c-0.958-0.194-1.844-0.552-2.656-1.072c-0.812-0.521-1.517-1.162-2.111-1.926
					c-0.596-0.764-1.06-1.627-1.393-2.589c-0.333-0.962-0.5-1.982-0.5-3.061c0-0.816,0.097-1.601,0.292-2.353
					c0.195-0.753,0.468-1.456,0.82-2.111s0.777-1.251,1.275-1.786c0.498-0.535,1.052-0.993,1.662-1.376
					c0.61-0.381,1.267-0.677,1.971-0.887s1.441-0.314,2.212-0.314s1.51,0.104,2.218,0.314c0.707,0.21,1.366,0.506,1.977,0.887
					c0.61,0.383,1.164,0.841,1.662,1.376c0.498,0.535,0.924,1.131,1.28,1.786c0.355,0.655,0.63,1.358,0.825,2.111
					c0.195,0.752,0.292,1.536,0.292,2.353c0,1.093-0.172,2.126-0.517,3.1s-0.822,1.846-1.432,2.616
					c-0.61,0.771-1.335,1.416-2.173,1.932c-0.838,0.518-1.748,0.861-2.729,1.033c0.232,0.098,0.462,0.204,0.69,0.32
					c0.229,0.116,0.459,0.225,0.691,0.326c0.232,0.101,0.462,0.187,0.691,0.258c0.228,0.071,0.462,0.11,0.702,0.118
					c0.232,0,0.458-0.03,0.679-0.09c0.221-0.06,0.421-0.153,0.601-0.28c0.18-0.128,0.335-0.293,0.466-0.494
					c0.131-0.203,0.219-0.449,0.264-0.742l2.504,1.247c-0.067,0.547-0.223,1.041-0.466,1.482c-0.243,0.441-0.556,0.819-0.938,1.134
					s-0.816,0.559-1.303,0.73s-1.003,0.258-1.55,0.258c-0.442,0-0.885-0.084-1.331-0.252c-0.445-0.169-0.876-0.353-1.291-0.551
					c-0.416-0.198-0.807-0.382-1.174-0.55c-0.367-0.169-0.689-0.253-0.966-0.253c-0.12,0-0.227-0.002-0.32-0.006
					c-0.093-0.004-0.185-0.004-0.275,0s-0.189,0.016-0.297,0.034c-0.109,0.019-0.234,0.054-0.376,0.106L63.609,304.661z
					 M65.181,301.304c0.651,0,1.249-0.141,1.792-0.422c0.542-0.28,1.009-0.662,1.398-1.146c0.389-0.482,0.691-1.044,0.904-1.685
					c0.214-0.64,0.32-1.319,0.32-2.038c0-0.727-0.108-1.411-0.326-2.056c-0.217-0.644-0.522-1.207-0.916-1.689
					c-0.393-0.483-0.859-0.865-1.398-1.146c-0.539-0.281-1.13-0.421-1.774-0.421s-1.235,0.14-1.774,0.421
					c-0.539,0.28-1.003,0.662-1.393,1.146c-0.389,0.482-0.694,1.046-0.916,1.689c-0.221,0.645-0.331,1.329-0.331,2.056
					c0,0.719,0.11,1.398,0.331,2.038c0.221,0.641,0.526,1.202,0.916,1.685c0.389,0.483,0.854,0.865,1.393,1.146
					C63.946,301.163,64.537,301.304,65.181,301.304z"/>
			</g>
			<g>
				<g>
					<g>
						<polygon fill="#7C5904" points="218.495,304.3 80.424,304.3 80.424,297.101 218.495,297.101 222.643,300.7 						"/>
					</g>
					<g>
						<polygon fill="#7C5904" points="223.885,297.101 361.956,297.101 361.956,304.3 223.885,304.3 228.033,300.7 						"/>
					</g>
				</g>
				<g>
					<g>
						<polygon fill="#7C5904" points="218.495,318.214 80.424,318.214 80.424,311.015 218.495,311.015 222.643,314.614 						"/>
					</g>
					<g>
						<polygon fill="#7C5904" points="223.885,311.015 361.956,311.015 361.956,318.214 223.885,318.214 228.033,314.614 						"/>
					</g>
				</g>
				<g>
					<g>
						<polygon fill="#7C5904" points="218.495,387.782 80.424,387.782 80.424,380.583 218.495,380.583 222.643,384.183 						"/>
					</g>
					<g>
						<polygon fill="#7C5904" points="223.885,380.583 361.956,380.583 361.956,387.782 223.885,387.782 228.033,384.183 						"/>
					</g>
				</g>
				<g>
					<g>
						<polygon fill="#7C5904" points="218.495,332.128 80.424,332.128 80.424,324.929 218.495,324.929 222.643,328.528 						"/>
					</g>
					<g>
						<polygon fill="#7C5904" points="223.885,324.929 361.956,324.929 361.956,332.128 223.885,332.128 228.033,328.528 						"/>
					</g>
				</g>
				<g>
					<g>
						<polygon fill="#7C5904" points="218.495,346.042 80.424,346.042 80.424,338.843 218.495,338.843 222.643,342.442 						"/>
					</g>
					<g>
						<polygon fill="#7C5904" points="223.885,338.843 361.956,338.843 361.956,346.042 223.885,346.042 228.033,342.442 						"/>
					</g>
				</g>
				<g>
					<g>
						<polygon fill="#7C5904" points="218.495,359.956 80.424,359.956 80.424,352.755 218.495,352.755 222.643,356.354 						"/>
					</g>
					<g>
						<polygon fill="#7C5904" points="223.885,352.755 361.956,352.755 361.956,359.956 223.885,359.956 228.033,356.354 						"/>
					</g>
				</g>
				<g>
					<g>
						<polygon fill="#7C5904" points="218.495,373.87 80.424,373.87 80.424,366.669 218.495,366.669 222.643,370.269 						"/>
					</g>
					<g>
						<polygon fill="#7C5904" points="223.885,366.669 361.956,366.669 361.956,373.87 223.885,373.87 228.033,370.269 						"/>
					</g>
				</g>
			</g>
		</g>
		<g>
			<g>
				<path fill="#398EB0" d="M67.517,399.167h6.469v3.088h-1.381v13.938h-3.729l-7.086-11.006v7.929h1.426v3.077h-6.458v-3.077h1.404
					v-10.86h-1.381v-3.088h5.144l7.042,11.152v-8.064h-1.449V399.167z"/>
			</g>
			<g>
				<g>
					<g>
						<polygon fill="#7C5904" points="218.495,415.61 80.424,415.61 80.424,408.411 218.495,408.411 222.643,412.011 						"/>
					</g>
					<g>
						<polygon fill="#7C5904" points="223.885,408.411 361.956,408.411 361.956,415.61 223.885,415.61 228.033,412.011 						"/>
					</g>
				</g>
				<g>
					<g>
						<polygon fill="#7C5904" points="218.495,429.524 80.424,429.524 80.424,422.325 218.495,422.325 222.643,425.925 						"/>
					</g>
					<g>
						<polygon fill="#7C5904" points="223.885,422.325 361.956,422.325 361.956,429.524 223.885,429.524 228.033,425.925 						"/>
					</g>
				</g>
				<g>
					<g>
						<polygon fill="#7C5904" points="218.495,499.093 80.424,499.093 80.424,491.894 218.495,491.894 222.643,495.493 						"/>
					</g>
					<g>
						<polygon fill="#7C5904" points="223.885,491.894 361.956,491.894 361.956,499.093 223.885,499.093 228.033,495.493 						"/>
					</g>
				</g>
				<g>
					<g>
						<polygon fill="#7C5904" points="218.495,443.438 80.424,443.438 80.424,436.239 218.495,436.239 222.643,439.839 						"/>
					</g>
					<g>
						<polygon fill="#7C5904" points="223.885,436.239 361.956,436.239 361.956,443.438 223.885,443.438 228.033,439.839 						"/>
					</g>
				</g>
				<g>
					<g>
						<polygon fill="#7C5904" points="218.495,457.353 80.424,457.353 80.424,450.153 218.495,450.153 222.643,453.753 						"/>
					</g>
					<g>
						<polygon fill="#7C5904" points="223.885,450.153 361.956,450.153 361.956,457.353 223.885,457.353 228.033,453.753 						"/>
					</g>
				</g>
				<g>
					<g>
						<polygon fill="#7C5904" points="218.495,471.267 80.424,471.267 80.424,464.065 218.495,464.065 222.643,467.665 						"/>
					</g>
					<g>
						<polygon fill="#7C5904" points="223.885,464.065 361.956,464.065 361.956,471.267 223.885,471.267 228.033,467.665 						"/>
					</g>
				</g>
				<g>
					<g>
						<polygon fill="#7C5904" points="218.495,485.181 80.424,485.181 80.424,477.979 218.495,477.979 222.643,481.579 						"/>
					</g>
					<g>
						<polygon fill="#7C5904" points="223.885,477.979 361.956,477.979 361.956,485.181 223.885,485.181 228.033,481.579 						"/>
					</g>
				</g>
			</g>
		</g>
		<g>
			<g>
				<g>
					<g>
						<polygon fill="#7C5904" points="218.495,81.679 80.424,81.679 80.424,74.478 218.495,74.478 222.643,78.079 						"/>
					</g>
					<g>
						<polygon fill="#7C5904" points="223.885,74.478 361.956,74.478 361.956,81.679 223.885,81.679 228.033,78.079 						"/>
					</g>
				</g>
				<g>
					<g>
						<polygon fill="#7C5904" points="218.495,165.161 80.424,165.161 80.424,157.962 218.495,157.962 222.643,161.562 						"/>
					</g>
					<g>
						<polygon fill="#7C5904" points="223.885,157.962 361.956,157.962 361.956,165.161 223.885,165.161 228.033,161.562 						"/>
					</g>
				</g>
				<g>
					<g>
						<polygon fill="#7C5904" points="218.495,109.507 80.424,109.507 80.424,102.308 218.495,102.308 222.643,105.905 						"/>
					</g>
					<g>
						<polygon fill="#7C5904" points="223.885,102.308 361.956,102.308 361.956,109.507 223.885,109.507 228.033,105.905 						"/>
					</g>
				</g>
				<g>
					<g>
						<polygon fill="#7C5904" points="218.495,95.591 80.424,95.591 80.424,88.392 218.495,88.392 222.643,91.991 						"/>
					</g>
					<g>
						<polygon fill="#7C5904" points="223.885,88.392 361.956,88.392 361.956,95.591 223.885,95.591 228.033,91.991 						"/>
					</g>
				</g>
				<g>
					<g>
						<polygon fill="#7C5904" points="218.495,123.421 80.424,123.421 80.424,116.222 218.495,116.222 222.643,119.819 						"/>
					</g>
					<g>
						<polygon fill="#7C5904" points="223.885,116.222 361.956,116.222 361.956,123.421 223.885,123.421 228.033,119.819 						"/>
					</g>
				</g>
				<g>
					<g>
						<polygon fill="#7C5904" points="218.495,137.333 80.424,137.333 80.424,130.134 218.495,130.134 222.643,133.733 						"/>
					</g>
					<g>
						<polygon fill="#7C5904" points="223.885,130.134 361.956,130.134 361.956,137.333 223.885,137.333 228.033,133.733 						"/>
					</g>
				</g>
				<g>
					<g>
						<polygon fill="#7C5904" points="218.495,151.247 80.424,151.247 80.424,144.048 218.495,144.048 222.643,147.647 						"/>
					</g>
					<g>
						<polygon fill="#7C5904" points="223.885,144.048 361.956,144.048 361.956,151.247 223.885,151.247 228.033,147.647 						"/>
					</g>
				</g>
			</g>
			<g>
				<path fill="#C63706" d="M60.608,63.833h7.289v3.088H66.1v10.86h3.706c0.097,0,0.193-0.028,0.286-0.084
					c0.094-0.057,0.176-0.13,0.247-0.22c0.071-0.09,0.129-0.187,0.174-0.291c0.045-0.105,0.067-0.206,0.067-0.304v-2.28h3.639v6.256
					H60.608v-3.077h1.763v-10.86h-1.763V63.833z"/>
			</g>
		</g>
		<g>
			<g>
				<path fill="#398EB0" d="M73.497,179.027l-8.479,10.163h4.807v-2.639h3.65v5.975H60.548v-3.516l8.277-10.174h-4.593v2.695h-3.661
					v-6.031h12.926V179.027z"/>
			</g>
			<g>
				<g>
					<g>
						<polygon fill="#7C5904" points="218.391,206.903 80.32,206.903 80.32,199.704 218.391,199.704 222.539,203.304 						"/>
					</g>
					<g>
						<polygon fill="#7C5904" points="223.781,199.704 361.852,199.704 361.852,206.903 223.781,206.903 227.929,203.304 						"/>
					</g>
				</g>
				<g>
					<g>
						<polygon fill="#7C5904" points="218.391,192.989 80.32,192.989 80.32,185.79 218.391,185.79 222.539,189.39 						"/>
					</g>
					<g>
						<polygon fill="#7C5904" points="223.781,185.79 361.852,185.79 361.852,192.989 223.781,192.989 227.929,189.39 						"/>
					</g>
				</g>
				<g>
					<g>
						<polygon fill="#7C5904" points="218.391,220.817 80.32,220.817 80.32,213.618 218.391,213.618 222.539,217.216 						"/>
					</g>
					<g>
						<polygon fill="#7C5904" points="223.781,213.618 361.852,213.618 361.852,220.817 223.781,220.817 227.929,217.216 						"/>
					</g>
				</g>
				<g>
					<g>
						<polygon fill="#7C5904" points="218.391,248.644 80.32,248.644 80.32,241.444 218.391,241.444 222.539,245.044 						"/>
					</g>
					<g>
						<polygon fill="#7C5904" points="223.781,241.444 361.852,241.444 361.852,248.644 223.781,248.644 227.929,245.044 						"/>
					</g>
				</g>
				<g>
					<g>
						<polygon fill="#7C5904" points="218.495,234.731 80.424,234.731 80.424,227.532 218.495,227.532 222.643,231.132 						"/>
					</g>
					<g>
						<polygon fill="#7C5904" points="223.885,227.532 361.956,227.532 361.956,234.731 223.885,234.731 228.033,231.132 						"/>
					</g>
				</g>
				<g>
					<g>
						<polygon fill="#7C5904" points="218.391,262.56 80.32,262.56 80.32,255.36 218.391,255.36 222.539,258.958 						"/>
					</g>
					<g>
						<polygon fill="#7C5904" points="223.781,255.36 361.852,255.36 361.852,262.56 223.781,262.56 227.929,258.958 						"/>
					</g>
				</g>
				<g>
					<g>
						<polygon fill="#7C5904" points="218.391,276.472 80.32,276.472 80.32,269.272 218.391,269.272 222.539,272.872 						"/>
					</g>
					<g>
						<polygon fill="#7C5904" points="223.781,269.272 361.852,269.272 361.852,276.472 223.781,276.472 227.929,272.872 						"/>
					</g>
				</g>
			</g>
		</g>
	</g>
</g>
</svg>
