<?xml version="1.0" encoding="utf-8"?>
<!-- Generator: Adobe Illustrator 16.0.4, SVG Export Plug-In . SVG Version: 6.00 Build 0)  -->
<!DOCTYPE svg PUBLIC "-//W3C//DTD SVG 1.1//EN" "http://www.w3.org/Graphics/SVG/1.1/DTD/svg11.dtd">
<svg version="1.1" id="Layer_1" xmlns="http://www.w3.org/2000/svg" xmlns:xlink="http://www.w3.org/1999/xlink" x="0px" y="0px"
	 width="448.747px" height="616.439px" viewBox="0 0 448.747 616.439" enable-background="new 0 0 448.747 616.439"
	 xml:space="preserve">
<rect x="0.5" y="0.5" fill="#FFFFFF" stroke="#C68D06" stroke-miterlimit="10" width="447.747" height="615.439"/>
<g>
	<path fill="#C68D06" d="M339.345,569.887c0-7.981,4.201-13.896,10.151-13.896c2.87,0,4.796,0.875,6.195,1.96l-1.295,1.891
		c-1.33-1.051-2.625-1.681-4.971-1.681c-4.726,0-7.631,5.041-7.665,11.481c1.645-1.785,4.095-3.466,7.386-3.466
		c5.46,0,8.086,3.396,8.086,8.086c0,4.9-3.466,8.611-8.682,8.611C343.441,582.873,339.345,578.777,339.345,569.887z
		 M354.817,574.297c0-3.465-1.75-5.985-5.95-5.985c-2.87,0-5.426,1.61-7.001,3.815c0.525,6.021,3.36,8.61,6.791,8.61
		C352.367,580.737,354.817,578.393,354.817,574.297z"/>
	<path fill="#C68D06" d="M363.986,581.822c0-3.745,1.854-7.175,8.681-11.551c3.885-2.485,5.46-4.235,5.46-7.036
		c0-3.045-1.89-5.04-5.285-5.04c-2.835,0-4.9,1.47-6.44,4.48l-1.961-1.155c1.82-3.5,4.691-5.53,8.507-5.53
		c4.69,0,7.596,2.94,7.596,7.105c0,3.535-1.716,5.775-6.687,8.926c-4.69,2.976-6.965,5.775-7.141,8.121h13.932v2.24h-16.661V581.822
		z"/>
	<path fill="#C68D06" d="M387.61,556.48h2.556l7.735,22.612h0.07l7.771-22.612h2.416l-9.102,26.008h-2.345L387.61,556.48z"/>
</g>
<g>
	<path fill="#266279" d="M68.913,371.727c-0.451-0.123-0.876-0.305-1.274-0.545s-0.747-0.537-1.046-0.893
		c-0.299-0.354-0.536-0.764-0.712-1.23c-0.176-0.465-0.264-0.988-0.264-1.568c0-0.615,0.123-1.191,0.369-1.727
		c0.246-0.537,0.595-1.004,1.046-1.402s0.996-0.713,1.635-0.941s1.351-0.342,2.136-0.342h6.012v2.416h-1.239v14.09H73v-14.09h-1.512
		v14.09h-2.575V371.727z"/>
</g>
<g>
	<path fill="#266279" d="M68.913,454.393c-0.451-0.123-0.876-0.305-1.274-0.545s-0.747-0.537-1.046-0.893
		c-0.299-0.354-0.536-0.764-0.712-1.23c-0.176-0.465-0.264-0.988-0.264-1.568c0-0.615,0.123-1.191,0.369-1.727
		c0.246-0.537,0.595-1.004,1.046-1.402s0.996-0.713,1.635-0.941s1.351-0.342,2.136-0.342h6.012v2.416h-1.239v14.09H73v-14.09h-1.512
		v14.09h-2.575V454.393z"/>
</g>
<g>
	<rect x="79.216" y="158.217" fill="#C0DDE7" width="281.739" height="7.199"/>
</g>
<g>
	<rect x="79.216" y="172.129" fill="#C0DDE7" width="281.738" height="7.199"/>
</g>
<g>
	<rect x="79.216" y="186.043" fill="#C0DDE7" width="281.739" height="7.201"/>
</g>
<g>
	<rect x="79.216" y="199.957" fill="#C0DDE7" width="281.739" height="7.199"/>
</g>
<g>
	<rect x="79.216" y="213.871" fill="#C0DDE7" width="281.739" height="7.199"/>
</g>
<g>
	<rect x="79.216" y="227.785" fill="#C0DDE7" width="281.739" height="7.199"/>
</g>
<g>
	<rect x="79.216" y="241.699" fill="#C0DDE7" width="281.738" height="7.199"/>
</g>
<g>
	<rect x="79.216" y="255.611" fill="#C0DDE7" width="281.738" height="7.201"/>
</g>
<g>
	<rect x="79.216" y="269.527" fill="#C0DDE7" width="281.739" height="7.199"/>
</g>
<g>
	<rect x="79.216" y="283.439" fill="#C0DDE7" width="281.738" height="7.201"/>
</g>
<g>
	<rect x="79.216" y="297.354" fill="#C0DDE7" width="281.739" height="7.201"/>
</g>
<g>
	<rect x="79.216" y="311.268" fill="#C0DDE7" width="281.739" height="7.201"/>
</g>
<g>
	<rect x="79.216" y="325.182" fill="#C0DDE7" width="281.739" height="7.199"/>
</g>
<g>
	<rect x="79.216" y="339.096" fill="#C0DDE7" width="281.738" height="7.199"/>
</g>
<g>
	<rect x="79.216" y="353.01" fill="#C0DDE7" width="281.739" height="7.199"/>
</g>
<g>
	<rect x="79.216" y="366.924" fill="#C0DDE7" width="281.739" height="7.199"/>
</g>
<g>
	<rect x="79.216" y="380.838" fill="#C0DDE7" width="281.739" height="7.199"/>
</g>
<g>
	<rect x="79.216" y="394.752" fill="#C0DDE7" width="281.739" height="7.199"/>
</g>
<g>
	<rect x="79.216" y="408.664" fill="#C0DDE7" width="281.738" height="7.199"/>
</g>
<g>
	<rect x="79.216" y="422.578" fill="#C0DDE7" width="281.739" height="7.201"/>
</g>
<g>
	<rect x="79.216" y="436.492" fill="#C0DDE7" width="281.738" height="7.199"/>
</g>
<g>
	<rect x="79.216" y="450.406" fill="#C0DDE7" width="281.739" height="7.199"/>
</g>
<g>
	<rect x="79.216" y="464.32" fill="#C0DDE7" width="281.738" height="7.199"/>
</g>
<g>
	<rect x="79.216" y="478.234" fill="#C0DDE7" width="281.739" height="7.199"/>
</g>
<g>
	<rect x="79.216" y="60.818" fill="#C0DDE7" width="281.739" height="7.201"/>
</g>
<g>
	<rect x="79.216" y="74.732" fill="#C0DDE7" width="281.738" height="7.201"/>
</g>
<g>
	<rect x="79.216" y="144.303" fill="#C0DDE7" width="281.738" height="7.199"/>
</g>
<g>
	<rect x="79.216" y="88.646" fill="#C0DDE7" width="281.739" height="7.199"/>
</g>
<g>
	<rect x="79.216" y="102.561" fill="#C0DDE7" width="281.738" height="7.199"/>
</g>
<g>
	<rect x="79.216" y="116.475" fill="#C0DDE7" width="281.738" height="7.199"/>
</g>
<g>
	<rect x="79.216" y="130.389" fill="#C0DDE7" width="281.738" height="7.199"/>
</g>
<g>
	<path fill="#266279" d="M69.032,278.637c-0.038-0.262-0.129-0.509-0.275-0.74c-0.146-0.232-0.333-0.433-0.562-0.602
		c-0.228-0.168-0.486-0.301-0.774-0.398c-0.289-0.098-0.59-0.146-0.904-0.146c-0.285,0-0.55,0.03-0.797,0.09
		c-0.247,0.061-0.462,0.152-0.646,0.275c-0.183,0.124-0.329,0.283-0.438,0.478c-0.109,0.194-0.163,0.427-0.163,0.696
		c0,0.337,0.073,0.604,0.219,0.803c0.146,0.198,0.333,0.361,0.562,0.488c0.229,0.128,0.481,0.229,0.758,0.304
		s0.546,0.157,0.809,0.247l3.088,1.033c0.427,0.149,0.827,0.355,1.202,0.617c0.375,0.263,0.698,0.581,0.971,0.955
		c0.273,0.374,0.489,0.805,0.646,1.291c0.157,0.487,0.236,1.033,0.236,1.641c0,0.823-0.151,1.575-0.455,2.257
		c-0.303,0.682-0.728,1.266-1.274,1.752s-1.202,0.864-1.965,1.134s-1.61,0.404-2.538,0.404c-0.651,0-1.267-0.072-1.847-0.219
		c-0.581-0.146-1.11-0.357-1.589-0.635c-0.479-0.276-0.898-0.607-1.258-0.993s-0.64-0.822-0.842-1.309h-1.157v-3.38h4.065v0.695
		c0,0.338,0.054,0.648,0.163,0.933c0.109,0.284,0.271,0.531,0.489,0.741s0.49,0.372,0.82,0.488s0.715,0.174,1.157,0.174
		c0.674,0,1.187-0.155,1.539-0.466s0.528-0.743,0.528-1.297c0-0.284-0.062-0.522-0.185-0.713c-0.124-0.191-0.283-0.353-0.478-0.483
		s-0.412-0.241-0.651-0.331s-0.476-0.172-0.708-0.247l-2.572-0.831c-0.487-0.149-0.957-0.359-1.409-0.629
		c-0.453-0.27-0.854-0.606-1.202-1.011c-0.348-0.404-0.625-0.878-0.831-1.421c-0.206-0.543-0.309-1.162-0.309-1.858
		c0-0.809,0.15-1.529,0.449-2.162s0.719-1.166,1.258-1.6c0.539-0.435,1.179-0.764,1.92-0.988s1.554-0.338,2.437-0.338
		c0.696,0,1.34,0.081,1.932,0.242s1.121,0.376,1.589,0.646c0.468,0.27,0.865,0.578,1.19,0.927c0.326,0.348,0.575,0.709,0.747,1.084
		h1.123v3.391h-4.065V278.637z"/>
</g>
<g>
	<g>
		<polygon fill="#266279" points="217.494,290.641 79.423,290.641 79.423,283.441 217.494,283.441 221.642,287.041 		"/>
	</g>
	<g>
		<polygon fill="#266279" points="222.884,283.441 360.955,283.441 360.955,290.641 222.884,290.641 227.032,287.041 		"/>
	</g>
</g>
<g>
	<g>
		<polygon fill="#266279" points="217.494,304.555 79.423,304.555 79.423,297.355 217.494,297.355 221.642,300.955 		"/>
	</g>
	<g>
		<polygon fill="#266279" points="222.884,297.355 360.955,297.355 360.955,304.555 222.884,304.555 227.032,300.955 		"/>
	</g>
</g>
<g>
	<g>
		<polygon fill="#266279" points="217.494,374.123 79.423,374.123 79.423,366.924 217.494,366.924 221.642,370.523 		"/>
	</g>
	<g>
		<polygon fill="#266279" points="222.884,366.924 360.955,366.924 360.955,374.123 222.884,374.123 227.032,370.523 		"/>
	</g>
</g>
<g>
	<g>
		<polygon fill="#266279" points="217.494,388.037 79.423,388.037 79.423,380.838 217.494,380.838 221.642,384.438 		"/>
	</g>
	<g>
		<polygon fill="#266279" points="222.884,380.838 360.955,380.838 360.955,388.037 222.884,388.037 227.032,384.438 		"/>
	</g>
</g>
<g>
	<g>
		<polygon fill="#266279" points="217.494,318.469 79.423,318.469 79.423,311.27 217.494,311.27 221.642,314.869 		"/>
	</g>
	<g>
		<polygon fill="#266279" points="222.884,311.27 360.955,311.27 360.955,318.469 222.884,318.469 227.032,314.869 		"/>
	</g>
</g>
<g>
	<g>
		<polygon fill="#266279" points="217.494,332.383 79.423,332.383 79.423,325.184 217.494,325.184 221.642,328.783 		"/>
	</g>
	<g>
		<polygon fill="#266279" points="222.884,325.184 360.955,325.184 360.955,332.383 222.884,332.383 227.032,328.783 		"/>
	</g>
</g>
<g>
	<g>
		<polygon fill="#266279" points="217.494,346.297 79.423,346.297 79.423,339.096 217.494,339.096 221.642,342.695 		"/>
	</g>
	<g>
		<polygon fill="#266279" points="222.884,339.096 360.955,339.096 360.955,346.297 222.884,346.297 227.032,342.695 		"/>
	</g>
</g>
<g>
	<g>
		<polygon fill="#266279" points="217.494,360.211 79.423,360.211 79.423,353.01 217.494,353.01 221.642,356.609 		"/>
	</g>
	<g>
		<polygon fill="#266279" points="222.884,353.01 360.955,353.01 360.955,360.211 222.884,360.211 227.032,356.609 		"/>
	</g>
</g>
<g>
	<g>
		<polygon fill="#266279" points="217.494,401.951 79.423,401.951 79.423,394.752 217.494,394.752 221.642,398.352 		"/>
	</g>
	<g>
		<polygon fill="#266279" points="222.884,394.752 360.955,394.752 360.955,401.951 222.884,401.951 227.032,398.352 		"/>
	</g>
</g>
<g>
	<g>
		<polygon fill="#266279" points="217.494,415.865 79.423,415.865 79.423,408.666 217.494,408.666 221.642,412.266 		"/>
	</g>
	<g>
		<polygon fill="#266279" points="222.884,408.666 360.955,408.666 360.955,415.865 222.884,415.865 227.032,412.266 		"/>
	</g>
</g>
<g>
	<g>
		<polygon fill="#266279" points="217.494,429.779 79.423,429.779 79.423,422.58 217.494,422.58 221.642,426.18 		"/>
	</g>
	<g>
		<polygon fill="#266279" points="222.884,422.58 360.955,422.58 360.955,429.779 222.884,429.779 227.032,426.18 		"/>
	</g>
</g>
<g>
	<g>
		<polygon fill="#266279" points="217.494,443.693 79.423,443.693 79.423,436.494 217.494,436.494 221.642,440.094 		"/>
	</g>
	<g>
		<polygon fill="#266279" points="222.884,436.494 360.955,436.494 360.955,443.693 222.884,443.693 227.032,440.094 		"/>
	</g>
</g>
<g>
	<g>
		<polygon fill="#266279" points="217.494,457.607 79.423,457.607 79.423,450.406 217.494,450.406 221.642,454.006 		"/>
	</g>
	<g>
		<polygon fill="#266279" points="222.884,450.406 360.955,450.406 360.955,457.607 222.884,457.607 227.032,454.006 		"/>
	</g>
</g>
<g>
	<g>
		<polygon fill="#266279" points="217.494,471.521 79.423,471.521 79.423,464.32 217.494,464.32 221.642,467.92 		"/>
	</g>
	<g>
		<polygon fill="#266279" points="222.884,464.32 360.955,464.32 360.955,471.521 222.884,471.521 227.032,467.92 		"/>
	</g>
</g>
<g>
	<g>
		<g>
			<g>
				<polygon fill="#266279" points="217.494,68.02 79.423,68.02 79.423,60.818 217.494,60.818 221.642,64.42 				"/>
			</g>
			<g>
				<polygon fill="#266279" points="222.884,60.818 360.955,60.818 360.955,68.02 222.884,68.02 227.032,64.42 				"/>
			</g>
		</g>
		<g>
			<g>
				<polygon fill="#266279" points="217.494,151.502 79.423,151.502 79.423,144.303 217.494,144.303 221.642,147.902 				"/>
			</g>
			<g>
				<polygon fill="#266279" points="222.884,144.303 360.955,144.303 360.955,151.502 222.884,151.502 227.032,147.902 				"/>
			</g>
		</g>
		<g>
			<g>
				<polygon fill="#266279" points="217.494,95.848 79.423,95.848 79.423,88.648 217.494,88.648 221.642,92.246 				"/>
			</g>
			<g>
				<polygon fill="#266279" points="222.884,88.648 360.955,88.648 360.955,95.848 222.884,95.848 227.032,92.246 				"/>
			</g>
		</g>
		<g>
			<g>
				<polygon fill="#266279" points="217.494,81.932 79.423,81.932 79.423,74.732 217.494,74.732 221.642,78.332 				"/>
			</g>
			<g>
				<polygon fill="#266279" points="222.884,74.732 360.955,74.732 360.955,81.932 222.884,81.932 227.032,78.332 				"/>
			</g>
		</g>
		<g>
			<g>
				<polygon fill="#266279" points="217.494,109.762 79.423,109.762 79.423,102.562 217.494,102.562 221.642,106.16 				"/>
			</g>
			<g>
				<polygon fill="#266279" points="222.884,102.562 360.955,102.562 360.955,109.762 222.884,109.762 227.032,106.16 				"/>
			</g>
		</g>
		<g>
			<g>
				<polygon fill="#266279" points="217.494,123.674 79.423,123.674 79.423,116.475 217.494,116.475 221.642,120.074 				"/>
			</g>
			<g>
				<polygon fill="#266279" points="222.884,116.475 360.955,116.475 360.955,123.674 222.884,123.674 227.032,120.074 				"/>
			</g>
		</g>
		<g>
			<g>
				<polygon fill="#266279" points="217.494,137.588 79.423,137.588 79.423,130.389 217.494,130.389 221.642,133.988 				"/>
			</g>
			<g>
				<polygon fill="#266279" points="222.884,130.389 360.955,130.389 360.955,137.588 222.884,137.588 227.032,133.988 				"/>
			</g>
		</g>
	</g>
	<g>
		<path fill="#C63706" d="M59.226,50.174H72.77v5.807h-3.661v-2.415H64.74v3.358h3.38v3.256h-3.38v3.942h4.369v-3.021h3.661v6.098
			H59.226v-3.077h1.786V53.565h-1.786V50.174z"/>
	</g>
</g>
<g>
	<g>
		<path fill="#266279" d="M48.284,175.79h1.583v-10.86h-1.583v-3.088h7.008l5.02,12.286l4.661-12.286h7.109v3.088h-1.583v10.86
			h1.561v3.077h-6.368v-3.077h1.168v-9.793l-5.099,12.668h-3.156l-5.188-12.331v9.456h1.269v3.077h-6.401V175.79z"/>
	</g>
	<g>
		<g>
			<g>
				<polygon fill="#266279" points="217.39,193.244 79.319,193.244 79.319,186.045 217.39,186.045 221.538,189.645 				"/>
			</g>
			<g>
				<polygon fill="#266279" points="222.78,186.045 360.851,186.045 360.851,193.244 222.78,193.244 226.928,189.645 				"/>
			</g>
		</g>
		<g>
			<g>
				<polygon fill="#266279" points="217.39,179.33 79.319,179.33 79.319,172.131 217.39,172.131 221.538,175.73 				"/>
			</g>
			<g>
				<polygon fill="#266279" points="222.78,172.131 360.851,172.131 360.851,179.33 222.78,179.33 226.928,175.73 				"/>
			</g>
		</g>
		<g>
			<g>
				<polygon fill="#266279" points="217.39,207.158 79.319,207.158 79.319,199.959 217.39,199.959 221.538,203.557 				"/>
			</g>
			<g>
				<polygon fill="#266279" points="222.78,199.959 360.851,199.959 360.851,207.158 222.78,207.158 226.928,203.557 				"/>
			</g>
		</g>
		<g>
			<g>
				<polygon fill="#266279" points="217.39,234.984 79.319,234.984 79.319,227.785 217.39,227.785 221.538,231.385 				"/>
			</g>
			<g>
				<polygon fill="#266279" points="222.78,227.785 360.851,227.785 360.851,234.984 222.78,234.984 226.928,231.385 				"/>
			</g>
		</g>
		<g>
			<g>
				<polygon fill="#266279" points="217.494,221.072 79.423,221.072 79.423,213.873 217.494,213.873 221.642,217.473 				"/>
			</g>
			<g>
				<polygon fill="#266279" points="222.884,213.873 360.955,213.873 360.955,221.072 222.884,221.072 227.032,217.473 				"/>
			</g>
		</g>
		<g>
			<g>
				<polygon fill="#266279" points="217.39,248.9 79.319,248.9 79.319,241.701 217.39,241.701 221.538,245.299 				"/>
			</g>
			<g>
				<polygon fill="#266279" points="222.78,241.701 360.851,241.701 360.851,248.9 222.78,248.9 226.928,245.299 				"/>
			</g>
		</g>
		<g>
			<g>
				<polygon fill="#266279" points="217.39,262.812 79.319,262.812 79.319,255.613 217.39,255.613 221.538,259.213 				"/>
			</g>
			<g>
				<polygon fill="#266279" points="222.78,255.613 360.851,255.613 360.851,262.812 222.78,262.812 226.928,259.213 				"/>
			</g>
		</g>
	</g>
</g>
<g>
	<g>
		<polygon fill="#266279" points="217.493,485.434 79.423,485.434 79.423,478.234 217.493,478.234 221.642,481.834 		"/>
	</g>
	<g>
		<polygon fill="#266279" points="222.884,478.234 227.031,481.834 222.884,485.434 356.806,485.434 360.955,481.834 
			356.806,478.234 		"/>
	</g>
</g>
</svg>
