<?xml version="1.0" encoding="utf-8"?>
<!-- Generator: Adobe Illustrator 16.0.4, SVG Export Plug-In . SVG Version: 6.00 Build 0)  -->
<!DOCTYPE svg PUBLIC "-//W3C//DTD SVG 1.1//EN" "http://www.w3.org/Graphics/SVG/1.1/DTD/svg11.dtd">
<svg version="1.1" id="Layer_1" xmlns="http://www.w3.org/2000/svg" xmlns:xlink="http://www.w3.org/1999/xlink" x="0px" y="0px"
	 width="448.746px" height="616.439px" viewBox="0 0 448.746 616.439" enable-background="new 0 0 448.746 616.439"
	 xml:space="preserve">
<rect x="0.5" y="0.5" fill="#FFFFFF" stroke="#C68D06" stroke-miterlimit="10" width="447.746" height="615.439"/>
<g>
	<path fill="#C68D06" d="M339.127,568.637c0-7.981,4.201-13.896,10.151-13.896c2.87,0,4.796,0.875,6.195,1.96l-1.295,1.891
		c-1.33-1.051-2.625-1.681-4.971-1.681c-4.725,0-7.631,5.041-7.665,11.481c1.645-1.785,4.095-3.466,7.386-3.466
		c5.46,0,8.086,3.396,8.086,8.086c0,4.9-3.466,8.611-8.682,8.611C343.223,581.623,339.127,577.527,339.127,568.637z
		 M354.599,573.047c0-3.465-1.75-5.985-5.95-5.985c-2.87,0-5.426,1.61-7.001,3.815c0.525,6.021,3.36,8.61,6.791,8.61
		C352.148,579.487,354.599,577.143,354.599,573.047z"/>
	<path fill="#C68D06" d="M363.767,580.572c0-3.745,1.855-7.175,8.682-11.551c3.885-2.485,5.46-4.235,5.46-7.036
		c0-3.045-1.89-5.04-5.285-5.04c-2.835,0-4.9,1.47-6.44,4.48l-1.961-1.155c1.82-3.5,4.691-5.53,8.506-5.53
		c4.691,0,7.597,2.94,7.597,7.105c0,3.535-1.716,5.775-6.687,8.926c-4.69,2.976-6.965,5.775-7.141,8.121h13.932v2.24h-16.662
		V580.572z"/>
	<path fill="#C68D06" d="M389.457,555.23h8.681c5.776,0,8.996,2.45,8.996,7c0,4.201-2.45,6.301-6.195,7.001l6.546,11.901h-2.801
		l-6.336-11.621h-6.44v11.621h-2.45V555.23z M397.963,567.307c4.271,0,6.686-1.226,6.686-4.971c0-3.57-2.38-4.831-6.721-4.831
		h-6.021v9.802H397.963z"/>
</g>
<g>
	<rect x="80.466" y="156.967" fill="#C0DDE7" width="281.739" height="7.199"/>
</g>
<g>
	<rect x="80.466" y="170.879" fill="#C0DDE7" width="281.738" height="7.199"/>
</g>
<g>
	<rect x="80.466" y="184.793" fill="#C0DDE7" width="281.739" height="7.201"/>
</g>
<g>
	<rect x="80.466" y="198.707" fill="#C0DDE7" width="281.739" height="7.199"/>
</g>
<g>
	<rect x="80.466" y="212.621" fill="#C0DDE7" width="281.739" height="7.199"/>
</g>
<g>
	<rect x="80.466" y="226.535" fill="#C0DDE7" width="281.739" height="7.199"/>
</g>
<g>
	<rect x="80.466" y="240.449" fill="#C0DDE7" width="281.738" height="7.199"/>
</g>
<g>
	<rect x="80.466" y="254.361" fill="#C0DDE7" width="281.738" height="7.201"/>
</g>
<g>
	<rect x="80.466" y="268.277" fill="#C0DDE7" width="281.739" height="7.199"/>
</g>
<g>
	<rect x="80.466" y="282.189" fill="#C0DDE7" width="281.738" height="7.201"/>
</g>
<g>
	<rect x="80.466" y="296.104" fill="#C0DDE7" width="281.739" height="7.201"/>
</g>
<g>
	<rect x="80.466" y="310.018" fill="#C0DDE7" width="281.739" height="7.201"/>
</g>
<g>
	<rect x="80.466" y="323.932" fill="#C0DDE7" width="281.739" height="7.199"/>
</g>
<g>
	<rect x="80.466" y="337.846" fill="#C0DDE7" width="281.738" height="7.199"/>
</g>
<g>
	<rect x="80.466" y="351.76" fill="#C0DDE7" width="281.739" height="7.199"/>
</g>
<g>
	<rect x="80.466" y="365.674" fill="#C0DDE7" width="281.739" height="7.199"/>
</g>
<g>
	<rect x="80.466" y="379.588" fill="#C0DDE7" width="281.739" height="7.199"/>
</g>
<g>
	<rect x="80.466" y="393.502" fill="#C0DDE7" width="281.739" height="7.199"/>
</g>
<g>
	<rect x="80.466" y="407.414" fill="#C0DDE7" width="281.738" height="7.199"/>
</g>
<g>
	<rect x="80.466" y="421.328" fill="#C0DDE7" width="281.739" height="7.201"/>
</g>
<g>
	<rect x="80.466" y="435.242" fill="#C0DDE7" width="281.738" height="7.199"/>
</g>
<g>
	<rect x="80.466" y="449.156" fill="#C0DDE7" width="281.739" height="7.199"/>
</g>
<g>
	<rect x="80.466" y="463.07" fill="#C0DDE7" width="281.738" height="7.199"/>
</g>
<g>
	<rect x="80.466" y="476.984" fill="#C0DDE7" width="281.739" height="7.199"/>
</g>
<g>
	<rect x="80.466" y="59.568" fill="#C0DDE7" width="281.739" height="7.201"/>
</g>
<g>
	<rect x="80.466" y="73.482" fill="#C0DDE7" width="281.738" height="7.201"/>
</g>
<g>
	<rect x="80.466" y="143.053" fill="#C0DDE7" width="281.738" height="7.199"/>
</g>
<g>
	<rect x="80.466" y="87.396" fill="#C0DDE7" width="281.739" height="7.199"/>
</g>
<g>
	<rect x="80.466" y="101.311" fill="#C0DDE7" width="281.738" height="7.199"/>
</g>
<g>
	<rect x="80.466" y="115.225" fill="#C0DDE7" width="281.738" height="7.199"/>
</g>
<g>
	<rect x="80.466" y="129.139" fill="#C0DDE7" width="281.738" height="7.199"/>
</g>
<g>
	<g>
		<path fill="#C63706" d="M66.98,272.592h7.289v3.077h-1.797v10.871h1.797v3.077H66.98v-3.077h1.763v-10.871H66.98V272.592z"/>
	</g>
	<g>
		<g>
			<g>
				<polygon fill="#266279" points="218.744,289.391 80.673,289.391 80.673,282.191 218.744,282.191 222.892,285.791 				"/>
			</g>
			<g>
				<polygon fill="#266279" points="224.134,282.191 362.205,282.191 362.205,289.391 224.134,289.391 228.282,285.791 				"/>
			</g>
		</g>
		<g>
			<g>
				<polygon fill="#266279" points="218.744,303.305 80.673,303.305 80.673,296.105 218.744,296.105 222.892,299.705 				"/>
			</g>
			<g>
				<polygon fill="#266279" points="224.134,296.105 362.205,296.105 362.205,303.305 224.134,303.305 228.282,299.705 				"/>
			</g>
		</g>
		<g>
			<g>
				<polygon fill="#266279" points="218.744,372.873 80.673,372.873 80.673,365.674 218.744,365.674 222.892,369.273 				"/>
			</g>
			<g>
				<polygon fill="#266279" points="224.134,365.674 362.205,365.674 362.205,372.873 224.134,372.873 228.282,369.273 				"/>
			</g>
		</g>
		<g>
			<g>
				<polygon fill="#266279" points="218.744,317.219 80.673,317.219 80.673,310.02 218.744,310.02 222.892,313.619 				"/>
			</g>
			<g>
				<polygon fill="#266279" points="224.134,310.02 362.205,310.02 362.205,317.219 224.134,317.219 228.282,313.619 				"/>
			</g>
		</g>
		<g>
			<g>
				<polygon fill="#266279" points="218.744,331.133 80.673,331.133 80.673,323.934 218.744,323.934 222.892,327.533 				"/>
			</g>
			<g>
				<polygon fill="#266279" points="224.134,323.934 362.205,323.934 362.205,331.133 224.134,331.133 228.282,327.533 				"/>
			</g>
		</g>
		<g>
			<g>
				<polygon fill="#266279" points="218.744,345.047 80.673,345.047 80.673,337.846 218.744,337.846 222.892,341.445 				"/>
			</g>
			<g>
				<polygon fill="#266279" points="224.134,337.846 362.205,337.846 362.205,345.047 224.134,345.047 228.282,341.445 				"/>
			</g>
		</g>
		<g>
			<g>
				<polygon fill="#266279" points="218.744,358.961 80.673,358.961 80.673,351.76 218.744,351.76 222.892,355.359 				"/>
			</g>
			<g>
				<polygon fill="#266279" points="224.134,351.76 362.205,351.76 362.205,358.961 224.134,358.961 228.282,355.359 				"/>
			</g>
		</g>
	</g>
</g>
<g>
	<g>
		<path fill="#398EB0" d="M70.282,389.053c-0.038-0.262-0.129-0.509-0.275-0.74c-0.146-0.232-0.333-0.433-0.562-0.602
			c-0.228-0.168-0.486-0.301-0.774-0.398c-0.289-0.098-0.59-0.146-0.904-0.146c-0.285,0-0.55,0.03-0.797,0.09
			c-0.247,0.061-0.462,0.152-0.646,0.275c-0.183,0.124-0.329,0.283-0.438,0.478c-0.109,0.194-0.163,0.427-0.163,0.696
			c0,0.337,0.073,0.604,0.219,0.803c0.146,0.198,0.333,0.361,0.562,0.488c0.229,0.128,0.481,0.229,0.758,0.304
			s0.546,0.157,0.809,0.247l3.088,1.033c0.427,0.149,0.827,0.355,1.202,0.617c0.375,0.263,0.698,0.581,0.971,0.955
			c0.273,0.374,0.489,0.805,0.646,1.291c0.157,0.487,0.236,1.033,0.236,1.641c0,0.823-0.151,1.575-0.455,2.257
			c-0.303,0.682-0.728,1.266-1.274,1.752s-1.202,0.864-1.965,1.134s-1.61,0.404-2.538,0.404c-0.651,0-1.267-0.072-1.847-0.219
			c-0.581-0.146-1.11-0.357-1.589-0.635c-0.479-0.276-0.898-0.607-1.258-0.993s-0.64-0.822-0.842-1.309h-1.157v-3.38h4.065v0.695
			c0,0.338,0.054,0.648,0.163,0.933c0.109,0.284,0.271,0.531,0.489,0.741s0.49,0.372,0.82,0.488s0.715,0.174,1.157,0.174
			c0.674,0,1.187-0.155,1.539-0.466s0.528-0.743,0.528-1.297c0-0.284-0.062-0.522-0.185-0.713c-0.124-0.191-0.283-0.353-0.478-0.483
			s-0.412-0.241-0.651-0.331s-0.476-0.172-0.708-0.247l-2.572-0.831c-0.487-0.149-0.957-0.359-1.409-0.629
			c-0.453-0.27-0.854-0.606-1.202-1.011c-0.348-0.404-0.625-0.878-0.831-1.421c-0.206-0.543-0.309-1.162-0.309-1.858
			c0-0.809,0.15-1.529,0.449-2.162s0.719-1.166,1.258-1.6c0.539-0.435,1.179-0.764,1.92-0.988s1.554-0.338,2.437-0.338
			c0.696,0,1.34,0.081,1.932,0.242s1.121,0.376,1.589,0.646c0.468,0.27,0.865,0.578,1.19,0.927c0.326,0.348,0.575,0.709,0.747,1.084
			h1.123v3.391h-4.065V389.053z"/>
	</g>
	<g>
		<g>
			<g>
				<polygon fill="#266279" points="218.744,400.701 80.673,400.701 80.673,393.502 218.744,393.502 222.892,397.102 				"/>
			</g>
			<g>
				<polygon fill="#266279" points="224.134,393.502 362.205,393.502 362.205,400.701 224.134,400.701 228.282,397.102 				"/>
			</g>
		</g>
		<g>
			<g>
				<polygon fill="#266279" points="218.744,414.615 80.673,414.615 80.673,407.416 218.744,407.416 222.892,411.016 				"/>
			</g>
			<g>
				<polygon fill="#266279" points="224.134,407.416 362.205,407.416 362.205,414.615 224.134,414.615 228.282,411.016 				"/>
			</g>
		</g>
		<g>
			<g>
				<polygon fill="#266279" points="218.744,484.184 80.673,484.184 80.673,476.984 218.744,476.984 222.892,480.584 				"/>
			</g>
			<g>
				<polygon fill="#266279" points="224.134,476.984 362.205,476.984 362.205,484.184 224.134,484.184 228.282,480.584 				"/>
			</g>
		</g>
		<g>
			<g>
				<polygon fill="#266279" points="218.744,428.529 80.673,428.529 80.673,421.33 218.744,421.33 222.892,424.93 				"/>
			</g>
			<g>
				<polygon fill="#266279" points="224.134,421.33 362.205,421.33 362.205,428.529 224.134,428.529 228.282,424.93 				"/>
			</g>
		</g>
		<g>
			<g>
				<polygon fill="#266279" points="218.744,442.443 80.673,442.443 80.673,435.244 218.744,435.244 222.892,438.844 				"/>
			</g>
			<g>
				<polygon fill="#266279" points="224.134,435.244 362.205,435.244 362.205,442.443 224.134,442.443 228.282,438.844 				"/>
			</g>
		</g>
		<g>
			<g>
				<polygon fill="#266279" points="218.744,456.357 80.673,456.357 80.673,449.156 218.744,449.156 222.892,452.756 				"/>
			</g>
			<g>
				<polygon fill="#266279" points="224.134,449.156 362.205,449.156 362.205,456.357 224.134,456.357 228.282,452.756 				"/>
			</g>
		</g>
		<g>
			<g>
				<polygon fill="#266279" points="218.744,470.271 80.673,470.271 80.673,463.07 218.744,463.07 222.892,466.67 				"/>
			</g>
			<g>
				<polygon fill="#266279" points="224.134,463.07 362.205,463.07 362.205,470.271 224.134,470.271 228.282,466.67 				"/>
			</g>
		</g>
	</g>
</g>
<g>
	<g>
		<g>
			<g>
				<polygon fill="#7C5904" points="218.744,66.77 80.673,66.77 80.673,59.568 218.744,59.568 222.892,63.17 				"/>
			</g>
			<g>
				<polygon fill="#7C5904" points="224.134,59.568 362.205,59.568 362.205,66.77 224.134,66.77 228.282,63.17 				"/>
			</g>
		</g>
		<g>
			<g>
				<polygon fill="#7C5904" points="218.744,150.252 80.673,150.252 80.673,143.053 218.744,143.053 222.892,146.652 				"/>
			</g>
			<g>
				<polygon fill="#7C5904" points="224.134,143.053 362.205,143.053 362.205,150.252 224.134,150.252 228.282,146.652 				"/>
			</g>
		</g>
		<g>
			<g>
				<polygon fill="#7C5904" points="218.744,94.598 80.673,94.598 80.673,87.398 218.744,87.398 222.892,90.996 				"/>
			</g>
			<g>
				<polygon fill="#7C5904" points="224.134,87.398 362.205,87.398 362.205,94.598 224.134,94.598 228.282,90.996 				"/>
			</g>
		</g>
		<g>
			<g>
				<polygon fill="#7C5904" points="218.744,80.682 80.673,80.682 80.673,73.482 218.744,73.482 222.892,77.082 				"/>
			</g>
			<g>
				<polygon fill="#7C5904" points="224.134,73.482 362.205,73.482 362.205,80.682 224.134,80.682 228.282,77.082 				"/>
			</g>
		</g>
		<g>
			<g>
				<polygon fill="#7C5904" points="218.744,108.512 80.673,108.512 80.673,101.312 218.744,101.312 222.892,104.91 				"/>
			</g>
			<g>
				<polygon fill="#7C5904" points="224.134,101.312 362.205,101.312 362.205,108.512 224.134,108.512 228.282,104.91 				"/>
			</g>
		</g>
		<g>
			<g>
				<polygon fill="#7C5904" points="218.744,122.424 80.673,122.424 80.673,115.225 218.744,115.225 222.892,118.824 				"/>
			</g>
			<g>
				<polygon fill="#7C5904" points="224.134,115.225 362.205,115.225 362.205,122.424 224.134,122.424 228.282,118.824 				"/>
			</g>
		</g>
		<g>
			<g>
				<polygon fill="#7C5904" points="218.744,136.338 80.673,136.338 80.673,129.139 218.744,129.139 222.892,132.738 				"/>
			</g>
			<g>
				<polygon fill="#7C5904" points="224.134,129.139 362.205,129.139 362.205,136.338 224.134,136.338 228.282,132.738 				"/>
			</g>
		</g>
	</g>
	<g>
		<path fill="#C63706" d="M62.833,62.872h1.763V51.9H62.53v2.201h-3.661v-5.178h15.487v5.178h-3.684V51.9h-2.347v10.972h1.797v3.077
			h-7.289V62.872z"/>
	</g>
</g>
<g>
	<g>
		<path fill="#398EB0" d="M67.884,174.54h1.696l-0.764-2.448h-5.233l-0.764,2.448h1.797v3.077h-6.458v-3.077h1.269l4.638-13.948
			h4.503l4.537,13.948h1.235v3.077h-6.458V174.54z M64.47,169.217h3.437l-1.729-5.537L64.47,169.217z"/>
	</g>
	<g>
		<g>
			<g>
				<polygon fill="#7C5904" points="218.64,191.994 80.569,191.994 80.569,184.795 218.64,184.795 222.788,188.395 				"/>
			</g>
			<g>
				<polygon fill="#7C5904" points="224.03,184.795 362.101,184.795 362.101,191.994 224.03,191.994 228.178,188.395 				"/>
			</g>
		</g>
		<g>
			<g>
				<polygon fill="#7C5904" points="218.64,178.08 80.569,178.08 80.569,170.881 218.64,170.881 222.788,174.48 				"/>
			</g>
			<g>
				<polygon fill="#7C5904" points="224.03,170.881 362.101,170.881 362.101,178.08 224.03,178.08 228.178,174.48 				"/>
			</g>
		</g>
		<g>
			<g>
				<polygon fill="#7C5904" points="218.64,205.908 80.569,205.908 80.569,198.709 218.64,198.709 222.788,202.307 				"/>
			</g>
			<g>
				<polygon fill="#7C5904" points="224.03,198.709 362.101,198.709 362.101,205.908 224.03,205.908 228.178,202.307 				"/>
			</g>
		</g>
		<g>
			<g>
				<polygon fill="#7C5904" points="218.64,233.734 80.569,233.734 80.569,226.535 218.64,226.535 222.788,230.135 				"/>
			</g>
			<g>
				<polygon fill="#7C5904" points="224.03,226.535 362.101,226.535 362.101,233.734 224.03,233.734 228.178,230.135 				"/>
			</g>
		</g>
		<g>
			<g>
				<polygon fill="#7C5904" points="218.744,219.822 80.673,219.822 80.673,212.623 218.744,212.623 222.892,216.223 				"/>
			</g>
			<g>
				<polygon fill="#7C5904" points="224.134,212.623 362.205,212.623 362.205,219.822 224.134,219.822 228.282,216.223 				"/>
			</g>
		</g>
		<g>
			<g>
				<polygon fill="#7C5904" points="218.64,247.65 80.569,247.65 80.569,240.451 218.64,240.451 222.788,244.049 				"/>
			</g>
			<g>
				<polygon fill="#7C5904" points="224.03,240.451 362.101,240.451 362.101,247.65 224.03,247.65 228.178,244.049 				"/>
			</g>
		</g>
		<g>
			<g>
				<polygon fill="#7C5904" points="218.64,261.562 80.569,261.562 80.569,254.363 218.64,254.363 222.788,257.963 				"/>
			</g>
			<g>
				<polygon fill="#7C5904" points="224.03,254.363 362.101,254.363 362.101,261.562 224.03,261.562 228.178,257.963 				"/>
			</g>
		</g>
	</g>
</g>
</svg>
