<?xml version="1.0" encoding="utf-8"?>
<!-- Generator: Adobe Illustrator 16.0.4, SVG Export Plug-In . SVG Version: 6.00 Build 0)  -->
<!DOCTYPE svg PUBLIC "-//W3C//DTD SVG 1.1//EN" "http://www.w3.org/Graphics/SVG/1.1/DTD/svg11.dtd">
<svg version="1.1" id="Layer_1" xmlns="http://www.w3.org/2000/svg" xmlns:xlink="http://www.w3.org/1999/xlink" x="0px" y="0px"
	 width="448.747px" height="616.441px" viewBox="0 0 448.747 616.441" enable-background="new 0 0 448.747 616.441"
	 xml:space="preserve">
<rect x="0.5" y="0.5" fill="#FFFFFF" stroke="#C68D06" stroke-miterlimit="10" width="447.747" height="615.441"/>
<g>
	<path fill="#C68D06" d="M340.991,567.887c0-7.98,4.201-13.896,10.151-13.896c2.87,0,4.796,0.875,6.195,1.961l-1.295,1.891
		c-1.33-1.051-2.625-1.682-4.971-1.682c-4.725,0-7.631,5.041-7.665,11.482c1.645-1.785,4.095-3.467,7.386-3.467
		c5.46,0,8.086,3.396,8.086,8.086c0,4.9-3.466,8.611-8.682,8.611C345.087,580.873,340.991,576.777,340.991,567.887z
		 M356.463,572.297c0-3.465-1.75-5.984-5.95-5.984c-2.87,0-5.426,1.609-7.001,3.814c0.525,6.021,3.36,8.611,6.791,8.611
		C354.013,578.738,356.463,576.393,356.463,572.297z"/>
	<path fill="#C68D06" d="M364.966,576.043l1.855-1.33c1.891,2.836,4.2,3.99,7.07,3.99c3.815,0,6.161-2.1,6.161-5.285
		c0-3.816-2.24-5.705-8.331-5.705h-0.979v-2.137h1.189c5.496,0,7.561-1.68,7.561-4.865c0-2.59-1.574-4.516-5.495-4.516
		c-2.625,0-4.655,1.295-6.161,3.15l-1.715-1.436c1.855-2.24,4.516-3.92,8.016-3.92c5.461,0,7.771,3.115,7.771,6.477
		c0,3.324-1.961,5.529-5.111,6.125c3.851,0.805,5.706,3.01,5.706,6.826c0,4.234-3.325,7.455-8.646,7.455
		C370.076,580.873,366.892,579.123,364.966,576.043z"/>
	<path fill="#C68D06" d="M389.36,554.48h2.556l7.735,22.613h0.07l7.771-22.613h2.416l-9.102,26.008h-2.345L389.36,554.48z"/>
</g>
<g>
	<rect x="79.884" y="158.719" fill="#C0DDE7" width="281.739" height="7.199"/>
</g>
<g>
	<rect x="79.884" y="172.633" fill="#C0DDE7" width="281.738" height="7.199"/>
</g>
<g>
	<rect x="79.875" y="186.547" fill="#C0DDE7" width="281.739" height="7.199"/>
</g>
<g>
	<rect x="79.884" y="200.461" fill="#C0DDE7" width="281.739" height="7.199"/>
</g>
<g>
	<rect x="79.884" y="214.375" fill="#C0DDE7" width="281.739" height="7.199"/>
</g>
<g>
	<rect x="79.884" y="228.287" fill="#C0DDE7" width="281.739" height="7.201"/>
</g>
<g>
	<rect x="79.884" y="242.203" fill="#C0DDE7" width="281.738" height="7.199"/>
</g>
<g>
	<rect x="79.884" y="256.115" fill="#C0DDE7" width="281.738" height="7.201"/>
</g>
<g>
	<rect x="79.884" y="270.029" fill="#C0DDE7" width="281.739" height="7.199"/>
</g>
<g>
	<rect x="79.884" y="283.943" fill="#C0DDE7" width="281.738" height="7.201"/>
</g>
<g>
	<rect x="79.884" y="297.857" fill="#C0DDE7" width="281.739" height="7.201"/>
</g>
<g>
	<rect x="79.884" y="311.771" fill="#C0DDE7" width="281.739" height="7.199"/>
</g>
<g>
	<rect x="79.884" y="325.686" fill="#C0DDE7" width="281.739" height="7.199"/>
</g>
<g>
	<rect x="79.884" y="339.6" fill="#C0DDE7" width="281.738" height="7.199"/>
</g>
<g>
	<rect x="79.884" y="353.512" fill="#C0DDE7" width="281.739" height="7.201"/>
</g>
<g>
	<rect x="79.884" y="367.426" fill="#C0DDE7" width="281.739" height="7.201"/>
</g>
<g>
	<rect x="79.884" y="381.342" fill="#C0DDE7" width="281.739" height="7.197"/>
</g>
<g>
	<rect x="79.884" y="395.254" fill="#C0DDE7" width="281.739" height="7.199"/>
</g>
<g>
	<rect x="79.884" y="409.168" fill="#C0DDE7" width="281.738" height="7.199"/>
</g>
<g>
	<rect x="79.884" y="423.082" fill="#C0DDE7" width="281.739" height="7.199"/>
</g>
<g>
	<rect x="79.884" y="436.996" fill="#C0DDE7" width="281.738" height="7.199"/>
</g>
<g>
	<rect x="79.884" y="450.91" fill="#C0DDE7" width="281.739" height="7.199"/>
</g>
<g>
	<rect x="79.884" y="464.824" fill="#C0DDE7" width="281.738" height="7.199"/>
</g>
<g>
	<rect x="79.884" y="478.736" fill="#C0DDE7" width="281.739" height="7.201"/>
</g>
<g>
	<rect x="79.884" y="61.322" fill="#C0DDE7" width="281.739" height="7.199"/>
</g>
<g>
	<rect x="79.884" y="75.236" fill="#C0DDE7" width="281.738" height="7.199"/>
</g>
<g>
	<rect x="79.884" y="144.806" fill="#C0DDE7" width="281.738" height="7.198"/>
</g>
<g>
	<rect x="79.884" y="89.15" fill="#C0DDE7" width="281.739" height="7.199"/>
</g>
<g>
	<rect x="79.884" y="103.064" fill="#C0DDE7" width="281.738" height="7.199"/>
</g>
<g>
	<rect x="79.884" y="116.979" fill="#C0DDE7" width="281.738" height="7.199"/>
</g>
<g>
	<rect x="79.884" y="130.893" fill="#C0DDE7" width="281.738" height="7.199"/>
</g>
<g>
	<path fill="#266279" d="M70.496,177.131c-0.451-0.123-0.876-0.305-1.274-0.545s-0.747-0.537-1.046-0.893
		c-0.299-0.354-0.536-0.764-0.712-1.23c-0.176-0.465-0.264-0.988-0.264-1.568c0-0.615,0.123-1.191,0.369-1.727
		c0.246-0.537,0.595-1.004,1.046-1.402s0.996-0.713,1.635-0.941s1.351-0.342,2.136-0.342h6.012v2.416h-1.239v14.09h-2.575v-14.09
		h-1.512v14.09h-2.575V177.131z"/>
</g>
<g>
	<path fill="#266279" d="M70.496,288.297c-0.451-0.123-0.876-0.305-1.274-0.545s-0.747-0.537-1.046-0.893
		c-0.299-0.354-0.536-0.764-0.712-1.23c-0.176-0.465-0.264-0.988-0.264-1.568c0-0.615,0.123-1.191,0.369-1.727
		c0.246-0.537,0.595-1.004,1.046-1.402s0.996-0.713,1.635-0.941s1.351-0.342,2.136-0.342h6.012v2.416h-1.239v14.09h-2.575v-14.09
		h-1.512v14.09h-2.575V288.297z"/>
</g>
<g>
	<path fill="#266279" d="M70.496,399.051c-0.451-0.123-0.876-0.305-1.274-0.545s-0.747-0.537-1.046-0.893
		c-0.299-0.354-0.536-0.764-0.712-1.23c-0.176-0.465-0.264-0.988-0.264-1.568c0-0.615,0.123-1.191,0.369-1.727
		c0.246-0.537,0.595-1.004,1.046-1.402s0.996-0.713,1.635-0.941s1.351-0.342,2.136-0.342h6.012v2.416h-1.239v14.09h-2.575v-14.09
		h-1.512v14.09h-2.575V399.051z"/>
</g>
<g>
	<path fill="#266279" d="M62.356,65.457h1.763V54.484h-2.066v2.201h-3.661v-5.178h15.487v5.178h-3.684v-2.201h-2.347v10.973h1.797
		v3.076h-7.289V65.457z"/>
</g>
<g>
	<g>
		<g>
			<polygon fill="#266279" points="218.057,68.814 79.986,68.814 79.986,61.615 218.057,61.615 222.205,65.214 			"/>
		</g>
		<g>
			<polygon fill="#266279" points="223.448,61.615 361.518,61.615 361.518,68.814 223.448,68.814 227.596,65.214 			"/>
		</g>
	</g>
	<g>
		<g>
			<polygon fill="#266279" points="218.058,152.004 79.987,152.004 79.987,144.806 218.058,144.806 222.206,148.405 			"/>
		</g>
		<g>
			<polygon fill="#266279" points="223.448,144.806 361.519,144.806 361.519,152.004 223.448,152.004 227.596,148.405 			"/>
		</g>
	</g>
	<g>
		<g>
			<polygon fill="#266279" points="218.058,96.35 79.987,96.35 79.987,89.15 218.058,89.15 222.206,92.75 			"/>
		</g>
		<g>
			<polygon fill="#266279" points="223.448,89.15 361.519,89.15 361.519,96.35 223.448,96.35 227.596,92.75 			"/>
		</g>
	</g>
	<g>
		<g>
			<polygon fill="#266279" points="218.058,82.436 79.987,82.436 79.987,75.236 218.058,75.236 222.206,78.834 			"/>
		</g>
		<g>
			<polygon fill="#266279" points="223.448,75.236 361.519,75.236 361.519,82.436 223.448,82.436 227.596,78.834 			"/>
		</g>
	</g>
	<g>
		<g>
			<polygon fill="#266279" points="218.058,110.264 79.987,110.264 79.987,103.064 218.058,103.064 222.206,106.664 			"/>
		</g>
		<g>
			<polygon fill="#266279" points="223.448,103.064 361.519,103.064 361.519,110.264 223.448,110.264 227.596,106.664 			"/>
		</g>
	</g>
	<g>
		<g>
			<polygon fill="#266279" points="218.058,124.178 79.987,124.178 79.987,116.979 218.058,116.979 222.206,120.577 			"/>
		</g>
		<g>
			<polygon fill="#266279" points="223.448,116.979 361.519,116.979 361.519,124.178 223.448,124.178 227.596,120.577 			"/>
		</g>
	</g>
	<g>
		<g>
			<polygon fill="#266279" points="218.058,138.092 79.987,138.092 79.987,130.892 218.058,130.892 222.206,134.49 			"/>
		</g>
		<g>
			<polygon fill="#266279" points="223.448,130.892 361.519,130.892 361.519,138.092 223.448,138.092 227.596,134.49 			"/>
		</g>
	</g>
	<g>
		<rect x="79.884" y="158.719" fill="#266279" width="142.488" height="7.199"/>
	</g>
</g>
<g>
	<g>
		<g>
			<polygon fill="#266279" points="218.057,180.125 79.986,180.125 79.986,172.926 218.057,172.926 222.205,176.525 			"/>
		</g>
		<g>
			<polygon fill="#266279" points="223.448,172.926 361.518,172.926 361.518,180.125 223.448,180.125 227.596,176.525 			"/>
		</g>
	</g>
	<g>
		<g>
			<polygon fill="#266279" points="218.058,263.314 79.987,263.314 79.987,256.117 218.058,256.117 222.206,259.717 			"/>
		</g>
		<g>
			<polygon fill="#266279" points="223.448,256.117 361.519,256.117 361.519,263.314 223.448,263.314 227.596,259.717 			"/>
		</g>
	</g>
	<g>
		<g>
			<polygon fill="#266279" points="218.058,207.66 79.987,207.66 79.987,200.461 218.058,200.461 222.206,204.061 			"/>
		</g>
		<g>
			<polygon fill="#266279" points="223.448,200.461 361.519,200.461 361.519,207.66 223.448,207.66 227.596,204.061 			"/>
		</g>
	</g>
	<g>
		<g>
			<polygon fill="#266279" points="218.058,193.746 79.987,193.746 79.987,186.547 218.058,186.547 222.206,190.145 			"/>
		</g>
		<g>
			<polygon fill="#266279" points="223.448,186.547 361.519,186.547 361.519,193.746 223.448,193.746 227.596,190.145 			"/>
		</g>
	</g>
	<g>
		<g>
			<polygon fill="#266279" points="218.058,221.574 79.987,221.574 79.987,214.375 218.058,214.375 222.206,217.975 			"/>
		</g>
		<g>
			<polygon fill="#266279" points="223.448,214.375 361.519,214.375 361.519,221.574 223.448,221.574 227.596,217.975 			"/>
		</g>
	</g>
	<g>
		<g>
			<polygon fill="#266279" points="218.058,235.488 79.987,235.488 79.987,228.289 218.058,228.289 222.206,231.889 			"/>
		</g>
		<g>
			<polygon fill="#266279" points="223.448,228.289 361.519,228.289 361.519,235.488 223.448,235.488 227.596,231.889 			"/>
		</g>
	</g>
	<g>
		<g>
			<polygon fill="#266279" points="218.058,249.402 79.987,249.402 79.987,242.203 218.058,242.203 222.206,245.801 			"/>
		</g>
		<g>
			<polygon fill="#266279" points="223.448,242.203 361.519,242.203 361.519,249.402 223.448,249.402 227.596,245.801 			"/>
		</g>
	</g>
	<g>
		<rect x="79.884" y="270.029" fill="#266279" width="142.488" height="7.199"/>
	</g>
</g>
<g>
	<rect x="79.884" y="381.34" fill="#C0DDE7" width="281.739" height="7.199"/>
</g>
<g>
	<g>
		<g>
			<polygon fill="#266279" points="218.057,291.436 79.986,291.436 79.986,284.236 218.057,284.236 222.205,287.836 			"/>
		</g>
		<g>
			<polygon fill="#266279" points="223.448,284.236 361.518,284.236 361.518,291.436 223.448,291.436 227.596,287.836 			"/>
		</g>
	</g>
	<g>
		<g>
			<polygon fill="#266279" points="218.058,374.625 79.987,374.625 79.987,367.428 218.058,367.428 222.206,371.027 			"/>
		</g>
		<g>
			<polygon fill="#266279" points="223.448,367.428 361.519,367.428 361.519,374.625 223.448,374.625 227.596,371.027 			"/>
		</g>
	</g>
	<g>
		<g>
			<polygon fill="#266279" points="218.058,318.971 79.987,318.971 79.987,311.771 218.058,311.771 222.206,315.371 			"/>
		</g>
		<g>
			<polygon fill="#266279" points="223.448,311.771 361.519,311.771 361.519,318.971 223.448,318.971 227.596,315.371 			"/>
		</g>
	</g>
	<g>
		<g>
			<polygon fill="#266279" points="218.058,305.057 79.987,305.057 79.987,297.857 218.058,297.857 222.206,301.455 			"/>
		</g>
		<g>
			<polygon fill="#266279" points="223.448,297.857 361.519,297.857 361.519,305.057 223.448,305.057 227.596,301.455 			"/>
		</g>
	</g>
	<g>
		<g>
			<polygon fill="#266279" points="218.058,332.885 79.987,332.885 79.987,325.686 218.058,325.686 222.206,329.285 			"/>
		</g>
		<g>
			<polygon fill="#266279" points="223.448,325.686 361.519,325.686 361.519,332.885 223.448,332.885 227.596,329.285 			"/>
		</g>
	</g>
	<g>
		<g>
			<polygon fill="#266279" points="218.058,346.799 79.987,346.799 79.987,339.6 218.058,339.6 222.206,343.199 			"/>
		</g>
		<g>
			<polygon fill="#266279" points="223.448,339.6 361.519,339.6 361.519,346.799 223.448,346.799 227.596,343.199 			"/>
		</g>
	</g>
	<g>
		<g>
			<polygon fill="#266279" points="218.058,360.713 79.987,360.713 79.987,353.514 218.058,353.514 222.206,357.111 			"/>
		</g>
		<g>
			<polygon fill="#266279" points="223.448,353.514 361.519,353.514 361.519,360.713 223.448,360.713 227.596,357.111 			"/>
		</g>
	</g>
	<g>
		<rect x="79.884" y="381.34" fill="#266279" width="142.488" height="7.199"/>
	</g>
</g>
<g>
	<g>
		<polygon fill="#266279" points="218.057,402.453 79.986,402.453 79.986,395.254 218.057,395.254 222.205,398.854 		"/>
	</g>
	<g>
		<polygon fill="#266279" points="223.448,395.254 361.518,395.254 361.518,402.453 223.448,402.453 227.596,398.854 		"/>
	</g>
</g>
<g>
	<g>
		<polygon fill="#266279" points="218.058,429.988 79.987,429.988 79.987,422.789 218.058,422.789 222.206,426.389 		"/>
	</g>
	<g>
		<polygon fill="#266279" points="223.448,422.789 361.519,422.789 361.519,429.988 223.448,429.988 227.596,426.389 		"/>
	</g>
</g>
<g>
	<g>
		<polygon fill="#266279" points="218.058,416.074 79.987,416.074 79.987,408.875 218.058,408.875 222.206,412.473 		"/>
	</g>
	<g>
		<polygon fill="#266279" points="223.448,408.875 361.519,408.875 361.519,416.074 223.448,416.074 227.596,412.473 		"/>
	</g>
</g>
<g>
	<g>
		<polygon fill="#266279" points="218.058,443.902 79.987,443.902 79.987,436.703 218.058,436.703 222.206,440.303 		"/>
	</g>
	<g>
		<polygon fill="#266279" points="223.448,436.703 361.519,436.703 361.519,443.902 223.448,443.902 227.596,440.303 		"/>
	</g>
</g>
<g>
	<g>
		<polygon fill="#266279" points="218.058,457.816 79.987,457.816 79.987,450.617 218.058,450.617 222.206,454.217 		"/>
	</g>
	<g>
		<polygon fill="#266279" points="223.448,450.617 361.519,450.617 361.519,457.816 223.448,457.816 227.596,454.217 		"/>
	</g>
</g>
<g>
	<g>
		<polygon fill="#266279" points="218.058,471.73 79.987,471.73 79.987,464.531 218.058,464.531 222.206,468.129 		"/>
	</g>
	<g>
		<polygon fill="#266279" points="223.448,464.531 361.519,464.531 361.519,471.73 223.448,471.73 227.596,468.129 		"/>
	</g>
</g>
<g>
	<g>
		<polygon fill="#266279" points="217.955,485.938 79.884,485.938 79.884,478.738 217.955,478.738 222.103,482.338 		"/>
	</g>
	<g>
		<polygon fill="#266279" points="223.345,478.738 227.493,482.338 223.345,485.938 357.268,485.938 361.416,482.338 
			357.268,478.738 		"/>
	</g>
</g>
</svg>
