<?xml version="1.0" encoding="utf-8"?>
<!-- Generator: Adobe Illustrator 16.0.4, SVG Export Plug-In . SVG Version: 6.00 Build 0)  -->
<!DOCTYPE svg PUBLIC "-//W3C//DTD SVG 1.1//EN" "http://www.w3.org/Graphics/SVG/1.1/DTD/svg11.dtd">
<svg version="1.1" id="Layer_1" xmlns="http://www.w3.org/2000/svg" xmlns:xlink="http://www.w3.org/1999/xlink" x="0px" y="0px"
	 width="448.746px" height="616.439px" viewBox="0 0 448.746 616.439" enable-background="new 0 0 448.746 616.439"
	 xml:space="preserve">
<rect x="0.5" y="0.5" fill="#FFFFFF" stroke="#C68D06" stroke-miterlimit="10" width="447.746" height="615.439"/>
<g>
	<path fill="#C68D06" d="M338.772,569.637c0-7.981,4.201-13.896,10.151-13.896c2.87,0,4.796,0.875,6.195,1.96l-1.295,1.891
		c-1.33-1.051-2.625-1.681-4.971-1.681c-4.726,0-7.631,5.041-7.665,11.481c1.645-1.785,4.095-3.466,7.386-3.466
		c5.46,0,8.086,3.396,8.086,8.086c0,4.9-3.466,8.611-8.682,8.611C342.868,582.623,338.772,578.527,338.772,569.637z
		 M354.244,574.047c0-3.465-1.75-5.985-5.95-5.985c-2.87,0-5.426,1.61-7.001,3.815c0.525,6.021,3.36,8.61,6.791,8.61
		C351.794,580.487,354.244,578.143,354.244,574.047z"/>
	<path fill="#C68D06" d="M362.747,577.792l1.855-1.33c1.891,2.836,4.2,3.991,7.07,3.991c3.815,0,6.161-2.101,6.161-5.286
		c0-3.815-2.24-5.705-8.331-5.705h-0.979v-2.136h1.189c5.496,0,7.561-1.68,7.561-4.865c0-2.591-1.575-4.516-5.495-4.516
		c-2.625,0-4.655,1.295-6.16,3.15l-1.716-1.436c1.855-2.24,4.516-3.92,8.016-3.92c5.461,0,7.771,3.115,7.771,6.476
		c0,3.325-1.961,5.53-5.11,6.126c3.85,0.805,5.705,3.01,5.705,6.825c0,4.235-3.325,7.456-8.646,7.456
		C367.858,582.623,364.673,580.873,362.747,577.792z"/>
	<path fill="#C68D06" d="M389.207,556.23h8.681c5.776,0,8.996,2.45,8.996,7c0,4.201-2.45,6.301-6.195,7.001l6.546,11.901h-2.801
		l-6.336-11.621h-6.44v11.621h-2.45V556.23z M397.713,568.307c4.271,0,6.686-1.226,6.686-4.971c0-3.57-2.38-4.831-6.721-4.831
		h-6.021v9.802H397.713z"/>
</g>
<g>
	<rect x="81.216" y="157.966" fill="#C0DDE7" width="281.738" height="7.199"/>
</g>
<g>
	<rect x="80.216" y="171.879" fill="#C0DDE7" width="281.738" height="7.199"/>
</g>
<g>
	<rect x="80.216" y="185.793" fill="#C0DDE7" width="281.738" height="7.2"/>
</g>
<g>
	<rect x="80.216" y="199.707" fill="#C0DDE7" width="281.738" height="7.199"/>
</g>
<g>
	<rect x="80.216" y="213.621" fill="#C0DDE7" width="281.738" height="7.199"/>
</g>
<g>
	<rect x="80.216" y="227.535" fill="#C0DDE7" width="281.738" height="7.199"/>
</g>
<g>
	<rect x="80.216" y="241.449" fill="#C0DDE7" width="281.738" height="7.199"/>
</g>
<g>
	<rect x="80.216" y="255.361" fill="#C0DDE7" width="281.738" height="7.201"/>
</g>
<g>
	<rect x="80.216" y="269.276" fill="#C0DDE7" width="281.738" height="7.199"/>
</g>
<g>
	<rect x="80.216" y="283.189" fill="#C0DDE7" width="281.738" height="7.201"/>
</g>
<g>
	<rect x="80.216" y="297.104" fill="#C0DDE7" width="281.738" height="7.2"/>
</g>
<g>
	<rect x="80.216" y="311.018" fill="#C0DDE7" width="281.738" height="7.2"/>
</g>
<g>
	<rect x="80.216" y="324.932" fill="#C0DDE7" width="281.738" height="7.199"/>
</g>
<g>
	<rect x="80.216" y="338.846" fill="#C0DDE7" width="281.738" height="7.199"/>
</g>
<g>
	<rect x="80.216" y="352.759" fill="#C0DDE7" width="281.738" height="7.201"/>
</g>
<g>
	<rect x="80.216" y="366.673" fill="#C0DDE7" width="281.738" height="7.2"/>
</g>
<g>
	<rect x="80.216" y="380.587" fill="#C0DDE7" width="281.738" height="7.199"/>
</g>
<g>
	<rect x="80.216" y="394.501" fill="#C0DDE7" width="281.738" height="7.199"/>
</g>
<g>
	<rect x="80.216" y="408.414" fill="#C0DDE7" width="281.738" height="7.199"/>
</g>
<g>
	<rect x="80.216" y="422.328" fill="#C0DDE7" width="281.738" height="7.2"/>
</g>
<g>
	<rect x="80.216" y="436.242" fill="#C0DDE7" width="281.738" height="7.199"/>
</g>
<g>
	<rect x="80.216" y="450.156" fill="#C0DDE7" width="281.738" height="7.199"/>
</g>
<g>
	<rect x="80.216" y="464.07" fill="#C0DDE7" width="281.738" height="7.199"/>
</g>
<g>
	<rect x="80.216" y="477.983" fill="#C0DDE7" width="281.738" height="7.2"/>
</g>
<g>
	<rect x="80.216" y="60.568" fill="#C0DDE7" width="281.738" height="7.2"/>
</g>
<g>
	<rect x="80.216" y="74.482" fill="#C0DDE7" width="281.738" height="7.2"/>
</g>
<g>
	<rect x="80.216" y="144.052" fill="#C0DDE7" width="281.738" height="7.2"/>
</g>
<g>
	<rect x="80.216" y="88.396" fill="#C0DDE7" width="281.738" height="7.199"/>
</g>
<g>
	<rect x="80.216" y="102.311" fill="#C0DDE7" width="281.738" height="7.2"/>
</g>
<g>
	<rect x="80.216" y="116.225" fill="#C0DDE7" width="281.738" height="7.199"/>
</g>
<g>
	<rect x="80.216" y="130.139" fill="#C0DDE7" width="281.738" height="7.198"/>
</g>
<g>
	<path fill="#266279" d="M67.554,399.773h1.696l-0.764-2.447h-5.233l-0.764,2.447h1.797v3.078h-6.458v-3.078h1.269l4.638-13.947
		h4.503l4.537,13.947h1.235v3.078h-6.458V399.773z M64.14,394.451h3.437l-1.729-5.537L64.14,394.451z"/>
</g>
<g>
	<g>
		<polygon fill="#266279" points="218.389,109.511 80.32,109.511 80.32,102.312 218.389,102.312 222.538,105.91 		"/>
	</g>
	<g>
		<polygon fill="#266279" points="223.781,102.312 361.85,102.312 361.85,109.511 223.781,109.511 227.929,105.91 		"/>
	</g>
</g>
<g>
	<g>
		<polygon fill="#266279" points="218.389,95.596 80.32,95.596 80.32,88.396 218.389,88.396 222.538,91.995 		"/>
	</g>
	<g>
		<polygon fill="#266279" points="223.781,88.396 361.85,88.396 361.85,95.596 223.781,95.596 227.929,91.995 		"/>
	</g>
</g>
<g>
	<g>
		<polygon fill="#266279" points="218.389,81.682 80.32,81.682 80.32,74.482 218.389,74.482 222.538,78.08 		"/>
	</g>
	<g>
		<polygon fill="#266279" points="223.781,74.482 361.85,74.482 361.85,81.682 223.781,81.682 227.929,78.08 		"/>
	</g>
</g>
<g>
	<g>
		<polygon fill="#266279" points="218.389,123.424 80.32,123.424 80.32,116.223 218.389,116.223 222.538,119.822 		"/>
	</g>
	<g>
		<polygon fill="#266279" points="223.781,116.223 361.85,116.223 361.85,123.424 223.781,123.424 227.929,119.822 		"/>
	</g>
</g>
<g>
	<g>
		<polygon fill="#266279" points="218.389,179.082 80.32,179.082 80.32,171.883 218.389,171.883 222.538,175.48 		"/>
	</g>
	<g>
		<polygon fill="#266279" points="223.781,171.883 361.85,171.883 361.85,179.082 223.781,179.082 227.929,175.48 		"/>
	</g>
</g>
<g>
	<g>
		<polygon fill="#266279" points="218.389,165.166 80.32,165.166 80.32,157.967 218.389,157.967 222.538,161.564 		"/>
	</g>
	<g>
		<polygon fill="#266279" points="223.781,157.967 361.85,157.967 361.85,165.166 223.781,165.166 227.929,161.564 		"/>
	</g>
</g>
<g>
	<g>
		<polygon fill="#266279" points="218.389,151.252 80.32,151.252 80.32,144.053 218.389,144.053 222.538,147.65 		"/>
	</g>
	<g>
		<polygon fill="#266279" points="223.781,144.053 361.85,144.053 361.85,151.252 223.781,151.252 227.929,147.65 		"/>
	</g>
</g>
<g>
	<g>
		<polygon fill="#266279" points="218.389,137.339 80.32,137.339 80.32,130.14 218.389,130.14 222.538,133.737 		"/>
	</g>
	<g>
		<polygon fill="#266279" points="223.781,130.14 361.85,130.14 361.85,137.339 223.781,137.339 227.929,133.737 		"/>
	</g>
</g>
<g>
	<g>
		<polygon fill="#266279" points="218.389,192.994 80.32,192.994 80.32,185.794 218.389,185.794 222.538,189.394 		"/>
	</g>
	<g>
		<polygon fill="#266279" points="223.781,185.794 361.85,185.794 361.85,192.994 223.781,192.994 227.929,189.394 		"/>
	</g>
</g>
<g>
	<g>
		<polygon fill="#266279" points="218.389,220.82 80.32,220.82 80.32,213.62 218.389,213.62 222.538,217.22 		"/>
	</g>
	<g>
		<polygon fill="#266279" points="223.781,213.62 361.85,213.62 361.85,220.82 223.781,220.82 227.929,217.22 		"/>
	</g>
</g>
<g>
	<g>
		<polygon fill="#266279" points="218.389,248.648 80.32,248.648 80.32,241.447 218.389,241.447 222.538,245.047 		"/>
	</g>
	<g>
		<polygon fill="#266279" points="223.781,241.447 361.85,241.447 361.85,248.648 223.781,248.648 227.929,245.047 		"/>
	</g>
</g>
<g>
	<g>
		<polygon fill="#266279" points="218.389,206.906 80.32,206.906 80.32,199.707 218.389,199.707 222.538,203.307 		"/>
	</g>
	<g>
		<polygon fill="#266279" points="223.781,199.707 361.85,199.707 361.85,206.906 223.781,206.906 227.929,203.307 		"/>
	</g>
</g>
<g>
	<g>
		<polygon fill="#266279" points="218.389,234.734 80.32,234.734 80.32,227.535 218.389,227.535 222.538,231.135 		"/>
	</g>
	<g>
		<polygon fill="#266279" points="223.781,227.535 361.85,227.535 361.85,234.734 223.781,234.734 227.929,231.135 		"/>
	</g>
</g>
<g>
	<g>
		<polygon fill="#266279" points="218.389,262.562 80.32,262.562 80.32,255.363 218.389,255.363 222.538,258.963 		"/>
	</g>
	<g>
		<polygon fill="#266279" points="223.781,255.363 361.85,255.363 361.85,262.562 223.781,262.562 227.929,258.963 		"/>
	</g>
</g>
<g>
	<g>
		<polygon fill="#266279" points="218.389,276.476 80.32,276.476 80.32,269.276 218.389,269.276 222.538,272.876 		"/>
	</g>
	<g>
		<polygon fill="#266279" points="223.781,269.276 361.85,269.276 361.85,276.476 223.781,276.476 227.929,272.876 		"/>
	</g>
</g>
<g>
	<g>
		<polygon fill="#266279" points="218.389,457.357 80.32,457.357 80.32,450.158 218.389,450.158 222.538,453.756 		"/>
	</g>
	<g>
		<polygon fill="#266279" points="223.781,450.158 361.85,450.158 361.85,457.357 223.781,457.357 227.929,453.756 		"/>
	</g>
</g>
<g>
	<g>
		<polygon fill="#266279" points="218.389,429.527 80.32,429.527 80.32,422.328 218.389,422.328 222.538,425.926 		"/>
	</g>
	<g>
		<polygon fill="#266279" points="223.781,422.328 361.85,422.328 361.85,429.527 223.781,429.527 227.929,425.926 		"/>
	</g>
</g>
<g>
	<g>
		<polygon fill="#266279" points="218.389,401.699 80.32,401.699 80.32,394.5 218.389,394.5 222.538,398.098 		"/>
	</g>
	<g>
		<polygon fill="#266279" points="223.781,394.5 361.85,394.5 361.85,401.699 223.781,401.699 227.929,398.098 		"/>
	</g>
</g>
<g>
	<g>
		<polygon fill="#266279" points="218.389,304.303 80.32,304.303 80.32,297.104 218.389,297.104 222.538,300.701 		"/>
	</g>
	<g>
		<polygon fill="#266279" points="223.781,297.104 361.85,297.104 361.85,304.303 223.781,304.303 227.929,300.701 		"/>
	</g>
</g>
<g>
	<g>
		<polygon fill="#266279" points="218.389,332.131 80.32,332.131 80.32,324.932 218.389,324.932 222.538,328.529 		"/>
	</g>
	<g>
		<polygon fill="#266279" points="223.781,324.932 361.85,324.932 361.85,332.131 223.781,332.131 227.929,328.529 		"/>
	</g>
</g>
<g>
	<g>
		<polygon fill="#266279" points="218.389,359.96 80.32,359.96 80.32,352.761 218.389,352.761 222.538,356.358 		"/>
	</g>
	<g>
		<polygon fill="#266279" points="223.781,352.761 361.85,352.761 361.85,359.96 223.781,359.96 227.929,356.358 		"/>
	</g>
</g>
<g>
	<g>
		<polygon fill="#266279" points="218.389,346.045 80.32,346.045 80.32,338.846 218.389,338.846 222.538,342.443 		"/>
	</g>
	<g>
		<polygon fill="#266279" points="223.781,338.846 361.85,338.846 361.85,346.045 223.781,346.045 227.929,342.443 		"/>
	</g>
</g>
<g>
	<g>
		<polygon fill="#266279" points="218.389,318.218 80.32,318.218 80.32,311.019 218.389,311.019 222.538,314.616 		"/>
	</g>
	<g>
		<polygon fill="#266279" points="223.781,311.019 361.85,311.019 361.85,318.218 223.781,318.218 227.929,314.616 		"/>
	</g>
</g>
<g>
	<g>
		<polygon fill="#266279" points="218.389,290.389 80.32,290.389 80.32,283.189 218.389,283.189 222.538,286.787 		"/>
	</g>
	<g>
		<polygon fill="#266279" points="223.781,283.189 361.85,283.189 361.85,290.389 223.781,290.389 227.929,286.787 		"/>
	</g>
</g>
<g>
	<g>
		<polygon fill="#266279" points="218.389,471.27 80.32,471.27 80.32,464.069 218.389,464.069 222.538,467.669 		"/>
	</g>
	<g>
		<polygon fill="#266279" points="223.781,464.069 361.85,464.069 361.85,471.27 223.781,471.27 227.929,467.669 		"/>
	</g>
</g>
<g>
	<g>
		<polygon fill="#266279" points="218.389,485.184 80.32,485.184 80.32,477.983 218.389,477.983 222.538,481.583 		"/>
	</g>
	<g>
		<polygon fill="#266279" points="223.781,477.983 361.85,477.983 361.85,485.184 223.781,485.184 227.929,481.583 		"/>
	</g>
</g>
<g>
	<path fill="#266279" d="M70.357,106.477c-0.451-0.123-0.876-0.305-1.274-0.545s-0.747-0.537-1.046-0.893
		c-0.299-0.354-0.536-0.764-0.712-1.23c-0.176-0.465-0.264-0.988-0.264-1.568c0-0.615,0.123-1.191,0.369-1.727
		c0.246-0.537,0.595-1.004,1.046-1.402s0.996-0.713,1.635-0.941s1.351-0.342,2.136-0.342h6.012v2.416H77.02v14.09h-2.575v-14.09
		h-1.512v14.09h-2.575V106.477z"/>
</g>
<g>
	<path fill="#266279" d="M70.357,273.727c-0.451-0.123-0.876-0.305-1.274-0.545s-0.747-0.537-1.046-0.893
		c-0.299-0.354-0.536-0.764-0.712-1.23c-0.176-0.465-0.264-0.988-0.264-1.568c0-0.615,0.123-1.191,0.369-1.727
		c0.246-0.537,0.595-1.004,1.046-1.402s0.996-0.713,1.635-0.941s1.351-0.342,2.136-0.342h6.012v2.416H77.02v14.09h-2.575v-14.09
		h-1.512v14.09h-2.575V273.727z"/>
</g>
<g>
	<path fill="#266279" d="M70.357,356.477c-0.451-0.123-0.876-0.305-1.274-0.545s-0.747-0.537-1.046-0.893
		c-0.299-0.354-0.536-0.764-0.712-1.23c-0.176-0.465-0.264-0.988-0.264-1.568c0-0.615,0.123-1.191,0.369-1.727
		c0.246-0.537,0.595-1.004,1.046-1.402s0.996-0.713,1.635-0.941s1.351-0.342,2.136-0.342h6.012v2.416H77.02v14.09h-2.575v-14.09
		h-1.512v14.09h-2.575V356.477z"/>
</g>
<g>
	<path fill="#266279" d="M70.357,189.727c-0.451-0.123-0.876-0.305-1.274-0.545s-0.747-0.537-1.046-0.893
		c-0.299-0.354-0.536-0.764-0.712-1.23c-0.176-0.465-0.264-0.988-0.264-1.568c0-0.615,0.123-1.191,0.369-1.727
		c0.246-0.537,0.595-1.004,1.046-1.402s0.996-0.713,1.635-0.941s1.351-0.342,2.136-0.342h6.012v2.416H77.02v14.09h-2.575v-14.09
		h-1.512v14.09h-2.575V189.727z"/>
</g>
<g>
	<rect x="80.216" y="366.673" fill="#266279" width="142.488" height="7.199"/>
</g>
<g>
	<rect x="80.216" y="436.242" fill="#266279" width="142.488" height="7.199"/>
</g>
<g>
	<rect x="80.216" y="408.414" fill="#266279" width="142.488" height="7.199"/>
</g>
<g>
	<g>
		<polygon fill="#266279" points="223.677,60.569 361.748,60.569 361.748,67.769 223.677,67.769 227.825,64.169 		"/>
	</g>
	<g>
		<polygon fill="#266279" points="222.435,64.169 218.287,60.569 218.287,60.569 218.287,60.569 80.216,60.569 84.365,64.169 
			80.216,67.769 218.287,67.769 218.287,67.769 218.287,67.768 		"/>
	</g>
</g>
</svg>
