<?xml version="1.0" encoding="utf-8"?>
<!-- Generator: Adobe Illustrator 16.0.4, SVG Export Plug-In . SVG Version: 6.00 Build 0)  -->
<!DOCTYPE svg PUBLIC "-//W3C//DTD SVG 1.1//EN" "http://www.w3.org/Graphics/SVG/1.1/DTD/svg11.dtd">
<svg version="1.1" id="Layer_1" xmlns="http://www.w3.org/2000/svg" xmlns:xlink="http://www.w3.org/1999/xlink" x="0px" y="0px"
	 width="448.746px" height="616.436px" viewBox="0 0 448.746 616.436" enable-background="new 0 0 448.746 616.436"
	 xml:space="preserve">
<rect x="0.5" y="0.5" fill="#FFFFFF" stroke="#C68D06" stroke-miterlimit="10" width="447.746" height="615.436"/>
<g>
	<path fill="#C68D06" d="M339.682,570.633c0-7.98,4.201-13.896,10.151-13.896c2.87,0,4.796,0.875,6.195,1.961l-1.295,1.891
		c-1.33-1.051-2.625-1.682-4.971-1.682c-4.725,0-7.631,5.041-7.665,11.482c1.645-1.785,4.095-3.467,7.386-3.467
		c5.46,0,8.086,3.396,8.086,8.086c0,4.9-3.466,8.611-8.682,8.611C343.777,583.619,339.682,579.523,339.682,570.633z
		 M355.153,575.043c0-3.465-1.75-5.984-5.95-5.984c-2.87,0-5.426,1.609-7.001,3.814c0.525,6.021,3.36,8.611,6.791,8.611
		C352.703,581.484,355.153,579.139,355.153,575.043z"/>
	<path fill="#C68D06" d="M376.258,576.863h-12.461v-1.855l11.796-17.781h3.046v17.432h4.375v2.205h-4.375v6.266h-2.381V576.863z
		 M376.258,574.658v-14.525h-0.069l-9.592,14.525H376.258z"/>
	<path fill="#C68D06" d="M388.611,557.227h2.556l7.735,22.613h0.07l7.771-22.613h2.416l-9.102,26.008h-2.345L388.611,557.227z"/>
</g>
<g>
	<rect x="80.386" y="158.967" fill="#C0DDE7" width="281.739" height="7.199"/>
</g>
<g>
	<rect x="80.386" y="172.879" fill="#C0DDE7" width="281.738" height="7.199"/>
</g>
<g>
	<rect x="80.386" y="186.793" fill="#C0DDE7" width="281.739" height="7.201"/>
</g>
<g>
	<rect x="80.386" y="200.707" fill="#C0DDE7" width="281.739" height="7.199"/>
</g>
<g>
	<rect x="80.386" y="214.621" fill="#C0DDE7" width="281.739" height="7.199"/>
</g>
<g>
	<rect x="80.386" y="228.535" fill="#C0DDE7" width="281.739" height="7.199"/>
</g>
<g>
	<rect x="80.386" y="242.449" fill="#C0DDE7" width="281.738" height="7.199"/>
</g>
<g>
	<rect x="80.386" y="256.361" fill="#C0DDE7" width="281.738" height="7.201"/>
</g>
<g>
	<rect x="80.386" y="270.277" fill="#C0DDE7" width="281.739" height="7.199"/>
</g>
<g>
	<rect x="80.386" y="284.189" fill="#C0DDE7" width="281.738" height="7.201"/>
</g>
<g>
	<rect x="80.386" y="298.104" fill="#C0DDE7" width="281.739" height="7.201"/>
</g>
<g>
	<rect x="80.386" y="312.018" fill="#C0DDE7" width="281.739" height="7.201"/>
</g>
<g>
	<rect x="80.386" y="325.932" fill="#C0DDE7" width="281.739" height="7.199"/>
</g>
<g>
	<rect x="80.386" y="339.846" fill="#C0DDE7" width="281.738" height="7.199"/>
</g>
<g>
	<rect x="80.386" y="353.76" fill="#C0DDE7" width="281.739" height="7.199"/>
</g>
<g>
	<rect x="80.386" y="367.674" fill="#C0DDE7" width="281.739" height="7.199"/>
</g>
<g>
	<rect x="80.386" y="381.588" fill="#C0DDE7" width="281.739" height="7.199"/>
</g>
<g>
	<rect x="80.386" y="395.502" fill="#C0DDE7" width="281.739" height="7.199"/>
</g>
<g>
	<rect x="80.386" y="409.414" fill="#C0DDE7" width="281.738" height="7.199"/>
</g>
<g>
	<rect x="80.386" y="423.328" fill="#C0DDE7" width="281.739" height="7.201"/>
</g>
<g>
	<rect x="80.386" y="437.242" fill="#C0DDE7" width="281.738" height="7.199"/>
</g>
<g>
	<rect x="80.386" y="451.156" fill="#C0DDE7" width="281.739" height="7.199"/>
</g>
<g>
	<rect x="80.386" y="465.07" fill="#C0DDE7" width="281.738" height="7.199"/>
</g>
<g>
	<rect x="80.386" y="478.984" fill="#C0DDE7" width="281.739" height="7.199"/>
</g>
<g>
	<rect x="80.386" y="61.568" fill="#C0DDE7" width="281.739" height="7.201"/>
</g>
<g>
	<rect x="80.386" y="75.482" fill="#C0DDE7" width="281.738" height="7.201"/>
</g>
<g>
	<rect x="80.386" y="145.053" fill="#C0DDE7" width="281.738" height="7.199"/>
</g>
<g>
	<rect x="80.386" y="89.396" fill="#C0DDE7" width="281.739" height="7.199"/>
</g>
<g>
	<rect x="80.386" y="103.311" fill="#C0DDE7" width="281.738" height="7.199"/>
</g>
<g>
	<rect x="80.386" y="117.225" fill="#C0DDE7" width="281.738" height="7.199"/>
</g>
<g>
	<rect x="80.386" y="131.139" fill="#C0DDE7" width="281.738" height="7.199"/>
</g>
<g>
	<g>
		<path fill="#266279" d="M60.88,274.592h7.289v3.088h-1.797v10.859h3.706c0.097,0,0.193-0.027,0.286-0.084
			c0.094-0.057,0.176-0.129,0.247-0.219c0.071-0.09,0.129-0.188,0.174-0.291c0.045-0.105,0.067-0.207,0.067-0.305v-2.279h3.639
			v6.256H60.88v-3.078h1.763V277.68H60.88V274.592z"/>
	</g>
	<g>
		<g>
			<g>
				<polygon fill="#266279" points="218.664,291.391 80.593,291.391 80.593,284.191 218.664,284.191 222.812,287.791 				"/>
			</g>
			<g>
				<polygon fill="#266279" points="224.054,284.191 362.125,284.191 362.125,291.391 224.054,291.391 228.202,287.791 				"/>
			</g>
		</g>
		<g>
			<g>
				<polygon fill="#266279" points="218.664,305.305 80.593,305.305 80.593,298.105 218.664,298.105 222.812,301.705 				"/>
			</g>
			<g>
				<polygon fill="#266279" points="224.054,298.105 362.125,298.105 362.125,305.305 224.054,305.305 228.202,301.705 				"/>
			</g>
		</g>
		<g>
			<g>
				<polygon fill="#266279" points="218.664,374.873 80.593,374.873 80.593,367.674 218.664,367.674 222.812,371.273 				"/>
			</g>
			<g>
				<polygon fill="#266279" points="224.054,367.674 362.125,367.674 362.125,374.873 224.054,374.873 228.202,371.273 				"/>
			</g>
		</g>
		<g>
			<g>
				<polygon fill="#266279" points="218.664,319.219 80.593,319.219 80.593,312.02 218.664,312.02 222.812,315.619 				"/>
			</g>
			<g>
				<polygon fill="#266279" points="224.054,312.02 362.125,312.02 362.125,319.219 224.054,319.219 228.202,315.619 				"/>
			</g>
		</g>
		<g>
			<g>
				<polygon fill="#266279" points="218.664,333.133 80.593,333.133 80.593,325.934 218.664,325.934 222.812,329.533 				"/>
			</g>
			<g>
				<polygon fill="#266279" points="224.054,325.934 362.125,325.934 362.125,333.133 224.054,333.133 228.202,329.533 				"/>
			</g>
		</g>
		<g>
			<g>
				<polygon fill="#266279" points="218.664,347.047 80.593,347.047 80.593,339.846 218.664,339.846 222.812,343.445 				"/>
			</g>
			<g>
				<polygon fill="#266279" points="224.054,339.846 362.125,339.846 362.125,347.047 224.054,347.047 228.202,343.445 				"/>
			</g>
		</g>
		<g>
			<g>
				<polygon fill="#266279" points="218.664,360.961 80.593,360.961 80.593,353.76 218.664,353.76 222.812,357.359 				"/>
			</g>
			<g>
				<polygon fill="#266279" points="224.054,353.76 362.125,353.76 362.125,360.961 224.054,360.961 228.202,357.359 				"/>
			</g>
		</g>
	</g>
</g>
<g>
	<g>
		<path fill="#266279" d="M65.507,403.586c-0.771,0-1.509-0.105-2.212-0.314s-1.361-0.506-1.971-0.887
			c-0.61-0.383-1.165-0.842-1.662-1.377c-0.498-0.535-0.923-1.129-1.275-1.785c-0.352-0.654-0.625-1.357-0.82-2.105
			s-0.292-1.531-0.292-2.348s0.097-1.6,0.292-2.352c0.195-0.754,0.468-1.457,0.82-2.111c0.352-0.656,0.777-1.252,1.275-1.787
			c0.498-0.535,1.052-0.992,1.662-1.375c0.61-0.381,1.267-0.678,1.971-0.887c0.704-0.211,1.441-0.314,2.212-0.314
			s1.51,0.104,2.218,0.314c0.707,0.209,1.366,0.506,1.977,0.887c0.61,0.383,1.164,0.84,1.662,1.375
			c0.498,0.535,0.924,1.131,1.28,1.787c0.355,0.654,0.63,1.357,0.825,2.111c0.195,0.752,0.292,1.535,0.292,2.352
			c0,0.809-0.097,1.59-0.292,2.342s-0.47,1.457-0.825,2.111c-0.356,0.656-0.783,1.25-1.28,1.785
			c-0.498,0.535-1.052,0.994-1.662,1.377c-0.61,0.381-1.27,0.678-1.977,0.887C67.018,403.48,66.278,403.586,65.507,403.586z
			 M65.507,400.061c0.651,0,1.249-0.141,1.792-0.422c0.542-0.281,1.009-0.662,1.398-1.146c0.389-0.482,0.691-1.043,0.904-1.684
			c0.214-0.641,0.32-1.32,0.32-2.039c0-0.727-0.108-1.41-0.326-2.055s-0.522-1.207-0.916-1.689
			c-0.393-0.484-0.859-0.865-1.398-1.146s-1.13-0.42-1.774-0.42s-1.235,0.139-1.774,0.42s-1.003,0.662-1.393,1.146
			c-0.389,0.482-0.694,1.045-0.916,1.689c-0.221,0.645-0.331,1.328-0.331,2.055c0,0.719,0.11,1.398,0.331,2.039
			c0.221,0.641,0.526,1.201,0.916,1.684c0.389,0.484,0.854,0.865,1.393,1.146S64.863,400.061,65.507,400.061z"/>
	</g>
	<g>
		<g>
			<g>
				<polygon fill="#266279" points="218.664,402.701 80.593,402.701 80.593,395.502 218.664,395.502 222.812,399.102 				"/>
			</g>
			<g>
				<polygon fill="#266279" points="224.054,395.502 362.125,395.502 362.125,402.701 224.054,402.701 228.202,399.102 				"/>
			</g>
		</g>
		<g>
			<g>
				<polygon fill="#266279" points="218.664,416.615 80.593,416.615 80.593,409.416 218.664,409.416 222.812,413.016 				"/>
			</g>
			<g>
				<polygon fill="#266279" points="224.054,409.416 362.125,409.416 362.125,416.615 224.054,416.615 228.202,413.016 				"/>
			</g>
		</g>
		<g>
			<g>
				<polygon fill="#266279" points="218.664,486.184 80.593,486.184 80.593,478.984 218.664,478.984 222.812,482.584 				"/>
			</g>
			<g>
				<polygon fill="#266279" points="224.054,478.984 362.125,478.984 362.125,486.184 224.054,486.184 228.202,482.584 				"/>
			</g>
		</g>
		<g>
			<g>
				<polygon fill="#266279" points="218.664,430.529 80.593,430.529 80.593,423.33 218.664,423.33 222.812,426.93 				"/>
			</g>
			<g>
				<polygon fill="#266279" points="224.054,423.33 362.125,423.33 362.125,430.529 224.054,430.529 228.202,426.93 				"/>
			</g>
		</g>
		<g>
			<g>
				<polygon fill="#266279" points="218.664,444.443 80.593,444.443 80.593,437.244 218.664,437.244 222.812,440.844 				"/>
			</g>
			<g>
				<polygon fill="#266279" points="224.054,437.244 362.125,437.244 362.125,444.443 224.054,444.443 228.202,440.844 				"/>
			</g>
		</g>
		<g>
			<g>
				<polygon fill="#266279" points="218.664,458.357 80.593,458.357 80.593,451.156 218.664,451.156 222.812,454.756 				"/>
			</g>
			<g>
				<polygon fill="#266279" points="224.054,451.156 362.125,451.156 362.125,458.357 224.054,458.357 228.202,454.756 				"/>
			</g>
		</g>
		<g>
			<g>
				<polygon fill="#266279" points="218.664,472.271 80.593,472.271 80.593,465.07 218.664,465.07 222.812,468.67 				"/>
			</g>
			<g>
				<polygon fill="#266279" points="224.054,465.07 362.125,465.07 362.125,472.271 224.054,472.271 228.202,468.67 				"/>
			</g>
		</g>
	</g>
</g>
<g>
	<g>
		<g>
			<g>
				<polygon fill="#266279" points="218.664,68.77 80.593,68.77 80.593,61.568 218.664,61.568 222.812,65.17 				"/>
			</g>
			<g>
				<polygon fill="#266279" points="224.054,61.568 362.125,61.568 362.125,68.77 224.054,68.77 228.202,65.17 				"/>
			</g>
		</g>
		<g>
			<g>
				<polygon fill="#266279" points="218.664,152.252 80.593,152.252 80.593,145.053 218.664,145.053 222.812,148.652 				"/>
			</g>
			<g>
				<polygon fill="#266279" points="224.054,145.053 362.125,145.053 362.125,152.252 224.054,152.252 228.202,148.652 				"/>
			</g>
		</g>
		<g>
			<g>
				<polygon fill="#266279" points="218.664,96.598 80.593,96.598 80.593,89.398 218.664,89.398 222.812,92.996 				"/>
			</g>
			<g>
				<polygon fill="#266279" points="224.054,89.398 362.125,89.398 362.125,96.598 224.054,96.598 228.202,92.996 				"/>
			</g>
		</g>
		<g>
			<g>
				<polygon fill="#266279" points="218.664,82.682 80.593,82.682 80.593,75.482 218.664,75.482 222.812,79.082 				"/>
			</g>
			<g>
				<polygon fill="#266279" points="224.054,75.482 362.125,75.482 362.125,82.682 224.054,82.682 228.202,79.082 				"/>
			</g>
		</g>
		<g>
			<g>
				<polygon fill="#266279" points="218.664,110.512 80.593,110.512 80.593,103.312 218.664,103.312 222.812,106.91 				"/>
			</g>
			<g>
				<polygon fill="#266279" points="224.054,103.312 362.125,103.312 362.125,110.512 224.054,110.512 228.202,106.91 				"/>
			</g>
		</g>
		<g>
			<g>
				<polygon fill="#266279" points="218.664,124.424 80.593,124.424 80.593,117.225 218.664,117.225 222.812,120.824 				"/>
			</g>
			<g>
				<polygon fill="#266279" points="224.054,117.225 362.125,117.225 362.125,124.424 224.054,124.424 228.202,120.824 				"/>
			</g>
		</g>
		<g>
			<g>
				<polygon fill="#266279" points="218.664,138.338 80.593,138.338 80.593,131.139 218.664,131.139 222.812,134.738 				"/>
			</g>
			<g>
				<polygon fill="#266279" points="224.054,131.139 362.125,131.139 362.125,138.338 224.054,138.338 228.202,134.738 				"/>
			</g>
		</g>
	</g>
	<g>
		<path fill="#266279" d="M65.404,68.252c-0.771,0-1.509-0.105-2.212-0.314s-1.361-0.506-1.971-0.887
			c-0.61-0.383-1.165-0.842-1.662-1.377c-0.498-0.535-0.923-1.129-1.275-1.785c-0.352-0.654-0.625-1.357-0.82-2.105
			s-0.292-1.531-0.292-2.348s0.097-1.6,0.292-2.352c0.195-0.754,0.468-1.457,0.82-2.111c0.352-0.656,0.777-1.252,1.275-1.787
			c0.498-0.535,1.052-0.992,1.662-1.375c0.61-0.381,1.267-0.678,1.971-0.887c0.704-0.211,1.441-0.314,2.212-0.314
			s1.51,0.104,2.218,0.314c0.707,0.209,1.366,0.506,1.977,0.887c0.61,0.383,1.164,0.84,1.662,1.375
			c0.498,0.535,0.924,1.131,1.28,1.787c0.355,0.654,0.63,1.357,0.825,2.111c0.195,0.752,0.292,1.535,0.292,2.352
			c0,0.809-0.097,1.59-0.292,2.342s-0.47,1.457-0.825,2.111c-0.356,0.656-0.783,1.25-1.28,1.785
			c-0.498,0.535-1.052,0.994-1.662,1.377c-0.61,0.381-1.27,0.678-1.977,0.887C66.914,68.146,66.175,68.252,65.404,68.252z
			 M65.404,64.727c0.651,0,1.249-0.141,1.792-0.422c0.542-0.281,1.009-0.662,1.398-1.146c0.389-0.482,0.691-1.043,0.904-1.684
			c0.214-0.641,0.32-1.32,0.32-2.039c0-0.727-0.108-1.41-0.326-2.055s-0.522-1.207-0.916-1.689
			c-0.393-0.484-0.859-0.865-1.398-1.146s-1.13-0.42-1.774-0.42s-1.235,0.139-1.774,0.42s-1.003,0.662-1.393,1.146
			c-0.389,0.482-0.694,1.045-0.916,1.689c-0.221,0.645-0.331,1.328-0.331,2.055c0,0.719,0.11,1.398,0.331,2.039
			c0.221,0.641,0.526,1.201,0.916,1.684c0.389,0.484,0.854,0.865,1.393,1.146S64.76,64.727,65.404,64.727z"/>
	</g>
</g>
<g>
	<g>
		<path fill="#266279" d="M60.672,162.592h7.289v3.088h-1.797v10.859h3.706c0.097,0,0.193-0.027,0.286-0.084
			c0.094-0.057,0.176-0.129,0.247-0.219c0.071-0.09,0.129-0.188,0.174-0.291c0.045-0.105,0.067-0.207,0.067-0.305v-2.279h3.639
			v6.256H60.672v-3.078h1.763V165.68h-1.763V162.592z"/>
	</g>
	<g>
		<g>
			<g>
				<polygon fill="#266279" points="218.56,193.994 80.489,193.994 80.489,186.795 218.56,186.795 222.708,190.395 				"/>
			</g>
			<g>
				<polygon fill="#266279" points="223.95,186.795 362.021,186.795 362.021,193.994 223.95,193.994 228.098,190.395 				"/>
			</g>
		</g>
		<g>
			<g>
				<polygon fill="#266279" points="218.56,180.08 80.489,180.08 80.489,172.881 218.56,172.881 222.708,176.48 				"/>
			</g>
			<g>
				<polygon fill="#266279" points="223.95,172.881 362.021,172.881 362.021,180.08 223.95,180.08 228.098,176.48 				"/>
			</g>
		</g>
		<g>
			<g>
				<polygon fill="#266279" points="218.56,207.908 80.489,207.908 80.489,200.709 218.56,200.709 222.708,204.307 				"/>
			</g>
			<g>
				<polygon fill="#266279" points="223.95,200.709 362.021,200.709 362.021,207.908 223.95,207.908 228.098,204.307 				"/>
			</g>
		</g>
		<g>
			<g>
				<polygon fill="#266279" points="218.56,235.734 80.489,235.734 80.489,228.535 218.56,228.535 222.708,232.135 				"/>
			</g>
			<g>
				<polygon fill="#266279" points="223.95,228.535 362.021,228.535 362.021,235.734 223.95,235.734 228.098,232.135 				"/>
			</g>
		</g>
		<g>
			<g>
				<polygon fill="#266279" points="218.664,221.822 80.593,221.822 80.593,214.623 218.664,214.623 222.812,218.223 				"/>
			</g>
			<g>
				<polygon fill="#266279" points="224.054,214.623 362.125,214.623 362.125,221.822 224.054,221.822 228.202,218.223 				"/>
			</g>
		</g>
		<g>
			<g>
				<polygon fill="#266279" points="218.56,249.65 80.489,249.65 80.489,242.451 218.56,242.451 222.708,246.049 				"/>
			</g>
			<g>
				<polygon fill="#266279" points="223.95,242.451 362.021,242.451 362.021,249.65 223.95,249.65 228.098,246.049 				"/>
			</g>
		</g>
		<g>
			<g>
				<polygon fill="#266279" points="218.56,263.562 80.489,263.562 80.489,256.363 218.56,256.363 222.708,259.963 				"/>
			</g>
			<g>
				<polygon fill="#266279" points="223.95,256.363 362.021,256.363 362.021,263.562 223.95,263.562 228.098,259.963 				"/>
			</g>
		</g>
	</g>
</g>
</svg>
