<?xml version="1.0" encoding="utf-8"?>
<!-- Generator: Adobe Illustrator 16.0.4, SVG Export Plug-In . SVG Version: 6.00 Build 0)  -->
<!DOCTYPE svg PUBLIC "-//W3C//DTD SVG 1.1//EN" "http://www.w3.org/Graphics/SVG/1.1/DTD/svg11.dtd">
<svg version="1.1" id="Layer_1" xmlns="http://www.w3.org/2000/svg" xmlns:xlink="http://www.w3.org/1999/xlink" x="0px" y="0px"
	 width="448.746px" height="616.441px" viewBox="0 0 448.746 616.441" enable-background="new 0 0 448.746 616.441"
	 xml:space="preserve">
<rect x="0.5" y="0.5" fill="#FFFFFF" stroke="#C68D06" stroke-miterlimit="10" width="447.746" height="615.441"/>
<g>
	<path fill="#C68D06" d="M338.212,569.637c0-7.98,4.201-13.896,10.151-13.896c2.87,0,4.796,0.875,6.195,1.961l-1.295,1.891
		c-1.33-1.051-2.625-1.682-4.971-1.682c-4.726,0-7.631,5.041-7.665,11.482c1.645-1.785,4.095-3.467,7.386-3.467
		c5.46,0,8.086,3.396,8.086,8.086c0,4.9-3.466,8.611-8.682,8.611C342.308,582.623,338.212,578.527,338.212,569.637z
		 M353.684,574.047c0-3.465-1.75-5.984-5.95-5.984c-2.87,0-5.426,1.609-7.001,3.814c0.525,6.021,3.36,8.611,6.791,8.611
		C351.233,580.488,353.684,578.143,353.684,574.047z"/>
	<path fill="#C68D06" d="M374.788,575.867h-12.461v-1.855l11.796-17.781h3.046v17.432h4.375v2.205h-4.375v6.266h-2.381V575.867z
		 M374.788,573.662v-14.525h-0.069l-9.592,14.525H374.788z"/>
	<path fill="#C68D06" d="M389.207,556.23h8.681c5.776,0,8.996,2.451,8.996,7c0,4.201-2.45,6.301-6.195,7.002l6.546,11.9h-2.801
		l-6.336-11.621h-6.44v11.621h-2.45V556.23z M397.713,568.307c4.271,0,6.686-1.225,6.686-4.971c0-3.57-2.38-4.83-6.721-4.83h-6.021
		v9.801H397.713z"/>
</g>
<g>
	<rect x="80.22" y="157.967" fill="#C0DDE7" width="281.739" height="7.199"/>
</g>
<g>
	<rect x="80.22" y="171.881" fill="#C0DDE7" width="281.739" height="7.199"/>
</g>
<g>
	<rect x="80.22" y="185.795" fill="#C0DDE7" width="281.739" height="7.199"/>
</g>
<g>
	<rect x="80.22" y="199.709" fill="#C0DDE7" width="281.739" height="7.199"/>
</g>
<g>
	<rect x="80.22" y="213.623" fill="#C0DDE7" width="281.739" height="7.199"/>
</g>
<g>
	<rect x="80.22" y="227.535" fill="#C0DDE7" width="281.739" height="7.201"/>
</g>
<g>
	<rect x="80.22" y="241.451" fill="#C0DDE7" width="281.739" height="7.199"/>
</g>
<g>
	<rect x="80.22" y="255.363" fill="#C0DDE7" width="281.739" height="7.201"/>
</g>
<g>
	<rect x="80.22" y="269.277" fill="#C0DDE7" width="281.739" height="7.199"/>
</g>
<g>
	<rect x="80.22" y="283.191" fill="#C0DDE7" width="281.739" height="7.201"/>
</g>
<g>
	<rect x="80.22" y="297.105" fill="#C0DDE7" width="281.739" height="7.2"/>
</g>
<g>
	<rect x="80.22" y="311.02" fill="#C0DDE7" width="281.739" height="7.199"/>
</g>
<g>
	<rect x="80.22" y="324.934" fill="#C0DDE7" width="281.739" height="7.199"/>
</g>
<g>
	<rect x="80.22" y="338.848" fill="#C0DDE7" width="281.739" height="7.199"/>
</g>
<g>
	<rect x="80.22" y="352.76" fill="#C0DDE7" width="281.739" height="7.201"/>
</g>
<g>
	<rect x="80.22" y="366.674" fill="#C0DDE7" width="281.739" height="7.201"/>
</g>
<g>
	<rect x="80.22" y="380.589" fill="#C0DDE7" width="281.739" height="7.198"/>
</g>
<g>
	<rect x="80.22" y="394.502" fill="#C0DDE7" width="281.739" height="7.199"/>
</g>
<g>
	<rect x="80.22" y="408.416" fill="#C0DDE7" width="281.739" height="7.199"/>
</g>
<g>
	<rect x="80.22" y="422.33" fill="#C0DDE7" width="281.739" height="7.199"/>
</g>
<g>
	<rect x="80.22" y="436.244" fill="#C0DDE7" width="281.739" height="7.199"/>
</g>
<g>
	<rect x="80.22" y="450.158" fill="#C0DDE7" width="281.739" height="7.199"/>
</g>
<g>
	<rect x="80.22" y="464.072" fill="#C0DDE7" width="281.739" height="7.199"/>
</g>
<g>
	<rect x="80.22" y="477.984" fill="#C0DDE7" width="281.739" height="7.201"/>
</g>
<g>
	<rect x="80.22" y="60.57" fill="#C0DDE7" width="281.739" height="7.199"/>
</g>
<g>
	<rect x="80.22" y="74.484" fill="#C0DDE7" width="281.739" height="7.199"/>
</g>
<g>
	<rect x="80.22" y="144.053" fill="#C0DDE7" width="281.739" height="7.199"/>
</g>
<g>
	<rect x="80.22" y="88.398" fill="#C0DDE7" width="281.739" height="7.199"/>
</g>
<g>
	<rect x="80.22" y="102.312" fill="#C0DDE7" width="281.739" height="7.199"/>
</g>
<g>
	<rect x="80.22" y="116.227" fill="#C0DDE7" width="281.739" height="7.199"/>
</g>
<g>
	<rect x="80.22" y="130.141" fill="#C0DDE7" width="281.739" height="7.199"/>
</g>
<g>
	<polygon fill="#266279" points="218.497,60.57 80.427,60.57 84.575,64.17 80.427,67.77 218.497,67.77 218.498,67.77 
		218.498,67.768 218.498,60.57 	"/>
</g>
<g>
	<g>
		<g>
			<polygon fill="#266279" points="218.498,81.684 80.427,81.684 80.427,74.484 218.498,74.484 222.646,78.084 			"/>
		</g>
		<g>
			<polygon fill="#266279" points="223.888,74.484 361.958,74.484 361.958,81.684 223.888,81.684 228.036,78.084 			"/>
		</g>
	</g>
	<g>
		<g>
			<polygon fill="#266279" points="218.498,164.873 80.428,164.873 80.428,157.676 218.498,157.676 222.646,161.275 			"/>
		</g>
		<g>
			<polygon fill="#266279" points="223.889,157.676 361.959,157.676 361.959,164.873 223.889,164.873 228.037,161.275 			"/>
		</g>
	</g>
	<g>
		<g>
			<polygon fill="#266279" points="218.498,109.219 80.428,109.219 80.428,102.02 218.498,102.02 222.646,105.619 			"/>
		</g>
		<g>
			<polygon fill="#266279" points="223.889,102.02 361.959,102.02 361.959,109.219 223.889,109.219 228.037,105.619 			"/>
		</g>
	</g>
	<g>
		<g>
			<polygon fill="#266279" points="218.498,95.305 80.428,95.305 80.428,88.105 218.498,88.105 222.646,91.703 			"/>
		</g>
		<g>
			<polygon fill="#266279" points="223.889,88.105 361.959,88.105 361.959,95.305 223.889,95.305 228.037,91.703 			"/>
		</g>
	</g>
	<g>
		<g>
			<polygon fill="#266279" points="218.498,123.133 80.428,123.133 80.428,115.934 218.498,115.934 222.646,119.533 			"/>
		</g>
		<g>
			<polygon fill="#266279" points="223.889,115.934 361.959,115.934 361.959,123.133 223.889,123.133 228.037,119.533 			"/>
		</g>
	</g>
	<g>
		<g>
			<polygon fill="#266279" points="218.498,137.047 80.428,137.047 80.428,129.848 218.498,129.848 222.646,133.447 			"/>
		</g>
		<g>
			<polygon fill="#266279" points="223.889,129.848 361.959,129.848 361.959,137.047 223.889,137.047 228.037,133.447 			"/>
		</g>
	</g>
	<g>
		<g>
			<polygon fill="#266279" points="218.498,150.961 80.428,150.961 80.428,143.762 218.498,143.762 222.646,147.359 			"/>
		</g>
		<g>
			<polygon fill="#266279" points="223.889,143.762 361.959,143.762 361.959,150.961 223.889,150.961 228.037,147.359 			"/>
		</g>
	</g>
	<g>
		<rect x="80.324" y="171.588" fill="#266279" width="142.488" height="7.199"/>
	</g>
</g>
<g>
	<g>
		<path fill="#266279" d="M70.937,189.715c-0.451-0.123-0.876-0.305-1.274-0.545s-0.747-0.537-1.046-0.893
			c-0.299-0.354-0.536-0.764-0.712-1.23c-0.176-0.465-0.264-0.988-0.264-1.568c0-0.615,0.123-1.191,0.369-1.727
			c0.246-0.537,0.595-1.004,1.046-1.402s0.996-0.713,1.635-0.941s1.351-0.342,2.136-0.342h6.012v2.416h-1.239v14.09h-2.575v-14.09
			h-1.512v14.09h-2.575V189.715z"/>
	</g>
	<g>
		<g>
			<g>
				<polygon fill="#266279" points="218.498,193.289 80.427,193.289 80.427,186.09 218.498,186.09 222.646,189.689 				"/>
			</g>
			<g>
				<polygon fill="#266279" points="223.888,186.09 361.958,186.09 361.958,193.289 223.888,193.289 228.036,189.689 				"/>
			</g>
		</g>
		<g>
			<g>
				<polygon fill="#266279" points="218.498,276.479 80.428,276.479 80.428,269.281 218.498,269.281 222.646,272.881 				"/>
			</g>
			<g>
				<polygon fill="#266279" points="223.889,269.281 361.959,269.281 361.959,276.479 223.889,276.479 228.037,272.881 				"/>
			</g>
		</g>
		<g>
			<g>
				<polygon fill="#266279" points="218.498,220.824 80.428,220.824 80.428,213.625 218.498,213.625 222.646,217.225 				"/>
			</g>
			<g>
				<polygon fill="#266279" points="223.889,213.625 361.959,213.625 361.959,220.824 223.889,220.824 228.037,217.225 				"/>
			</g>
		</g>
		<g>
			<g>
				<polygon fill="#266279" points="218.498,206.91 80.428,206.91 80.428,199.711 218.498,199.711 222.646,203.309 				"/>
			</g>
			<g>
				<polygon fill="#266279" points="223.889,199.711 361.959,199.711 361.959,206.91 223.889,206.91 228.037,203.309 				"/>
			</g>
		</g>
		<g>
			<g>
				<polygon fill="#266279" points="218.498,234.738 80.428,234.738 80.428,227.539 218.498,227.539 222.646,231.139 				"/>
			</g>
			<g>
				<polygon fill="#266279" points="223.889,227.539 361.959,227.539 361.959,234.738 223.889,234.738 228.037,231.139 				"/>
			</g>
		</g>
		<g>
			<g>
				<polygon fill="#266279" points="218.498,248.652 80.428,248.652 80.428,241.453 218.498,241.453 222.646,245.053 				"/>
			</g>
			<g>
				<polygon fill="#266279" points="223.889,241.453 361.959,241.453 361.959,248.652 223.889,248.652 228.037,245.053 				"/>
			</g>
		</g>
		<g>
			<g>
				<polygon fill="#266279" points="218.498,262.566 80.428,262.566 80.428,255.367 218.498,255.367 222.646,258.965 				"/>
			</g>
			<g>
				<polygon fill="#266279" points="223.889,255.367 361.959,255.367 361.959,262.566 223.889,262.566 228.037,258.965 				"/>
			</g>
		</g>
		<g>
			<rect x="80.324" y="283.193" fill="#266279" width="142.488" height="7.199"/>
		</g>
	</g>
</g>
<g>
	<path fill="#266279" d="M70.937,301.023c-0.451-0.123-0.876-0.305-1.274-0.545s-0.747-0.537-1.046-0.893
		c-0.299-0.354-0.536-0.764-0.712-1.23c-0.176-0.465-0.264-0.988-0.264-1.568c0-0.615,0.123-1.191,0.369-1.727
		c0.246-0.537,0.595-1.004,1.046-1.402s0.996-0.712,1.635-0.94s1.351-0.343,2.136-0.343h6.012v2.417h-1.239v14.089h-2.575v-14.089
		h-1.512v14.089h-2.575V301.023z"/>
</g>
<g>
	<g>
		<polygon fill="#266279" points="218.498,304.598 80.427,304.598 80.427,297.398 218.498,297.398 222.646,300.998 		"/>
	</g>
	<g>
		<polygon fill="#266279" points="223.888,297.398 361.958,297.398 361.958,304.598 223.888,304.598 228.036,300.998 		"/>
	</g>
</g>
<g>
	<g>
		<polygon fill="#266279" points="218.498,387.787 80.428,387.787 80.428,380.59 218.498,380.59 222.646,384.189 		"/>
	</g>
	<g>
		<polygon fill="#266279" points="223.889,380.59 361.959,380.59 361.959,387.787 223.889,387.787 228.037,384.189 		"/>
	</g>
</g>
<g>
	<g>
		<polygon fill="#266279" points="218.498,332.133 80.428,332.133 80.428,324.934 218.498,324.934 222.646,328.533 		"/>
	</g>
	<g>
		<polygon fill="#266279" points="223.889,324.934 361.959,324.934 361.959,332.133 223.889,332.133 228.037,328.533 		"/>
	</g>
</g>
<g>
	<g>
		<polygon fill="#266279" points="218.498,318.219 80.428,318.219 80.428,311.02 218.498,311.02 222.646,314.617 		"/>
	</g>
	<g>
		<polygon fill="#266279" points="223.889,311.02 361.959,311.02 361.959,318.219 223.889,318.219 228.037,314.617 		"/>
	</g>
</g>
<g>
	<g>
		<polygon fill="#266279" points="218.498,346.047 80.428,346.047 80.428,338.848 218.498,338.848 222.646,342.447 		"/>
	</g>
	<g>
		<polygon fill="#266279" points="223.889,338.848 361.959,338.848 361.959,346.047 223.889,346.047 228.037,342.447 		"/>
	</g>
</g>
<g>
	<g>
		<polygon fill="#266279" points="218.498,359.961 80.428,359.961 80.428,352.762 218.498,352.762 222.646,356.361 		"/>
	</g>
	<g>
		<polygon fill="#266279" points="223.889,352.762 361.959,352.762 361.959,359.961 223.889,359.961 228.037,356.361 		"/>
	</g>
</g>
<g>
	<g>
		<polygon fill="#266279" points="218.498,373.875 80.428,373.875 80.428,366.676 218.498,366.676 222.646,370.273 		"/>
	</g>
	<g>
		<polygon fill="#266279" points="223.889,366.676 361.959,366.676 361.959,373.875 223.889,373.875 228.037,370.273 		"/>
	</g>
</g>
<g>
	<rect x="80.324" y="394.502" fill="#266279" width="142.488" height="7.199"/>
</g>
<g>
	<rect x="80.324" y="450.158" fill="#266279" width="142.488" height="7.199"/>
</g>
<g>
	<path fill="#266279" d="M70.937,410.023c-0.451-0.123-0.876-0.305-1.274-0.545s-0.747-0.537-1.046-0.893
		c-0.299-0.354-0.536-0.764-0.712-1.23c-0.176-0.465-0.264-0.988-0.264-1.568c0-0.615,0.123-1.191,0.369-1.727
		c0.246-0.537,0.595-1.004,1.046-1.402s0.996-0.712,1.635-0.94s1.351-0.343,2.136-0.343h6.012v2.417h-1.239v14.089h-2.575v-14.089
		h-1.512v14.089h-2.575V410.023z"/>
</g>
<g>
	<g>
		<polygon fill="#266279" points="218.498,415.615 80.427,415.615 80.427,408.416 218.498,408.416 222.646,412.016 		"/>
	</g>
	<g>
		<polygon fill="#266279" points="223.888,408.416 361.958,408.416 361.958,415.615 223.888,415.615 228.036,412.016 		"/>
	</g>
</g>
<g>
	<g>
		<polygon fill="#266279" points="218.498,443.15 80.428,443.15 80.428,435.951 218.498,435.951 222.646,439.551 		"/>
	</g>
	<g>
		<polygon fill="#266279" points="223.889,435.951 361.959,435.951 361.959,443.15 223.889,443.15 228.037,439.551 		"/>
	</g>
</g>
<g>
	<g>
		<polygon fill="#266279" points="218.498,429.236 80.428,429.236 80.428,422.037 218.498,422.037 222.646,425.635 		"/>
	</g>
	<g>
		<polygon fill="#266279" points="223.889,422.037 361.959,422.037 361.959,429.236 223.889,429.236 228.037,425.635 		"/>
	</g>
</g>
</svg>
