<?xml version="1.0" encoding="utf-8"?>
<!-- Generator: Adobe Illustrator 16.0.4, SVG Export Plug-In . SVG Version: 6.00 Build 0)  -->
<!DOCTYPE svg PUBLIC "-//W3C//DTD SVG 1.1//EN" "http://www.w3.org/Graphics/SVG/1.1/DTD/svg11.dtd">
<svg version="1.1" id="Layer_1" xmlns="http://www.w3.org/2000/svg" xmlns:xlink="http://www.w3.org/1999/xlink" x="0px" y="0px"
	 width="448.746px" height="616.436px" viewBox="0 0 448.746 616.436" enable-background="new 0 0 448.746 616.436"
	 xml:space="preserve">
<rect x="0.5" y="0.5" fill="#FFFFFF" stroke="#C68D06" stroke-miterlimit="10" width="447.746" height="615.436"/>
<g>
	<path fill="#C68D06" d="M338.819,569.633c0-7.98,4.201-13.896,10.151-13.896c2.87,0,4.796,0.875,6.195,1.961l-1.295,1.891
		c-1.33-1.051-2.625-1.682-4.971-1.682c-4.726,0-7.631,5.041-7.665,11.482c1.645-1.785,4.095-3.467,7.386-3.467
		c5.46,0,8.086,3.396,8.086,8.086c0,4.9-3.466,8.611-8.682,8.611C342.915,582.619,338.819,578.523,338.819,569.633z
		 M354.291,574.043c0-3.465-1.75-5.984-5.95-5.984c-2.87,0-5.426,1.609-7.001,3.814c0.525,6.021,3.36,8.611,6.791,8.611
		C351.841,580.484,354.291,578.139,354.291,574.043z"/>
	<path fill="#C68D06" d="M363.109,577.965l1.785-1.436c1.575,2.275,3.641,3.92,6.721,3.92c4.445,0,6.476-3.291,6.476-6.791
		c0-4.199-2.485-6.439-5.916-6.439c-2.66,0-4.48,1.189-5.915,3.254l-1.855-0.699l1.016-13.547h13.687l-0.211,2.275h-11.411
		l-0.7,8.996c1.261-1.471,2.976-2.416,5.741-2.416c4.69,0,8.016,3.291,8.016,8.471c0,5.182-3.396,9.066-8.891,9.066
		C367.905,582.619,364.859,580.729,363.109,577.965z"/>
	<path fill="#C68D06" d="M388.938,556.227h8.681c5.776,0,8.996,2.451,8.996,7c0,4.201-2.45,6.301-6.195,7.002l6.546,11.9h-2.801
		l-6.336-11.621h-6.44v11.621h-2.45V556.227z M397.444,568.303c4.271,0,6.686-1.225,6.686-4.971c0-3.57-2.38-4.83-6.721-4.83h-6.021
		v9.801H397.444z"/>
</g>
<g>
	<path fill="#266279" d="M69.906,258.949c-0.451-0.123-0.876-0.305-1.274-0.545s-0.747-0.537-1.046-0.893
		c-0.299-0.354-0.536-0.764-0.712-1.23c-0.176-0.465-0.264-0.988-0.264-1.568c0-0.615,0.123-1.191,0.369-1.727
		c0.246-0.537,0.595-1.004,1.046-1.402s0.996-0.712,1.635-0.94s1.351-0.343,2.136-0.343h6.012v2.417h-1.239v14.089h-2.575v-14.089
		h-1.512v14.089h-2.575V258.949z"/>
</g>
<g>
	<path fill="#266279" d="M69.906,342.949c-0.451-0.123-0.876-0.305-1.274-0.545s-0.747-0.537-1.046-0.893
		c-0.299-0.354-0.536-0.764-0.712-1.23c-0.176-0.465-0.264-0.988-0.264-1.568c0-0.615,0.123-1.191,0.369-1.727
		c0.246-0.537,0.595-1.004,1.046-1.402s0.996-0.712,1.635-0.94s1.351-0.343,2.136-0.343h6.012v2.417h-1.239v14.089h-2.575v-14.089
		h-1.512v14.089h-2.575V342.949z"/>
</g>
<g>
	<path fill="#266279" d="M69.906,427.449c-0.451-0.123-0.876-0.305-1.274-0.545s-0.747-0.537-1.046-0.893
		c-0.299-0.354-0.536-0.764-0.712-1.23c-0.176-0.465-0.264-0.988-0.264-1.568c0-0.615,0.123-1.191,0.369-1.727
		c0.246-0.537,0.595-1.004,1.046-1.402s0.996-0.712,1.635-0.94s1.351-0.343,2.136-0.343h6.012v2.417h-1.239v14.089h-2.575v-14.089
		h-1.512v14.089h-2.575V427.449z"/>
</g>
<g>
	<rect x="80.22" y="157.967" fill="#C0DDE7" width="281.739" height="7.199"/>
</g>
<g>
	<rect x="80.22" y="171.879" fill="#C0DDE7" width="281.738" height="7.199"/>
</g>
<g>
	<rect x="80.22" y="185.793" fill="#C0DDE7" width="281.739" height="7.201"/>
</g>
<g>
	<rect x="80.22" y="199.707" fill="#C0DDE7" width="281.739" height="7.199"/>
</g>
<g>
	<rect x="80.22" y="213.621" fill="#C0DDE7" width="281.739" height="7.199"/>
</g>
<g>
	<rect x="80.22" y="227.535" fill="#C0DDE7" width="281.739" height="7.199"/>
</g>
<g>
	<rect x="80.22" y="241.449" fill="#C0DDE7" width="281.738" height="7.199"/>
</g>
<g>
	<rect x="80.22" y="255.361" fill="#C0DDE7" width="281.738" height="7.201"/>
</g>
<g>
	<rect x="80.22" y="269.277" fill="#C0DDE7" width="281.739" height="7.199"/>
</g>
<g>
	<rect x="80.22" y="283.189" fill="#C0DDE7" width="281.738" height="7.201"/>
</g>
<g>
	<rect x="80.22" y="297.104" fill="#C0DDE7" width="281.739" height="7.201"/>
</g>
<g>
	<rect x="80.22" y="311.018" fill="#C0DDE7" width="281.739" height="7.201"/>
</g>
<g>
	<rect x="80.22" y="324.932" fill="#C0DDE7" width="281.739" height="7.199"/>
</g>
<g>
	<rect x="80.22" y="338.846" fill="#C0DDE7" width="281.738" height="7.199"/>
</g>
<g>
	<rect x="80.22" y="352.76" fill="#C0DDE7" width="281.739" height="7.199"/>
</g>
<g>
	<rect x="80.22" y="366.674" fill="#C0DDE7" width="281.739" height="7.199"/>
</g>
<g>
	<rect x="80.22" y="380.588" fill="#C0DDE7" width="281.739" height="7.199"/>
</g>
<g>
	<rect x="80.22" y="394.502" fill="#C0DDE7" width="281.739" height="7.199"/>
</g>
<g>
	<rect x="80.22" y="408.414" fill="#C0DDE7" width="281.738" height="7.199"/>
</g>
<g>
	<rect x="80.22" y="422.328" fill="#C0DDE7" width="281.739" height="7.201"/>
</g>
<g>
	<rect x="80.22" y="436.242" fill="#C0DDE7" width="281.738" height="7.199"/>
</g>
<g>
	<rect x="80.22" y="450.156" fill="#C0DDE7" width="281.739" height="7.199"/>
</g>
<g>
	<rect x="80.22" y="464.07" fill="#C0DDE7" width="281.738" height="7.199"/>
</g>
<g>
	<rect x="80.22" y="477.984" fill="#C0DDE7" width="281.739" height="7.199"/>
</g>
<g>
	<rect x="80.22" y="60.568" fill="#C0DDE7" width="281.739" height="7.201"/>
</g>
<g>
	<rect x="80.22" y="74.482" fill="#C0DDE7" width="281.738" height="7.201"/>
</g>
<g>
	<rect x="80.22" y="144.053" fill="#C0DDE7" width="281.738" height="7.199"/>
</g>
<g>
	<rect x="80.22" y="88.396" fill="#C0DDE7" width="281.739" height="7.199"/>
</g>
<g>
	<rect x="80.22" y="102.311" fill="#C0DDE7" width="281.738" height="7.199"/>
</g>
<g>
	<rect x="80.22" y="116.225" fill="#C0DDE7" width="281.738" height="7.199"/>
</g>
<g>
	<rect x="80.22" y="130.139" fill="#C0DDE7" width="281.738" height="7.199"/>
</g>
<g>
	<g>
		<polygon fill="#266279" points="218.498,290.391 80.427,290.391 80.427,283.191 218.498,283.191 222.646,286.791 		"/>
	</g>
	<g>
		<polygon fill="#266279" points="223.888,283.191 361.958,283.191 361.958,290.391 223.888,290.391 228.036,286.791 		"/>
	</g>
</g>
<g>
	<g>
		<polygon fill="#266279" points="218.498,276.477 80.427,276.477 80.427,269.277 218.498,269.277 222.646,272.877 		"/>
	</g>
	<g>
		<polygon fill="#266279" points="223.888,269.277 361.958,269.277 361.958,276.477 223.888,276.477 228.036,272.877 		"/>
	</g>
</g>
<g>
	<g>
		<polygon fill="#266279" points="218.498,304.305 80.427,304.305 80.427,297.105 218.498,297.105 222.646,300.705 		"/>
	</g>
	<g>
		<polygon fill="#266279" points="223.888,297.105 361.958,297.105 361.958,304.305 223.888,304.305 228.036,300.705 		"/>
	</g>
</g>
<g>
	<g>
		<polygon fill="#266279" points="218.498,373.873 80.427,373.873 80.427,366.674 218.498,366.674 222.646,370.273 		"/>
	</g>
	<g>
		<polygon fill="#266279" points="223.888,366.674 361.958,366.674 361.958,373.873 223.888,373.873 228.036,370.273 		"/>
	</g>
</g>
<g>
	<g>
		<polygon fill="#266279" points="218.498,318.219 80.427,318.219 80.427,311.02 218.498,311.02 222.646,314.619 		"/>
	</g>
	<g>
		<polygon fill="#266279" points="223.888,311.02 361.958,311.02 361.958,318.219 223.888,318.219 228.036,314.619 		"/>
	</g>
</g>
<g>
	<g>
		<polygon fill="#266279" points="218.498,332.133 80.427,332.133 80.427,324.934 218.498,324.934 222.646,328.533 		"/>
	</g>
	<g>
		<polygon fill="#266279" points="223.888,324.934 361.958,324.934 361.958,332.133 223.888,332.133 228.036,328.533 		"/>
	</g>
</g>
<g>
	<g>
		<polygon fill="#266279" points="218.498,346.047 80.427,346.047 80.427,338.846 218.498,338.846 222.646,342.445 		"/>
	</g>
	<g>
		<polygon fill="#266279" points="223.888,338.846 361.958,338.846 361.958,346.047 223.888,346.047 228.036,342.445 		"/>
	</g>
</g>
<g>
	<g>
		<polygon fill="#266279" points="218.498,359.961 80.427,359.961 80.427,352.76 218.498,352.76 222.646,356.359 		"/>
	</g>
	<g>
		<polygon fill="#266279" points="223.888,352.76 361.958,352.76 361.958,359.961 223.888,359.961 228.036,356.359 		"/>
	</g>
</g>
<g>
	<g>
		<polygon fill="#266279" points="218.498,401.701 80.427,401.701 80.427,394.502 218.498,394.502 222.646,398.102 		"/>
	</g>
	<g>
		<polygon fill="#266279" points="223.888,394.502 361.958,394.502 361.958,401.701 223.888,401.701 228.036,398.102 		"/>
	</g>
</g>
<g>
	<g>
		<polygon fill="#266279" points="218.498,415.615 80.427,415.615 80.427,408.416 218.498,408.416 222.646,412.016 		"/>
	</g>
	<g>
		<polygon fill="#266279" points="223.888,408.416 361.958,408.416 361.958,415.615 223.888,415.615 228.036,412.016 		"/>
	</g>
</g>
<g>
	<g>
		<polygon fill="#266279" points="218.498,387.787 80.427,387.787 80.427,380.588 218.498,380.588 222.646,384.188 		"/>
	</g>
	<g>
		<polygon fill="#266279" points="223.888,380.588 361.958,380.588 361.958,387.787 223.888,387.787 228.036,384.188 		"/>
	</g>
</g>
<g>
	<g>
		<polygon fill="#266279" points="218.498,429.529 80.427,429.529 80.427,422.33 218.498,422.33 222.646,425.93 		"/>
	</g>
	<g>
		<polygon fill="#266279" points="223.888,422.33 361.958,422.33 361.958,429.529 223.888,429.529 228.036,425.93 		"/>
	</g>
</g>
<g>
	<g>
		<polygon fill="#266279" points="218.498,443.443 80.427,443.443 80.427,436.244 218.498,436.244 222.646,439.844 		"/>
	</g>
	<g>
		<polygon fill="#266279" points="223.888,436.244 361.958,436.244 361.958,443.443 223.888,443.443 228.036,439.844 		"/>
	</g>
</g>
<g>
	<g>
		<polygon fill="#266279" points="218.498,457.357 80.427,457.357 80.427,450.156 218.498,450.156 222.646,453.756 		"/>
	</g>
	<g>
		<polygon fill="#266279" points="223.888,450.156 361.958,450.156 361.958,457.357 223.888,457.357 228.036,453.756 		"/>
	</g>
</g>
<g>
	<g>
		<polygon fill="#266279" points="218.498,471.271 80.427,471.271 80.427,464.07 218.498,464.07 222.646,467.67 		"/>
	</g>
	<g>
		<polygon fill="#266279" points="223.888,464.07 361.958,464.07 361.958,471.271 223.888,471.271 228.036,467.67 		"/>
	</g>
</g>
<g>
	<g>
		<polygon fill="#266279" points="218.498,485.184 80.427,485.184 80.427,477.982 218.498,477.982 222.646,481.582 		"/>
	</g>
	<g>
		<polygon fill="#266279" points="223.888,477.982 361.958,477.982 361.958,485.184 223.888,485.184 228.036,481.582 		"/>
	</g>
</g>
<g>
	<g>
		<g>
			<g>
				<polygon fill="#266279" points="218.498,67.77 80.427,67.77 80.427,60.568 218.498,60.568 222.646,64.17 				"/>
			</g>
			<g>
				<polygon fill="#266279" points="223.888,60.568 361.958,60.568 361.958,67.77 223.888,67.77 228.036,64.17 				"/>
			</g>
		</g>
		<g>
			<g>
				<polygon fill="#266279" points="218.498,151.252 80.427,151.252 80.427,144.053 218.498,144.053 222.646,147.652 				"/>
			</g>
			<g>
				<polygon fill="#266279" points="223.888,144.053 361.958,144.053 361.958,151.252 223.888,151.252 228.036,147.652 				"/>
			</g>
		</g>
		<g>
			<g>
				<polygon fill="#266279" points="218.498,95.598 80.427,95.598 80.427,88.398 218.498,88.398 222.646,91.996 				"/>
			</g>
			<g>
				<polygon fill="#266279" points="223.888,88.398 361.958,88.398 361.958,95.598 223.888,95.598 228.036,91.996 				"/>
			</g>
		</g>
		<g>
			<g>
				<polygon fill="#266279" points="218.498,81.682 80.427,81.682 80.427,74.482 218.498,74.482 222.646,78.082 				"/>
			</g>
			<g>
				<polygon fill="#266279" points="223.888,74.482 361.958,74.482 361.958,81.682 223.888,81.682 228.036,78.082 				"/>
			</g>
		</g>
		<g>
			<g>
				<polygon fill="#266279" points="218.498,109.512 80.427,109.512 80.427,102.312 218.498,102.312 222.646,105.91 				"/>
			</g>
			<g>
				<polygon fill="#266279" points="223.888,102.312 361.958,102.312 361.958,109.512 223.888,109.512 228.036,105.91 				"/>
			</g>
		</g>
		<g>
			<g>
				<polygon fill="#266279" points="218.498,123.424 80.427,123.424 80.427,116.225 218.498,116.225 222.646,119.824 				"/>
			</g>
			<g>
				<polygon fill="#266279" points="223.888,116.225 361.958,116.225 361.958,123.424 223.888,123.424 228.036,119.824 				"/>
			</g>
		</g>
		<g>
			<g>
				<polygon fill="#266279" points="218.498,137.338 80.427,137.338 80.427,130.139 218.498,130.139 222.646,133.738 				"/>
			</g>
			<g>
				<polygon fill="#266279" points="223.888,130.139 361.958,130.139 361.958,137.338 223.888,137.338 228.036,133.738 				"/>
			</g>
		</g>
	</g>
	<g>
		<path fill="#266279" d="M63.508,67.084c-0.958-0.194-1.844-0.552-2.656-1.072c-0.812-0.521-1.517-1.162-2.111-1.926
			c-0.596-0.764-1.06-1.627-1.393-2.589c-0.333-0.962-0.5-1.982-0.5-3.061c0-0.816,0.097-1.601,0.292-2.353
			c0.195-0.753,0.468-1.456,0.82-2.111s0.777-1.251,1.275-1.786c0.498-0.535,1.052-0.993,1.662-1.376
			c0.61-0.381,1.267-0.677,1.971-0.887s1.441-0.314,2.212-0.314s1.51,0.104,2.218,0.314c0.707,0.21,1.366,0.506,1.977,0.887
			c0.61,0.383,1.164,0.841,1.662,1.376c0.498,0.535,0.924,1.131,1.28,1.786c0.355,0.655,0.63,1.358,0.825,2.111
			c0.195,0.752,0.292,1.536,0.292,2.353c0,1.093-0.172,2.126-0.517,3.1s-0.822,1.846-1.432,2.616
			c-0.61,0.771-1.335,1.416-2.173,1.932c-0.838,0.518-1.748,0.861-2.729,1.033c0.232,0.098,0.462,0.204,0.69,0.32
			c0.229,0.116,0.459,0.225,0.691,0.326c0.232,0.101,0.462,0.187,0.691,0.258c0.228,0.071,0.462,0.11,0.702,0.118
			c0.232,0,0.458-0.03,0.679-0.09c0.221-0.06,0.421-0.153,0.601-0.28c0.18-0.128,0.335-0.293,0.466-0.494
			c0.131-0.203,0.219-0.449,0.264-0.742l2.504,1.247c-0.067,0.547-0.223,1.041-0.466,1.482c-0.243,0.441-0.556,0.819-0.938,1.134
			s-0.816,0.559-1.303,0.73s-1.003,0.258-1.55,0.258c-0.442,0-0.885-0.084-1.331-0.252c-0.445-0.169-0.876-0.353-1.291-0.551
			c-0.416-0.198-0.807-0.382-1.174-0.55c-0.367-0.169-0.689-0.253-0.966-0.253c-0.12,0-0.227-0.002-0.32-0.006
			c-0.093-0.004-0.185-0.004-0.275,0s-0.189,0.016-0.297,0.034c-0.109,0.019-0.234,0.054-0.376,0.106L63.508,67.084z M65.081,63.727
			c0.651,0,1.249-0.141,1.792-0.422c0.542-0.28,1.009-0.662,1.398-1.146c0.389-0.482,0.691-1.044,0.904-1.685
			c0.214-0.64,0.32-1.319,0.32-2.038c0-0.727-0.108-1.411-0.326-2.056c-0.217-0.644-0.522-1.207-0.916-1.689
			c-0.393-0.483-0.859-0.865-1.398-1.146c-0.539-0.281-1.13-0.421-1.774-0.421s-1.235,0.14-1.774,0.421
			c-0.539,0.28-1.003,0.662-1.393,1.146c-0.389,0.482-0.694,1.046-0.916,1.689c-0.221,0.645-0.331,1.329-0.331,2.056
			c0,0.719,0.11,1.398,0.331,2.038c0.221,0.641,0.526,1.202,0.916,1.685c0.389,0.483,0.854,0.865,1.393,1.146
			C63.845,63.586,64.437,63.727,65.081,63.727z"/>
	</g>
</g>
<g>
	<g>
		<path fill="#266279" d="M69.828,166.387c-0.038-0.262-0.129-0.509-0.275-0.74c-0.146-0.232-0.333-0.433-0.562-0.602
			c-0.228-0.168-0.486-0.301-0.774-0.398c-0.289-0.098-0.59-0.146-0.904-0.146c-0.285,0-0.55,0.03-0.797,0.09
			c-0.247,0.061-0.462,0.152-0.646,0.275c-0.183,0.124-0.329,0.283-0.438,0.478c-0.109,0.194-0.163,0.427-0.163,0.696
			c0,0.337,0.073,0.604,0.219,0.803c0.146,0.198,0.333,0.361,0.562,0.488c0.229,0.128,0.481,0.229,0.758,0.304
			s0.546,0.157,0.809,0.247l3.088,1.033c0.427,0.149,0.827,0.355,1.202,0.617c0.375,0.263,0.698,0.581,0.971,0.955
			c0.273,0.374,0.489,0.805,0.646,1.291c0.157,0.487,0.236,1.033,0.236,1.641c0,0.823-0.151,1.575-0.455,2.257
			c-0.303,0.682-0.728,1.266-1.274,1.752s-1.202,0.864-1.965,1.134s-1.61,0.404-2.538,0.404c-0.651,0-1.267-0.072-1.847-0.219
			c-0.581-0.146-1.11-0.357-1.589-0.635c-0.479-0.276-0.898-0.607-1.258-0.993s-0.64-0.822-0.842-1.309h-1.157v-3.38h4.065v0.695
			c0,0.338,0.054,0.648,0.163,0.933c0.109,0.284,0.271,0.531,0.489,0.741s0.49,0.372,0.82,0.488s0.715,0.174,1.157,0.174
			c0.674,0,1.187-0.155,1.539-0.466s0.528-0.743,0.528-1.297c0-0.284-0.062-0.522-0.185-0.713c-0.124-0.191-0.283-0.353-0.478-0.483
			s-0.412-0.241-0.651-0.331s-0.476-0.172-0.708-0.247l-2.572-0.831c-0.487-0.149-0.957-0.359-1.409-0.629
			c-0.453-0.27-0.854-0.606-1.202-1.011c-0.348-0.404-0.625-0.878-0.831-1.421c-0.206-0.543-0.309-1.162-0.309-1.858
			c0-0.809,0.15-1.529,0.449-2.162s0.719-1.166,1.258-1.6c0.539-0.435,1.179-0.764,1.92-0.988s1.554-0.338,2.437-0.338
			c0.696,0,1.34,0.081,1.932,0.242s1.121,0.376,1.589,0.646c0.468,0.27,0.865,0.578,1.19,0.927c0.326,0.348,0.575,0.709,0.747,1.084
			h1.123v3.391h-4.065V166.387z"/>
	</g>
	<g>
		<g>
			<g>
				<polygon fill="#266279" points="218.394,192.994 80.323,192.994 80.323,185.795 218.394,185.795 222.542,189.395 				"/>
			</g>
			<g>
				<polygon fill="#266279" points="223.784,185.795 361.854,185.795 361.854,192.994 223.784,192.994 227.932,189.395 				"/>
			</g>
		</g>
		<g>
			<g>
				<polygon fill="#266279" points="218.394,179.08 80.323,179.08 80.323,171.881 218.394,171.881 222.542,175.48 				"/>
			</g>
			<g>
				<polygon fill="#266279" points="223.784,171.881 361.854,171.881 361.854,179.08 223.784,179.08 227.932,175.48 				"/>
			</g>
		</g>
		<g>
			<g>
				<polygon fill="#266279" points="218.394,206.908 80.323,206.908 80.323,199.709 218.394,199.709 222.542,203.307 				"/>
			</g>
			<g>
				<polygon fill="#266279" points="223.784,199.709 361.854,199.709 361.854,206.908 223.784,206.908 227.932,203.307 				"/>
			</g>
		</g>
		<g>
			<g>
				<polygon fill="#266279" points="218.394,234.734 80.323,234.734 80.323,227.535 218.394,227.535 222.542,231.135 				"/>
			</g>
			<g>
				<polygon fill="#266279" points="223.784,227.535 361.854,227.535 361.854,234.734 223.784,234.734 227.932,231.135 				"/>
			</g>
		</g>
		<g>
			<g>
				<polygon fill="#266279" points="218.498,220.822 80.427,220.822 80.427,213.623 218.498,213.623 222.646,217.223 				"/>
			</g>
			<g>
				<polygon fill="#266279" points="223.888,213.623 361.958,213.623 361.958,220.822 223.888,220.822 228.036,217.223 				"/>
			</g>
		</g>
		<g>
			<g>
				<polygon fill="#266279" points="218.394,248.65 80.323,248.65 80.323,241.451 218.394,241.451 222.542,245.049 				"/>
			</g>
			<g>
				<polygon fill="#266279" points="223.784,241.451 361.854,241.451 361.854,248.65 223.784,248.65 227.932,245.049 				"/>
			</g>
		</g>
		<g>
			<g>
				<polygon fill="#266279" points="218.394,262.562 80.323,262.562 80.323,255.363 218.394,255.363 222.542,258.963 				"/>
			</g>
			<g>
				<polygon fill="#266279" points="223.784,255.363 361.854,255.363 361.854,262.562 223.784,262.562 227.932,258.963 				"/>
			</g>
		</g>
	</g>
</g>
<g>
	<g>
		<polygon fill="#266279" points="218.291,499.098 80.22,499.098 80.22,491.898 218.291,491.898 222.439,495.498 		"/>
	</g>
	<g>
		<polygon fill="#266279" points="223.681,491.898 227.829,495.498 223.681,499.098 357.604,499.098 361.752,495.498 
			357.604,491.898 		"/>
	</g>
</g>
</svg>
