<?xml version="1.0" encoding="utf-8"?>
<!-- Generator: Adobe Illustrator 16.0.4, SVG Export Plug-In . SVG Version: 6.00 Build 0)  -->
<!DOCTYPE svg PUBLIC "-//W3C//DTD SVG 1.1//EN" "http://www.w3.org/Graphics/SVG/1.1/DTD/svg11.dtd">
<svg version="1.1" id="Layer_1" xmlns="http://www.w3.org/2000/svg" xmlns:xlink="http://www.w3.org/1999/xlink" x="0px" y="0px"
	 width="448.746px" height="616.44px" viewBox="0 0 448.746 616.44" enable-background="new 0 0 448.746 616.44"
	 xml:space="preserve">
<rect x="0.5" y="0.5" fill="#FFFFFF" stroke="#C68D06" stroke-miterlimit="10" width="447.746" height="615.44"/>
<g>
	<path fill="#C68D06" d="M340.555,567.638c0-7.98,4.201-13.896,10.151-13.896c2.87,0,4.796,0.875,6.195,1.961l-1.295,1.891
		c-1.33-1.051-2.625-1.682-4.971-1.682c-4.725,0-7.631,5.041-7.665,11.482c1.645-1.785,4.095-3.467,7.386-3.467
		c5.46,0,8.086,3.396,8.086,8.086c0,4.9-3.466,8.611-8.682,8.611C344.651,580.624,340.555,576.528,340.555,567.638z
		 M356.027,572.048c0-3.465-1.75-5.984-5.95-5.984c-2.87,0-5.426,1.609-7.001,3.814c0.525,6.021,3.36,8.611,6.791,8.611
		C353.577,578.489,356.027,576.144,356.027,572.048z"/>
	<path fill="#C68D06" d="M364.845,575.97l1.785-1.436c1.575,2.275,3.641,3.92,6.721,3.92c4.445,0,6.476-3.291,6.476-6.791
		c0-4.199-2.485-6.439-5.916-6.439c-2.66,0-4.48,1.189-5.915,3.254l-1.855-0.699l1.016-13.547h13.686l-0.21,2.275H369.22
		l-0.699,8.996c1.26-1.471,2.975-2.416,5.74-2.416c4.69,0,8.016,3.291,8.016,8.471c0,5.182-3.396,9.066-8.891,9.066
		C369.64,580.624,366.595,578.733,364.845,575.97z"/>
	<path fill="#C68D06" d="M388.609,554.231h2.556l7.735,22.613h0.07l7.771-22.613h2.416l-9.102,26.008h-2.345L388.609,554.231z"/>
</g>
<g>
	<rect x="80.216" y="158.467" fill="#C0DDE7" width="281.738" height="7.199"/>
</g>
<g>
	<rect x="80.216" y="186.294" fill="#C0DDE7" width="281.738" height="7.2"/>
</g>
<g>
	<rect x="80.216" y="200.209" fill="#C0DDE7" width="281.738" height="7.199"/>
</g>
<g>
	<rect x="80.216" y="214.123" fill="#C0DDE7" width="281.738" height="7.199"/>
</g>
<g>
	<rect x="80.216" y="228.036" fill="#C0DDE7" width="281.738" height="7.199"/>
</g>
<g>
	<rect x="80.216" y="241.95" fill="#C0DDE7" width="281.738" height="7.199"/>
</g>
<g>
	<rect x="80.216" y="255.863" fill="#C0DDE7" width="281.738" height="7.2"/>
</g>
<g>
	<rect x="80.216" y="269.777" fill="#C0DDE7" width="281.738" height="7.199"/>
</g>
<g>
	<rect x="80.216" y="283.691" fill="#C0DDE7" width="281.738" height="7.2"/>
</g>
<g>
	<rect x="80.216" y="297.605" fill="#C0DDE7" width="281.738" height="7.199"/>
</g>
<g>
	<rect x="80.216" y="311.519" fill="#C0DDE7" width="281.738" height="7.2"/>
</g>
<g>
	<rect x="80.216" y="325.433" fill="#C0DDE7" width="281.738" height="7.199"/>
</g>
<g>
	<rect x="80.216" y="339.347" fill="#C0DDE7" width="281.738" height="7.199"/>
</g>
<g>
	<rect x="80.216" y="353.26" fill="#C0DDE7" width="281.738" height="7.201"/>
</g>
<g>
	<rect x="80.216" y="367.174" fill="#C0DDE7" width="281.738" height="7.2"/>
</g>
<g>
	<rect x="80.216" y="381.089" fill="#C0DDE7" width="281.738" height="7.198"/>
</g>
<g>
	<rect x="80.216" y="395.002" fill="#C0DDE7" width="281.738" height="7.199"/>
</g>
<g>
	<rect x="80.216" y="408.916" fill="#C0DDE7" width="281.738" height="7.199"/>
</g>
<g>
	<rect x="80.216" y="422.829" fill="#C0DDE7" width="281.738" height="7.2"/>
</g>
<g>
	<rect x="80.216" y="436.743" fill="#C0DDE7" width="281.738" height="7.2"/>
</g>
<g>
	<rect x="80.216" y="450.657" fill="#C0DDE7" width="281.738" height="7.2"/>
</g>
<g>
	<rect x="80.216" y="464.571" fill="#C0DDE7" width="281.738" height="7.199"/>
</g>
<g>
	<rect x="80.216" y="478.484" fill="#C0DDE7" width="281.738" height="7.2"/>
</g>
<g>
	<rect x="80.216" y="61.069" fill="#C0DDE7" width="281.738" height="7.2"/>
</g>
<g>
	<rect x="80.216" y="74.983" fill="#C0DDE7" width="281.738" height="7.2"/>
</g>
<g>
	<rect x="80.216" y="144.553" fill="#C0DDE7" width="281.738" height="7.2"/>
</g>
<g>
	<rect x="80.216" y="172.38" fill="#C0DDE7" width="281.738" height="7.2"/>
</g>
<g>
	<rect x="80.216" y="88.897" fill="#C0DDE7" width="281.738" height="7.199"/>
</g>
<g>
	<rect x="80.216" y="102.812" fill="#C0DDE7" width="281.738" height="7.2"/>
</g>
<g>
	<rect x="80.216" y="116.726" fill="#C0DDE7" width="281.738" height="7.199"/>
</g>
<g>
	<rect x="80.216" y="130.641" fill="#C0DDE7" width="281.738" height="7.197"/>
</g>
<g>
	<rect x="80.216" y="158.467" fill="#C0DDE7" width="281.738" height="7.2"/>
</g>
<g>
	<g>
		<polygon fill="#266279" points="218.493,151.752 80.423,151.752 80.423,144.554 218.493,144.554 222.641,148.153 		"/>
	</g>
	<g>
		<polygon fill="#266279" points="223.883,144.554 361.955,144.554 361.955,151.752 223.883,151.752 228.032,148.153 		"/>
	</g>
</g>
<g>
	<g>
		<polygon fill="#266279" points="218.493,165.667 80.423,165.667 80.423,158.469 218.493,158.469 222.641,162.068 		"/>
	</g>
	<g>
		<polygon fill="#266279" points="223.883,158.469 361.955,158.469 361.955,165.667 223.883,165.667 228.032,162.068 		"/>
	</g>
</g>
<g>
	<g>
		<polygon fill="#266279" points="218.493,96.098 80.423,96.098 80.423,88.898 218.493,88.898 222.641,92.498 		"/>
	</g>
	<g>
		<polygon fill="#266279" points="223.883,88.898 361.955,88.898 361.955,96.098 223.883,96.098 228.032,92.498 		"/>
	</g>
</g>
<g>
	<g>
		<polygon fill="#266279" points="218.493,82.183 80.423,82.183 80.423,74.983 218.493,74.983 222.641,78.582 		"/>
	</g>
	<g>
		<polygon fill="#266279" points="223.883,74.983 361.955,74.983 361.955,82.183 223.883,82.183 228.032,78.582 		"/>
	</g>
</g>
<g>
	<g>
		<polygon fill="#266279" points="218.493,110.012 80.423,110.012 80.423,102.812 218.493,102.812 222.641,106.411 		"/>
	</g>
	<g>
		<polygon fill="#266279" points="223.883,102.812 361.955,102.812 361.955,110.012 223.883,110.012 228.032,106.411 		"/>
	</g>
</g>
<g>
	<g>
		<polygon fill="#266279" points="218.493,123.925 80.423,123.925 80.423,116.726 218.493,116.726 222.641,120.325 		"/>
	</g>
	<g>
		<polygon fill="#266279" points="223.883,116.726 361.955,116.726 361.955,123.925 223.883,123.925 228.032,120.325 		"/>
	</g>
</g>
<g>
	<g>
		<polygon fill="#266279" points="218.493,137.839 80.423,137.839 80.423,130.64 218.493,130.64 222.641,134.238 		"/>
	</g>
	<g>
		<polygon fill="#266279" points="223.883,130.64 361.955,130.64 361.955,137.839 223.883,137.839 228.032,134.238 		"/>
	</g>
</g>
<g>
	<path fill="#266279" d="M49.282,190.287h1.583v-10.86h-1.583v-3.088h7.008l5.02,12.286l4.661-12.286h7.109v3.088h-1.583v10.86
		h1.561v3.077h-6.368v-3.077h1.168v-9.793l-5.099,12.668h-3.156l-5.188-12.331v9.456h1.269v3.077h-6.401V190.287z"/>
</g>
<g>
	<path fill="#266279" d="M69.791,441.37c-0.451-0.123-0.876-0.305-1.274-0.545s-0.747-0.537-1.046-0.893
		c-0.299-0.354-0.536-0.764-0.712-1.23c-0.176-0.465-0.264-0.988-0.264-1.568c0-0.615,0.123-1.191,0.369-1.727
		c0.246-0.537,0.595-1.004,1.046-1.402s0.996-0.712,1.635-0.94s1.351-0.343,2.136-0.343h6.012v2.417h-1.239v14.089h-2.575v-14.089
		h-1.512v14.089h-2.575V441.37z"/>
</g>
<g>
	<g>
		<path fill="#266279" d="M219.726,218.427c-0.451-0.123-0.876-0.305-1.274-0.545s-0.747-0.537-1.046-0.893
			c-0.299-0.354-0.536-0.764-0.712-1.23c-0.176-0.465-0.264-0.988-0.264-1.568c0-0.615,0.123-1.191,0.369-1.727
			c0.246-0.537,0.595-1.004,1.046-1.402s0.996-0.712,1.635-0.94s1.351-0.343,2.136-0.343h6.012v2.417h-1.239v14.089h-2.575v-14.089
			h-1.512v14.089h-2.575V218.427z"/>
	</g>
	<g>
		<path fill="#266279" d="M69.791,273.536c-0.451-0.123-0.876-0.305-1.274-0.545s-0.747-0.537-1.046-0.893
			c-0.299-0.354-0.536-0.764-0.712-1.23c-0.176-0.465-0.264-0.988-0.264-1.568c0-0.615,0.123-1.191,0.369-1.727
			c0.246-0.537,0.595-1.004,1.046-1.402s0.996-0.712,1.635-0.94s1.351-0.343,2.136-0.343h6.012v2.417h-1.239v14.089h-2.575v-14.089
			h-1.512v14.089h-2.575V273.536z"/>
	</g>
	<g>
		<path fill="#266279" d="M69.791,357.036c-0.451-0.123-0.876-0.305-1.274-0.545s-0.747-0.537-1.046-0.893
			c-0.299-0.354-0.536-0.764-0.712-1.23c-0.176-0.465-0.264-0.988-0.264-1.568c0-0.615,0.123-1.191,0.369-1.727
			c0.246-0.537,0.595-1.004,1.046-1.402s0.996-0.712,1.635-0.94s1.351-0.343,2.136-0.343h6.012v2.417h-1.239v14.089h-2.575v-14.089
			h-1.512v14.089h-2.575V357.036z"/>
	</g>
	<g>
		<path fill="#266279" d="M219.726,385.536c-0.451-0.123-0.876-0.305-1.274-0.545s-0.747-0.537-1.046-0.893
			c-0.299-0.354-0.536-0.764-0.712-1.23c-0.176-0.465-0.264-0.988-0.264-1.568c0-0.615,0.123-1.191,0.369-1.727
			c0.246-0.537,0.595-1.004,1.046-1.402s0.996-0.712,1.635-0.94s1.351-0.343,2.136-0.343h6.012v2.417h-1.239v14.089h-2.575v-14.089
			h-1.512v14.089h-2.575V385.536z"/>
	</g>
	<g>
		<path fill="#266279" d="M219.726,301.703c-0.451-0.123-0.876-0.305-1.274-0.545s-0.747-0.537-1.046-0.893
			c-0.299-0.354-0.536-0.764-0.712-1.23c-0.176-0.465-0.264-0.988-0.264-1.568c0-0.615,0.123-1.191,0.369-1.727
			c0.246-0.537,0.595-1.004,1.046-1.402s0.996-0.712,1.635-0.94s1.351-0.343,2.136-0.343h6.012v2.417h-1.239v14.089h-2.575v-14.089
			h-1.512v14.089h-2.575V301.703z"/>
	</g>
	<g>
		<g>
			<rect x="230.027" y="186.294" fill="#266279" width="131.928" height="7.2"/>
		</g>
		<g>
			<rect x="80.216" y="186.294" fill="#266279" width="131.928" height="7.2"/>
		</g>
	</g>
	<g>
		<g>
			<rect x="230.027" y="200.208" fill="#266279" width="131.928" height="7.2"/>
		</g>
		<g>
			<rect x="80.216" y="200.208" fill="#266279" width="131.928" height="7.2"/>
		</g>
	</g>
	<g>
		<g>
			<rect x="230.027" y="214.122" fill="#266279" width="131.928" height="7.2"/>
		</g>
		<g>
			<rect x="80.216" y="214.122" fill="#266279" width="131.928" height="7.2"/>
		</g>
	</g>
	<g>
		<g>
			<rect x="230.027" y="228.035" fill="#266279" width="131.928" height="7.2"/>
		</g>
		<g>
			<rect x="80.216" y="228.035" fill="#266279" width="131.928" height="7.2"/>
		</g>
	</g>
	<g>
		<g>
			<rect x="230.027" y="241.949" fill="#266279" width="131.928" height="7.2"/>
		</g>
		<g>
			<rect x="80.216" y="241.949" fill="#266279" width="131.928" height="7.2"/>
		</g>
	</g>
	<g>
		<g>
			<rect x="230.027" y="255.862" fill="#266279" width="131.928" height="7.2"/>
		</g>
		<g>
			<rect x="80.216" y="255.862" fill="#266279" width="131.928" height="7.2"/>
		</g>
	</g>
	<g>
		<g>
			<rect x="230.027" y="269.777" fill="#266279" width="131.928" height="7.2"/>
		</g>
		<g>
			<rect x="80.216" y="269.777" fill="#266279" width="131.928" height="7.2"/>
		</g>
	</g>
	<g>
		<g>
			<rect x="230.027" y="283.69" fill="#266279" width="131.928" height="7.2"/>
		</g>
		<g>
			<rect x="80.216" y="283.69" fill="#266279" width="131.928" height="7.2"/>
		</g>
	</g>
	<g>
		<g>
			<rect x="230.027" y="297.604" fill="#266279" width="131.928" height="7.2"/>
		</g>
		<g>
			<rect x="80.216" y="297.604" fill="#266279" width="131.928" height="7.2"/>
		</g>
	</g>
	<g>
		<g>
			<rect x="230.027" y="311.519" fill="#266279" width="131.928" height="7.2"/>
		</g>
		<g>
			<rect x="80.216" y="311.519" fill="#266279" width="131.928" height="7.2"/>
		</g>
	</g>
	<g>
		<g>
			<rect x="230.027" y="325.433" fill="#266279" width="131.928" height="7.2"/>
		</g>
		<g>
			<rect x="80.216" y="325.433" fill="#266279" width="131.928" height="7.2"/>
		</g>
	</g>
	<g>
		<g>
			<rect x="230.027" y="339.346" fill="#266279" width="131.928" height="7.2"/>
		</g>
		<g>
			<rect x="80.216" y="339.346" fill="#266279" width="131.928" height="7.2"/>
		</g>
	</g>
	<g>
		<g>
			<rect x="230.027" y="353.26" fill="#266279" width="131.928" height="7.2"/>
		</g>
		<g>
			<rect x="80.216" y="353.26" fill="#266279" width="131.928" height="7.2"/>
		</g>
	</g>
	<g>
		<g>
			<rect x="230.027" y="367.174" fill="#266279" width="131.928" height="7.2"/>
		</g>
		<g>
			<rect x="80.216" y="367.174" fill="#266279" width="131.928" height="7.2"/>
		</g>
	</g>
	<g>
		<g>
			<rect x="230.027" y="381.089" fill="#266279" width="131.928" height="7.199"/>
		</g>
		<g>
			<rect x="80.216" y="381.089" fill="#266279" width="131.928" height="7.199"/>
		</g>
	</g>
	<g>
		<g>
			<rect x="230.027" y="395.001" fill="#266279" width="131.928" height="7.2"/>
		</g>
		<g>
			<rect x="80.216" y="395.001" fill="#266279" width="131.928" height="7.2"/>
		</g>
	</g>
	<g>
		<g>
			<rect x="230.027" y="408.915" fill="#266279" width="131.928" height="7.2"/>
		</g>
		<g>
			<rect x="80.216" y="408.915" fill="#266279" width="131.928" height="7.2"/>
		</g>
	</g>
	<g>
		<g>
			<rect x="230.027" y="422.829" fill="#266279" width="131.928" height="7.2"/>
		</g>
		<g>
			<rect x="80.216" y="422.829" fill="#266279" width="131.928" height="7.2"/>
		</g>
	</g>
</g>
<g>
	<g>
		<rect x="230.027" y="436.743" fill="#266279" width="131.928" height="7.2"/>
	</g>
	<g>
		<rect x="80.216" y="436.743" fill="#266279" width="131.928" height="7.2"/>
	</g>
</g>
<g>
	<g>
		<rect x="230.027" y="450.657" fill="#266279" width="131.928" height="7.2"/>
	</g>
	<g>
		<rect x="80.216" y="450.657" fill="#266279" width="131.928" height="7.2"/>
	</g>
</g>
<g>
	<g>
		<rect x="230.027" y="464.57" fill="#266279" width="131.928" height="7.2"/>
	</g>
	<g>
		<rect x="80.216" y="464.57" fill="#266279" width="131.928" height="7.2"/>
	</g>
</g>
<g>
	<g>
		<rect x="230.027" y="478.484" fill="#266279" width="131.928" height="7.2"/>
	</g>
	<g>
		<rect x="80.216" y="478.484" fill="#266279" width="131.928" height="7.2"/>
	</g>
</g>
<g>
	<g>
		<polygon fill="#266279" points="218.287,68.27 80.216,68.27 80.216,61.07 218.287,61.07 222.435,64.67 		"/>
	</g>
	<g>
		<polygon fill="#266279" points="223.677,61.07 227.825,64.67 223.677,68.27 357.6,68.27 361.748,64.67 357.6,61.07 		"/>
	</g>
</g>
</svg>
