<?xml version="1.0" encoding="utf-8"?>
<!-- Generator: Adobe Illustrator 16.0.4, SVG Export Plug-In . SVG Version: 6.00 Build 0)  -->
<!DOCTYPE svg PUBLIC "-//W3C//DTD SVG 1.1//EN" "http://www.w3.org/Graphics/SVG/1.1/DTD/svg11.dtd">
<svg version="1.1" id="Layer_1" xmlns="http://www.w3.org/2000/svg" xmlns:xlink="http://www.w3.org/1999/xlink" x="0px" y="0px"
	 width="448.746px" height="616.44px" viewBox="0 0 448.746 616.44" enable-background="new 0 0 448.746 616.44"
	 xml:space="preserve">
<rect x="0.5" y="0.5" fill="#FFFFFF" stroke="#C68D06" stroke-miterlimit="10" width="447.746" height="615.44"/>
<g>
	<path fill="#C68D06" d="M339.505,567.638c0-7.98,4.201-13.896,10.151-13.896c2.87,0,4.796,0.875,6.195,1.961l-1.295,1.891
		c-1.33-1.051-2.625-1.682-4.971-1.682c-4.726,0-7.631,5.041-7.665,11.482c1.645-1.785,4.095-3.467,7.386-3.467
		c5.46,0,8.086,3.396,8.086,8.086c0,4.9-3.466,8.611-8.682,8.611C343.601,580.624,339.505,576.528,339.505,567.638z
		 M354.977,572.048c0-3.465-1.75-5.984-5.95-5.984c-2.87,0-5.426,1.609-7.001,3.814c0.525,6.021,3.36,8.611,6.791,8.611
		C352.527,578.489,354.977,576.144,354.977,572.048z"/>
	<path fill="#C68D06" d="M364.39,567.638c0-7.98,4.201-13.896,10.151-13.896c2.87,0,4.796,0.875,6.195,1.961l-1.295,1.891
		c-1.33-1.051-2.625-1.682-4.971-1.682c-4.726,0-7.631,5.041-7.665,11.482c1.645-1.785,4.095-3.467,7.386-3.467
		c5.46,0,8.086,3.396,8.086,8.086c0,4.9-3.466,8.611-8.682,8.611C368.486,580.624,364.39,576.528,364.39,567.638z M379.862,572.048
		c0-3.465-1.75-5.984-5.95-5.984c-2.87,0-5.426,1.609-7.001,3.814c0.525,6.021,3.36,8.611,6.791,8.611
		C377.412,578.489,379.862,576.144,379.862,572.048z"/>
	<path fill="#C68D06" d="M388.61,554.231h2.556l7.735,22.613h0.07l7.771-22.613h2.416l-9.102,26.008h-2.345L388.61,554.231z"/>
</g>
<g>
	<rect x="79.374" y="158.218" fill="#C0DDE7" width="281.739" height="7.199"/>
</g>
<g>
	<rect x="79.375" y="172.13" fill="#C0DDE7" width="281.738" height="7.199"/>
</g>
<g>
	<rect x="79.374" y="186.044" fill="#C0DDE7" width="281.739" height="7.201"/>
</g>
<g>
	<rect x="79.374" y="199.958" fill="#C0DDE7" width="281.739" height="7.199"/>
</g>
<g>
	<rect x="79.374" y="213.872" fill="#C0DDE7" width="281.739" height="7.199"/>
</g>
<g>
	<rect x="79.374" y="227.786" fill="#C0DDE7" width="281.739" height="7.199"/>
</g>
<g>
	<rect x="79.375" y="241.7" fill="#C0DDE7" width="281.738" height="7.199"/>
</g>
<g>
	<rect x="79.375" y="255.612" fill="#C0DDE7" width="281.738" height="7.201"/>
</g>
<g>
	<rect x="79.374" y="269.528" fill="#C0DDE7" width="281.739" height="7.199"/>
</g>
<g>
	<rect x="79.375" y="283.44" fill="#C0DDE7" width="281.738" height="7.201"/>
</g>
<g>
	<rect x="79.374" y="297.354" fill="#C0DDE7" width="281.739" height="7.201"/>
</g>
<g>
	<rect x="79.374" y="311.269" fill="#C0DDE7" width="281.739" height="7.201"/>
</g>
<g>
	<rect x="79.374" y="325.183" fill="#C0DDE7" width="281.739" height="7.199"/>
</g>
<g>
	<rect x="79.375" y="339.097" fill="#C0DDE7" width="281.738" height="7.199"/>
</g>
<g>
	<rect x="79.374" y="353.011" fill="#C0DDE7" width="281.739" height="7.199"/>
</g>
<g>
	<rect x="79.374" y="366.925" fill="#C0DDE7" width="281.739" height="7.199"/>
</g>
<g>
	<rect x="79.374" y="380.839" fill="#C0DDE7" width="281.739" height="7.199"/>
</g>
<g>
	<rect x="79.374" y="394.753" fill="#C0DDE7" width="281.739" height="7.199"/>
</g>
<g>
	<rect x="79.375" y="408.665" fill="#C0DDE7" width="281.738" height="7.199"/>
</g>
<g>
	<rect x="79.374" y="422.579" fill="#C0DDE7" width="281.739" height="7.201"/>
</g>
<g>
	<rect x="79.375" y="436.493" fill="#C0DDE7" width="281.738" height="7.199"/>
</g>
<g>
	<rect x="79.374" y="450.407" fill="#C0DDE7" width="281.739" height="7.199"/>
</g>
<g>
	<rect x="79.375" y="464.321" fill="#C0DDE7" width="281.738" height="7.199"/>
</g>
<g>
	<rect x="79.374" y="478.235" fill="#C0DDE7" width="281.739" height="7.199"/>
</g>
<g>
	<rect x="79.374" y="60.819" fill="#C0DDE7" width="281.739" height="7.201"/>
</g>
<g>
	<rect x="79.375" y="74.733" fill="#C0DDE7" width="281.738" height="7.201"/>
</g>
<g>
	<rect x="79.375" y="144.304" fill="#C0DDE7" width="281.738" height="7.199"/>
</g>
<g>
	<rect x="79.374" y="88.647" fill="#C0DDE7" width="281.739" height="7.199"/>
</g>
<g>
	<rect x="79.375" y="102.562" fill="#C0DDE7" width="281.738" height="7.199"/>
</g>
<g>
	<rect x="79.375" y="116.476" fill="#C0DDE7" width="281.738" height="7.199"/>
</g>
<g>
	<rect x="79.375" y="130.39" fill="#C0DDE7" width="281.738" height="7.199"/>
</g>
<g>
	<g>
		<g>
			<path fill="#266279" d="M62.767,291.003c-0.958-0.194-1.844-0.552-2.656-1.072c-0.812-0.521-1.517-1.162-2.111-1.926
				c-0.596-0.764-1.06-1.627-1.393-2.589c-0.333-0.962-0.5-1.982-0.5-3.061c0-0.816,0.097-1.601,0.292-2.353
				c0.195-0.753,0.468-1.456,0.82-2.111s0.777-1.251,1.275-1.786c0.498-0.535,1.052-0.993,1.662-1.376
				c0.61-0.381,1.267-0.677,1.971-0.887s1.441-0.314,2.212-0.314s1.51,0.104,2.218,0.314c0.707,0.21,1.366,0.506,1.977,0.887
				c0.61,0.383,1.164,0.841,1.662,1.376c0.498,0.535,0.924,1.131,1.28,1.786c0.355,0.655,0.63,1.358,0.825,2.111
				c0.195,0.752,0.292,1.536,0.292,2.353c0,1.093-0.172,2.126-0.517,3.1s-0.822,1.846-1.432,2.616
				c-0.61,0.771-1.335,1.416-2.173,1.932c-0.838,0.518-1.748,0.861-2.729,1.033c0.232,0.098,0.462,0.204,0.69,0.32
				c0.229,0.116,0.459,0.225,0.691,0.326c0.232,0.101,0.462,0.187,0.691,0.258c0.228,0.071,0.462,0.11,0.702,0.118
				c0.232,0,0.458-0.03,0.679-0.09c0.221-0.06,0.421-0.153,0.601-0.28c0.18-0.128,0.335-0.293,0.466-0.494
				c0.131-0.203,0.219-0.449,0.264-0.742l2.504,1.247c-0.067,0.547-0.223,1.041-0.466,1.482c-0.243,0.441-0.556,0.819-0.938,1.134
				s-0.816,0.559-1.303,0.73s-1.003,0.258-1.55,0.258c-0.442,0-0.885-0.084-1.331-0.252c-0.445-0.169-0.876-0.353-1.291-0.551
				c-0.416-0.198-0.807-0.382-1.174-0.55c-0.367-0.169-0.689-0.253-0.966-0.253c-0.12,0-0.227-0.002-0.32-0.006
				c-0.093-0.004-0.185-0.004-0.275,0s-0.189,0.016-0.297,0.034c-0.109,0.019-0.234,0.054-0.376,0.106L62.767,291.003z
				 M64.339,287.646c0.651,0,1.249-0.141,1.792-0.422c0.542-0.28,1.009-0.662,1.398-1.146c0.389-0.482,0.691-1.044,0.904-1.685
				c0.214-0.64,0.32-1.319,0.32-2.038c0-0.727-0.108-1.411-0.326-2.056c-0.217-0.644-0.522-1.207-0.916-1.689
				c-0.393-0.483-0.859-0.865-1.398-1.146c-0.539-0.281-1.13-0.421-1.774-0.421s-1.235,0.14-1.774,0.421
				c-0.539,0.28-1.003,0.662-1.393,1.146c-0.389,0.482-0.694,1.046-0.916,1.689c-0.221,0.645-0.331,1.329-0.331,2.056
				c0,0.719,0.11,1.398,0.331,2.038c0.221,0.641,0.526,1.202,0.916,1.685c0.389,0.483,0.854,0.865,1.393,1.146
				C63.104,287.505,63.695,287.646,64.339,287.646z"/>
		</g>
		<g>
			<g>
				<g>
					<polygon fill="#266279" points="217.652,290.642 79.582,290.642 79.582,283.442 217.652,283.442 221.801,287.042 					"/>
				</g>
				<g>
					<polygon fill="#266279" points="223.043,283.442 361.113,283.442 361.113,290.642 223.043,290.642 227.19,287.042 					"/>
				</g>
			</g>
			<g>
				<g>
					<polygon fill="#266279" points="217.652,304.556 79.582,304.556 79.582,297.356 217.652,297.356 221.801,300.956 					"/>
				</g>
				<g>
					<polygon fill="#266279" points="223.043,297.356 361.113,297.356 361.113,304.556 223.043,304.556 227.19,300.956 					"/>
				</g>
			</g>
			<g>
				<g>
					<polygon fill="#266279" points="217.652,374.124 79.582,374.124 79.582,366.925 217.652,366.925 221.801,370.524 					"/>
				</g>
				<g>
					<polygon fill="#266279" points="223.043,366.925 361.113,366.925 361.113,374.124 223.043,374.124 227.19,370.524 					"/>
				</g>
			</g>
			<g>
				<g>
					<polygon fill="#266279" points="217.652,318.47 79.582,318.47 79.582,311.271 217.652,311.271 221.801,314.87 					"/>
				</g>
				<g>
					<polygon fill="#266279" points="223.043,311.271 361.113,311.271 361.113,318.47 223.043,318.47 227.19,314.87 					"/>
				</g>
			</g>
			<g>
				<g>
					<polygon fill="#266279" points="217.652,332.384 79.582,332.384 79.582,325.185 217.652,325.185 221.801,328.784 					"/>
				</g>
				<g>
					<polygon fill="#266279" points="223.043,325.185 361.113,325.185 361.113,332.384 223.043,332.384 227.19,328.784 					"/>
				</g>
			</g>
			<g>
				<g>
					<polygon fill="#266279" points="217.652,346.298 79.582,346.298 79.582,339.097 217.652,339.097 221.801,342.696 					"/>
				</g>
				<g>
					<polygon fill="#266279" points="223.043,339.097 361.113,339.097 361.113,346.298 223.043,346.298 227.19,342.696 					"/>
				</g>
			</g>
			<g>
				<g>
					<polygon fill="#266279" points="217.652,360.212 79.582,360.212 79.582,353.011 217.652,353.011 221.801,356.61 					"/>
				</g>
				<g>
					<polygon fill="#266279" points="223.043,353.011 361.113,353.011 361.113,360.212 223.043,360.212 227.19,356.61 					"/>
				</g>
			</g>
		</g>
	</g>
	<g>
		<g>
			<path fill="#266279" d="M64.496,402.837c-0.771,0-1.509-0.104-2.212-0.314c-0.704-0.209-1.361-0.505-1.971-0.887
				c-0.61-0.382-1.165-0.841-1.662-1.376c-0.498-0.535-0.923-1.13-1.275-1.785s-0.625-1.357-0.82-2.106
				c-0.195-0.748-0.292-1.53-0.292-2.347s0.097-1.601,0.292-2.353c0.195-0.753,0.468-1.456,0.82-2.111s0.777-1.251,1.275-1.786
				c0.498-0.535,1.052-0.993,1.662-1.376c0.61-0.381,1.267-0.677,1.971-0.887s1.441-0.314,2.212-0.314s1.51,0.104,2.218,0.314
				c0.707,0.21,1.366,0.506,1.977,0.887c0.61,0.383,1.164,0.841,1.662,1.376c0.498,0.535,0.924,1.131,1.28,1.786
				c0.355,0.655,0.63,1.358,0.825,2.111c0.195,0.752,0.292,1.536,0.292,2.353c0,0.809-0.097,1.589-0.292,2.342
				c-0.195,0.752-0.47,1.456-0.825,2.111c-0.356,0.655-0.783,1.25-1.28,1.785c-0.498,0.535-1.052,0.994-1.662,1.376
				c-0.61,0.382-1.27,0.678-1.977,0.887C66.006,402.732,65.267,402.837,64.496,402.837z M64.496,399.312
				c0.651,0,1.249-0.141,1.792-0.422c0.542-0.28,1.009-0.662,1.398-1.146c0.389-0.482,0.691-1.044,0.904-1.685
				c0.214-0.64,0.32-1.319,0.32-2.038c0-0.727-0.108-1.411-0.326-2.056c-0.217-0.644-0.522-1.207-0.916-1.689
				c-0.393-0.483-0.859-0.865-1.398-1.146c-0.539-0.281-1.13-0.421-1.774-0.421s-1.235,0.14-1.774,0.421
				c-0.539,0.28-1.003,0.662-1.393,1.146c-0.389,0.482-0.694,1.046-0.916,1.689c-0.221,0.645-0.331,1.329-0.331,2.056
				c0,0.719,0.11,1.398,0.331,2.038c0.221,0.641,0.526,1.202,0.916,1.685c0.389,0.483,0.854,0.865,1.393,1.146
				C63.261,399.171,63.852,399.312,64.496,399.312z"/>
		</g>
		<g>
			<g>
				<g>
					<polygon fill="#266279" points="217.652,401.952 79.582,401.952 79.582,394.753 217.652,394.753 221.801,398.353 					"/>
				</g>
				<g>
					<polygon fill="#266279" points="223.043,394.753 361.113,394.753 361.113,401.952 223.043,401.952 227.19,398.353 					"/>
				</g>
			</g>
			<g>
				<g>
					<polygon fill="#266279" points="217.652,415.866 79.582,415.866 79.582,408.667 217.652,408.667 221.801,412.267 					"/>
				</g>
				<g>
					<polygon fill="#266279" points="223.043,408.667 361.113,408.667 361.113,415.866 223.043,415.866 227.19,412.267 					"/>
				</g>
			</g>
			<g>
				<g>
					<polygon fill="#266279" points="217.652,485.435 79.582,485.435 79.582,478.235 217.652,478.235 221.801,481.835 					"/>
				</g>
				<g>
					<polygon fill="#266279" points="223.043,478.235 361.113,478.235 361.113,485.435 223.043,485.435 227.19,481.835 					"/>
				</g>
			</g>
			<g>
				<g>
					<polygon fill="#266279" points="217.652,429.78 79.582,429.78 79.582,422.581 217.652,422.581 221.801,426.181 					"/>
				</g>
				<g>
					<polygon fill="#266279" points="223.043,422.581 361.113,422.581 361.113,429.78 223.043,429.78 227.19,426.181 					"/>
				</g>
			</g>
			<g>
				<g>
					<polygon fill="#266279" points="217.652,443.694 79.582,443.694 79.582,436.495 217.652,436.495 221.801,440.095 					"/>
				</g>
				<g>
					<polygon fill="#266279" points="223.043,436.495 361.113,436.495 361.113,443.694 223.043,443.694 227.19,440.095 					"/>
				</g>
			</g>
			<g>
				<g>
					<polygon fill="#266279" points="217.652,457.608 79.582,457.608 79.582,450.407 217.652,450.407 221.801,454.007 					"/>
				</g>
				<g>
					<polygon fill="#266279" points="223.043,450.407 361.113,450.407 361.113,457.608 223.043,457.608 227.19,454.007 					"/>
				</g>
			</g>
			<g>
				<g>
					<polygon fill="#266279" points="217.652,471.522 79.582,471.522 79.582,464.321 217.652,464.321 221.801,467.921 					"/>
				</g>
				<g>
					<polygon fill="#266279" points="223.043,464.321 361.113,464.321 361.113,471.522 223.043,471.522 227.19,467.921 					"/>
				</g>
			</g>
		</g>
	</g>
	<g>
		<g>
			<g>
				<g>
					<polygon fill="#266279" points="217.652,68.021 79.582,68.021 79.582,60.819 217.652,60.819 221.8,64.421 					"/>
				</g>
				<g>
					<polygon fill="#266279" points="223.043,60.819 361.113,60.819 361.113,68.021 223.043,68.021 227.19,64.421 					"/>
				</g>
			</g>
			<g>
				<g>
					<polygon fill="#266279" points="217.652,151.503 79.582,151.503 79.582,144.304 217.652,144.304 221.8,147.903 					"/>
				</g>
				<g>
					<polygon fill="#266279" points="223.043,144.304 361.113,144.304 361.113,151.503 223.043,151.503 227.19,147.903 					"/>
				</g>
			</g>
			<g>
				<g>
					<polygon fill="#266279" points="217.652,95.849 79.582,95.849 79.582,88.649 217.652,88.649 221.8,92.247 					"/>
				</g>
				<g>
					<polygon fill="#266279" points="223.043,88.649 361.113,88.649 361.113,95.849 223.043,95.849 227.19,92.247 					"/>
				</g>
			</g>
			<g>
				<g>
					<polygon fill="#266279" points="217.652,81.933 79.582,81.933 79.582,74.733 217.652,74.733 221.8,78.333 					"/>
				</g>
				<g>
					<polygon fill="#266279" points="223.043,74.733 361.113,74.733 361.113,81.933 223.043,81.933 227.19,78.333 					"/>
				</g>
			</g>
			<g>
				<g>
					<polygon fill="#266279" points="217.652,109.763 79.582,109.763 79.582,102.563 217.652,102.563 221.8,106.161 					"/>
				</g>
				<g>
					<polygon fill="#266279" points="223.043,102.563 361.113,102.563 361.113,109.763 223.043,109.763 227.19,106.161 					"/>
				</g>
			</g>
			<g>
				<g>
					<polygon fill="#266279" points="217.652,123.675 79.582,123.675 79.582,116.476 217.652,116.476 221.8,120.075 					"/>
				</g>
				<g>
					<polygon fill="#266279" points="223.043,116.476 361.113,116.476 361.113,123.675 223.043,123.675 227.19,120.075 					"/>
				</g>
			</g>
			<g>
				<g>
					<polygon fill="#266279" points="217.652,137.589 79.582,137.589 79.582,130.39 217.652,130.39 221.8,133.989 					"/>
				</g>
				<g>
					<polygon fill="#266279" points="223.043,130.39 361.113,130.39 361.113,137.589 223.043,137.589 227.19,133.989 					"/>
				</g>
			</g>
		</g>
		<g>
			<path fill="#266279" d="M66.088,50.175h7.289v3.088h-1.516L67.312,67.2h-4.604l-4.414-13.938h-1.64v-3.088h7.3v3.088h-1.819
				l2.965,9.658l2.954-9.658h-1.965V50.175z"/>
		</g>
	</g>
	<g>
		<g>
			<path fill="#266279" d="M61.638,175.791h1.763v-10.972h-2.066v2.201h-3.661v-5.178H73.16v5.178h-3.684v-2.201h-2.347v10.972
				h1.797v3.077h-7.289V175.791z"/>
		</g>
		<g>
			<g>
				<g>
					<polygon fill="#266279" points="217.548,193.245 79.478,193.245 79.478,186.046 217.548,186.046 221.696,189.646 					"/>
				</g>
				<g>
					<polygon fill="#266279" points="222.938,186.046 361.009,186.046 361.009,193.245 222.938,193.245 227.087,189.646 					"/>
				</g>
			</g>
			<g>
				<g>
					<polygon fill="#266279" points="217.548,179.331 79.478,179.331 79.478,172.132 217.548,172.132 221.696,175.731 					"/>
				</g>
				<g>
					<polygon fill="#266279" points="222.938,172.132 361.009,172.132 361.009,179.331 222.938,179.331 227.087,175.731 					"/>
				</g>
			</g>
			<g>
				<g>
					<polygon fill="#266279" points="217.548,207.159 79.478,207.159 79.478,199.96 217.548,199.96 221.696,203.558 					"/>
				</g>
				<g>
					<polygon fill="#266279" points="222.938,199.96 361.009,199.96 361.009,207.159 222.938,207.159 227.087,203.558 					"/>
				</g>
			</g>
			<g>
				<g>
					<polygon fill="#266279" points="217.548,234.985 79.478,234.985 79.478,227.786 217.548,227.786 221.696,231.386 					"/>
				</g>
				<g>
					<polygon fill="#266279" points="222.938,227.786 361.009,227.786 361.009,234.985 222.938,234.985 227.087,231.386 					"/>
				</g>
			</g>
			<g>
				<g>
					<polygon fill="#266279" points="217.652,221.073 79.582,221.073 79.582,213.874 217.652,213.874 221.8,217.474 					"/>
				</g>
				<g>
					<polygon fill="#266279" points="223.043,213.874 361.113,213.874 361.113,221.073 223.043,221.073 227.19,217.474 					"/>
				</g>
			</g>
			<g>
				<g>
					<polygon fill="#266279" points="217.548,248.901 79.478,248.901 79.478,241.702 217.548,241.702 221.696,245.3 					"/>
				</g>
				<g>
					<polygon fill="#266279" points="222.938,241.702 361.009,241.702 361.009,248.901 222.938,248.901 227.087,245.3 					"/>
				</g>
			</g>
			<g>
				<g>
					<polygon fill="#266279" points="217.548,262.813 79.478,262.813 79.478,255.614 217.548,255.614 221.696,259.214 					"/>
				</g>
				<g>
					<polygon fill="#266279" points="222.938,255.614 361.009,255.614 361.009,262.813 222.938,262.813 227.087,259.214 					"/>
				</g>
			</g>
		</g>
	</g>
</g>
</svg>
