<?xml version="1.0" encoding="utf-8"?>
<!-- Generator: Adobe Illustrator 16.0.4, SVG Export Plug-In . SVG Version: 6.00 Build 0)  -->
<!DOCTYPE svg PUBLIC "-//W3C//DTD SVG 1.1//EN" "http://www.w3.org/Graphics/SVG/1.1/DTD/svg11.dtd">
<svg version="1.1" id="Layer_1" xmlns="http://www.w3.org/2000/svg" xmlns:xlink="http://www.w3.org/1999/xlink" x="0px" y="0px"
	 width="448.746px" height="616.44px" viewBox="0 0 448.746 616.44" enable-background="new 0 0 448.746 616.44"
	 xml:space="preserve">
<rect x="0.5" y="0.5" fill="#FFFFFF" stroke="#C68D06" stroke-miterlimit="10" width="447.746" height="615.44"/>
<g>
	<path fill="#C68D06" d="M337.038,569.971c0-7.98,4.201-13.896,10.151-13.896c2.87,0,4.796,0.875,6.195,1.961l-1.295,1.891
		c-1.33-1.051-2.625-1.682-4.971-1.682c-4.725,0-7.631,5.041-7.665,11.482c1.645-1.785,4.095-3.467,7.386-3.467
		c5.46,0,8.086,3.396,8.086,8.086c0,4.9-3.466,8.611-8.682,8.611C341.133,582.957,337.038,578.861,337.038,569.971z
		 M352.509,574.381c0-3.465-1.75-5.984-5.95-5.984c-2.87,0-5.426,1.609-7.001,3.814c0.525,6.021,3.36,8.611,6.791,8.611
		C350.059,580.822,352.509,578.477,352.509,574.381z"/>
	<path fill="#C68D06" d="M361.922,569.971c0-7.98,4.201-13.896,10.151-13.896c2.87,0,4.796,0.875,6.195,1.961l-1.295,1.891
		c-1.33-1.051-2.625-1.682-4.971-1.682c-4.725,0-7.631,5.041-7.665,11.482c1.645-1.785,4.095-3.467,7.386-3.467
		c5.46,0,8.086,3.396,8.086,8.086c0,4.9-3.466,8.611-8.682,8.611C366.018,582.957,361.922,578.861,361.922,569.971z
		 M377.394,574.381c0-3.465-1.75-5.984-5.95-5.984c-2.87,0-5.426,1.609-7.001,3.814c0.525,6.021,3.36,8.611,6.791,8.611
		C374.944,580.822,377.394,578.477,377.394,574.381z"/>
	<path fill="#C68D06" d="M388.208,556.564h8.681c5.776,0,8.996,2.451,8.996,7c0,4.201-2.45,6.301-6.195,7.002l6.546,11.9h-2.801
		l-6.336-11.621h-6.44v11.621h-2.45V556.564z M396.713,568.641c4.271,0,6.686-1.225,6.686-4.971c0-3.57-2.38-4.83-6.721-4.83h-6.021
		v9.801H396.713z"/>
</g>
<g>
	<rect x="79.212" y="158.633" fill="#C0DDE7" width="281.739" height="7.199"/>
</g>
<g>
	<rect x="79.212" y="172.547" fill="#C0DDE7" width="281.739" height="7.199"/>
</g>
<g>
	<rect x="79.212" y="186.461" fill="#C0DDE7" width="281.739" height="7.201"/>
</g>
<g>
	<rect x="79.212" y="200.375" fill="#C0DDE7" width="281.739" height="7.199"/>
</g>
<g>
	<rect x="79.212" y="214.288" fill="#C0DDE7" width="281.739" height="7.2"/>
</g>
<g>
	<rect x="79.212" y="228.201" fill="#C0DDE7" width="281.739" height="7.201"/>
</g>
<g>
	<rect x="79.212" y="242.116" fill="#C0DDE7" width="281.739" height="7.199"/>
</g>
<g>
	<rect x="79.212" y="256.029" fill="#C0DDE7" width="281.739" height="7.2"/>
</g>
<g>
	<rect x="79.212" y="269.945" fill="#C0DDE7" width="281.739" height="7.199"/>
</g>
<g>
	<rect x="79.212" y="283.857" fill="#C0DDE7" width="281.739" height="7.2"/>
</g>
<g>
	<rect x="79.212" y="297.771" fill="#C0DDE7" width="281.739" height="7.199"/>
</g>
<g>
	<rect x="79.212" y="311.686" fill="#C0DDE7" width="281.739" height="7.199"/>
</g>
<g>
	<rect x="79.212" y="325.6" fill="#C0DDE7" width="281.739" height="7.199"/>
</g>
<g>
	<rect x="79.212" y="339.513" fill="#C0DDE7" width="281.739" height="7.2"/>
</g>
<g>
	<rect x="79.212" y="353.428" fill="#C0DDE7" width="281.739" height="7.199"/>
</g>
<g>
	<rect x="79.212" y="367.34" fill="#C0DDE7" width="281.739" height="7.201"/>
</g>
<g>
	<rect x="79.212" y="381.254" fill="#C0DDE7" width="281.739" height="7.199"/>
</g>
<g>
	<rect x="79.212" y="395.168" fill="#C0DDE7" width="281.739" height="7.199"/>
</g>
<g>
	<rect x="79.212" y="409.082" fill="#C0DDE7" width="281.739" height="7.199"/>
</g>
<g>
	<rect x="79.212" y="422.996" fill="#C0DDE7" width="281.739" height="7.199"/>
</g>
<g>
	<rect x="79.212" y="436.91" fill="#C0DDE7" width="281.739" height="7.199"/>
</g>
<g>
	<rect x="79.212" y="450.824" fill="#C0DDE7" width="281.739" height="7.199"/>
</g>
<g>
	<rect x="79.212" y="464.737" fill="#C0DDE7" width="281.739" height="7.199"/>
</g>
<g>
	<rect x="79.212" y="478.65" fill="#C0DDE7" width="281.739" height="7.201"/>
</g>
<g>
	<rect x="79.212" y="61.236" fill="#C0DDE7" width="281.739" height="7.199"/>
</g>
<g>
	<rect x="79.212" y="75.15" fill="#C0DDE7" width="281.739" height="7.199"/>
</g>
<g>
	<rect x="79.212" y="144.719" fill="#C0DDE7" width="281.739" height="7.199"/>
</g>
<g>
	<rect x="79.212" y="89.064" fill="#C0DDE7" width="281.739" height="7.199"/>
</g>
<g>
	<rect x="79.212" y="102.979" fill="#C0DDE7" width="281.739" height="7.199"/>
</g>
<g>
	<rect x="79.212" y="116.893" fill="#C0DDE7" width="281.739" height="7.198"/>
</g>
<g>
	<rect x="79.212" y="130.806" fill="#C0DDE7" width="281.739" height="7.2"/>
</g>
<g>
	<g>
		<path fill="#266279" d="M65.729,288.172h7.289v3.077H71.22v10.871h1.797v3.077h-7.289v-3.077h1.763v-10.871h-1.763V288.172z"/>
	</g>
	<g>
		<g>
			<g>
				<polygon fill="#266279" points="217.49,304.971 79.42,304.971 79.42,297.771 217.49,297.771 221.638,301.371 				"/>
			</g>
			<g>
				<polygon fill="#266279" points="222.881,297.771 360.951,297.771 360.951,304.971 222.881,304.971 227.028,301.371 				"/>
			</g>
		</g>
		<g>
			<g>
				<polygon fill="#266279" points="217.49,318.885 79.42,318.885 79.42,311.686 217.49,311.686 221.638,315.285 				"/>
			</g>
			<g>
				<polygon fill="#266279" points="222.881,311.686 360.951,311.686 360.951,318.885 222.881,318.885 227.028,315.285 				"/>
			</g>
		</g>
		<g>
			<g>
				<polygon fill="#266279" points="217.49,388.453 79.42,388.453 79.42,381.254 217.49,381.254 221.638,384.854 				"/>
			</g>
			<g>
				<polygon fill="#266279" points="222.881,381.254 360.951,381.254 360.951,388.453 222.881,388.453 227.028,384.854 				"/>
			</g>
		</g>
		<g>
			<g>
				<polygon fill="#266279" points="217.49,332.799 79.42,332.799 79.42,325.6 217.49,325.6 221.638,329.199 				"/>
			</g>
			<g>
				<polygon fill="#266279" points="222.881,325.6 360.951,325.6 360.951,332.799 222.881,332.799 227.028,329.199 				"/>
			</g>
		</g>
		<g>
			<g>
				<polygon fill="#266279" points="217.49,346.713 79.42,346.713 79.42,339.514 217.49,339.514 221.638,343.113 				"/>
			</g>
			<g>
				<polygon fill="#266279" points="222.881,339.514 360.951,339.514 360.951,346.713 222.881,346.713 227.028,343.113 				"/>
			</g>
		</g>
		<g>
			<g>
				<polygon fill="#266279" points="217.49,360.627 79.42,360.627 79.42,353.426 217.49,353.426 221.638,357.025 				"/>
			</g>
			<g>
				<polygon fill="#266279" points="222.881,353.426 360.951,353.426 360.951,360.627 222.881,360.627 227.028,357.025 				"/>
			</g>
		</g>
		<g>
			<g>
				<polygon fill="#266279" points="217.49,374.541 79.42,374.541 79.42,367.34 217.49,367.34 221.638,370.939 				"/>
			</g>
			<g>
				<polygon fill="#266279" points="222.881,367.34 360.951,367.34 360.951,374.541 222.881,374.541 227.028,370.939 				"/>
			</g>
		</g>
	</g>
</g>
<g>
	<g>
		<g>
			<polygon fill="#266279" points="217.49,416.281 79.42,416.281 79.42,409.082 217.49,409.082 221.638,412.683 			"/>
		</g>
		<g>
			<polygon fill="#266279" points="222.881,409.082 360.951,409.082 360.951,416.281 222.881,416.281 227.029,412.683 			"/>
		</g>
	</g>
	<g>
		<g>
			<polygon fill="#266279" points="217.49,499.764 79.42,499.764 79.42,492.565 217.49,492.565 221.638,496.165 			"/>
		</g>
		<g>
			<polygon fill="#266279" points="222.881,492.565 360.951,492.565 360.951,499.764 222.881,499.764 227.029,496.165 			"/>
		</g>
	</g>
	<g>
		<g>
			<polygon fill="#266279" points="217.49,444.109 79.42,444.109 79.42,436.91 217.49,436.91 221.638,440.51 			"/>
		</g>
		<g>
			<polygon fill="#266279" points="222.881,436.91 360.951,436.91 360.951,444.109 222.881,444.109 227.029,440.51 			"/>
		</g>
	</g>
	<g>
		<g>
			<polygon fill="#266279" points="217.49,430.195 79.42,430.195 79.42,422.996 217.49,422.996 221.638,426.594 			"/>
		</g>
		<g>
			<polygon fill="#266279" points="222.881,422.996 360.951,422.996 360.951,430.195 222.881,430.195 227.029,426.594 			"/>
		</g>
	</g>
	<g>
		<g>
			<polygon fill="#266279" points="217.49,458.023 79.42,458.023 79.42,450.824 217.49,450.824 221.638,454.424 			"/>
		</g>
		<g>
			<polygon fill="#266279" points="222.881,450.824 360.951,450.824 360.951,458.023 222.881,458.023 227.029,454.424 			"/>
		</g>
	</g>
	<g>
		<g>
			<polygon fill="#266279" points="217.49,471.938 79.42,471.938 79.42,464.738 217.49,464.738 221.638,468.338 			"/>
		</g>
		<g>
			<polygon fill="#266279" points="222.881,464.738 360.951,464.738 360.951,471.938 222.881,471.938 227.029,468.338 			"/>
		</g>
	</g>
	<g>
		<g>
			<polygon fill="#266279" points="217.49,485.852 79.42,485.852 79.42,478.651 217.49,478.651 221.638,482.25 			"/>
		</g>
		<g>
			<polygon fill="#266279" points="222.881,478.651 360.951,478.651 360.951,485.852 222.881,485.852 227.029,482.25 			"/>
		</g>
	</g>
</g>
<g>
	<path fill="#266279" d="M68.927,403.652c-0.038-0.262-0.129-0.509-0.275-0.74c-0.146-0.232-0.333-0.433-0.562-0.602
		c-0.228-0.168-0.486-0.301-0.774-0.398c-0.289-0.098-0.59-0.146-0.904-0.146c-0.285,0-0.55,0.03-0.797,0.09
		c-0.247,0.061-0.462,0.152-0.646,0.275c-0.183,0.124-0.329,0.283-0.438,0.478c-0.109,0.194-0.163,0.427-0.163,0.696
		c0,0.337,0.073,0.604,0.219,0.803c0.146,0.198,0.333,0.361,0.562,0.488c0.229,0.128,0.481,0.229,0.758,0.304
		s0.546,0.157,0.809,0.247l3.088,1.033c0.427,0.149,0.827,0.355,1.202,0.617c0.375,0.263,0.698,0.581,0.971,0.955
		c0.273,0.374,0.489,0.805,0.646,1.291c0.157,0.487,0.236,1.033,0.236,1.641c0,0.823-0.151,1.575-0.455,2.257
		c-0.303,0.682-0.728,1.266-1.274,1.752s-1.202,0.864-1.965,1.134s-1.61,0.404-2.538,0.404c-0.651,0-1.267-0.072-1.847-0.219
		c-0.581-0.146-1.11-0.357-1.589-0.635c-0.479-0.276-0.898-0.607-1.258-0.993s-0.64-0.822-0.842-1.309h-1.157v-3.38h4.065v0.695
		c0,0.338,0.054,0.648,0.163,0.933c0.109,0.284,0.271,0.531,0.489,0.741s0.49,0.372,0.82,0.488s0.715,0.174,1.157,0.174
		c0.674,0,1.187-0.155,1.539-0.466s0.528-0.743,0.528-1.297c0-0.284-0.062-0.522-0.185-0.713c-0.124-0.191-0.283-0.353-0.478-0.483
		s-0.412-0.241-0.651-0.331s-0.476-0.172-0.708-0.247l-2.572-0.831c-0.487-0.149-0.957-0.359-1.409-0.629
		c-0.453-0.27-0.854-0.606-1.202-1.011c-0.348-0.404-0.625-0.878-0.831-1.421c-0.206-0.543-0.309-1.162-0.309-1.858
		c0-0.809,0.15-1.529,0.449-2.162s0.719-1.166,1.258-1.6c0.539-0.435,1.179-0.764,1.92-0.988s1.554-0.338,2.437-0.338
		c0.696,0,1.34,0.081,1.932,0.242s1.121,0.376,1.589,0.646c0.468,0.27,0.865,0.578,1.19,0.927c0.326,0.348,0.575,0.709,0.747,1.084
		h1.123v3.391h-4.065V403.652z"/>
</g>
<g>
	<g>
		<path fill="#266279" d="M218.723,65.703c-0.451-0.123-0.876-0.305-1.274-0.545s-0.747-0.537-1.046-0.893
			c-0.299-0.354-0.536-0.764-0.712-1.23c-0.176-0.465-0.264-0.988-0.264-1.568c0-0.615,0.123-1.191,0.369-1.727
			c0.246-0.537,0.595-1.004,1.046-1.402s0.996-0.711,1.635-0.939s1.351-0.344,2.136-0.344h6.012v2.418h-1.239v14.088h-2.575V59.473
			h-1.512v14.088h-2.575V65.703z"/>
	</g>
	<g>
		<path fill="#266279" d="M68.788,121.07c-0.451-0.123-0.876-0.305-1.274-0.545s-0.747-0.537-1.046-0.893
			c-0.299-0.354-0.536-0.764-0.712-1.23c-0.176-0.465-0.264-0.988-0.264-1.568c0-0.615,0.123-1.191,0.369-1.727
			c0.246-0.537,0.595-1.004,1.046-1.402s0.996-0.713,1.635-0.941s1.351-0.342,2.136-0.342h6.012v2.416H75.45v14.09h-2.575v-14.09
			h-1.512v14.09h-2.575V121.07z"/>
	</g>
	<g>
		<path fill="#266279" d="M68.788,205.312c-0.451-0.123-0.876-0.305-1.274-0.545s-0.747-0.537-1.046-0.893
			c-0.299-0.354-0.536-0.764-0.712-1.23c-0.176-0.465-0.264-0.988-0.264-1.568c0-0.615,0.123-1.191,0.369-1.727
			c0.246-0.537,0.595-1.004,1.046-1.402s0.996-0.711,1.635-0.939s1.351-0.344,2.136-0.344h6.012v2.418H75.45v14.088h-2.575v-14.088
			h-1.512v14.088h-2.575V205.312z"/>
	</g>
	<g>
		<path fill="#266279" d="M218.723,232.812c-0.451-0.123-0.876-0.305-1.274-0.545s-0.747-0.537-1.046-0.893
			c-0.299-0.354-0.536-0.764-0.712-1.23c-0.176-0.465-0.264-0.988-0.264-1.568c0-0.615,0.123-1.191,0.369-1.727
			c0.246-0.537,0.595-1.004,1.046-1.402s0.996-0.713,1.635-0.941s1.351-0.342,2.136-0.342h6.012v2.416h-1.239v14.09h-2.575v-14.09
			h-1.512v14.09h-2.575V232.812z"/>
	</g>
	<g>
		<path fill="#266279" d="M218.723,149.312c-0.451-0.123-0.876-0.305-1.274-0.545s-0.747-0.537-1.046-0.893
			c-0.299-0.354-0.536-0.764-0.712-1.23c-0.176-0.465-0.264-0.988-0.264-1.568c0-0.615,0.123-1.191,0.369-1.727
			c0.246-0.537,0.595-1.004,1.046-1.402s0.996-0.711,1.635-0.939s1.351-0.344,2.136-0.344h6.012v2.418h-1.239v14.088h-2.575v-14.088
			h-1.512v14.088h-2.575V149.312z"/>
	</g>
	<g>
		<g>
			<rect x="229.024" y="61.236" fill="#266279" width="131.928" height="7.201"/>
		</g>
		<g>
			<rect x="79.213" y="61.236" fill="#266279" width="131.928" height="7.201"/>
		</g>
	</g>
	<g>
		<g>
			<rect x="229.024" y="75.15" fill="#266279" width="131.928" height="7.201"/>
		</g>
		<g>
			<rect x="79.213" y="75.15" fill="#266279" width="131.928" height="7.201"/>
		</g>
	</g>
	<g>
		<g>
			<rect x="229.024" y="89.064" fill="#266279" width="131.928" height="7.201"/>
		</g>
		<g>
			<rect x="79.213" y="89.064" fill="#266279" width="131.928" height="7.201"/>
		</g>
	</g>
	<g>
		<g>
			<rect x="229.024" y="102.979" fill="#266279" width="131.928" height="7.199"/>
		</g>
		<g>
			<rect x="79.213" y="102.979" fill="#266279" width="131.928" height="7.199"/>
		</g>
	</g>
	<g>
		<g>
			<rect x="229.024" y="116.893" fill="#266279" width="131.928" height="7.199"/>
		</g>
		<g>
			<rect x="79.213" y="116.893" fill="#266279" width="131.928" height="7.199"/>
		</g>
	</g>
	<g>
		<g>
			<rect x="229.024" y="130.805" fill="#266279" width="131.928" height="7.201"/>
		</g>
		<g>
			<rect x="79.213" y="130.805" fill="#266279" width="131.928" height="7.201"/>
		</g>
	</g>
	<g>
		<g>
			<rect x="229.024" y="144.721" fill="#266279" width="131.928" height="7.199"/>
		</g>
		<g>
			<rect x="79.213" y="144.721" fill="#266279" width="131.928" height="7.199"/>
		</g>
	</g>
	<g>
		<g>
			<rect x="229.024" y="158.633" fill="#266279" width="131.928" height="7.201"/>
		</g>
		<g>
			<rect x="79.213" y="158.633" fill="#266279" width="131.928" height="7.201"/>
		</g>
	</g>
	<g>
		<g>
			<rect x="229.024" y="172.547" fill="#266279" width="131.928" height="7.201"/>
		</g>
		<g>
			<rect x="79.213" y="172.547" fill="#266279" width="131.928" height="7.201"/>
		</g>
	</g>
	<g>
		<g>
			<rect x="229.024" y="186.461" fill="#266279" width="131.928" height="7.201"/>
		</g>
		<g>
			<rect x="79.213" y="186.461" fill="#266279" width="131.928" height="7.201"/>
		</g>
	</g>
	<g>
		<g>
			<rect x="229.024" y="200.375" fill="#266279" width="131.928" height="7.201"/>
		</g>
		<g>
			<rect x="79.213" y="200.375" fill="#266279" width="131.928" height="7.201"/>
		</g>
	</g>
	<g>
		<g>
			<rect x="229.024" y="214.289" fill="#266279" width="131.928" height="7.199"/>
		</g>
		<g>
			<rect x="79.213" y="214.289" fill="#266279" width="131.928" height="7.199"/>
		</g>
	</g>
	<g>
		<g>
			<rect x="229.024" y="228.203" fill="#266279" width="131.928" height="7.199"/>
		</g>
		<g>
			<rect x="79.213" y="228.203" fill="#266279" width="131.928" height="7.199"/>
		</g>
	</g>
	<g>
		<g>
			<rect x="229.024" y="242.117" fill="#266279" width="131.928" height="7.199"/>
		</g>
		<g>
			<rect x="79.213" y="242.117" fill="#266279" width="131.928" height="7.199"/>
		</g>
	</g>
	<g>
		<g>
			<rect x="229.024" y="256.031" fill="#266279" width="131.928" height="7.199"/>
		</g>
		<g>
			<rect x="79.213" y="256.031" fill="#266279" width="131.928" height="7.199"/>
		</g>
	</g>
	<g>
		<rect x="79.213" y="269.943" fill="#266279" width="131.928" height="7.201"/>
	</g>
</g>
</svg>
