<?xml version="1.0" encoding="utf-8"?>
<!-- Generator: Adobe Illustrator 16.0.4, SVG Export Plug-In . SVG Version: 6.00 Build 0)  -->
<!DOCTYPE svg PUBLIC "-//W3C//DTD SVG 1.1//EN" "http://www.w3.org/Graphics/SVG/1.1/DTD/svg11.dtd">
<svg version="1.1" id="Layer_1" xmlns="http://www.w3.org/2000/svg" xmlns:xlink="http://www.w3.org/1999/xlink" x="0px" y="0px"
	 width="448.746px" height="616.44px" viewBox="0 0 448.746 616.44" enable-background="new 0 0 448.746 616.44"
	 xml:space="preserve">
<rect x="0.5" y="0.5" fill="#FFFFFF" stroke="#C68D06" stroke-miterlimit="10" width="447.746" height="615.44"/>
<g>
	<path fill="#C68D06" d="M341.222,569.638c0-7.98,4.201-13.896,10.151-13.896c2.87,0,4.796,0.875,6.195,1.961l-1.295,1.891
		c-1.33-1.051-2.625-1.682-4.971-1.682c-4.726,0-7.631,5.041-7.665,11.482c1.645-1.785,4.095-3.467,7.386-3.467
		c5.46,0,8.086,3.396,8.086,8.086c0,4.9-3.466,8.611-8.682,8.611C345.317,582.624,341.222,578.528,341.222,569.638z
		 M356.693,574.048c0-3.465-1.75-5.984-5.95-5.984c-2.87,0-5.426,1.609-7.001,3.814c0.525,6.021,3.36,8.611,6.791,8.611
		C354.243,580.489,356.693,578.144,356.693,574.048z"/>
	<path fill="#C68D06" d="M378.254,558.507h-13.337v-2.275h15.927v2.135l-10.956,23.768h-2.556L378.254,558.507z"/>
	<path fill="#C68D06" d="M389.207,556.231h8.681c5.776,0,8.996,2.451,8.996,7c0,4.201-2.45,6.301-6.195,7.002l6.546,11.9h-2.801
		l-6.336-11.621h-6.44v11.621h-2.45V556.231z M397.713,568.308c4.271,0,6.686-1.225,6.686-4.971c0-3.57-2.38-4.83-6.721-4.83h-6.021
		v9.801H397.713z"/>
</g>
<g>
	<rect x="79.124" y="158.301" fill="#C0DDE7" width="281.739" height="7.199"/>
</g>
<g>
	<rect x="79.125" y="172.214" fill="#C0DDE7" width="281.738" height="7.198"/>
</g>
<g>
	<rect x="79.124" y="186.127" fill="#C0DDE7" width="281.739" height="7.201"/>
</g>
<g>
	<rect x="79.124" y="200.041" fill="#C0DDE7" width="281.739" height="7.199"/>
</g>
<g>
	<rect x="79.124" y="213.955" fill="#C0DDE7" width="281.739" height="7.199"/>
</g>
<g>
	<rect x="79.124" y="227.869" fill="#C0DDE7" width="281.739" height="7.199"/>
</g>
<g>
	<rect x="79.125" y="241.783" fill="#C0DDE7" width="281.738" height="7.199"/>
</g>
<g>
	<rect x="79.125" y="255.695" fill="#C0DDE7" width="281.738" height="7.201"/>
</g>
<g>
	<rect x="79.124" y="269.611" fill="#C0DDE7" width="281.739" height="7.199"/>
</g>
<g>
	<rect x="79.125" y="283.523" fill="#C0DDE7" width="281.738" height="7.201"/>
</g>
<g>
	<rect x="79.124" y="297.438" fill="#C0DDE7" width="281.739" height="7.201"/>
</g>
<g>
	<rect x="79.124" y="311.352" fill="#C0DDE7" width="281.739" height="7.201"/>
</g>
<g>
	<rect x="79.124" y="325.266" fill="#C0DDE7" width="281.739" height="7.199"/>
</g>
<g>
	<rect x="79.125" y="339.18" fill="#C0DDE7" width="281.738" height="7.2"/>
</g>
<g>
	<rect x="79.124" y="353.094" fill="#C0DDE7" width="281.739" height="7.199"/>
</g>
<g>
	<rect x="79.124" y="367.008" fill="#C0DDE7" width="281.739" height="7.199"/>
</g>
<g>
	<rect x="79.124" y="380.923" fill="#C0DDE7" width="281.739" height="7.198"/>
</g>
<g>
	<rect x="79.124" y="394.836" fill="#C0DDE7" width="281.739" height="7.199"/>
</g>
<g>
	<rect x="79.125" y="408.748" fill="#C0DDE7" width="281.738" height="7.199"/>
</g>
<g>
	<rect x="79.124" y="422.662" fill="#C0DDE7" width="281.739" height="7.201"/>
</g>
<g>
	<rect x="79.125" y="436.576" fill="#C0DDE7" width="281.738" height="7.199"/>
</g>
<g>
	<rect x="79.124" y="450.49" fill="#C0DDE7" width="281.739" height="7.199"/>
</g>
<g>
	<rect x="79.125" y="464.404" fill="#C0DDE7" width="281.738" height="7.199"/>
</g>
<g>
	<rect x="79.124" y="478.318" fill="#C0DDE7" width="281.739" height="7.199"/>
</g>
<g>
	<rect x="79.124" y="60.902" fill="#C0DDE7" width="281.739" height="7.201"/>
</g>
<g>
	<rect x="79.125" y="74.816" fill="#C0DDE7" width="281.738" height="7.201"/>
</g>
<g>
	<rect x="79.125" y="144.387" fill="#C0DDE7" width="281.738" height="7.199"/>
</g>
<g>
	<rect x="79.124" y="88.73" fill="#C0DDE7" width="281.739" height="7.199"/>
</g>
<g>
	<rect x="79.125" y="102.645" fill="#C0DDE7" width="281.738" height="7.199"/>
</g>
<g>
	<rect x="79.125" y="116.559" fill="#C0DDE7" width="281.738" height="7.199"/>
</g>
<g>
	<rect x="79.125" y="130.473" fill="#C0DDE7" width="281.738" height="7.2"/>
</g>
<g>
	<g>
		<g>
			<path fill="#266279" d="M68.435,279.104c-0.419-0.6-0.797-1.024-1.134-1.275s-0.7-0.431-1.089-0.539s-0.797-0.162-1.224-0.162
				c-0.629,0-1.213,0.14-1.752,0.421c-0.539,0.28-1.005,0.662-1.398,1.146c-0.394,0.482-0.702,1.044-0.927,1.685
				c-0.225,0.64-0.337,1.319-0.337,2.038c0,0.727,0.11,1.409,0.331,2.05c0.221,0.64,0.526,1.199,0.916,1.679s0.854,0.859,1.393,1.14
				c0.539,0.281,1.13,0.421,1.774,0.421c0.449,0,0.869-0.072,1.258-0.219c0.389-0.146,0.743-0.339,1.061-0.578
				c0.318-0.239,0.597-0.515,0.837-0.825s0.427-0.635,0.562-0.972l3.616,1.011c-0.232,0.733-0.573,1.413-1.022,2.038
				s-0.99,1.166-1.623,1.623c-0.633,0.457-1.344,0.816-2.134,1.078c-0.79,0.262-1.642,0.393-2.555,0.393
				c-0.771,0-1.509-0.104-2.212-0.314c-0.704-0.209-1.361-0.505-1.971-0.887c-0.61-0.382-1.165-0.842-1.662-1.381
				c-0.498-0.539-0.923-1.137-1.275-1.792s-0.625-1.358-0.82-2.111c-0.195-0.752-0.292-1.536-0.292-2.353
				c0-1.221,0.213-2.364,0.64-3.431c0.427-1.067,1.011-1.999,1.752-2.797c0.741-0.797,1.612-1.426,2.611-1.887
				c1-0.46,2.076-0.69,3.229-0.69c0.921,0,1.696,0.114,2.325,0.343s1.321,0.679,2.078,1.353h2.516v3.797H68.435z"/>
		</g>
		<g>
			<g>
				<g>
					<polygon fill="#266279" points="217.402,290.725 79.332,290.725 79.332,283.525 217.402,283.525 221.55,287.125 					"/>
				</g>
				<g>
					<polygon fill="#266279" points="222.792,283.525 360.863,283.525 360.863,290.725 222.792,290.725 226.94,287.125 					"/>
				</g>
			</g>
			<g>
				<g>
					<polygon fill="#266279" points="217.402,304.639 79.332,304.639 79.332,297.439 217.402,297.439 221.55,301.039 					"/>
				</g>
				<g>
					<polygon fill="#266279" points="222.792,297.439 360.863,297.439 360.863,304.639 222.792,304.639 226.94,301.039 					"/>
				</g>
			</g>
			<g>
				<g>
					<polygon fill="#266279" points="217.402,374.207 79.332,374.207 79.332,367.008 217.402,367.008 221.55,370.607 					"/>
				</g>
				<g>
					<polygon fill="#266279" points="222.792,367.008 360.863,367.008 360.863,374.207 222.792,374.207 226.94,370.607 					"/>
				</g>
			</g>
			<g>
				<g>
					<polygon fill="#266279" points="217.402,318.553 79.332,318.553 79.332,311.354 217.402,311.354 221.55,314.953 					"/>
				</g>
				<g>
					<polygon fill="#266279" points="222.792,311.354 360.863,311.354 360.863,318.553 222.792,318.553 226.94,314.953 					"/>
				</g>
			</g>
			<g>
				<g>
					<polygon fill="#266279" points="217.402,332.467 79.332,332.467 79.332,325.268 217.402,325.268 221.55,328.867 					"/>
				</g>
				<g>
					<polygon fill="#266279" points="222.792,325.268 360.863,325.268 360.863,332.467 222.792,332.467 226.94,328.867 					"/>
				</g>
			</g>
			<g>
				<g>
					<polygon fill="#266279" points="217.402,346.381 79.332,346.381 79.332,339.18 217.402,339.18 221.55,342.779 					"/>
				</g>
				<g>
					<polygon fill="#266279" points="222.792,339.18 360.863,339.18 360.863,346.381 222.792,346.381 226.94,342.779 					"/>
				</g>
			</g>
			<g>
				<g>
					<polygon fill="#266279" points="217.402,360.296 79.332,360.296 79.332,353.094 217.402,353.094 221.55,356.693 					"/>
				</g>
				<g>
					<polygon fill="#266279" points="222.792,353.094 360.863,353.094 360.863,360.296 222.792,360.296 226.94,356.693 					"/>
				</g>
			</g>
		</g>
	</g>
	<g>
		<g>
			<path fill="#266279" d="M57.9,385.592h6.536c0.779,0,1.525,0.102,2.24,0.303c0.715,0.203,1.382,0.487,1.999,0.854
				c0.618,0.367,1.18,0.808,1.685,1.32c0.506,0.513,0.938,1.084,1.297,1.713s0.636,1.306,0.831,2.032s0.292,1.482,0.292,2.269
				s-0.097,1.542-0.292,2.269s-0.472,1.405-0.831,2.038s-0.792,1.209-1.297,1.729c-0.505,0.521-1.066,0.966-1.685,1.337
				c-0.617,0.37-1.284,0.656-1.999,0.859c-0.715,0.201-1.461,0.303-2.24,0.303H57.9v-3.077h1.359v-10.86H57.9V385.592z
				 M62.988,388.68v10.86h1.426c0.606,0,1.179-0.143,1.718-0.427s1.007-0.672,1.404-1.162s0.711-1.067,0.943-1.729
				c0.232-0.663,0.348-1.376,0.348-2.14c0-0.756-0.116-1.464-0.348-2.123c-0.232-0.658-0.546-1.231-0.943-1.718
				s-0.865-0.868-1.404-1.146s-1.112-0.416-1.718-0.416H62.988z"/>
		</g>
		<g>
			<g>
				<g>
					<polygon fill="#266279" points="217.402,402.035 79.332,402.035 79.332,394.836 217.402,394.836 221.55,398.436 					"/>
				</g>
				<g>
					<polygon fill="#266279" points="222.792,394.836 360.863,394.836 360.863,402.035 222.792,402.035 226.94,398.436 					"/>
				</g>
			</g>
			<g>
				<g>
					<polygon fill="#266279" points="217.402,415.949 79.332,415.949 79.332,408.75 217.402,408.75 221.55,412.35 					"/>
				</g>
				<g>
					<polygon fill="#266279" points="222.792,408.75 360.863,408.75 360.863,415.949 222.792,415.949 226.94,412.35 					"/>
				</g>
			</g>
			<g>
				<g>
					<polygon fill="#266279" points="217.402,485.518 79.332,485.518 79.332,478.318 217.402,478.318 221.55,481.918 					"/>
				</g>
				<g>
					<polygon fill="#266279" points="222.792,478.318 360.863,478.318 360.863,485.518 222.792,485.518 226.94,481.918 					"/>
				</g>
			</g>
			<g>
				<g>
					<polygon fill="#266279" points="217.402,429.863 79.332,429.863 79.332,422.664 217.402,422.664 221.55,426.264 					"/>
				</g>
				<g>
					<polygon fill="#266279" points="222.792,422.664 360.863,422.664 360.863,429.863 222.792,429.863 226.94,426.264 					"/>
				</g>
			</g>
			<g>
				<g>
					<polygon fill="#266279" points="217.402,443.777 79.332,443.777 79.332,436.578 217.402,436.578 221.55,440.178 					"/>
				</g>
				<g>
					<polygon fill="#266279" points="222.792,436.578 360.863,436.578 360.863,443.777 222.792,443.777 226.94,440.178 					"/>
				</g>
			</g>
			<g>
				<g>
					<polygon fill="#266279" points="217.402,457.691 79.332,457.691 79.332,450.49 217.402,450.49 221.55,454.09 					"/>
				</g>
				<g>
					<polygon fill="#266279" points="222.792,450.49 360.863,450.49 360.863,457.691 222.792,457.691 226.94,454.09 					"/>
				</g>
			</g>
			<g>
				<g>
					<polygon fill="#266279" points="217.402,471.605 79.332,471.605 79.332,464.404 217.402,464.404 221.55,468.005 					"/>
				</g>
				<g>
					<polygon fill="#266279" points="222.792,464.404 360.863,464.404 360.863,471.605 222.792,471.605 226.94,468.005 					"/>
				</g>
			</g>
		</g>
	</g>
	<g>
		<g>
			<g>
				<g>
					<polygon fill="#266279" points="217.402,68.104 79.332,68.104 79.332,60.902 217.402,60.902 221.549,64.505 					"/>
				</g>
				<g>
					<polygon fill="#266279" points="222.792,60.902 360.863,60.902 360.863,68.104 222.792,68.104 226.94,64.505 					"/>
				</g>
			</g>
			<g>
				<g>
					<polygon fill="#266279" points="217.402,151.586 79.332,151.586 79.332,144.387 217.402,144.387 221.549,147.986 					"/>
				</g>
				<g>
					<polygon fill="#266279" points="222.792,144.387 360.863,144.387 360.863,151.586 222.792,151.586 226.94,147.986 					"/>
				</g>
			</g>
			<g>
				<g>
					<polygon fill="#266279" points="217.402,95.932 79.332,95.932 79.332,88.732 217.402,88.732 221.549,92.33 					"/>
				</g>
				<g>
					<polygon fill="#266279" points="222.792,88.732 360.863,88.732 360.863,95.932 222.792,95.932 226.94,92.33 					"/>
				</g>
			</g>
			<g>
				<g>
					<polygon fill="#266279" points="217.402,82.016 79.332,82.016 79.332,74.816 217.402,74.816 221.549,78.416 					"/>
				</g>
				<g>
					<polygon fill="#266279" points="222.792,74.816 360.863,74.816 360.863,82.016 222.792,82.016 226.94,78.416 					"/>
				</g>
			</g>
			<g>
				<g>
					<polygon fill="#266279" points="217.402,109.846 79.332,109.846 79.332,102.646 217.402,102.646 221.549,106.244 					"/>
				</g>
				<g>
					<polygon fill="#266279" points="222.792,102.646 360.863,102.646 360.863,109.846 222.792,109.846 226.94,106.244 					"/>
				</g>
			</g>
			<g>
				<g>
					<polygon fill="#266279" points="217.402,123.758 79.332,123.758 79.332,116.559 217.402,116.559 221.549,120.158 					"/>
				</g>
				<g>
					<polygon fill="#266279" points="222.792,116.559 360.863,116.559 360.863,123.758 222.792,123.758 226.94,120.158 					"/>
				</g>
			</g>
			<g>
				<g>
					<polygon fill="#266279" points="217.402,137.673 79.332,137.673 79.332,130.473 217.402,130.473 221.549,134.072 					"/>
				</g>
				<g>
					<polygon fill="#266279" points="222.792,130.473 360.863,130.473 360.863,137.673 222.792,137.673 226.94,134.072 					"/>
				</g>
			</g>
		</g>
		<g>
			<path fill="#266279" d="M62.413,67.418c-0.958-0.194-1.844-0.552-2.656-1.072c-0.812-0.521-1.517-1.162-2.111-1.926
				c-0.596-0.764-1.06-1.627-1.393-2.589c-0.333-0.962-0.5-1.982-0.5-3.061c0-0.816,0.097-1.601,0.292-2.353
				c0.195-0.753,0.468-1.456,0.82-2.111s0.777-1.251,1.275-1.786c0.498-0.535,1.052-0.993,1.662-1.376
				c0.61-0.381,1.267-0.677,1.971-0.887s1.441-0.314,2.212-0.314s1.51,0.104,2.218,0.314c0.707,0.21,1.366,0.506,1.977,0.887
				c0.61,0.383,1.164,0.841,1.662,1.376c0.498,0.535,0.924,1.131,1.28,1.786c0.355,0.655,0.63,1.358,0.825,2.111
				c0.195,0.752,0.292,1.536,0.292,2.353c0,1.093-0.172,2.126-0.517,3.1s-0.822,1.846-1.432,2.616
				c-0.61,0.771-1.335,1.416-2.173,1.932c-0.838,0.518-1.748,0.861-2.729,1.033c0.232,0.098,0.462,0.204,0.69,0.32
				c0.229,0.116,0.459,0.225,0.691,0.326c0.232,0.101,0.462,0.187,0.691,0.258c0.228,0.071,0.462,0.11,0.702,0.118
				c0.232,0,0.458-0.03,0.679-0.09c0.221-0.06,0.421-0.153,0.601-0.28c0.18-0.128,0.335-0.293,0.466-0.494
				c0.131-0.203,0.219-0.449,0.264-0.742l2.504,1.247c-0.067,0.547-0.223,1.041-0.466,1.482c-0.243,0.441-0.556,0.819-0.938,1.134
				s-0.816,0.559-1.303,0.73s-1.003,0.258-1.55,0.258c-0.442,0-0.885-0.084-1.331-0.252c-0.445-0.169-0.876-0.353-1.291-0.551
				c-0.416-0.198-0.807-0.382-1.174-0.55c-0.367-0.169-0.689-0.253-0.966-0.253c-0.12,0-0.227-0.002-0.32-0.006
				c-0.093-0.004-0.185-0.004-0.275,0s-0.189,0.016-0.297,0.034c-0.109,0.019-0.234,0.054-0.376,0.106L62.413,67.418z
				 M63.985,64.061c0.651,0,1.249-0.141,1.792-0.422c0.542-0.28,1.009-0.662,1.398-1.146c0.389-0.482,0.691-1.044,0.904-1.685
				c0.214-0.64,0.32-1.319,0.32-2.038c0-0.727-0.108-1.411-0.326-2.056c-0.217-0.644-0.522-1.207-0.916-1.689
				c-0.393-0.483-0.859-0.865-1.398-1.146c-0.539-0.281-1.13-0.421-1.774-0.421s-1.235,0.14-1.774,0.421
				c-0.539,0.28-1.003,0.662-1.393,1.146c-0.389,0.482-0.694,1.046-0.916,1.689c-0.221,0.645-0.331,1.329-0.331,2.056
				c0,0.719,0.11,1.398,0.331,2.038c0.221,0.641,0.526,1.202,0.916,1.685c0.389,0.483,0.854,0.865,1.393,1.146
				C62.75,63.92,63.341,64.061,63.985,64.061z"/>
		</g>
	</g>
	<g>
		<g>
			<path fill="#266279" d="M59.411,161.926h7.289v3.088h-1.797v10.86h3.706c0.097,0,0.193-0.028,0.286-0.084
				c0.094-0.057,0.176-0.13,0.247-0.22c0.071-0.09,0.129-0.187,0.174-0.291c0.045-0.105,0.067-0.206,0.067-0.304v-2.28h3.639v6.256
				H59.411v-3.077h1.763v-10.86h-1.763V161.926z"/>
		</g>
		<g>
			<g>
				<g>
					<polygon fill="#266279" points="217.297,193.328 79.227,193.328 79.227,186.13 217.297,186.13 221.446,189.729 					"/>
				</g>
				<g>
					<polygon fill="#266279" points="222.688,186.13 360.758,186.13 360.758,193.328 222.688,193.328 226.836,189.729 					"/>
				</g>
			</g>
			<g>
				<g>
					<polygon fill="#266279" points="217.297,179.414 79.227,179.414 79.227,172.215 217.297,172.215 221.446,175.814 					"/>
				</g>
				<g>
					<polygon fill="#266279" points="222.688,172.215 360.758,172.215 360.758,179.414 222.688,179.414 226.836,175.814 					"/>
				</g>
			</g>
			<g>
				<g>
					<polygon fill="#266279" points="217.297,207.242 79.227,207.242 79.227,200.043 217.297,200.043 221.446,203.641 					"/>
				</g>
				<g>
					<polygon fill="#266279" points="222.688,200.043 360.758,200.043 360.758,207.242 222.688,207.242 226.836,203.641 					"/>
				</g>
			</g>
			<g>
				<g>
					<polygon fill="#266279" points="217.297,235.068 79.227,235.068 79.227,227.869 217.297,227.869 221.446,231.469 					"/>
				</g>
				<g>
					<polygon fill="#266279" points="222.688,227.869 360.758,227.869 360.758,235.068 222.688,235.068 226.836,231.469 					"/>
				</g>
			</g>
			<g>
				<g>
					<polygon fill="#266279" points="217.402,221.156 79.332,221.156 79.332,213.957 217.402,213.957 221.549,217.557 					"/>
				</g>
				<g>
					<polygon fill="#266279" points="222.792,213.957 360.863,213.957 360.863,221.156 222.792,221.156 226.94,217.557 					"/>
				</g>
			</g>
			<g>
				<g>
					<polygon fill="#266279" points="217.297,248.984 79.227,248.984 79.227,241.785 217.297,241.785 221.446,245.383 					"/>
				</g>
				<g>
					<polygon fill="#266279" points="222.688,241.785 360.758,241.785 360.758,248.984 222.688,248.984 226.836,245.383 					"/>
				</g>
			</g>
			<g>
				<g>
					<polygon fill="#266279" points="217.297,262.896 79.227,262.896 79.227,255.697 217.297,255.697 221.446,259.298 					"/>
				</g>
				<g>
					<polygon fill="#266279" points="222.688,255.697 360.758,255.697 360.758,262.896 222.688,262.896 226.836,259.298 					"/>
				</g>
			</g>
		</g>
	</g>
</g>
</svg>
