<?xml version="1.0" encoding="utf-8"?>
<!-- Generator: Adobe Illustrator 16.0.4, SVG Export Plug-In . SVG Version: 6.00 Build 0)  -->
<!DOCTYPE svg PUBLIC "-//W3C//DTD SVG 1.1//EN" "http://www.w3.org/Graphics/SVG/1.1/DTD/svg11.dtd">
<svg version="1.1" id="Layer_1" xmlns="http://www.w3.org/2000/svg" xmlns:xlink="http://www.w3.org/1999/xlink" x="0px" y="0px"
	 width="448.747px" height="616.439px" viewBox="0 0 448.747 616.439" enable-background="new 0 0 448.747 616.439"
	 xml:space="preserve">
<rect x="0.5" y="0.5" fill="#FFFFFF" stroke="#C68D06" stroke-miterlimit="10" width="447.747" height="615.439"/>
<g>
	<path fill="#C68D06" d="M343.44,567.385c0-7.98,4.201-13.896,10.151-13.896c2.87,0,4.796,0.875,6.195,1.961l-1.295,1.891
		c-1.33-1.051-2.625-1.682-4.971-1.682c-4.725,0-7.631,5.041-7.665,11.482c1.645-1.785,4.095-3.467,7.386-3.467
		c5.46,0,8.086,3.396,8.086,8.086c0,4.9-3.466,8.611-8.682,8.611C347.536,580.371,343.44,576.275,343.44,567.385z M358.912,571.795
		c0-3.465-1.75-5.984-5.95-5.984c-2.87,0-5.426,1.609-7.001,3.814c0.525,6.021,3.36,8.611,6.791,8.611
		C356.461,578.236,358.912,575.891,358.912,571.795z"/>
	<path fill="#C68D06" d="M380.472,556.254h-13.337v-2.275h15.927v2.135l-10.956,23.768h-2.556L380.472,556.254z"/>
	<path fill="#C68D06" d="M389.36,553.979h2.556l7.735,22.613h0.07l7.771-22.613h2.416l-9.102,26.008h-2.345L389.36,553.979z"/>
</g>
<g>
	<rect x="79.883" y="158.217" fill="#C0DDE7" width="281.739" height="7.199"/>
</g>
<g>
	<rect x="79.883" y="172.129" fill="#C0DDE7" width="281.738" height="7.199"/>
</g>
<g>
	<rect x="79.883" y="186.043" fill="#C0DDE7" width="281.739" height="7.201"/>
</g>
<g>
	<rect x="79.883" y="199.957" fill="#C0DDE7" width="281.739" height="7.199"/>
</g>
<g>
	<rect x="79.883" y="213.871" fill="#C0DDE7" width="281.739" height="7.199"/>
</g>
<g>
	<rect x="79.883" y="227.785" fill="#C0DDE7" width="281.739" height="7.199"/>
</g>
<g>
	<rect x="79.883" y="241.699" fill="#C0DDE7" width="281.738" height="7.199"/>
</g>
<g>
	<rect x="79.883" y="255.611" fill="#C0DDE7" width="281.738" height="7.201"/>
</g>
<g>
	<rect x="79.883" y="269.527" fill="#C0DDE7" width="281.739" height="7.199"/>
</g>
<g>
	<rect x="79.883" y="283.439" fill="#C0DDE7" width="281.738" height="7.201"/>
</g>
<g>
	<rect x="79.883" y="297.354" fill="#C0DDE7" width="281.739" height="7.201"/>
</g>
<g>
	<rect x="79.883" y="311.268" fill="#C0DDE7" width="281.739" height="7.201"/>
</g>
<g>
	<rect x="79.883" y="325.182" fill="#C0DDE7" width="281.739" height="7.199"/>
</g>
<g>
	<rect x="79.883" y="339.096" fill="#C0DDE7" width="281.738" height="7.199"/>
</g>
<g>
	<rect x="79.883" y="353.01" fill="#C0DDE7" width="281.739" height="7.199"/>
</g>
<g>
	<rect x="79.883" y="366.924" fill="#C0DDE7" width="281.739" height="7.199"/>
</g>
<g>
	<rect x="79.883" y="380.838" fill="#C0DDE7" width="281.739" height="7.199"/>
</g>
<g>
	<rect x="79.883" y="394.752" fill="#C0DDE7" width="281.739" height="7.199"/>
</g>
<g>
	<rect x="79.883" y="408.664" fill="#C0DDE7" width="281.738" height="7.199"/>
</g>
<g>
	<rect x="79.883" y="422.578" fill="#C0DDE7" width="281.739" height="7.201"/>
</g>
<g>
	<rect x="79.883" y="436.492" fill="#C0DDE7" width="281.738" height="7.199"/>
</g>
<g>
	<rect x="79.883" y="450.406" fill="#C0DDE7" width="281.739" height="7.199"/>
</g>
<g>
	<rect x="79.883" y="464.32" fill="#C0DDE7" width="281.738" height="7.199"/>
</g>
<g>
	<rect x="79.883" y="478.234" fill="#C0DDE7" width="281.739" height="7.199"/>
</g>
<g>
	<rect x="79.883" y="60.818" fill="#C0DDE7" width="281.739" height="7.201"/>
</g>
<g>
	<rect x="79.883" y="74.732" fill="#C0DDE7" width="281.738" height="7.201"/>
</g>
<g>
	<rect x="79.883" y="144.303" fill="#C0DDE7" width="281.738" height="7.199"/>
</g>
<g>
	<rect x="79.883" y="88.646" fill="#C0DDE7" width="281.739" height="7.199"/>
</g>
<g>
	<rect x="79.883" y="102.561" fill="#C0DDE7" width="281.738" height="7.199"/>
</g>
<g>
	<rect x="79.883" y="116.475" fill="#C0DDE7" width="281.738" height="7.199"/>
</g>
<g>
	<rect x="79.883" y="130.389" fill="#C0DDE7" width="281.738" height="7.199"/>
</g>
<g>
	<g>
		<g>
			<path fill="#266279" d="M58.313,273.842h9.007c0.876,0,1.658,0.131,2.347,0.393s1.269,0.611,1.741,1.051
				c0.472,0.438,0.833,0.947,1.083,1.527c0.251,0.58,0.376,1.184,0.376,1.812c0,0.576-0.062,1.082-0.185,1.518
				c-0.124,0.434-0.304,0.818-0.539,1.156c-0.236,0.336-0.526,0.635-0.871,0.893s-0.737,0.492-1.179,0.701
				c0.382,0.195,0.719,0.492,1.011,0.893s0.513,0.92,0.663,1.557l0.573,2.213h1.404l0.022,3.312h-4.941l-0.674-4.043
				c-0.067-0.48-0.17-0.893-0.309-1.242c-0.138-0.348-0.324-0.633-0.556-0.854s-0.515-0.383-0.848-0.488
				c-0.333-0.104-0.729-0.156-1.185-0.156h-1.449v3.705h1.561v3.078h-7.053v-3.078h1.763V276.93h-1.763V273.842z M63.805,276.93
				v4.121h2.235c0.427,0,0.811-0.039,1.151-0.117c0.341-0.078,0.633-0.203,0.876-0.371c0.244-0.168,0.431-0.379,0.562-0.635
				c0.131-0.254,0.197-0.557,0.197-0.908c0-0.66-0.236-1.172-0.708-1.539s-1.164-0.551-2.078-0.551H63.805z"/>
		</g>
		<g>
			<g>
				<g>
					<polygon fill="#266279" points="218.161,290.641 80.09,290.641 80.09,283.441 218.161,283.441 222.309,287.041 					"/>
				</g>
				<g>
					<polygon fill="#266279" points="223.551,283.441 361.622,283.441 361.622,290.641 223.551,290.641 227.699,287.041 					"/>
				</g>
			</g>
			<g>
				<g>
					<polygon fill="#266279" points="218.161,304.555 80.09,304.555 80.09,297.355 218.161,297.355 222.309,300.955 					"/>
				</g>
				<g>
					<polygon fill="#266279" points="223.551,297.355 361.622,297.355 361.622,304.555 223.551,304.555 227.699,300.955 					"/>
				</g>
			</g>
			<g>
				<g>
					<polygon fill="#266279" points="218.161,374.123 80.09,374.123 80.09,366.924 218.161,366.924 222.309,370.523 					"/>
				</g>
				<g>
					<polygon fill="#266279" points="223.551,366.924 361.622,366.924 361.622,374.123 223.551,374.123 227.699,370.523 					"/>
				</g>
			</g>
			<g>
				<g>
					<polygon fill="#266279" points="218.161,318.469 80.09,318.469 80.09,311.27 218.161,311.27 222.309,314.869 					"/>
				</g>
				<g>
					<polygon fill="#266279" points="223.551,311.27 361.622,311.27 361.622,318.469 223.551,318.469 227.699,314.869 					"/>
				</g>
			</g>
			<g>
				<g>
					<polygon fill="#266279" points="218.161,332.383 80.09,332.383 80.09,325.184 218.161,325.184 222.309,328.783 					"/>
				</g>
				<g>
					<polygon fill="#266279" points="223.551,325.184 361.622,325.184 361.622,332.383 223.551,332.383 227.699,328.783 					"/>
				</g>
			</g>
			<g>
				<g>
					<polygon fill="#266279" points="218.161,346.297 80.09,346.297 80.09,339.096 218.161,339.096 222.309,342.695 					"/>
				</g>
				<g>
					<polygon fill="#266279" points="223.551,339.096 361.622,339.096 361.622,346.297 223.551,346.297 227.699,342.695 					"/>
				</g>
			</g>
			<g>
				<g>
					<polygon fill="#266279" points="218.161,360.211 80.09,360.211 80.09,353.01 218.161,353.01 222.309,356.609 					"/>
				</g>
				<g>
					<polygon fill="#266279" points="223.551,353.01 361.622,353.01 361.622,360.211 223.551,360.211 227.699,356.609 					"/>
				</g>
			</g>
		</g>
	</g>
	<g>
		<g>
			<path fill="#266279" d="M61.054,385.508h13.173v5.807h-3.65v-2.393h-4.032v3.582h3.493v3.268h-3.493v3.684h1.797v3.078h-7.289
				v-3.078h1.763v-10.533h-1.763V385.508z"/>
		</g>
		<g>
			<g>
				<g>
					<polygon fill="#266279" points="218.161,401.951 80.09,401.951 80.09,394.752 218.161,394.752 222.309,398.352 					"/>
				</g>
				<g>
					<polygon fill="#266279" points="223.551,394.752 361.622,394.752 361.622,401.951 223.551,401.951 227.699,398.352 					"/>
				</g>
			</g>
			<g>
				<g>
					<polygon fill="#266279" points="218.161,415.865 80.09,415.865 80.09,408.666 218.161,408.666 222.309,412.266 					"/>
				</g>
				<g>
					<polygon fill="#266279" points="223.551,408.666 361.622,408.666 361.622,415.865 223.551,415.865 227.699,412.266 					"/>
				</g>
			</g>
			<g>
				<g>
					<polygon fill="#266279" points="218.161,485.434 80.09,485.434 80.09,478.234 218.161,478.234 222.309,481.834 					"/>
				</g>
				<g>
					<polygon fill="#266279" points="223.551,478.234 361.622,478.234 361.622,485.434 223.551,485.434 227.699,481.834 					"/>
				</g>
			</g>
			<g>
				<g>
					<polygon fill="#266279" points="218.161,429.779 80.09,429.779 80.09,422.58 218.161,422.58 222.309,426.18 					"/>
				</g>
				<g>
					<polygon fill="#266279" points="223.551,422.58 361.622,422.58 361.622,429.779 223.551,429.779 227.699,426.18 					"/>
				</g>
			</g>
			<g>
				<g>
					<polygon fill="#266279" points="218.161,443.693 80.09,443.693 80.09,436.494 218.161,436.494 222.309,440.094 					"/>
				</g>
				<g>
					<polygon fill="#266279" points="223.551,436.494 361.622,436.494 361.622,443.693 223.551,443.693 227.699,440.094 					"/>
				</g>
			</g>
			<g>
				<g>
					<polygon fill="#266279" points="218.161,457.607 80.09,457.607 80.09,450.406 218.161,450.406 222.309,454.006 					"/>
				</g>
				<g>
					<polygon fill="#266279" points="223.551,450.406 361.622,450.406 361.622,457.607 223.551,457.607 227.699,454.006 					"/>
				</g>
			</g>
			<g>
				<g>
					<polygon fill="#266279" points="218.161,471.521 80.09,471.521 80.09,464.32 218.161,464.32 222.309,467.92 					"/>
				</g>
				<g>
					<polygon fill="#266279" points="223.551,464.32 361.622,464.32 361.622,471.521 223.551,471.521 227.699,467.92 					"/>
				</g>
			</g>
		</g>
	</g>
	<g>
		<g>
			<g>
				<g>
					<polygon fill="#266279" points="218.161,68.02 80.09,68.02 80.09,60.819 218.161,60.819 222.309,64.42 					"/>
				</g>
				<g>
					<polygon fill="#266279" points="223.551,60.819 361.622,60.819 361.622,68.02 223.551,68.02 227.699,64.42 					"/>
				</g>
			</g>
			<g>
				<g>
					<polygon fill="#266279" points="218.161,151.502 80.09,151.502 80.09,144.303 218.161,144.303 222.309,147.902 					"/>
				</g>
				<g>
					<polygon fill="#266279" points="223.551,144.303 361.622,144.303 361.622,151.502 223.551,151.502 227.699,147.902 					"/>
				</g>
			</g>
			<g>
				<g>
					<polygon fill="#266279" points="218.161,95.848 80.09,95.848 80.09,88.648 218.161,88.648 222.309,92.247 					"/>
				</g>
				<g>
					<polygon fill="#266279" points="223.551,88.648 361.622,88.648 361.622,95.848 223.551,95.848 227.699,92.247 					"/>
				</g>
			</g>
			<g>
				<g>
					<polygon fill="#266279" points="218.161,81.932 80.09,81.932 80.09,74.732 218.161,74.732 222.309,78.332 					"/>
				</g>
				<g>
					<polygon fill="#266279" points="223.551,74.732 361.622,74.732 361.622,81.932 223.551,81.932 227.699,78.332 					"/>
				</g>
			</g>
			<g>
				<g>
					<polygon fill="#266279" points="218.161,109.762 80.09,109.762 80.09,102.562 218.161,102.562 222.309,106.161 					"/>
				</g>
				<g>
					<polygon fill="#266279" points="223.551,102.562 361.622,102.562 361.622,109.762 223.551,109.762 227.699,106.161 					"/>
				</g>
			</g>
			<g>
				<g>
					<polygon fill="#266279" points="218.161,123.674 80.09,123.674 80.09,116.475 218.161,116.475 222.309,120.074 					"/>
				</g>
				<g>
					<polygon fill="#266279" points="223.551,116.475 361.622,116.475 361.622,123.674 223.551,123.674 227.699,120.074 					"/>
				</g>
			</g>
			<g>
				<g>
					<polygon fill="#266279" points="218.161,137.588 80.09,137.588 80.09,130.389 218.161,130.389 222.309,133.988 					"/>
				</g>
				<g>
					<polygon fill="#266279" points="223.551,130.389 361.622,130.389 361.622,137.588 223.551,137.588 227.699,133.988 					"/>
				</g>
			</g>
		</g>
		<g>
			<path fill="#266279" d="M58.558,50.174h6.536c0.779,0,1.525,0.102,2.24,0.303c0.715,0.203,1.382,0.486,1.999,0.854
				c0.618,0.367,1.18,0.807,1.685,1.32c0.506,0.512,0.938,1.084,1.297,1.713s0.636,1.305,0.831,2.031s0.292,1.482,0.292,2.27
				c0,0.785-0.097,1.541-0.292,2.268s-0.472,1.406-0.831,2.039s-0.792,1.209-1.297,1.729c-0.505,0.521-1.066,0.967-1.685,1.338
				c-0.617,0.369-1.284,0.656-1.999,0.859c-0.715,0.201-1.461,0.303-2.24,0.303h-6.536v-3.078h1.359V53.262h-1.359V50.174z
				 M63.646,53.262v10.859h1.426c0.606,0,1.179-0.143,1.718-0.426c0.539-0.285,1.007-0.672,1.404-1.162s0.711-1.068,0.943-1.73
				s0.348-1.375,0.348-2.139c0-0.756-0.116-1.465-0.348-2.123s-0.546-1.232-0.943-1.719s-0.865-0.867-1.404-1.145
				s-1.112-0.416-1.718-0.416H63.646z"/>
		</g>
	</g>
	<g>
		<g>
			<path fill="#266279" d="M58.454,161.842h6.536c0.779,0,1.525,0.102,2.24,0.303c0.715,0.203,1.382,0.486,1.999,0.854
				c0.618,0.367,1.18,0.807,1.685,1.32c0.506,0.512,0.938,1.084,1.297,1.713s0.636,1.305,0.831,2.031s0.292,1.482,0.292,2.27
				c0,0.785-0.097,1.541-0.292,2.268s-0.472,1.406-0.831,2.039s-0.792,1.209-1.297,1.729c-0.505,0.521-1.066,0.967-1.685,1.338
				c-0.617,0.369-1.284,0.656-1.999,0.859c-0.715,0.201-1.461,0.303-2.24,0.303h-6.536v-3.078h1.359V164.93h-1.359V161.842z
				 M63.541,164.93v10.859h1.426c0.606,0,1.179-0.143,1.718-0.426c0.539-0.285,1.007-0.672,1.404-1.162s0.711-1.068,0.943-1.73
				s0.348-1.375,0.348-2.139c0-0.756-0.116-1.465-0.348-2.123s-0.546-1.232-0.943-1.719s-0.865-0.867-1.404-1.145
				s-1.112-0.416-1.718-0.416H63.541z"/>
		</g>
		<g>
			<g>
				<g>
					<polygon fill="#266279" points="218.057,193.244 79.986,193.244 79.986,186.045 218.057,186.045 222.205,189.645 					"/>
				</g>
				<g>
					<polygon fill="#266279" points="223.447,186.045 361.518,186.045 361.518,193.244 223.447,193.244 227.595,189.645 					"/>
				</g>
			</g>
			<g>
				<g>
					<polygon fill="#266279" points="218.057,179.33 79.986,179.33 79.986,172.131 218.057,172.131 222.205,175.73 					"/>
				</g>
				<g>
					<polygon fill="#266279" points="223.447,172.131 361.518,172.131 361.518,179.33 223.447,179.33 227.595,175.73 					"/>
				</g>
			</g>
			<g>
				<g>
					<polygon fill="#266279" points="218.057,207.158 79.986,207.158 79.986,199.959 218.057,199.959 222.205,203.558 					"/>
				</g>
				<g>
					<polygon fill="#266279" points="223.447,199.959 361.518,199.959 361.518,207.158 223.447,207.158 227.595,203.558 					"/>
				</g>
			</g>
			<g>
				<g>
					<polygon fill="#266279" points="218.057,234.984 79.986,234.984 79.986,227.785 218.057,227.785 222.205,231.385 					"/>
				</g>
				<g>
					<polygon fill="#266279" points="223.447,227.785 361.518,227.785 361.518,234.984 223.447,234.984 227.595,231.385 					"/>
				</g>
			</g>
			<g>
				<g>
					<polygon fill="#266279" points="218.161,221.072 80.09,221.072 80.09,213.873 218.161,213.873 222.309,217.473 					"/>
				</g>
				<g>
					<polygon fill="#266279" points="223.551,213.873 361.622,213.873 361.622,221.072 223.551,221.072 227.699,217.473 					"/>
				</g>
			</g>
			<g>
				<g>
					<polygon fill="#266279" points="218.057,248.9 79.986,248.9 79.986,241.701 218.057,241.701 222.205,245.3 					"/>
				</g>
				<g>
					<polygon fill="#266279" points="223.447,241.701 361.518,241.701 361.518,248.9 223.447,248.9 227.595,245.3 					"/>
				</g>
			</g>
			<g>
				<g>
					<polygon fill="#266279" points="218.057,262.812 79.986,262.812 79.986,255.613 218.057,255.613 222.205,259.213 					"/>
				</g>
				<g>
					<polygon fill="#266279" points="223.447,255.613 361.518,255.613 361.518,262.812 223.447,262.812 227.595,259.213 					"/>
				</g>
			</g>
		</g>
	</g>
</g>
</svg>
