<?xml version="1.0" encoding="utf-8"?>
<!-- Generator: Adobe Illustrator 16.0.4, SVG Export Plug-In . SVG Version: 6.00 Build 0)  -->
<!DOCTYPE svg PUBLIC "-//W3C//DTD SVG 1.1//EN" "http://www.w3.org/Graphics/SVG/1.1/DTD/svg11.dtd">
<svg version="1.1" id="Layer_1" xmlns="http://www.w3.org/2000/svg" xmlns:xlink="http://www.w3.org/1999/xlink" x="0px" y="0px"
	 width="448.747px" height="616.44px" viewBox="0 0 448.747 616.44" enable-background="new 0 0 448.747 616.44"
	 xml:space="preserve">
<rect x="0.5" y="0.5" fill="#FFFFFF" stroke="#C68D06" stroke-miterlimit="10" width="447.747" height="615.44"/>
<g>
	<path fill="#C68D06" d="M341.797,567.383c0-7.98,4.201-13.896,10.151-13.896c2.87,0,4.796,0.875,6.195,1.961l-1.295,1.891
		c-1.33-1.051-2.625-1.682-4.971-1.682c-4.725,0-7.631,5.041-7.665,11.482c1.645-1.785,4.095-3.467,7.386-3.467
		c5.46,0,8.086,3.396,8.086,8.086c0,4.9-3.466,8.611-8.682,8.611C345.893,580.369,341.797,576.273,341.797,567.383z
		 M357.269,571.793c0-3.465-1.75-5.984-5.95-5.984c-2.87,0-5.426,1.609-7.001,3.814c0.525,6.021,3.36,8.611,6.791,8.611
		C354.819,578.234,357.269,575.889,357.269,571.793z"/>
	<path fill="#C68D06" d="M366.158,573.613c0-3.641,2.59-5.635,6.86-7.49c-3.535-1.576-5.671-3.256-5.671-6.406
		c0-3.186,2.976-6.266,8.051-6.266c5.181,0,8.017,3.08,8.017,6.266c0,3.08-2.065,4.691-5.741,6.336
		c4.411,1.926,6.931,3.781,6.931,7.561c0,3.676-3.395,6.791-9.206,6.791C369.553,580.404,366.158,577.359,366.158,573.613z
		 M382.154,573.475c0-2.906-2.45-4.516-6.896-6.371c-4.585,2.029-6.65,3.605-6.65,6.371c0,2.834,2.835,4.83,6.79,4.83
		C379.319,578.305,382.154,576.414,382.154,573.475z M381,559.822c0-2.064-1.716-4.27-5.602-4.27c-3.71,0-5.635,2.1-5.635,4.164
		c0,2.451,1.785,3.676,5.74,5.391C379.389,563.428,381,562.238,381,559.822z"/>
	<path fill="#C68D06" d="M390.762,553.977h2.556l7.735,22.613h0.07l7.771-22.613h2.416l-9.102,26.008h-2.345L390.762,553.977z"/>
</g>
<g>
	<rect x="79.883" y="158.217" fill="#C0DDE7" width="281.739" height="7.199"/>
</g>
<g>
	<rect x="79.883" y="172.129" fill="#C0DDE7" width="281.738" height="7.199"/>
</g>
<g>
	<rect x="79.883" y="186.043" fill="#C0DDE7" width="281.739" height="7.201"/>
</g>
<g>
	<rect x="79.883" y="199.957" fill="#C0DDE7" width="281.739" height="7.199"/>
</g>
<g>
	<rect x="79.883" y="213.871" fill="#C0DDE7" width="281.739" height="7.199"/>
</g>
<g>
	<rect x="79.883" y="227.785" fill="#C0DDE7" width="281.739" height="7.199"/>
</g>
<g>
	<rect x="79.883" y="241.699" fill="#C0DDE7" width="281.738" height="7.199"/>
</g>
<g>
	<rect x="79.883" y="255.611" fill="#C0DDE7" width="281.738" height="7.201"/>
</g>
<g>
	<rect x="79.883" y="269.527" fill="#C0DDE7" width="281.739" height="7.199"/>
</g>
<g>
	<rect x="79.883" y="283.439" fill="#C0DDE7" width="281.738" height="7.201"/>
</g>
<g>
	<rect x="79.883" y="297.354" fill="#C0DDE7" width="281.739" height="7.201"/>
</g>
<g>
	<rect x="79.883" y="311.268" fill="#C0DDE7" width="281.739" height="7.201"/>
</g>
<g>
	<rect x="79.883" y="325.182" fill="#C0DDE7" width="281.739" height="7.199"/>
</g>
<g>
	<rect x="79.883" y="339.096" fill="#C0DDE7" width="281.738" height="7.199"/>
</g>
<g>
	<rect x="79.883" y="353.01" fill="#C0DDE7" width="281.739" height="7.199"/>
</g>
<g>
	<rect x="79.883" y="366.924" fill="#C0DDE7" width="281.739" height="7.199"/>
</g>
<g>
	<rect x="79.883" y="380.838" fill="#C0DDE7" width="281.739" height="7.199"/>
</g>
<g>
	<rect x="79.883" y="394.752" fill="#C0DDE7" width="281.739" height="7.199"/>
</g>
<g>
	<rect x="79.883" y="408.664" fill="#C0DDE7" width="281.738" height="7.199"/>
</g>
<g>
	<rect x="79.883" y="422.578" fill="#C0DDE7" width="281.739" height="7.201"/>
</g>
<g>
	<rect x="79.883" y="436.492" fill="#C0DDE7" width="281.738" height="7.199"/>
</g>
<g>
	<rect x="79.883" y="450.406" fill="#C0DDE7" width="281.739" height="7.199"/>
</g>
<g>
	<rect x="79.883" y="464.32" fill="#C0DDE7" width="281.738" height="7.199"/>
</g>
<g>
	<rect x="79.883" y="478.234" fill="#C0DDE7" width="281.739" height="7.199"/>
</g>
<g>
	<rect x="79.883" y="60.818" fill="#C0DDE7" width="281.739" height="7.201"/>
</g>
<g>
	<rect x="79.883" y="74.732" fill="#C0DDE7" width="281.738" height="7.201"/>
</g>
<g>
	<rect x="79.883" y="144.303" fill="#C0DDE7" width="281.738" height="7.199"/>
</g>
<g>
	<rect x="79.883" y="88.646" fill="#C0DDE7" width="281.739" height="7.199"/>
</g>
<g>
	<rect x="79.883" y="102.561" fill="#C0DDE7" width="281.738" height="7.199"/>
</g>
<g>
	<rect x="79.883" y="116.475" fill="#C0DDE7" width="281.738" height="7.199"/>
</g>
<g>
	<rect x="79.883" y="130.389" fill="#C0DDE7" width="281.738" height="7.199"/>
</g>
<g>
	<g>
		<g>
			<path fill="#266279" d="M65.007,291.17c-0.771,0-1.509-0.104-2.212-0.314c-0.704-0.209-1.361-0.505-1.971-0.887
				c-0.61-0.382-1.165-0.841-1.662-1.376c-0.498-0.535-0.923-1.13-1.275-1.785s-0.625-1.357-0.82-2.106
				c-0.195-0.748-0.292-1.53-0.292-2.347s0.097-1.601,0.292-2.353c0.195-0.753,0.468-1.456,0.82-2.111s0.777-1.251,1.275-1.786
				c0.498-0.535,1.052-0.993,1.662-1.376c0.61-0.381,1.267-0.677,1.971-0.887s1.441-0.314,2.212-0.314s1.51,0.104,2.218,0.314
				c0.707,0.21,1.366,0.506,1.977,0.887c0.61,0.383,1.164,0.841,1.662,1.376c0.498,0.535,0.924,1.131,1.28,1.786
				c0.355,0.655,0.63,1.358,0.825,2.111c0.195,0.752,0.292,1.536,0.292,2.353c0,0.809-0.097,1.589-0.292,2.342
				c-0.195,0.752-0.47,1.456-0.825,2.111c-0.356,0.655-0.783,1.25-1.28,1.785c-0.498,0.535-1.052,0.994-1.662,1.376
				c-0.61,0.382-1.27,0.678-1.977,0.887C66.517,291.065,65.778,291.17,65.007,291.17z M65.007,287.645
				c0.651,0,1.249-0.141,1.792-0.422c0.542-0.28,1.009-0.662,1.398-1.146c0.389-0.482,0.691-1.044,0.904-1.685
				c0.214-0.64,0.32-1.319,0.32-2.038c0-0.727-0.108-1.411-0.326-2.056c-0.217-0.644-0.522-1.207-0.916-1.689
				c-0.393-0.483-0.859-0.865-1.398-1.146c-0.539-0.281-1.13-0.421-1.774-0.421s-1.235,0.14-1.774,0.421
				c-0.539,0.28-1.003,0.662-1.393,1.146c-0.389,0.482-0.694,1.046-0.916,1.689c-0.221,0.645-0.331,1.329-0.331,2.056
				c0,0.719,0.11,1.398,0.331,2.038c0.221,0.641,0.526,1.202,0.916,1.685c0.389,0.483,0.854,0.865,1.393,1.146
				C63.771,287.504,64.363,287.645,65.007,287.645z"/>
		</g>
		<g>
			<g>
				<g>
					<polygon fill="#266279" points="218.161,290.641 80.09,290.641 80.09,283.441 218.161,283.441 222.309,287.041 					"/>
				</g>
				<g>
					<polygon fill="#266279" points="223.551,283.441 361.622,283.441 361.622,290.641 223.551,290.641 227.699,287.041 					"/>
				</g>
			</g>
			<g>
				<g>
					<polygon fill="#266279" points="218.161,304.555 80.09,304.555 80.09,297.355 218.161,297.355 222.309,300.955 					"/>
				</g>
				<g>
					<polygon fill="#266279" points="223.551,297.355 361.622,297.355 361.622,304.555 223.551,304.555 227.699,300.955 					"/>
				</g>
			</g>
			<g>
				<g>
					<polygon fill="#266279" points="218.161,374.123 80.09,374.123 80.09,366.924 218.161,366.924 222.309,370.523 					"/>
				</g>
				<g>
					<polygon fill="#266279" points="223.551,366.924 361.622,366.924 361.622,374.123 223.551,374.123 227.699,370.523 					"/>
				</g>
			</g>
			<g>
				<g>
					<polygon fill="#266279" points="218.161,318.469 80.09,318.469 80.09,311.27 218.161,311.27 222.309,314.869 					"/>
				</g>
				<g>
					<polygon fill="#266279" points="223.551,311.27 361.622,311.27 361.622,318.469 223.551,318.469 227.699,314.869 					"/>
				</g>
			</g>
			<g>
				<g>
					<polygon fill="#266279" points="218.161,332.383 80.09,332.383 80.09,325.184 218.161,325.184 222.309,328.783 					"/>
				</g>
				<g>
					<polygon fill="#266279" points="223.551,325.184 361.622,325.184 361.622,332.383 223.551,332.383 227.699,328.783 					"/>
				</g>
			</g>
			<g>
				<g>
					<polygon fill="#266279" points="218.161,346.297 80.09,346.297 80.09,339.096 218.161,339.096 222.309,342.695 					"/>
				</g>
				<g>
					<polygon fill="#266279" points="223.551,339.096 361.622,339.096 361.622,346.297 223.551,346.297 227.699,342.695 					"/>
				</g>
			</g>
			<g>
				<g>
					<polygon fill="#266279" points="218.161,360.211 80.09,360.211 80.09,353.01 218.161,353.01 222.309,356.609 					"/>
				</g>
				<g>
					<polygon fill="#266279" points="223.551,353.01 361.622,353.01 361.622,360.211 223.551,360.211 227.699,356.609 					"/>
				</g>
			</g>
		</g>
	</g>
	<g>
		<g>
			<path fill="#266279" d="M67.186,385.508h6.469v3.088h-1.381v13.938h-3.729l-7.086-11.006v7.929h1.426v3.077h-6.458v-3.077h1.404
				v-10.86h-1.381v-3.088h5.144l7.042,11.152v-8.064h-1.449V385.508z"/>
		</g>
		<g>
			<g>
				<g>
					<polygon fill="#266279" points="218.161,401.951 80.09,401.951 80.09,394.752 218.161,394.752 222.309,398.352 					"/>
				</g>
				<g>
					<polygon fill="#266279" points="223.551,394.752 361.622,394.752 361.622,401.951 223.551,401.951 227.699,398.352 					"/>
				</g>
			</g>
			<g>
				<g>
					<polygon fill="#266279" points="218.161,415.865 80.09,415.865 80.09,408.666 218.161,408.666 222.309,412.266 					"/>
				</g>
				<g>
					<polygon fill="#266279" points="223.551,408.666 361.622,408.666 361.622,415.865 223.551,415.865 227.699,412.266 					"/>
				</g>
			</g>
			<g>
				<g>
					<polygon fill="#266279" points="218.161,485.434 80.09,485.434 80.09,478.234 218.161,478.234 222.309,481.834 					"/>
				</g>
				<g>
					<polygon fill="#266279" points="223.551,478.234 361.622,478.234 361.622,485.434 223.551,485.434 227.699,481.834 					"/>
				</g>
			</g>
			<g>
				<g>
					<polygon fill="#266279" points="218.161,429.779 80.09,429.779 80.09,422.58 218.161,422.58 222.309,426.18 					"/>
				</g>
				<g>
					<polygon fill="#266279" points="223.551,422.58 361.622,422.58 361.622,429.779 223.551,429.779 227.699,426.18 					"/>
				</g>
			</g>
			<g>
				<g>
					<polygon fill="#266279" points="218.161,443.693 80.09,443.693 80.09,436.494 218.161,436.494 222.309,440.094 					"/>
				</g>
				<g>
					<polygon fill="#266279" points="223.551,436.494 361.622,436.494 361.622,443.693 223.551,443.693 227.699,440.094 					"/>
				</g>
			</g>
			<g>
				<g>
					<polygon fill="#266279" points="218.161,457.607 80.09,457.607 80.09,450.406 218.161,450.406 222.309,454.006 					"/>
				</g>
				<g>
					<polygon fill="#266279" points="223.551,450.406 361.622,450.406 361.622,457.607 223.551,457.607 227.699,454.006 					"/>
				</g>
			</g>
			<g>
				<g>
					<polygon fill="#266279" points="218.161,471.521 80.09,471.521 80.09,464.32 218.161,464.32 222.309,467.92 					"/>
				</g>
				<g>
					<polygon fill="#266279" points="223.551,464.32 361.622,464.32 361.622,471.521 223.551,471.521 227.699,467.92 					"/>
				</g>
			</g>
		</g>
	</g>
	<g>
		<g>
			<g>
				<g>
					<polygon fill="#266279" points="218.161,68.02 80.09,68.02 80.09,60.82 218.161,60.82 222.309,64.42 					"/>
				</g>
				<g>
					<polygon fill="#266279" points="223.551,60.82 361.622,60.82 361.622,68.02 223.551,68.02 227.699,64.42 					"/>
				</g>
			</g>
			<g>
				<g>
					<polygon fill="#266279" points="218.161,151.502 80.09,151.502 80.09,144.303 218.161,144.303 222.309,147.902 					"/>
				</g>
				<g>
					<polygon fill="#266279" points="223.551,144.303 361.622,144.303 361.622,151.502 223.551,151.502 227.699,147.902 					"/>
				</g>
			</g>
			<g>
				<g>
					<polygon fill="#266279" points="218.161,95.848 80.09,95.848 80.09,88.648 218.161,88.648 222.309,92.248 					"/>
				</g>
				<g>
					<polygon fill="#266279" points="223.551,88.648 361.622,88.648 361.622,95.848 223.551,95.848 227.699,92.248 					"/>
				</g>
			</g>
			<g>
				<g>
					<polygon fill="#266279" points="218.161,81.932 80.09,81.932 80.09,74.732 218.161,74.732 222.309,78.332 					"/>
				</g>
				<g>
					<polygon fill="#266279" points="223.551,74.732 361.622,74.732 361.622,81.932 223.551,81.932 227.699,78.332 					"/>
				</g>
			</g>
			<g>
				<g>
					<polygon fill="#266279" points="218.161,109.762 80.09,109.762 80.09,102.562 218.161,102.562 222.309,106.162 					"/>
				</g>
				<g>
					<polygon fill="#266279" points="223.551,102.562 361.622,102.562 361.622,109.762 223.551,109.762 227.699,106.162 					"/>
				</g>
			</g>
			<g>
				<g>
					<polygon fill="#266279" points="218.161,123.674 80.09,123.674 80.09,116.475 218.161,116.475 222.309,120.074 					"/>
				</g>
				<g>
					<polygon fill="#266279" points="223.551,116.475 361.622,116.475 361.622,123.674 223.551,123.674 227.699,120.074 					"/>
				</g>
			</g>
			<g>
				<g>
					<polygon fill="#266279" points="218.161,137.588 80.09,137.588 80.09,130.389 218.161,130.389 222.309,133.988 					"/>
				</g>
				<g>
					<polygon fill="#266279" points="223.551,130.389 361.622,130.389 361.622,137.588 223.551,137.588 227.699,133.988 					"/>
				</g>
			</g>
		</g>
		<g>
			<path fill="#266279" d="M59.895,50.174h13.544v5.807h-3.661v-2.415h-4.369v3.358h3.38v3.256h-3.38v3.942h4.369v-3.021h3.661
				v6.098H59.895v-3.077h1.786V53.565h-1.786V50.174z"/>
		</g>
	</g>
	<g>
		<g>
			<path fill="#266279" d="M60.172,161.842h7.289v3.088h-1.797v10.86h3.706c0.097,0,0.193-0.028,0.286-0.084
				c0.094-0.057,0.176-0.13,0.247-0.22c0.071-0.09,0.129-0.187,0.174-0.291c0.045-0.105,0.067-0.206,0.067-0.304v-2.28h3.639v6.256
				H60.172v-3.077h1.763v-10.86h-1.763V161.842z"/>
		</g>
		<g>
			<g>
				<g>
					<polygon fill="#266279" points="218.057,193.244 79.986,193.244 79.986,186.045 218.057,186.045 222.205,189.645 					"/>
				</g>
				<g>
					<polygon fill="#266279" points="223.447,186.045 361.518,186.045 361.518,193.244 223.447,193.244 227.595,189.645 					"/>
				</g>
			</g>
			<g>
				<g>
					<polygon fill="#266279" points="218.057,179.33 79.986,179.33 79.986,172.131 218.057,172.131 222.205,175.73 					"/>
				</g>
				<g>
					<polygon fill="#266279" points="223.447,172.131 361.518,172.131 361.518,179.33 223.447,179.33 227.595,175.73 					"/>
				</g>
			</g>
			<g>
				<g>
					<polygon fill="#266279" points="218.057,207.158 79.986,207.158 79.986,199.959 218.057,199.959 222.205,203.559 					"/>
				</g>
				<g>
					<polygon fill="#266279" points="223.447,199.959 361.518,199.959 361.518,207.158 223.447,207.158 227.595,203.559 					"/>
				</g>
			</g>
			<g>
				<g>
					<polygon fill="#266279" points="218.057,234.984 79.986,234.984 79.986,227.785 218.057,227.785 222.205,231.385 					"/>
				</g>
				<g>
					<polygon fill="#266279" points="223.447,227.785 361.518,227.785 361.518,234.984 223.447,234.984 227.595,231.385 					"/>
				</g>
			</g>
			<g>
				<g>
					<polygon fill="#266279" points="218.161,221.072 80.09,221.072 80.09,213.873 218.161,213.873 222.309,217.473 					"/>
				</g>
				<g>
					<polygon fill="#266279" points="223.551,213.873 361.622,213.873 361.622,221.072 223.551,221.072 227.699,217.473 					"/>
				</g>
			</g>
			<g>
				<g>
					<polygon fill="#266279" points="218.057,248.9 79.986,248.9 79.986,241.701 218.057,241.701 222.205,245.301 					"/>
				</g>
				<g>
					<polygon fill="#266279" points="223.447,241.701 361.518,241.701 361.518,248.9 223.447,248.9 227.595,245.301 					"/>
				</g>
			</g>
			<g>
				<g>
					<polygon fill="#266279" points="218.057,262.812 79.986,262.812 79.986,255.613 218.057,255.613 222.205,259.213 					"/>
				</g>
				<g>
					<polygon fill="#266279" points="223.447,255.613 361.518,255.613 361.518,262.812 223.447,262.812 227.595,259.213 					"/>
				</g>
			</g>
		</g>
	</g>
</g>
</svg>
