<?xml version="1.0" encoding="utf-8"?>
<!-- Generator: Adobe Illustrator 16.0.4, SVG Export Plug-In . SVG Version: 6.00 Build 0)  -->
<!DOCTYPE svg PUBLIC "-//W3C//DTD SVG 1.1//EN" "http://www.w3.org/Graphics/SVG/1.1/DTD/svg11.dtd">
<svg version="1.1" id="Layer_1" xmlns="http://www.w3.org/2000/svg" xmlns:xlink="http://www.w3.org/1999/xlink" x="0px" y="0px"
	 width="448.746px" height="616.44px" viewBox="0 0 448.746 616.44" enable-background="new 0 0 448.746 616.44"
	 xml:space="preserve">
<rect x="0.5" y="0.5" fill="#FFFFFF" stroke="#C68D06" stroke-miterlimit="10" width="447.746" height="615.44"/>
<g>
	<path fill="#C68D06" d="M338.177,569.638c0-7.98,4.201-13.896,10.151-13.896c2.87,0,4.796,0.875,6.195,1.961l-1.295,1.891
		c-1.33-1.051-2.625-1.682-4.971-1.682c-4.726,0-7.631,5.041-7.665,11.482c1.645-1.785,4.095-3.467,7.386-3.467
		c5.46,0,8.086,3.396,8.086,8.086c0,4.9-3.466,8.611-8.682,8.611C342.272,582.624,338.177,578.528,338.177,569.638z
		 M353.648,574.048c0-3.465-1.75-5.984-5.95-5.984c-2.87,0-5.426,1.609-7.001,3.814c0.525,6.021,3.36,8.611,6.791,8.611
		C351.198,580.489,353.648,578.144,353.648,574.048z"/>
	<path fill="#C68D06" d="M362.537,575.868c0-3.641,2.59-5.635,6.86-7.49c-3.535-1.576-5.671-3.256-5.671-6.406
		c0-3.186,2.976-6.266,8.052-6.266c5.18,0,8.016,3.08,8.016,6.266c0,3.08-2.065,4.691-5.741,6.336
		c4.411,1.926,6.931,3.781,6.931,7.561c0,3.676-3.395,6.791-9.205,6.791C365.933,582.659,362.537,579.614,362.537,575.868z
		 M378.533,575.729c0-2.906-2.45-4.516-6.896-6.371c-4.585,2.029-6.65,3.605-6.65,6.371c0,2.834,2.835,4.83,6.791,4.83
		C375.698,580.56,378.533,578.669,378.533,575.729z M377.378,562.077c0-2.064-1.715-4.27-5.6-4.27c-3.711,0-5.636,2.1-5.636,4.164
		c0,2.451,1.785,3.676,5.74,5.391C375.769,565.683,377.378,564.493,377.378,562.077z"/>
	<path fill="#C68D06" d="M389.207,556.231h8.681c5.776,0,8.996,2.451,8.996,7c0,4.201-2.45,6.301-6.195,7.002l6.546,11.9h-2.801
		l-6.336-11.621h-6.44v11.621h-2.45V556.231z M397.713,568.308c4.271,0,6.686-1.225,6.686-4.971c0-3.57-2.38-4.83-6.721-4.83h-6.021
		v9.801H397.713z"/>
</g>
<g>
	<rect x="80.048" y="158.094" fill="#C0DDE7" width="281.739" height="7.199"/>
</g>
<g>
	<rect x="80.049" y="172.007" fill="#C0DDE7" width="281.738" height="7.198"/>
</g>
<g>
	<rect x="80.048" y="185.92" fill="#C0DDE7" width="281.739" height="7.201"/>
</g>
<g>
	<rect x="80.048" y="199.834" fill="#C0DDE7" width="281.739" height="7.199"/>
</g>
<g>
	<rect x="80.048" y="213.748" fill="#C0DDE7" width="281.739" height="7.199"/>
</g>
<g>
	<rect x="80.048" y="227.662" fill="#C0DDE7" width="281.739" height="7.199"/>
</g>
<g>
	<rect x="80.049" y="241.576" fill="#C0DDE7" width="281.738" height="7.199"/>
</g>
<g>
	<rect x="80.049" y="255.488" fill="#C0DDE7" width="281.738" height="7.201"/>
</g>
<g>
	<rect x="80.048" y="269.404" fill="#C0DDE7" width="281.739" height="7.199"/>
</g>
<g>
	<rect x="80.049" y="283.316" fill="#C0DDE7" width="281.738" height="7.201"/>
</g>
<g>
	<rect x="80.048" y="297.23" fill="#C0DDE7" width="281.739" height="7.201"/>
</g>
<g>
	<rect x="80.048" y="311.145" fill="#C0DDE7" width="281.739" height="7.201"/>
</g>
<g>
	<rect x="80.048" y="325.059" fill="#C0DDE7" width="281.739" height="7.199"/>
</g>
<g>
	<rect x="80.049" y="338.973" fill="#C0DDE7" width="281.738" height="7.2"/>
</g>
<g>
	<rect x="80.048" y="352.887" fill="#C0DDE7" width="281.739" height="7.199"/>
</g>
<g>
	<rect x="80.048" y="366.801" fill="#C0DDE7" width="281.739" height="7.199"/>
</g>
<g>
	<rect x="80.048" y="380.716" fill="#C0DDE7" width="281.739" height="7.198"/>
</g>
<g>
	<rect x="80.048" y="394.629" fill="#C0DDE7" width="281.739" height="7.199"/>
</g>
<g>
	<rect x="80.049" y="408.541" fill="#C0DDE7" width="281.738" height="7.199"/>
</g>
<g>
	<rect x="80.048" y="422.455" fill="#C0DDE7" width="281.739" height="7.201"/>
</g>
<g>
	<rect x="80.049" y="436.369" fill="#C0DDE7" width="281.738" height="7.199"/>
</g>
<g>
	<rect x="80.048" y="450.283" fill="#C0DDE7" width="281.739" height="7.199"/>
</g>
<g>
	<rect x="80.049" y="464.197" fill="#C0DDE7" width="281.738" height="7.199"/>
</g>
<g>
	<rect x="80.048" y="478.111" fill="#C0DDE7" width="281.739" height="7.199"/>
</g>
<g>
	<rect x="80.048" y="60.695" fill="#C0DDE7" width="281.739" height="7.201"/>
</g>
<g>
	<rect x="80.049" y="74.609" fill="#C0DDE7" width="281.738" height="7.201"/>
</g>
<g>
	<rect x="80.049" y="144.18" fill="#C0DDE7" width="281.738" height="7.199"/>
</g>
<g>
	<rect x="80.048" y="88.523" fill="#C0DDE7" width="281.739" height="7.199"/>
</g>
<g>
	<rect x="80.049" y="102.438" fill="#C0DDE7" width="281.738" height="7.199"/>
</g>
<g>
	<rect x="80.049" y="116.352" fill="#C0DDE7" width="281.738" height="7.199"/>
</g>
<g>
	<rect x="80.049" y="130.266" fill="#C0DDE7" width="281.738" height="7.2"/>
</g>
<g>
	<g>
		<g>
			<path fill="#266279" d="M58.827,273.718h6.536c0.779,0,1.525,0.102,2.24,0.303c0.715,0.203,1.382,0.488,1.999,0.854
				c0.618,0.367,1.18,0.809,1.685,1.32c0.506,0.514,0.938,1.084,1.297,1.713s0.636,1.307,0.831,2.033s0.292,1.482,0.292,2.268
				c0,0.787-0.097,1.543-0.292,2.27s-0.472,1.404-0.831,2.037s-0.792,1.209-1.297,1.73c-0.505,0.52-1.066,0.965-1.685,1.336
				c-0.617,0.371-1.284,0.656-1.999,0.859c-0.715,0.201-1.461,0.303-2.24,0.303h-6.536v-3.076h1.359v-10.861h-1.359V273.718z
				 M63.915,276.806v10.861h1.426c0.606,0,1.179-0.143,1.718-0.428c0.539-0.283,1.007-0.672,1.404-1.162s0.711-1.066,0.943-1.729
				c0.232-0.664,0.348-1.377,0.348-2.141c0-0.756-0.116-1.463-0.348-2.123c-0.232-0.658-0.546-1.23-0.943-1.717
				s-0.865-0.869-1.404-1.146s-1.112-0.416-1.718-0.416H63.915z"/>
		</g>
		<g>
			<g>
				<g>
					<polygon fill="#266279" points="218.326,290.518 80.256,290.518 80.256,283.318 218.326,283.318 222.475,286.918 					"/>
				</g>
				<g>
					<polygon fill="#266279" points="223.717,283.318 361.787,283.318 361.787,290.518 223.717,290.518 227.864,286.918 					"/>
				</g>
			</g>
			<g>
				<g>
					<polygon fill="#266279" points="218.326,304.432 80.256,304.432 80.256,297.232 218.326,297.232 222.475,300.832 					"/>
				</g>
				<g>
					<polygon fill="#266279" points="223.717,297.232 361.787,297.232 361.787,304.432 223.717,304.432 227.864,300.832 					"/>
				</g>
			</g>
			<g>
				<g>
					<polygon fill="#266279" points="218.326,374 80.256,374 80.256,366.801 218.326,366.801 222.475,370.4 					"/>
				</g>
				<g>
					<polygon fill="#266279" points="223.717,366.801 361.787,366.801 361.787,374 223.717,374 227.864,370.4 					"/>
				</g>
			</g>
			<g>
				<g>
					<polygon fill="#266279" points="218.326,318.346 80.256,318.346 80.256,311.146 218.326,311.146 222.475,314.746 					"/>
				</g>
				<g>
					<polygon fill="#266279" points="223.717,311.146 361.787,311.146 361.787,318.346 223.717,318.346 227.864,314.746 					"/>
				</g>
			</g>
			<g>
				<g>
					<polygon fill="#266279" points="218.326,332.26 80.256,332.26 80.256,325.061 218.326,325.061 222.475,328.66 					"/>
				</g>
				<g>
					<polygon fill="#266279" points="223.717,325.061 361.787,325.061 361.787,332.26 223.717,332.26 227.864,328.66 					"/>
				</g>
			</g>
			<g>
				<g>
					<polygon fill="#266279" points="218.326,346.175 80.256,346.175 80.256,338.973 218.326,338.973 222.475,342.572 					"/>
				</g>
				<g>
					<polygon fill="#266279" points="223.717,338.973 361.787,338.973 361.787,346.175 223.717,346.175 227.864,342.572 					"/>
				</g>
			</g>
			<g>
				<g>
					<polygon fill="#266279" points="218.326,360.088 80.256,360.088 80.256,352.887 218.326,352.887 222.475,356.486 					"/>
				</g>
				<g>
					<polygon fill="#266279" points="223.717,352.887 361.787,352.887 361.787,360.088 223.717,360.088 227.864,356.486 					"/>
				</g>
			</g>
		</g>
	</g>
	<g>
		<g>
			<path fill="#266279" d="M58.827,385.384h6.536c0.779,0,1.525,0.102,2.24,0.303c0.715,0.203,1.382,0.488,1.999,0.854
				c0.618,0.367,1.18,0.809,1.685,1.32c0.506,0.514,0.938,1.084,1.297,1.713s0.636,1.307,0.831,2.033s0.292,1.482,0.292,2.268
				c0,0.787-0.097,1.543-0.292,2.27s-0.472,1.404-0.831,2.037s-0.792,1.209-1.297,1.73c-0.505,0.52-1.066,0.965-1.685,1.336
				c-0.617,0.371-1.284,0.656-1.999,0.859c-0.715,0.201-1.461,0.303-2.24,0.303h-6.536v-3.076h1.359v-10.861h-1.359V385.384z
				 M63.915,388.472v10.861h1.426c0.606,0,1.179-0.143,1.718-0.428c0.539-0.283,1.007-0.672,1.404-1.162s0.711-1.066,0.943-1.729
				c0.232-0.664,0.348-1.377,0.348-2.141c0-0.756-0.116-1.463-0.348-2.123c-0.232-0.658-0.546-1.23-0.943-1.717
				s-0.865-0.869-1.404-1.146s-1.112-0.416-1.718-0.416H63.915z"/>
		</g>
		<g>
			<g>
				<g>
					<polygon fill="#266279" points="218.326,401.828 80.256,401.828 80.256,394.629 218.326,394.629 222.475,398.229 					"/>
				</g>
				<g>
					<polygon fill="#266279" points="223.717,394.629 361.787,394.629 361.787,401.828 223.717,401.828 227.864,398.229 					"/>
				</g>
			</g>
			<g>
				<g>
					<polygon fill="#266279" points="218.326,415.742 80.256,415.742 80.256,408.543 218.326,408.543 222.475,412.143 					"/>
				</g>
				<g>
					<polygon fill="#266279" points="223.717,408.543 361.787,408.543 361.787,415.742 223.717,415.742 227.864,412.143 					"/>
				</g>
			</g>
			<g>
				<g>
					<polygon fill="#266279" points="218.326,485.311 80.256,485.311 80.256,478.111 218.326,478.111 222.475,481.711 					"/>
				</g>
				<g>
					<polygon fill="#266279" points="223.717,478.111 361.787,478.111 361.787,485.311 223.717,485.311 227.864,481.711 					"/>
				</g>
			</g>
			<g>
				<g>
					<polygon fill="#266279" points="218.326,429.656 80.256,429.656 80.256,422.457 218.326,422.457 222.475,426.057 					"/>
				</g>
				<g>
					<polygon fill="#266279" points="223.717,422.457 361.787,422.457 361.787,429.656 223.717,429.656 227.864,426.057 					"/>
				</g>
			</g>
			<g>
				<g>
					<polygon fill="#266279" points="218.326,443.57 80.256,443.57 80.256,436.371 218.326,436.371 222.475,439.971 					"/>
				</g>
				<g>
					<polygon fill="#266279" points="223.717,436.371 361.787,436.371 361.787,443.57 223.717,443.57 227.864,439.971 					"/>
				</g>
			</g>
			<g>
				<g>
					<polygon fill="#266279" points="218.326,457.484 80.256,457.484 80.256,450.283 218.326,450.283 222.475,453.884 					"/>
				</g>
				<g>
					<polygon fill="#266279" points="223.717,450.283 361.787,450.283 361.787,457.484 223.717,457.484 227.864,453.884 					"/>
				</g>
			</g>
			<g>
				<g>
					<polygon fill="#266279" points="218.326,471.398 80.256,471.398 80.256,464.197 218.326,464.197 222.475,467.798 					"/>
				</g>
				<g>
					<polygon fill="#266279" points="223.717,464.197 361.787,464.197 361.787,471.398 223.717,471.398 227.864,467.798 					"/>
				</g>
			</g>
		</g>
	</g>
	<g>
		<g>
			<g>
				<g>
					<polygon fill="#266279" points="218.326,67.896 80.256,67.896 80.256,60.696 218.326,60.696 222.474,64.298 					"/>
				</g>
				<g>
					<polygon fill="#266279" points="223.717,60.696 361.787,60.696 361.787,67.896 223.717,67.896 227.865,64.298 					"/>
				</g>
			</g>
			<g>
				<g>
					<polygon fill="#266279" points="218.326,151.379 80.256,151.379 80.256,144.18 218.326,144.18 222.474,147.779 					"/>
				</g>
				<g>
					<polygon fill="#266279" points="223.717,144.18 361.787,144.18 361.787,151.379 223.717,151.379 227.865,147.779 					"/>
				</g>
			</g>
			<g>
				<g>
					<polygon fill="#266279" points="218.326,95.725 80.256,95.725 80.256,88.525 218.326,88.525 222.474,92.124 					"/>
				</g>
				<g>
					<polygon fill="#266279" points="223.717,88.525 361.787,88.525 361.787,95.725 223.717,95.725 227.865,92.124 					"/>
				</g>
			</g>
			<g>
				<g>
					<polygon fill="#266279" points="218.326,81.809 80.256,81.809 80.256,74.609 218.326,74.609 222.474,78.209 					"/>
				</g>
				<g>
					<polygon fill="#266279" points="223.717,74.609 361.787,74.609 361.787,81.809 223.717,81.809 227.865,78.209 					"/>
				</g>
			</g>
			<g>
				<g>
					<polygon fill="#266279" points="218.326,109.639 80.256,109.639 80.256,102.439 218.326,102.439 222.474,106.038 					"/>
				</g>
				<g>
					<polygon fill="#266279" points="223.717,102.439 361.787,102.439 361.787,109.639 223.717,109.639 227.865,106.038 					"/>
				</g>
			</g>
			<g>
				<g>
					<polygon fill="#266279" points="218.326,123.551 80.256,123.551 80.256,116.352 218.326,116.352 222.474,119.951 					"/>
				</g>
				<g>
					<polygon fill="#266279" points="223.717,116.352 361.787,116.352 361.787,123.551 223.717,123.551 227.865,119.951 					"/>
				</g>
			</g>
			<g>
				<g>
					<polygon fill="#266279" points="218.326,137.466 80.256,137.466 80.256,130.266 218.326,130.266 222.474,133.865 					"/>
				</g>
				<g>
					<polygon fill="#266279" points="223.717,130.266 361.787,130.266 361.787,137.466 223.717,137.466 227.865,133.865 					"/>
				</g>
			</g>
		</g>
		<g>
			<path fill="#266279" d="M69.763,54.845c-0.038-0.262-0.129-0.508-0.275-0.74c-0.146-0.232-0.333-0.432-0.562-0.602
				c-0.228-0.168-0.486-0.301-0.774-0.398c-0.289-0.098-0.59-0.146-0.904-0.146c-0.285,0-0.55,0.031-0.797,0.09
				c-0.247,0.061-0.462,0.152-0.646,0.275c-0.183,0.125-0.329,0.283-0.438,0.479c-0.109,0.193-0.163,0.426-0.163,0.695
				c0,0.338,0.073,0.605,0.219,0.803c0.146,0.199,0.333,0.361,0.562,0.488c0.229,0.129,0.481,0.229,0.758,0.305
				c0.277,0.074,0.546,0.156,0.809,0.246l3.088,1.033c0.427,0.15,0.827,0.355,1.202,0.617c0.375,0.264,0.698,0.582,0.971,0.955
				c0.273,0.375,0.489,0.805,0.646,1.291c0.157,0.488,0.236,1.033,0.236,1.641c0,0.824-0.151,1.576-0.455,2.258
				c-0.303,0.682-0.728,1.266-1.274,1.752s-1.202,0.863-1.965,1.133s-1.61,0.404-2.538,0.404c-0.651,0-1.267-0.072-1.847-0.219
				c-0.581-0.145-1.11-0.357-1.589-0.635c-0.479-0.275-0.898-0.607-1.258-0.992c-0.359-0.387-0.64-0.822-0.842-1.309h-1.157v-3.381
				h4.065v0.695c0,0.338,0.054,0.648,0.163,0.934c0.109,0.283,0.271,0.531,0.489,0.74c0.217,0.211,0.49,0.373,0.82,0.488
				c0.33,0.117,0.715,0.174,1.157,0.174c0.674,0,1.187-0.154,1.539-0.465s0.528-0.744,0.528-1.297c0-0.285-0.062-0.523-0.185-0.713
				c-0.124-0.191-0.283-0.354-0.478-0.484s-0.412-0.24-0.651-0.33s-0.476-0.172-0.708-0.248l-2.572-0.83
				c-0.487-0.15-0.957-0.359-1.409-0.629c-0.453-0.27-0.854-0.607-1.202-1.012c-0.348-0.404-0.625-0.877-0.831-1.42
				c-0.206-0.543-0.309-1.162-0.309-1.859c0-0.809,0.15-1.529,0.449-2.162s0.719-1.166,1.258-1.6s1.179-0.764,1.92-0.988
				s1.554-0.338,2.437-0.338c0.696,0,1.34,0.082,1.932,0.242c0.591,0.162,1.121,0.377,1.589,0.646
				c0.468,0.27,0.865,0.578,1.19,0.926c0.326,0.348,0.575,0.709,0.747,1.084h1.123v3.391h-4.065V54.845z"/>
		</g>
	</g>
	<g>
		<g>
			<path fill="#266279" d="M60.337,161.718h7.289v3.088h-1.797v10.861h3.706c0.097,0,0.193-0.029,0.286-0.084
				c0.094-0.057,0.176-0.131,0.247-0.221c0.071-0.09,0.129-0.186,0.174-0.291s0.067-0.205,0.067-0.303v-2.281h3.639v6.256H60.337
				v-3.076h1.763v-10.861h-1.763V161.718z"/>
		</g>
		<g>
			<g>
				<g>
					<polygon fill="#266279" points="218.222,193.121 80.152,193.121 80.152,185.923 218.222,185.923 222.37,189.521 					"/>
				</g>
				<g>
					<polygon fill="#266279" points="223.613,185.923 361.683,185.923 361.683,193.121 223.613,193.121 227.761,189.521 					"/>
				</g>
			</g>
			<g>
				<g>
					<polygon fill="#266279" points="218.222,179.207 80.152,179.207 80.152,172.008 218.222,172.008 222.37,175.607 					"/>
				</g>
				<g>
					<polygon fill="#266279" points="223.613,172.008 361.683,172.008 361.683,179.207 223.613,179.207 227.761,175.607 					"/>
				</g>
			</g>
			<g>
				<g>
					<polygon fill="#266279" points="218.222,207.035 80.152,207.035 80.152,199.836 218.222,199.836 222.37,203.435 					"/>
				</g>
				<g>
					<polygon fill="#266279" points="223.613,199.836 361.683,199.836 361.683,207.035 223.613,207.035 227.761,203.435 					"/>
				</g>
			</g>
			<g>
				<g>
					<polygon fill="#266279" points="218.222,234.861 80.152,234.861 80.152,227.662 218.222,227.662 222.37,231.262 					"/>
				</g>
				<g>
					<polygon fill="#266279" points="223.613,227.662 361.683,227.662 361.683,234.861 223.613,234.861 227.761,231.262 					"/>
				</g>
			</g>
			<g>
				<g>
					<polygon fill="#266279" points="218.326,220.949 80.256,220.949 80.256,213.75 218.326,213.75 222.474,217.35 					"/>
				</g>
				<g>
					<polygon fill="#266279" points="223.717,213.75 361.787,213.75 361.787,220.949 223.717,220.949 227.865,217.35 					"/>
				</g>
			</g>
			<g>
				<g>
					<polygon fill="#266279" points="218.222,248.777 80.152,248.777 80.152,241.578 218.222,241.578 222.37,245.177 					"/>
				</g>
				<g>
					<polygon fill="#266279" points="223.613,241.578 361.683,241.578 361.683,248.777 223.613,248.777 227.761,245.177 					"/>
				</g>
			</g>
			<g>
				<g>
					<polygon fill="#266279" points="218.222,262.689 80.152,262.689 80.152,255.49 218.222,255.49 222.37,259.091 					"/>
				</g>
				<g>
					<polygon fill="#266279" points="223.613,255.49 361.683,255.49 361.683,262.689 223.613,262.689 227.761,259.091 					"/>
				</g>
			</g>
		</g>
	</g>
</g>
</svg>
