<?xml version="1.0" encoding="utf-8"?>
<!-- Generator: Adobe Illustrator 16.0.4, SVG Export Plug-In . SVG Version: 6.00 Build 0)  -->
<!DOCTYPE svg PUBLIC "-//W3C//DTD SVG 1.1//EN" "http://www.w3.org/Graphics/SVG/1.1/DTD/svg11.dtd">
<svg version="1.1" id="Layer_1" xmlns="http://www.w3.org/2000/svg" xmlns:xlink="http://www.w3.org/1999/xlink" x="0px" y="0px"
	 width="448.746px" height="616.439px" viewBox="0 0 448.746 616.439" enable-background="new 0 0 448.746 616.439"
	 xml:space="preserve">
<rect x="0.5" y="0.5" fill="#FFFFFF" stroke="#C68D06" stroke-miterlimit="10" width="447.746" height="615.439"/>
<g>
	<path fill="#C68D06" d="M338.422,569.637c0-7.981,4.201-13.896,10.151-13.896c2.87,0,4.796,0.875,6.195,1.96l-1.295,1.891
		c-1.33-1.051-2.625-1.681-4.971-1.681c-4.725,0-7.631,5.041-7.665,11.481c1.645-1.785,4.095-3.466,7.386-3.466
		c5.46,0,8.086,3.396,8.086,8.086c0,4.9-3.466,8.611-8.682,8.611C342.518,582.623,338.422,578.527,338.422,569.637z
		 M353.894,574.047c0-3.465-1.75-5.985-5.95-5.985c-2.87,0-5.426,1.61-7.001,3.815c0.525,6.021,3.36,8.61,6.791,8.61
		C351.444,580.487,353.894,578.143,353.894,574.047z"/>
	<path fill="#C68D06" d="M363.693,580.312l1.26-1.855c1.506,1.226,2.871,1.996,5.426,1.996c4.726,0,7.631-5.006,7.631-11.481
		c-1.646,1.785-4.061,3.465-7.351,3.465c-5.461,0-8.086-3.396-8.086-8.086c0-4.9,3.466-8.61,8.681-8.61
		c5.11,0,9.171,4.096,9.171,12.986c0,7.98-4.165,13.896-10.116,13.896C367.298,582.623,365.163,581.607,363.693,580.312z
		 M377.939,566.486c-0.524-6.021-3.395-8.576-6.825-8.576c-3.676,0-6.126,2.311-6.126,6.406c0,3.465,1.75,5.985,5.951,5.985
		C373.809,570.302,376.364,568.691,377.939,566.486z"/>
	<path fill="#C68D06" d="M389.208,556.23h8.681c5.776,0,8.996,2.45,8.996,7c0,4.201-2.45,6.301-6.195,7.001l6.546,11.901h-2.801
		l-6.336-11.621h-6.44v11.621h-2.45V556.23z M397.713,568.307c4.271,0,6.686-1.226,6.686-4.971c0-3.57-2.38-4.831-6.721-4.831
		h-6.021v9.802H397.713z"/>
</g>
<g>
	<rect x="80.218" y="171.875" fill="#C0DDE7" width="281.738" height="7.199"/>
</g>
<g>
	<rect x="80.218" y="199.702" fill="#C0DDE7" width="281.738" height="7.2"/>
</g>
<g>
	<rect x="80.218" y="213.616" fill="#C0DDE7" width="281.738" height="7.199"/>
</g>
<g>
	<rect x="80.218" y="227.53" fill="#C0DDE7" width="281.738" height="7.199"/>
</g>
<g>
	<rect x="80.218" y="241.444" fill="#C0DDE7" width="281.738" height="7.199"/>
</g>
<g>
	<rect x="80.218" y="255.358" fill="#C0DDE7" width="281.738" height="7.199"/>
</g>
<g>
	<rect x="80.218" y="269.271" fill="#C0DDE7" width="281.738" height="7.201"/>
</g>
<g>
	<rect x="80.218" y="283.186" fill="#C0DDE7" width="281.738" height="7.199"/>
</g>
<g>
	<rect x="80.218" y="297.099" fill="#C0DDE7" width="281.738" height="7.201"/>
</g>
<g>
	<rect x="80.218" y="311.013" fill="#C0DDE7" width="281.738" height="7.2"/>
</g>
<g>
	<rect x="80.218" y="324.927" fill="#C0DDE7" width="281.738" height="7.2"/>
</g>
<g>
	<rect x="80.218" y="338.841" fill="#C0DDE7" width="281.738" height="7.199"/>
</g>
<g>
	<rect x="80.218" y="352.755" fill="#C0DDE7" width="281.738" height="7.199"/>
</g>
<g>
	<rect x="80.218" y="366.668" fill="#C0DDE7" width="281.738" height="7.201"/>
</g>
<g>
	<rect x="80.218" y="380.582" fill="#C0DDE7" width="281.738" height="7.2"/>
</g>
<g>
	<rect x="80.218" y="394.496" fill="#C0DDE7" width="281.738" height="7.199"/>
</g>
<g>
	<rect x="80.218" y="408.41" fill="#C0DDE7" width="281.738" height="7.199"/>
</g>
<g>
	<rect x="80.218" y="422.323" fill="#C0DDE7" width="281.738" height="7.199"/>
</g>
<g>
	<rect x="80.218" y="436.237" fill="#C0DDE7" width="281.738" height="7.2"/>
</g>
<g>
	<rect x="80.218" y="450.151" fill="#C0DDE7" width="281.738" height="7.199"/>
</g>
<g>
	<rect x="80.218" y="464.065" fill="#C0DDE7" width="281.738" height="7.199"/>
</g>
<g>
	<rect x="80.218" y="477.979" fill="#C0DDE7" width="281.738" height="7.199"/>
</g>
<g>
	<rect x="80.218" y="491.893" fill="#C0DDE7" width="281.738" height="7.2"/>
</g>
<g>
	<rect x="80.218" y="74.478" fill="#C0DDE7" width="281.738" height="7.2"/>
</g>
<g>
	<rect x="80.218" y="88.392" fill="#C0DDE7" width="281.738" height="7.2"/>
</g>
<g>
	<rect x="80.218" y="157.961" fill="#C0DDE7" width="281.738" height="7.2"/>
</g>
<g>
	<rect x="80.218" y="102.306" fill="#C0DDE7" width="281.738" height="7.199"/>
</g>
<g>
	<rect x="80.218" y="116.22" fill="#C0DDE7" width="281.738" height="7.2"/>
</g>
<g>
	<rect x="80.218" y="130.134" fill="#C0DDE7" width="281.738" height="7.199"/>
</g>
<g>
	<rect x="80.218" y="144.048" fill="#C0DDE7" width="281.738" height="7.198"/>
</g>
<g>
	<path fill="#266279" d="M63.321,81.729c-0.958-0.194-1.844-0.552-2.656-1.072c-0.812-0.521-1.517-1.162-2.111-1.926
		c-0.596-0.764-1.06-1.627-1.393-2.589c-0.333-0.962-0.5-1.982-0.5-3.061c0-0.816,0.097-1.601,0.292-2.353
		c0.195-0.753,0.468-1.456,0.82-2.111s0.777-1.251,1.275-1.786c0.498-0.535,1.052-0.993,1.662-1.376
		c0.61-0.381,1.267-0.677,1.971-0.887s1.441-0.314,2.212-0.314s1.51,0.104,2.218,0.314c0.707,0.21,1.366,0.506,1.977,0.887
		c0.61,0.383,1.164,0.841,1.662,1.376c0.498,0.535,0.924,1.131,1.28,1.786c0.355,0.655,0.63,1.358,0.825,2.111
		c0.195,0.752,0.292,1.536,0.292,2.353c0,1.093-0.172,2.126-0.517,3.1s-0.822,1.846-1.432,2.616
		c-0.61,0.771-1.335,1.416-2.173,1.932c-0.838,0.518-1.748,0.861-2.729,1.033c0.232,0.098,0.462,0.204,0.69,0.32
		c0.229,0.116,0.459,0.225,0.691,0.326c0.232,0.101,0.462,0.187,0.691,0.258c0.228,0.071,0.462,0.11,0.702,0.118
		c0.232,0,0.458-0.03,0.679-0.09c0.221-0.06,0.421-0.153,0.601-0.28c0.18-0.128,0.335-0.293,0.466-0.494
		c0.131-0.203,0.219-0.449,0.264-0.742l2.504,1.247c-0.067,0.547-0.223,1.041-0.466,1.482c-0.243,0.441-0.556,0.819-0.938,1.134
		s-0.816,0.559-1.303,0.73s-1.003,0.258-1.55,0.258c-0.442,0-0.885-0.084-1.331-0.252c-0.445-0.169-0.876-0.353-1.291-0.551
		c-0.416-0.198-0.807-0.382-1.174-0.55c-0.367-0.169-0.689-0.253-0.966-0.253c-0.12,0-0.227-0.002-0.32-0.006
		c-0.093-0.004-0.185-0.004-0.275,0s-0.189,0.016-0.297,0.034c-0.109,0.019-0.234,0.054-0.376,0.106L63.321,81.729z M64.894,78.372
		c0.651,0,1.249-0.141,1.792-0.422c0.542-0.28,1.009-0.662,1.398-1.146c0.389-0.482,0.691-1.044,0.904-1.685
		c0.214-0.64,0.32-1.319,0.32-2.038c0-0.727-0.108-1.411-0.326-2.056c-0.217-0.644-0.522-1.207-0.916-1.689
		c-0.393-0.483-0.859-0.865-1.398-1.146c-0.539-0.281-1.13-0.421-1.774-0.421s-1.235,0.14-1.774,0.421
		c-0.539,0.28-1.003,0.662-1.393,1.146c-0.389,0.482-0.694,1.046-0.916,1.689c-0.221,0.645-0.331,1.329-0.331,2.056
		c0,0.719,0.11,1.398,0.331,2.038c0.221,0.641,0.526,1.202,0.916,1.685c0.389,0.483,0.854,0.865,1.393,1.146
		C63.658,78.231,64.25,78.372,64.894,78.372z"/>
</g>
<g>
	<g>
		<polygon fill="#266279" points="218.391,109.505 80.321,109.505 80.321,102.306 218.391,102.306 222.54,105.904 		"/>
	</g>
	<g>
		<polygon fill="#266279" points="223.782,102.306 361.852,102.306 361.852,109.505 223.782,109.505 227.93,105.904 		"/>
	</g>
</g>
<g>
	<g>
		<polygon fill="#266279" points="218.391,81.677 80.321,81.677 80.321,74.478 218.391,74.478 222.54,78.076 		"/>
	</g>
	<g>
		<polygon fill="#266279" points="223.782,74.478 361.852,74.478 361.852,81.677 223.782,81.677 227.93,78.076 		"/>
	</g>
</g>
<g>
	<g>
		<polygon fill="#266279" points="218.391,137.333 80.321,137.333 80.321,130.132 218.391,130.132 222.54,133.731 		"/>
	</g>
	<g>
		<polygon fill="#266279" points="223.782,130.132 361.852,130.132 361.852,137.333 223.782,137.333 227.93,133.731 		"/>
	</g>
</g>
<g>
	<g>
		<polygon fill="#266279" points="218.391,95.592 80.321,95.592 80.321,88.391 218.391,88.391 222.54,91.99 		"/>
	</g>
	<g>
		<polygon fill="#266279" points="223.782,88.391 361.852,88.391 361.852,95.592 223.782,95.592 227.93,91.99 		"/>
	</g>
</g>
<g>
	<g>
		<polygon fill="#266279" points="266.388,123.505 176.706,123.505 180.856,119.905 176.706,116.306 266.388,116.306 
			270.538,119.905 		"/>
	</g>
	<g>
		<polygon fill="#266279" points="169.899,123.505 80.218,123.505 80.218,116.306 169.899,116.306 174.048,119.905 		"/>
	</g>
	<g>
		<polygon fill="#266279" points="272.131,116.306 361.813,116.306 361.813,123.505 272.131,123.505 276.28,119.905 		"/>
	</g>
</g>
<g>
	<g>
		<rect x="80.218" y="185.788" fill="#C0DDE7" width="281.738" height="7.199"/>
	</g>
	<g>
		<g>
			<polygon fill="#266279" points="218.391,151.246 80.321,151.246 80.321,144.047 218.391,144.047 222.54,147.646 			"/>
		</g>
		<g>
			<polygon fill="#266279" points="223.782,144.047 361.852,144.047 361.852,151.246 223.782,151.246 227.93,147.646 			"/>
		</g>
	</g>
	<g>
		<g>
			<polygon fill="#266279" points="218.391,165.161 80.321,165.161 80.321,157.96 218.391,157.96 222.54,161.56 			"/>
		</g>
		<g>
			<polygon fill="#266279" points="223.782,157.96 361.852,157.96 361.852,165.161 223.782,165.161 227.93,161.56 			"/>
		</g>
	</g>
	<g>
		<g>
			<polygon fill="#266279" points="218.391,179.074 80.321,179.074 80.321,171.875 218.391,171.875 222.54,175.473 			"/>
		</g>
		<g>
			<polygon fill="#266279" points="223.782,171.875 361.852,171.875 361.852,179.074 223.782,179.074 227.93,175.473 			"/>
		</g>
	</g>
	<g>
		<g>
			<polygon fill="#266279" points="218.391,206.903 80.321,206.903 80.321,199.703 218.391,199.703 222.54,203.303 			"/>
		</g>
		<g>
			<polygon fill="#266279" points="223.782,199.703 361.852,199.703 361.852,206.903 223.782,206.903 227.93,203.303 			"/>
		</g>
	</g>
	<g>
		<g>
			<polygon fill="#266279" points="266.388,192.987 176.706,192.987 180.856,189.388 176.706,185.788 266.388,185.788 
				270.538,189.388 			"/>
		</g>
		<g>
			<polygon fill="#266279" points="169.899,192.987 80.218,192.987 80.218,185.788 169.899,185.788 174.048,189.388 			"/>
		</g>
		<g>
			<polygon fill="#266279" points="272.131,185.788 361.813,185.788 361.813,192.987 272.131,192.987 276.28,189.388 			"/>
		</g>
	</g>
	<g>
		<path fill="#266279" d="M70.358,148.386c-0.451-0.123-0.876-0.305-1.274-0.545s-0.747-0.537-1.046-0.893
			c-0.299-0.354-0.536-0.764-0.712-1.23c-0.176-0.465-0.264-0.988-0.264-1.568c0-0.615,0.123-1.191,0.369-1.727
			c0.246-0.537,0.595-1.004,1.046-1.402s0.996-0.712,1.635-0.94s1.351-0.343,2.136-0.343h6.012v2.417H77.02v14.089h-2.575v-14.089
			h-1.512v14.089h-2.575V148.386z"/>
	</g>
</g>
<g>
	<g>
		<rect x="80.218" y="255.355" fill="#C0DDE7" width="281.738" height="7.199"/>
	</g>
	<g>
		<g>
			<polygon fill="#266279" points="218.391,220.813 80.321,220.813 80.321,213.614 218.391,213.614 222.54,217.213 			"/>
		</g>
		<g>
			<polygon fill="#266279" points="223.782,213.614 361.852,213.614 361.852,220.813 223.782,220.813 227.93,217.213 			"/>
		</g>
	</g>
	<g>
		<g>
			<polygon fill="#266279" points="218.391,234.729 80.321,234.729 80.321,227.527 218.391,227.527 222.54,231.127 			"/>
		</g>
		<g>
			<polygon fill="#266279" points="223.782,227.527 361.852,227.527 361.852,234.729 223.782,234.729 227.93,231.127 			"/>
		</g>
	</g>
	<g>
		<g>
			<polygon fill="#266279" points="218.391,248.642 80.321,248.642 80.321,241.442 218.391,241.442 222.54,245.04 			"/>
		</g>
		<g>
			<polygon fill="#266279" points="223.782,241.442 361.852,241.442 361.852,248.642 223.782,248.642 227.93,245.04 			"/>
		</g>
	</g>
	<g>
		<g>
			<polygon fill="#266279" points="218.391,276.471 80.321,276.471 80.321,269.271 218.391,269.271 222.54,272.87 			"/>
		</g>
		<g>
			<polygon fill="#266279" points="223.782,269.271 361.852,269.271 361.852,276.471 223.782,276.471 227.93,272.87 			"/>
		</g>
	</g>
	<g>
		<g>
			<polygon fill="#266279" points="266.388,262.555 176.706,262.555 180.856,258.955 176.706,255.355 266.388,255.355 
				270.538,258.955 			"/>
		</g>
		<g>
			<polygon fill="#266279" points="169.899,262.555 80.218,262.555 80.218,255.355 169.899,255.355 174.048,258.955 			"/>
		</g>
		<g>
			<polygon fill="#266279" points="272.131,255.355 361.813,255.355 361.813,262.555 272.131,262.555 276.28,258.955 			"/>
		</g>
	</g>
	<g>
		<path fill="#266279" d="M70.358,217.953c-0.451-0.123-0.876-0.305-1.274-0.545s-0.747-0.537-1.046-0.893
			c-0.299-0.354-0.536-0.764-0.712-1.23c-0.176-0.465-0.264-0.988-0.264-1.568c0-0.615,0.123-1.191,0.369-1.727
			c0.246-0.537,0.595-1.004,1.046-1.402s0.996-0.712,1.635-0.94s1.351-0.343,2.136-0.343h6.012v2.417H77.02v14.089h-2.575v-14.089
			h-1.512v14.089h-2.575V217.953z"/>
	</g>
</g>
<g>
	<g>
		<rect x="80.218" y="324.925" fill="#C0DDE7" width="281.738" height="7.199"/>
	</g>
	<g>
		<g>
			<polygon fill="#266279" points="218.391,290.383 80.321,290.383 80.321,283.184 218.391,283.184 222.54,286.782 			"/>
		</g>
		<g>
			<polygon fill="#266279" points="223.782,283.184 361.852,283.184 361.852,290.383 223.782,290.383 227.93,286.782 			"/>
		</g>
	</g>
	<g>
		<g>
			<polygon fill="#266279" points="218.391,304.298 80.321,304.298 80.321,297.097 218.391,297.097 222.54,300.696 			"/>
		</g>
		<g>
			<polygon fill="#266279" points="223.782,297.097 361.852,297.097 361.852,304.298 223.782,304.298 227.93,300.696 			"/>
		</g>
	</g>
	<g>
		<g>
			<polygon fill="#266279" points="218.391,318.211 80.321,318.211 80.321,311.012 218.391,311.012 222.54,314.609 			"/>
		</g>
		<g>
			<polygon fill="#266279" points="223.782,311.012 361.852,311.012 361.852,318.211 223.782,318.211 227.93,314.609 			"/>
		</g>
	</g>
	<g>
		<g>
			<polygon fill="#266279" points="218.391,346.04 80.321,346.04 80.321,338.84 218.391,338.84 222.54,342.439 			"/>
		</g>
		<g>
			<polygon fill="#266279" points="223.782,338.84 361.852,338.84 361.852,346.04 223.782,346.04 227.93,342.439 			"/>
		</g>
	</g>
	<g>
		<g>
			<polygon fill="#266279" points="266.388,332.124 176.706,332.124 180.856,328.524 176.706,324.925 266.388,324.925 
				270.538,328.524 			"/>
		</g>
		<g>
			<polygon fill="#266279" points="169.899,332.124 80.218,332.124 80.218,324.925 169.899,324.925 174.048,328.524 			"/>
		</g>
		<g>
			<polygon fill="#266279" points="272.131,324.925 361.813,324.925 361.813,332.124 272.131,332.124 276.28,328.524 			"/>
		</g>
	</g>
	<g>
		<path fill="#266279" d="M70.358,287.522c-0.451-0.123-0.876-0.305-1.274-0.545s-0.747-0.537-1.046-0.893
			c-0.299-0.354-0.536-0.764-0.712-1.23c-0.176-0.465-0.264-0.988-0.264-1.568c0-0.615,0.123-1.191,0.369-1.727
			c0.246-0.537,0.595-1.004,1.046-1.402s0.996-0.712,1.635-0.94s1.351-0.343,2.136-0.343h6.012v2.417H77.02v14.089h-2.575v-14.089
			h-1.512v14.089h-2.575V287.522z"/>
	</g>
</g>
<g>
	<g>
		<rect x="80.218" y="394.494" fill="#C0DDE7" width="281.738" height="7.199"/>
	</g>
	<g>
		<g>
			<polygon fill="#266279" points="218.391,359.952 80.321,359.952 80.321,352.753 218.391,352.753 222.54,356.352 			"/>
		</g>
		<g>
			<polygon fill="#266279" points="223.782,352.753 361.852,352.753 361.852,359.952 223.782,359.952 227.93,356.352 			"/>
		</g>
	</g>
	<g>
		<g>
			<polygon fill="#266279" points="218.391,373.867 80.321,373.867 80.321,366.666 218.391,366.666 222.54,370.266 			"/>
		</g>
		<g>
			<polygon fill="#266279" points="223.782,366.666 361.852,366.666 361.852,373.867 223.782,373.867 227.93,370.266 			"/>
		</g>
	</g>
	<g>
		<g>
			<polygon fill="#266279" points="218.391,387.78 80.321,387.78 80.321,380.581 218.391,380.581 222.54,384.179 			"/>
		</g>
		<g>
			<polygon fill="#266279" points="223.782,380.581 361.852,380.581 361.852,387.78 223.782,387.78 227.93,384.179 			"/>
		</g>
	</g>
	<g>
		<g>
			<polygon fill="#266279" points="218.391,415.609 80.321,415.609 80.321,408.409 218.391,408.409 222.54,412.009 			"/>
		</g>
		<g>
			<polygon fill="#266279" points="223.782,408.409 361.852,408.409 361.852,415.609 223.782,415.609 227.93,412.009 			"/>
		</g>
	</g>
	<g>
		<g>
			<polygon fill="#266279" points="266.388,401.693 176.706,401.693 180.856,398.094 176.706,394.494 266.388,394.494 
				270.538,398.094 			"/>
		</g>
		<g>
			<polygon fill="#266279" points="169.899,401.693 80.218,401.693 80.218,394.494 169.899,394.494 174.048,398.094 			"/>
		</g>
		<g>
			<polygon fill="#266279" points="272.131,394.494 361.813,394.494 361.813,401.693 272.131,401.693 276.28,398.094 			"/>
		</g>
	</g>
	<g>
		<path fill="#266279" d="M70.358,357.092c-0.451-0.123-0.876-0.305-1.274-0.545s-0.747-0.537-1.046-0.893
			c-0.299-0.354-0.536-0.764-0.712-1.23c-0.176-0.465-0.264-0.988-0.264-1.568c0-0.615,0.123-1.191,0.369-1.727
			c0.246-0.537,0.595-1.004,1.046-1.402s0.996-0.712,1.635-0.94s1.351-0.343,2.136-0.343h6.012v2.417H77.02v14.089h-2.575V350.86
			h-1.512v14.089h-2.575V357.092z"/>
	</g>
</g>
<g>
	<rect x="80.218" y="464.063" fill="#C0DDE7" width="281.738" height="7.199"/>
</g>
<g>
	<g>
		<polygon fill="#266279" points="218.391,429.521 80.321,429.521 80.321,422.322 218.391,422.322 222.54,425.921 		"/>
	</g>
	<g>
		<polygon fill="#266279" points="223.782,422.322 361.852,422.322 361.852,429.521 223.782,429.521 227.93,425.921 		"/>
	</g>
</g>
<g>
	<g>
		<polygon fill="#266279" points="218.391,443.437 80.321,443.437 80.321,436.235 218.391,436.235 222.54,439.835 		"/>
	</g>
	<g>
		<polygon fill="#266279" points="223.782,436.235 361.852,436.235 361.852,443.437 223.782,443.437 227.93,439.835 		"/>
	</g>
</g>
<g>
	<g>
		<polygon fill="#266279" points="218.391,457.35 80.321,457.35 80.321,450.15 218.391,450.15 222.54,453.748 		"/>
	</g>
	<g>
		<polygon fill="#266279" points="223.782,450.15 361.852,450.15 361.852,457.35 223.782,457.35 227.93,453.748 		"/>
	</g>
</g>
<g>
	<g>
		<polygon fill="#266279" points="218.391,485.18 80.321,485.18 80.321,477.979 218.391,477.979 222.54,481.579 		"/>
	</g>
	<g>
		<polygon fill="#266279" points="223.782,477.979 361.852,477.979 361.852,485.18 223.782,485.18 227.93,481.579 		"/>
	</g>
</g>
<g>
	<g>
		<polygon fill="#266279" points="218.391,513.006 80.321,513.006 80.321,505.806 218.391,505.806 222.54,509.405 		"/>
	</g>
	<g>
		<polygon fill="#266279" points="223.782,505.806 361.852,505.806 361.852,513.006 223.782,513.006 227.93,509.405 		"/>
	</g>
</g>
<g>
	<g>
		<polygon fill="#266279" points="266.388,471.263 176.706,471.263 180.856,467.663 176.706,464.063 266.388,464.063 
			270.538,467.663 		"/>
	</g>
	<g>
		<polygon fill="#266279" points="169.899,471.263 80.218,471.263 80.218,464.063 169.899,464.063 174.048,467.663 		"/>
	</g>
	<g>
		<polygon fill="#266279" points="272.131,464.063 361.813,464.063 361.813,471.263 272.131,471.263 276.28,467.663 		"/>
	</g>
</g>
<g>
	<g>
		<polygon fill="#266279" points="266.388,499.093 176.706,499.093 180.856,495.493 176.706,491.894 266.388,491.894 
			270.538,495.493 		"/>
	</g>
	<g>
		<polygon fill="#266279" points="169.899,499.093 80.218,499.093 80.218,491.894 169.899,491.894 174.048,495.493 		"/>
	</g>
	<g>
		<polygon fill="#266279" points="272.131,491.894 361.813,491.894 361.813,499.093 272.131,499.093 276.28,495.493 		"/>
	</g>
</g>
<g>
	<path fill="#266279" d="M70.358,426.661c-0.451-0.123-0.876-0.305-1.274-0.545s-0.747-0.537-1.046-0.893
		c-0.299-0.354-0.536-0.764-0.712-1.23c-0.176-0.465-0.264-0.988-0.264-1.568c0-0.615,0.123-1.191,0.369-1.727
		c0.246-0.537,0.595-1.004,1.046-1.402s0.996-0.712,1.635-0.94s1.351-0.343,2.136-0.343h6.012v2.417H77.02v14.089h-2.575V420.43
		h-1.512v14.089h-2.575V426.661z"/>
</g>
<g>
	<path fill="#266279" d="M70.358,495.661c-0.451-0.123-0.876-0.305-1.274-0.545s-0.747-0.537-1.046-0.893
		c-0.299-0.354-0.536-0.764-0.712-1.23c-0.176-0.465-0.264-0.988-0.264-1.568c0-0.615,0.123-1.191,0.369-1.727
		c0.246-0.537,0.595-1.004,1.046-1.402s0.996-0.712,1.635-0.94s1.351-0.343,2.136-0.343h6.012v2.417H77.02v14.089h-2.575V489.43
		h-1.512v14.089h-2.575V495.661z"/>
</g>
</svg>
