<?xml version="1.0" encoding="utf-8"?>
<!-- Generator: Adobe Illustrator 16.0.4, SVG Export Plug-In . SVG Version: 6.00 Build 0)  -->
<!DOCTYPE svg PUBLIC "-//W3C//DTD SVG 1.1//EN" "http://www.w3.org/Graphics/SVG/1.1/DTD/svg11.dtd">
<svg version="1.1" id="Layer_1" xmlns="http://www.w3.org/2000/svg" xmlns:xlink="http://www.w3.org/1999/xlink" x="0px" y="0px"
	 width="448.747px" height="616.439px" viewBox="0 0 448.747 616.439" enable-background="new 0 0 448.747 616.439"
	 xml:space="preserve">
<rect x="0.5" y="0.5" fill="#FFFFFF" stroke="#C68D06" stroke-miterlimit="10" width="447.747" height="615.439"/>
<g>
	<path fill="#C68D06" d="M339.891,569.637c0-7.981,4.201-13.896,10.151-13.896c2.87,0,4.796,0.875,6.195,1.96l-1.295,1.891
		c-1.33-1.051-2.625-1.681-4.971-1.681c-4.726,0-7.631,5.041-7.665,11.481c1.645-1.785,4.095-3.466,7.386-3.466
		c5.46,0,8.086,3.396,8.086,8.086c0,4.9-3.466,8.611-8.682,8.611C343.986,582.623,339.891,578.527,339.891,569.637z
		 M355.362,574.047c0-3.465-1.75-5.985-5.95-5.985c-2.87,0-5.426,1.61-7.001,3.815c0.525,6.021,3.36,8.61,6.791,8.61
		C352.912,580.487,355.362,578.143,355.362,574.047z"/>
	<path fill="#C68D06" d="M365.161,580.312l1.26-1.855c1.506,1.226,2.871,1.996,5.426,1.996c4.726,0,7.631-5.006,7.631-11.481
		c-1.646,1.785-4.061,3.465-7.351,3.465c-5.461,0-8.086-3.396-8.086-8.086c0-4.9,3.465-8.61,8.681-8.61
		c5.11,0,9.171,4.096,9.171,12.986c0,7.98-4.165,13.896-10.116,13.896C368.767,582.623,366.631,581.607,365.161,580.312z
		 M379.407,566.486c-0.524-6.021-3.395-8.576-6.825-8.576c-3.676,0-6.126,2.311-6.126,6.406c0,3.465,1.75,5.985,5.951,5.985
		C375.277,570.302,377.832,568.691,379.407,566.486z"/>
	<path fill="#C68D06" d="M388.61,556.23h2.556l7.735,22.612h0.07l7.771-22.612h2.416l-9.102,26.008h-2.345L388.61,556.23z"/>
</g>
<g>
	<path fill="#266279" d="M70.205,134.402c-0.451-0.123-0.876-0.305-1.274-0.545s-0.747-0.537-1.046-0.893
		c-0.299-0.354-0.536-0.764-0.712-1.23c-0.176-0.465-0.264-0.988-0.264-1.568c0-0.615,0.123-1.191,0.369-1.727
		c0.246-0.537,0.595-1.004,1.046-1.402s0.996-0.712,1.635-0.941c0.639-0.229,1.351-0.343,2.136-0.343h6.012v2.417h-1.239v14.09
		h-2.575v-14.09H72.78v14.09h-2.575V134.402z"/>
</g>
<g>
	<path fill="#266279" d="M70.205,273.767c-0.451-0.123-0.876-0.305-1.274-0.545c-0.398-0.241-0.747-0.536-1.046-0.892
		c-0.299-0.354-0.536-0.766-0.712-1.231c-0.176-0.465-0.264-0.988-0.264-1.567c0-0.615,0.123-1.192,0.369-1.728
		c0.246-0.537,0.595-1.003,1.046-1.402c0.451-0.398,0.996-0.712,1.635-0.94s1.351-0.342,2.136-0.342h6.012v2.416h-1.239v14.089
		h-2.575v-14.089H72.78v14.089h-2.575V273.767z"/>
</g>
<g>
	<path fill="#266279" d="M70.205,203.767c-0.451-0.123-0.876-0.305-1.274-0.545c-0.398-0.241-0.747-0.536-1.046-0.892
		c-0.299-0.354-0.536-0.766-0.712-1.231c-0.176-0.465-0.264-0.988-0.264-1.567c0-0.615,0.123-1.192,0.369-1.728
		c0.246-0.537,0.595-1.003,1.046-1.402c0.451-0.398,0.996-0.712,1.635-0.94s1.351-0.342,2.136-0.342h6.012v2.416h-1.239v14.089
		h-2.575v-14.089H72.78v14.089h-2.575V203.767z"/>
</g>
<g>
	<path fill="#266279" d="M70.205,342.599c-0.451-0.123-0.876-0.305-1.274-0.545s-0.747-0.537-1.046-0.893
		c-0.299-0.353-0.536-0.764-0.712-1.23c-0.176-0.465-0.264-0.987-0.264-1.567c0-0.616,0.123-1.192,0.369-1.728
		c0.246-0.537,0.595-1.004,1.046-1.402s0.996-0.711,1.635-0.94c0.639-0.228,1.351-0.343,2.136-0.343h6.012v2.418h-1.239v14.088
		h-2.575v-14.088H72.78v14.088h-2.575V342.599z"/>
</g>
<g>
	<path fill="#266279" d="M68.705,412.1c-0.451-0.123-0.876-0.305-1.274-0.545s-0.747-0.537-1.046-0.893
		c-0.299-0.353-0.536-0.764-0.712-1.23c-0.176-0.465-0.264-0.987-0.264-1.567c0-0.616,0.123-1.192,0.369-1.728
		c0.246-0.537,0.595-1.004,1.046-1.402s0.996-0.711,1.635-0.94c0.639-0.228,1.351-0.343,2.136-0.343h6.012v2.418h-1.239v14.088
		h-2.575v-14.088H71.28v14.088h-2.575V412.1z"/>
</g>
<g>
	<path fill="#266279" d="M68.705,481.6c-0.451-0.123-0.876-0.305-1.274-0.545s-0.747-0.537-1.046-0.893
		c-0.299-0.353-0.536-0.764-0.712-1.23c-0.176-0.465-0.264-0.987-0.264-1.567c0-0.616,0.123-1.192,0.369-1.728
		c0.246-0.537,0.595-1.004,1.046-1.402s0.996-0.711,1.635-0.94c0.639-0.228,1.351-0.343,2.136-0.343h6.012v2.418h-1.239v14.088
		h-2.575v-14.088H71.28v14.088h-2.575V481.6z"/>
</g>
<g>
	<rect x="80.216" y="157.966" fill="#C0DDE7" width="281.738" height="7.199"/>
</g>
<g>
	<rect x="80.216" y="171.879" fill="#C0DDE7" width="281.738" height="7.199"/>
</g>
<g>
	<rect x="80.216" y="185.793" fill="#C0DDE7" width="281.738" height="7.2"/>
</g>
<g>
	<rect x="80.216" y="199.707" fill="#C0DDE7" width="281.738" height="7.199"/>
</g>
<g>
	<rect x="80.216" y="213.621" fill="#C0DDE7" width="281.738" height="7.199"/>
</g>
<g>
	<rect x="80.216" y="227.535" fill="#C0DDE7" width="281.738" height="7.199"/>
</g>
<g>
	<rect x="80.216" y="241.449" fill="#C0DDE7" width="281.738" height="7.199"/>
</g>
<g>
	<rect x="80.216" y="255.361" fill="#C0DDE7" width="281.738" height="7.201"/>
</g>
<g>
	<rect x="80.216" y="269.276" fill="#C0DDE7" width="281.738" height="7.199"/>
</g>
<g>
	<rect x="80.216" y="283.189" fill="#C0DDE7" width="281.738" height="7.201"/>
</g>
<g>
	<rect x="80.216" y="297.104" fill="#C0DDE7" width="281.738" height="7.2"/>
</g>
<g>
	<rect x="80.216" y="311.018" fill="#C0DDE7" width="281.738" height="7.2"/>
</g>
<g>
	<rect x="80.216" y="324.932" fill="#C0DDE7" width="281.738" height="7.199"/>
</g>
<g>
	<rect x="80.216" y="338.846" fill="#C0DDE7" width="281.738" height="7.199"/>
</g>
<g>
	<rect x="80.216" y="352.759" fill="#C0DDE7" width="281.738" height="7.201"/>
</g>
<g>
	<rect x="80.216" y="366.673" fill="#C0DDE7" width="281.738" height="7.2"/>
</g>
<g>
	<rect x="80.216" y="380.587" fill="#C0DDE7" width="281.738" height="7.199"/>
</g>
<g>
	<rect x="80.216" y="394.501" fill="#C0DDE7" width="281.738" height="7.199"/>
</g>
<g>
	<rect x="80.216" y="408.414" fill="#C0DDE7" width="281.738" height="7.199"/>
</g>
<g>
	<rect x="80.216" y="422.328" fill="#C0DDE7" width="281.738" height="7.2"/>
</g>
<g>
	<rect x="80.216" y="436.242" fill="#C0DDE7" width="281.738" height="7.2"/>
</g>
<g>
	<rect x="80.216" y="450.156" fill="#C0DDE7" width="281.738" height="7.199"/>
</g>
<g>
	<rect x="80.216" y="464.07" fill="#C0DDE7" width="281.738" height="7.199"/>
</g>
<g>
	<rect x="80.216" y="60.568" fill="#C0DDE7" width="281.738" height="7.2"/>
</g>
<g>
	<rect x="80.216" y="477.982" fill="#C0DDE7" width="281.738" height="7.201"/>
</g>
<g>
	<rect x="80.216" y="74.482" fill="#C0DDE7" width="281.738" height="7.2"/>
</g>
<g>
	<rect x="80.216" y="144.052" fill="#C0DDE7" width="281.738" height="7.2"/>
</g>
<g>
	<rect x="80.216" y="88.396" fill="#C0DDE7" width="281.738" height="7.199"/>
</g>
<g>
	<rect x="80.216" y="102.311" fill="#C0DDE7" width="281.738" height="7.2"/>
</g>
<g>
	<rect x="80.216" y="116.225" fill="#C0DDE7" width="281.738" height="7.199"/>
</g>
<g>
	<rect x="80.216" y="130.139" fill="#C0DDE7" width="281.738" height="7.198"/>
</g>
<g>
	<path fill="#266279" d="M63.423,62.056c-0.958-0.194-1.844-0.552-2.656-1.072c-0.812-0.521-1.517-1.162-2.111-1.926
		c-0.596-0.764-1.06-1.627-1.393-2.589c-0.333-0.962-0.5-1.982-0.5-3.061c0-0.816,0.097-1.601,0.292-2.353
		c0.195-0.753,0.468-1.456,0.82-2.111s0.777-1.251,1.275-1.786c0.498-0.535,1.052-0.993,1.662-1.376
		c0.61-0.381,1.267-0.677,1.971-0.887s1.441-0.314,2.212-0.314s1.51,0.104,2.218,0.314c0.707,0.21,1.366,0.506,1.977,0.887
		c0.61,0.383,1.164,0.841,1.662,1.376c0.498,0.535,0.924,1.131,1.28,1.786c0.355,0.655,0.63,1.358,0.825,2.111
		c0.195,0.752,0.292,1.536,0.292,2.353c0,1.093-0.172,2.126-0.517,3.1s-0.822,1.846-1.432,2.616
		c-0.61,0.771-1.335,1.416-2.173,1.932c-0.838,0.518-1.748,0.861-2.729,1.033c0.232,0.098,0.462,0.204,0.69,0.32
		c0.229,0.116,0.459,0.225,0.691,0.326c0.232,0.101,0.462,0.187,0.691,0.258c0.228,0.071,0.462,0.11,0.702,0.118
		c0.232,0,0.458-0.03,0.679-0.09c0.221-0.06,0.421-0.153,0.601-0.28c0.18-0.128,0.335-0.293,0.466-0.494
		c0.131-0.203,0.219-0.449,0.264-0.742l2.504,1.247c-0.067,0.547-0.223,1.041-0.466,1.482c-0.243,0.441-0.556,0.819-0.938,1.134
		s-0.816,0.559-1.303,0.73s-1.003,0.258-1.55,0.258c-0.442,0-0.885-0.084-1.331-0.252c-0.445-0.169-0.876-0.353-1.291-0.551
		c-0.416-0.198-0.807-0.382-1.174-0.55c-0.367-0.169-0.689-0.253-0.966-0.253c-0.12,0-0.227-0.002-0.32-0.006
		c-0.093-0.004-0.185-0.004-0.275,0s-0.189,0.016-0.297,0.034c-0.109,0.019-0.234,0.054-0.376,0.106L63.423,62.056z M64.996,58.698
		c0.651,0,1.249-0.141,1.792-0.422c0.542-0.28,1.009-0.662,1.398-1.146c0.389-0.482,0.691-1.044,0.904-1.685
		c0.214-0.64,0.32-1.319,0.32-2.038c0-0.727-0.108-1.411-0.326-2.056c-0.217-0.644-0.522-1.207-0.916-1.689
		c-0.393-0.483-0.859-0.865-1.398-1.146c-0.539-0.281-1.13-0.421-1.774-0.421s-1.235,0.14-1.774,0.421
		c-0.539,0.28-1.003,0.662-1.393,1.146c-0.389,0.482-0.694,1.046-0.916,1.689c-0.221,0.645-0.331,1.329-0.331,2.056
		c0,0.719,0.11,1.398,0.331,2.038c0.221,0.641,0.526,1.202,0.916,1.685c0.389,0.483,0.854,0.865,1.393,1.146
		C63.76,58.558,64.352,58.698,64.996,58.698z"/>
</g>
<g>
	<g>
		<polygon fill="#266279" points="266.491,67.768 176.809,67.768 180.959,64.168 176.809,60.568 266.491,60.568 270.641,64.168 		
			"/>
	</g>
	<g>
		<polygon fill="#266279" points="170.002,67.768 80.321,67.768 80.321,60.568 170.002,60.568 174.151,64.168 		"/>
	</g>
	<g>
		<polygon fill="#266279" points="272.234,60.568 361.917,60.568 361.917,67.768 272.234,67.768 276.383,64.168 		"/>
	</g>
</g>
<g>
	<g>
		<polygon fill="#266279" points="266.491,81.683 176.809,81.683 180.959,78.083 176.809,74.483 266.491,74.483 270.641,78.083 		
			"/>
	</g>
	<g>
		<polygon fill="#266279" points="170.002,81.683 80.321,81.683 80.321,74.483 170.002,74.483 174.151,78.083 		"/>
	</g>
	<g>
		<polygon fill="#266279" points="272.234,74.483 361.917,74.483 361.917,81.683 272.234,81.683 276.383,78.083 		"/>
	</g>
</g>
<g>
	<g>
		<polygon fill="#266279" points="266.491,95.596 176.809,95.596 180.959,91.996 176.809,88.396 266.491,88.396 270.641,91.996 		
			"/>
	</g>
	<g>
		<polygon fill="#266279" points="170.002,95.596 80.321,95.596 80.321,88.396 170.002,88.396 174.151,91.996 		"/>
	</g>
	<g>
		<polygon fill="#266279" points="272.234,88.396 361.917,88.396 361.917,95.596 272.234,95.596 276.383,91.996 		"/>
	</g>
</g>
<g>
	<g>
		<polygon fill="#266279" points="266.491,123.424 176.809,123.424 180.959,119.824 176.809,116.225 266.491,116.225 
			270.641,119.824 		"/>
	</g>
	<g>
		<polygon fill="#266279" points="170.002,123.424 80.321,123.424 80.321,116.225 170.002,116.225 174.151,119.824 		"/>
	</g>
	<g>
		<polygon fill="#266279" points="272.234,116.225 361.917,116.225 361.917,123.424 272.234,123.424 276.383,119.824 		"/>
	</g>
</g>
<g>
	<g>
		<polygon fill="#266279" points="266.491,137.338 176.809,137.338 180.959,133.738 176.809,130.139 266.491,130.139 
			270.641,133.738 		"/>
	</g>
	<g>
		<polygon fill="#266279" points="170.002,137.338 80.321,137.338 80.321,130.139 170.002,130.139 174.151,133.738 		"/>
	</g>
	<g>
		<polygon fill="#266279" points="272.234,130.139 361.917,130.139 361.917,137.338 272.234,137.338 276.383,133.738 		"/>
	</g>
</g>
<g>
	<g>
		<polygon fill="#266279" points="266.491,151.251 176.809,151.251 180.959,147.651 176.809,144.052 266.491,144.052 
			270.641,147.651 		"/>
	</g>
	<g>
		<polygon fill="#266279" points="170.002,151.251 80.321,151.251 80.321,144.052 170.002,144.052 174.151,147.651 		"/>
	</g>
	<g>
		<polygon fill="#266279" points="272.234,144.052 361.917,144.052 361.917,151.251 272.234,151.251 276.383,147.651 		"/>
	</g>
</g>
<g>
	<g>
		<polygon fill="#266279" points="266.491,165.165 176.809,165.165 180.959,161.565 176.809,157.966 266.491,157.966 
			270.641,161.565 		"/>
	</g>
	<g>
		<polygon fill="#266279" points="170.002,165.165 80.321,165.165 80.321,157.966 170.002,157.966 174.151,161.565 		"/>
	</g>
	<g>
		<polygon fill="#266279" points="272.234,157.966 361.917,157.966 361.917,165.165 272.234,165.165 276.383,161.565 		"/>
	</g>
</g>
<g>
	<g>
		<polygon fill="#266279" points="266.491,179.078 176.809,179.078 180.959,175.479 176.809,171.879 266.491,171.879 
			270.641,175.479 		"/>
	</g>
	<g>
		<polygon fill="#266279" points="170.002,179.078 80.321,179.078 80.321,171.879 170.002,171.879 174.151,175.479 		"/>
	</g>
	<g>
		<polygon fill="#266279" points="272.234,171.879 361.917,171.879 361.917,179.078 272.234,179.078 276.383,175.479 		"/>
	</g>
</g>
<g>
	<g>
		<polygon fill="#266279" points="266.491,192.993 176.809,192.993 180.959,189.394 176.809,185.794 266.491,185.794 
			270.641,189.394 		"/>
	</g>
	<g>
		<polygon fill="#266279" points="170.002,192.993 80.321,192.993 80.321,185.794 170.002,185.794 174.151,189.394 		"/>
	</g>
	<g>
		<polygon fill="#266279" points="272.234,185.794 361.917,185.794 361.917,192.993 272.234,192.993 276.383,189.394 		"/>
	</g>
</g>
<g>
	<g>
		<polygon fill="#266279" points="266.491,206.906 176.809,206.906 180.959,203.307 176.809,199.707 266.491,199.707 
			270.641,203.307 		"/>
	</g>
	<g>
		<polygon fill="#266279" points="170.002,206.906 80.321,206.906 80.321,199.707 170.002,199.707 174.151,203.307 		"/>
	</g>
	<g>
		<polygon fill="#266279" points="272.234,199.707 361.917,199.707 361.917,206.906 272.234,206.906 276.383,203.307 		"/>
	</g>
</g>
<g>
	<g>
		<polygon fill="#266279" points="266.491,220.82 176.809,220.82 180.959,217.221 176.809,213.621 266.491,213.621 270.641,217.221 
					"/>
	</g>
	<g>
		<polygon fill="#266279" points="170.002,220.82 80.321,220.82 80.321,213.621 170.002,213.621 174.151,217.221 		"/>
	</g>
	<g>
		<polygon fill="#266279" points="272.234,213.621 361.917,213.621 361.917,220.82 272.234,220.82 276.383,217.221 		"/>
	</g>
</g>
<g>
	<g>
		<polygon fill="#266279" points="266.491,276.476 176.809,276.476 180.959,272.876 176.809,269.276 266.491,269.276 
			270.641,272.876 		"/>
	</g>
	<g>
		<polygon fill="#266279" points="170.002,276.476 80.321,276.476 80.321,269.276 170.002,269.276 174.151,272.876 		"/>
	</g>
	<g>
		<polygon fill="#266279" points="272.234,269.276 361.917,269.276 361.917,276.476 272.234,276.476 276.383,272.876 		"/>
	</g>
</g>
<g>
	<g>
		<polygon fill="#266279" points="266.491,304.304 176.809,304.304 180.959,300.704 176.809,297.104 266.491,297.104 
			270.641,300.704 		"/>
	</g>
	<g>
		<polygon fill="#266279" points="170.002,304.304 80.321,304.304 80.321,297.104 170.002,297.104 174.151,300.704 		"/>
	</g>
	<g>
		<polygon fill="#266279" points="272.234,297.104 361.917,297.104 361.917,304.304 272.234,304.304 276.383,300.704 		"/>
	</g>
</g>
<g>
	<g>
		<polygon fill="#266279" points="266.491,318.218 176.809,318.218 180.959,314.618 176.809,311.019 266.491,311.019 
			270.641,314.618 		"/>
	</g>
	<g>
		<polygon fill="#266279" points="170.002,318.218 80.321,318.218 80.321,311.019 170.002,311.019 174.151,314.618 		"/>
	</g>
	<g>
		<polygon fill="#266279" points="272.234,311.019 361.917,311.019 361.917,318.218 272.234,318.218 276.383,314.618 		"/>
	</g>
</g>
<g>
	<g>
		<polygon fill="#266279" points="266.491,332.131 176.809,332.131 180.959,328.531 176.809,324.932 266.491,324.932 
			270.641,328.531 		"/>
	</g>
	<g>
		<polygon fill="#266279" points="170.002,332.131 80.321,332.131 80.321,324.932 170.002,324.932 174.151,328.531 		"/>
	</g>
	<g>
		<polygon fill="#266279" points="272.234,324.932 361.917,324.932 361.917,332.131 272.234,332.131 276.383,328.531 		"/>
	</g>
</g>
<g>
	<g>
		<polygon fill="#266279" points="266.491,346.045 176.809,346.045 180.959,342.445 176.809,338.846 266.491,338.846 
			270.641,342.445 		"/>
	</g>
	<g>
		<polygon fill="#266279" points="170.002,346.045 80.321,346.045 80.321,338.846 170.002,338.846 174.151,342.445 		"/>
	</g>
	<g>
		<polygon fill="#266279" points="272.234,338.846 361.917,338.846 361.917,346.045 272.234,346.045 276.383,342.445 		"/>
	</g>
</g>
<g>
	<g>
		<polygon fill="#266279" points="266.491,359.96 176.809,359.96 180.959,356.36 176.809,352.761 266.491,352.761 270.641,356.36 		
			"/>
	</g>
	<g>
		<polygon fill="#266279" points="170.002,359.96 80.321,359.96 80.321,352.761 170.002,352.761 174.151,356.36 		"/>
	</g>
	<g>
		<polygon fill="#266279" points="272.234,352.761 361.917,352.761 361.917,359.96 272.234,359.96 276.383,356.36 		"/>
	</g>
</g>
<g>
	<g>
		<polygon fill="#266279" points="266.491,373.872 176.809,373.872 180.959,370.272 176.809,366.673 266.491,366.673 
			270.641,370.272 		"/>
	</g>
	<g>
		<polygon fill="#266279" points="170.002,373.872 80.321,373.872 80.321,366.673 170.002,366.673 174.151,370.272 		"/>
	</g>
	<g>
		<polygon fill="#266279" points="272.234,366.673 361.917,366.673 361.917,373.872 272.234,373.872 276.383,370.272 		"/>
	</g>
</g>
<g>
	<g>
		<polygon fill="#266279" points="266.491,387.786 176.809,387.786 180.959,384.187 176.809,380.587 266.491,380.587 
			270.641,384.187 		"/>
	</g>
	<g>
		<polygon fill="#266279" points="170.002,387.786 80.321,387.786 80.321,380.587 170.002,380.587 174.151,384.187 		"/>
	</g>
	<g>
		<polygon fill="#266279" points="272.234,380.587 361.917,380.587 361.917,387.786 272.234,387.786 276.383,384.187 		"/>
	</g>
</g>
<g>
	<g>
		<polygon fill="#266279" points="266.491,401.7 176.809,401.7 180.959,398.101 176.809,394.501 266.491,394.501 270.641,398.101 		
			"/>
	</g>
	<g>
		<polygon fill="#266279" points="170.002,401.7 80.321,401.7 80.321,394.501 170.002,394.501 174.151,398.101 		"/>
	</g>
	<g>
		<polygon fill="#266279" points="272.234,394.501 361.917,394.501 361.917,401.7 272.234,401.7 276.383,398.101 		"/>
	</g>
</g>
<g>
	<g>
		<polygon fill="#266279" points="266.491,415.613 176.809,415.613 180.959,412.014 176.809,408.414 266.491,408.414 
			270.641,412.014 		"/>
	</g>
	<g>
		<polygon fill="#266279" points="170.002,415.613 80.321,415.613 80.321,408.414 170.002,408.414 174.151,412.014 		"/>
	</g>
	<g>
		<polygon fill="#266279" points="272.234,408.414 361.917,408.414 361.917,415.613 272.234,415.613 276.383,412.014 		"/>
	</g>
</g>
<g>
	<g>
		<polygon fill="#266279" points="266.491,429.528 176.809,429.528 180.959,425.929 176.809,422.329 266.491,422.329 
			270.641,425.929 		"/>
	</g>
	<g>
		<polygon fill="#266279" points="170.002,429.528 80.321,429.528 80.321,422.329 170.002,422.329 174.151,425.929 		"/>
	</g>
	<g>
		<polygon fill="#266279" points="272.234,422.329 361.917,422.329 361.917,429.528 272.234,429.528 276.383,425.929 		"/>
	</g>
</g>
<g>
	<g>
		<polygon fill="#266279" points="266.491,443.442 176.809,443.442 180.959,439.843 176.809,436.243 266.491,436.243 
			270.641,439.843 		"/>
	</g>
	<g>
		<polygon fill="#266279" points="170.002,443.442 80.321,443.442 80.321,436.243 170.002,436.243 174.151,439.843 		"/>
	</g>
	<g>
		<polygon fill="#266279" points="272.234,436.243 361.917,436.243 361.917,443.442 272.234,443.442 276.383,439.843 		"/>
	</g>
</g>
<g>
	<g>
		<polygon fill="#266279" points="266.491,457.355 176.809,457.355 180.959,453.756 176.809,450.156 266.491,450.156 
			270.641,453.756 		"/>
	</g>
	<g>
		<polygon fill="#266279" points="170.002,457.355 80.321,457.355 80.321,450.156 170.002,450.156 174.151,453.756 		"/>
	</g>
	<g>
		<polygon fill="#266279" points="272.234,450.156 361.917,450.156 361.917,457.355 272.234,457.355 276.383,453.756 		"/>
	</g>
</g>
<g>
	<g>
		<polygon fill="#266279" points="266.491,471.27 176.809,471.27 180.959,467.67 176.809,464.07 266.491,464.07 270.641,467.67 		
			"/>
	</g>
	<g>
		<polygon fill="#266279" points="170.002,471.27 80.321,471.27 80.321,464.07 170.002,464.07 174.151,467.67 		"/>
	</g>
	<g>
		<polygon fill="#266279" points="272.234,464.07 361.917,464.07 361.917,471.27 272.234,471.27 276.383,467.67 		"/>
	</g>
</g>
<g>
	<g>
		<polygon fill="#266279" points="266.491,290.391 176.809,290.391 180.959,286.791 176.809,283.191 266.491,283.191 
			270.641,286.791 		"/>
	</g>
	<g>
		<polygon fill="#266279" points="170.002,290.391 80.321,290.391 80.321,283.191 170.002,283.191 174.151,286.791 		"/>
	</g>
	<g>
		<polygon fill="#266279" points="272.234,283.191 361.917,283.191 361.917,290.391 272.234,290.391 276.383,286.791 		"/>
	</g>
</g>
<g>
	<polygon fill="#266279" points="266.491,485.184 176.809,485.184 180.959,481.584 176.809,477.984 266.491,477.984 
		270.641,481.584 	"/>
</g>
<g>
	<polygon fill="#266279" points="170.002,485.184 80.321,485.184 80.321,477.984 170.002,477.984 174.151,481.584 	"/>
</g>
<g>
	<polygon fill="#266279" points="272.234,477.984 276.383,481.584 272.234,485.184 357.768,485.184 361.917,481.584 
		357.768,477.984 	"/>
</g>
<g>
	<g>
		<polygon fill="#266279" points="266.491,234.734 176.809,234.734 180.959,231.135 176.809,227.535 266.491,227.535 
			270.641,231.135 		"/>
	</g>
	<g>
		<polygon fill="#266279" points="170.002,234.734 80.321,234.734 80.321,227.535 170.002,227.535 174.151,231.135 		"/>
	</g>
	<g>
		<polygon fill="#266279" points="272.234,227.535 361.917,227.535 361.917,234.734 272.234,234.734 276.383,231.135 		"/>
	</g>
</g>
<g>
	<g>
		<polygon fill="#266279" points="266.491,248.648 176.809,248.648 180.959,245.049 176.809,241.449 266.491,241.449 
			270.641,245.049 		"/>
	</g>
	<g>
		<polygon fill="#266279" points="170.002,248.648 80.321,248.648 80.321,241.449 170.002,241.449 174.151,245.049 		"/>
	</g>
	<g>
		<polygon fill="#266279" points="272.234,241.449 361.917,241.449 361.917,248.648 272.234,248.648 276.383,245.049 		"/>
	</g>
</g>
<g>
	<g>
		<polygon fill="#266279" points="266.491,262.562 176.809,262.562 180.959,258.963 176.809,255.363 266.491,255.363 
			270.641,258.963 		"/>
	</g>
	<g>
		<polygon fill="#266279" points="170.002,262.562 80.321,262.562 80.321,255.363 170.002,255.363 174.151,258.963 		"/>
	</g>
	<g>
		<polygon fill="#266279" points="272.234,255.363 361.917,255.363 361.917,262.562 272.234,262.562 276.383,258.963 		"/>
	</g>
</g>
<g>
	<g>
		<polygon fill="#266279" points="266.491,109.511 176.809,109.511 180.959,105.911 176.809,102.312 266.491,102.312 
			270.641,105.911 		"/>
	</g>
	<g>
		<polygon fill="#266279" points="170.002,109.511 80.321,109.511 80.321,102.312 170.002,102.312 174.151,105.911 		"/>
	</g>
	<g>
		<polygon fill="#266279" points="272.234,102.312 361.917,102.312 361.917,109.511 272.234,109.511 276.383,105.911 		"/>
	</g>
</g>
</svg>
