<?xml version="1.0" encoding="utf-8"?>
<!-- Generator: Adobe Illustrator 16.0.4, SVG Export Plug-In . SVG Version: 6.00 Build 0)  -->
<!DOCTYPE svg PUBLIC "-//W3C//DTD SVG 1.1//EN" "http://www.w3.org/Graphics/SVG/1.1/DTD/svg11.dtd">
<svg version="1.1" id="Layer_1" xmlns="http://www.w3.org/2000/svg" xmlns:xlink="http://www.w3.org/1999/xlink" x="0px" y="0px"
	 width="448.747px" height="616.439px" viewBox="0 0 448.747 616.439" enable-background="new 0 0 448.747 616.439"
	 xml:space="preserve">
<rect x="0.5" y="0.5" fill="#FFFFFF" stroke="#C68D06" stroke-miterlimit="10" width="447.747" height="615.439"/>
<g>
	<path fill="#C68D06" d="M353.312,558.755h-13.337v-2.274h15.927v2.135l-10.956,23.768h-2.556L353.312,558.755z"/>
	<path fill="#C68D06" d="M361.921,569.432c0-8.086,3.431-13.441,9.521-13.441s9.451,5.355,9.451,13.441s-3.36,13.441-9.451,13.441
		S361.921,577.518,361.921,569.432z M378.443,569.432c0-7.316-2.766-11.236-7.001-11.236c-4.41,0-7.036,3.92-7.036,11.236
		c0,7.315,2.766,11.271,7.036,11.271C375.817,580.703,378.443,576.747,378.443,569.432z"/>
	<path fill="#C68D06" d="M387.611,556.48h2.556l7.735,22.612h0.07l7.771-22.612h2.416l-9.102,26.008h-2.345L387.611,556.48z"/>
</g>
<g>
	<g>
		<rect x="79.216" y="158.217" fill="#C0DDE7" width="281.739" height="7.199"/>
	</g>
	<g>
		<rect x="79.216" y="172.129" fill="#C0DDE7" width="281.738" height="7.199"/>
	</g>
	<g>
		<rect x="79.216" y="186.043" fill="#C0DDE7" width="281.739" height="7.201"/>
	</g>
	<g>
		<rect x="79.216" y="199.957" fill="#C0DDE7" width="281.739" height="7.199"/>
	</g>
	<g>
		<rect x="79.216" y="213.871" fill="#C0DDE7" width="281.739" height="7.199"/>
	</g>
	<g>
		<rect x="79.216" y="227.785" fill="#C0DDE7" width="281.739" height="7.199"/>
	</g>
	<g>
		<rect x="79.216" y="241.699" fill="#C0DDE7" width="281.738" height="7.199"/>
	</g>
	<g>
		<rect x="79.216" y="255.611" fill="#C0DDE7" width="281.738" height="7.201"/>
	</g>
	<g>
		<rect x="79.216" y="269.527" fill="#C0DDE7" width="281.739" height="7.199"/>
	</g>
	<g>
		<rect x="79.216" y="283.439" fill="#C0DDE7" width="281.738" height="7.201"/>
	</g>
	<g>
		<rect x="79.216" y="297.354" fill="#C0DDE7" width="281.739" height="7.201"/>
	</g>
	<g>
		<rect x="79.216" y="311.268" fill="#C0DDE7" width="281.739" height="7.201"/>
	</g>
	<g>
		<rect x="79.216" y="325.182" fill="#C0DDE7" width="281.739" height="7.199"/>
	</g>
	<g>
		<rect x="79.216" y="339.096" fill="#C0DDE7" width="281.738" height="7.199"/>
	</g>
	<g>
		<rect x="79.216" y="353.01" fill="#C0DDE7" width="281.739" height="7.199"/>
	</g>
	<g>
		<rect x="79.216" y="366.924" fill="#C0DDE7" width="281.739" height="7.199"/>
	</g>
	<g>
		<rect x="79.216" y="380.838" fill="#C0DDE7" width="281.739" height="7.199"/>
	</g>
	<g>
		<rect x="79.216" y="394.752" fill="#C0DDE7" width="281.739" height="7.199"/>
	</g>
	<g>
		<rect x="79.216" y="408.664" fill="#C0DDE7" width="281.738" height="7.199"/>
	</g>
	<g>
		<rect x="79.216" y="422.578" fill="#C0DDE7" width="281.739" height="7.201"/>
	</g>
	<g>
		<rect x="79.216" y="436.492" fill="#C0DDE7" width="281.738" height="7.199"/>
	</g>
	<g>
		<rect x="79.216" y="450.406" fill="#C0DDE7" width="281.739" height="7.199"/>
	</g>
	<g>
		<rect x="79.216" y="464.32" fill="#C0DDE7" width="281.738" height="7.199"/>
	</g>
	<g>
		<rect x="79.216" y="478.234" fill="#C0DDE7" width="281.739" height="7.199"/>
	</g>
	<g>
		<rect x="79.216" y="60.818" fill="#C0DDE7" width="281.739" height="7.201"/>
	</g>
	<g>
		<rect x="79.216" y="74.732" fill="#C0DDE7" width="281.738" height="7.201"/>
	</g>
	<g>
		<rect x="79.216" y="144.303" fill="#C0DDE7" width="281.738" height="7.199"/>
	</g>
	<g>
		<rect x="79.216" y="88.646" fill="#C0DDE7" width="281.739" height="7.199"/>
	</g>
	<g>
		<rect x="79.216" y="102.561" fill="#C0DDE7" width="281.738" height="7.199"/>
	</g>
	<g>
		<rect x="79.216" y="116.475" fill="#C0DDE7" width="281.738" height="7.199"/>
	</g>
	<g>
		<rect x="79.216" y="130.389" fill="#C0DDE7" width="281.738" height="7.199"/>
	</g>
	<g>
		<g>
			<g>
				<path fill="#266279" d="M61.686,287.789h1.763v-10.971h-2.066v2.201h-3.661v-5.178h15.487v5.178h-3.684v-2.201h-2.347v10.971
					h1.797v3.078h-7.289V287.789z"/>
			</g>
			<g>
				<g>
					<g>
						<polygon fill="#266279" points="217.494,290.641 79.423,290.641 79.423,283.441 217.494,283.441 221.642,287.041 						"/>
					</g>
					<g>
						<polygon fill="#266279" points="222.884,283.441 360.955,283.441 360.955,290.641 222.884,290.641 227.032,287.041 						"/>
					</g>
				</g>
				<g>
					<g>
						<polygon fill="#266279" points="217.494,304.555 79.423,304.555 79.423,297.355 217.494,297.355 221.642,300.955 						"/>
					</g>
					<g>
						<polygon fill="#266279" points="222.884,297.355 360.955,297.355 360.955,304.555 222.884,304.555 227.032,300.955 						"/>
					</g>
				</g>
				<g>
					<g>
						<polygon fill="#266279" points="217.494,374.123 79.423,374.123 79.423,366.924 217.494,366.924 221.642,370.523 						"/>
					</g>
					<g>
						<polygon fill="#266279" points="222.884,366.924 360.955,366.924 360.955,374.123 222.884,374.123 227.032,370.523 						"/>
					</g>
				</g>
				<g>
					<g>
						<polygon fill="#266279" points="217.494,318.469 79.423,318.469 79.423,311.27 217.494,311.27 221.642,314.869 						"/>
					</g>
					<g>
						<polygon fill="#266279" points="222.884,311.27 360.955,311.27 360.955,318.469 222.884,318.469 227.032,314.869 						"/>
					</g>
				</g>
				<g>
					<g>
						<polygon fill="#266279" points="217.494,332.383 79.423,332.383 79.423,325.184 217.494,325.184 221.642,328.783 						"/>
					</g>
					<g>
						<polygon fill="#266279" points="222.884,325.184 360.955,325.184 360.955,332.383 222.884,332.383 227.032,328.783 						"/>
					</g>
				</g>
				<g>
					<g>
						<polygon fill="#266279" points="217.494,346.297 79.423,346.297 79.423,339.096 217.494,339.096 221.642,342.695 						"/>
					</g>
					<g>
						<polygon fill="#266279" points="222.884,339.096 360.955,339.096 360.955,346.297 222.884,346.297 227.032,342.695 						"/>
					</g>
				</g>
				<g>
					<g>
						<polygon fill="#266279" points="217.494,360.211 79.423,360.211 79.423,353.01 217.494,353.01 221.642,356.609 						"/>
					</g>
					<g>
						<polygon fill="#266279" points="222.884,353.01 360.955,353.01 360.955,360.211 222.884,360.211 227.032,356.609 						"/>
					</g>
				</g>
			</g>
		</g>
		<g>
			<g>
				<path fill="#266279" d="M65.729,385.508h7.289v3.076h-1.797v10.871h1.797v3.078h-7.289v-3.078h1.763v-10.871h-1.763V385.508z"/>
			</g>
			<g>
				<g>
					<g>
						<polygon fill="#266279" points="217.494,401.951 79.423,401.951 79.423,394.752 217.494,394.752 221.642,398.352 						"/>
					</g>
					<g>
						<polygon fill="#266279" points="222.884,394.752 360.955,394.752 360.955,401.951 222.884,401.951 227.032,398.352 						"/>
					</g>
				</g>
				<g>
					<g>
						<polygon fill="#266279" points="217.494,415.865 79.423,415.865 79.423,408.666 217.494,408.666 221.642,412.266 						"/>
					</g>
					<g>
						<polygon fill="#266279" points="222.884,408.666 360.955,408.666 360.955,415.865 222.884,415.865 227.032,412.266 						"/>
					</g>
				</g>
				<g>
					<g>
						<polygon fill="#266279" points="217.494,485.434 79.423,485.434 79.423,478.234 217.494,478.234 221.642,481.834 						"/>
					</g>
					<g>
						<polygon fill="#266279" points="222.884,478.234 360.955,478.234 360.955,485.434 222.884,485.434 227.032,481.834 						"/>
					</g>
				</g>
				<g>
					<g>
						<polygon fill="#266279" points="217.494,429.779 79.423,429.779 79.423,422.58 217.494,422.58 221.642,426.18 						"/>
					</g>
					<g>
						<polygon fill="#266279" points="222.884,422.58 360.955,422.58 360.955,429.779 222.884,429.779 227.032,426.18 						"/>
					</g>
				</g>
				<g>
					<g>
						<polygon fill="#266279" points="217.494,443.693 79.423,443.693 79.423,436.494 217.494,436.494 221.642,440.094 						"/>
					</g>
					<g>
						<polygon fill="#266279" points="222.884,436.494 360.955,436.494 360.955,443.693 222.884,443.693 227.032,440.094 						"/>
					</g>
				</g>
				<g>
					<g>
						<polygon fill="#266279" points="217.494,457.607 79.423,457.607 79.423,450.406 217.494,450.406 221.642,454.006 						"/>
					</g>
					<g>
						<polygon fill="#266279" points="222.884,450.406 360.955,450.406 360.955,457.607 222.884,457.607 227.032,454.006 						"/>
					</g>
				</g>
				<g>
					<g>
						<polygon fill="#266279" points="217.494,471.521 79.423,471.521 79.423,464.32 217.494,464.32 221.642,467.92 						"/>
					</g>
					<g>
						<polygon fill="#266279" points="222.884,464.32 360.955,464.32 360.955,471.521 222.884,471.521 227.032,467.92 						"/>
					</g>
				</g>
			</g>
		</g>
		<g>
			<g>
				<g>
					<g>
						<polygon fill="#266279" points="217.494,68.02 79.423,68.02 79.423,60.818 217.494,60.818 221.642,64.42 						"/>
					</g>
					<g>
						<polygon fill="#266279" points="222.884,60.818 360.955,60.818 360.955,68.02 222.884,68.02 227.032,64.42 						"/>
					</g>
				</g>
				<g>
					<g>
						<polygon fill="#266279" points="217.494,151.502 79.423,151.502 79.423,144.303 217.494,144.303 221.642,147.902 						"/>
					</g>
					<g>
						<polygon fill="#266279" points="222.884,144.303 360.955,144.303 360.955,151.502 222.884,151.502 227.032,147.902 						"/>
					</g>
				</g>
				<g>
					<g>
						<polygon fill="#266279" points="217.494,95.848 79.423,95.848 79.423,88.648 217.494,88.648 221.642,92.246 						"/>
					</g>
					<g>
						<polygon fill="#266279" points="222.884,88.648 360.955,88.648 360.955,95.848 222.884,95.848 227.032,92.246 						"/>
					</g>
				</g>
				<g>
					<g>
						<polygon fill="#266279" points="217.494,81.932 79.423,81.932 79.423,74.732 217.494,74.732 221.642,78.332 						"/>
					</g>
					<g>
						<polygon fill="#266279" points="222.884,74.732 360.955,74.732 360.955,81.932 222.884,81.932 227.032,78.332 						"/>
					</g>
				</g>
				<g>
					<g>
						<polygon fill="#266279" points="217.494,109.762 79.423,109.762 79.423,102.562 217.494,102.562 221.642,106.16 						"/>
					</g>
					<g>
						<polygon fill="#266279" points="222.884,102.562 360.955,102.562 360.955,109.762 222.884,109.762 227.032,106.16 						"/>
					</g>
				</g>
				<g>
					<g>
						<polygon fill="#266279" points="217.494,123.674 79.423,123.674 79.423,116.475 217.494,116.475 221.642,120.074 						"/>
					</g>
					<g>
						<polygon fill="#266279" points="222.884,116.475 360.955,116.475 360.955,123.674 222.884,123.674 227.032,120.074 						"/>
					</g>
				</g>
				<g>
					<g>
						<polygon fill="#266279" points="217.494,137.588 79.423,137.588 79.423,130.389 217.494,130.389 221.642,133.988 						"/>
					</g>
					<g>
						<polygon fill="#266279" points="222.884,130.389 360.955,130.389 360.955,137.588 222.884,137.588 227.032,133.988 						"/>
					</g>
				</g>
			</g>
			<g>
				<path fill="#266279" d="M65.929,50.174h7.289v3.088h-1.516l-4.548,13.938h-4.604l-4.414-13.938h-1.64v-3.088h7.3v3.088h-1.819
					l2.965,9.658l2.954-9.658h-1.965V50.174z"/>
			</g>
		</g>
		<g>
			<g>
				<path fill="#266279" d="M48.283,175.789h1.583V164.93h-1.583v-3.088h7.008l5.02,12.285l4.661-12.285h7.109v3.088h-1.583v10.859
					h1.561v3.078H65.69v-3.078h1.168v-9.793l-5.099,12.668h-3.156l-5.188-12.33v9.455h1.269v3.078h-6.401V175.789z"/>
			</g>
			<g>
				<g>
					<g>
						<polygon fill="#266279" points="217.39,193.244 79.319,193.244 79.319,186.045 217.39,186.045 221.538,189.645 						"/>
					</g>
					<g>
						<polygon fill="#266279" points="222.78,186.045 360.851,186.045 360.851,193.244 222.78,193.244 226.928,189.645 						"/>
					</g>
				</g>
				<g>
					<g>
						<polygon fill="#266279" points="217.39,179.33 79.319,179.33 79.319,172.131 217.39,172.131 221.538,175.73 						"/>
					</g>
					<g>
						<polygon fill="#266279" points="222.78,172.131 360.851,172.131 360.851,179.33 222.78,179.33 226.928,175.73 						"/>
					</g>
				</g>
				<g>
					<g>
						<polygon fill="#266279" points="217.39,207.158 79.319,207.158 79.319,199.959 217.39,199.959 221.538,203.557 						"/>
					</g>
					<g>
						<polygon fill="#266279" points="222.78,199.959 360.851,199.959 360.851,207.158 222.78,207.158 226.928,203.557 						"/>
					</g>
				</g>
				<g>
					<g>
						<polygon fill="#266279" points="217.39,234.984 79.319,234.984 79.319,227.785 217.39,227.785 221.538,231.385 						"/>
					</g>
					<g>
						<polygon fill="#266279" points="222.78,227.785 360.851,227.785 360.851,234.984 222.78,234.984 226.928,231.385 						"/>
					</g>
				</g>
				<g>
					<g>
						<polygon fill="#266279" points="217.494,221.072 79.423,221.072 79.423,213.873 217.494,213.873 221.642,217.473 						"/>
					</g>
					<g>
						<polygon fill="#266279" points="222.884,213.873 360.955,213.873 360.955,221.072 222.884,221.072 227.032,217.473 						"/>
					</g>
				</g>
				<g>
					<g>
						<polygon fill="#266279" points="217.39,248.9 79.319,248.9 79.319,241.701 217.39,241.701 221.538,245.299 						"/>
					</g>
					<g>
						<polygon fill="#266279" points="222.78,241.701 360.851,241.701 360.851,248.9 222.78,248.9 226.928,245.299 						"/>
					</g>
				</g>
				<g>
					<g>
						<polygon fill="#266279" points="217.39,262.812 79.319,262.812 79.319,255.613 217.39,255.613 221.538,259.213 						"/>
					</g>
					<g>
						<polygon fill="#266279" points="222.78,255.613 360.851,255.613 360.851,262.812 222.78,262.812 226.928,259.213 						"/>
					</g>
				</g>
			</g>
		</g>
	</g>
</g>
</svg>
