<?xml version="1.0" encoding="utf-8"?>
<!-- Generator: Adobe Illustrator 16.0.4, SVG Export Plug-In . SVG Version: 6.00 Build 0)  -->
<!DOCTYPE svg PUBLIC "-//W3C//DTD SVG 1.1//EN" "http://www.w3.org/Graphics/SVG/1.1/DTD/svg11.dtd">
<svg version="1.1" id="Layer_1" xmlns="http://www.w3.org/2000/svg" xmlns:xlink="http://www.w3.org/1999/xlink" x="0px" y="0px"
	 width="448.746px" height="616.439px" viewBox="0 0 448.746 616.439" enable-background="new 0 0 448.746 616.439"
	 xml:space="preserve">
<rect x="0.5" y="0.5" fill="#FFFFFF" stroke="#C68D06" stroke-miterlimit="10" width="447.746" height="615.439"/>
<g>
	<path fill="#C68D06" d="M353.094,557.505h-13.337v-2.274h15.927v2.135l-10.956,23.768h-2.556L353.094,557.505z"/>
	<path fill="#C68D06" d="M361.703,568.182c0-8.086,3.431-13.441,9.521-13.441s9.451,5.355,9.451,13.441s-3.36,13.441-9.451,13.441
		S361.703,576.268,361.703,568.182z M378.225,568.182c0-7.316-2.766-11.236-7.001-11.236c-4.41,0-7.036,3.92-7.036,11.236
		c0,7.315,2.766,11.271,7.036,11.271C375.599,579.453,378.225,575.497,378.225,568.182z"/>
	<path fill="#C68D06" d="M389.458,555.23h8.681c5.776,0,8.996,2.45,8.996,7c0,4.201-2.45,6.301-6.195,7.001l6.546,11.901h-2.801
		l-6.336-11.621h-6.44v11.621h-2.45V555.23z M397.964,567.307c4.271,0,6.686-1.226,6.686-4.971c0-3.57-2.38-4.831-6.721-4.831
		h-6.021v9.802H397.964z"/>
</g>
<g>
	<rect x="80.466" y="156.966" fill="#C0DDE7" width="281.738" height="7.199"/>
</g>
<g>
	<rect x="80.466" y="184.793" fill="#C0DDE7" width="281.738" height="7.2"/>
</g>
<g>
	<rect x="80.466" y="198.707" fill="#C0DDE7" width="281.738" height="7.199"/>
</g>
<g>
	<rect x="80.466" y="212.621" fill="#C0DDE7" width="281.738" height="7.199"/>
</g>
<g>
	<rect x="80.466" y="226.535" fill="#C0DDE7" width="281.738" height="7.199"/>
</g>
<g>
	<rect x="80.466" y="240.449" fill="#C0DDE7" width="281.738" height="7.199"/>
</g>
<g>
	<rect x="80.466" y="254.361" fill="#C0DDE7" width="281.738" height="7.201"/>
</g>
<g>
	<rect x="80.466" y="268.276" fill="#C0DDE7" width="281.738" height="7.199"/>
</g>
<g>
	<rect x="80.466" y="282.189" fill="#C0DDE7" width="281.738" height="7.201"/>
</g>
<g>
	<rect x="80.466" y="296.104" fill="#C0DDE7" width="281.738" height="7.2"/>
</g>
<g>
	<rect x="80.466" y="310.018" fill="#C0DDE7" width="281.738" height="7.2"/>
</g>
<g>
	<rect x="80.466" y="323.932" fill="#C0DDE7" width="281.738" height="7.199"/>
</g>
<g>
	<rect x="80.466" y="337.846" fill="#C0DDE7" width="281.738" height="7.199"/>
</g>
<g>
	<rect x="80.466" y="351.759" fill="#C0DDE7" width="281.738" height="7.201"/>
</g>
<g>
	<rect x="80.466" y="365.673" fill="#C0DDE7" width="281.738" height="7.2"/>
</g>
<g>
	<rect x="80.466" y="379.587" fill="#C0DDE7" width="281.738" height="7.199"/>
</g>
<g>
	<rect x="80.466" y="393.501" fill="#C0DDE7" width="281.738" height="7.199"/>
</g>
<g>
	<rect x="80.466" y="407.414" fill="#C0DDE7" width="281.738" height="7.199"/>
</g>
<g>
	<rect x="80.466" y="421.328" fill="#C0DDE7" width="281.738" height="7.2"/>
</g>
<g>
	<rect x="80.466" y="435.242" fill="#C0DDE7" width="281.738" height="7.2"/>
</g>
<g>
	<rect x="80.466" y="449.156" fill="#C0DDE7" width="281.738" height="7.199"/>
</g>
<g>
	<rect x="80.466" y="463.07" fill="#C0DDE7" width="281.738" height="7.199"/>
</g>
<g>
	<rect x="80.466" y="476.982" fill="#C0DDE7" width="281.738" height="7.201"/>
</g>
<g>
	<rect x="80.466" y="351.76" fill="#C0DDE7" width="281.738" height="7.2"/>
</g>
<g>
	<rect x="80.466" y="73.482" fill="#C0DDE7" width="281.738" height="7.2"/>
</g>
<g>
	<rect x="80.466" y="143.052" fill="#C0DDE7" width="281.738" height="7.2"/>
</g>
<g>
	<rect x="80.466" y="170.879" fill="#C0DDE7" width="281.738" height="7.201"/>
</g>
<g>
	<rect x="80.466" y="87.396" fill="#C0DDE7" width="281.738" height="7.199"/>
</g>
<g>
	<rect x="80.466" y="101.311" fill="#C0DDE7" width="281.738" height="7.2"/>
</g>
<g>
	<rect x="80.466" y="115.225" fill="#C0DDE7" width="281.738" height="7.199"/>
</g>
<g>
	<rect x="80.466" y="129.139" fill="#C0DDE7" width="281.738" height="7.198"/>
</g>
<g>
	<rect x="80.466" y="156.966" fill="#C0DDE7" width="281.738" height="7.2"/>
</g>
<g>
	<g>
		<g>
			<polygon fill="#266279" points="218.64,414.479 80.57,414.479 80.57,407.279 218.64,407.279 222.789,410.877 			"/>
		</g>
		<g>
			<polygon fill="#266279" points="224.03,407.279 362.101,407.279 362.101,414.479 224.03,414.479 228.179,410.877 			"/>
		</g>
	</g>
	<g>
		<g>
			<polygon fill="#266279" points="218.64,400.701 80.57,400.701 80.57,393.502 218.64,393.502 222.789,397.102 			"/>
		</g>
		<g>
			<polygon fill="#266279" points="224.03,393.502 362.101,393.502 362.101,400.701 224.03,400.701 228.179,397.102 			"/>
		</g>
	</g>
	<g>
		<g>
			<polygon fill="#266279" points="218.64,428.412 80.57,428.412 80.57,421.213 218.64,421.213 222.789,424.812 			"/>
		</g>
		<g>
			<polygon fill="#266279" points="224.03,421.213 362.101,421.213 362.101,428.412 224.03,428.412 228.179,424.812 			"/>
		</g>
	</g>
	<g>
		<g>
			<polygon fill="#266279" points="218.64,442.346 80.57,442.346 80.57,435.146 218.64,435.146 222.789,438.744 			"/>
		</g>
		<g>
			<polygon fill="#266279" points="224.03,435.146 362.101,435.146 362.101,442.346 224.03,442.346 228.179,438.744 			"/>
		</g>
	</g>
	<g>
		<g>
			<polygon fill="#266279" points="218.64,456.279 80.57,456.279 80.57,449.08 218.64,449.08 222.789,452.68 			"/>
		</g>
		<g>
			<polygon fill="#266279" points="224.03,449.08 362.101,449.08 362.101,456.279 224.03,456.279 228.179,452.68 			"/>
		</g>
	</g>
	<g>
		<g>
			<polygon fill="#266279" points="218.64,470.215 80.57,470.215 80.57,463.014 218.64,463.014 222.789,466.613 			"/>
		</g>
		<g>
			<polygon fill="#266279" points="224.03,463.014 362.101,463.014 362.101,470.215 224.03,470.215 228.179,466.613 			"/>
		</g>
	</g>
	<g>
		<g>
			<polygon fill="#266279" points="218.64,484.184 80.57,484.184 80.57,476.984 218.64,476.984 222.789,480.584 			"/>
		</g>
		<g>
			<polygon fill="#266279" points="224.03,476.984 362.101,476.984 362.101,484.184 224.03,484.184 228.179,480.584 			"/>
		</g>
	</g>
	<g>
		<path fill="#266279" d="M58.954,383.99h6.536c0.779,0,1.525,0.102,2.24,0.303c0.715,0.203,1.382,0.487,1.999,0.854
			c0.618,0.367,1.18,0.808,1.685,1.32c0.506,0.513,0.938,1.084,1.297,1.713s0.636,1.306,0.831,2.032s0.292,1.482,0.292,2.269
			s-0.097,1.542-0.292,2.269s-0.472,1.405-0.831,2.038s-0.792,1.209-1.297,1.729c-0.505,0.521-1.066,0.966-1.685,1.337
			c-0.617,0.37-1.284,0.656-1.999,0.859c-0.715,0.201-1.461,0.303-2.24,0.303h-6.536v-3.077h1.359v-10.86h-1.359V383.99z
			 M64.041,387.078v10.86h1.426c0.606,0,1.179-0.143,1.718-0.427s1.007-0.672,1.404-1.162s0.711-1.067,0.943-1.729
			c0.232-0.663,0.348-1.376,0.348-2.14c0-0.756-0.116-1.464-0.348-2.123c-0.232-0.658-0.546-1.231-0.943-1.718
			s-0.865-0.868-1.404-1.146s-1.112-0.416-1.718-0.416H64.041z"/>
	</g>
</g>
<g>
	<path fill="#266279" d="M69.604,119.402c-0.451-0.123-0.876-0.305-1.274-0.545s-0.747-0.537-1.046-0.893
		c-0.299-0.354-0.536-0.764-0.712-1.23c-0.176-0.465-0.264-0.988-0.264-1.568c0-0.615,0.123-1.191,0.369-1.727
		c0.246-0.537,0.595-1.004,1.046-1.402s0.996-0.712,1.635-0.941c0.639-0.229,1.351-0.343,2.136-0.343h6.012v2.417h-1.239v14.09
		H73.69v-14.09h-1.512v14.09h-2.575V119.402z"/>
</g>
<g>
	<path fill="#266279" d="M69.604,258.267c-0.451-0.123-0.876-0.305-1.274-0.545c-0.398-0.241-0.747-0.536-1.046-0.892
		c-0.299-0.354-0.536-0.766-0.712-1.231c-0.176-0.465-0.264-0.988-0.264-1.567c0-0.615,0.123-1.192,0.369-1.728
		c0.246-0.537,0.595-1.003,1.046-1.402c0.451-0.398,0.996-0.712,1.635-0.94s1.351-0.342,2.136-0.342h6.012v2.416h-1.239v14.089
		H73.69v-14.089h-1.512v14.089h-2.575V258.267z"/>
</g>
<g>
	<path fill="#266279" d="M69.604,188.767c-0.451-0.123-0.876-0.305-1.274-0.545c-0.398-0.241-0.747-0.536-1.046-0.892
		c-0.299-0.354-0.536-0.766-0.712-1.231c-0.176-0.465-0.264-0.988-0.264-1.567c0-0.615,0.123-1.192,0.369-1.728
		c0.246-0.537,0.595-1.003,1.046-1.402c0.451-0.398,0.996-0.712,1.635-0.94s1.351-0.342,2.136-0.342h6.012v2.416h-1.239v14.089
		H73.69v-14.089h-1.512v14.089h-2.575V188.767z"/>
</g>
<g>
	<path fill="#266279" d="M69.604,328.099c-0.451-0.123-0.876-0.305-1.274-0.545s-0.747-0.537-1.046-0.893
		c-0.299-0.353-0.536-0.764-0.712-1.23c-0.176-0.465-0.264-0.987-0.264-1.567c0-0.616,0.123-1.192,0.369-1.728
		c0.246-0.537,0.595-1.004,1.046-1.402s0.996-0.711,1.635-0.94c0.639-0.228,1.351-0.343,2.136-0.343h6.012v2.418h-1.239v14.088
		H73.69v-14.088h-1.512v14.088h-2.575V328.099z"/>
</g>
<g>
	<g>
		<polygon fill="#266279" points="266.779,66.768 177.097,66.768 181.248,63.168 177.097,59.568 266.779,59.568 270.929,63.168 		
			"/>
	</g>
	<g>
		<polygon fill="#266279" points="170.291,66.768 80.609,66.768 80.609,59.568 170.291,59.568 174.439,63.168 		"/>
	</g>
	<g>
		<polygon fill="#266279" points="272.522,59.568 362.205,59.568 362.205,66.768 272.522,66.768 276.671,63.168 		"/>
	</g>
</g>
<g>
	<g>
		<polygon fill="#266279" points="266.779,80.683 177.097,80.683 181.248,77.083 177.097,73.483 266.779,73.483 270.929,77.083 		
			"/>
	</g>
	<g>
		<polygon fill="#266279" points="170.291,80.683 80.609,80.683 80.609,73.483 170.291,73.483 174.439,77.083 		"/>
	</g>
	<g>
		<polygon fill="#266279" points="272.522,73.483 362.205,73.483 362.205,80.683 272.522,80.683 276.671,77.083 		"/>
	</g>
</g>
<g>
	<g>
		<polygon fill="#266279" points="266.779,94.596 177.097,94.596 181.248,90.996 177.097,87.396 266.779,87.396 270.929,90.996 		
			"/>
	</g>
	<g>
		<polygon fill="#266279" points="170.291,94.596 80.609,94.596 80.609,87.396 170.291,87.396 174.439,90.996 		"/>
	</g>
	<g>
		<polygon fill="#266279" points="272.522,87.396 362.205,87.396 362.205,94.596 272.522,94.596 276.671,90.996 		"/>
	</g>
</g>
<g>
	<g>
		<polygon fill="#266279" points="266.779,122.424 177.097,122.424 181.248,118.824 177.097,115.225 266.779,115.225 
			270.929,118.824 		"/>
	</g>
	<g>
		<polygon fill="#266279" points="170.291,122.424 80.609,122.424 80.609,115.225 170.291,115.225 174.439,118.824 		"/>
	</g>
	<g>
		<polygon fill="#266279" points="272.522,115.225 362.205,115.225 362.205,122.424 272.522,122.424 276.671,118.824 		"/>
	</g>
</g>
<g>
	<g>
		<polygon fill="#266279" points="266.779,136.338 177.097,136.338 181.248,132.738 177.097,129.139 266.779,129.139 
			270.929,132.738 		"/>
	</g>
	<g>
		<polygon fill="#266279" points="170.291,136.338 80.609,136.338 80.609,129.139 170.291,129.139 174.439,132.738 		"/>
	</g>
	<g>
		<polygon fill="#266279" points="272.522,129.139 362.205,129.139 362.205,136.338 272.522,136.338 276.671,132.738 		"/>
	</g>
</g>
<g>
	<g>
		<polygon fill="#266279" points="266.779,150.251 177.097,150.251 181.248,146.651 177.097,143.052 266.779,143.052 
			270.929,146.651 		"/>
	</g>
	<g>
		<polygon fill="#266279" points="170.291,150.251 80.609,150.251 80.609,143.052 170.291,143.052 174.439,146.651 		"/>
	</g>
	<g>
		<polygon fill="#266279" points="272.522,143.052 362.205,143.052 362.205,150.251 272.522,150.251 276.671,146.651 		"/>
	</g>
</g>
<g>
	<g>
		<polygon fill="#266279" points="266.779,164.165 177.097,164.165 181.248,160.565 177.097,156.966 266.779,156.966 
			270.929,160.565 		"/>
	</g>
	<g>
		<polygon fill="#266279" points="170.291,164.165 80.609,164.165 80.609,156.966 170.291,156.966 174.439,160.565 		"/>
	</g>
	<g>
		<polygon fill="#266279" points="272.522,156.966 362.205,156.966 362.205,164.165 272.522,164.165 276.671,160.565 		"/>
	</g>
</g>
<g>
	<g>
		<polygon fill="#266279" points="266.779,178.078 177.097,178.078 181.248,174.479 177.097,170.879 266.779,170.879 
			270.929,174.479 		"/>
	</g>
	<g>
		<polygon fill="#266279" points="170.291,178.078 80.609,178.078 80.609,170.879 170.291,170.879 174.439,174.479 		"/>
	</g>
	<g>
		<polygon fill="#266279" points="272.522,170.879 362.205,170.879 362.205,178.078 272.522,178.078 276.671,174.479 		"/>
	</g>
</g>
<g>
	<g>
		<polygon fill="#266279" points="266.779,191.993 177.097,191.993 181.248,188.394 177.097,184.794 266.779,184.794 
			270.929,188.394 		"/>
	</g>
	<g>
		<polygon fill="#266279" points="170.291,191.993 80.609,191.993 80.609,184.794 170.291,184.794 174.439,188.394 		"/>
	</g>
	<g>
		<polygon fill="#266279" points="272.522,184.794 362.205,184.794 362.205,191.993 272.522,191.993 276.671,188.394 		"/>
	</g>
</g>
<g>
	<g>
		<polygon fill="#266279" points="266.779,205.906 177.097,205.906 181.248,202.307 177.097,198.707 266.779,198.707 
			270.929,202.307 		"/>
	</g>
	<g>
		<polygon fill="#266279" points="170.291,205.906 80.609,205.906 80.609,198.707 170.291,198.707 174.439,202.307 		"/>
	</g>
	<g>
		<polygon fill="#266279" points="272.522,198.707 362.205,198.707 362.205,205.906 272.522,205.906 276.671,202.307 		"/>
	</g>
</g>
<g>
	<g>
		<polygon fill="#266279" points="266.779,219.82 177.097,219.82 181.248,216.221 177.097,212.621 266.779,212.621 270.929,216.221 
					"/>
	</g>
	<g>
		<polygon fill="#266279" points="170.291,219.82 80.609,219.82 80.609,212.621 170.291,212.621 174.439,216.221 		"/>
	</g>
	<g>
		<polygon fill="#266279" points="272.522,212.621 362.205,212.621 362.205,219.82 272.522,219.82 276.671,216.221 		"/>
	</g>
</g>
<g>
	<g>
		<polygon fill="#266279" points="266.779,275.476 177.097,275.476 181.248,271.876 177.097,268.276 266.779,268.276 
			270.929,271.876 		"/>
	</g>
	<g>
		<polygon fill="#266279" points="170.291,275.476 80.609,275.476 80.609,268.276 170.291,268.276 174.439,271.876 		"/>
	</g>
	<g>
		<polygon fill="#266279" points="272.522,268.276 362.205,268.276 362.205,275.476 272.522,275.476 276.671,271.876 		"/>
	</g>
</g>
<g>
	<g>
		<polygon fill="#266279" points="266.779,303.304 177.097,303.304 181.248,299.704 177.097,296.104 266.779,296.104 
			270.929,299.704 		"/>
	</g>
	<g>
		<polygon fill="#266279" points="170.291,303.304 80.609,303.304 80.609,296.104 170.291,296.104 174.439,299.704 		"/>
	</g>
	<g>
		<polygon fill="#266279" points="272.522,296.104 362.205,296.104 362.205,303.304 272.522,303.304 276.671,299.704 		"/>
	</g>
</g>
<g>
	<g>
		<polygon fill="#266279" points="266.779,317.218 177.097,317.218 181.248,313.618 177.097,310.019 266.779,310.019 
			270.929,313.618 		"/>
	</g>
	<g>
		<polygon fill="#266279" points="170.291,317.218 80.609,317.218 80.609,310.019 170.291,310.019 174.439,313.618 		"/>
	</g>
	<g>
		<polygon fill="#266279" points="272.522,310.019 362.205,310.019 362.205,317.218 272.522,317.218 276.671,313.618 		"/>
	</g>
</g>
<g>
	<g>
		<polygon fill="#266279" points="266.779,331.131 177.097,331.131 181.248,327.531 177.097,323.932 266.779,323.932 
			270.929,327.531 		"/>
	</g>
	<g>
		<polygon fill="#266279" points="170.291,331.131 80.609,331.131 80.609,323.932 170.291,323.932 174.439,327.531 		"/>
	</g>
	<g>
		<polygon fill="#266279" points="272.522,323.932 362.205,323.932 362.205,331.131 272.522,331.131 276.671,327.531 		"/>
	</g>
</g>
<g>
	<g>
		<polygon fill="#266279" points="266.779,345.045 177.097,345.045 181.248,341.445 177.097,337.846 266.779,337.846 
			270.929,341.445 		"/>
	</g>
	<g>
		<polygon fill="#266279" points="170.291,345.045 80.609,345.045 80.609,337.846 170.291,337.846 174.439,341.445 		"/>
	</g>
	<g>
		<polygon fill="#266279" points="272.522,337.846 362.205,337.846 362.205,345.045 272.522,345.045 276.671,341.445 		"/>
	</g>
</g>
<g>
	<rect x="80.609" y="351.761" fill="#266279" width="93.83" height="7.199"/>
</g>
<g>
	<g>
		<polygon fill="#266279" points="266.779,289.391 177.097,289.391 181.248,285.791 177.097,282.191 266.779,282.191 
			270.929,285.791 		"/>
	</g>
	<g>
		<polygon fill="#266279" points="170.291,289.391 80.609,289.391 80.609,282.191 170.291,282.191 174.439,285.791 		"/>
	</g>
	<g>
		<polygon fill="#266279" points="272.522,282.191 362.205,282.191 362.205,289.391 272.522,289.391 276.671,285.791 		"/>
	</g>
</g>
<g>
	<g>
		<polygon fill="#266279" points="266.779,233.734 177.097,233.734 181.248,230.135 177.097,226.535 266.779,226.535 
			270.929,230.135 		"/>
	</g>
	<g>
		<polygon fill="#266279" points="170.291,233.734 80.609,233.734 80.609,226.535 170.291,226.535 174.439,230.135 		"/>
	</g>
	<g>
		<polygon fill="#266279" points="272.522,226.535 362.205,226.535 362.205,233.734 272.522,233.734 276.671,230.135 		"/>
	</g>
</g>
<g>
	<g>
		<polygon fill="#266279" points="266.779,247.648 177.097,247.648 181.248,244.049 177.097,240.449 266.779,240.449 
			270.929,244.049 		"/>
	</g>
	<g>
		<polygon fill="#266279" points="170.291,247.648 80.609,247.648 80.609,240.449 170.291,240.449 174.439,244.049 		"/>
	</g>
	<g>
		<polygon fill="#266279" points="272.522,240.449 362.205,240.449 362.205,247.648 272.522,247.648 276.671,244.049 		"/>
	</g>
</g>
<g>
	<g>
		<polygon fill="#266279" points="266.779,261.562 177.097,261.562 181.248,257.963 177.097,254.363 266.779,254.363 
			270.929,257.963 		"/>
	</g>
	<g>
		<polygon fill="#266279" points="170.291,261.562 80.609,261.562 80.609,254.363 170.291,254.363 174.439,257.963 		"/>
	</g>
	<g>
		<polygon fill="#266279" points="272.522,254.363 362.205,254.363 362.205,261.562 272.522,261.562 276.671,257.963 		"/>
	</g>
</g>
<g>
	<g>
		<polygon fill="#266279" points="266.779,108.511 177.097,108.511 181.248,104.911 177.097,101.312 266.779,101.312 
			270.929,104.911 		"/>
	</g>
	<g>
		<polygon fill="#266279" points="170.291,108.511 80.609,108.511 80.609,101.312 170.291,101.312 174.439,104.911 		"/>
	</g>
	<g>
		<polygon fill="#266279" points="272.522,101.312 362.205,101.312 362.205,108.511 272.522,108.511 276.671,104.911 		"/>
	</g>
</g>
</svg>
