<?xml version="1.0" encoding="utf-8"?>
<!-- Generator: Adobe Illustrator 16.0.4, SVG Export Plug-In . SVG Version: 6.00 Build 0)  -->
<!DOCTYPE svg PUBLIC "-//W3C//DTD SVG 1.1//EN" "http://www.w3.org/Graphics/SVG/1.1/DTD/svg11.dtd">
<svg version="1.1" id="Layer_1" xmlns="http://www.w3.org/2000/svg" xmlns:xlink="http://www.w3.org/1999/xlink" x="0px" y="0px"
	 width="448.747px" height="616.441px" viewBox="0 0 448.747 616.441" enable-background="new 0 0 448.747 616.441"
	 xml:space="preserve">
<rect x="0.5" y="0.5" fill="#FFFFFF" stroke="#C68D06" stroke-miterlimit="10" width="447.747" height="615.441"/>
<g>
	<path fill="#C68D06" d="M361.748,556.756h-13.337v-2.275h15.927v2.135l-10.956,23.768h-2.556L361.748,556.756z"/>
	<path fill="#C68D06" d="M371.581,578.143h4.865v-20.967c-1.26,0.666-3.29,1.189-4.796,1.189v-2.205
		c1.995-0.07,3.78-0.594,4.936-1.68h2.311v23.662h4.41v2.24h-11.726V578.143z"/>
	<path fill="#C68D06" d="M389.36,554.48h2.556l7.735,22.613h0.07l7.771-22.613h2.416l-9.102,26.008h-2.345L389.36,554.48z"/>
</g>
<g>
	<rect x="79.884" y="158.719" fill="#C0DDE7" width="281.739" height="7.199"/>
</g>
<g>
	<rect x="79.884" y="172.633" fill="#C0DDE7" width="281.738" height="7.199"/>
</g>
<g>
	<rect x="79.875" y="186.547" fill="#C0DDE7" width="281.739" height="7.199"/>
</g>
<g>
	<rect x="79.884" y="200.461" fill="#C0DDE7" width="281.739" height="7.199"/>
</g>
<g>
	<rect x="79.884" y="214.375" fill="#C0DDE7" width="281.739" height="7.199"/>
</g>
<g>
	<rect x="79.884" y="228.287" fill="#C0DDE7" width="281.739" height="7.201"/>
</g>
<g>
	<rect x="79.884" y="242.203" fill="#C0DDE7" width="281.738" height="7.199"/>
</g>
<g>
	<rect x="79.884" y="256.115" fill="#C0DDE7" width="281.738" height="7.201"/>
</g>
<g>
	<rect x="79.884" y="270.029" fill="#C0DDE7" width="281.739" height="7.199"/>
</g>
<g>
	<rect x="79.884" y="283.943" fill="#C0DDE7" width="281.738" height="7.201"/>
</g>
<g>
	<rect x="79.884" y="297.857" fill="#C0DDE7" width="281.739" height="7.201"/>
</g>
<g>
	<rect x="79.884" y="311.771" fill="#C0DDE7" width="281.739" height="7.199"/>
</g>
<g>
	<rect x="79.884" y="325.686" fill="#C0DDE7" width="281.739" height="7.199"/>
</g>
<g>
	<rect x="79.884" y="339.6" fill="#C0DDE7" width="281.738" height="7.199"/>
</g>
<g>
	<rect x="79.884" y="353.512" fill="#C0DDE7" width="281.739" height="7.201"/>
</g>
<g>
	<rect x="79.884" y="367.426" fill="#C0DDE7" width="281.739" height="7.201"/>
</g>
<g>
	<rect x="79.884" y="381.342" fill="#C0DDE7" width="281.739" height="7.197"/>
</g>
<g>
	<rect x="79.884" y="395.254" fill="#C0DDE7" width="281.739" height="7.199"/>
</g>
<g>
	<rect x="79.884" y="409.168" fill="#C0DDE7" width="281.738" height="7.199"/>
</g>
<g>
	<rect x="79.884" y="423.082" fill="#C0DDE7" width="281.739" height="7.199"/>
</g>
<g>
	<rect x="79.884" y="436.996" fill="#C0DDE7" width="281.738" height="7.199"/>
</g>
<g>
	<rect x="79.884" y="450.91" fill="#C0DDE7" width="281.739" height="7.199"/>
</g>
<g>
	<rect x="79.884" y="464.824" fill="#C0DDE7" width="281.738" height="7.199"/>
</g>
<g>
	<rect x="79.884" y="478.736" fill="#C0DDE7" width="281.739" height="7.201"/>
</g>
<g>
	<rect x="79.884" y="61.322" fill="#C0DDE7" width="281.739" height="7.199"/>
</g>
<g>
	<rect x="79.884" y="75.236" fill="#C0DDE7" width="281.738" height="7.199"/>
</g>
<g>
	<rect x="79.884" y="144.806" fill="#C0DDE7" width="281.738" height="7.198"/>
</g>
<g>
	<rect x="79.884" y="89.15" fill="#C0DDE7" width="281.739" height="7.199"/>
</g>
<g>
	<rect x="79.884" y="103.064" fill="#C0DDE7" width="281.738" height="7.199"/>
</g>
<g>
	<rect x="79.884" y="116.979" fill="#C0DDE7" width="281.738" height="7.199"/>
</g>
<g>
	<rect x="79.884" y="130.893" fill="#C0DDE7" width="281.738" height="7.199"/>
</g>
<g>
	<path fill="#266279" d="M66.7,51.785h7.289v3.088h-1.516l-4.548,13.938H63.32l-4.414-13.938h-1.64v-3.088h7.3v3.088h-1.819
		l2.965,9.658l2.954-9.658H66.7V51.785z"/>
</g>
<g>
	<g>
		<g>
			<polygon fill="#266279" points="218.058,96.35 79.987,96.35 79.987,89.15 218.058,89.15 222.206,92.75 			"/>
		</g>
		<g>
			<polygon fill="#266279" points="223.448,89.15 361.519,89.15 361.519,96.35 223.448,96.35 227.596,92.75 			"/>
		</g>
	</g>
	<g>
		<g>
			<polygon fill="#266279" points="218.058,82.436 79.987,82.436 79.987,75.236 218.058,75.236 222.206,78.834 			"/>
		</g>
		<g>
			<polygon fill="#266279" points="223.448,75.236 361.519,75.236 361.519,82.436 223.448,82.436 227.596,78.834 			"/>
		</g>
	</g>
	<g>
		<g>
			<polygon fill="#266279" points="218.058,110.264 79.987,110.264 79.987,103.064 218.058,103.064 222.206,106.664 			"/>
		</g>
		<g>
			<polygon fill="#266279" points="223.448,103.064 361.519,103.064 361.519,110.264 223.448,110.264 227.596,106.664 			"/>
		</g>
	</g>
	<g>
		<g>
			<polygon fill="#266279" points="218.058,124.178 79.987,124.178 79.987,116.979 218.058,116.979 222.206,120.577 			"/>
		</g>
		<g>
			<polygon fill="#266279" points="223.448,116.979 361.519,116.979 361.519,124.178 223.448,124.178 227.596,120.577 			"/>
		</g>
	</g>
	<g>
		<g>
			<polygon fill="#266279" points="218.058,138.092 79.987,138.092 79.987,130.892 218.058,130.892 222.206,134.49 			"/>
		</g>
		<g>
			<polygon fill="#266279" points="223.448,130.892 361.519,130.892 361.519,138.092 223.448,138.092 227.596,134.49 			"/>
		</g>
	</g>
	<g>
		<rect x="79.884" y="144.806" fill="#266279" width="142.488" height="7.199"/>
	</g>
	<g>
		<g>
			<polygon fill="#266279" points="218.162,68.521 80.091,68.521 80.091,61.322 218.162,61.322 222.31,64.922 			"/>
		</g>
		<g>
			<polygon fill="#266279" points="223.552,61.322 361.623,61.322 361.623,68.521 223.552,68.521 227.7,64.922 			"/>
		</g>
	</g>
</g>
<g>
	<g>
		<path fill="#266279" d="M70.495,162.881c-0.451-0.123-0.876-0.305-1.274-0.545s-0.747-0.537-1.046-0.893
			c-0.299-0.354-0.536-0.764-0.712-1.23c-0.176-0.465-0.264-0.988-0.264-1.568c0-0.615,0.123-1.191,0.369-1.727
			c0.246-0.537,0.595-1.004,1.046-1.402s0.996-0.713,1.635-0.941s1.351-0.342,2.136-0.342h6.012v2.416h-1.239v14.09h-2.575v-14.09
			H73.07v14.09h-2.575V162.881z"/>
	</g>
	<g>
		<g>
			<g>
				<polygon fill="#266279" points="218.058,193.748 79.987,193.748 79.987,186.549 218.058,186.549 222.206,190.148 				"/>
			</g>
			<g>
				<polygon fill="#266279" points="223.448,186.549 361.519,186.549 361.519,193.748 223.448,193.748 227.596,190.148 				"/>
			</g>
		</g>
		<g>
			<g>
				<polygon fill="#266279" points="218.058,179.834 79.987,179.834 79.987,172.635 218.058,172.635 222.206,176.232 				"/>
			</g>
			<g>
				<polygon fill="#266279" points="223.448,172.635 361.519,172.635 361.519,179.834 223.448,179.834 227.596,176.232 				"/>
			</g>
		</g>
		<g>
			<g>
				<polygon fill="#266279" points="218.058,207.662 79.987,207.662 79.987,200.463 218.058,200.463 222.206,204.062 				"/>
			</g>
			<g>
				<polygon fill="#266279" points="223.448,200.463 361.519,200.463 361.519,207.662 223.448,207.662 227.596,204.062 				"/>
			</g>
		</g>
		<g>
			<g>
				<polygon fill="#266279" points="218.058,221.576 79.987,221.576 79.987,214.377 218.058,214.377 222.206,217.975 				"/>
			</g>
			<g>
				<polygon fill="#266279" points="223.448,214.377 361.519,214.377 361.519,221.576 223.448,221.576 227.596,217.975 				"/>
			</g>
		</g>
		<g>
			<g>
				<polygon fill="#266279" points="218.058,235.49 79.987,235.49 79.987,228.289 218.058,228.289 222.206,231.889 				"/>
			</g>
			<g>
				<polygon fill="#266279" points="223.448,228.289 361.519,228.289 361.519,235.49 223.448,235.49 227.596,231.889 				"/>
			</g>
		</g>
		<g>
			<rect x="79.884" y="242.203" fill="#266279" width="142.488" height="7.199"/>
		</g>
		<g>
			<g>
				<polygon fill="#266279" points="218.162,165.92 80.091,165.92 80.091,158.721 218.162,158.721 222.31,162.32 				"/>
			</g>
			<g>
				<polygon fill="#266279" points="223.552,158.721 361.623,158.721 361.623,165.92 223.552,165.92 227.7,162.32 				"/>
			</g>
		</g>
	</g>
</g>
<g>
	<g>
		<path fill="#266279" d="M70.495,260.277c-0.451-0.123-0.876-0.305-1.274-0.545s-0.747-0.537-1.046-0.893
			c-0.299-0.354-0.536-0.764-0.712-1.23c-0.176-0.465-0.264-0.988-0.264-1.568c0-0.615,0.123-1.191,0.369-1.727
			c0.246-0.537,0.595-1.004,1.046-1.402s0.996-0.712,1.635-0.94s1.351-0.343,2.136-0.343h6.012v2.417h-1.239v14.089h-2.575v-14.089
			H73.07v14.089h-2.575V260.277z"/>
	</g>
	<g>
		<g>
			<g>
				<polygon fill="#266279" points="218.058,291.145 79.987,291.145 79.987,283.945 218.058,283.945 222.206,287.545 				"/>
			</g>
			<g>
				<polygon fill="#266279" points="223.448,283.945 361.519,283.945 361.519,291.145 223.448,291.145 227.596,287.545 				"/>
			</g>
		</g>
		<g>
			<g>
				<polygon fill="#266279" points="218.058,277.23 79.987,277.23 79.987,270.031 218.058,270.031 222.206,273.629 				"/>
			</g>
			<g>
				<polygon fill="#266279" points="223.448,270.031 361.519,270.031 361.519,277.23 223.448,277.23 227.596,273.629 				"/>
			</g>
		</g>
		<g>
			<g>
				<polygon fill="#266279" points="218.058,305.059 79.987,305.059 79.987,297.859 218.058,297.859 222.206,301.459 				"/>
			</g>
			<g>
				<polygon fill="#266279" points="223.448,297.859 361.519,297.859 361.519,305.059 223.448,305.059 227.596,301.459 				"/>
			</g>
		</g>
		<g>
			<g>
				<polygon fill="#266279" points="218.058,318.973 79.987,318.973 79.987,311.773 218.058,311.773 222.206,315.371 				"/>
			</g>
			<g>
				<polygon fill="#266279" points="223.448,311.773 361.519,311.773 361.519,318.973 223.448,318.973 227.596,315.371 				"/>
			</g>
		</g>
		<g>
			<g>
				<polygon fill="#266279" points="218.058,332.887 79.987,332.887 79.987,325.686 218.058,325.686 222.206,329.285 				"/>
			</g>
			<g>
				<polygon fill="#266279" points="223.448,325.686 361.519,325.686 361.519,332.887 223.448,332.887 227.596,329.285 				"/>
			</g>
		</g>
		<g>
			<rect x="79.884" y="339.6" fill="#266279" width="142.488" height="7.199"/>
		</g>
		<g>
			<g>
				<polygon fill="#266279" points="218.162,263.316 80.091,263.316 80.091,256.117 218.162,256.117 222.31,259.717 				"/>
			</g>
			<g>
				<polygon fill="#266279" points="223.552,256.117 361.623,256.117 361.623,263.316 223.552,263.316 227.7,259.717 				"/>
			</g>
		</g>
	</g>
</g>
<g>
	<g>
		<polygon fill="#266279" points="218.058,388.541 79.987,388.541 79.987,381.342 218.058,381.342 222.206,384.941 		"/>
	</g>
	<g>
		<polygon fill="#266279" points="223.448,381.342 361.519,381.342 361.519,388.541 223.448,388.541 227.596,384.941 		"/>
	</g>
</g>
<g>
	<g>
		<polygon fill="#266279" points="218.058,402.455 79.987,402.455 79.987,395.256 218.058,395.256 222.206,398.855 		"/>
	</g>
	<g>
		<polygon fill="#266279" points="223.448,395.256 361.519,395.256 361.519,402.455 223.448,402.455 227.596,398.855 		"/>
	</g>
</g>
<g>
	<g>
		<polygon fill="#266279" points="218.058,416.369 79.987,416.369 79.987,409.17 218.058,409.17 222.206,412.768 		"/>
	</g>
	<g>
		<polygon fill="#266279" points="223.448,409.17 361.519,409.17 361.519,416.369 223.448,416.369 227.596,412.768 		"/>
	</g>
</g>
<g>
	<g>
		<polygon fill="#266279" points="218.058,430.283 79.987,430.283 79.987,423.082 218.058,423.082 222.206,426.682 		"/>
	</g>
	<g>
		<polygon fill="#266279" points="223.448,423.082 361.519,423.082 361.519,430.283 223.448,430.283 227.596,426.682 		"/>
	</g>
</g>
<g>
	<rect x="79.884" y="436.996" fill="#266279" width="142.488" height="7.199"/>
</g>
<g>
	<g>
		<path fill="#266279" d="M70.495,357.674c-0.451-0.123-0.876-0.305-1.274-0.545s-0.747-0.537-1.046-0.893
			c-0.299-0.354-0.536-0.764-0.712-1.23c-0.176-0.465-0.264-0.988-0.264-1.568c0-0.615,0.123-1.191,0.369-1.727
			c0.246-0.537,0.595-1.004,1.046-1.402s0.996-0.711,1.635-0.939s1.351-0.344,2.136-0.344h6.012v2.418h-1.239v14.088h-2.575v-14.088
			H73.07v14.088h-2.575V357.674z"/>
	</g>
	<g>
		<g>
			<polygon fill="#266279" points="218.058,374.627 79.987,374.627 79.987,367.428 218.058,367.428 222.206,371.025 			"/>
		</g>
		<g>
			<polygon fill="#266279" points="223.448,367.428 361.519,367.428 361.519,374.627 223.448,374.627 227.596,371.025 			"/>
		</g>
	</g>
	<g>
		<g>
			<polygon fill="#266279" points="218.162,360.713 80.091,360.713 80.091,353.514 218.162,353.514 222.31,357.113 			"/>
		</g>
		<g>
			<polygon fill="#266279" points="223.552,353.514 361.623,353.514 361.623,360.713 223.552,360.713 227.7,357.113 			"/>
		</g>
	</g>
</g>
<g>
	<g>
		<path fill="#266279" d="M70.495,455.07c-0.451-0.123-0.876-0.305-1.274-0.545s-0.747-0.537-1.046-0.893
			c-0.299-0.354-0.536-0.764-0.712-1.23c-0.176-0.465-0.264-0.988-0.264-1.568c0-0.615,0.123-1.191,0.369-1.727
			c0.246-0.537,0.595-1.004,1.046-1.402s0.996-0.712,1.635-0.94s1.351-0.343,2.136-0.343h6.012v2.417h-1.239v14.089h-2.575v-14.089
			H73.07v14.089h-2.575V455.07z"/>
	</g>
	<g>
		<g>
			<polygon fill="#266279" points="218.058,472.023 79.987,472.023 79.987,464.824 218.058,464.824 222.206,468.422 			"/>
		</g>
		<g>
			<polygon fill="#266279" points="223.448,464.824 361.519,464.824 361.519,472.023 223.448,472.023 227.596,468.422 			"/>
		</g>
	</g>
	<g>
		<g>
			<polygon fill="#266279" points="218.162,458.109 80.091,458.109 80.091,450.91 218.162,450.91 222.31,454.51 			"/>
		</g>
		<g>
			<polygon fill="#266279" points="223.552,450.91 361.623,450.91 361.623,458.109 223.552,458.109 227.7,454.51 			"/>
		</g>
	</g>
</g>
</svg>
