<?xml version="1.0" encoding="utf-8"?>
<!-- Generator: Adobe Illustrator 16.0.4, SVG Export Plug-In . SVG Version: 6.00 Build 0)  -->
<!DOCTYPE svg PUBLIC "-//W3C//DTD SVG 1.1//EN" "http://www.w3.org/Graphics/SVG/1.1/DTD/svg11.dtd">
<svg version="1.1" id="Layer_1" xmlns="http://www.w3.org/2000/svg" xmlns:xlink="http://www.w3.org/1999/xlink" x="0px" y="0px"
	 width="448.746px" height="616.439px" viewBox="0 0 448.746 616.439" enable-background="new 0 0 448.746 616.439"
	 xml:space="preserve">
<rect x="0.5" y="0.5" fill="#FFFFFF" stroke="#C68D06" stroke-miterlimit="10" width="447.746" height="615.439"/>
<g>
	<path fill="#C68D06" d="M359.53,558.505h-13.337v-2.274h15.927v2.135l-10.956,23.768h-2.556L359.53,558.505z"/>
	<path fill="#C68D06" d="M369.363,579.893h4.865v-20.967c-1.26,0.665-3.29,1.189-4.796,1.189v-2.205
		c1.995-0.07,3.78-0.595,4.936-1.68h2.311v23.662h4.41v2.24h-11.726V579.893z"/>
	<path fill="#C68D06" d="M389.208,556.23h8.681c5.776,0,8.996,2.45,8.996,7c0,4.201-2.45,6.301-6.195,7.001l6.546,11.901h-2.801
		l-6.336-11.621h-6.44v11.621h-2.45V556.23z M397.713,568.307c4.271,0,6.686-1.226,6.686-4.971c0-3.57-2.38-4.831-6.721-4.831
		h-6.021v9.802H397.713z"/>
</g>
<g>
	<rect x="81.216" y="157.967" fill="#C0DDE7" width="281.739" height="7.199"/>
</g>
<g>
	<rect x="81.216" y="171.879" fill="#C0DDE7" width="281.738" height="7.199"/>
</g>
<g>
	<rect x="81.216" y="185.793" fill="#C0DDE7" width="281.739" height="7.201"/>
</g>
<g>
	<rect x="81.216" y="199.707" fill="#C0DDE7" width="281.739" height="7.199"/>
</g>
<g>
	<rect x="81.216" y="213.621" fill="#C0DDE7" width="281.739" height="7.199"/>
</g>
<g>
	<rect x="81.216" y="227.535" fill="#C0DDE7" width="281.739" height="7.199"/>
</g>
<g>
	<rect x="81.216" y="241.449" fill="#C0DDE7" width="281.738" height="7.199"/>
</g>
<g>
	<rect x="81.216" y="255.361" fill="#C0DDE7" width="281.738" height="7.201"/>
</g>
<g>
	<rect x="81.216" y="269.277" fill="#C0DDE7" width="281.739" height="7.199"/>
</g>
<g>
	<rect x="81.216" y="283.189" fill="#C0DDE7" width="281.738" height="7.201"/>
</g>
<g>
	<rect x="81.216" y="297.104" fill="#C0DDE7" width="281.739" height="7.201"/>
</g>
<g>
	<rect x="81.216" y="311.018" fill="#C0DDE7" width="281.739" height="7.201"/>
</g>
<g>
	<rect x="81.216" y="324.932" fill="#C0DDE7" width="281.739" height="7.199"/>
</g>
<g>
	<rect x="81.216" y="338.846" fill="#C0DDE7" width="281.738" height="7.199"/>
</g>
<g>
	<rect x="81.216" y="352.76" fill="#C0DDE7" width="281.739" height="7.199"/>
</g>
<g>
	<rect x="81.216" y="366.674" fill="#C0DDE7" width="281.739" height="7.199"/>
</g>
<g>
	<rect x="81.216" y="380.588" fill="#C0DDE7" width="281.739" height="7.199"/>
</g>
<g>
	<rect x="81.216" y="394.502" fill="#C0DDE7" width="281.739" height="7.199"/>
</g>
<g>
	<rect x="81.216" y="408.414" fill="#C0DDE7" width="281.738" height="7.199"/>
</g>
<g>
	<rect x="81.216" y="422.328" fill="#C0DDE7" width="281.739" height="7.201"/>
</g>
<g>
	<rect x="81.216" y="436.242" fill="#C0DDE7" width="281.738" height="7.199"/>
</g>
<g>
	<rect x="81.216" y="450.156" fill="#C0DDE7" width="281.739" height="7.199"/>
</g>
<g>
	<rect x="81.216" y="464.07" fill="#C0DDE7" width="281.738" height="7.199"/>
</g>
<g>
	<rect x="81.216" y="477.984" fill="#C0DDE7" width="281.739" height="7.199"/>
</g>
<g>
	<rect x="81.216" y="60.568" fill="#C0DDE7" width="281.739" height="7.201"/>
</g>
<g>
	<rect x="81.216" y="74.482" fill="#C0DDE7" width="281.738" height="7.201"/>
</g>
<g>
	<rect x="81.216" y="144.053" fill="#C0DDE7" width="281.738" height="7.199"/>
</g>
<g>
	<rect x="81.216" y="88.396" fill="#C0DDE7" width="281.739" height="7.199"/>
</g>
<g>
	<rect x="81.216" y="102.311" fill="#C0DDE7" width="281.738" height="7.199"/>
</g>
<g>
	<rect x="81.216" y="116.225" fill="#C0DDE7" width="281.738" height="7.199"/>
</g>
<g>
	<rect x="81.216" y="130.139" fill="#C0DDE7" width="281.738" height="7.199"/>
</g>
<g>
	<g>
		<path fill="#266279" d="M59.992,273.592h6.536c0.779,0,1.525,0.102,2.24,0.303c0.715,0.203,1.382,0.486,1.999,0.854
			c0.618,0.367,1.18,0.807,1.685,1.32c0.506,0.512,0.938,1.084,1.297,1.713s0.636,1.305,0.831,2.031s0.292,1.482,0.292,2.27
			c0,0.785-0.097,1.541-0.292,2.268s-0.472,1.406-0.831,2.039s-0.792,1.209-1.297,1.729c-0.505,0.521-1.066,0.967-1.685,1.338
			c-0.617,0.369-1.284,0.656-1.999,0.859c-0.715,0.201-1.461,0.303-2.24,0.303h-6.536v-3.078h1.359V276.68h-1.359V273.592z
			 M65.079,276.68v10.859h1.426c0.606,0,1.179-0.143,1.718-0.426c0.539-0.285,1.007-0.672,1.404-1.162s0.711-1.068,0.943-1.73
			s0.348-1.375,0.348-2.139c0-0.756-0.116-1.465-0.348-2.123s-0.546-1.232-0.943-1.719s-0.865-0.867-1.404-1.145
			s-1.112-0.416-1.718-0.416H65.079z"/>
	</g>
	<g>
		<g>
			<g>
				<polygon fill="#266279" points="219.494,290.391 81.423,290.391 81.423,283.191 219.494,283.191 223.642,286.791 				"/>
			</g>
			<g>
				<polygon fill="#266279" points="224.884,283.191 362.955,283.191 362.955,290.391 224.884,290.391 229.032,286.791 				"/>
			</g>
		</g>
		<g>
			<g>
				<polygon fill="#266279" points="219.494,304.305 81.423,304.305 81.423,297.105 219.494,297.105 223.642,300.705 				"/>
			</g>
			<g>
				<polygon fill="#266279" points="224.884,297.105 362.955,297.105 362.955,304.305 224.884,304.305 229.032,300.705 				"/>
			</g>
		</g>
		<g>
			<g>
				<polygon fill="#266279" points="219.494,373.873 81.423,373.873 81.423,366.674 219.494,366.674 223.642,370.273 				"/>
			</g>
			<g>
				<polygon fill="#266279" points="224.884,366.674 362.955,366.674 362.955,373.873 224.884,373.873 229.032,370.273 				"/>
			</g>
		</g>
		<g>
			<g>
				<polygon fill="#266279" points="219.494,318.219 81.423,318.219 81.423,311.02 219.494,311.02 223.642,314.619 				"/>
			</g>
			<g>
				<polygon fill="#266279" points="224.884,311.02 362.955,311.02 362.955,318.219 224.884,318.219 229.032,314.619 				"/>
			</g>
		</g>
		<g>
			<g>
				<polygon fill="#266279" points="219.494,332.133 81.423,332.133 81.423,324.934 219.494,324.934 223.642,328.533 				"/>
			</g>
			<g>
				<polygon fill="#266279" points="224.884,324.934 362.955,324.934 362.955,332.133 224.884,332.133 229.032,328.533 				"/>
			</g>
		</g>
		<g>
			<g>
				<polygon fill="#266279" points="219.494,346.047 81.423,346.047 81.423,338.846 219.494,338.846 223.642,342.445 				"/>
			</g>
			<g>
				<polygon fill="#266279" points="224.884,338.846 362.955,338.846 362.955,346.047 224.884,346.047 229.032,342.445 				"/>
			</g>
		</g>
		<g>
			<g>
				<polygon fill="#266279" points="219.494,359.961 81.423,359.961 81.423,352.76 219.494,352.76 223.642,356.359 				"/>
			</g>
			<g>
				<polygon fill="#266279" points="224.884,352.76 362.955,352.76 362.955,359.961 224.884,359.961 229.032,356.359 				"/>
			</g>
		</g>
	</g>
</g>
<g>
	<g>
		<path fill="#266279" d="M68.033,385.258h7.289v3.088h-1.516l-4.548,13.938h-4.604l-4.414-13.938h-1.64v-3.088h7.3v3.088H64.08
			l2.965,9.658l2.954-9.658h-1.965V385.258z"/>
	</g>
	<g>
		<g>
			<polygon fill="#266279" points="219.494,401.701 81.423,401.701 81.423,394.502 219.494,394.502 223.642,398.102 			"/>
		</g>
		<g>
			<polygon fill="#266279" points="224.884,394.502 362.955,394.502 362.955,401.701 224.884,401.701 229.032,398.102 			"/>
		</g>
	</g>
</g>
<g>
	<g>
		<polygon fill="#266279" points="219.494,415.615 81.423,415.615 81.423,408.416 219.494,408.416 223.642,412.016 		"/>
	</g>
	<g>
		<polygon fill="#266279" points="224.884,408.416 362.955,408.416 362.955,415.615 224.884,415.615 229.032,412.016 		"/>
	</g>
</g>
<g>
	<g>
		<polygon fill="#266279" points="219.494,485.184 81.423,485.184 81.423,477.984 219.494,477.984 223.642,481.584 		"/>
	</g>
	<g>
		<polygon fill="#266279" points="224.884,477.984 362.955,477.984 362.955,485.184 224.884,485.184 229.032,481.584 		"/>
	</g>
</g>
<g>
	<g>
		<polygon fill="#266279" points="219.494,429.529 81.423,429.529 81.423,422.33 219.494,422.33 223.642,425.93 		"/>
	</g>
	<g>
		<polygon fill="#266279" points="224.884,422.33 362.955,422.33 362.955,429.529 224.884,429.529 229.032,425.93 		"/>
	</g>
</g>
<g>
	<g>
		<polygon fill="#266279" points="219.494,443.443 81.423,443.443 81.423,436.244 219.494,436.244 223.642,439.844 		"/>
	</g>
	<g>
		<polygon fill="#266279" points="224.884,436.244 362.955,436.244 362.955,443.443 224.884,443.443 229.032,439.844 		"/>
	</g>
</g>
<g>
	<g>
		<polygon fill="#266279" points="219.494,457.357 81.423,457.357 81.423,450.156 219.494,450.156 223.642,453.756 		"/>
	</g>
	<g>
		<polygon fill="#266279" points="224.884,450.156 362.955,450.156 362.955,457.357 224.884,457.357 229.032,453.756 		"/>
	</g>
</g>
<g>
	<g>
		<polygon fill="#266279" points="219.494,471.271 81.423,471.271 81.423,464.07 219.494,464.07 223.642,467.67 		"/>
	</g>
	<g>
		<polygon fill="#266279" points="224.884,464.07 362.955,464.07 362.955,471.271 224.884,471.271 229.032,467.67 		"/>
	</g>
</g>
<g>
	<g>
		<g>
			<g>
				<polygon fill="#266279" points="219.494,67.77 81.423,67.77 81.423,60.568 219.494,60.568 223.642,64.17 				"/>
			</g>
			<g>
				<polygon fill="#266279" points="224.884,60.568 362.955,60.568 362.955,67.77 224.884,67.77 229.032,64.17 				"/>
			</g>
		</g>
		<g>
			<g>
				<polygon fill="#266279" points="219.494,151.252 81.423,151.252 81.423,144.053 219.494,144.053 223.642,147.652 				"/>
			</g>
			<g>
				<polygon fill="#266279" points="224.884,144.053 362.955,144.053 362.955,151.252 224.884,151.252 229.032,147.652 				"/>
			</g>
		</g>
		<g>
			<g>
				<polygon fill="#266279" points="219.494,95.598 81.423,95.598 81.423,88.398 219.494,88.398 223.642,91.996 				"/>
			</g>
			<g>
				<polygon fill="#266279" points="224.884,88.398 362.955,88.398 362.955,95.598 224.884,95.598 229.032,91.996 				"/>
			</g>
		</g>
		<g>
			<g>
				<polygon fill="#266279" points="219.494,81.682 81.423,81.682 81.423,74.482 219.494,74.482 223.642,78.082 				"/>
			</g>
			<g>
				<polygon fill="#266279" points="224.884,74.482 362.955,74.482 362.955,81.682 224.884,81.682 229.032,78.082 				"/>
			</g>
		</g>
		<g>
			<g>
				<polygon fill="#266279" points="219.494,109.512 81.423,109.512 81.423,102.312 219.494,102.312 223.642,105.91 				"/>
			</g>
			<g>
				<polygon fill="#266279" points="224.884,102.312 362.955,102.312 362.955,109.512 224.884,109.512 229.032,105.91 				"/>
			</g>
		</g>
		<g>
			<g>
				<polygon fill="#266279" points="219.494,123.424 81.423,123.424 81.423,116.225 219.494,116.225 223.642,119.824 				"/>
			</g>
			<g>
				<polygon fill="#266279" points="224.884,116.225 362.955,116.225 362.955,123.424 224.884,123.424 229.032,119.824 				"/>
			</g>
		</g>
		<g>
			<g>
				<polygon fill="#266279" points="219.494,137.338 81.423,137.338 81.423,130.139 219.494,130.139 223.642,133.738 				"/>
			</g>
			<g>
				<polygon fill="#266279" points="224.884,130.139 362.955,130.139 362.955,137.338 224.884,137.338 229.032,133.738 				"/>
			</g>
		</g>
	</g>
	<g>
		<path fill="#266279" d="M59.888,49.924h6.536c0.779,0,1.525,0.102,2.24,0.303c0.715,0.203,1.382,0.486,1.999,0.854
			c0.618,0.367,1.18,0.807,1.685,1.32c0.506,0.512,0.938,1.084,1.297,1.713s0.636,1.305,0.831,2.031s0.292,1.482,0.292,2.27
			c0,0.785-0.097,1.541-0.292,2.268s-0.472,1.406-0.831,2.039s-0.792,1.209-1.297,1.729c-0.505,0.521-1.066,0.967-1.685,1.338
			c-0.617,0.369-1.284,0.656-1.999,0.859c-0.715,0.201-1.461,0.303-2.24,0.303h-6.536v-3.078h1.359V53.012h-1.359V49.924z
			 M64.976,53.012v10.859h1.426c0.606,0,1.179-0.143,1.718-0.426c0.539-0.285,1.007-0.672,1.404-1.162s0.711-1.068,0.943-1.73
			s0.348-1.375,0.348-2.139c0-0.756-0.116-1.465-0.348-2.123s-0.546-1.232-0.943-1.719s-0.865-0.867-1.404-1.145
			s-1.112-0.416-1.718-0.416H64.976z"/>
	</g>
</g>
<g>
	<g>
		<path fill="#266279" d="M70.823,166.387c-0.038-0.262-0.129-0.51-0.275-0.74c-0.146-0.232-0.333-0.434-0.562-0.602
			c-0.228-0.168-0.486-0.301-0.774-0.398c-0.289-0.098-0.59-0.146-0.904-0.146c-0.285,0-0.55,0.029-0.797,0.09
			s-0.462,0.152-0.646,0.275c-0.183,0.123-0.329,0.283-0.438,0.477c-0.109,0.195-0.163,0.428-0.163,0.697
			c0,0.336,0.073,0.604,0.219,0.803c0.146,0.197,0.333,0.361,0.562,0.488c0.229,0.127,0.481,0.229,0.758,0.303
			c0.277,0.076,0.546,0.158,0.809,0.248l3.088,1.033c0.427,0.148,0.827,0.355,1.202,0.617s0.698,0.58,0.971,0.955
			c0.273,0.373,0.489,0.805,0.646,1.291s0.236,1.033,0.236,1.641c0,0.822-0.151,1.574-0.455,2.256
			c-0.303,0.682-0.728,1.266-1.274,1.752s-1.202,0.865-1.965,1.135s-1.61,0.404-2.538,0.404c-0.651,0-1.267-0.072-1.847-0.219
			c-0.581-0.146-1.11-0.357-1.589-0.635s-0.898-0.607-1.258-0.994c-0.359-0.385-0.64-0.822-0.842-1.309h-1.157v-3.379h4.065v0.695
			c0,0.338,0.054,0.648,0.163,0.932c0.109,0.285,0.271,0.531,0.489,0.742c0.217,0.209,0.49,0.371,0.82,0.488
			c0.33,0.115,0.715,0.174,1.157,0.174c0.674,0,1.187-0.156,1.539-0.467s0.528-0.742,0.528-1.297c0-0.283-0.062-0.521-0.185-0.713
			c-0.124-0.191-0.283-0.352-0.478-0.482s-0.412-0.242-0.651-0.332s-0.476-0.172-0.708-0.246l-2.572-0.832
			c-0.487-0.148-0.957-0.359-1.409-0.629c-0.453-0.27-0.854-0.605-1.202-1.01c-0.348-0.404-0.625-0.879-0.831-1.422
			c-0.206-0.543-0.309-1.162-0.309-1.857c0-0.809,0.15-1.529,0.449-2.162s0.719-1.166,1.258-1.6c0.539-0.436,1.179-0.764,1.92-0.988
			s1.554-0.338,2.437-0.338c0.696,0,1.34,0.08,1.932,0.242c0.591,0.16,1.121,0.375,1.589,0.645c0.468,0.27,0.865,0.578,1.19,0.928
			c0.326,0.348,0.575,0.709,0.747,1.084h1.123v3.391h-4.065V166.387z"/>
	</g>
	<g>
		<g>
			<g>
				<polygon fill="#266279" points="219.39,192.994 81.319,192.994 81.319,185.795 219.39,185.795 223.538,189.395 				"/>
			</g>
			<g>
				<polygon fill="#266279" points="224.78,185.795 362.851,185.795 362.851,192.994 224.78,192.994 228.928,189.395 				"/>
			</g>
		</g>
		<g>
			<g>
				<polygon fill="#266279" points="219.39,179.08 81.319,179.08 81.319,171.881 219.39,171.881 223.538,175.48 				"/>
			</g>
			<g>
				<polygon fill="#266279" points="224.78,171.881 362.851,171.881 362.851,179.08 224.78,179.08 228.928,175.48 				"/>
			</g>
		</g>
		<g>
			<g>
				<polygon fill="#266279" points="219.39,206.908 81.319,206.908 81.319,199.709 219.39,199.709 223.538,203.307 				"/>
			</g>
			<g>
				<polygon fill="#266279" points="224.78,199.709 362.851,199.709 362.851,206.908 224.78,206.908 228.928,203.307 				"/>
			</g>
		</g>
		<g>
			<g>
				<polygon fill="#266279" points="219.39,234.734 81.319,234.734 81.319,227.535 219.39,227.535 223.538,231.135 				"/>
			</g>
			<g>
				<polygon fill="#266279" points="224.78,227.535 362.851,227.535 362.851,234.734 224.78,234.734 228.928,231.135 				"/>
			</g>
		</g>
		<g>
			<g>
				<polygon fill="#266279" points="219.494,220.822 81.423,220.822 81.423,213.623 219.494,213.623 223.642,217.223 				"/>
			</g>
			<g>
				<polygon fill="#266279" points="224.884,213.623 362.955,213.623 362.955,220.822 224.884,220.822 229.032,217.223 				"/>
			</g>
		</g>
		<g>
			<g>
				<polygon fill="#266279" points="219.39,248.65 81.319,248.65 81.319,241.451 219.39,241.451 223.538,245.049 				"/>
			</g>
			<g>
				<polygon fill="#266279" points="224.78,241.451 362.851,241.451 362.851,248.65 224.78,248.65 228.928,245.049 				"/>
			</g>
		</g>
		<g>
			<g>
				<polygon fill="#266279" points="219.39,262.562 81.319,262.562 81.319,255.363 219.39,255.363 223.538,258.963 				"/>
			</g>
			<g>
				<polygon fill="#266279" points="224.78,255.363 362.851,255.363 362.851,262.562 224.78,262.562 228.928,258.963 				"/>
			</g>
		</g>
	</g>
</g>
</svg>
