<?xml version="1.0" encoding="utf-8"?>
<!-- Generator: Adobe Illustrator 16.0.4, SVG Export Plug-In . SVG Version: 6.00 Build 0)  -->
<!DOCTYPE svg PUBLIC "-//W3C//DTD SVG 1.1//EN" "http://www.w3.org/Graphics/SVG/1.1/DTD/svg11.dtd">
<svg version="1.1" id="Layer_1" xmlns="http://www.w3.org/2000/svg" xmlns:xlink="http://www.w3.org/1999/xlink" x="0px" y="0px"
	 width="448.746px" height="616.436px" viewBox="0 0 448.746 616.436" enable-background="new 0 0 448.746 616.436"
	 xml:space="preserve">
<rect x="0.5" y="0.5" fill="#FFFFFF" stroke="#C68D06" stroke-miterlimit="10" width="447.746" height="615.436"/>
<g>
	<path fill="#C68D06" d="M356.834,559.502h-13.337v-2.275h15.927v2.135l-10.956,23.768h-2.556L356.834,559.502z"/>
	<path fill="#C68D06" d="M364.988,582.568c0-3.744,1.855-7.174,8.682-11.551c3.885-2.484,5.46-4.234,5.46-7.035
		c0-3.045-1.89-5.041-5.285-5.041c-2.835,0-4.9,1.471-6.44,4.48l-1.961-1.154c1.82-3.5,4.691-5.531,8.506-5.531
		c4.691,0,7.597,2.941,7.597,7.105c0,3.535-1.716,5.775-6.687,8.926c-4.69,2.977-6.965,5.775-7.141,8.121h13.932v2.24h-16.662
		V582.568z"/>
	<path fill="#C68D06" d="M388.613,557.227h2.556l7.735,22.613h0.07l7.771-22.613h2.416l-9.102,26.008h-2.345L388.613,557.227z"/>
</g>
<g>
	<rect x="80.386" y="158.967" fill="#C0DDE7" width="281.739" height="7.199"/>
</g>
<g>
	<rect x="80.387" y="172.879" fill="#C0DDE7" width="281.738" height="7.199"/>
</g>
<g>
	<rect x="80.386" y="186.793" fill="#C0DDE7" width="281.739" height="7.201"/>
</g>
<g>
	<rect x="80.386" y="200.707" fill="#C0DDE7" width="281.739" height="7.199"/>
</g>
<g>
	<rect x="80.386" y="214.621" fill="#C0DDE7" width="281.739" height="7.199"/>
</g>
<g>
	<rect x="80.386" y="228.535" fill="#C0DDE7" width="281.739" height="7.199"/>
</g>
<g>
	<rect x="80.387" y="242.449" fill="#C0DDE7" width="281.738" height="7.199"/>
</g>
<g>
	<rect x="80.387" y="256.361" fill="#C0DDE7" width="281.738" height="7.201"/>
</g>
<g>
	<rect x="80.386" y="270.277" fill="#C0DDE7" width="281.739" height="7.199"/>
</g>
<g>
	<rect x="80.387" y="284.189" fill="#C0DDE7" width="281.738" height="7.201"/>
</g>
<g>
	<rect x="80.386" y="298.104" fill="#C0DDE7" width="281.739" height="7.201"/>
</g>
<g>
	<rect x="80.386" y="312.018" fill="#C0DDE7" width="281.739" height="7.201"/>
</g>
<g>
	<rect x="80.386" y="325.932" fill="#C0DDE7" width="281.739" height="7.199"/>
</g>
<g>
	<rect x="80.387" y="339.846" fill="#C0DDE7" width="281.738" height="7.199"/>
</g>
<g>
	<rect x="80.386" y="353.76" fill="#C0DDE7" width="281.739" height="7.199"/>
</g>
<g>
	<rect x="80.386" y="367.674" fill="#C0DDE7" width="281.739" height="7.199"/>
</g>
<g>
	<rect x="80.386" y="381.588" fill="#C0DDE7" width="281.739" height="7.199"/>
</g>
<g>
	<rect x="80.386" y="395.502" fill="#C0DDE7" width="281.739" height="7.199"/>
</g>
<g>
	<rect x="80.387" y="409.414" fill="#C0DDE7" width="281.738" height="7.199"/>
</g>
<g>
	<rect x="80.386" y="423.328" fill="#C0DDE7" width="281.739" height="7.201"/>
</g>
<g>
	<rect x="80.387" y="437.242" fill="#C0DDE7" width="281.738" height="7.199"/>
</g>
<g>
	<rect x="80.386" y="451.156" fill="#C0DDE7" width="281.739" height="7.199"/>
</g>
<g>
	<rect x="80.387" y="465.07" fill="#C0DDE7" width="281.738" height="7.199"/>
</g>
<g>
	<rect x="80.386" y="478.984" fill="#C0DDE7" width="281.739" height="7.199"/>
</g>
<g>
	<rect x="80.386" y="61.568" fill="#C0DDE7" width="281.739" height="7.201"/>
</g>
<g>
	<rect x="80.387" y="75.482" fill="#C0DDE7" width="281.738" height="7.201"/>
</g>
<g>
	<rect x="80.387" y="145.053" fill="#C0DDE7" width="281.738" height="7.199"/>
</g>
<g>
	<rect x="80.386" y="89.396" fill="#C0DDE7" width="281.739" height="7.199"/>
</g>
<g>
	<rect x="80.387" y="103.311" fill="#C0DDE7" width="281.738" height="7.199"/>
</g>
<g>
	<rect x="80.387" y="117.225" fill="#C0DDE7" width="281.738" height="7.199"/>
</g>
<g>
	<rect x="80.387" y="131.139" fill="#C0DDE7" width="281.738" height="7.199"/>
</g>
<g>
	<g>
		<path fill="#266279" d="M70.998,79.645c-0.451-0.123-0.876-0.305-1.274-0.545s-0.747-0.537-1.046-0.893
			c-0.299-0.354-0.536-0.764-0.712-1.23c-0.176-0.465-0.264-0.988-0.264-1.568c0-0.615,0.123-1.191,0.369-1.727
			c0.246-0.537,0.595-1.004,1.046-1.402s0.996-0.713,1.635-0.941s1.351-0.342,2.136-0.342h6.012v2.416H77.66v14.09h-2.575v-14.09
			h-1.512v14.09h-2.575V79.645z"/>
	</g>
	<g>
		<g>
			<g>
				<polygon fill="#266279" points="218.56,110.512 80.49,110.512 80.49,103.312 218.56,103.312 222.708,106.912 				"/>
			</g>
			<g>
				<polygon fill="#266279" points="223.951,103.312 362.021,103.312 362.021,110.512 223.951,110.512 228.099,106.912 				"/>
			</g>
		</g>
		<g>
			<g>
				<polygon fill="#266279" points="218.56,96.598 80.49,96.598 80.49,89.398 218.56,89.398 222.708,92.996 				"/>
			</g>
			<g>
				<polygon fill="#266279" points="223.951,89.398 362.021,89.398 362.021,96.598 223.951,96.598 228.099,92.996 				"/>
			</g>
		</g>
		<g>
			<g>
				<polygon fill="#266279" points="218.56,124.426 80.49,124.426 80.49,117.227 218.56,117.227 222.708,120.826 				"/>
			</g>
			<g>
				<polygon fill="#266279" points="223.951,117.227 362.021,117.227 362.021,124.426 223.951,124.426 228.099,120.826 				"/>
			</g>
		</g>
		<g>
			<g>
				<polygon fill="#266279" points="218.56,138.34 80.49,138.34 80.49,131.141 218.56,131.141 222.708,134.738 				"/>
			</g>
			<g>
				<polygon fill="#266279" points="223.951,131.141 362.021,131.141 362.021,138.34 223.951,138.34 228.099,134.738 				"/>
			</g>
		</g>
		<g>
			<g>
				<polygon fill="#266279" points="218.56,152.254 80.49,152.254 80.49,145.053 218.56,145.053 222.708,148.652 				"/>
			</g>
			<g>
				<polygon fill="#266279" points="223.951,145.053 362.021,145.053 362.021,152.254 223.951,152.254 228.099,148.652 				"/>
			</g>
		</g>
		<g>
			<rect x="80.386" y="158.967" fill="#266279" width="142.488" height="7.199"/>
		</g>
		<g>
			<g>
				<polygon fill="#266279" points="218.664,82.684 80.594,82.684 80.594,75.484 218.664,75.484 222.812,79.084 				"/>
			</g>
			<g>
				<polygon fill="#266279" points="224.055,75.484 362.125,75.484 362.125,82.684 224.055,82.684 228.202,79.084 				"/>
			</g>
		</g>
	</g>
</g>
<g>
	<path fill="#266279" d="M70.998,177.041c-0.451-0.123-0.876-0.305-1.274-0.545s-0.747-0.537-1.046-0.893
		c-0.299-0.354-0.536-0.764-0.712-1.23c-0.176-0.465-0.264-0.988-0.264-1.568c0-0.615,0.123-1.191,0.369-1.727
		c0.246-0.537,0.595-1.004,1.046-1.402s0.996-0.713,1.635-0.941s1.351-0.342,2.136-0.342h6.012v2.416H77.66v14.09h-2.575v-14.09
		h-1.512v14.09h-2.575V177.041z"/>
</g>
<g>
	<g>
		<polygon fill="#266279" points="218.56,207.908 80.49,207.908 80.49,200.709 218.56,200.709 222.708,204.309 		"/>
	</g>
	<g>
		<polygon fill="#266279" points="223.951,200.709 362.021,200.709 362.021,207.908 223.951,207.908 228.099,204.309 		"/>
	</g>
</g>
<g>
	<g>
		<polygon fill="#266279" points="218.56,193.994 80.49,193.994 80.49,186.795 218.56,186.795 222.708,190.393 		"/>
	</g>
	<g>
		<polygon fill="#266279" points="223.951,186.795 362.021,186.795 362.021,193.994 223.951,193.994 228.099,190.393 		"/>
	</g>
</g>
<g>
	<rect x="80.386" y="214.621" fill="#266279" width="142.488" height="7.199"/>
</g>
<g>
	<g>
		<polygon fill="#266279" points="218.664,180.08 80.594,180.08 80.594,172.881 218.664,172.881 222.812,176.48 		"/>
	</g>
	<g>
		<polygon fill="#266279" points="224.055,172.881 362.125,172.881 362.125,180.08 224.055,180.08 228.202,176.48 		"/>
	</g>
</g>
<g>
	<polygon fill="#266279" points="218.457,61.57 80.386,61.57 84.535,65.17 80.386,68.77 218.457,68.77 218.457,68.77 
		218.457,68.768 218.457,61.57 	"/>
</g>
</svg>
