<?xml version="1.0" encoding="utf-8"?>
<!-- Generator: Adobe Illustrator 16.0.4, SVG Export Plug-In . SVG Version: 6.00 Build 0)  -->
<!DOCTYPE svg PUBLIC "-//W3C//DTD SVG 1.1//EN" "http://www.w3.org/Graphics/SVG/1.1/DTD/svg11.dtd">
<svg version="1.1" id="Layer_1" xmlns="http://www.w3.org/2000/svg" xmlns:xlink="http://www.w3.org/1999/xlink" x="0px" y="0px"
	 width="448.746px" height="616.441px" viewBox="0 0 448.746 616.441" enable-background="new 0 0 448.746 616.441"
	 xml:space="preserve">
<rect x="0.5" y="0.5" fill="#FFFFFF" stroke="#C68D06" stroke-miterlimit="10" width="447.746" height="615.441"/>
<g>
	<path fill="#C68D06" d="M355.365,558.506h-13.337v-2.275h15.927v2.135l-10.956,23.768h-2.556L355.365,558.506z"/>
	<path fill="#C68D06" d="M363.519,581.572c0-3.744,1.854-7.174,8.681-11.551c3.885-2.484,5.46-4.234,5.46-7.035
		c0-3.045-1.89-5.041-5.285-5.041c-2.835,0-4.9,1.471-6.44,4.48l-1.961-1.154c1.82-3.5,4.691-5.531,8.507-5.531
		c4.69,0,7.596,2.941,7.596,7.105c0,3.535-1.716,5.775-6.687,8.926c-4.69,2.977-6.965,5.775-7.141,8.121h13.932v2.24h-16.661
		V581.572z"/>
	<path fill="#C68D06" d="M389.208,556.23h8.681c5.776,0,8.996,2.451,8.996,7c0,4.201-2.45,6.301-6.195,7.002l6.546,11.9h-2.801
		l-6.336-11.621h-6.44v11.621h-2.45V556.23z M397.714,568.307c4.271,0,6.686-1.225,6.686-4.971c0-3.57-2.38-4.83-6.721-4.83h-6.021
		v9.801H397.714z"/>
</g>
<g>
	<rect x="80.221" y="157.967" fill="#C0DDE7" width="281.738" height="7.199"/>
</g>
<g>
	<rect x="80.221" y="171.881" fill="#C0DDE7" width="281.738" height="7.199"/>
</g>
<g>
	<rect x="80.221" y="185.795" fill="#C0DDE7" width="281.738" height="7.199"/>
</g>
<g>
	<rect x="80.221" y="199.709" fill="#C0DDE7" width="281.738" height="7.199"/>
</g>
<g>
	<rect x="80.221" y="213.623" fill="#C0DDE7" width="281.738" height="7.199"/>
</g>
<g>
	<rect x="80.221" y="227.535" fill="#C0DDE7" width="281.738" height="7.201"/>
</g>
<g>
	<rect x="80.221" y="241.451" fill="#C0DDE7" width="281.738" height="7.199"/>
</g>
<g>
	<rect x="80.221" y="255.363" fill="#C0DDE7" width="281.738" height="7.201"/>
</g>
<g>
	<rect x="80.221" y="269.277" fill="#C0DDE7" width="281.738" height="7.199"/>
</g>
<g>
	<rect x="80.221" y="283.191" fill="#C0DDE7" width="281.738" height="7.201"/>
</g>
<g>
	<rect x="80.221" y="297.105" fill="#C0DDE7" width="281.738" height="7.2"/>
</g>
<g>
	<rect x="80.221" y="311.02" fill="#C0DDE7" width="281.738" height="7.199"/>
</g>
<g>
	<rect x="80.221" y="324.934" fill="#C0DDE7" width="281.738" height="7.199"/>
</g>
<g>
	<rect x="80.221" y="338.848" fill="#C0DDE7" width="281.738" height="7.199"/>
</g>
<g>
	<rect x="80.221" y="352.76" fill="#C0DDE7" width="281.738" height="7.201"/>
</g>
<g>
	<rect x="80.221" y="366.674" fill="#C0DDE7" width="281.738" height="7.201"/>
</g>
<g>
	<rect x="80.221" y="380.589" fill="#C0DDE7" width="281.738" height="7.198"/>
</g>
<g>
	<rect x="80.221" y="394.502" fill="#C0DDE7" width="281.738" height="7.199"/>
</g>
<g>
	<rect x="80.221" y="408.416" fill="#C0DDE7" width="281.738" height="7.199"/>
</g>
<g>
	<rect x="80.221" y="422.33" fill="#C0DDE7" width="281.738" height="7.199"/>
</g>
<g>
	<rect x="80.221" y="436.244" fill="#C0DDE7" width="281.738" height="7.199"/>
</g>
<g>
	<rect x="80.221" y="450.158" fill="#C0DDE7" width="281.738" height="7.199"/>
</g>
<g>
	<rect x="80.221" y="464.072" fill="#C0DDE7" width="281.738" height="7.199"/>
</g>
<g>
	<rect x="80.221" y="477.984" fill="#C0DDE7" width="281.738" height="7.201"/>
</g>
<g>
	<rect x="80.221" y="60.57" fill="#C0DDE7" width="281.738" height="7.199"/>
</g>
<g>
	<rect x="80.221" y="74.484" fill="#C0DDE7" width="281.738" height="7.199"/>
</g>
<g>
	<rect x="80.221" y="144.053" fill="#C0DDE7" width="281.738" height="7.199"/>
</g>
<g>
	<rect x="80.221" y="88.398" fill="#C0DDE7" width="281.738" height="7.199"/>
</g>
<g>
	<rect x="80.221" y="102.312" fill="#C0DDE7" width="281.738" height="7.199"/>
</g>
<g>
	<rect x="80.221" y="116.227" fill="#C0DDE7" width="281.738" height="7.199"/>
</g>
<g>
	<rect x="80.221" y="130.141" fill="#C0DDE7" width="281.738" height="7.199"/>
</g>
<g>
	<g>
		<polygon fill="#266279" points="218.498,290.393 80.428,290.393 80.428,283.193 218.498,283.193 222.646,286.793 		"/>
	</g>
	<g>
		<polygon fill="#266279" points="223.889,283.193 361.959,283.193 361.959,290.393 223.889,290.393 228.036,286.793 		"/>
	</g>
</g>
<g>
	<g>
		<polygon fill="#266279" points="218.498,276.477 80.428,276.477 80.428,269.277 218.498,269.277 222.646,272.877 		"/>
	</g>
	<g>
		<polygon fill="#266279" points="223.889,269.277 361.959,269.277 361.959,276.477 223.889,276.477 228.036,272.877 		"/>
	</g>
</g>
<g>
	<g>
		<polygon fill="#266279" points="218.498,373.875 80.428,373.875 80.428,366.676 218.498,366.676 222.646,370.275 		"/>
	</g>
	<g>
		<polygon fill="#266279" points="223.889,366.676 361.959,366.676 361.959,373.875 223.889,373.875 228.036,370.275 		"/>
	</g>
</g>
<g>
	<g>
		<polygon fill="#266279" points="218.498,387.787 80.428,387.787 80.428,380.589 218.498,380.589 222.646,384.188 		"/>
	</g>
	<g>
		<polygon fill="#266279" points="223.889,380.589 361.959,380.589 361.959,387.787 223.889,387.787 228.036,384.188 		"/>
	</g>
</g>
<g>
	<g>
		<polygon fill="#266279" points="218.498,318.219 80.428,318.219 80.428,311.02 218.498,311.02 222.646,314.619 		"/>
	</g>
	<g>
		<polygon fill="#266279" points="223.889,311.02 361.959,311.02 361.959,318.219 223.889,318.219 228.036,314.619 		"/>
	</g>
</g>
<g>
	<g>
		<polygon fill="#266279" points="218.498,346.047 80.428,346.047 80.428,338.848 218.498,338.848 222.646,342.447 		"/>
	</g>
	<g>
		<polygon fill="#266279" points="223.889,338.848 361.959,338.848 361.959,346.047 223.889,346.047 228.036,342.447 		"/>
	</g>
</g>
<g>
	<g>
		<polygon fill="#266279" points="218.498,359.96 80.428,359.96 80.428,352.761 218.498,352.761 222.646,356.36 		"/>
	</g>
	<g>
		<polygon fill="#266279" points="223.889,352.761 361.959,352.761 361.959,359.96 223.889,359.96 228.036,356.36 		"/>
	</g>
</g>
<g>
	<g>
		<polygon fill="#266279" points="218.498,332.133 80.428,332.133 80.428,324.934 218.498,324.934 222.646,328.533 		"/>
	</g>
	<g>
		<polygon fill="#266279" points="223.889,324.934 361.959,324.934 361.959,332.133 223.889,332.133 228.036,328.533 		"/>
	</g>
</g>
<g>
	<g>
		<polygon fill="#266279" points="218.498,415.617 80.428,415.617 80.428,408.418 218.498,408.418 222.646,412.018 		"/>
	</g>
	<g>
		<polygon fill="#266279" points="223.889,408.418 361.959,408.418 361.959,415.617 223.889,415.617 228.036,412.018 		"/>
	</g>
</g>
<g>
	<g>
		<polygon fill="#266279" points="218.498,429.529 80.428,429.529 80.428,422.33 218.498,422.33 222.646,425.93 		"/>
	</g>
	<g>
		<polygon fill="#266279" points="223.889,422.33 361.959,422.33 361.959,429.529 223.889,429.529 228.036,425.93 		"/>
	</g>
</g>
<g>
	<g>
		<polygon fill="#266279" points="218.498,443.445 80.428,443.445 80.428,436.246 218.498,436.246 222.646,439.844 		"/>
	</g>
	<g>
		<polygon fill="#266279" points="223.889,436.246 361.959,436.246 361.959,443.445 223.889,443.445 228.036,439.844 		"/>
	</g>
</g>
<g>
	<g>
		<polygon fill="#266279" points="218.498,457.358 80.428,457.358 80.428,450.158 218.498,450.158 222.646,453.758 		"/>
	</g>
	<g>
		<polygon fill="#266279" points="223.889,450.158 361.959,450.158 361.959,457.358 223.889,457.358 228.036,453.758 		"/>
	</g>
</g>
<g>
	<g>
		<polygon fill="#266279" points="218.498,471.271 80.428,471.271 80.428,464.07 218.498,464.07 222.646,467.67 		"/>
	</g>
	<g>
		<polygon fill="#266279" points="223.889,464.07 361.959,464.07 361.959,471.271 223.889,471.271 228.036,467.67 		"/>
	</g>
</g>
<g>
	<g>
		<polygon fill="#266279" points="218.498,151.252 80.428,151.252 80.428,144.054 218.498,144.054 222.646,147.653 		"/>
	</g>
	<g>
		<polygon fill="#266279" points="223.889,144.054 361.959,144.054 361.959,151.252 223.889,151.252 228.037,147.653 		"/>
	</g>
</g>
<g>
	<g>
		<polygon fill="#266279" points="218.498,165.166 80.428,165.166 80.428,157.968 218.498,157.968 222.646,161.567 		"/>
	</g>
	<g>
		<polygon fill="#266279" points="223.889,157.968 361.959,157.968 361.959,165.166 223.889,165.166 228.037,161.567 		"/>
	</g>
</g>
<g>
	<g>
		<polygon fill="#266279" points="218.498,95.598 80.428,95.598 80.428,88.398 218.498,88.398 222.646,91.998 		"/>
	</g>
	<g>
		<polygon fill="#266279" points="223.889,88.398 361.959,88.398 361.959,95.598 223.889,95.598 228.037,91.998 		"/>
	</g>
</g>
<g>
	<g>
		<polygon fill="#266279" points="218.498,81.683 80.428,81.683 80.428,74.483 218.498,74.483 222.646,78.083 		"/>
	</g>
	<g>
		<polygon fill="#266279" points="223.889,74.483 361.959,74.483 361.959,81.683 223.889,81.683 228.037,78.083 		"/>
	</g>
</g>
<g>
	<g>
		<polygon fill="#266279" points="218.498,123.426 80.428,123.426 80.428,116.227 218.498,116.227 222.646,119.825 		"/>
	</g>
	<g>
		<polygon fill="#266279" points="223.889,116.227 361.959,116.227 361.959,123.426 223.889,123.426 228.037,119.825 		"/>
	</g>
</g>
<g>
	<g>
		<polygon fill="#266279" points="218.498,137.34 80.428,137.34 80.428,130.14 218.498,130.14 222.646,133.738 		"/>
	</g>
	<g>
		<polygon fill="#266279" points="223.889,130.14 361.959,130.14 361.959,137.34 223.889,137.34 228.037,133.738 		"/>
	</g>
</g>
<g>
	<g>
		<polygon fill="#266279" points="218.394,192.995 80.324,192.995 80.324,185.796 218.394,185.796 222.542,189.395 		"/>
	</g>
	<g>
		<polygon fill="#266279" points="223.785,185.796 361.855,185.796 361.855,192.995 223.785,192.995 227.933,189.395 		"/>
	</g>
</g>
<g>
	<g>
		<polygon fill="#266279" points="218.394,179.082 80.324,179.082 80.324,171.883 218.394,171.883 222.542,175.482 		"/>
	</g>
	<g>
		<polygon fill="#266279" points="223.785,171.883 361.855,171.883 361.855,179.082 223.785,179.082 227.933,175.482 		"/>
	</g>
</g>
<g>
	<g>
		<polygon fill="#266279" points="218.498,220.822 80.428,220.822 80.428,213.624 218.498,213.624 222.646,217.223 		"/>
	</g>
	<g>
		<polygon fill="#266279" points="223.889,213.624 361.959,213.624 361.959,220.822 223.889,220.822 228.037,217.223 		"/>
	</g>
</g>
<g>
	<g>
		<polygon fill="#266279" points="218.394,262.564 80.324,262.564 80.324,255.365 218.394,255.365 222.542,258.964 		"/>
	</g>
	<g>
		<polygon fill="#266279" points="223.785,255.365 361.855,255.365 361.855,262.564 223.785,262.564 227.933,258.964 		"/>
	</g>
</g>
<g>
	<g>
		<polygon fill="#266279" points="218.394,234.735 80.324,234.735 80.324,227.536 218.394,227.536 222.542,231.135 		"/>
	</g>
	<g>
		<polygon fill="#266279" points="223.785,227.536 361.855,227.536 361.855,234.735 223.785,234.735 227.933,231.135 		"/>
	</g>
</g>
<g>
	<g>
		<polygon fill="#266279" points="218.394,248.65 80.324,248.65 80.324,241.451 218.394,241.451 222.542,245.05 		"/>
	</g>
	<g>
		<polygon fill="#266279" points="223.785,241.451 361.855,241.451 361.855,248.65 223.785,248.65 227.933,245.05 		"/>
	</g>
</g>
<g>
	<path fill="#266279" d="M69.357,120.59c-0.451-0.123-0.876-0.305-1.274-0.545s-0.747-0.537-1.046-0.893
		c-0.299-0.354-0.536-0.764-0.712-1.23c-0.176-0.465-0.264-0.988-0.264-1.568c0-0.615,0.123-1.191,0.369-1.727
		c0.246-0.537,0.595-1.004,1.046-1.402s0.996-0.713,1.635-0.941s1.351-0.342,2.136-0.342h6.012v2.416h-1.239v14.09h-2.575v-14.09
		h-1.512v14.09h-2.575V120.59z"/>
</g>
<g>
	<path fill="#266279" d="M69.357,217.254c-0.451-0.123-0.876-0.305-1.274-0.545s-0.747-0.537-1.046-0.893
		c-0.299-0.354-0.536-0.764-0.712-1.23c-0.176-0.465-0.264-0.988-0.264-1.568c0-0.615,0.123-1.191,0.369-1.727
		c0.246-0.537,0.595-1.004,1.046-1.402s0.996-0.711,1.635-0.939s1.351-0.344,2.136-0.344h6.012v2.418h-1.239v14.088h-2.575v-14.088
		h-1.512v14.088h-2.575V217.254z"/>
</g>
<g>
	<path fill="#266279" d="M69.357,413.254c-0.451-0.123-0.876-0.305-1.274-0.545s-0.747-0.537-1.046-0.893
		c-0.299-0.354-0.536-0.764-0.712-1.23c-0.176-0.465-0.264-0.988-0.264-1.568c0-0.615,0.123-1.191,0.369-1.727
		c0.246-0.537,0.595-1.004,1.046-1.402s0.996-0.711,1.635-0.939s1.351-0.344,2.136-0.344h6.012v2.418h-1.239v14.088h-2.575v-14.088
		h-1.512v14.088h-2.575V413.254z"/>
</g>
<g>
	<path fill="#266279" d="M69.357,315.254c-0.451-0.123-0.876-0.305-1.274-0.545s-0.747-0.537-1.046-0.893
		c-0.299-0.354-0.536-0.764-0.712-1.23c-0.176-0.465-0.264-0.988-0.264-1.568c0-0.615,0.123-1.191,0.369-1.727
		c0.246-0.537,0.595-1.004,1.046-1.402s0.996-0.711,1.635-0.939s1.351-0.344,2.136-0.344h6.012v2.418h-1.239v14.088h-2.575v-14.088
		h-1.512v14.088h-2.575V315.254z"/>
</g>
<g>
	<g>
		<polygon fill="#266279" points="223.888,60.57 361.959,60.57 361.959,67.77 223.888,67.77 228.036,64.17 		"/>
	</g>
	<g>
		<polygon fill="#266279" points="222.646,64.17 218.498,60.57 218.498,60.57 218.498,60.57 80.427,60.57 84.576,64.17 
			80.427,67.77 218.498,67.77 218.498,67.77 218.498,67.768 		"/>
	</g>
</g>
<g>
	<g>
		<polygon fill="#266279" points="218.498,485.184 80.427,485.184 80.427,477.984 218.498,477.984 222.646,481.584 		"/>
	</g>
	<g>
		<polygon fill="#266279" points="223.888,477.984 228.036,481.584 223.888,485.184 357.811,485.184 361.959,481.584 
			357.811,477.984 		"/>
	</g>
</g>
<g>
	<rect x="80.221" y="394.502" fill="#266279" width="142.488" height="7.199"/>
</g>
<g>
	<rect x="80.221" y="297.105" fill="#266279" width="142.488" height="7.199"/>
</g>
<g>
	<rect x="80.221" y="199.709" fill="#266279" width="142.488" height="7.199"/>
</g>
<g>
	<rect x="80.221" y="102.312" fill="#266279" width="142.488" height="7.199"/>
</g>
</svg>
